<?xml version="1.0" encoding="utf-8" standalone="no"?>
<!DOCTYPE svg PUBLIC "-//W3C//DTD SVG 1.1//EN"
  "http://www.w3.org/Graphics/SVG/1.1/DTD/svg11.dtd">
<!-- Created with matplotlib (https://matplotlib.org/) -->
<svg height="432pt" version="1.1" viewBox="0 0 576 432" width="576pt" xmlns="http://www.w3.org/2000/svg" xmlns:xlink="http://www.w3.org/1999/xlink">
 <defs>
  <style type="text/css">
*{stroke-linecap:butt;stroke-linejoin:round;}
  </style>
 </defs>
 <g id="figure_1">
  <g id="patch_1">
   <path d="M 0 432 
L 576 432 
L 576 0 
L 0 0 
z
" style="fill:#ffffff;"/>
  </g>
  <g id="axes_1">
   <g id="patch_2">
    <path d="M 72 384.48 
L 518.4 384.48 
L 518.4 51.84 
L 72 51.84 
z
" style="fill:#ffffff;"/>
   </g>
   <g id="matplotlib.axis_1">
    <g id="xtick_1">
     <g id="line2d_1">
      <defs>
       <path d="M 0 0 
L 0 3.5 
" id="m8a1f28ba85" style="stroke:#000000;stroke-width:0.8;"/>
      </defs>
      <g>
       <use style="stroke:#000000;stroke-width:0.8;" x="80.528063" xlink:href="#m8a1f28ba85" y="384.48"/>
      </g>
     </g>
     <g id="text_1">
      <!-- 2020-03 -->
      <defs>
       <path d="M 19.1875 8.296875 
L 53.609375 8.296875 
L 53.609375 0 
L 7.328125 0 
L 7.328125 8.296875 
Q 12.9375 14.109375 22.625 23.890625 
Q 32.328125 33.6875 34.8125 36.53125 
Q 39.546875 41.84375 41.421875 45.53125 
Q 43.3125 49.21875 43.3125 52.78125 
Q 43.3125 58.59375 39.234375 62.25 
Q 35.15625 65.921875 28.609375 65.921875 
Q 23.96875 65.921875 18.8125 64.3125 
Q 13.671875 62.703125 7.8125 59.421875 
L 7.8125 69.390625 
Q 13.765625 71.78125 18.9375 73 
Q 24.125 74.21875 28.421875 74.21875 
Q 39.75 74.21875 46.484375 68.546875 
Q 53.21875 62.890625 53.21875 53.421875 
Q 53.21875 48.921875 51.53125 44.890625 
Q 49.859375 40.875 45.40625 35.40625 
Q 44.1875 33.984375 37.640625 27.21875 
Q 31.109375 20.453125 19.1875 8.296875 
z
" id="DejaVuSans-50"/>
       <path d="M 31.78125 66.40625 
Q 24.171875 66.40625 20.328125 58.90625 
Q 16.5 51.421875 16.5 36.375 
Q 16.5 21.390625 20.328125 13.890625 
Q 24.171875 6.390625 31.78125 6.390625 
Q 39.453125 6.390625 43.28125 13.890625 
Q 47.125 21.390625 47.125 36.375 
Q 47.125 51.421875 43.28125 58.90625 
Q 39.453125 66.40625 31.78125 66.40625 
z
M 31.78125 74.21875 
Q 44.046875 74.21875 50.515625 64.515625 
Q 56.984375 54.828125 56.984375 36.375 
Q 56.984375 17.96875 50.515625 8.265625 
Q 44.046875 -1.421875 31.78125 -1.421875 
Q 19.53125 -1.421875 13.0625 8.265625 
Q 6.59375 17.96875 6.59375 36.375 
Q 6.59375 54.828125 13.0625 64.515625 
Q 19.53125 74.21875 31.78125 74.21875 
z
" id="DejaVuSans-48"/>
       <path d="M 4.890625 31.390625 
L 31.203125 31.390625 
L 31.203125 23.390625 
L 4.890625 23.390625 
z
" id="DejaVuSans-45"/>
       <path d="M 40.578125 39.3125 
Q 47.65625 37.796875 51.625 33 
Q 55.609375 28.21875 55.609375 21.1875 
Q 55.609375 10.40625 48.1875 4.484375 
Q 40.765625 -1.421875 27.09375 -1.421875 
Q 22.515625 -1.421875 17.65625 -0.515625 
Q 12.796875 0.390625 7.625 2.203125 
L 7.625 11.71875 
Q 11.71875 9.328125 16.59375 8.109375 
Q 21.484375 6.890625 26.8125 6.890625 
Q 36.078125 6.890625 40.9375 10.546875 
Q 45.796875 14.203125 45.796875 21.1875 
Q 45.796875 27.640625 41.28125 31.265625 
Q 36.765625 34.90625 28.71875 34.90625 
L 20.21875 34.90625 
L 20.21875 43.015625 
L 29.109375 43.015625 
Q 36.375 43.015625 40.234375 45.921875 
Q 44.09375 48.828125 44.09375 54.296875 
Q 44.09375 59.90625 40.109375 62.90625 
Q 36.140625 65.921875 28.71875 65.921875 
Q 24.65625 65.921875 20.015625 65.03125 
Q 15.375 64.15625 9.8125 62.3125 
L 9.8125 71.09375 
Q 15.4375 72.65625 20.34375 73.4375 
Q 25.25 74.21875 29.59375 74.21875 
Q 40.828125 74.21875 47.359375 69.109375 
Q 53.90625 64.015625 53.90625 55.328125 
Q 53.90625 49.265625 50.4375 45.09375 
Q 46.96875 40.921875 40.578125 39.3125 
z
" id="DejaVuSans-51"/>
      </defs>
      <g transform="translate(59.636657 399.078438)scale(0.1 -0.1)">
       <use xlink:href="#DejaVuSans-50"/>
       <use x="63.623047" xlink:href="#DejaVuSans-48"/>
       <use x="127.246094" xlink:href="#DejaVuSans-50"/>
       <use x="190.869141" xlink:href="#DejaVuSans-48"/>
       <use x="254.492188" xlink:href="#DejaVuSans-45"/>
       <use x="290.576172" xlink:href="#DejaVuSans-48"/>
       <use x="354.199219" xlink:href="#DejaVuSans-51"/>
      </g>
     </g>
    </g>
    <g id="xtick_2">
     <g id="line2d_2">
      <g>
       <use style="stroke:#000000;stroke-width:0.8;" x="131.780463" xlink:href="#m8a1f28ba85" y="384.48"/>
      </g>
     </g>
     <g id="text_2">
      <!-- 2020-05 -->
      <defs>
       <path d="M 10.796875 72.90625 
L 49.515625 72.90625 
L 49.515625 64.59375 
L 19.828125 64.59375 
L 19.828125 46.734375 
Q 21.96875 47.46875 24.109375 47.828125 
Q 26.265625 48.1875 28.421875 48.1875 
Q 40.625 48.1875 47.75 41.5 
Q 54.890625 34.8125 54.890625 23.390625 
Q 54.890625 11.625 47.5625 5.09375 
Q 40.234375 -1.421875 26.90625 -1.421875 
Q 22.3125 -1.421875 17.546875 -0.640625 
Q 12.796875 0.140625 7.71875 1.703125 
L 7.71875 11.625 
Q 12.109375 9.234375 16.796875 8.0625 
Q 21.484375 6.890625 26.703125 6.890625 
Q 35.15625 6.890625 40.078125 11.328125 
Q 45.015625 15.765625 45.015625 23.390625 
Q 45.015625 31 40.078125 35.4375 
Q 35.15625 39.890625 26.703125 39.890625 
Q 22.75 39.890625 18.8125 39.015625 
Q 14.890625 38.140625 10.796875 36.28125 
z
" id="DejaVuSans-53"/>
      </defs>
      <g transform="translate(110.889057 399.078438)scale(0.1 -0.1)">
       <use xlink:href="#DejaVuSans-50"/>
       <use x="63.623047" xlink:href="#DejaVuSans-48"/>
       <use x="127.246094" xlink:href="#DejaVuSans-50"/>
       <use x="190.869141" xlink:href="#DejaVuSans-48"/>
       <use x="254.492188" xlink:href="#DejaVuSans-45"/>
       <use x="290.576172" xlink:href="#DejaVuSans-48"/>
       <use x="354.199219" xlink:href="#DejaVuSans-53"/>
      </g>
     </g>
    </g>
    <g id="xtick_3">
     <g id="line2d_3">
      <g>
       <use style="stroke:#000000;stroke-width:0.8;" x="183.032863" xlink:href="#m8a1f28ba85" y="384.48"/>
      </g>
     </g>
     <g id="text_3">
      <!-- 2020-07 -->
      <defs>
       <path d="M 8.203125 72.90625 
L 55.078125 72.90625 
L 55.078125 68.703125 
L 28.609375 0 
L 18.3125 0 
L 43.21875 64.59375 
L 8.203125 64.59375 
z
" id="DejaVuSans-55"/>
      </defs>
      <g transform="translate(162.141457 399.078438)scale(0.1 -0.1)">
       <use xlink:href="#DejaVuSans-50"/>
       <use x="63.623047" xlink:href="#DejaVuSans-48"/>
       <use x="127.246094" xlink:href="#DejaVuSans-50"/>
       <use x="190.869141" xlink:href="#DejaVuSans-48"/>
       <use x="254.492188" xlink:href="#DejaVuSans-45"/>
       <use x="290.576172" xlink:href="#DejaVuSans-48"/>
       <use x="354.199219" xlink:href="#DejaVuSans-55"/>
      </g>
     </g>
    </g>
    <g id="xtick_4">
     <g id="line2d_4">
      <g>
       <use style="stroke:#000000;stroke-width:0.8;" x="235.125466" xlink:href="#m8a1f28ba85" y="384.48"/>
      </g>
     </g>
     <g id="text_4">
      <!-- 2020-09 -->
      <defs>
       <path d="M 10.984375 1.515625 
L 10.984375 10.5 
Q 14.703125 8.734375 18.5 7.8125 
Q 22.3125 6.890625 25.984375 6.890625 
Q 35.75 6.890625 40.890625 13.453125 
Q 46.046875 20.015625 46.78125 33.40625 
Q 43.953125 29.203125 39.59375 26.953125 
Q 35.25 24.703125 29.984375 24.703125 
Q 19.046875 24.703125 12.671875 31.3125 
Q 6.296875 37.9375 6.296875 49.421875 
Q 6.296875 60.640625 12.9375 67.421875 
Q 19.578125 74.21875 30.609375 74.21875 
Q 43.265625 74.21875 49.921875 64.515625 
Q 56.59375 54.828125 56.59375 36.375 
Q 56.59375 19.140625 48.40625 8.859375 
Q 40.234375 -1.421875 26.421875 -1.421875 
Q 22.703125 -1.421875 18.890625 -0.6875 
Q 15.09375 0.046875 10.984375 1.515625 
z
M 30.609375 32.421875 
Q 37.25 32.421875 41.125 36.953125 
Q 45.015625 41.5 45.015625 49.421875 
Q 45.015625 57.28125 41.125 61.84375 
Q 37.25 66.40625 30.609375 66.40625 
Q 23.96875 66.40625 20.09375 61.84375 
Q 16.21875 57.28125 16.21875 49.421875 
Q 16.21875 41.5 20.09375 36.953125 
Q 23.96875 32.421875 30.609375 32.421875 
z
" id="DejaVuSans-57"/>
      </defs>
      <g transform="translate(214.23406 399.078438)scale(0.1 -0.1)">
       <use xlink:href="#DejaVuSans-50"/>
       <use x="63.623047" xlink:href="#DejaVuSans-48"/>
       <use x="127.246094" xlink:href="#DejaVuSans-50"/>
       <use x="190.869141" xlink:href="#DejaVuSans-48"/>
       <use x="254.492188" xlink:href="#DejaVuSans-45"/>
       <use x="290.576172" xlink:href="#DejaVuSans-48"/>
       <use x="354.199219" xlink:href="#DejaVuSans-57"/>
      </g>
     </g>
    </g>
    <g id="xtick_5">
     <g id="line2d_5">
      <g>
       <use style="stroke:#000000;stroke-width:0.8;" x="286.377866" xlink:href="#m8a1f28ba85" y="384.48"/>
      </g>
     </g>
     <g id="text_5">
      <!-- 2020-11 -->
      <defs>
       <path d="M 12.40625 8.296875 
L 28.515625 8.296875 
L 28.515625 63.921875 
L 10.984375 60.40625 
L 10.984375 69.390625 
L 28.421875 72.90625 
L 38.28125 72.90625 
L 38.28125 8.296875 
L 54.390625 8.296875 
L 54.390625 0 
L 12.40625 0 
z
" id="DejaVuSans-49"/>
      </defs>
      <g transform="translate(265.486459 399.078438)scale(0.1 -0.1)">
       <use xlink:href="#DejaVuSans-50"/>
       <use x="63.623047" xlink:href="#DejaVuSans-48"/>
       <use x="127.246094" xlink:href="#DejaVuSans-50"/>
       <use x="190.869141" xlink:href="#DejaVuSans-48"/>
       <use x="254.492188" xlink:href="#DejaVuSans-45"/>
       <use x="290.576172" xlink:href="#DejaVuSans-49"/>
       <use x="354.199219" xlink:href="#DejaVuSans-49"/>
      </g>
     </g>
    </g>
    <g id="xtick_6">
     <g id="line2d_6">
      <g>
       <use style="stroke:#000000;stroke-width:0.8;" x="337.630265" xlink:href="#m8a1f28ba85" y="384.48"/>
      </g>
     </g>
     <g id="text_6">
      <!-- 2021-01 -->
      <g transform="translate(316.738859 399.078438)scale(0.1 -0.1)">
       <use xlink:href="#DejaVuSans-50"/>
       <use x="63.623047" xlink:href="#DejaVuSans-48"/>
       <use x="127.246094" xlink:href="#DejaVuSans-50"/>
       <use x="190.869141" xlink:href="#DejaVuSans-49"/>
       <use x="254.492188" xlink:href="#DejaVuSans-45"/>
       <use x="290.576172" xlink:href="#DejaVuSans-48"/>
       <use x="354.199219" xlink:href="#DejaVuSans-49"/>
      </g>
     </g>
    </g>
    <g id="xtick_7">
     <g id="line2d_7">
      <g>
       <use style="stroke:#000000;stroke-width:0.8;" x="387.202259" xlink:href="#m8a1f28ba85" y="384.48"/>
      </g>
     </g>
     <g id="text_7">
      <!-- 2021-03 -->
      <g transform="translate(366.310852 399.078438)scale(0.1 -0.1)">
       <use xlink:href="#DejaVuSans-50"/>
       <use x="63.623047" xlink:href="#DejaVuSans-48"/>
       <use x="127.246094" xlink:href="#DejaVuSans-50"/>
       <use x="190.869141" xlink:href="#DejaVuSans-49"/>
       <use x="254.492188" xlink:href="#DejaVuSans-45"/>
       <use x="290.576172" xlink:href="#DejaVuSans-48"/>
       <use x="354.199219" xlink:href="#DejaVuSans-51"/>
      </g>
     </g>
    </g>
    <g id="xtick_8">
     <g id="line2d_8">
      <g>
       <use style="stroke:#000000;stroke-width:0.8;" x="438.454658" xlink:href="#m8a1f28ba85" y="384.48"/>
      </g>
     </g>
     <g id="text_8">
      <!-- 2021-05 -->
      <g transform="translate(417.563252 399.078438)scale(0.1 -0.1)">
       <use xlink:href="#DejaVuSans-50"/>
       <use x="63.623047" xlink:href="#DejaVuSans-48"/>
       <use x="127.246094" xlink:href="#DejaVuSans-50"/>
       <use x="190.869141" xlink:href="#DejaVuSans-49"/>
       <use x="254.492188" xlink:href="#DejaVuSans-45"/>
       <use x="290.576172" xlink:href="#DejaVuSans-48"/>
       <use x="354.199219" xlink:href="#DejaVuSans-53"/>
      </g>
     </g>
    </g>
    <g id="xtick_9">
     <g id="line2d_9">
      <g>
       <use style="stroke:#000000;stroke-width:0.8;" x="489.707058" xlink:href="#m8a1f28ba85" y="384.48"/>
      </g>
     </g>
     <g id="text_9">
      <!-- 2021-07 -->
      <g transform="translate(468.815652 399.078438)scale(0.1 -0.1)">
       <use xlink:href="#DejaVuSans-50"/>
       <use x="63.623047" xlink:href="#DejaVuSans-48"/>
       <use x="127.246094" xlink:href="#DejaVuSans-50"/>
       <use x="190.869141" xlink:href="#DejaVuSans-49"/>
       <use x="254.492188" xlink:href="#DejaVuSans-45"/>
       <use x="290.576172" xlink:href="#DejaVuSans-48"/>
       <use x="354.199219" xlink:href="#DejaVuSans-55"/>
      </g>
     </g>
    </g>
    <g id="text_10">
     <!-- Reported On -->
     <defs>
      <path d="M 44.390625 34.1875 
Q 47.5625 33.109375 50.5625 29.59375 
Q 53.5625 26.078125 56.59375 19.921875 
L 66.609375 0 
L 56 0 
L 46.6875 18.703125 
Q 43.0625 26.03125 39.671875 28.421875 
Q 36.28125 30.8125 30.421875 30.8125 
L 19.671875 30.8125 
L 19.671875 0 
L 9.8125 0 
L 9.8125 72.90625 
L 32.078125 72.90625 
Q 44.578125 72.90625 50.734375 67.671875 
Q 56.890625 62.453125 56.890625 51.90625 
Q 56.890625 45.015625 53.6875 40.46875 
Q 50.484375 35.9375 44.390625 34.1875 
z
M 19.671875 64.796875 
L 19.671875 38.921875 
L 32.078125 38.921875 
Q 39.203125 38.921875 42.84375 42.21875 
Q 46.484375 45.515625 46.484375 51.90625 
Q 46.484375 58.296875 42.84375 61.546875 
Q 39.203125 64.796875 32.078125 64.796875 
z
" id="DejaVuSans-82"/>
      <path d="M 56.203125 29.59375 
L 56.203125 25.203125 
L 14.890625 25.203125 
Q 15.484375 15.921875 20.484375 11.0625 
Q 25.484375 6.203125 34.421875 6.203125 
Q 39.59375 6.203125 44.453125 7.46875 
Q 49.3125 8.734375 54.109375 11.28125 
L 54.109375 2.78125 
Q 49.265625 0.734375 44.1875 -0.34375 
Q 39.109375 -1.421875 33.890625 -1.421875 
Q 20.796875 -1.421875 13.15625 6.1875 
Q 5.515625 13.8125 5.515625 26.8125 
Q 5.515625 40.234375 12.765625 48.109375 
Q 20.015625 56 32.328125 56 
Q 43.359375 56 49.78125 48.890625 
Q 56.203125 41.796875 56.203125 29.59375 
z
M 47.21875 32.234375 
Q 47.125 39.59375 43.09375 43.984375 
Q 39.0625 48.390625 32.421875 48.390625 
Q 24.90625 48.390625 20.390625 44.140625 
Q 15.875 39.890625 15.1875 32.171875 
z
" id="DejaVuSans-101"/>
      <path d="M 18.109375 8.203125 
L 18.109375 -20.796875 
L 9.078125 -20.796875 
L 9.078125 54.6875 
L 18.109375 54.6875 
L 18.109375 46.390625 
Q 20.953125 51.265625 25.265625 53.625 
Q 29.59375 56 35.59375 56 
Q 45.5625 56 51.78125 48.09375 
Q 58.015625 40.1875 58.015625 27.296875 
Q 58.015625 14.40625 51.78125 6.484375 
Q 45.5625 -1.421875 35.59375 -1.421875 
Q 29.59375 -1.421875 25.265625 0.953125 
Q 20.953125 3.328125 18.109375 8.203125 
z
M 48.6875 27.296875 
Q 48.6875 37.203125 44.609375 42.84375 
Q 40.53125 48.484375 33.40625 48.484375 
Q 26.265625 48.484375 22.1875 42.84375 
Q 18.109375 37.203125 18.109375 27.296875 
Q 18.109375 17.390625 22.1875 11.75 
Q 26.265625 6.109375 33.40625 6.109375 
Q 40.53125 6.109375 44.609375 11.75 
Q 48.6875 17.390625 48.6875 27.296875 
z
" id="DejaVuSans-112"/>
      <path d="M 30.609375 48.390625 
Q 23.390625 48.390625 19.1875 42.75 
Q 14.984375 37.109375 14.984375 27.296875 
Q 14.984375 17.484375 19.15625 11.84375 
Q 23.34375 6.203125 30.609375 6.203125 
Q 37.796875 6.203125 41.984375 11.859375 
Q 46.1875 17.53125 46.1875 27.296875 
Q 46.1875 37.015625 41.984375 42.703125 
Q 37.796875 48.390625 30.609375 48.390625 
z
M 30.609375 56 
Q 42.328125 56 49.015625 48.375 
Q 55.71875 40.765625 55.71875 27.296875 
Q 55.71875 13.875 49.015625 6.21875 
Q 42.328125 -1.421875 30.609375 -1.421875 
Q 18.84375 -1.421875 12.171875 6.21875 
Q 5.515625 13.875 5.515625 27.296875 
Q 5.515625 40.765625 12.171875 48.375 
Q 18.84375 56 30.609375 56 
z
" id="DejaVuSans-111"/>
      <path d="M 41.109375 46.296875 
Q 39.59375 47.171875 37.8125 47.578125 
Q 36.03125 48 33.890625 48 
Q 26.265625 48 22.1875 43.046875 
Q 18.109375 38.09375 18.109375 28.8125 
L 18.109375 0 
L 9.078125 0 
L 9.078125 54.6875 
L 18.109375 54.6875 
L 18.109375 46.1875 
Q 20.953125 51.171875 25.484375 53.578125 
Q 30.03125 56 36.53125 56 
Q 37.453125 56 38.578125 55.875 
Q 39.703125 55.765625 41.0625 55.515625 
z
" id="DejaVuSans-114"/>
      <path d="M 18.3125 70.21875 
L 18.3125 54.6875 
L 36.8125 54.6875 
L 36.8125 47.703125 
L 18.3125 47.703125 
L 18.3125 18.015625 
Q 18.3125 11.328125 20.140625 9.421875 
Q 21.96875 7.515625 27.59375 7.515625 
L 36.8125 7.515625 
L 36.8125 0 
L 27.59375 0 
Q 17.1875 0 13.234375 3.875 
Q 9.28125 7.765625 9.28125 18.015625 
L 9.28125 47.703125 
L 2.6875 47.703125 
L 2.6875 54.6875 
L 9.28125 54.6875 
L 9.28125 70.21875 
z
" id="DejaVuSans-116"/>
      <path d="M 45.40625 46.390625 
L 45.40625 75.984375 
L 54.390625 75.984375 
L 54.390625 0 
L 45.40625 0 
L 45.40625 8.203125 
Q 42.578125 3.328125 38.25 0.953125 
Q 33.9375 -1.421875 27.875 -1.421875 
Q 17.96875 -1.421875 11.734375 6.484375 
Q 5.515625 14.40625 5.515625 27.296875 
Q 5.515625 40.1875 11.734375 48.09375 
Q 17.96875 56 27.875 56 
Q 33.9375 56 38.25 53.625 
Q 42.578125 51.265625 45.40625 46.390625 
z
M 14.796875 27.296875 
Q 14.796875 17.390625 18.875 11.75 
Q 22.953125 6.109375 30.078125 6.109375 
Q 37.203125 6.109375 41.296875 11.75 
Q 45.40625 17.390625 45.40625 27.296875 
Q 45.40625 37.203125 41.296875 42.84375 
Q 37.203125 48.484375 30.078125 48.484375 
Q 22.953125 48.484375 18.875 42.84375 
Q 14.796875 37.203125 14.796875 27.296875 
z
" id="DejaVuSans-100"/>
      <path id="DejaVuSans-32"/>
      <path d="M 39.40625 66.21875 
Q 28.65625 66.21875 22.328125 58.203125 
Q 16.015625 50.203125 16.015625 36.375 
Q 16.015625 22.609375 22.328125 14.59375 
Q 28.65625 6.59375 39.40625 6.59375 
Q 50.140625 6.59375 56.421875 14.59375 
Q 62.703125 22.609375 62.703125 36.375 
Q 62.703125 50.203125 56.421875 58.203125 
Q 50.140625 66.21875 39.40625 66.21875 
z
M 39.40625 74.21875 
Q 54.734375 74.21875 63.90625 63.9375 
Q 73.09375 53.65625 73.09375 36.375 
Q 73.09375 19.140625 63.90625 8.859375 
Q 54.734375 -1.421875 39.40625 -1.421875 
Q 24.03125 -1.421875 14.8125 8.828125 
Q 5.609375 19.09375 5.609375 36.375 
Q 5.609375 53.65625 14.8125 63.9375 
Q 24.03125 74.21875 39.40625 74.21875 
z
" id="DejaVuSans-79"/>
      <path d="M 54.890625 33.015625 
L 54.890625 0 
L 45.90625 0 
L 45.90625 32.71875 
Q 45.90625 40.484375 42.875 44.328125 
Q 39.84375 48.1875 33.796875 48.1875 
Q 26.515625 48.1875 22.3125 43.546875 
Q 18.109375 38.921875 18.109375 30.90625 
L 18.109375 0 
L 9.078125 0 
L 9.078125 54.6875 
L 18.109375 54.6875 
L 18.109375 46.1875 
Q 21.34375 51.125 25.703125 53.5625 
Q 30.078125 56 35.796875 56 
Q 45.21875 56 50.046875 50.171875 
Q 54.890625 44.34375 54.890625 33.015625 
z
" id="DejaVuSans-110"/>
     </defs>
     <g transform="translate(263.680469 412.756563)scale(0.1 -0.1)">
      <use xlink:href="#DejaVuSans-82"/>
      <use x="64.982422" xlink:href="#DejaVuSans-101"/>
      <use x="126.505859" xlink:href="#DejaVuSans-112"/>
      <use x="189.982422" xlink:href="#DejaVuSans-111"/>
      <use x="251.164062" xlink:href="#DejaVuSans-114"/>
      <use x="292.277344" xlink:href="#DejaVuSans-116"/>
      <use x="331.486328" xlink:href="#DejaVuSans-101"/>
      <use x="393.009766" xlink:href="#DejaVuSans-100"/>
      <use x="456.486328" xlink:href="#DejaVuSans-32"/>
      <use x="488.273438" xlink:href="#DejaVuSans-79"/>
      <use x="566.984375" xlink:href="#DejaVuSans-110"/>
     </g>
    </g>
   </g>
   <g id="matplotlib.axis_2">
    <g id="ytick_1">
     <g id="line2d_10">
      <defs>
       <path d="M 0 0 
L -3.5 0 
" id="m729aa96415" style="stroke:#000000;stroke-width:0.8;"/>
      </defs>
      <g>
       <use style="stroke:#000000;stroke-width:0.8;" x="72" xlink:href="#m729aa96415" y="369.464729"/>
      </g>
     </g>
     <g id="text_11">
      <!-- 0.00 % -->
      <defs>
       <path d="M 10.6875 12.40625 
L 21 12.40625 
L 21 0 
L 10.6875 0 
z
" id="DejaVuSans-46"/>
       <path d="M 72.703125 32.078125 
Q 68.453125 32.078125 66.03125 28.46875 
Q 63.625 24.859375 63.625 18.40625 
Q 63.625 12.0625 66.03125 8.421875 
Q 68.453125 4.78125 72.703125 4.78125 
Q 76.859375 4.78125 79.265625 8.421875 
Q 81.6875 12.0625 81.6875 18.40625 
Q 81.6875 24.8125 79.265625 28.4375 
Q 76.859375 32.078125 72.703125 32.078125 
z
M 72.703125 38.28125 
Q 80.421875 38.28125 84.953125 32.90625 
Q 89.5 27.546875 89.5 18.40625 
Q 89.5 9.28125 84.9375 3.921875 
Q 80.375 -1.421875 72.703125 -1.421875 
Q 64.890625 -1.421875 60.34375 3.921875 
Q 55.8125 9.28125 55.8125 18.40625 
Q 55.8125 27.59375 60.375 32.9375 
Q 64.9375 38.28125 72.703125 38.28125 
z
M 22.3125 68.015625 
Q 18.109375 68.015625 15.6875 64.375 
Q 13.28125 60.75 13.28125 54.390625 
Q 13.28125 47.953125 15.671875 44.328125 
Q 18.0625 40.71875 22.3125 40.71875 
Q 26.5625 40.71875 28.96875 44.328125 
Q 31.390625 47.953125 31.390625 54.390625 
Q 31.390625 60.6875 28.953125 64.34375 
Q 26.515625 68.015625 22.3125 68.015625 
z
M 66.40625 74.21875 
L 74.21875 74.21875 
L 28.609375 -1.421875 
L 20.796875 -1.421875 
z
M 22.3125 74.21875 
Q 30.03125 74.21875 34.609375 68.875 
Q 39.203125 63.53125 39.203125 54.390625 
Q 39.203125 45.171875 34.640625 39.84375 
Q 30.078125 34.515625 22.3125 34.515625 
Q 14.546875 34.515625 10.03125 39.859375 
Q 5.515625 45.21875 5.515625 54.390625 
Q 5.515625 63.484375 10.046875 68.84375 
Q 14.59375 74.21875 22.3125 74.21875 
z
" id="DejaVuSans-37"/>
      </defs>
      <g transform="translate(30.054688 373.263948)scale(0.1 -0.1)">
       <use xlink:href="#DejaVuSans-48"/>
       <use x="63.623047" xlink:href="#DejaVuSans-46"/>
       <use x="95.410156" xlink:href="#DejaVuSans-48"/>
       <use x="159.033203" xlink:href="#DejaVuSans-48"/>
       <use x="222.65625" xlink:href="#DejaVuSans-32"/>
       <use x="254.443359" xlink:href="#DejaVuSans-37"/>
      </g>
     </g>
    </g>
    <g id="ytick_2">
     <g id="line2d_11">
      <g>
       <use style="stroke:#000000;stroke-width:0.8;" x="72" xlink:href="#m729aa96415" y="331.898479"/>
      </g>
     </g>
     <g id="text_12">
      <!-- 5.00 % -->
      <g transform="translate(30.054688 335.697697)scale(0.1 -0.1)">
       <use xlink:href="#DejaVuSans-53"/>
       <use x="63.623047" xlink:href="#DejaVuSans-46"/>
       <use x="95.410156" xlink:href="#DejaVuSans-48"/>
       <use x="159.033203" xlink:href="#DejaVuSans-48"/>
       <use x="222.65625" xlink:href="#DejaVuSans-32"/>
       <use x="254.443359" xlink:href="#DejaVuSans-37"/>
      </g>
     </g>
    </g>
    <g id="ytick_3">
     <g id="line2d_12">
      <g>
       <use style="stroke:#000000;stroke-width:0.8;" x="72" xlink:href="#m729aa96415" y="294.332228"/>
      </g>
     </g>
     <g id="text_13">
      <!-- 10.00 % -->
      <g transform="translate(23.692187 298.131447)scale(0.1 -0.1)">
       <use xlink:href="#DejaVuSans-49"/>
       <use x="63.623047" xlink:href="#DejaVuSans-48"/>
       <use x="127.246094" xlink:href="#DejaVuSans-46"/>
       <use x="159.033203" xlink:href="#DejaVuSans-48"/>
       <use x="222.65625" xlink:href="#DejaVuSans-48"/>
       <use x="286.279297" xlink:href="#DejaVuSans-32"/>
       <use x="318.066406" xlink:href="#DejaVuSans-37"/>
      </g>
     </g>
    </g>
    <g id="ytick_4">
     <g id="line2d_13">
      <g>
       <use style="stroke:#000000;stroke-width:0.8;" x="72" xlink:href="#m729aa96415" y="256.765977"/>
      </g>
     </g>
     <g id="text_14">
      <!-- 15.00 % -->
      <g transform="translate(23.692187 260.565196)scale(0.1 -0.1)">
       <use xlink:href="#DejaVuSans-49"/>
       <use x="63.623047" xlink:href="#DejaVuSans-53"/>
       <use x="127.246094" xlink:href="#DejaVuSans-46"/>
       <use x="159.033203" xlink:href="#DejaVuSans-48"/>
       <use x="222.65625" xlink:href="#DejaVuSans-48"/>
       <use x="286.279297" xlink:href="#DejaVuSans-32"/>
       <use x="318.066406" xlink:href="#DejaVuSans-37"/>
      </g>
     </g>
    </g>
    <g id="ytick_5">
     <g id="line2d_14">
      <g>
       <use style="stroke:#000000;stroke-width:0.8;" x="72" xlink:href="#m729aa96415" y="219.199727"/>
      </g>
     </g>
     <g id="text_15">
      <!-- 20.00 % -->
      <g transform="translate(23.692187 222.998946)scale(0.1 -0.1)">
       <use xlink:href="#DejaVuSans-50"/>
       <use x="63.623047" xlink:href="#DejaVuSans-48"/>
       <use x="127.246094" xlink:href="#DejaVuSans-46"/>
       <use x="159.033203" xlink:href="#DejaVuSans-48"/>
       <use x="222.65625" xlink:href="#DejaVuSans-48"/>
       <use x="286.279297" xlink:href="#DejaVuSans-32"/>
       <use x="318.066406" xlink:href="#DejaVuSans-37"/>
      </g>
     </g>
    </g>
    <g id="ytick_6">
     <g id="line2d_15">
      <g>
       <use style="stroke:#000000;stroke-width:0.8;" x="72" xlink:href="#m729aa96415" y="181.633476"/>
      </g>
     </g>
     <g id="text_16">
      <!-- 25.00 % -->
      <g transform="translate(23.692187 185.432695)scale(0.1 -0.1)">
       <use xlink:href="#DejaVuSans-50"/>
       <use x="63.623047" xlink:href="#DejaVuSans-53"/>
       <use x="127.246094" xlink:href="#DejaVuSans-46"/>
       <use x="159.033203" xlink:href="#DejaVuSans-48"/>
       <use x="222.65625" xlink:href="#DejaVuSans-48"/>
       <use x="286.279297" xlink:href="#DejaVuSans-32"/>
       <use x="318.066406" xlink:href="#DejaVuSans-37"/>
      </g>
     </g>
    </g>
    <g id="ytick_7">
     <g id="line2d_16">
      <g>
       <use style="stroke:#000000;stroke-width:0.8;" x="72" xlink:href="#m729aa96415" y="144.067226"/>
      </g>
     </g>
     <g id="text_17">
      <!-- 30.00 % -->
      <g transform="translate(23.692187 147.866444)scale(0.1 -0.1)">
       <use xlink:href="#DejaVuSans-51"/>
       <use x="63.623047" xlink:href="#DejaVuSans-48"/>
       <use x="127.246094" xlink:href="#DejaVuSans-46"/>
       <use x="159.033203" xlink:href="#DejaVuSans-48"/>
       <use x="222.65625" xlink:href="#DejaVuSans-48"/>
       <use x="286.279297" xlink:href="#DejaVuSans-32"/>
       <use x="318.066406" xlink:href="#DejaVuSans-37"/>
      </g>
     </g>
    </g>
    <g id="ytick_8">
     <g id="line2d_17">
      <g>
       <use style="stroke:#000000;stroke-width:0.8;" x="72" xlink:href="#m729aa96415" y="106.500975"/>
      </g>
     </g>
     <g id="text_18">
      <!-- 35.00 % -->
      <g transform="translate(23.692187 110.300194)scale(0.1 -0.1)">
       <use xlink:href="#DejaVuSans-51"/>
       <use x="63.623047" xlink:href="#DejaVuSans-53"/>
       <use x="127.246094" xlink:href="#DejaVuSans-46"/>
       <use x="159.033203" xlink:href="#DejaVuSans-48"/>
       <use x="222.65625" xlink:href="#DejaVuSans-48"/>
       <use x="286.279297" xlink:href="#DejaVuSans-32"/>
       <use x="318.066406" xlink:href="#DejaVuSans-37"/>
      </g>
     </g>
    </g>
    <g id="ytick_9">
     <g id="line2d_18">
      <g>
       <use style="stroke:#000000;stroke-width:0.8;" x="72" xlink:href="#m729aa96415" y="68.934725"/>
      </g>
     </g>
     <g id="text_19">
      <!-- 40.00 % -->
      <defs>
       <path d="M 37.796875 64.3125 
L 12.890625 25.390625 
L 37.796875 25.390625 
z
M 35.203125 72.90625 
L 47.609375 72.90625 
L 47.609375 25.390625 
L 58.015625 25.390625 
L 58.015625 17.1875 
L 47.609375 17.1875 
L 47.609375 0 
L 37.796875 0 
L 37.796875 17.1875 
L 4.890625 17.1875 
L 4.890625 26.703125 
z
" id="DejaVuSans-52"/>
      </defs>
      <g transform="translate(23.692187 72.733943)scale(0.1 -0.1)">
       <use xlink:href="#DejaVuSans-52"/>
       <use x="63.623047" xlink:href="#DejaVuSans-48"/>
       <use x="127.246094" xlink:href="#DejaVuSans-46"/>
       <use x="159.033203" xlink:href="#DejaVuSans-48"/>
       <use x="222.65625" xlink:href="#DejaVuSans-48"/>
       <use x="286.279297" xlink:href="#DejaVuSans-32"/>
       <use x="318.066406" xlink:href="#DejaVuSans-37"/>
      </g>
     </g>
    </g>
    <g id="text_20">
     <!-- Rate -->
     <defs>
      <path d="M 34.28125 27.484375 
Q 23.390625 27.484375 19.1875 25 
Q 14.984375 22.515625 14.984375 16.5 
Q 14.984375 11.71875 18.140625 8.90625 
Q 21.296875 6.109375 26.703125 6.109375 
Q 34.1875 6.109375 38.703125 11.40625 
Q 43.21875 16.703125 43.21875 25.484375 
L 43.21875 27.484375 
z
M 52.203125 31.203125 
L 52.203125 0 
L 43.21875 0 
L 43.21875 8.296875 
Q 40.140625 3.328125 35.546875 0.953125 
Q 30.953125 -1.421875 24.3125 -1.421875 
Q 15.921875 -1.421875 10.953125 3.296875 
Q 6 8.015625 6 15.921875 
Q 6 25.140625 12.171875 29.828125 
Q 18.359375 34.515625 30.609375 34.515625 
L 43.21875 34.515625 
L 43.21875 35.40625 
Q 43.21875 41.609375 39.140625 45 
Q 35.0625 48.390625 27.6875 48.390625 
Q 23 48.390625 18.546875 47.265625 
Q 14.109375 46.140625 10.015625 43.890625 
L 10.015625 52.203125 
Q 14.9375 54.109375 19.578125 55.046875 
Q 24.21875 56 28.609375 56 
Q 40.484375 56 46.34375 49.84375 
Q 52.203125 43.703125 52.203125 31.203125 
z
" id="DejaVuSans-97"/>
     </defs>
     <g transform="translate(17.6125 229.6225)rotate(-90)scale(0.1 -0.1)">
      <use xlink:href="#DejaVuSans-82"/>
      <use x="67.232422" xlink:href="#DejaVuSans-97"/>
      <use x="128.511719" xlink:href="#DejaVuSans-116"/>
      <use x="167.720703" xlink:href="#DejaVuSans-101"/>
     </g>
    </g>
   </g>
   <g id="line2d_19">
    <path clip-path="url(#p46ca6b9884)" d="M 498.109091 369.355935 
L 483.825635 369.326591 
L 456.098927 368.812417 
L 453.578317 368.720333 
L 447.696894 368.160207 
L 446.856691 367.899999 
L 445.176285 368.146287 
L 443.495878 368.1156 
L 442.655675 368.237156 
L 441.815471 368.05113 
L 440.975268 368.113123 
L 439.294862 367.407061 
L 437.614455 367.298929 
L 436.774252 366.550321 
L 435.934049 366.879686 
L 433.413439 366.419608 
L 431.733032 366.327758 
L 430.892829 366.655048 
L 430.052626 366.040585 
L 428.372219 365.614617 
L 427.532016 365.391593 
L 425.851609 365.282735 
L 424.171203 364.80849 
L 423.330999 363.270642 
L 422.490796 364.109725 
L 421.650593 363.839472 
L 419.970186 363.5526 
L 419.129983 363.131872 
L 418.28978 362.848303 
L 417.449577 363.772338 
L 416.609373 362.118081 
L 415.76917 361.827133 
L 414.928967 361.730959 
L 413.24856 361.348449 
L 411.568154 360.992994 
L 409.047544 360.846282 
L 404.846527 360.490646 
L 404.006324 360.287276 
L 402.325918 360.482182 
L 400.645511 360.974659 
L 399.805308 361.421119 
L 398.965104 361.648082 
L 398.124901 362.192208 
L 397.284698 362.249033 
L 396.444495 362.441005 
L 395.604291 362.422051 
L 394.764088 362.729751 
L 393.923885 363.349599 
L 393.083682 363.739454 
L 390.563072 364.029795 
L 389.722868 364.54788 
L 388.882665 364.671001 
L 388.042462 364.390345 
L 386.362055 364.861006 
L 385.521852 364.902351 
L 384.681649 365.123757 
L 383.841446 365.193083 
L 382.161039 365.695687 
L 381.320836 365.876732 
L 380.480632 366.248287 
L 378.800226 366.287251 
L 377.960023 366.501298 
L 377.119819 366.494879 
L 375.439413 366.685599 
L 372.0786 366.653672 
L 361.155957 367.560131 
L 354.434331 367.992731 
L 349.393111 367.678356 
L 347.712705 367.392226 
L 345.192095 366.616712 
L 343.511688 366.603429 
L 342.671485 366.847375 
L 341.831282 366.740807 
L 340.991078 366.336911 
L 340.150875 366.24719 
L 339.310672 366.606955 
L 336.790062 366.446819 
L 335.109656 366.618814 
L 334.269452 366.396749 
L 333.429249 365.865044 
L 332.589046 365.952197 
L 331.748842 365.643061 
L 330.068436 364.048269 
L 329.228233 363.80191 
L 327.547826 362.65957 
L 325.86742 362.244881 
L 325.027216 361.344156 
L 324.187013 360.607044 
L 322.506606 358.677397 
L 321.666403 358.100918 
L 320.8262 358.01425 
L 319.145793 356.837655 
L 318.30559 356.452374 
L 317.465387 356.31541 
L 316.625184 356.349463 
L 314.944777 355.898894 
L 314.104574 355.901307 
L 313.26437 355.789798 
L 312.424167 355.242379 
L 311.583964 354.445887 
L 310.743761 353.283456 
L 309.903557 352.645868 
L 309.063354 352.209959 
L 308.223151 351.529506 
L 307.382947 350.439578 
L 305.702541 348.702217 
L 304.862338 347.426613 
L 304.022134 346.386266 
L 303.181931 346.485155 
L 302.341728 345.74355 
L 301.501525 344.544993 
L 300.661321 344.148854 
L 299.821118 343.079891 
L 298.980915 342.248372 
L 298.140711 340.709776 
L 297.300508 340.636633 
L 296.460305 340.056248 
L 295.620102 339.061338 
L 293.939695 335.119967 
L 293.099492 333.511233 
L 292.259289 334.114011 
L 291.419085 332.622586 
L 289.738679 331.871939 
L 288.898475 331.767505 
L 288.058272 332.002332 
L 287.218069 332.757585 
L 286.377866 331.2974 
L 285.537662 332.826765 
L 284.697459 333.530297 
L 283.857256 335.013786 
L 283.017053 336.165262 
L 281.336646 340.102681 
L 280.496443 342.613567 
L 279.656239 342.097195 
L 278.816036 342.872851 
L 277.975833 343.822485 
L 275.455223 347.97943 
L 273.774816 350.171227 
L 272.934613 350.422378 
L 272.09441 351.459938 
L 268.733597 356.308619 
L 267.893394 356.330694 
L 267.05319 357.414705 
L 266.212987 357.641676 
L 265.372784 360.049646 
L 263.692377 361.315585 
L 262.852174 361.563711 
L 261.171767 361.597207 
L 260.331564 362.768577 
L 259.491361 361.16641 
L 258.651158 361.755797 
L 257.810954 362.593782 
L 256.970751 362.887827 
L 256.130548 362.94803 
L 254.450141 363.66828 
L 253.609938 364.375378 
L 252.769735 364.249302 
L 251.929531 363.945642 
L 249.408922 363.975291 
L 247.728515 363.740989 
L 246.888312 364.007677 
L 246.048108 363.88453 
L 245.207905 364.380318 
L 243.527499 364.244257 
L 241.847092 364.307053 
L 240.166685 363.809627 
L 239.326482 363.66437 
L 238.486279 363.737093 
L 237.646076 363.683734 
L 236.805872 363.768875 
L 235.125466 363.668464 
L 233.445059 363.304833 
L 232.604856 362.376415 
L 231.764653 363.035816 
L 230.924449 362.884359 
L 228.40384 363.098929 
L 227.563636 362.7878 
L 226.723433 363.649361 
L 225.88323 362.973274 
L 225.043027 361.508354 
L 224.202823 362.531877 
L 223.36262 362.301807 
L 222.522417 361.890249 
L 221.682213 361.968809 
L 220.84201 361.782681 
L 220.001807 361.375412 
L 219.161604 362.449563 
L 218.3214 359.971691 
L 217.481197 358.712676 
L 216.640994 358.140271 
L 215.800791 357.249628 
L 214.960587 356.601383 
L 214.120384 356.352536 
L 213.280181 355.440765 
L 212.439977 355.398653 
L 209.079164 354.670338 
L 208.238961 354.017088 
L 206.558554 353.172484 
L 205.718351 352.17966 
L 204.878148 350.839514 
L 204.037945 350.435852 
L 203.197741 350.452215 
L 202.357538 349.974198 
L 201.517335 349.018544 
L 200.677132 348.411752 
L 198.996725 349.464562 
L 197.316318 349.547284 
L 195.635912 348.0668 
L 194.795709 346.200171 
L 193.955505 345.26828 
L 193.115302 345.245986 
L 192.275099 344.368533 
L 191.434896 344.329705 
L 190.594692 344.075146 
L 189.754489 345.058832 
L 188.914286 347.201782 
L 188.074082 347.850064 
L 187.233879 347.754771 
L 186.393676 347.803661 
L 185.553473 347.467376 
L 184.713269 348.294497 
L 183.873066 349.381603 
L 183.032863 348.563055 
L 182.19266 348.766831 
L 181.352456 348.774618 
L 180.512253 349.781302 
L 179.67205 350.391249 
L 178.831846 349.729156 
L 177.15144 350.108094 
L 176.311237 350.665249 
L 175.471033 350.572535 
L 174.63083 351.071196 
L 173.790627 351.196243 
L 172.950423 351.996 
L 172.11022 350.745442 
L 171.270017 351.388353 
L 170.429814 350.323866 
L 169.58961 350.887072 
L 168.749407 349.320046 
L 167.909204 349.474286 
L 167.069001 348.589503 
L 166.228797 350.450813 
L 165.388594 352.692045 
L 164.548391 355.561562 
L 163.708187 357.730912 
L 162.867984 360.693026 
L 162.027781 360.725003 
L 161.187578 363.500298 
L 160.347374 364.884077 
L 159.507171 365.187982 
L 158.666968 365.370053 
L 157.826765 365.73634 
L 156.986561 365.727281 
L 156.146358 365.483337 
L 155.306155 364.469579 
L 154.465951 362.944217 
L 153.625748 361.872423 
L 150.264935 358.541766 
L 149.424732 358.316926 
L 148.584529 358.263545 
L 147.744325 358.478275 
L 146.904122 357.621627 
L 146.063919 357.00276 
L 145.223715 356.804618 
L 144.383512 356.135925 
L 143.543309 355.204212 
L 142.703106 354.634864 
L 141.862902 353.195724 
L 141.022699 351.046197 
L 140.182496 349.485069 
L 139.342292 348.60994 
L 138.502089 349.436626 
L 137.661886 349.5512 
L 136.821683 348.60878 
L 135.981479 347.354663 
L 135.141276 348.296605 
L 134.301073 348.824916 
L 132.620666 343.114053 
L 131.780463 344.647968 
L 130.94026 335.453539 
L 130.100056 332.351858 
L 129.259853 330.709721 
L 128.41965 328.320595 
L 127.579447 329.278096 
L 126.739243 331.807316 
L 125.89904 328.947183 
L 125.058837 335.577531 
L 124.218634 335.61146 
L 123.37843 335.874485 
L 122.538227 336.761709 
L 121.698024 339.305139 
L 120.017617 338.671742 
L 118.337211 344.684873 
L 117.497007 346.749045 
L 116.656804 345.709936 
L 115.816601 343.710309 
L 114.976398 340.145487 
L 114.136194 340.541281 
L 113.295991 337.071344 
L 112.455788 332.951505 
L 111.615584 329.871957 
L 110.775381 323.872604 
L 109.935178 323.491877 
L 109.094975 324.549254 
L 108.254771 315.371874 
L 107.414568 310.567901 
L 106.574365 309.780802 
L 105.734161 304.586059 
L 104.893958 307.210209 
L 104.053755 303.420024 
L 103.213552 293.434054 
L 102.373348 279.73661 
L 101.533145 258.627726 
L 100.692942 265.658537 
L 99.852739 242.834003 
L 99.012535 224.345102 
L 98.172332 230.0099 
L 97.332129 221.32725 
L 96.491925 186.067059 
L 95.651722 90.681866 
L 94.811519 92.990173 
L 93.971316 66.96 
L 93.131112 94.163214 
L 92.290909 96.247399 
L 92.290909 96.247399 
" style="fill:none;stroke:#1f77b4;stroke-linecap:square;stroke-width:1.5;"/>
   </g>
   <g id="line2d_20">
    <path clip-path="url(#p46ca6b9884)" d="M 498.109091 369.186231 
L 494.748278 369.083571 
L 491.387465 369.14303 
L 489.707058 369.197514 
L 488.026652 369.237836 
L 484.665839 369.104892 
L 482.985432 368.963511 
L 482.145229 368.735597 
L 478.784416 368.53047 
L 477.104009 368.330778 
L 476.263806 368.484321 
L 475.423602 368.443998 
L 473.743196 368.541811 
L 472.062789 368.545434 
L 471.222586 368.592946 
L 469.54218 368.205557 
L 468.701976 367.907297 
L 466.181366 367.747495 
L 465.341163 367.363637 
L 464.50096 367.306688 
L 463.660757 367.05639 
L 462.820553 367.428278 
L 461.140147 367.388193 
L 459.45974 367.299046 
L 458.619537 366.964015 
L 457.779334 366.842001 
L 456.93913 366.281842 
L 455.258724 366.258959 
L 454.418521 366.074395 
L 452.738114 365.342607 
L 451.897911 365.48173 
L 451.057708 365.211454 
L 448.537098 365.048142 
L 447.696894 365.717438 
L 446.016488 366.293964 
L 445.176285 366.987127 
L 443.495878 366.861414 
L 442.655675 367.211585 
L 441.815471 366.478346 
L 440.975268 366.343712 
L 440.135065 365.580746 
L 439.294862 364.463589 
L 437.614455 364.397549 
L 436.774252 362.889209 
L 435.934049 363.807143 
L 435.093845 363.440049 
L 433.413439 363.25541 
L 431.733032 362.678379 
L 430.892829 363.280219 
L 430.052626 362.060974 
L 429.212422 362.070383 
L 428.372219 361.749232 
L 426.691813 362.4023 
L 425.851609 362.476674 
L 425.011406 362.675718 
L 424.171203 362.626055 
L 423.330999 361.91629 
L 422.490796 363.388037 
L 421.650593 363.360844 
L 420.81039 363.192011 
L 419.970186 362.145635 
L 419.129983 361.616005 
L 418.28978 361.84215 
L 417.449577 362.266134 
L 416.609373 360.906313 
L 415.76917 360.757652 
L 414.928967 360.901839 
L 414.088763 361.669649 
L 413.24856 361.993741 
L 412.408357 362.083528 
L 411.568154 362.488743 
L 409.887747 362.993559 
L 409.047544 362.946034 
L 408.20734 363.280309 
L 407.367137 363.863418 
L 406.526934 364.081192 
L 404.846527 364.851482 
L 404.006324 364.988806 
L 403.166121 364.954494 
L 402.325918 364.713006 
L 400.645511 364.504477 
L 399.805308 364.029796 
L 398.965104 363.164693 
L 398.124901 363.438302 
L 397.284698 363.522743 
L 395.604291 363.930855 
L 394.764088 363.935407 
L 393.923885 364.874186 
L 393.083682 365.645476 
L 391.403275 365.678765 
L 390.563072 365.111028 
L 389.722868 365.338499 
L 388.882665 365.81095 
L 388.042462 365.845198 
L 387.202259 366.51518 
L 385.521852 366.816746 
L 384.681649 367.59402 
L 383.841446 367.830943 
L 382.161039 367.759509 
L 381.320836 367.605108 
L 380.480632 367.663801 
L 377.960023 367.31972 
L 377.119819 367.461823 
L 376.279616 367.382709 
L 375.439413 367.534715 
L 374.599209 367.446059 
L 372.918803 367.714215 
L 371.238396 367.433821 
L 370.398193 367.21763 
L 368.717787 365.965357 
L 367.03738 364.467611 
L 365.356973 363.751256 
L 363.676567 364.319581 
L 362.836364 364.78279 
L 361.155957 366.123669 
L 360.315754 366.145107 
L 359.475551 365.538328 
L 358.635347 363.05208 
L 357.795144 359.564191 
L 356.954941 355.158204 
L 356.114737 354.994602 
L 355.274534 354.962915 
L 353.594128 348.210633 
L 352.753924 348.730896 
L 351.913721 350.648117 
L 351.073518 353.656628 
L 349.393111 353.145485 
L 348.552908 353.998562 
L 347.712705 357.749567 
L 346.872501 358.387386 
L 346.032298 358.644909 
L 345.192095 358.752206 
L 344.351892 358.474207 
L 343.511688 357.909569 
L 342.671485 360.29209 
L 341.831282 360.378438 
L 340.150875 358.46328 
L 339.310672 358.969581 
L 338.470469 358.569393 
L 337.630265 358.707018 
L 336.790062 358.261569 
L 335.949859 358.119368 
L 335.109656 359.417951 
L 334.269452 359.66304 
L 333.429249 357.995751 
L 331.748842 356.65879 
L 330.908639 354.570581 
L 330.068436 352.038717 
L 329.228233 350.336078 
L 328.388029 349.924616 
L 327.547826 350.652693 
L 326.707623 349.98595 
L 325.86742 348.559353 
L 325.027216 345.870945 
L 324.187013 345.023968 
L 323.34681 343.481153 
L 322.506606 340.956381 
L 321.666403 337.653239 
L 320.8262 337.452633 
L 319.145793 339.94251 
L 318.30559 340.841691 
L 317.465387 341.105397 
L 316.625184 341.498273 
L 315.78498 342.889912 
L 314.944777 343.82173 
L 314.104574 343.238511 
L 313.26437 343.528877 
L 312.424167 341.69275 
L 311.583964 339.533475 
L 310.743761 339.439235 
L 309.903557 338.81813 
L 309.063354 338.340554 
L 308.223151 336.525282 
L 307.382947 337.532024 
L 306.542744 340.302681 
L 305.702541 343.673195 
L 304.862338 344.584354 
L 304.022134 346.08504 
L 303.181931 346.274844 
L 302.341728 348.433868 
L 301.501525 349.17646 
L 299.821118 347.913077 
L 298.980915 349.975747 
L 298.140711 349.583271 
L 297.300508 349.001497 
L 296.460305 349.340757 
L 295.620102 348.579684 
L 294.779898 348.367811 
L 293.939695 350.119358 
L 293.099492 349.731774 
L 292.259289 350.893723 
L 291.419085 351.012627 
L 290.578882 351.78605 
L 289.738679 354.181005 
L 288.058272 355.655066 
L 286.377866 357.439268 
L 285.537662 359.289486 
L 284.697459 359.424789 
L 283.857256 358.805131 
L 283.017053 360.342858 
L 281.336646 360.48392 
L 280.496443 360.878934 
L 278.816036 361.931173 
L 277.975833 362.277749 
L 277.13563 362.47829 
L 276.295426 361.303646 
L 274.61502 362.286939 
L 273.774816 362.286903 
L 272.934613 361.807134 
L 272.09441 362.037969 
L 271.254207 362.465176 
L 270.414003 363.804838 
L 269.5738 363.978757 
L 268.733597 363.669104 
L 267.893394 363.651023 
L 267.05319 364.043044 
L 266.212987 362.858574 
L 265.372784 363.65463 
L 262.852174 363.300354 
L 261.171767 363.504198 
L 260.331564 364.81058 
L 259.491361 363.686431 
L 258.651158 363.83018 
L 257.810954 364.783073 
L 256.970751 364.85457 
L 256.130548 364.801758 
L 255.290344 364.63354 
L 253.609938 364.506645 
L 252.769735 363.929721 
L 251.929531 363.04471 
L 251.089328 362.838643 
L 250.249125 362.936976 
L 249.408922 363.250318 
L 248.568718 363.09143 
L 246.888312 363.028122 
L 246.048108 363.130385 
L 245.207905 364.2099 
L 244.367702 364.064641 
L 243.527499 363.368412 
L 242.687295 363.483285 
L 241.847092 363.1383 
L 241.006889 363.340576 
L 240.166685 363.060625 
L 239.326482 361.741899 
L 238.486279 361.392082 
L 237.646076 361.945593 
L 236.805872 361.137046 
L 235.965669 359.826497 
L 235.125466 359.660042 
L 234.285263 359.828645 
L 232.604856 359.77908 
L 231.764653 359.989123 
L 230.924449 359.736162 
L 230.084246 360.959239 
L 229.244043 359.920159 
L 228.40384 358.095928 
L 227.563636 356.783883 
L 226.723433 357.074365 
L 225.88323 356.522286 
L 225.043027 350.825971 
L 224.202823 352.498881 
L 223.36262 350.84108 
L 222.522417 351.408306 
L 221.682213 351.523833 
L 220.84201 351.067991 
L 220.001807 350.276651 
L 219.161604 354.477704 
L 218.3214 351.226757 
L 217.481197 352.532592 
L 216.640994 350.443133 
L 215.800791 348.952546 
L 214.960587 349.298901 
L 214.120384 349.342331 
L 213.280181 350.383719 
L 212.439977 350.063669 
L 211.599774 349.203058 
L 210.759571 350.184422 
L 209.919368 349.996029 
L 209.079164 349.411377 
L 208.238961 349.613433 
L 207.398758 347.508203 
L 206.558554 342.46493 
L 205.718351 343.35668 
L 204.878148 339.002778 
L 204.037945 340.95931 
L 203.197741 341.290449 
L 202.357538 341.118477 
L 201.517335 342.873942 
L 200.677132 349.111554 
L 199.836928 346.876602 
L 198.996725 350.288131 
L 198.156522 346.625974 
L 197.316318 347.022458 
L 196.476115 348.195068 
L 194.795709 348.721312 
L 193.955505 349.349365 
L 192.275099 355.533692 
L 191.434896 355.16493 
L 190.594692 355.039775 
L 189.754489 354.24084 
L 188.914286 353.246621 
L 188.074082 355.882164 
L 187.233879 353.359756 
L 186.393676 353.323671 
L 185.553473 352.529815 
L 183.873066 351.49266 
L 183.032863 349.643108 
L 182.19266 349.268231 
L 181.352456 350.855868 
L 180.512253 349.070923 
L 179.67205 348.032268 
L 178.831846 347.804899 
L 177.991643 348.031933 
L 177.15144 349.563247 
L 176.311237 348.109052 
L 175.471033 348.392225 
L 174.63083 349.999218 
L 173.790627 352.024339 
L 172.950423 352.598212 
L 171.270017 356.365116 
L 170.429814 357.345803 
L 169.58961 356.905517 
L 168.749407 357.533942 
L 167.909204 357.760905 
L 167.069001 346.850678 
L 166.228797 343.232897 
L 165.388594 334.912876 
L 164.548391 329.93724 
L 163.708187 329.143504 
L 162.867984 330.226911 
L 162.027781 329.431072 
L 161.187578 335.823572 
L 160.347374 335.679477 
L 158.666968 343.293176 
L 157.826765 344.276268 
L 156.986561 343.088565 
L 156.146358 339.923852 
L 155.306155 339.568685 
L 153.625748 338.587195 
L 152.785545 336.285959 
L 151.945342 332.701002 
L 151.105138 332.992071 
L 150.264935 332.57721 
L 149.424732 332.509716 
L 148.584529 335.744784 
L 147.744325 335.617342 
L 146.904122 336.687462 
L 146.063919 339.053858 
L 145.223715 337.504845 
L 144.383512 336.63393 
L 143.543309 336.532612 
L 142.703106 334.676292 
L 141.862902 334.420562 
L 141.022699 333.979958 
L 140.182496 330.615117 
L 139.342292 330.210704 
L 138.502089 328.085708 
L 137.661886 329.369673 
L 136.821683 330.058135 
L 135.981479 327.278625 
L 135.141276 323.082929 
L 134.301073 321.855951 
L 133.46087 325.770908 
L 132.620666 329.077952 
L 131.780463 333.272637 
L 130.94026 333.350442 
L 130.100056 333.615133 
L 129.259853 340.82004 
L 128.41965 346.937606 
L 127.579447 343.53268 
L 126.739243 342.334833 
L 125.89904 333.568155 
L 125.058837 321.916264 
L 124.218634 315.251805 
L 123.37843 289.894121 
L 122.538227 277.66205 
L 121.698024 276.955512 
L 120.85782 272.511223 
L 120.017617 266.44993 
L 119.177414 269.343154 
L 118.337211 271.11728 
L 117.497007 298.971173 
L 116.656804 305.160085 
L 115.816601 304.143482 
L 114.976398 304.982382 
L 114.136194 306.376326 
L 113.295991 299.449268 
L 112.455788 289.831003 
L 111.615584 272.387498 
L 110.775381 280.341665 
L 109.094975 248.344134 
L 108.254771 240.239746 
L 107.414568 247.166804 
L 106.574365 196.720307 
L 105.734161 183.286278 
L 104.893958 183.286278 
L 104.053755 204.125459 
L 103.213552 230.0099 
L 103.213552 230.0099 
" style="fill:none;stroke:#ff7f0e;stroke-linecap:square;stroke-width:1.5;"/>
   </g>
   <g id="patch_3">
    <path d="M 72 384.48 
L 72 51.84 
" style="fill:none;stroke:#000000;stroke-linecap:square;stroke-linejoin:miter;stroke-width:0.8;"/>
   </g>
   <g id="patch_4">
    <path d="M 518.4 384.48 
L 518.4 51.84 
" style="fill:none;stroke:#000000;stroke-linecap:square;stroke-linejoin:miter;stroke-width:0.8;"/>
   </g>
   <g id="patch_5">
    <path d="M 72 384.48 
L 518.4 384.48 
" style="fill:none;stroke:#000000;stroke-linecap:square;stroke-linejoin:miter;stroke-width:0.8;"/>
   </g>
   <g id="patch_6">
    <path d="M 72 51.84 
L 518.4 51.84 
" style="fill:none;stroke:#000000;stroke-linecap:square;stroke-linejoin:miter;stroke-width:0.8;"/>
   </g>
   <g id="text_21">
    <!-- Growth Rate -->
    <defs>
     <path d="M 59.515625 10.40625 
L 59.515625 29.984375 
L 43.40625 29.984375 
L 43.40625 38.09375 
L 69.28125 38.09375 
L 69.28125 6.78125 
Q 63.578125 2.734375 56.6875 0.65625 
Q 49.8125 -1.421875 42 -1.421875 
Q 24.90625 -1.421875 15.25 8.5625 
Q 5.609375 18.5625 5.609375 36.375 
Q 5.609375 54.25 15.25 64.234375 
Q 24.90625 74.21875 42 74.21875 
Q 49.125 74.21875 55.546875 72.453125 
Q 61.96875 70.703125 67.390625 67.28125 
L 67.390625 56.78125 
Q 61.921875 61.421875 55.765625 63.765625 
Q 49.609375 66.109375 42.828125 66.109375 
Q 29.4375 66.109375 22.71875 58.640625 
Q 16.015625 51.171875 16.015625 36.375 
Q 16.015625 21.625 22.71875 14.15625 
Q 29.4375 6.6875 42.828125 6.6875 
Q 48.046875 6.6875 52.140625 7.59375 
Q 56.25 8.5 59.515625 10.40625 
z
" id="DejaVuSans-71"/>
     <path d="M 4.203125 54.6875 
L 13.1875 54.6875 
L 24.421875 12.015625 
L 35.59375 54.6875 
L 46.1875 54.6875 
L 57.421875 12.015625 
L 68.609375 54.6875 
L 77.59375 54.6875 
L 63.28125 0 
L 52.6875 0 
L 40.921875 44.828125 
L 29.109375 0 
L 18.5 0 
z
" id="DejaVuSans-119"/>
     <path d="M 54.890625 33.015625 
L 54.890625 0 
L 45.90625 0 
L 45.90625 32.71875 
Q 45.90625 40.484375 42.875 44.328125 
Q 39.84375 48.1875 33.796875 48.1875 
Q 26.515625 48.1875 22.3125 43.546875 
Q 18.109375 38.921875 18.109375 30.90625 
L 18.109375 0 
L 9.078125 0 
L 9.078125 75.984375 
L 18.109375 75.984375 
L 18.109375 46.1875 
Q 21.34375 51.125 25.703125 53.5625 
Q 30.078125 56 35.796875 56 
Q 45.21875 56 50.046875 50.171875 
Q 54.890625 44.34375 54.890625 33.015625 
z
" id="DejaVuSans-104"/>
    </defs>
    <g transform="translate(257.824687 45.84)scale(0.12 -0.12)">
     <use xlink:href="#DejaVuSans-71"/>
     <use x="77.490234" xlink:href="#DejaVuSans-114"/>
     <use x="116.353516" xlink:href="#DejaVuSans-111"/>
     <use x="177.535156" xlink:href="#DejaVuSans-119"/>
     <use x="259.322266" xlink:href="#DejaVuSans-116"/>
     <use x="298.53125" xlink:href="#DejaVuSans-104"/>
     <use x="361.910156" xlink:href="#DejaVuSans-32"/>
     <use x="393.697266" xlink:href="#DejaVuSans-82"/>
     <use x="460.929688" xlink:href="#DejaVuSans-97"/>
     <use x="522.208984" xlink:href="#DejaVuSans-116"/>
     <use x="561.417969" xlink:href="#DejaVuSans-101"/>
    </g>
   </g>
   <g id="legend_1">
    <g id="patch_7">
     <path d="M 291.595312 89.19625 
L 511.4 89.19625 
Q 513.4 89.19625 513.4 87.19625 
L 513.4 58.84 
Q 513.4 56.84 511.4 56.84 
L 291.595312 56.84 
Q 289.595312 56.84 289.595312 58.84 
L 289.595312 87.19625 
Q 289.595312 89.19625 291.595312 89.19625 
z
" style="fill:#ffffff;opacity:0.8;stroke:#cccccc;stroke-linejoin:miter;"/>
    </g>
    <g id="line2d_21">
     <path d="M 293.595312 64.938437 
L 313.595312 64.938437 
" style="fill:none;stroke:#1f77b4;stroke-linecap:square;stroke-width:1.5;"/>
    </g>
    <g id="line2d_22"/>
    <g id="text_22">
     <!-- Confirmed Growth Rate (over 7 days) -->
     <defs>
      <path d="M 64.40625 67.28125 
L 64.40625 56.890625 
Q 59.421875 61.53125 53.78125 63.8125 
Q 48.140625 66.109375 41.796875 66.109375 
Q 29.296875 66.109375 22.65625 58.46875 
Q 16.015625 50.828125 16.015625 36.375 
Q 16.015625 21.96875 22.65625 14.328125 
Q 29.296875 6.6875 41.796875 6.6875 
Q 48.140625 6.6875 53.78125 8.984375 
Q 59.421875 11.28125 64.40625 15.921875 
L 64.40625 5.609375 
Q 59.234375 2.09375 53.4375 0.328125 
Q 47.65625 -1.421875 41.21875 -1.421875 
Q 24.65625 -1.421875 15.125 8.703125 
Q 5.609375 18.84375 5.609375 36.375 
Q 5.609375 53.953125 15.125 64.078125 
Q 24.65625 74.21875 41.21875 74.21875 
Q 47.75 74.21875 53.53125 72.484375 
Q 59.328125 70.75 64.40625 67.28125 
z
" id="DejaVuSans-67"/>
      <path d="M 37.109375 75.984375 
L 37.109375 68.5 
L 28.515625 68.5 
Q 23.6875 68.5 21.796875 66.546875 
Q 19.921875 64.59375 19.921875 59.515625 
L 19.921875 54.6875 
L 34.71875 54.6875 
L 34.71875 47.703125 
L 19.921875 47.703125 
L 19.921875 0 
L 10.890625 0 
L 10.890625 47.703125 
L 2.296875 47.703125 
L 2.296875 54.6875 
L 10.890625 54.6875 
L 10.890625 58.5 
Q 10.890625 67.625 15.140625 71.796875 
Q 19.390625 75.984375 28.609375 75.984375 
z
" id="DejaVuSans-102"/>
      <path d="M 9.421875 54.6875 
L 18.40625 54.6875 
L 18.40625 0 
L 9.421875 0 
z
M 9.421875 75.984375 
L 18.40625 75.984375 
L 18.40625 64.59375 
L 9.421875 64.59375 
z
" id="DejaVuSans-105"/>
      <path d="M 52 44.1875 
Q 55.375 50.25 60.0625 53.125 
Q 64.75 56 71.09375 56 
Q 79.640625 56 84.28125 50.015625 
Q 88.921875 44.046875 88.921875 33.015625 
L 88.921875 0 
L 79.890625 0 
L 79.890625 32.71875 
Q 79.890625 40.578125 77.09375 44.375 
Q 74.3125 48.1875 68.609375 48.1875 
Q 61.625 48.1875 57.5625 43.546875 
Q 53.515625 38.921875 53.515625 30.90625 
L 53.515625 0 
L 44.484375 0 
L 44.484375 32.71875 
Q 44.484375 40.625 41.703125 44.40625 
Q 38.921875 48.1875 33.109375 48.1875 
Q 26.21875 48.1875 22.15625 43.53125 
Q 18.109375 38.875 18.109375 30.90625 
L 18.109375 0 
L 9.078125 0 
L 9.078125 54.6875 
L 18.109375 54.6875 
L 18.109375 46.1875 
Q 21.1875 51.21875 25.484375 53.609375 
Q 29.78125 56 35.6875 56 
Q 41.65625 56 45.828125 52.96875 
Q 50 49.953125 52 44.1875 
z
" id="DejaVuSans-109"/>
      <path d="M 31 75.875 
Q 24.46875 64.65625 21.28125 53.65625 
Q 18.109375 42.671875 18.109375 31.390625 
Q 18.109375 20.125 21.3125 9.0625 
Q 24.515625 -2 31 -13.1875 
L 23.1875 -13.1875 
Q 15.875 -1.703125 12.234375 9.375 
Q 8.59375 20.453125 8.59375 31.390625 
Q 8.59375 42.28125 12.203125 53.3125 
Q 15.828125 64.359375 23.1875 75.875 
z
" id="DejaVuSans-40"/>
      <path d="M 2.984375 54.6875 
L 12.5 54.6875 
L 29.59375 8.796875 
L 46.6875 54.6875 
L 56.203125 54.6875 
L 35.6875 0 
L 23.484375 0 
z
" id="DejaVuSans-118"/>
      <path d="M 32.171875 -5.078125 
Q 28.375 -14.84375 24.75 -17.8125 
Q 21.140625 -20.796875 15.09375 -20.796875 
L 7.90625 -20.796875 
L 7.90625 -13.28125 
L 13.1875 -13.28125 
Q 16.890625 -13.28125 18.9375 -11.515625 
Q 21 -9.765625 23.484375 -3.21875 
L 25.09375 0.875 
L 2.984375 54.6875 
L 12.5 54.6875 
L 29.59375 11.921875 
L 46.6875 54.6875 
L 56.203125 54.6875 
z
" id="DejaVuSans-121"/>
      <path d="M 44.28125 53.078125 
L 44.28125 44.578125 
Q 40.484375 46.53125 36.375 47.5 
Q 32.28125 48.484375 27.875 48.484375 
Q 21.1875 48.484375 17.84375 46.4375 
Q 14.5 44.390625 14.5 40.28125 
Q 14.5 37.15625 16.890625 35.375 
Q 19.28125 33.59375 26.515625 31.984375 
L 29.59375 31.296875 
Q 39.15625 29.25 43.1875 25.515625 
Q 47.21875 21.78125 47.21875 15.09375 
Q 47.21875 7.46875 41.1875 3.015625 
Q 35.15625 -1.421875 24.609375 -1.421875 
Q 20.21875 -1.421875 15.453125 -0.5625 
Q 10.6875 0.296875 5.421875 2 
L 5.421875 11.28125 
Q 10.40625 8.6875 15.234375 7.390625 
Q 20.0625 6.109375 24.8125 6.109375 
Q 31.15625 6.109375 34.5625 8.28125 
Q 37.984375 10.453125 37.984375 14.40625 
Q 37.984375 18.0625 35.515625 20.015625 
Q 33.0625 21.96875 24.703125 23.78125 
L 21.578125 24.515625 
Q 13.234375 26.265625 9.515625 29.90625 
Q 5.8125 33.546875 5.8125 39.890625 
Q 5.8125 47.609375 11.28125 51.796875 
Q 16.75 56 26.8125 56 
Q 31.78125 56 36.171875 55.265625 
Q 40.578125 54.546875 44.28125 53.078125 
z
" id="DejaVuSans-115"/>
      <path d="M 8.015625 75.875 
L 15.828125 75.875 
Q 23.140625 64.359375 26.78125 53.3125 
Q 30.421875 42.28125 30.421875 31.390625 
Q 30.421875 20.453125 26.78125 9.375 
Q 23.140625 -1.703125 15.828125 -13.1875 
L 8.015625 -13.1875 
Q 14.5 -2 17.703125 9.0625 
Q 20.90625 20.125 20.90625 31.390625 
Q 20.90625 42.671875 17.703125 53.65625 
Q 14.5 64.65625 8.015625 75.875 
z
" id="DejaVuSans-41"/>
     </defs>
     <g transform="translate(321.595312 68.438437)scale(0.1 -0.1)">
      <use xlink:href="#DejaVuSans-67"/>
      <use x="69.824219" xlink:href="#DejaVuSans-111"/>
      <use x="131.005859" xlink:href="#DejaVuSans-110"/>
      <use x="194.384766" xlink:href="#DejaVuSans-102"/>
      <use x="229.589844" xlink:href="#DejaVuSans-105"/>
      <use x="257.373047" xlink:href="#DejaVuSans-114"/>
      <use x="296.736328" xlink:href="#DejaVuSans-109"/>
      <use x="394.148438" xlink:href="#DejaVuSans-101"/>
      <use x="455.671875" xlink:href="#DejaVuSans-100"/>
      <use x="519.148438" xlink:href="#DejaVuSans-32"/>
      <use x="550.935547" xlink:href="#DejaVuSans-71"/>
      <use x="628.425781" xlink:href="#DejaVuSans-114"/>
      <use x="667.289062" xlink:href="#DejaVuSans-111"/>
      <use x="728.470703" xlink:href="#DejaVuSans-119"/>
      <use x="810.257812" xlink:href="#DejaVuSans-116"/>
      <use x="849.466797" xlink:href="#DejaVuSans-104"/>
      <use x="912.845703" xlink:href="#DejaVuSans-32"/>
      <use x="944.632812" xlink:href="#DejaVuSans-82"/>
      <use x="1011.865234" xlink:href="#DejaVuSans-97"/>
      <use x="1073.144531" xlink:href="#DejaVuSans-116"/>
      <use x="1112.353516" xlink:href="#DejaVuSans-101"/>
      <use x="1173.876953" xlink:href="#DejaVuSans-32"/>
      <use x="1205.664062" xlink:href="#DejaVuSans-40"/>
      <use x="1244.677734" xlink:href="#DejaVuSans-111"/>
      <use x="1305.859375" xlink:href="#DejaVuSans-118"/>
      <use x="1365.039062" xlink:href="#DejaVuSans-101"/>
      <use x="1426.5625" xlink:href="#DejaVuSans-114"/>
      <use x="1467.675781" xlink:href="#DejaVuSans-32"/>
      <use x="1499.462891" xlink:href="#DejaVuSans-55"/>
      <use x="1563.085938" xlink:href="#DejaVuSans-32"/>
      <use x="1594.873047" xlink:href="#DejaVuSans-100"/>
      <use x="1658.349609" xlink:href="#DejaVuSans-97"/>
      <use x="1719.628906" xlink:href="#DejaVuSans-121"/>
      <use x="1778.808594" xlink:href="#DejaVuSans-115"/>
      <use x="1830.908203" xlink:href="#DejaVuSans-41"/>
     </g>
    </g>
    <g id="line2d_23">
     <path d="M 293.595312 79.616562 
L 313.595312 79.616562 
" style="fill:none;stroke:#ff7f0e;stroke-linecap:square;stroke-width:1.5;"/>
    </g>
    <g id="line2d_24"/>
    <g id="text_23">
     <!-- Recovered Growth Rate (over 7 days) -->
     <defs>
      <path d="M 48.78125 52.59375 
L 48.78125 44.1875 
Q 44.96875 46.296875 41.140625 47.34375 
Q 37.3125 48.390625 33.40625 48.390625 
Q 24.65625 48.390625 19.8125 42.84375 
Q 14.984375 37.3125 14.984375 27.296875 
Q 14.984375 17.28125 19.8125 11.734375 
Q 24.65625 6.203125 33.40625 6.203125 
Q 37.3125 6.203125 41.140625 7.25 
Q 44.96875 8.296875 48.78125 10.40625 
L 48.78125 2.09375 
Q 45.015625 0.34375 40.984375 -0.53125 
Q 36.96875 -1.421875 32.421875 -1.421875 
Q 20.0625 -1.421875 12.78125 6.34375 
Q 5.515625 14.109375 5.515625 27.296875 
Q 5.515625 40.671875 12.859375 48.328125 
Q 20.21875 56 33.015625 56 
Q 37.15625 56 41.109375 55.140625 
Q 45.0625 54.296875 48.78125 52.59375 
z
" id="DejaVuSans-99"/>
     </defs>
     <g transform="translate(321.595312 83.116562)scale(0.1 -0.1)">
      <use xlink:href="#DejaVuSans-82"/>
      <use x="64.982422" xlink:href="#DejaVuSans-101"/>
      <use x="126.505859" xlink:href="#DejaVuSans-99"/>
      <use x="181.486328" xlink:href="#DejaVuSans-111"/>
      <use x="242.667969" xlink:href="#DejaVuSans-118"/>
      <use x="301.847656" xlink:href="#DejaVuSans-101"/>
      <use x="363.371094" xlink:href="#DejaVuSans-114"/>
      <use x="402.234375" xlink:href="#DejaVuSans-101"/>
      <use x="463.757812" xlink:href="#DejaVuSans-100"/>
      <use x="527.234375" xlink:href="#DejaVuSans-32"/>
      <use x="559.021484" xlink:href="#DejaVuSans-71"/>
      <use x="636.511719" xlink:href="#DejaVuSans-114"/>
      <use x="675.375" xlink:href="#DejaVuSans-111"/>
      <use x="736.556641" xlink:href="#DejaVuSans-119"/>
      <use x="818.34375" xlink:href="#DejaVuSans-116"/>
      <use x="857.552734" xlink:href="#DejaVuSans-104"/>
      <use x="920.931641" xlink:href="#DejaVuSans-32"/>
      <use x="952.71875" xlink:href="#DejaVuSans-82"/>
      <use x="1019.951172" xlink:href="#DejaVuSans-97"/>
      <use x="1081.230469" xlink:href="#DejaVuSans-116"/>
      <use x="1120.439453" xlink:href="#DejaVuSans-101"/>
      <use x="1181.962891" xlink:href="#DejaVuSans-32"/>
      <use x="1213.75" xlink:href="#DejaVuSans-40"/>
      <use x="1252.763672" xlink:href="#DejaVuSans-111"/>
      <use x="1313.945312" xlink:href="#DejaVuSans-118"/>
      <use x="1373.125" xlink:href="#DejaVuSans-101"/>
      <use x="1434.648438" xlink:href="#DejaVuSans-114"/>
      <use x="1475.761719" xlink:href="#DejaVuSans-32"/>
      <use x="1507.548828" xlink:href="#DejaVuSans-55"/>
      <use x="1571.171875" xlink:href="#DejaVuSans-32"/>
      <use x="1602.958984" xlink:href="#DejaVuSans-100"/>
      <use x="1666.435547" xlink:href="#DejaVuSans-97"/>
      <use x="1727.714844" xlink:href="#DejaVuSans-121"/>
      <use x="1786.894531" xlink:href="#DejaVuSans-115"/>
      <use x="1838.994141" xlink:href="#DejaVuSans-41"/>
     </g>
    </g>
   </g>
  </g>
 </g>
 <defs>
  <clipPath id="p46ca6b9884">
   <rect height="332.64" width="446.4" x="72" y="51.84"/>
  </clipPath>
 </defs>
</svg>
