<?xml version="1.0" encoding="utf-8" standalone="no"?>
<!DOCTYPE svg PUBLIC "-//W3C//DTD SVG 1.1//EN"
  "http://www.w3.org/Graphics/SVG/1.1/DTD/svg11.dtd">
<!-- Created with matplotlib (https://matplotlib.org/) -->
<svg height="432pt" version="1.1" viewBox="0 0 576 432" width="576pt" xmlns="http://www.w3.org/2000/svg" xmlns:xlink="http://www.w3.org/1999/xlink">
 <defs>
  <style type="text/css">
*{stroke-linecap:butt;stroke-linejoin:round;}
  </style>
 </defs>
 <g id="figure_1">
  <g id="patch_1">
   <path d="M 0 432 
L 576 432 
L 576 0 
L 0 0 
z
" style="fill:#ffffff;"/>
  </g>
  <g id="axes_1">
   <g id="patch_2">
    <path d="M 72 384.48 
L 518.4 384.48 
L 518.4 51.84 
L 72 51.84 
z
" style="fill:#ffffff;"/>
   </g>
   <g id="matplotlib.axis_1">
    <g id="xtick_1">
     <g id="line2d_1">
      <defs>
       <path d="M 0 0 
L 0 3.5 
" id="m20e37f566e" style="stroke:#000000;stroke-width:0.8;"/>
      </defs>
      <g>
       <use style="stroke:#000000;stroke-width:0.8;" x="122.383359" xlink:href="#m20e37f566e" y="384.48"/>
      </g>
     </g>
     <g id="text_1">
      <!-- 2020-05 -->
      <defs>
       <path d="M 19.1875 8.296875 
L 53.609375 8.296875 
L 53.609375 0 
L 7.328125 0 
L 7.328125 8.296875 
Q 12.9375 14.109375 22.625 23.890625 
Q 32.328125 33.6875 34.8125 36.53125 
Q 39.546875 41.84375 41.421875 45.53125 
Q 43.3125 49.21875 43.3125 52.78125 
Q 43.3125 58.59375 39.234375 62.25 
Q 35.15625 65.921875 28.609375 65.921875 
Q 23.96875 65.921875 18.8125 64.3125 
Q 13.671875 62.703125 7.8125 59.421875 
L 7.8125 69.390625 
Q 13.765625 71.78125 18.9375 73 
Q 24.125 74.21875 28.421875 74.21875 
Q 39.75 74.21875 46.484375 68.546875 
Q 53.21875 62.890625 53.21875 53.421875 
Q 53.21875 48.921875 51.53125 44.890625 
Q 49.859375 40.875 45.40625 35.40625 
Q 44.1875 33.984375 37.640625 27.21875 
Q 31.109375 20.453125 19.1875 8.296875 
z
" id="DejaVuSans-50"/>
       <path d="M 31.78125 66.40625 
Q 24.171875 66.40625 20.328125 58.90625 
Q 16.5 51.421875 16.5 36.375 
Q 16.5 21.390625 20.328125 13.890625 
Q 24.171875 6.390625 31.78125 6.390625 
Q 39.453125 6.390625 43.28125 13.890625 
Q 47.125 21.390625 47.125 36.375 
Q 47.125 51.421875 43.28125 58.90625 
Q 39.453125 66.40625 31.78125 66.40625 
z
M 31.78125 74.21875 
Q 44.046875 74.21875 50.515625 64.515625 
Q 56.984375 54.828125 56.984375 36.375 
Q 56.984375 17.96875 50.515625 8.265625 
Q 44.046875 -1.421875 31.78125 -1.421875 
Q 19.53125 -1.421875 13.0625 8.265625 
Q 6.59375 17.96875 6.59375 36.375 
Q 6.59375 54.828125 13.0625 64.515625 
Q 19.53125 74.21875 31.78125 74.21875 
z
" id="DejaVuSans-48"/>
       <path d="M 4.890625 31.390625 
L 31.203125 31.390625 
L 31.203125 23.390625 
L 4.890625 23.390625 
z
" id="DejaVuSans-45"/>
       <path d="M 10.796875 72.90625 
L 49.515625 72.90625 
L 49.515625 64.59375 
L 19.828125 64.59375 
L 19.828125 46.734375 
Q 21.96875 47.46875 24.109375 47.828125 
Q 26.265625 48.1875 28.421875 48.1875 
Q 40.625 48.1875 47.75 41.5 
Q 54.890625 34.8125 54.890625 23.390625 
Q 54.890625 11.625 47.5625 5.09375 
Q 40.234375 -1.421875 26.90625 -1.421875 
Q 22.3125 -1.421875 17.546875 -0.640625 
Q 12.796875 0.140625 7.71875 1.703125 
L 7.71875 11.625 
Q 12.109375 9.234375 16.796875 8.0625 
Q 21.484375 6.890625 26.703125 6.890625 
Q 35.15625 6.890625 40.078125 11.328125 
Q 45.015625 15.765625 45.015625 23.390625 
Q 45.015625 31 40.078125 35.4375 
Q 35.15625 39.890625 26.703125 39.890625 
Q 22.75 39.890625 18.8125 39.015625 
Q 14.890625 38.140625 10.796875 36.28125 
z
" id="DejaVuSans-53"/>
      </defs>
      <g transform="translate(101.491953 399.078438)scale(0.1 -0.1)">
       <use xlink:href="#DejaVuSans-50"/>
       <use x="63.623047" xlink:href="#DejaVuSans-48"/>
       <use x="127.246094" xlink:href="#DejaVuSans-50"/>
       <use x="190.869141" xlink:href="#DejaVuSans-48"/>
       <use x="254.492188" xlink:href="#DejaVuSans-45"/>
       <use x="290.576172" xlink:href="#DejaVuSans-48"/>
       <use x="354.199219" xlink:href="#DejaVuSans-53"/>
      </g>
     </g>
    </g>
    <g id="xtick_2">
     <g id="line2d_2">
      <g>
       <use style="stroke:#000000;stroke-width:0.8;" x="174.8302" xlink:href="#m20e37f566e" y="384.48"/>
      </g>
     </g>
     <g id="text_2">
      <!-- 2020-07 -->
      <defs>
       <path d="M 8.203125 72.90625 
L 55.078125 72.90625 
L 55.078125 68.703125 
L 28.609375 0 
L 18.3125 0 
L 43.21875 64.59375 
L 8.203125 64.59375 
z
" id="DejaVuSans-55"/>
      </defs>
      <g transform="translate(153.938794 399.078438)scale(0.1 -0.1)">
       <use xlink:href="#DejaVuSans-50"/>
       <use x="63.623047" xlink:href="#DejaVuSans-48"/>
       <use x="127.246094" xlink:href="#DejaVuSans-50"/>
       <use x="190.869141" xlink:href="#DejaVuSans-48"/>
       <use x="254.492188" xlink:href="#DejaVuSans-45"/>
       <use x="290.576172" xlink:href="#DejaVuSans-48"/>
       <use x="354.199219" xlink:href="#DejaVuSans-55"/>
      </g>
     </g>
    </g>
    <g id="xtick_3">
     <g id="line2d_3">
      <g>
       <use style="stroke:#000000;stroke-width:0.8;" x="228.136826" xlink:href="#m20e37f566e" y="384.48"/>
      </g>
     </g>
     <g id="text_3">
      <!-- 2020-09 -->
      <defs>
       <path d="M 10.984375 1.515625 
L 10.984375 10.5 
Q 14.703125 8.734375 18.5 7.8125 
Q 22.3125 6.890625 25.984375 6.890625 
Q 35.75 6.890625 40.890625 13.453125 
Q 46.046875 20.015625 46.78125 33.40625 
Q 43.953125 29.203125 39.59375 26.953125 
Q 35.25 24.703125 29.984375 24.703125 
Q 19.046875 24.703125 12.671875 31.3125 
Q 6.296875 37.9375 6.296875 49.421875 
Q 6.296875 60.640625 12.9375 67.421875 
Q 19.578125 74.21875 30.609375 74.21875 
Q 43.265625 74.21875 49.921875 64.515625 
Q 56.59375 54.828125 56.59375 36.375 
Q 56.59375 19.140625 48.40625 8.859375 
Q 40.234375 -1.421875 26.421875 -1.421875 
Q 22.703125 -1.421875 18.890625 -0.6875 
Q 15.09375 0.046875 10.984375 1.515625 
z
M 30.609375 32.421875 
Q 37.25 32.421875 41.125 36.953125 
Q 45.015625 41.5 45.015625 49.421875 
Q 45.015625 57.28125 41.125 61.84375 
Q 37.25 66.40625 30.609375 66.40625 
Q 23.96875 66.40625 20.09375 61.84375 
Q 16.21875 57.28125 16.21875 49.421875 
Q 16.21875 41.5 20.09375 36.953125 
Q 23.96875 32.421875 30.609375 32.421875 
z
" id="DejaVuSans-57"/>
      </defs>
      <g transform="translate(207.24542 399.078438)scale(0.1 -0.1)">
       <use xlink:href="#DejaVuSans-50"/>
       <use x="63.623047" xlink:href="#DejaVuSans-48"/>
       <use x="127.246094" xlink:href="#DejaVuSans-50"/>
       <use x="190.869141" xlink:href="#DejaVuSans-48"/>
       <use x="254.492188" xlink:href="#DejaVuSans-45"/>
       <use x="290.576172" xlink:href="#DejaVuSans-48"/>
       <use x="354.199219" xlink:href="#DejaVuSans-57"/>
      </g>
     </g>
    </g>
    <g id="xtick_4">
     <g id="line2d_4">
      <g>
       <use style="stroke:#000000;stroke-width:0.8;" x="280.583667" xlink:href="#m20e37f566e" y="384.48"/>
      </g>
     </g>
     <g id="text_4">
      <!-- 2020-11 -->
      <defs>
       <path d="M 12.40625 8.296875 
L 28.515625 8.296875 
L 28.515625 63.921875 
L 10.984375 60.40625 
L 10.984375 69.390625 
L 28.421875 72.90625 
L 38.28125 72.90625 
L 38.28125 8.296875 
L 54.390625 8.296875 
L 54.390625 0 
L 12.40625 0 
z
" id="DejaVuSans-49"/>
      </defs>
      <g transform="translate(259.692261 399.078438)scale(0.1 -0.1)">
       <use xlink:href="#DejaVuSans-50"/>
       <use x="63.623047" xlink:href="#DejaVuSans-48"/>
       <use x="127.246094" xlink:href="#DejaVuSans-50"/>
       <use x="190.869141" xlink:href="#DejaVuSans-48"/>
       <use x="254.492188" xlink:href="#DejaVuSans-45"/>
       <use x="290.576172" xlink:href="#DejaVuSans-49"/>
       <use x="354.199219" xlink:href="#DejaVuSans-49"/>
      </g>
     </g>
    </g>
    <g id="xtick_5">
     <g id="line2d_5">
      <g>
       <use style="stroke:#000000;stroke-width:0.8;" x="333.030508" xlink:href="#m20e37f566e" y="384.48"/>
      </g>
     </g>
     <g id="text_5">
      <!-- 2021-01 -->
      <g transform="translate(312.139102 399.078438)scale(0.1 -0.1)">
       <use xlink:href="#DejaVuSans-50"/>
       <use x="63.623047" xlink:href="#DejaVuSans-48"/>
       <use x="127.246094" xlink:href="#DejaVuSans-50"/>
       <use x="190.869141" xlink:href="#DejaVuSans-49"/>
       <use x="254.492188" xlink:href="#DejaVuSans-45"/>
       <use x="290.576172" xlink:href="#DejaVuSans-48"/>
       <use x="354.199219" xlink:href="#DejaVuSans-49"/>
      </g>
     </g>
    </g>
    <g id="xtick_6">
     <g id="line2d_6">
      <g>
       <use style="stroke:#000000;stroke-width:0.8;" x="383.757781" xlink:href="#m20e37f566e" y="384.48"/>
      </g>
     </g>
     <g id="text_6">
      <!-- 2021-03 -->
      <defs>
       <path d="M 40.578125 39.3125 
Q 47.65625 37.796875 51.625 33 
Q 55.609375 28.21875 55.609375 21.1875 
Q 55.609375 10.40625 48.1875 4.484375 
Q 40.765625 -1.421875 27.09375 -1.421875 
Q 22.515625 -1.421875 17.65625 -0.515625 
Q 12.796875 0.390625 7.625 2.203125 
L 7.625 11.71875 
Q 11.71875 9.328125 16.59375 8.109375 
Q 21.484375 6.890625 26.8125 6.890625 
Q 36.078125 6.890625 40.9375 10.546875 
Q 45.796875 14.203125 45.796875 21.1875 
Q 45.796875 27.640625 41.28125 31.265625 
Q 36.765625 34.90625 28.71875 34.90625 
L 20.21875 34.90625 
L 20.21875 43.015625 
L 29.109375 43.015625 
Q 36.375 43.015625 40.234375 45.921875 
Q 44.09375 48.828125 44.09375 54.296875 
Q 44.09375 59.90625 40.109375 62.90625 
Q 36.140625 65.921875 28.71875 65.921875 
Q 24.65625 65.921875 20.015625 65.03125 
Q 15.375 64.15625 9.8125 62.3125 
L 9.8125 71.09375 
Q 15.4375 72.65625 20.34375 73.4375 
Q 25.25 74.21875 29.59375 74.21875 
Q 40.828125 74.21875 47.359375 69.109375 
Q 53.90625 64.015625 53.90625 55.328125 
Q 53.90625 49.265625 50.4375 45.09375 
Q 46.96875 40.921875 40.578125 39.3125 
z
" id="DejaVuSans-51"/>
      </defs>
      <g transform="translate(362.866375 399.078438)scale(0.1 -0.1)">
       <use xlink:href="#DejaVuSans-50"/>
       <use x="63.623047" xlink:href="#DejaVuSans-48"/>
       <use x="127.246094" xlink:href="#DejaVuSans-50"/>
       <use x="190.869141" xlink:href="#DejaVuSans-49"/>
       <use x="254.492188" xlink:href="#DejaVuSans-45"/>
       <use x="290.576172" xlink:href="#DejaVuSans-48"/>
       <use x="354.199219" xlink:href="#DejaVuSans-51"/>
      </g>
     </g>
    </g>
    <g id="xtick_7">
     <g id="line2d_7">
      <g>
       <use style="stroke:#000000;stroke-width:0.8;" x="436.204622" xlink:href="#m20e37f566e" y="384.48"/>
      </g>
     </g>
     <g id="text_7">
      <!-- 2021-05 -->
      <g transform="translate(415.313216 399.078438)scale(0.1 -0.1)">
       <use xlink:href="#DejaVuSans-50"/>
       <use x="63.623047" xlink:href="#DejaVuSans-48"/>
       <use x="127.246094" xlink:href="#DejaVuSans-50"/>
       <use x="190.869141" xlink:href="#DejaVuSans-49"/>
       <use x="254.492188" xlink:href="#DejaVuSans-45"/>
       <use x="290.576172" xlink:href="#DejaVuSans-48"/>
       <use x="354.199219" xlink:href="#DejaVuSans-53"/>
      </g>
     </g>
    </g>
    <g id="xtick_8">
     <g id="line2d_8">
      <g>
       <use style="stroke:#000000;stroke-width:0.8;" x="488.651464" xlink:href="#m20e37f566e" y="384.48"/>
      </g>
     </g>
     <g id="text_8">
      <!-- 2021-07 -->
      <g transform="translate(467.760058 399.078438)scale(0.1 -0.1)">
       <use xlink:href="#DejaVuSans-50"/>
       <use x="63.623047" xlink:href="#DejaVuSans-48"/>
       <use x="127.246094" xlink:href="#DejaVuSans-50"/>
       <use x="190.869141" xlink:href="#DejaVuSans-49"/>
       <use x="254.492188" xlink:href="#DejaVuSans-45"/>
       <use x="290.576172" xlink:href="#DejaVuSans-48"/>
       <use x="354.199219" xlink:href="#DejaVuSans-55"/>
      </g>
     </g>
    </g>
    <g id="text_9">
     <!-- Reported On -->
     <defs>
      <path d="M 44.390625 34.1875 
Q 47.5625 33.109375 50.5625 29.59375 
Q 53.5625 26.078125 56.59375 19.921875 
L 66.609375 0 
L 56 0 
L 46.6875 18.703125 
Q 43.0625 26.03125 39.671875 28.421875 
Q 36.28125 30.8125 30.421875 30.8125 
L 19.671875 30.8125 
L 19.671875 0 
L 9.8125 0 
L 9.8125 72.90625 
L 32.078125 72.90625 
Q 44.578125 72.90625 50.734375 67.671875 
Q 56.890625 62.453125 56.890625 51.90625 
Q 56.890625 45.015625 53.6875 40.46875 
Q 50.484375 35.9375 44.390625 34.1875 
z
M 19.671875 64.796875 
L 19.671875 38.921875 
L 32.078125 38.921875 
Q 39.203125 38.921875 42.84375 42.21875 
Q 46.484375 45.515625 46.484375 51.90625 
Q 46.484375 58.296875 42.84375 61.546875 
Q 39.203125 64.796875 32.078125 64.796875 
z
" id="DejaVuSans-82"/>
      <path d="M 56.203125 29.59375 
L 56.203125 25.203125 
L 14.890625 25.203125 
Q 15.484375 15.921875 20.484375 11.0625 
Q 25.484375 6.203125 34.421875 6.203125 
Q 39.59375 6.203125 44.453125 7.46875 
Q 49.3125 8.734375 54.109375 11.28125 
L 54.109375 2.78125 
Q 49.265625 0.734375 44.1875 -0.34375 
Q 39.109375 -1.421875 33.890625 -1.421875 
Q 20.796875 -1.421875 13.15625 6.1875 
Q 5.515625 13.8125 5.515625 26.8125 
Q 5.515625 40.234375 12.765625 48.109375 
Q 20.015625 56 32.328125 56 
Q 43.359375 56 49.78125 48.890625 
Q 56.203125 41.796875 56.203125 29.59375 
z
M 47.21875 32.234375 
Q 47.125 39.59375 43.09375 43.984375 
Q 39.0625 48.390625 32.421875 48.390625 
Q 24.90625 48.390625 20.390625 44.140625 
Q 15.875 39.890625 15.1875 32.171875 
z
" id="DejaVuSans-101"/>
      <path d="M 18.109375 8.203125 
L 18.109375 -20.796875 
L 9.078125 -20.796875 
L 9.078125 54.6875 
L 18.109375 54.6875 
L 18.109375 46.390625 
Q 20.953125 51.265625 25.265625 53.625 
Q 29.59375 56 35.59375 56 
Q 45.5625 56 51.78125 48.09375 
Q 58.015625 40.1875 58.015625 27.296875 
Q 58.015625 14.40625 51.78125 6.484375 
Q 45.5625 -1.421875 35.59375 -1.421875 
Q 29.59375 -1.421875 25.265625 0.953125 
Q 20.953125 3.328125 18.109375 8.203125 
z
M 48.6875 27.296875 
Q 48.6875 37.203125 44.609375 42.84375 
Q 40.53125 48.484375 33.40625 48.484375 
Q 26.265625 48.484375 22.1875 42.84375 
Q 18.109375 37.203125 18.109375 27.296875 
Q 18.109375 17.390625 22.1875 11.75 
Q 26.265625 6.109375 33.40625 6.109375 
Q 40.53125 6.109375 44.609375 11.75 
Q 48.6875 17.390625 48.6875 27.296875 
z
" id="DejaVuSans-112"/>
      <path d="M 30.609375 48.390625 
Q 23.390625 48.390625 19.1875 42.75 
Q 14.984375 37.109375 14.984375 27.296875 
Q 14.984375 17.484375 19.15625 11.84375 
Q 23.34375 6.203125 30.609375 6.203125 
Q 37.796875 6.203125 41.984375 11.859375 
Q 46.1875 17.53125 46.1875 27.296875 
Q 46.1875 37.015625 41.984375 42.703125 
Q 37.796875 48.390625 30.609375 48.390625 
z
M 30.609375 56 
Q 42.328125 56 49.015625 48.375 
Q 55.71875 40.765625 55.71875 27.296875 
Q 55.71875 13.875 49.015625 6.21875 
Q 42.328125 -1.421875 30.609375 -1.421875 
Q 18.84375 -1.421875 12.171875 6.21875 
Q 5.515625 13.875 5.515625 27.296875 
Q 5.515625 40.765625 12.171875 48.375 
Q 18.84375 56 30.609375 56 
z
" id="DejaVuSans-111"/>
      <path d="M 41.109375 46.296875 
Q 39.59375 47.171875 37.8125 47.578125 
Q 36.03125 48 33.890625 48 
Q 26.265625 48 22.1875 43.046875 
Q 18.109375 38.09375 18.109375 28.8125 
L 18.109375 0 
L 9.078125 0 
L 9.078125 54.6875 
L 18.109375 54.6875 
L 18.109375 46.1875 
Q 20.953125 51.171875 25.484375 53.578125 
Q 30.03125 56 36.53125 56 
Q 37.453125 56 38.578125 55.875 
Q 39.703125 55.765625 41.0625 55.515625 
z
" id="DejaVuSans-114"/>
      <path d="M 18.3125 70.21875 
L 18.3125 54.6875 
L 36.8125 54.6875 
L 36.8125 47.703125 
L 18.3125 47.703125 
L 18.3125 18.015625 
Q 18.3125 11.328125 20.140625 9.421875 
Q 21.96875 7.515625 27.59375 7.515625 
L 36.8125 7.515625 
L 36.8125 0 
L 27.59375 0 
Q 17.1875 0 13.234375 3.875 
Q 9.28125 7.765625 9.28125 18.015625 
L 9.28125 47.703125 
L 2.6875 47.703125 
L 2.6875 54.6875 
L 9.28125 54.6875 
L 9.28125 70.21875 
z
" id="DejaVuSans-116"/>
      <path d="M 45.40625 46.390625 
L 45.40625 75.984375 
L 54.390625 75.984375 
L 54.390625 0 
L 45.40625 0 
L 45.40625 8.203125 
Q 42.578125 3.328125 38.25 0.953125 
Q 33.9375 -1.421875 27.875 -1.421875 
Q 17.96875 -1.421875 11.734375 6.484375 
Q 5.515625 14.40625 5.515625 27.296875 
Q 5.515625 40.1875 11.734375 48.09375 
Q 17.96875 56 27.875 56 
Q 33.9375 56 38.25 53.625 
Q 42.578125 51.265625 45.40625 46.390625 
z
M 14.796875 27.296875 
Q 14.796875 17.390625 18.875 11.75 
Q 22.953125 6.109375 30.078125 6.109375 
Q 37.203125 6.109375 41.296875 11.75 
Q 45.40625 17.390625 45.40625 27.296875 
Q 45.40625 37.203125 41.296875 42.84375 
Q 37.203125 48.484375 30.078125 48.484375 
Q 22.953125 48.484375 18.875 42.84375 
Q 14.796875 37.203125 14.796875 27.296875 
z
" id="DejaVuSans-100"/>
      <path id="DejaVuSans-32"/>
      <path d="M 39.40625 66.21875 
Q 28.65625 66.21875 22.328125 58.203125 
Q 16.015625 50.203125 16.015625 36.375 
Q 16.015625 22.609375 22.328125 14.59375 
Q 28.65625 6.59375 39.40625 6.59375 
Q 50.140625 6.59375 56.421875 14.59375 
Q 62.703125 22.609375 62.703125 36.375 
Q 62.703125 50.203125 56.421875 58.203125 
Q 50.140625 66.21875 39.40625 66.21875 
z
M 39.40625 74.21875 
Q 54.734375 74.21875 63.90625 63.9375 
Q 73.09375 53.65625 73.09375 36.375 
Q 73.09375 19.140625 63.90625 8.859375 
Q 54.734375 -1.421875 39.40625 -1.421875 
Q 24.03125 -1.421875 14.8125 8.828125 
Q 5.609375 19.09375 5.609375 36.375 
Q 5.609375 53.65625 14.8125 63.9375 
Q 24.03125 74.21875 39.40625 74.21875 
z
" id="DejaVuSans-79"/>
      <path d="M 54.890625 33.015625 
L 54.890625 0 
L 45.90625 0 
L 45.90625 32.71875 
Q 45.90625 40.484375 42.875 44.328125 
Q 39.84375 48.1875 33.796875 48.1875 
Q 26.515625 48.1875 22.3125 43.546875 
Q 18.109375 38.921875 18.109375 30.90625 
L 18.109375 0 
L 9.078125 0 
L 9.078125 54.6875 
L 18.109375 54.6875 
L 18.109375 46.1875 
Q 21.34375 51.125 25.703125 53.5625 
Q 30.078125 56 35.796875 56 
Q 45.21875 56 50.046875 50.171875 
Q 54.890625 44.34375 54.890625 33.015625 
z
" id="DejaVuSans-110"/>
     </defs>
     <g transform="translate(263.680469 412.756563)scale(0.1 -0.1)">
      <use xlink:href="#DejaVuSans-82"/>
      <use x="64.982422" xlink:href="#DejaVuSans-101"/>
      <use x="126.505859" xlink:href="#DejaVuSans-112"/>
      <use x="189.982422" xlink:href="#DejaVuSans-111"/>
      <use x="251.164062" xlink:href="#DejaVuSans-114"/>
      <use x="292.277344" xlink:href="#DejaVuSans-116"/>
      <use x="331.486328" xlink:href="#DejaVuSans-101"/>
      <use x="393.009766" xlink:href="#DejaVuSans-100"/>
      <use x="456.486328" xlink:href="#DejaVuSans-32"/>
      <use x="488.273438" xlink:href="#DejaVuSans-79"/>
      <use x="566.984375" xlink:href="#DejaVuSans-110"/>
     </g>
    </g>
   </g>
   <g id="matplotlib.axis_2">
    <g id="ytick_1">
     <g id="line2d_9">
      <defs>
       <path d="M 0 0 
L -3.5 0 
" id="me59be536c8" style="stroke:#000000;stroke-width:0.8;"/>
      </defs>
      <g>
       <use style="stroke:#000000;stroke-width:0.8;" x="72" xlink:href="#me59be536c8" y="370.191443"/>
      </g>
     </g>
     <g id="text_10">
      <!--   0 -->
      <g transform="translate(52.28125 373.990662)scale(0.1 -0.1)">
       <use xlink:href="#DejaVuSans-32"/>
       <use x="31.787109" xlink:href="#DejaVuSans-32"/>
       <use x="63.574219" xlink:href="#DejaVuSans-48"/>
      </g>
     </g>
    </g>
    <g id="ytick_2">
     <g id="line2d_10">
      <g>
       <use style="stroke:#000000;stroke-width:0.8;" x="72" xlink:href="#me59be536c8" y="320.294663"/>
      </g>
     </g>
     <g id="text_11">
      <!-- 100 -->
      <g transform="translate(45.9125 324.093882)scale(0.1 -0.1)">
       <use xlink:href="#DejaVuSans-49"/>
       <use x="63.623047" xlink:href="#DejaVuSans-48"/>
       <use x="127.246094" xlink:href="#DejaVuSans-48"/>
      </g>
     </g>
    </g>
    <g id="ytick_3">
     <g id="line2d_11">
      <g>
       <use style="stroke:#000000;stroke-width:0.8;" x="72" xlink:href="#me59be536c8" y="270.397884"/>
      </g>
     </g>
     <g id="text_12">
      <!-- 200 -->
      <g transform="translate(45.9125 274.197103)scale(0.1 -0.1)">
       <use xlink:href="#DejaVuSans-50"/>
       <use x="63.623047" xlink:href="#DejaVuSans-48"/>
       <use x="127.246094" xlink:href="#DejaVuSans-48"/>
      </g>
     </g>
    </g>
    <g id="ytick_4">
     <g id="line2d_12">
      <g>
       <use style="stroke:#000000;stroke-width:0.8;" x="72" xlink:href="#me59be536c8" y="220.501104"/>
      </g>
     </g>
     <g id="text_13">
      <!-- 300 -->
      <g transform="translate(45.9125 224.300323)scale(0.1 -0.1)">
       <use xlink:href="#DejaVuSans-51"/>
       <use x="63.623047" xlink:href="#DejaVuSans-48"/>
       <use x="127.246094" xlink:href="#DejaVuSans-48"/>
      </g>
     </g>
    </g>
    <g id="ytick_5">
     <g id="line2d_13">
      <g>
       <use style="stroke:#000000;stroke-width:0.8;" x="72" xlink:href="#me59be536c8" y="170.604325"/>
      </g>
     </g>
     <g id="text_14">
      <!-- 400 -->
      <defs>
       <path d="M 37.796875 64.3125 
L 12.890625 25.390625 
L 37.796875 25.390625 
z
M 35.203125 72.90625 
L 47.609375 72.90625 
L 47.609375 25.390625 
L 58.015625 25.390625 
L 58.015625 17.1875 
L 47.609375 17.1875 
L 47.609375 0 
L 37.796875 0 
L 37.796875 17.1875 
L 4.890625 17.1875 
L 4.890625 26.703125 
z
" id="DejaVuSans-52"/>
      </defs>
      <g transform="translate(45.9125 174.403543)scale(0.1 -0.1)">
       <use xlink:href="#DejaVuSans-52"/>
       <use x="63.623047" xlink:href="#DejaVuSans-48"/>
       <use x="127.246094" xlink:href="#DejaVuSans-48"/>
      </g>
     </g>
    </g>
    <g id="ytick_6">
     <g id="line2d_14">
      <g>
       <use style="stroke:#000000;stroke-width:0.8;" x="72" xlink:href="#me59be536c8" y="120.707545"/>
      </g>
     </g>
     <g id="text_15">
      <!-- 500 -->
      <g transform="translate(45.9125 124.506764)scale(0.1 -0.1)">
       <use xlink:href="#DejaVuSans-53"/>
       <use x="63.623047" xlink:href="#DejaVuSans-48"/>
       <use x="127.246094" xlink:href="#DejaVuSans-48"/>
      </g>
     </g>
    </g>
    <g id="ytick_7">
     <g id="line2d_15">
      <g>
       <use style="stroke:#000000;stroke-width:0.8;" x="72" xlink:href="#me59be536c8" y="70.810766"/>
      </g>
     </g>
     <g id="text_16">
      <!-- 600 -->
      <defs>
       <path d="M 33.015625 40.375 
Q 26.375 40.375 22.484375 35.828125 
Q 18.609375 31.296875 18.609375 23.390625 
Q 18.609375 15.53125 22.484375 10.953125 
Q 26.375 6.390625 33.015625 6.390625 
Q 39.65625 6.390625 43.53125 10.953125 
Q 47.40625 15.53125 47.40625 23.390625 
Q 47.40625 31.296875 43.53125 35.828125 
Q 39.65625 40.375 33.015625 40.375 
z
M 52.59375 71.296875 
L 52.59375 62.3125 
Q 48.875 64.0625 45.09375 64.984375 
Q 41.3125 65.921875 37.59375 65.921875 
Q 27.828125 65.921875 22.671875 59.328125 
Q 17.53125 52.734375 16.796875 39.40625 
Q 19.671875 43.65625 24.015625 45.921875 
Q 28.375 48.1875 33.59375 48.1875 
Q 44.578125 48.1875 50.953125 41.515625 
Q 57.328125 34.859375 57.328125 23.390625 
Q 57.328125 12.15625 50.6875 5.359375 
Q 44.046875 -1.421875 33.015625 -1.421875 
Q 20.359375 -1.421875 13.671875 8.265625 
Q 6.984375 17.96875 6.984375 36.375 
Q 6.984375 53.65625 15.1875 63.9375 
Q 23.390625 74.21875 37.203125 74.21875 
Q 40.921875 74.21875 44.703125 73.484375 
Q 48.484375 72.75 52.59375 71.296875 
z
" id="DejaVuSans-54"/>
      </defs>
      <g transform="translate(45.9125 74.609984)scale(0.1 -0.1)">
       <use xlink:href="#DejaVuSans-54"/>
       <use x="63.623047" xlink:href="#DejaVuSans-48"/>
       <use x="127.246094" xlink:href="#DejaVuSans-48"/>
      </g>
     </g>
    </g>
    <g id="text_17">
     <!-- Duration [days] -->
     <defs>
      <path d="M 19.671875 64.796875 
L 19.671875 8.109375 
L 31.59375 8.109375 
Q 46.6875 8.109375 53.6875 14.9375 
Q 60.6875 21.78125 60.6875 36.53125 
Q 60.6875 51.171875 53.6875 57.984375 
Q 46.6875 64.796875 31.59375 64.796875 
z
M 9.8125 72.90625 
L 30.078125 72.90625 
Q 51.265625 72.90625 61.171875 64.09375 
Q 71.09375 55.28125 71.09375 36.53125 
Q 71.09375 17.671875 61.125 8.828125 
Q 51.171875 0 30.078125 0 
L 9.8125 0 
z
" id="DejaVuSans-68"/>
      <path d="M 8.5 21.578125 
L 8.5 54.6875 
L 17.484375 54.6875 
L 17.484375 21.921875 
Q 17.484375 14.15625 20.5 10.265625 
Q 23.53125 6.390625 29.59375 6.390625 
Q 36.859375 6.390625 41.078125 11.03125 
Q 45.3125 15.671875 45.3125 23.6875 
L 45.3125 54.6875 
L 54.296875 54.6875 
L 54.296875 0 
L 45.3125 0 
L 45.3125 8.40625 
Q 42.046875 3.421875 37.71875 1 
Q 33.40625 -1.421875 27.6875 -1.421875 
Q 18.265625 -1.421875 13.375 4.4375 
Q 8.5 10.296875 8.5 21.578125 
z
M 31.109375 56 
z
" id="DejaVuSans-117"/>
      <path d="M 34.28125 27.484375 
Q 23.390625 27.484375 19.1875 25 
Q 14.984375 22.515625 14.984375 16.5 
Q 14.984375 11.71875 18.140625 8.90625 
Q 21.296875 6.109375 26.703125 6.109375 
Q 34.1875 6.109375 38.703125 11.40625 
Q 43.21875 16.703125 43.21875 25.484375 
L 43.21875 27.484375 
z
M 52.203125 31.203125 
L 52.203125 0 
L 43.21875 0 
L 43.21875 8.296875 
Q 40.140625 3.328125 35.546875 0.953125 
Q 30.953125 -1.421875 24.3125 -1.421875 
Q 15.921875 -1.421875 10.953125 3.296875 
Q 6 8.015625 6 15.921875 
Q 6 25.140625 12.171875 29.828125 
Q 18.359375 34.515625 30.609375 34.515625 
L 43.21875 34.515625 
L 43.21875 35.40625 
Q 43.21875 41.609375 39.140625 45 
Q 35.0625 48.390625 27.6875 48.390625 
Q 23 48.390625 18.546875 47.265625 
Q 14.109375 46.140625 10.015625 43.890625 
L 10.015625 52.203125 
Q 14.9375 54.109375 19.578125 55.046875 
Q 24.21875 56 28.609375 56 
Q 40.484375 56 46.34375 49.84375 
Q 52.203125 43.703125 52.203125 31.203125 
z
" id="DejaVuSans-97"/>
      <path d="M 9.421875 54.6875 
L 18.40625 54.6875 
L 18.40625 0 
L 9.421875 0 
z
M 9.421875 75.984375 
L 18.40625 75.984375 
L 18.40625 64.59375 
L 9.421875 64.59375 
z
" id="DejaVuSans-105"/>
      <path d="M 8.59375 75.984375 
L 29.296875 75.984375 
L 29.296875 69 
L 17.578125 69 
L 17.578125 -6.203125 
L 29.296875 -6.203125 
L 29.296875 -13.1875 
L 8.59375 -13.1875 
z
" id="DejaVuSans-91"/>
      <path d="M 32.171875 -5.078125 
Q 28.375 -14.84375 24.75 -17.8125 
Q 21.140625 -20.796875 15.09375 -20.796875 
L 7.90625 -20.796875 
L 7.90625 -13.28125 
L 13.1875 -13.28125 
Q 16.890625 -13.28125 18.9375 -11.515625 
Q 21 -9.765625 23.484375 -3.21875 
L 25.09375 0.875 
L 2.984375 54.6875 
L 12.5 54.6875 
L 29.59375 11.921875 
L 46.6875 54.6875 
L 56.203125 54.6875 
z
" id="DejaVuSans-121"/>
      <path d="M 44.28125 53.078125 
L 44.28125 44.578125 
Q 40.484375 46.53125 36.375 47.5 
Q 32.28125 48.484375 27.875 48.484375 
Q 21.1875 48.484375 17.84375 46.4375 
Q 14.5 44.390625 14.5 40.28125 
Q 14.5 37.15625 16.890625 35.375 
Q 19.28125 33.59375 26.515625 31.984375 
L 29.59375 31.296875 
Q 39.15625 29.25 43.1875 25.515625 
Q 47.21875 21.78125 47.21875 15.09375 
Q 47.21875 7.46875 41.1875 3.015625 
Q 35.15625 -1.421875 24.609375 -1.421875 
Q 20.21875 -1.421875 15.453125 -0.5625 
Q 10.6875 0.296875 5.421875 2 
L 5.421875 11.28125 
Q 10.40625 8.6875 15.234375 7.390625 
Q 20.0625 6.109375 24.8125 6.109375 
Q 31.15625 6.109375 34.5625 8.28125 
Q 37.984375 10.453125 37.984375 14.40625 
Q 37.984375 18.0625 35.515625 20.015625 
Q 33.0625 21.96875 24.703125 23.78125 
L 21.578125 24.515625 
Q 13.234375 26.265625 9.515625 29.90625 
Q 5.8125 33.546875 5.8125 39.890625 
Q 5.8125 47.609375 11.28125 51.796875 
Q 16.75 56 26.8125 56 
Q 31.78125 56 36.171875 55.265625 
Q 40.578125 54.546875 44.28125 53.078125 
z
" id="DejaVuSans-115"/>
      <path d="M 30.421875 75.984375 
L 30.421875 -13.1875 
L 9.71875 -13.1875 
L 9.71875 -6.203125 
L 21.390625 -6.203125 
L 21.390625 69 
L 9.71875 69 
L 9.71875 75.984375 
z
" id="DejaVuSans-93"/>
     </defs>
     <g transform="translate(39.832812 257.168594)rotate(-90)scale(0.1 -0.1)">
      <use xlink:href="#DejaVuSans-68"/>
      <use x="77.001953" xlink:href="#DejaVuSans-117"/>
      <use x="140.380859" xlink:href="#DejaVuSans-114"/>
      <use x="181.494141" xlink:href="#DejaVuSans-97"/>
      <use x="242.773438" xlink:href="#DejaVuSans-116"/>
      <use x="281.982422" xlink:href="#DejaVuSans-105"/>
      <use x="309.765625" xlink:href="#DejaVuSans-111"/>
      <use x="370.947266" xlink:href="#DejaVuSans-110"/>
      <use x="434.326172" xlink:href="#DejaVuSans-32"/>
      <use x="466.113281" xlink:href="#DejaVuSans-91"/>
      <use x="505.126953" xlink:href="#DejaVuSans-100"/>
      <use x="568.603516" xlink:href="#DejaVuSans-97"/>
      <use x="629.882812" xlink:href="#DejaVuSans-121"/>
      <use x="689.0625" xlink:href="#DejaVuSans-115"/>
      <use x="741.162109" xlink:href="#DejaVuSans-93"/>
     </g>
    </g>
   </g>
   <g id="line2d_16">
    <path clip-path="url(#p9aabbffd06)" d="M 498.109091 86.689239 
L 497.249307 76.368161 
L 496.389522 68.889102 
L 495.529738 66.96 
L 494.669954 95.763817 
L 493.810169 156.435698 
L 492.950385 131.412458 
L 491.230817 152.907183 
L 490.371032 151.898812 
L 489.511248 147.195533 
L 488.651464 137.075973 
L 487.79168 74.707614 
L 486.931895 144.125388 
L 486.072111 153.347427 
L 484.352542 165.165541 
L 483.492758 177.112509 
L 482.632974 175.506222 
L 481.77319 180.676509 
L 480.913405 180.221936 
L 480.053621 173.357474 
L 479.193837 191.470646 
L 478.334052 174.323007 
L 477.474268 177.125248 
L 476.614484 189.753109 
L 475.7547 197.928173 
L 474.894915 210.990813 
L 474.035131 217.997089 
L 473.175347 209.979796 
L 472.315562 236.666545 
L 471.455778 245.132566 
L 470.595994 255.756129 
L 469.73621 253.602394 
L 468.876425 263.547176 
L 468.016641 264.726547 
L 467.156857 269.220344 
L 466.297072 268.414093 
L 465.437288 275.914494 
L 464.577504 282.008255 
L 463.71772 291.417545 
L 461.998151 299.550265 
L 461.138367 299.529408 
L 460.278582 303.058655 
L 459.418798 304.27097 
L 458.559014 301.608518 
L 457.69923 303.514306 
L 456.839445 308.429092 
L 455.979661 308.224487 
L 455.119877 310.33015 
L 454.260092 314.551107 
L 451.68074 329.636283 
L 450.820955 330.806215 
L 449.961171 331.037165 
L 449.101387 331.754536 
L 448.241602 334.466098 
L 447.381818 334.734093 
L 446.522034 335.597423 
L 445.66225 336.250515 
L 444.802465 338.37101 
L 443.942681 339.54807 
L 443.082897 340.366014 
L 442.223112 339.382929 
L 441.363328 339.249532 
L 439.64376 340.452083 
L 438.783975 340.839723 
L 437.924191 340.955196 
L 437.064407 342.026861 
L 436.204622 342.515392 
L 435.344838 343.689083 
L 433.62527 343.21496 
L 432.765485 343.557658 
L 431.905701 343.335051 
L 431.045917 342.512623 
L 430.186133 346.006858 
L 429.326348 342.093067 
L 428.466564 340.983593 
L 427.60678 340.245449 
L 426.746995 338.786299 
L 425.887211 338.32575 
L 425.027427 337.330281 
L 424.167643 335.314987 
L 423.307858 335.314987 
L 422.448074 335.980391 
L 421.58829 335.186757 
L 420.728505 332.700663 
L 419.008937 330.6674 
L 418.149153 315.420154 
L 417.289368 321.786568 
L 416.429584 317.825646 
L 415.5698 311.968491 
L 413.850231 313.253228 
L 412.990447 313.240726 
L 412.130663 317.50904 
L 411.270878 318.021507 
L 410.411094 318.015791 
L 409.55131 318.958197 
L 408.691525 313.458026 
L 406.971957 305.842868 
L 406.112173 299.954652 
L 405.252388 294.994232 
L 404.392604 288.12377 
L 403.53282 273.092079 
L 402.673035 271.284518 
L 401.813251 270.509164 
L 400.953467 268.862601 
L 400.093683 272.959208 
L 399.233898 269.064969 
L 398.374114 263.426126 
L 397.51433 261.341533 
L 396.654545 251.998653 
L 395.794761 246.944435 
L 394.934977 249.036801 
L 393.215408 243.502873 
L 392.355624 247.209021 
L 391.49584 256.039855 
L 390.636055 259.528413 
L 389.776271 268.917278 
L 388.916487 271.212255 
L 388.056703 276.064543 
L 387.196918 282.935554 
L 386.337134 281.190466 
L 385.47735 276.357703 
L 384.617565 276.096128 
L 383.757781 267.453383 
L 382.897997 265.314728 
L 382.038213 257.081095 
L 381.178428 250.15902 
L 380.318644 254.772187 
L 379.45886 253.965309 
L 378.599076 251.066851 
L 377.739291 253.904 
L 376.879507 252.564495 
L 376.019723 249.786067 
L 375.159938 251.00327 
L 374.300154 244.34324 
L 373.44037 253.373914 
L 372.580586 254.257551 
L 371.720801 255.954412 
L 370.861017 259.006897 
L 370.001233 260.018546 
L 369.141448 267.244168 
L 368.281664 257.570681 
L 367.42188 264.216395 
L 366.562096 264.035683 
L 365.702311 272.123712 
L 364.842527 272.315757 
L 363.982743 283.981481 
L 363.122958 286.553023 
L 362.263174 302.864526 
L 361.40339 301.292791 
L 360.543606 306.955327 
L 359.683821 308.147692 
L 358.824037 312.608496 
L 357.964253 311.54072 
L 357.104468 306.033837 
L 356.244684 301.275767 
L 355.3849 304.527679 
L 354.525116 302.545378 
L 353.665331 307.006809 
L 352.805547 305.396082 
L 351.945763 307.932199 
L 351.085978 317.692273 
L 350.226194 321.136043 
L 349.36641 320.581828 
L 348.506626 320.987034 
L 347.646841 319.714527 
L 346.787057 318.899096 
L 345.927273 317.848127 
L 345.067488 313.852392 
L 344.207704 312.049138 
L 343.34792 314.783747 
L 342.488136 313.346584 
L 341.628351 309.046327 
L 340.768567 307.675323 
L 339.908783 302.374675 
L 339.048998 290.068509 
L 336.469646 245.644605 
L 335.609861 243.230246 
L 334.750077 231.143278 
L 333.890293 215.725089 
L 333.030508 207.924176 
L 332.170724 182.647986 
L 331.31094 142.823741 
L 330.451156 125.958021 
L 329.591371 140.487585 
L 328.731587 161.159743 
L 327.871803 155.040969 
L 327.012018 204.666761 
L 326.152234 219.099373 
L 324.432666 254.341892 
L 323.572881 253.728368 
L 322.713097 244.958956 
L 321.853313 265.559124 
L 320.993529 265.534829 
L 320.133744 278.102598 
L 319.27396 266.948528 
L 318.414176 271.640679 
L 317.554391 266.651866 
L 316.694607 277.712734 
L 315.834823 268.368434 
L 314.975039 268.732513 
L 314.115254 268.884739 
L 313.25547 287.863057 
L 312.395686 282.106362 
L 311.535901 291.507371 
L 310.676117 286.476759 
L 309.816333 291.716836 
L 308.956549 299.286357 
L 308.096764 299.276897 
L 307.23698 294.082849 
L 306.377196 308.290913 
L 305.517411 314.47883 
L 304.657627 315.997137 
L 303.797843 315.648541 
L 302.938059 316.964954 
L 302.078274 318.800136 
L 301.21849 322.791817 
L 300.358706 314.014118 
L 299.498921 317.253154 
L 298.639137 316.440375 
L 297.779353 316.664384 
L 296.919569 311.436888 
L 296.059784 308.328356 
L 295.2 316.215397 
L 294.340216 318.932421 
L 293.480431 314.652015 
L 291.760863 322.819439 
L 290.041294 328.178101 
L 289.18151 325.589691 
L 288.321726 329.805114 
L 286.602157 327.704493 
L 285.742373 326.072537 
L 284.882589 329.106543 
L 284.022804 330.674299 
L 282.303236 325.364149 
L 281.443451 324.391611 
L 280.583667 323.848066 
L 279.723883 326.043082 
L 278.864099 328.805154 
L 278.004314 327.939567 
L 277.14453 331.057795 
L 276.284746 335.322592 
L 275.424961 338.512666 
L 274.565177 339.68213 
L 273.705393 341.791086 
L 272.845609 341.711778 
L 271.985824 342.244867 
L 271.12604 341.869154 
L 270.266256 341.68188 
L 269.406471 341.96949 
L 268.546687 343.648435 
L 267.686903 345.743818 
L 266.827119 345.837492 
L 265.967334 346.460655 
L 265.10755 347.361796 
L 264.247766 347.389644 
L 262.528197 347.204001 
L 261.668413 344.12278 
L 259.948844 343.732062 
L 259.08906 344.520643 
L 258.229276 345.71534 
L 257.369492 345.966718 
L 256.509707 345.107077 
L 255.649923 345.631534 
L 254.790139 345.21384 
L 253.930354 348.329132 
L 253.07057 347.420762 
L 252.210786 345.878538 
L 250.491217 344.066056 
L 249.631433 344.448193 
L 248.771649 343.269356 
L 247.911864 339.35898 
L 247.05208 341.056155 
L 246.192296 341.405985 
L 245.332512 342.320905 
L 244.472727 342.582239 
L 243.612943 344.81649 
L 241.893374 347.026265 
L 240.173806 347.694554 
L 239.314022 346.89453 
L 238.454237 347.125924 
L 237.594453 345.089915 
L 236.734669 346.28304 
L 235.874884 345.711256 
L 235.0151 345.769179 
L 234.155316 346.477089 
L 233.295532 348.993752 
L 232.435747 349.322212 
L 231.575963 350.429894 
L 230.716179 348.904858 
L 229.856394 347.808602 
L 228.99661 347.805907 
L 228.136826 347.34204 
L 227.277042 344.53496 
L 226.417257 344.059528 
L 225.557473 342.929876 
L 224.697689 344.020944 
L 223.837904 344.193011 
L 222.97812 342.806374 
L 222.118336 343.825334 
L 221.258552 345.258271 
L 220.398767 345.505971 
L 219.538983 342.601374 
L 218.679199 341.31712 
L 216.95963 346.202699 
L 216.099846 347.600986 
L 215.240062 347.017914 
L 214.380277 347.27466 
L 213.520493 347.90507 
L 212.660709 349.927192 
L 211.800924 349.306895 
L 210.94114 347.897777 
L 210.081356 346.789082 
L 208.361787 349.004373 
L 207.502003 351.92259 
L 206.642219 350.797796 
L 205.782435 350.307986 
L 204.92265 350.6532 
L 204.062866 348.256717 
L 203.203082 346.727034 
L 201.483513 344.202836 
L 200.623729 345.561564 
L 199.763945 345.573986 
L 198.90416 345.015844 
L 198.044376 348.178753 
L 197.184592 349.322725 
L 196.324807 349.936028 
L 195.465023 348.848315 
L 194.605239 352.130049 
L 193.745455 353.346716 
L 192.88567 357.324799 
L 192.025886 358.021008 
L 191.166102 357.827756 
L 190.306317 359.544411 
L 189.446533 358.803054 
L 188.586749 357.780242 
L 187.726965 357.862413 
L 186.86718 353.15186 
L 186.007396 352.562605 
L 185.147612 353.766604 
L 184.287827 348.407338 
L 183.428043 351.804416 
L 182.568259 352.828225 
L 181.708475 356.295576 
L 180.84869 357.694173 
L 179.988906 357.927959 
L 179.129122 359.390172 
L 178.269337 359.408091 
L 177.409553 360.858337 
L 176.549769 361.865147 
L 175.689985 360.712929 
L 174.8302 359.8323 
L 173.110632 358.509957 
L 172.250847 360.730659 
L 171.391063 359.692491 
L 170.531279 357.378053 
L 169.671495 357.779312 
L 168.81171 359.592771 
L 167.951926 359.448105 
L 167.092142 358.852786 
L 166.232357 355.87354 
L 165.372573 356.014003 
L 163.653005 359.272397 
L 161.933436 361.64143 
L 161.073652 361.755721 
L 160.213867 362.0272 
L 159.354083 361.73663 
L 158.494299 360.802003 
L 157.634515 361.022382 
L 156.77473 360.491986 
L 155.914946 359.374194 
L 155.055162 358.679245 
L 154.195378 360.00783 
L 153.335593 360.436444 
L 152.475809 361.380816 
L 151.616025 360.429619 
L 150.75624 357.996638 
L 149.036672 354.95589 
L 148.176888 352.108869 
L 147.317103 350.870156 
L 146.457319 348.44961 
L 145.597535 343.477418 
L 144.73775 348.222786 
L 143.877966 354.093155 
L 143.018182 356.03572 
L 142.158398 353.567322 
L 140.438829 346.906006 
L 139.579045 350.232771 
L 138.71926 357.185631 
L 137.859476 359.348652 
L 136.999692 359.598992 
L 136.139908 361.604111 
L 135.280123 362.665219 
L 133.560555 363.442555 
L 132.70077 364.174492 
L 131.840986 363.322888 
L 130.981202 363.904835 
L 130.121418 363.958292 
L 129.261633 364.517373 
L 128.401849 366.202741 
L 127.542065 365.90841 
L 126.68228 365.329372 
L 124.102928 364.549158 
L 123.243143 365.400977 
L 122.383359 362.608982 
L 121.523575 363.797545 
L 119.804006 365.334965 
L 118.944222 365.045663 
L 118.084438 365.639308 
L 117.224653 364.510049 
L 116.364869 364.663931 
L 115.505085 363.671818 
L 114.6453 360.887424 
L 113.785516 368.696128 
L 110.346379 368.861744 
L 108.62681 368.861744 
L 107.767026 364.663931 
L 106.907242 363.232234 
L 106.047458 351.888439 
L 105.187673 351.888439 
L 104.327889 354.313685 
L 100.028968 354.313685 
L 99.169183 362.824602 
L 98.309399 356.740481 
L 97.449615 364.049199 
L 96.589831 364.049199 
L 95.730046 366.52846 
L 94.010478 366.52846 
L 93.150693 365.281144 
L 92.290909 368.520218 
L 92.290909 368.520218 
" style="fill:none;stroke:#1f77b4;stroke-linecap:square;stroke-width:1.5;"/>
   </g>
   <g id="line2d_17">
    <path clip-path="url(#p9aabbffd06)" d="M 498.109091 134.735449 
L 497.249307 140.057359 
L 496.389522 132.53915 
L 495.529738 134.407948 
L 494.669954 126.004518 
L 493.810169 176.319195 
L 492.950385 160.01508 
L 492.090601 165.793574 
L 491.230817 190.270053 
L 490.371032 197.753684 
L 489.511248 183.251455 
L 488.651464 186.792918 
L 487.79168 160.710514 
L 486.931895 192.264418 
L 486.072111 197.349567 
L 485.212327 193.525414 
L 484.352542 193.779963 
L 483.492758 199.137325 
L 482.632974 213.48343 
L 481.77319 217.382475 
L 480.913405 233.668236 
L 480.053621 234.126084 
L 479.193837 259.593411 
L 478.334052 251.75442 
L 477.474268 260.544134 
L 476.614484 257.056819 
L 475.7547 260.095224 
L 474.894915 262.643337 
L 474.035131 267.962405 
L 473.175347 261.524727 
L 472.315562 288.208816 
L 471.455778 290.807333 
L 470.595994 299.550029 
L 469.73621 304.996347 
L 468.876425 305.650281 
L 468.016641 306.533507 
L 467.156857 312.356947 
L 466.297072 307.158642 
L 464.577504 313.011645 
L 461.998151 325.541927 
L 460.278582 330.013023 
L 459.418798 331.29882 
L 458.559014 333.656523 
L 457.69923 334.631331 
L 456.839445 334.737503 
L 455.979661 333.778479 
L 455.119877 335.517971 
L 454.260092 338.551449 
L 453.400308 337.710327 
L 452.540524 336.636931 
L 451.68074 338.193002 
L 450.820955 338.459324 
L 449.961171 340.915574 
L 449.101387 340.742083 
L 448.241602 340.835042 
L 447.381818 344.516196 
L 446.522034 344.323576 
L 445.66225 344.457304 
L 444.802465 345.447003 
L 443.942681 344.933784 
L 443.082897 345.162658 
L 442.223112 343.843752 
L 441.363328 340.504071 
L 440.503544 342.287919 
L 439.64376 342.056604 
L 438.783975 341.61338 
L 437.924191 341.40654 
L 437.064407 341.395912 
L 436.204622 339.946291 
L 435.344838 340.244504 
L 434.485054 339.9686 
L 432.765485 336.276643 
L 431.905701 335.808682 
L 431.045917 331.265079 
L 430.186133 333.903817 
L 429.326348 329.092554 
L 428.466564 320.228658 
L 427.60678 318.854399 
L 426.746995 319.760978 
L 425.887211 315.631444 
L 425.027427 319.488424 
L 424.167643 316.68175 
L 423.307858 316.68175 
L 422.448074 322.096014 
L 421.58829 320.017562 
L 420.728505 319.419838 
L 419.868721 319.363119 
L 419.008937 313.170762 
L 418.149153 306.026184 
L 417.289368 310.348512 
L 416.429584 301.192599 
L 415.5698 295.019284 
L 414.710015 286.979938 
L 413.850231 277.189326 
L 412.990447 272.720083 
L 412.130663 269.93981 
L 411.270878 268.650807 
L 410.411094 273.315231 
L 409.55131 269.670251 
L 408.691525 257.942939 
L 407.831741 261.336214 
L 406.971957 250.745007 
L 406.112173 249.04081 
L 405.252388 246.993515 
L 404.392604 238.194298 
L 403.53282 238.586679 
L 402.673035 241.635421 
L 401.813251 240.647231 
L 400.953467 244.113976 
L 400.093683 256.166085 
L 399.233898 264.170665 
L 398.374114 269.13403 
L 397.51433 267.197265 
L 396.654545 274.710566 
L 395.794761 271.889553 
L 394.934977 280.435072 
L 394.075193 272.854394 
L 393.215408 261.002346 
L 392.355624 254.205221 
L 391.49584 254.133444 
L 390.636055 230.619402 
L 389.776271 229.228307 
L 388.916487 210.117342 
L 385.47735 243.586871 
L 384.617565 246.860099 
L 383.757781 248.741709 
L 382.897997 241.287978 
L 382.038213 246.085608 
L 381.178428 245.460008 
L 380.318644 253.046319 
L 379.45886 253.104286 
L 378.599076 262.748792 
L 377.739291 267.712772 
L 376.879507 267.714485 
L 376.019723 266.144722 
L 375.159938 266.972041 
L 374.300154 258.46471 
L 373.44037 273.452781 
L 372.580586 280.481776 
L 371.720801 282.609687 
L 370.861017 298.870853 
L 370.001233 299.796237 
L 369.141448 304.403584 
L 368.281664 311.522195 
L 367.42188 313.071207 
L 366.562096 311.777475 
L 365.702311 315.34919 
L 364.842527 313.857102 
L 363.982743 314.217195 
L 363.122958 314.767223 
L 362.263174 309.742801 
L 361.40339 305.42758 
L 360.543606 305.884306 
L 359.683821 307.075412 
L 358.824037 297.914008 
L 357.964253 301.821768 
L 357.104468 300.778431 
L 356.244684 303.505713 
L 355.3849 309.720833 
L 354.525116 311.681719 
L 353.665331 304.705919 
L 352.805547 308.567072 
L 351.085978 314.371413 
L 350.226194 313.844437 
L 349.36641 311.19652 
L 348.506626 312.062253 
L 347.646841 311.021045 
L 346.787057 310.368478 
L 345.927273 298.341437 
L 345.067488 290.841878 
L 344.207704 281.649932 
L 343.34792 263.331137 
L 342.488136 233.048135 
L 341.628351 225.564438 
L 340.768567 185.573724 
L 339.908783 185.605372 
L 339.048998 139.23125 
L 338.189214 104.805945 
L 337.32943 97.798104 
L 336.469646 101.00926 
L 335.609861 84.73672 
L 334.750077 160.439972 
L 333.890293 186.821098 
L 333.030508 222.250325 
L 332.170724 226.235499 
L 331.31094 243.770824 
L 330.451156 249.611922 
L 329.591371 249.664784 
L 328.731587 231.969988 
L 327.871803 240.131318 
L 327.012018 244.258423 
L 326.152234 251.07092 
L 325.29245 237.652254 
L 324.432666 247.156473 
L 323.572881 254.631853 
L 322.713097 276.019337 
L 321.853313 278.566918 
L 320.993529 271.129908 
L 319.27396 293.525411 
L 318.414176 293.205679 
L 317.554391 297.018535 
L 316.694607 298.724868 
L 314.975039 304.96922 
L 314.115254 302.560934 
L 313.25547 294.164482 
L 312.395686 296.282524 
L 311.535901 296.749741 
L 310.676117 301.337122 
L 309.816333 304.07912 
L 308.956549 308.955591 
L 308.096764 320.417367 
L 307.23698 322.902941 
L 306.377196 324.155161 
L 305.517411 324.759397 
L 304.657627 321.611098 
L 303.797843 323.193077 
L 302.938059 318.374778 
L 302.078274 310.827552 
L 301.21849 313.622547 
L 300.358706 310.96971 
L 299.498921 312.709126 
L 298.639137 325.051087 
L 297.779353 324.612657 
L 296.919569 328.869106 
L 296.059784 329.40121 
L 295.2 336.189047 
L 294.340216 338.602789 
L 293.480431 337.277764 
L 292.620647 341.681458 
L 291.760863 340.356876 
L 290.901079 340.428104 
L 290.041294 340.758291 
L 289.18151 336.145092 
L 288.321726 334.957196 
L 287.461941 336.476301 
L 286.602157 326.000111 
L 285.742373 325.8814 
L 284.882589 326.247335 
L 284.022804 330.536313 
L 283.16302 332.898172 
L 282.303236 335.734 
L 281.443451 341.27022 
L 280.583667 344.567567 
L 279.723883 345.383037 
L 278.864099 349.458679 
L 278.004314 349.203689 
L 277.14453 349.724497 
L 276.284746 348.455058 
L 275.424961 349.638366 
L 274.565177 348.01446 
L 273.705393 348.238011 
L 272.845609 343.284828 
L 271.985824 342.86597 
L 271.12604 341.95902 
L 270.266256 342.994056 
L 269.406471 341.839241 
L 268.546687 342.257075 
L 267.686903 340.090245 
L 266.827119 339.693788 
L 265.967334 342.084518 
L 265.10755 345.345264 
L 264.247766 345.237961 
L 263.387982 344.555997 
L 262.528197 345.621047 
L 261.668413 345.485671 
L 260.808629 344.303905 
L 259.948844 342.069452 
L 259.08906 337.433492 
L 258.229276 337.494065 
L 257.369492 336.952698 
L 256.509707 337.186603 
L 255.649923 337.752835 
L 254.790139 339.9002 
L 253.930354 340.549169 
L 253.07057 342.211361 
L 252.210786 345.205839 
L 251.351002 344.227795 
L 250.491217 343.052853 
L 249.631433 343.447742 
L 248.771649 343.456403 
L 247.911864 344.91238 
L 247.05208 342.474601 
L 246.192296 345.623517 
L 245.332512 345.175834 
L 244.472727 348.05543 
L 242.753159 347.92373 
L 241.893374 348.349901 
L 241.03359 350.429089 
L 240.173806 347.784601 
L 239.314022 348.440842 
L 238.454237 350.945305 
L 237.594453 351.101575 
L 236.734669 352.058264 
L 235.874884 351.567462 
L 235.0151 350.42314 
L 234.155316 349.469857 
L 233.295532 360.78449 
L 232.435747 359.735487 
L 231.575963 359.713489 
L 228.136826 360.230388 
L 227.277042 348.982493 
L 226.417257 350.027557 
L 225.557473 349.448902 
L 224.697689 349.260247 
L 222.97812 347.013806 
L 222.118336 348.385082 
L 221.258552 347.326271 
L 220.398767 343.672336 
L 219.538983 345.213022 
L 218.679199 346.464617 
L 217.819414 345.333903 
L 216.95963 349.356467 
L 216.099846 347.341044 
L 215.240062 344.058442 
L 214.380277 346.967199 
L 213.520493 346.913648 
L 212.660709 345.509019 
L 211.800924 346.909644 
L 210.94114 347.018298 
L 210.081356 347.39635 
L 209.221572 347.509666 
L 208.361787 348.906508 
L 207.502003 349.988011 
L 206.642219 348.574746 
L 205.782435 355.864762 
L 204.92265 353.12414 
L 204.062866 356.384834 
L 202.343297 360.377312 
L 201.483513 361.907665 
L 200.623729 364.049199 
L 199.763945 363.769575 
L 198.90416 364.014255 
L 198.044376 363.725903 
L 197.184592 363.600979 
L 196.324807 363.919754 
L 195.465023 363.978288 
L 193.745455 360.052515 
L 192.025886 363.182496 
L 191.166102 363.131251 
L 190.306317 360.813566 
L 189.446533 357.873778 
L 188.586749 358.576318 
L 187.726965 358.576318 
L 186.86718 354.111532 
L 186.007396 332.304371 
L 185.147612 301.585795 
L 184.287827 351.784153 
L 183.428043 351.991618 
L 182.568259 353.76129 
L 180.84869 353.76129 
L 179.988906 352.807339 
L 179.129122 355.931327 
L 178.269337 352.601624 
L 177.409553 352.847114 
L 176.549769 346.285859 
L 175.689985 348.523639 
L 174.8302 361.132924 
L 173.970416 363.807458 
L 173.110632 363.517238 
L 172.250847 362.505561 
L 171.391063 364.113476 
L 170.531279 364.113476 
L 169.671495 363.956327 
L 168.81171 359.909013 
L 167.951926 356.942811 
L 167.092142 358.431455 
L 166.232357 362.366544 
L 165.372573 360.283519 
L 162.79322 360.283519 
L 161.933436 361.08188 
L 160.213867 359.329307 
L 159.354083 358.089719 
L 158.494299 358.330232 
L 157.634515 358.330232 
L 156.77473 358.562189 
L 155.914946 351.447605 
L 155.055162 362.47317 
L 154.195378 358.911249 
L 153.335593 363.344003 
L 152.475809 364.4295 
L 149.896456 364.318828 
L 149.036672 358.977941 
L 148.176888 358.977941 
L 147.317103 355.090055 
L 146.457319 365.075072 
L 145.597535 365.075072 
L 144.73775 365.991073 
L 142.158398 366.068966 
L 141.298613 365.409247 
L 140.438829 363.086595 
L 139.579045 363.086595 
L 138.71926 362.722767 
L 137.859476 363.685785 
L 136.999692 363.685785 
L 136.139908 364.049199 
L 135.280123 364.049199 
L 134.420339 364.262788 
L 133.560555 365.751707 
L 132.70077 364.905103 
L 131.840986 364.634609 
L 130.981202 364.634609 
L 130.121418 365.442692 
L 129.261633 367.88976 
L 128.401849 367.313363 
L 127.542065 368.951155 
L 126.68228 369.206382 
L 125.822496 369.19879 
L 124.962712 369.36 
L 124.102928 369.337752 
L 123.243143 369.190846 
L 122.383359 369.190846 
L 121.523575 368.277332 
L 120.66379 366.52846 
L 119.804006 366.52846 
L 119.804006 366.52846 
" style="fill:none;stroke:#ff7f0e;stroke-linecap:square;stroke-width:1.5;"/>
   </g>
   <g id="patch_3">
    <path d="M 72 384.48 
L 72 51.84 
" style="fill:none;stroke:#000000;stroke-linecap:square;stroke-linejoin:miter;stroke-width:0.8;"/>
   </g>
   <g id="patch_4">
    <path d="M 518.4 384.48 
L 518.4 51.84 
" style="fill:none;stroke:#000000;stroke-linecap:square;stroke-linejoin:miter;stroke-width:0.8;"/>
   </g>
   <g id="patch_5">
    <path d="M 72 384.48 
L 518.4 384.48 
" style="fill:none;stroke:#000000;stroke-linecap:square;stroke-linejoin:miter;stroke-width:0.8;"/>
   </g>
   <g id="patch_6">
    <path d="M 72 51.84 
L 518.4 51.84 
" style="fill:none;stroke:#000000;stroke-linecap:square;stroke-linejoin:miter;stroke-width:0.8;"/>
   </g>
   <g id="text_18">
    <!-- Doubling Time -->
    <defs>
     <path d="M 48.6875 27.296875 
Q 48.6875 37.203125 44.609375 42.84375 
Q 40.53125 48.484375 33.40625 48.484375 
Q 26.265625 48.484375 22.1875 42.84375 
Q 18.109375 37.203125 18.109375 27.296875 
Q 18.109375 17.390625 22.1875 11.75 
Q 26.265625 6.109375 33.40625 6.109375 
Q 40.53125 6.109375 44.609375 11.75 
Q 48.6875 17.390625 48.6875 27.296875 
z
M 18.109375 46.390625 
Q 20.953125 51.265625 25.265625 53.625 
Q 29.59375 56 35.59375 56 
Q 45.5625 56 51.78125 48.09375 
Q 58.015625 40.1875 58.015625 27.296875 
Q 58.015625 14.40625 51.78125 6.484375 
Q 45.5625 -1.421875 35.59375 -1.421875 
Q 29.59375 -1.421875 25.265625 0.953125 
Q 20.953125 3.328125 18.109375 8.203125 
L 18.109375 0 
L 9.078125 0 
L 9.078125 75.984375 
L 18.109375 75.984375 
z
" id="DejaVuSans-98"/>
     <path d="M 9.421875 75.984375 
L 18.40625 75.984375 
L 18.40625 0 
L 9.421875 0 
z
" id="DejaVuSans-108"/>
     <path d="M 45.40625 27.984375 
Q 45.40625 37.75 41.375 43.109375 
Q 37.359375 48.484375 30.078125 48.484375 
Q 22.859375 48.484375 18.828125 43.109375 
Q 14.796875 37.75 14.796875 27.984375 
Q 14.796875 18.265625 18.828125 12.890625 
Q 22.859375 7.515625 30.078125 7.515625 
Q 37.359375 7.515625 41.375 12.890625 
Q 45.40625 18.265625 45.40625 27.984375 
z
M 54.390625 6.78125 
Q 54.390625 -7.171875 48.1875 -13.984375 
Q 42 -20.796875 29.203125 -20.796875 
Q 24.46875 -20.796875 20.265625 -20.09375 
Q 16.0625 -19.390625 12.109375 -17.921875 
L 12.109375 -9.1875 
Q 16.0625 -11.328125 19.921875 -12.34375 
Q 23.78125 -13.375 27.78125 -13.375 
Q 36.625 -13.375 41.015625 -8.765625 
Q 45.40625 -4.15625 45.40625 5.171875 
L 45.40625 9.625 
Q 42.625 4.78125 38.28125 2.390625 
Q 33.9375 0 27.875 0 
Q 17.828125 0 11.671875 7.65625 
Q 5.515625 15.328125 5.515625 27.984375 
Q 5.515625 40.671875 11.671875 48.328125 
Q 17.828125 56 27.875 56 
Q 33.9375 56 38.28125 53.609375 
Q 42.625 51.21875 45.40625 46.390625 
L 45.40625 54.6875 
L 54.390625 54.6875 
z
" id="DejaVuSans-103"/>
     <path d="M -0.296875 72.90625 
L 61.375 72.90625 
L 61.375 64.59375 
L 35.5 64.59375 
L 35.5 0 
L 25.59375 0 
L 25.59375 64.59375 
L -0.296875 64.59375 
z
" id="DejaVuSans-84"/>
     <path d="M 52 44.1875 
Q 55.375 50.25 60.0625 53.125 
Q 64.75 56 71.09375 56 
Q 79.640625 56 84.28125 50.015625 
Q 88.921875 44.046875 88.921875 33.015625 
L 88.921875 0 
L 79.890625 0 
L 79.890625 32.71875 
Q 79.890625 40.578125 77.09375 44.375 
Q 74.3125 48.1875 68.609375 48.1875 
Q 61.625 48.1875 57.5625 43.546875 
Q 53.515625 38.921875 53.515625 30.90625 
L 53.515625 0 
L 44.484375 0 
L 44.484375 32.71875 
Q 44.484375 40.625 41.703125 44.40625 
Q 38.921875 48.1875 33.109375 48.1875 
Q 26.21875 48.1875 22.15625 43.53125 
Q 18.109375 38.875 18.109375 30.90625 
L 18.109375 0 
L 9.078125 0 
L 9.078125 54.6875 
L 18.109375 54.6875 
L 18.109375 46.1875 
Q 21.1875 51.21875 25.484375 53.609375 
Q 29.78125 56 35.6875 56 
Q 41.65625 56 45.828125 52.96875 
Q 50 49.953125 52 44.1875 
z
" id="DejaVuSans-109"/>
    </defs>
    <g transform="translate(251.764687 45.84)scale(0.12 -0.12)">
     <use xlink:href="#DejaVuSans-68"/>
     <use x="77.001953" xlink:href="#DejaVuSans-111"/>
     <use x="138.183594" xlink:href="#DejaVuSans-117"/>
     <use x="201.5625" xlink:href="#DejaVuSans-98"/>
     <use x="265.039062" xlink:href="#DejaVuSans-108"/>
     <use x="292.822266" xlink:href="#DejaVuSans-105"/>
     <use x="320.605469" xlink:href="#DejaVuSans-110"/>
     <use x="383.984375" xlink:href="#DejaVuSans-103"/>
     <use x="447.460938" xlink:href="#DejaVuSans-32"/>
     <use x="479.248047" xlink:href="#DejaVuSans-84"/>
     <use x="537.207031" xlink:href="#DejaVuSans-105"/>
     <use x="564.990234" xlink:href="#DejaVuSans-109"/>
     <use x="662.402344" xlink:href="#DejaVuSans-101"/>
    </g>
   </g>
   <g id="legend_1">
    <g id="patch_7">
     <path d="M 79 89.19625 
L 354.582813 89.19625 
Q 356.582813 89.19625 356.582813 87.19625 
L 356.582813 58.84 
Q 356.582813 56.84 354.582813 56.84 
L 79 56.84 
Q 77 56.84 77 58.84 
L 77 87.19625 
Q 77 89.19625 79 89.19625 
z
" style="fill:#ffffff;opacity:0.8;stroke:#cccccc;stroke-linejoin:miter;"/>
    </g>
    <g id="line2d_18">
     <path d="M 81 64.938437 
L 101 64.938437 
" style="fill:none;stroke:#1f77b4;stroke-linecap:square;stroke-width:1.5;"/>
    </g>
    <g id="line2d_19"/>
    <g id="text_19">
     <!-- Doubling Time of Confirmed Cases (over 7 days) -->
     <defs>
      <path d="M 37.109375 75.984375 
L 37.109375 68.5 
L 28.515625 68.5 
Q 23.6875 68.5 21.796875 66.546875 
Q 19.921875 64.59375 19.921875 59.515625 
L 19.921875 54.6875 
L 34.71875 54.6875 
L 34.71875 47.703125 
L 19.921875 47.703125 
L 19.921875 0 
L 10.890625 0 
L 10.890625 47.703125 
L 2.296875 47.703125 
L 2.296875 54.6875 
L 10.890625 54.6875 
L 10.890625 58.5 
Q 10.890625 67.625 15.140625 71.796875 
Q 19.390625 75.984375 28.609375 75.984375 
z
" id="DejaVuSans-102"/>
      <path d="M 64.40625 67.28125 
L 64.40625 56.890625 
Q 59.421875 61.53125 53.78125 63.8125 
Q 48.140625 66.109375 41.796875 66.109375 
Q 29.296875 66.109375 22.65625 58.46875 
Q 16.015625 50.828125 16.015625 36.375 
Q 16.015625 21.96875 22.65625 14.328125 
Q 29.296875 6.6875 41.796875 6.6875 
Q 48.140625 6.6875 53.78125 8.984375 
Q 59.421875 11.28125 64.40625 15.921875 
L 64.40625 5.609375 
Q 59.234375 2.09375 53.4375 0.328125 
Q 47.65625 -1.421875 41.21875 -1.421875 
Q 24.65625 -1.421875 15.125 8.703125 
Q 5.609375 18.84375 5.609375 36.375 
Q 5.609375 53.953125 15.125 64.078125 
Q 24.65625 74.21875 41.21875 74.21875 
Q 47.75 74.21875 53.53125 72.484375 
Q 59.328125 70.75 64.40625 67.28125 
z
" id="DejaVuSans-67"/>
      <path d="M 31 75.875 
Q 24.46875 64.65625 21.28125 53.65625 
Q 18.109375 42.671875 18.109375 31.390625 
Q 18.109375 20.125 21.3125 9.0625 
Q 24.515625 -2 31 -13.1875 
L 23.1875 -13.1875 
Q 15.875 -1.703125 12.234375 9.375 
Q 8.59375 20.453125 8.59375 31.390625 
Q 8.59375 42.28125 12.203125 53.3125 
Q 15.828125 64.359375 23.1875 75.875 
z
" id="DejaVuSans-40"/>
      <path d="M 2.984375 54.6875 
L 12.5 54.6875 
L 29.59375 8.796875 
L 46.6875 54.6875 
L 56.203125 54.6875 
L 35.6875 0 
L 23.484375 0 
z
" id="DejaVuSans-118"/>
      <path d="M 8.015625 75.875 
L 15.828125 75.875 
Q 23.140625 64.359375 26.78125 53.3125 
Q 30.421875 42.28125 30.421875 31.390625 
Q 30.421875 20.453125 26.78125 9.375 
Q 23.140625 -1.703125 15.828125 -13.1875 
L 8.015625 -13.1875 
Q 14.5 -2 17.703125 9.0625 
Q 20.90625 20.125 20.90625 31.390625 
Q 20.90625 42.671875 17.703125 53.65625 
Q 14.5 64.65625 8.015625 75.875 
z
" id="DejaVuSans-41"/>
     </defs>
     <g transform="translate(109 68.438437)scale(0.1 -0.1)">
      <use xlink:href="#DejaVuSans-68"/>
      <use x="77.001953" xlink:href="#DejaVuSans-111"/>
      <use x="138.183594" xlink:href="#DejaVuSans-117"/>
      <use x="201.5625" xlink:href="#DejaVuSans-98"/>
      <use x="265.039062" xlink:href="#DejaVuSans-108"/>
      <use x="292.822266" xlink:href="#DejaVuSans-105"/>
      <use x="320.605469" xlink:href="#DejaVuSans-110"/>
      <use x="383.984375" xlink:href="#DejaVuSans-103"/>
      <use x="447.460938" xlink:href="#DejaVuSans-32"/>
      <use x="479.248047" xlink:href="#DejaVuSans-84"/>
      <use x="537.207031" xlink:href="#DejaVuSans-105"/>
      <use x="564.990234" xlink:href="#DejaVuSans-109"/>
      <use x="662.402344" xlink:href="#DejaVuSans-101"/>
      <use x="723.925781" xlink:href="#DejaVuSans-32"/>
      <use x="755.712891" xlink:href="#DejaVuSans-111"/>
      <use x="816.894531" xlink:href="#DejaVuSans-102"/>
      <use x="852.099609" xlink:href="#DejaVuSans-32"/>
      <use x="883.886719" xlink:href="#DejaVuSans-67"/>
      <use x="953.710938" xlink:href="#DejaVuSans-111"/>
      <use x="1014.892578" xlink:href="#DejaVuSans-110"/>
      <use x="1078.271484" xlink:href="#DejaVuSans-102"/>
      <use x="1113.476562" xlink:href="#DejaVuSans-105"/>
      <use x="1141.259766" xlink:href="#DejaVuSans-114"/>
      <use x="1180.623047" xlink:href="#DejaVuSans-109"/>
      <use x="1278.035156" xlink:href="#DejaVuSans-101"/>
      <use x="1339.558594" xlink:href="#DejaVuSans-100"/>
      <use x="1403.035156" xlink:href="#DejaVuSans-32"/>
      <use x="1434.822266" xlink:href="#DejaVuSans-67"/>
      <use x="1504.646484" xlink:href="#DejaVuSans-97"/>
      <use x="1565.925781" xlink:href="#DejaVuSans-115"/>
      <use x="1618.025391" xlink:href="#DejaVuSans-101"/>
      <use x="1679.548828" xlink:href="#DejaVuSans-115"/>
      <use x="1731.648438" xlink:href="#DejaVuSans-32"/>
      <use x="1763.435547" xlink:href="#DejaVuSans-40"/>
      <use x="1802.449219" xlink:href="#DejaVuSans-111"/>
      <use x="1863.630859" xlink:href="#DejaVuSans-118"/>
      <use x="1922.810547" xlink:href="#DejaVuSans-101"/>
      <use x="1984.333984" xlink:href="#DejaVuSans-114"/>
      <use x="2025.447266" xlink:href="#DejaVuSans-32"/>
      <use x="2057.234375" xlink:href="#DejaVuSans-55"/>
      <use x="2120.857422" xlink:href="#DejaVuSans-32"/>
      <use x="2152.644531" xlink:href="#DejaVuSans-100"/>
      <use x="2216.121094" xlink:href="#DejaVuSans-97"/>
      <use x="2277.400391" xlink:href="#DejaVuSans-121"/>
      <use x="2336.580078" xlink:href="#DejaVuSans-115"/>
      <use x="2388.679688" xlink:href="#DejaVuSans-41"/>
     </g>
    </g>
    <g id="line2d_20">
     <path d="M 81 79.616562 
L 101 79.616562 
" style="fill:none;stroke:#ff7f0e;stroke-linecap:square;stroke-width:1.5;"/>
    </g>
    <g id="line2d_21"/>
    <g id="text_20">
     <!-- Doubling Time of Recovered Cases (over 7 days) -->
     <defs>
      <path d="M 48.78125 52.59375 
L 48.78125 44.1875 
Q 44.96875 46.296875 41.140625 47.34375 
Q 37.3125 48.390625 33.40625 48.390625 
Q 24.65625 48.390625 19.8125 42.84375 
Q 14.984375 37.3125 14.984375 27.296875 
Q 14.984375 17.28125 19.8125 11.734375 
Q 24.65625 6.203125 33.40625 6.203125 
Q 37.3125 6.203125 41.140625 7.25 
Q 44.96875 8.296875 48.78125 10.40625 
L 48.78125 2.09375 
Q 45.015625 0.34375 40.984375 -0.53125 
Q 36.96875 -1.421875 32.421875 -1.421875 
Q 20.0625 -1.421875 12.78125 6.34375 
Q 5.515625 14.109375 5.515625 27.296875 
Q 5.515625 40.671875 12.859375 48.328125 
Q 20.21875 56 33.015625 56 
Q 37.15625 56 41.109375 55.140625 
Q 45.0625 54.296875 48.78125 52.59375 
z
" id="DejaVuSans-99"/>
     </defs>
     <g transform="translate(109 83.116562)scale(0.1 -0.1)">
      <use xlink:href="#DejaVuSans-68"/>
      <use x="77.001953" xlink:href="#DejaVuSans-111"/>
      <use x="138.183594" xlink:href="#DejaVuSans-117"/>
      <use x="201.5625" xlink:href="#DejaVuSans-98"/>
      <use x="265.039062" xlink:href="#DejaVuSans-108"/>
      <use x="292.822266" xlink:href="#DejaVuSans-105"/>
      <use x="320.605469" xlink:href="#DejaVuSans-110"/>
      <use x="383.984375" xlink:href="#DejaVuSans-103"/>
      <use x="447.460938" xlink:href="#DejaVuSans-32"/>
      <use x="479.248047" xlink:href="#DejaVuSans-84"/>
      <use x="537.207031" xlink:href="#DejaVuSans-105"/>
      <use x="564.990234" xlink:href="#DejaVuSans-109"/>
      <use x="662.402344" xlink:href="#DejaVuSans-101"/>
      <use x="723.925781" xlink:href="#DejaVuSans-32"/>
      <use x="755.712891" xlink:href="#DejaVuSans-111"/>
      <use x="816.894531" xlink:href="#DejaVuSans-102"/>
      <use x="852.099609" xlink:href="#DejaVuSans-32"/>
      <use x="883.886719" xlink:href="#DejaVuSans-82"/>
      <use x="948.869141" xlink:href="#DejaVuSans-101"/>
      <use x="1010.392578" xlink:href="#DejaVuSans-99"/>
      <use x="1065.373047" xlink:href="#DejaVuSans-111"/>
      <use x="1126.554688" xlink:href="#DejaVuSans-118"/>
      <use x="1185.734375" xlink:href="#DejaVuSans-101"/>
      <use x="1247.257812" xlink:href="#DejaVuSans-114"/>
      <use x="1286.121094" xlink:href="#DejaVuSans-101"/>
      <use x="1347.644531" xlink:href="#DejaVuSans-100"/>
      <use x="1411.121094" xlink:href="#DejaVuSans-32"/>
      <use x="1442.908203" xlink:href="#DejaVuSans-67"/>
      <use x="1512.732422" xlink:href="#DejaVuSans-97"/>
      <use x="1574.011719" xlink:href="#DejaVuSans-115"/>
      <use x="1626.111328" xlink:href="#DejaVuSans-101"/>
      <use x="1687.634766" xlink:href="#DejaVuSans-115"/>
      <use x="1739.734375" xlink:href="#DejaVuSans-32"/>
      <use x="1771.521484" xlink:href="#DejaVuSans-40"/>
      <use x="1810.535156" xlink:href="#DejaVuSans-111"/>
      <use x="1871.716797" xlink:href="#DejaVuSans-118"/>
      <use x="1930.896484" xlink:href="#DejaVuSans-101"/>
      <use x="1992.419922" xlink:href="#DejaVuSans-114"/>
      <use x="2033.533203" xlink:href="#DejaVuSans-32"/>
      <use x="2065.320312" xlink:href="#DejaVuSans-55"/>
      <use x="2128.943359" xlink:href="#DejaVuSans-32"/>
      <use x="2160.730469" xlink:href="#DejaVuSans-100"/>
      <use x="2224.207031" xlink:href="#DejaVuSans-97"/>
      <use x="2285.486328" xlink:href="#DejaVuSans-121"/>
      <use x="2344.666016" xlink:href="#DejaVuSans-115"/>
      <use x="2396.765625" xlink:href="#DejaVuSans-41"/>
     </g>
    </g>
   </g>
  </g>
 </g>
 <defs>
  <clipPath id="p9aabbffd06">
   <rect height="332.64" width="446.4" x="72" y="51.84"/>
  </clipPath>
 </defs>
</svg>
