<?xml version="1.0" encoding="utf-8" standalone="no"?>
<!DOCTYPE svg PUBLIC "-//W3C//DTD SVG 1.1//EN"
  "http://www.w3.org/Graphics/SVG/1.1/DTD/svg11.dtd">
<!-- Created with matplotlib (https://matplotlib.org/) -->
<svg height="432pt" version="1.1" viewBox="0 0 576 432" width="576pt" xmlns="http://www.w3.org/2000/svg" xmlns:xlink="http://www.w3.org/1999/xlink">
 <defs>
  <style type="text/css">
*{stroke-linecap:butt;stroke-linejoin:round;}
  </style>
 </defs>
 <g id="figure_1">
  <g id="patch_1">
   <path d="M 0 432 
L 576 432 
L 576 0 
L 0 0 
z
" style="fill:#ffffff;"/>
  </g>
  <g id="axes_1">
   <g id="patch_2">
    <path d="M 72 384.48 
L 518.4 384.48 
L 518.4 51.84 
L 72 51.84 
z
" style="fill:#ffffff;"/>
   </g>
   <g id="matplotlib.axis_1">
    <g id="xtick_1">
     <g id="line2d_1">
      <defs>
       <path d="M 0 0 
L 0 3.5 
" id="m5ead18e60c" style="stroke:#000000;stroke-width:0.8;"/>
      </defs>
      <g>
       <use style="stroke:#000000;stroke-width:0.8;" x="81.524304" xlink:href="#m5ead18e60c" y="384.48"/>
      </g>
     </g>
     <g id="text_1">
      <!-- 2020-03 -->
      <defs>
       <path d="M 19.1875 8.296875 
L 53.609375 8.296875 
L 53.609375 0 
L 7.328125 0 
L 7.328125 8.296875 
Q 12.9375 14.109375 22.625 23.890625 
Q 32.328125 33.6875 34.8125 36.53125 
Q 39.546875 41.84375 41.421875 45.53125 
Q 43.3125 49.21875 43.3125 52.78125 
Q 43.3125 58.59375 39.234375 62.25 
Q 35.15625 65.921875 28.609375 65.921875 
Q 23.96875 65.921875 18.8125 64.3125 
Q 13.671875 62.703125 7.8125 59.421875 
L 7.8125 69.390625 
Q 13.765625 71.78125 18.9375 73 
Q 24.125 74.21875 28.421875 74.21875 
Q 39.75 74.21875 46.484375 68.546875 
Q 53.21875 62.890625 53.21875 53.421875 
Q 53.21875 48.921875 51.53125 44.890625 
Q 49.859375 40.875 45.40625 35.40625 
Q 44.1875 33.984375 37.640625 27.21875 
Q 31.109375 20.453125 19.1875 8.296875 
z
" id="DejaVuSans-50"/>
       <path d="M 31.78125 66.40625 
Q 24.171875 66.40625 20.328125 58.90625 
Q 16.5 51.421875 16.5 36.375 
Q 16.5 21.390625 20.328125 13.890625 
Q 24.171875 6.390625 31.78125 6.390625 
Q 39.453125 6.390625 43.28125 13.890625 
Q 47.125 21.390625 47.125 36.375 
Q 47.125 51.421875 43.28125 58.90625 
Q 39.453125 66.40625 31.78125 66.40625 
z
M 31.78125 74.21875 
Q 44.046875 74.21875 50.515625 64.515625 
Q 56.984375 54.828125 56.984375 36.375 
Q 56.984375 17.96875 50.515625 8.265625 
Q 44.046875 -1.421875 31.78125 -1.421875 
Q 19.53125 -1.421875 13.0625 8.265625 
Q 6.59375 17.96875 6.59375 36.375 
Q 6.59375 54.828125 13.0625 64.515625 
Q 19.53125 74.21875 31.78125 74.21875 
z
" id="DejaVuSans-48"/>
       <path d="M 4.890625 31.390625 
L 31.203125 31.390625 
L 31.203125 23.390625 
L 4.890625 23.390625 
z
" id="DejaVuSans-45"/>
       <path d="M 40.578125 39.3125 
Q 47.65625 37.796875 51.625 33 
Q 55.609375 28.21875 55.609375 21.1875 
Q 55.609375 10.40625 48.1875 4.484375 
Q 40.765625 -1.421875 27.09375 -1.421875 
Q 22.515625 -1.421875 17.65625 -0.515625 
Q 12.796875 0.390625 7.625 2.203125 
L 7.625 11.71875 
Q 11.71875 9.328125 16.59375 8.109375 
Q 21.484375 6.890625 26.8125 6.890625 
Q 36.078125 6.890625 40.9375 10.546875 
Q 45.796875 14.203125 45.796875 21.1875 
Q 45.796875 27.640625 41.28125 31.265625 
Q 36.765625 34.90625 28.71875 34.90625 
L 20.21875 34.90625 
L 20.21875 43.015625 
L 29.109375 43.015625 
Q 36.375 43.015625 40.234375 45.921875 
Q 44.09375 48.828125 44.09375 54.296875 
Q 44.09375 59.90625 40.109375 62.90625 
Q 36.140625 65.921875 28.71875 65.921875 
Q 24.65625 65.921875 20.015625 65.03125 
Q 15.375 64.15625 9.8125 62.3125 
L 9.8125 71.09375 
Q 15.4375 72.65625 20.34375 73.4375 
Q 25.25 74.21875 29.59375 74.21875 
Q 40.828125 74.21875 47.359375 69.109375 
Q 53.90625 64.015625 53.90625 55.328125 
Q 53.90625 49.265625 50.4375 45.09375 
Q 46.96875 40.921875 40.578125 39.3125 
z
" id="DejaVuSans-51"/>
      </defs>
      <g transform="translate(60.632898 399.078438)scale(0.1 -0.1)">
       <use xlink:href="#DejaVuSans-50"/>
       <use x="63.623047" xlink:href="#DejaVuSans-48"/>
       <use x="127.246094" xlink:href="#DejaVuSans-50"/>
       <use x="190.869141" xlink:href="#DejaVuSans-48"/>
       <use x="254.492188" xlink:href="#DejaVuSans-45"/>
       <use x="290.576172" xlink:href="#DejaVuSans-48"/>
       <use x="354.199219" xlink:href="#DejaVuSans-51"/>
      </g>
     </g>
    </g>
    <g id="xtick_2">
     <g id="line2d_2">
      <g>
       <use style="stroke:#000000;stroke-width:0.8;" x="132.044527" xlink:href="#m5ead18e60c" y="384.48"/>
      </g>
     </g>
     <g id="text_2">
      <!-- 2020-05 -->
      <defs>
       <path d="M 10.796875 72.90625 
L 49.515625 72.90625 
L 49.515625 64.59375 
L 19.828125 64.59375 
L 19.828125 46.734375 
Q 21.96875 47.46875 24.109375 47.828125 
Q 26.265625 48.1875 28.421875 48.1875 
Q 40.625 48.1875 47.75 41.5 
Q 54.890625 34.8125 54.890625 23.390625 
Q 54.890625 11.625 47.5625 5.09375 
Q 40.234375 -1.421875 26.90625 -1.421875 
Q 22.3125 -1.421875 17.546875 -0.640625 
Q 12.796875 0.140625 7.71875 1.703125 
L 7.71875 11.625 
Q 12.109375 9.234375 16.796875 8.0625 
Q 21.484375 6.890625 26.703125 6.890625 
Q 35.15625 6.890625 40.078125 11.328125 
Q 45.015625 15.765625 45.015625 23.390625 
Q 45.015625 31 40.078125 35.4375 
Q 35.15625 39.890625 26.703125 39.890625 
Q 22.75 39.890625 18.8125 39.015625 
Q 14.890625 38.140625 10.796875 36.28125 
z
" id="DejaVuSans-53"/>
      </defs>
      <g transform="translate(111.153121 399.078438)scale(0.1 -0.1)">
       <use xlink:href="#DejaVuSans-50"/>
       <use x="63.623047" xlink:href="#DejaVuSans-48"/>
       <use x="127.246094" xlink:href="#DejaVuSans-50"/>
       <use x="190.869141" xlink:href="#DejaVuSans-48"/>
       <use x="254.492188" xlink:href="#DejaVuSans-45"/>
       <use x="290.576172" xlink:href="#DejaVuSans-48"/>
       <use x="354.199219" xlink:href="#DejaVuSans-53"/>
      </g>
     </g>
    </g>
    <g id="xtick_3">
     <g id="line2d_3">
      <g>
       <use style="stroke:#000000;stroke-width:0.8;" x="182.56475" xlink:href="#m5ead18e60c" y="384.48"/>
      </g>
     </g>
     <g id="text_3">
      <!-- 2020-07 -->
      <defs>
       <path d="M 8.203125 72.90625 
L 55.078125 72.90625 
L 55.078125 68.703125 
L 28.609375 0 
L 18.3125 0 
L 43.21875 64.59375 
L 8.203125 64.59375 
z
" id="DejaVuSans-55"/>
      </defs>
      <g transform="translate(161.673343 399.078438)scale(0.1 -0.1)">
       <use xlink:href="#DejaVuSans-50"/>
       <use x="63.623047" xlink:href="#DejaVuSans-48"/>
       <use x="127.246094" xlink:href="#DejaVuSans-50"/>
       <use x="190.869141" xlink:href="#DejaVuSans-48"/>
       <use x="254.492188" xlink:href="#DejaVuSans-45"/>
       <use x="290.576172" xlink:href="#DejaVuSans-48"/>
       <use x="354.199219" xlink:href="#DejaVuSans-55"/>
      </g>
     </g>
    </g>
    <g id="xtick_4">
     <g id="line2d_4">
      <g>
       <use style="stroke:#000000;stroke-width:0.8;" x="233.913173" xlink:href="#m5ead18e60c" y="384.48"/>
      </g>
     </g>
     <g id="text_4">
      <!-- 2020-09 -->
      <defs>
       <path d="M 10.984375 1.515625 
L 10.984375 10.5 
Q 14.703125 8.734375 18.5 7.8125 
Q 22.3125 6.890625 25.984375 6.890625 
Q 35.75 6.890625 40.890625 13.453125 
Q 46.046875 20.015625 46.78125 33.40625 
Q 43.953125 29.203125 39.59375 26.953125 
Q 35.25 24.703125 29.984375 24.703125 
Q 19.046875 24.703125 12.671875 31.3125 
Q 6.296875 37.9375 6.296875 49.421875 
Q 6.296875 60.640625 12.9375 67.421875 
Q 19.578125 74.21875 30.609375 74.21875 
Q 43.265625 74.21875 49.921875 64.515625 
Q 56.59375 54.828125 56.59375 36.375 
Q 56.59375 19.140625 48.40625 8.859375 
Q 40.234375 -1.421875 26.421875 -1.421875 
Q 22.703125 -1.421875 18.890625 -0.6875 
Q 15.09375 0.046875 10.984375 1.515625 
z
M 30.609375 32.421875 
Q 37.25 32.421875 41.125 36.953125 
Q 45.015625 41.5 45.015625 49.421875 
Q 45.015625 57.28125 41.125 61.84375 
Q 37.25 66.40625 30.609375 66.40625 
Q 23.96875 66.40625 20.09375 61.84375 
Q 16.21875 57.28125 16.21875 49.421875 
Q 16.21875 41.5 20.09375 36.953125 
Q 23.96875 32.421875 30.609375 32.421875 
z
" id="DejaVuSans-57"/>
      </defs>
      <g transform="translate(213.021766 399.078438)scale(0.1 -0.1)">
       <use xlink:href="#DejaVuSans-50"/>
       <use x="63.623047" xlink:href="#DejaVuSans-48"/>
       <use x="127.246094" xlink:href="#DejaVuSans-50"/>
       <use x="190.869141" xlink:href="#DejaVuSans-48"/>
       <use x="254.492188" xlink:href="#DejaVuSans-45"/>
       <use x="290.576172" xlink:href="#DejaVuSans-48"/>
       <use x="354.199219" xlink:href="#DejaVuSans-57"/>
      </g>
     </g>
    </g>
    <g id="xtick_5">
     <g id="line2d_5">
      <g>
       <use style="stroke:#000000;stroke-width:0.8;" x="284.433395" xlink:href="#m5ead18e60c" y="384.48"/>
      </g>
     </g>
     <g id="text_5">
      <!-- 2020-11 -->
      <defs>
       <path d="M 12.40625 8.296875 
L 28.515625 8.296875 
L 28.515625 63.921875 
L 10.984375 60.40625 
L 10.984375 69.390625 
L 28.421875 72.90625 
L 38.28125 72.90625 
L 38.28125 8.296875 
L 54.390625 8.296875 
L 54.390625 0 
L 12.40625 0 
z
" id="DejaVuSans-49"/>
      </defs>
      <g transform="translate(263.541989 399.078438)scale(0.1 -0.1)">
       <use xlink:href="#DejaVuSans-50"/>
       <use x="63.623047" xlink:href="#DejaVuSans-48"/>
       <use x="127.246094" xlink:href="#DejaVuSans-50"/>
       <use x="190.869141" xlink:href="#DejaVuSans-48"/>
       <use x="254.492188" xlink:href="#DejaVuSans-45"/>
       <use x="290.576172" xlink:href="#DejaVuSans-49"/>
       <use x="354.199219" xlink:href="#DejaVuSans-49"/>
      </g>
     </g>
    </g>
    <g id="xtick_6">
     <g id="line2d_6">
      <g>
       <use style="stroke:#000000;stroke-width:0.8;" x="334.953618" xlink:href="#m5ead18e60c" y="384.48"/>
      </g>
     </g>
     <g id="text_6">
      <!-- 2021-01 -->
      <g transform="translate(314.062212 399.078438)scale(0.1 -0.1)">
       <use xlink:href="#DejaVuSans-50"/>
       <use x="63.623047" xlink:href="#DejaVuSans-48"/>
       <use x="127.246094" xlink:href="#DejaVuSans-50"/>
       <use x="190.869141" xlink:href="#DejaVuSans-49"/>
       <use x="254.492188" xlink:href="#DejaVuSans-45"/>
       <use x="290.576172" xlink:href="#DejaVuSans-48"/>
       <use x="354.199219" xlink:href="#DejaVuSans-49"/>
      </g>
     </g>
    </g>
    <g id="xtick_7">
     <g id="line2d_7">
      <g>
       <use style="stroke:#000000;stroke-width:0.8;" x="383.81744" xlink:href="#m5ead18e60c" y="384.48"/>
      </g>
     </g>
     <g id="text_7">
      <!-- 2021-03 -->
      <g transform="translate(362.926033 399.078438)scale(0.1 -0.1)">
       <use xlink:href="#DejaVuSans-50"/>
       <use x="63.623047" xlink:href="#DejaVuSans-48"/>
       <use x="127.246094" xlink:href="#DejaVuSans-50"/>
       <use x="190.869141" xlink:href="#DejaVuSans-49"/>
       <use x="254.492188" xlink:href="#DejaVuSans-45"/>
       <use x="290.576172" xlink:href="#DejaVuSans-48"/>
       <use x="354.199219" xlink:href="#DejaVuSans-51"/>
      </g>
     </g>
    </g>
    <g id="xtick_8">
     <g id="line2d_8">
      <g>
       <use style="stroke:#000000;stroke-width:0.8;" x="434.337662" xlink:href="#m5ead18e60c" y="384.48"/>
      </g>
     </g>
     <g id="text_8">
      <!-- 2021-05 -->
      <g transform="translate(413.446256 399.078438)scale(0.1 -0.1)">
       <use xlink:href="#DejaVuSans-50"/>
       <use x="63.623047" xlink:href="#DejaVuSans-48"/>
       <use x="127.246094" xlink:href="#DejaVuSans-50"/>
       <use x="190.869141" xlink:href="#DejaVuSans-49"/>
       <use x="254.492188" xlink:href="#DejaVuSans-45"/>
       <use x="290.576172" xlink:href="#DejaVuSans-48"/>
       <use x="354.199219" xlink:href="#DejaVuSans-53"/>
      </g>
     </g>
    </g>
    <g id="xtick_9">
     <g id="line2d_9">
      <g>
       <use style="stroke:#000000;stroke-width:0.8;" x="484.857885" xlink:href="#m5ead18e60c" y="384.48"/>
      </g>
     </g>
     <g id="text_9">
      <!-- 2021-07 -->
      <g transform="translate(463.966479 399.078438)scale(0.1 -0.1)">
       <use xlink:href="#DejaVuSans-50"/>
       <use x="63.623047" xlink:href="#DejaVuSans-48"/>
       <use x="127.246094" xlink:href="#DejaVuSans-50"/>
       <use x="190.869141" xlink:href="#DejaVuSans-49"/>
       <use x="254.492188" xlink:href="#DejaVuSans-45"/>
       <use x="290.576172" xlink:href="#DejaVuSans-48"/>
       <use x="354.199219" xlink:href="#DejaVuSans-55"/>
      </g>
     </g>
    </g>
    <g id="text_10">
     <!-- Reported On -->
     <defs>
      <path d="M 44.390625 34.1875 
Q 47.5625 33.109375 50.5625 29.59375 
Q 53.5625 26.078125 56.59375 19.921875 
L 66.609375 0 
L 56 0 
L 46.6875 18.703125 
Q 43.0625 26.03125 39.671875 28.421875 
Q 36.28125 30.8125 30.421875 30.8125 
L 19.671875 30.8125 
L 19.671875 0 
L 9.8125 0 
L 9.8125 72.90625 
L 32.078125 72.90625 
Q 44.578125 72.90625 50.734375 67.671875 
Q 56.890625 62.453125 56.890625 51.90625 
Q 56.890625 45.015625 53.6875 40.46875 
Q 50.484375 35.9375 44.390625 34.1875 
z
M 19.671875 64.796875 
L 19.671875 38.921875 
L 32.078125 38.921875 
Q 39.203125 38.921875 42.84375 42.21875 
Q 46.484375 45.515625 46.484375 51.90625 
Q 46.484375 58.296875 42.84375 61.546875 
Q 39.203125 64.796875 32.078125 64.796875 
z
" id="DejaVuSans-82"/>
      <path d="M 56.203125 29.59375 
L 56.203125 25.203125 
L 14.890625 25.203125 
Q 15.484375 15.921875 20.484375 11.0625 
Q 25.484375 6.203125 34.421875 6.203125 
Q 39.59375 6.203125 44.453125 7.46875 
Q 49.3125 8.734375 54.109375 11.28125 
L 54.109375 2.78125 
Q 49.265625 0.734375 44.1875 -0.34375 
Q 39.109375 -1.421875 33.890625 -1.421875 
Q 20.796875 -1.421875 13.15625 6.1875 
Q 5.515625 13.8125 5.515625 26.8125 
Q 5.515625 40.234375 12.765625 48.109375 
Q 20.015625 56 32.328125 56 
Q 43.359375 56 49.78125 48.890625 
Q 56.203125 41.796875 56.203125 29.59375 
z
M 47.21875 32.234375 
Q 47.125 39.59375 43.09375 43.984375 
Q 39.0625 48.390625 32.421875 48.390625 
Q 24.90625 48.390625 20.390625 44.140625 
Q 15.875 39.890625 15.1875 32.171875 
z
" id="DejaVuSans-101"/>
      <path d="M 18.109375 8.203125 
L 18.109375 -20.796875 
L 9.078125 -20.796875 
L 9.078125 54.6875 
L 18.109375 54.6875 
L 18.109375 46.390625 
Q 20.953125 51.265625 25.265625 53.625 
Q 29.59375 56 35.59375 56 
Q 45.5625 56 51.78125 48.09375 
Q 58.015625 40.1875 58.015625 27.296875 
Q 58.015625 14.40625 51.78125 6.484375 
Q 45.5625 -1.421875 35.59375 -1.421875 
Q 29.59375 -1.421875 25.265625 0.953125 
Q 20.953125 3.328125 18.109375 8.203125 
z
M 48.6875 27.296875 
Q 48.6875 37.203125 44.609375 42.84375 
Q 40.53125 48.484375 33.40625 48.484375 
Q 26.265625 48.484375 22.1875 42.84375 
Q 18.109375 37.203125 18.109375 27.296875 
Q 18.109375 17.390625 22.1875 11.75 
Q 26.265625 6.109375 33.40625 6.109375 
Q 40.53125 6.109375 44.609375 11.75 
Q 48.6875 17.390625 48.6875 27.296875 
z
" id="DejaVuSans-112"/>
      <path d="M 30.609375 48.390625 
Q 23.390625 48.390625 19.1875 42.75 
Q 14.984375 37.109375 14.984375 27.296875 
Q 14.984375 17.484375 19.15625 11.84375 
Q 23.34375 6.203125 30.609375 6.203125 
Q 37.796875 6.203125 41.984375 11.859375 
Q 46.1875 17.53125 46.1875 27.296875 
Q 46.1875 37.015625 41.984375 42.703125 
Q 37.796875 48.390625 30.609375 48.390625 
z
M 30.609375 56 
Q 42.328125 56 49.015625 48.375 
Q 55.71875 40.765625 55.71875 27.296875 
Q 55.71875 13.875 49.015625 6.21875 
Q 42.328125 -1.421875 30.609375 -1.421875 
Q 18.84375 -1.421875 12.171875 6.21875 
Q 5.515625 13.875 5.515625 27.296875 
Q 5.515625 40.765625 12.171875 48.375 
Q 18.84375 56 30.609375 56 
z
" id="DejaVuSans-111"/>
      <path d="M 41.109375 46.296875 
Q 39.59375 47.171875 37.8125 47.578125 
Q 36.03125 48 33.890625 48 
Q 26.265625 48 22.1875 43.046875 
Q 18.109375 38.09375 18.109375 28.8125 
L 18.109375 0 
L 9.078125 0 
L 9.078125 54.6875 
L 18.109375 54.6875 
L 18.109375 46.1875 
Q 20.953125 51.171875 25.484375 53.578125 
Q 30.03125 56 36.53125 56 
Q 37.453125 56 38.578125 55.875 
Q 39.703125 55.765625 41.0625 55.515625 
z
" id="DejaVuSans-114"/>
      <path d="M 18.3125 70.21875 
L 18.3125 54.6875 
L 36.8125 54.6875 
L 36.8125 47.703125 
L 18.3125 47.703125 
L 18.3125 18.015625 
Q 18.3125 11.328125 20.140625 9.421875 
Q 21.96875 7.515625 27.59375 7.515625 
L 36.8125 7.515625 
L 36.8125 0 
L 27.59375 0 
Q 17.1875 0 13.234375 3.875 
Q 9.28125 7.765625 9.28125 18.015625 
L 9.28125 47.703125 
L 2.6875 47.703125 
L 2.6875 54.6875 
L 9.28125 54.6875 
L 9.28125 70.21875 
z
" id="DejaVuSans-116"/>
      <path d="M 45.40625 46.390625 
L 45.40625 75.984375 
L 54.390625 75.984375 
L 54.390625 0 
L 45.40625 0 
L 45.40625 8.203125 
Q 42.578125 3.328125 38.25 0.953125 
Q 33.9375 -1.421875 27.875 -1.421875 
Q 17.96875 -1.421875 11.734375 6.484375 
Q 5.515625 14.40625 5.515625 27.296875 
Q 5.515625 40.1875 11.734375 48.09375 
Q 17.96875 56 27.875 56 
Q 33.9375 56 38.25 53.625 
Q 42.578125 51.265625 45.40625 46.390625 
z
M 14.796875 27.296875 
Q 14.796875 17.390625 18.875 11.75 
Q 22.953125 6.109375 30.078125 6.109375 
Q 37.203125 6.109375 41.296875 11.75 
Q 45.40625 17.390625 45.40625 27.296875 
Q 45.40625 37.203125 41.296875 42.84375 
Q 37.203125 48.484375 30.078125 48.484375 
Q 22.953125 48.484375 18.875 42.84375 
Q 14.796875 37.203125 14.796875 27.296875 
z
" id="DejaVuSans-100"/>
      <path id="DejaVuSans-32"/>
      <path d="M 39.40625 66.21875 
Q 28.65625 66.21875 22.328125 58.203125 
Q 16.015625 50.203125 16.015625 36.375 
Q 16.015625 22.609375 22.328125 14.59375 
Q 28.65625 6.59375 39.40625 6.59375 
Q 50.140625 6.59375 56.421875 14.59375 
Q 62.703125 22.609375 62.703125 36.375 
Q 62.703125 50.203125 56.421875 58.203125 
Q 50.140625 66.21875 39.40625 66.21875 
z
M 39.40625 74.21875 
Q 54.734375 74.21875 63.90625 63.9375 
Q 73.09375 53.65625 73.09375 36.375 
Q 73.09375 19.140625 63.90625 8.859375 
Q 54.734375 -1.421875 39.40625 -1.421875 
Q 24.03125 -1.421875 14.8125 8.828125 
Q 5.609375 19.09375 5.609375 36.375 
Q 5.609375 53.65625 14.8125 63.9375 
Q 24.03125 74.21875 39.40625 74.21875 
z
" id="DejaVuSans-79"/>
      <path d="M 54.890625 33.015625 
L 54.890625 0 
L 45.90625 0 
L 45.90625 32.71875 
Q 45.90625 40.484375 42.875 44.328125 
Q 39.84375 48.1875 33.796875 48.1875 
Q 26.515625 48.1875 22.3125 43.546875 
Q 18.109375 38.921875 18.109375 30.90625 
L 18.109375 0 
L 9.078125 0 
L 9.078125 54.6875 
L 18.109375 54.6875 
L 18.109375 46.1875 
Q 21.34375 51.125 25.703125 53.5625 
Q 30.078125 56 35.796875 56 
Q 45.21875 56 50.046875 50.171875 
Q 54.890625 44.34375 54.890625 33.015625 
z
" id="DejaVuSans-110"/>
     </defs>
     <g transform="translate(263.680469 412.756563)scale(0.1 -0.1)">
      <use xlink:href="#DejaVuSans-82"/>
      <use x="64.982422" xlink:href="#DejaVuSans-101"/>
      <use x="126.505859" xlink:href="#DejaVuSans-112"/>
      <use x="189.982422" xlink:href="#DejaVuSans-111"/>
      <use x="251.164062" xlink:href="#DejaVuSans-114"/>
      <use x="292.277344" xlink:href="#DejaVuSans-116"/>
      <use x="331.486328" xlink:href="#DejaVuSans-101"/>
      <use x="393.009766" xlink:href="#DejaVuSans-100"/>
      <use x="456.486328" xlink:href="#DejaVuSans-32"/>
      <use x="488.273438" xlink:href="#DejaVuSans-79"/>
      <use x="566.984375" xlink:href="#DejaVuSans-110"/>
     </g>
    </g>
   </g>
   <g id="matplotlib.axis_2">
    <g id="ytick_1">
     <g id="line2d_10">
      <defs>
       <path d="M 0 0 
L -3.5 0 
" id="mfc0a11fd51" style="stroke:#000000;stroke-width:0.8;"/>
      </defs>
      <g>
       <use style="stroke:#000000;stroke-width:0.8;" x="72" xlink:href="#mfc0a11fd51" y="369.36"/>
      </g>
     </g>
     <g id="text_11">
      <!-- 0 -->
      <g transform="translate(58.6375 373.159219)scale(0.1 -0.1)">
       <use xlink:href="#DejaVuSans-48"/>
      </g>
     </g>
    </g>
    <g id="ytick_2">
     <g id="line2d_11">
      <g>
       <use style="stroke:#000000;stroke-width:0.8;" x="72" xlink:href="#mfc0a11fd51" y="307.91844"/>
      </g>
     </g>
     <g id="text_12">
      <!-- 20,000 -->
      <defs>
       <path d="M 11.71875 12.40625 
L 22.015625 12.40625 
L 22.015625 4 
L 14.015625 -11.625 
L 7.71875 -11.625 
L 11.71875 4 
z
" id="DejaVuSans-44"/>
      </defs>
      <g transform="translate(30.009375 311.717658)scale(0.1 -0.1)">
       <use xlink:href="#DejaVuSans-50"/>
       <use x="63.623047" xlink:href="#DejaVuSans-48"/>
       <use x="127.246094" xlink:href="#DejaVuSans-44"/>
       <use x="159.033203" xlink:href="#DejaVuSans-48"/>
       <use x="222.65625" xlink:href="#DejaVuSans-48"/>
       <use x="286.279297" xlink:href="#DejaVuSans-48"/>
      </g>
     </g>
    </g>
    <g id="ytick_3">
     <g id="line2d_12">
      <g>
       <use style="stroke:#000000;stroke-width:0.8;" x="72" xlink:href="#mfc0a11fd51" y="246.476879"/>
      </g>
     </g>
     <g id="text_13">
      <!-- 40,000 -->
      <defs>
       <path d="M 37.796875 64.3125 
L 12.890625 25.390625 
L 37.796875 25.390625 
z
M 35.203125 72.90625 
L 47.609375 72.90625 
L 47.609375 25.390625 
L 58.015625 25.390625 
L 58.015625 17.1875 
L 47.609375 17.1875 
L 47.609375 0 
L 37.796875 0 
L 37.796875 17.1875 
L 4.890625 17.1875 
L 4.890625 26.703125 
z
" id="DejaVuSans-52"/>
      </defs>
      <g transform="translate(30.009375 250.276098)scale(0.1 -0.1)">
       <use xlink:href="#DejaVuSans-52"/>
       <use x="63.623047" xlink:href="#DejaVuSans-48"/>
       <use x="127.246094" xlink:href="#DejaVuSans-44"/>
       <use x="159.033203" xlink:href="#DejaVuSans-48"/>
       <use x="222.65625" xlink:href="#DejaVuSans-48"/>
       <use x="286.279297" xlink:href="#DejaVuSans-48"/>
      </g>
     </g>
    </g>
    <g id="ytick_4">
     <g id="line2d_13">
      <g>
       <use style="stroke:#000000;stroke-width:0.8;" x="72" xlink:href="#mfc0a11fd51" y="185.035319"/>
      </g>
     </g>
     <g id="text_14">
      <!-- 60,000 -->
      <defs>
       <path d="M 33.015625 40.375 
Q 26.375 40.375 22.484375 35.828125 
Q 18.609375 31.296875 18.609375 23.390625 
Q 18.609375 15.53125 22.484375 10.953125 
Q 26.375 6.390625 33.015625 6.390625 
Q 39.65625 6.390625 43.53125 10.953125 
Q 47.40625 15.53125 47.40625 23.390625 
Q 47.40625 31.296875 43.53125 35.828125 
Q 39.65625 40.375 33.015625 40.375 
z
M 52.59375 71.296875 
L 52.59375 62.3125 
Q 48.875 64.0625 45.09375 64.984375 
Q 41.3125 65.921875 37.59375 65.921875 
Q 27.828125 65.921875 22.671875 59.328125 
Q 17.53125 52.734375 16.796875 39.40625 
Q 19.671875 43.65625 24.015625 45.921875 
Q 28.375 48.1875 33.59375 48.1875 
Q 44.578125 48.1875 50.953125 41.515625 
Q 57.328125 34.859375 57.328125 23.390625 
Q 57.328125 12.15625 50.6875 5.359375 
Q 44.046875 -1.421875 33.015625 -1.421875 
Q 20.359375 -1.421875 13.671875 8.265625 
Q 6.984375 17.96875 6.984375 36.375 
Q 6.984375 53.65625 15.1875 63.9375 
Q 23.390625 74.21875 37.203125 74.21875 
Q 40.921875 74.21875 44.703125 73.484375 
Q 48.484375 72.75 52.59375 71.296875 
z
" id="DejaVuSans-54"/>
      </defs>
      <g transform="translate(30.009375 188.834537)scale(0.1 -0.1)">
       <use xlink:href="#DejaVuSans-54"/>
       <use x="63.623047" xlink:href="#DejaVuSans-48"/>
       <use x="127.246094" xlink:href="#DejaVuSans-44"/>
       <use x="159.033203" xlink:href="#DejaVuSans-48"/>
       <use x="222.65625" xlink:href="#DejaVuSans-48"/>
       <use x="286.279297" xlink:href="#DejaVuSans-48"/>
      </g>
     </g>
    </g>
    <g id="ytick_5">
     <g id="line2d_14">
      <g>
       <use style="stroke:#000000;stroke-width:0.8;" x="72" xlink:href="#mfc0a11fd51" y="123.593758"/>
      </g>
     </g>
     <g id="text_15">
      <!-- 80,000 -->
      <defs>
       <path d="M 31.78125 34.625 
Q 24.75 34.625 20.71875 30.859375 
Q 16.703125 27.09375 16.703125 20.515625 
Q 16.703125 13.921875 20.71875 10.15625 
Q 24.75 6.390625 31.78125 6.390625 
Q 38.8125 6.390625 42.859375 10.171875 
Q 46.921875 13.96875 46.921875 20.515625 
Q 46.921875 27.09375 42.890625 30.859375 
Q 38.875 34.625 31.78125 34.625 
z
M 21.921875 38.8125 
Q 15.578125 40.375 12.03125 44.71875 
Q 8.5 49.078125 8.5 55.328125 
Q 8.5 64.0625 14.71875 69.140625 
Q 20.953125 74.21875 31.78125 74.21875 
Q 42.671875 74.21875 48.875 69.140625 
Q 55.078125 64.0625 55.078125 55.328125 
Q 55.078125 49.078125 51.53125 44.71875 
Q 48 40.375 41.703125 38.8125 
Q 48.828125 37.15625 52.796875 32.3125 
Q 56.78125 27.484375 56.78125 20.515625 
Q 56.78125 9.90625 50.3125 4.234375 
Q 43.84375 -1.421875 31.78125 -1.421875 
Q 19.734375 -1.421875 13.25 4.234375 
Q 6.78125 9.90625 6.78125 20.515625 
Q 6.78125 27.484375 10.78125 32.3125 
Q 14.796875 37.15625 21.921875 38.8125 
z
M 18.3125 54.390625 
Q 18.3125 48.734375 21.84375 45.5625 
Q 25.390625 42.390625 31.78125 42.390625 
Q 38.140625 42.390625 41.71875 45.5625 
Q 45.3125 48.734375 45.3125 54.390625 
Q 45.3125 60.0625 41.71875 63.234375 
Q 38.140625 66.40625 31.78125 66.40625 
Q 25.390625 66.40625 21.84375 63.234375 
Q 18.3125 60.0625 18.3125 54.390625 
z
" id="DejaVuSans-56"/>
      </defs>
      <g transform="translate(30.009375 127.392977)scale(0.1 -0.1)">
       <use xlink:href="#DejaVuSans-56"/>
       <use x="63.623047" xlink:href="#DejaVuSans-48"/>
       <use x="127.246094" xlink:href="#DejaVuSans-44"/>
       <use x="159.033203" xlink:href="#DejaVuSans-48"/>
       <use x="222.65625" xlink:href="#DejaVuSans-48"/>
       <use x="286.279297" xlink:href="#DejaVuSans-48"/>
      </g>
     </g>
    </g>
    <g id="ytick_6">
     <g id="line2d_15">
      <g>
       <use style="stroke:#000000;stroke-width:0.8;" x="72" xlink:href="#mfc0a11fd51" y="62.152198"/>
      </g>
     </g>
     <g id="text_16">
      <!-- 100,000 -->
      <g transform="translate(23.646875 65.951417)scale(0.1 -0.1)">
       <use xlink:href="#DejaVuSans-49"/>
       <use x="63.623047" xlink:href="#DejaVuSans-48"/>
       <use x="127.246094" xlink:href="#DejaVuSans-48"/>
       <use x="190.869141" xlink:href="#DejaVuSans-44"/>
       <use x="222.65625" xlink:href="#DejaVuSans-48"/>
       <use x="286.279297" xlink:href="#DejaVuSans-48"/>
       <use x="349.902344" xlink:href="#DejaVuSans-48"/>
      </g>
     </g>
    </g>
    <g id="text_17">
     <!-- Cases -->
     <defs>
      <path d="M 64.40625 67.28125 
L 64.40625 56.890625 
Q 59.421875 61.53125 53.78125 63.8125 
Q 48.140625 66.109375 41.796875 66.109375 
Q 29.296875 66.109375 22.65625 58.46875 
Q 16.015625 50.828125 16.015625 36.375 
Q 16.015625 21.96875 22.65625 14.328125 
Q 29.296875 6.6875 41.796875 6.6875 
Q 48.140625 6.6875 53.78125 8.984375 
Q 59.421875 11.28125 64.40625 15.921875 
L 64.40625 5.609375 
Q 59.234375 2.09375 53.4375 0.328125 
Q 47.65625 -1.421875 41.21875 -1.421875 
Q 24.65625 -1.421875 15.125 8.703125 
Q 5.609375 18.84375 5.609375 36.375 
Q 5.609375 53.953125 15.125 64.078125 
Q 24.65625 74.21875 41.21875 74.21875 
Q 47.75 74.21875 53.53125 72.484375 
Q 59.328125 70.75 64.40625 67.28125 
z
" id="DejaVuSans-67"/>
      <path d="M 34.28125 27.484375 
Q 23.390625 27.484375 19.1875 25 
Q 14.984375 22.515625 14.984375 16.5 
Q 14.984375 11.71875 18.140625 8.90625 
Q 21.296875 6.109375 26.703125 6.109375 
Q 34.1875 6.109375 38.703125 11.40625 
Q 43.21875 16.703125 43.21875 25.484375 
L 43.21875 27.484375 
z
M 52.203125 31.203125 
L 52.203125 0 
L 43.21875 0 
L 43.21875 8.296875 
Q 40.140625 3.328125 35.546875 0.953125 
Q 30.953125 -1.421875 24.3125 -1.421875 
Q 15.921875 -1.421875 10.953125 3.296875 
Q 6 8.015625 6 15.921875 
Q 6 25.140625 12.171875 29.828125 
Q 18.359375 34.515625 30.609375 34.515625 
L 43.21875 34.515625 
L 43.21875 35.40625 
Q 43.21875 41.609375 39.140625 45 
Q 35.0625 48.390625 27.6875 48.390625 
Q 23 48.390625 18.546875 47.265625 
Q 14.109375 46.140625 10.015625 43.890625 
L 10.015625 52.203125 
Q 14.9375 54.109375 19.578125 55.046875 
Q 24.21875 56 28.609375 56 
Q 40.484375 56 46.34375 49.84375 
Q 52.203125 43.703125 52.203125 31.203125 
z
" id="DejaVuSans-97"/>
      <path d="M 44.28125 53.078125 
L 44.28125 44.578125 
Q 40.484375 46.53125 36.375 47.5 
Q 32.28125 48.484375 27.875 48.484375 
Q 21.1875 48.484375 17.84375 46.4375 
Q 14.5 44.390625 14.5 40.28125 
Q 14.5 37.15625 16.890625 35.375 
Q 19.28125 33.59375 26.515625 31.984375 
L 29.59375 31.296875 
Q 39.15625 29.25 43.1875 25.515625 
Q 47.21875 21.78125 47.21875 15.09375 
Q 47.21875 7.46875 41.1875 3.015625 
Q 35.15625 -1.421875 24.609375 -1.421875 
Q 20.21875 -1.421875 15.453125 -0.5625 
Q 10.6875 0.296875 5.421875 2 
L 5.421875 11.28125 
Q 10.40625 8.6875 15.234375 7.390625 
Q 20.0625 6.109375 24.8125 6.109375 
Q 31.15625 6.109375 34.5625 8.28125 
Q 37.984375 10.453125 37.984375 14.40625 
Q 37.984375 18.0625 35.515625 20.015625 
Q 33.0625 21.96875 24.703125 23.78125 
L 21.578125 24.515625 
Q 13.234375 26.265625 9.515625 29.90625 
Q 5.8125 33.546875 5.8125 39.890625 
Q 5.8125 47.609375 11.28125 51.796875 
Q 16.75 56 26.8125 56 
Q 31.78125 56 36.171875 55.265625 
Q 40.578125 54.546875 44.28125 53.078125 
z
" id="DejaVuSans-115"/>
     </defs>
     <g transform="translate(17.567187 233.001406)rotate(-90)scale(0.1 -0.1)">
      <use xlink:href="#DejaVuSans-67"/>
      <use x="69.824219" xlink:href="#DejaVuSans-97"/>
      <use x="131.103516" xlink:href="#DejaVuSans-115"/>
      <use x="183.203125" xlink:href="#DejaVuSans-101"/>
      <use x="244.726562" xlink:href="#DejaVuSans-115"/>
     </g>
    </g>
   </g>
   <g id="line2d_16">
    <path clip-path="url(#p59234d640c)" d="M 498.109091 66.96 
L 497.280891 67.946137 
L 496.45269 67.946137 
L 495.62449 69.131959 
L 494.796289 69.131959 
L 493.968089 69.571266 
L 493.139889 69.571266 
L 492.311688 70.969062 
L 491.483488 71.457522 
L 490.655288 71.457522 
L 488.998887 73.205535 
L 488.170686 73.205535 
L 487.342486 73.466661 
L 486.514286 74.234681 
L 485.686085 74.704709 
L 484.029685 74.704709 
L 483.201484 75.540314 
L 482.373284 76.050279 
L 480.716883 76.71692 
L 477.404082 76.787578 
L 475.747681 77.779859 
L 474.09128 77.779859 
L 473.26308 78.053274 
L 472.434879 78.053274 
L 471.606679 78.437283 
L 470.778479 79.070132 
L 469.122078 79.070132 
L 466.637477 79.451069 
L 465.809276 79.884232 
L 464.152876 79.884232 
L 463.324675 80.007115 
L 462.496475 80.007115 
L 461.668275 80.550873 
L 460.011874 80.550873 
L 459.183673 80.898018 
L 458.355473 80.898018 
L 457.527273 81.275884 
L 456.699072 81.275884 
L 455.870872 81.435632 
L 454.214471 81.472497 
L 453.386271 81.678326 
L 451.72987 81.865723 
L 450.073469 82.255876 
L 449.245269 82.255876 
L 446.760668 82.910229 
L 445.104267 82.910229 
L 444.276067 83.168284 
L 443.447866 83.272734 
L 442.619666 83.622951 
L 441.791466 83.622951 
L 439.306865 84.099123 
L 436.822263 84.455484 
L 434.337662 84.882503 
L 433.509462 85.002314 
L 432.681262 85.002314 
L 431.024861 85.303378 
L 430.19666 85.951586 
L 429.36846 86.218857 
L 428.54026 86.950012 
L 426.883859 86.950012 
L 426.055659 87.395463 
L 425.227458 87.622797 
L 423.571058 87.622797 
L 422.742857 87.764112 
L 421.914657 88.126618 
L 421.086456 88.126618 
L 419.430056 88.541348 
L 418.601855 89.00216 
L 416.945455 89.00216 
L 416.117254 89.466044 
L 415.289054 89.466044 
L 413.632653 89.966792 
L 412.804453 90.108108 
L 411.148052 90.802398 
L 410.319852 90.802398 
L 409.491651 91.081957 
L 408.663451 91.081957 
L 407.83525 91.991292 
L 404.522449 91.991292 
L 403.694249 92.87605 
L 402.866048 93.20169 
L 402.037848 93.20169 
L 401.209647 93.849899 
L 400.381447 93.849899 
L 399.553247 95.097163 
L 398.725046 95.92048 
L 397.896846 97.723789 
L 397.068646 97.723789 
L 396.240445 98.3167 
L 393.755844 100.614615 
L 392.927644 102.897169 
L 390.443043 102.897169 
L 389.614842 103.732774 
L 388.786642 103.732774 
L 387.958442 104.878659 
L 387.130241 107.499142 
L 386.302041 107.499142 
L 385.47384 110.233291 
L 384.64564 111.234788 
L 382.989239 111.234788 
L 382.161039 115.649365 
L 381.332839 115.649365 
L 380.504638 118.454172 
L 378.848237 121.262051 
L 378.020037 121.262051 
L 377.191837 122.816523 
L 376.363636 124.653625 
L 374.707236 127.621253 
L 373.879035 128.905381 
L 373.050835 132.668677 
L 372.222635 134.370608 
L 371.394434 136.385891 
L 370.566234 136.385891 
L 369.738033 140.960215 
L 368.909833 143.387157 
L 368.081633 145.089088 
L 367.253432 145.089088 
L 366.425232 147.162741 
L 365.597032 151.955183 
L 364.768831 154.173223 
L 363.940631 154.173223 
L 361.45603 161.128408 
L 360.627829 163.500052 
L 359.799629 163.500052 
L 358.143228 173.10644 
L 357.315028 173.10644 
L 356.486827 176.584032 
L 355.658627 178.476432 
L 354.830427 178.476432 
L 354.002226 182.596089 
L 352.345826 186.632799 
L 351.517625 186.632799 
L 350.689425 189.855409 
L 349.861224 189.855409 
L 348.204824 192.058089 
L 347.376623 194.309922 
L 344.892022 194.309922 
L 344.063822 196.030286 
L 343.235622 196.617053 
L 342.407421 198.024065 
L 341.579221 198.024065 
L 340.75102 198.979481 
L 339.92282 198.979481 
L 339.09462 199.8796 
L 336.610019 199.8796 
L 334.953618 200.610754 
L 334.125417 201.099215 
L 333.297217 201.099215 
L 332.469017 201.375702 
L 331.640816 201.922532 
L 329.984416 202.589173 
L 329.156215 203.335688 
L 327.499814 203.335688 
L 326.671614 203.609102 
L 325.843414 203.609102 
L 325.015213 204.533798 
L 323.358813 204.533798 
L 322.530612 204.841006 
L 321.702412 205.354043 
L 320.874212 205.710404 
L 320.046011 206.496856 
L 319.217811 206.745694 
L 318.38961 206.745694 
L 317.56141 207.344749 
L 316.73321 207.344749 
L 315.076809 208.075904 
L 314.248609 208.770194 
L 313.420408 208.770194 
L 312.592208 209.317023 
L 311.764007 209.317023 
L 310.935807 210.634945 
L 308.451206 210.634945 
L 307.623006 210.936009 
L 305.966605 211.992803 
L 304.310204 211.992803 
L 303.482004 212.118759 
L 302.653803 212.865274 
L 301.825603 213.071103 
L 300.997403 213.553419 
L 300.169202 213.817618 
L 299.341002 213.817618 
L 298.512801 214.352159 
L 297.684601 214.600998 
L 296.856401 214.600998 
L 296.0282 215.378233 
L 295.2 215.700802 
L 294.3718 215.700802 
L 293.543599 215.888198 
L 292.715399 217.900409 
L 291.887199 217.900409 
L 290.230798 218.514825 
L 289.402597 219.123096 
L 288.574397 219.479458 
L 287.746197 219.479458 
L 286.917996 219.924909 
L 286.089796 221.285839 
L 285.261596 221.285839 
L 283.605195 221.731291 
L 281.948794 221.731291 
L 281.120594 222.591473 
L 279.464193 222.591473 
L 278.635993 222.852599 
L 277.807792 222.852599 
L 275.323191 223.556105 
L 274.494991 223.556105 
L 272.01039 224.259611 
L 271.182189 224.440864 
L 270.353989 224.440864 
L 269.525788 224.585251 
L 268.697588 224.585251 
L 267.869388 224.880171 
L 264.556586 225.135153 
L 263.728386 225.497658 
L 260.415584 225.577532 
L 259.587384 225.912389 
L 257.930983 226.12129 
L 257.102783 226.563669 
L 255.446382 226.855517 
L 254.618182 227.36241 
L 252.961781 227.36241 
L 251.30538 227.853942 
L 250.47718 227.853942 
L 249.64898 228.032123 
L 247.992579 228.78171 
L 244.679777 229.27017 
L 243.851577 229.783207 
L 243.023377 229.783207 
L 240.538776 230.154929 
L 239.710575 231.079624 
L 238.882375 231.518931 
L 238.054174 231.801562 
L 236.397774 231.801562 
L 234.741373 232.16714 
L 233.084972 233.273088 
L 231.428571 233.826062 
L 230.600371 234.345243 
L 228.94397 234.898217 
L 228.11577 235.057965 
L 226.459369 235.709246 
L 225.631169 236.26222 
L 224.802968 236.26222 
L 223.974768 236.461905 
L 223.146568 236.97187 
L 222.318367 237.28215 
L 221.490167 238.326656 
L 220.661967 238.698378 
L 219.005566 240.802751 
L 217.349165 241.647573 
L 215.692764 242.753521 
L 214.864564 243.395585 
L 211.551763 249.318551 
L 210.723562 253.198586 
L 209.895362 253.198586 
L 209.067161 255.650104 
L 208.238961 255.650104 
L 207.410761 260.298158 
L 206.58256 261.401034 
L 205.75436 261.401034 
L 203.269759 268.07666 
L 202.441558 271.511243 
L 201.613358 273.950473 
L 200.785158 278.205301 
L 199.956957 278.205301 
L 199.128757 280.30353 
L 198.300557 282.020822 
L 197.472356 284.364817 
L 196.644156 286.229569 
L 194.987755 289.101962 
L 194.159555 291.237056 
L 193.331354 292.594914 
L 192.503154 292.594914 
L 191.674954 294.038791 
L 190.846753 294.868252 
L 189.190353 297.279833 
L 188.362152 299.249035 
L 186.705751 304.609812 
L 185.877551 307.657313 
L 185.049351 309.798551 
L 184.22115 309.798551 
L 183.39295 313.650937 
L 182.56475 313.650937 
L 180.908349 316.056374 
L 180.080148 317.92727 
L 179.251948 318.882686 
L 178.423748 320.716717 
L 177.595547 321.825737 
L 175.110946 325.877808 
L 174.282746 325.877808 
L 173.454545 327.220306 
L 172.626345 328.799354 
L 171.798145 329.641103 
L 169.313544 332.605659 
L 168.485343 332.605659 
L 167.657143 335.204637 
L 166.828942 336.009521 
L 166.000742 337.539416 
L 165.172542 338.021732 
L 164.344341 338.021732 
L 162.687941 339.751312 
L 161.85974 340.291998 
L 158.546939 343.870969 
L 157.718738 344.56833 
L 156.890538 344.56833 
L 156.062338 345.496098 
L 155.234137 345.963054 
L 154.405937 346.924614 
L 153.577737 346.924614 
L 152.749536 347.496021 
L 151.921336 348.445293 
L 151.093135 348.829303 
L 150.264935 349.03206 
L 149.436735 349.434502 
L 148.608534 350.101143 
L 147.780334 350.101143 
L 146.952134 350.632612 
L 146.123933 351.741633 
L 144.467532 351.741633 
L 141.982931 352.746202 
L 141.154731 353.609456 
L 139.49833 356.263731 
L 138.67013 356.263731 
L 137.841929 357.034823 
L 137.013729 359.864207 
L 136.185529 359.864207 
L 135.357328 361.00702 
L 134.529128 361.00702 
L 133.700928 362.696663 
L 132.872727 362.696663 
L 132.044527 362.98851 
L 131.216327 362.98851 
L 130.388126 364.226558 
L 129.559926 364.226558 
L 128.731725 364.598279 
L 127.903525 364.598279 
L 127.075325 365.430812 
L 126.247124 365.430812 
L 125.418924 365.814822 
L 124.590724 365.814822 
L 123.762523 366.158895 
L 122.106122 366.158895 
L 120.449722 367.390798 
L 117.965121 367.406158 
L 117.13692 367.621204 
L 116.30872 367.621204 
L 115.480519 368.106592 
L 112.167718 368.478314 
L 111.339518 368.702575 
L 107.198516 368.760945 
L 105.542115 368.893044 
L 102.229314 368.954486 
L 99.744712 369.277054 
L 92.290909 369.350784 
L 92.290909 369.350784 
" style="fill:none;stroke:#1f77b4;stroke-linecap:square;stroke-width:1.5;"/>
   </g>
   <g id="line2d_17">
    <path clip-path="url(#p59234d640c)" d="M 498.109091 77.438858 
L 497.280891 78.139292 
L 496.45269 78.139292 
L 495.62449 78.704554 
L 494.796289 78.704554 
L 493.968089 78.93496 
L 493.139889 78.93496 
L 492.311688 79.512511 
L 491.483488 79.721412 
L 490.655288 79.721412 
L 488.998887 80.624603 
L 488.170686 80.624603 
L 487.342486 80.744414 
L 486.514286 81.601524 
L 485.686085 82.292741 
L 484.029685 82.292741 
L 483.201484 82.771986 
L 482.373284 82.830355 
L 480.716883 83.202076 
L 477.404082 83.223581 
L 475.747681 84.022321 
L 474.09128 84.022321 
L 473.26308 84.252727 
L 472.434879 84.252727 
L 470.778479 84.919368 
L 469.122078 84.919368 
L 466.637477 85.229648 
L 465.809276 85.61673 
L 464.152876 85.61673 
L 463.324675 85.77955 
L 462.496475 85.77955 
L 461.668275 86.553714 
L 460.011874 86.553714 
L 459.183673 86.848633 
L 458.355473 86.848633 
L 457.527273 87.180418 
L 456.699072 87.180418 
L 455.870872 87.518346 
L 452.558071 88.016023 
L 450.073469 88.731817 
L 449.245269 88.731817 
L 447.588868 89.026736 
L 446.760668 89.352377 
L 445.104267 89.352377 
L 444.276067 89.825477 
L 443.447866 90.077387 
L 442.619666 90.73174 
L 441.791466 90.73174 
L 440.963265 91.128038 
L 440.135065 91.398381 
L 437.650464 91.453678 
L 435.994063 91.877625 
L 435.165863 92.111103 
L 434.337662 92.111103 
L 433.509462 92.270851 
L 432.681262 92.270851 
L 431.024861 92.556554 
L 430.19666 92.94978 
L 429.36846 93.118744 
L 428.54026 93.705511 
L 426.883859 93.705511 
L 425.227458 94.089521 
L 423.571058 94.089521 
L 422.742857 94.316855 
L 421.914657 94.716225 
L 421.086456 94.716225 
L 418.601855 95.662425 
L 416.945455 95.662425 
L 416.117254 96.034146 
L 415.289054 96.034146 
L 414.460853 96.528751 
L 411.976252 97.219969 
L 411.148052 97.708429 
L 410.319852 97.708429 
L 409.491651 98.817449 
L 408.663451 98.817449 
L 407.83525 101.668337 
L 404.522449 101.668337 
L 403.694249 103.25353 
L 402.866048 104.399415 
L 402.037848 104.399415 
L 401.209647 105.895517 
L 400.381447 105.895517 
L 399.553247 107.551367 
L 398.725046 108.380828 
L 397.896846 111.013599 
L 397.068646 111.013599 
L 396.240445 111.830772 
L 395.412245 112.469764 
L 394.584045 113.858343 
L 393.755844 114.970435 
L 392.927644 119.603129 
L 390.443043 119.603129 
L 389.614842 120.66914 
L 388.786642 120.66914 
L 387.958442 121.692142 
L 387.130241 125.23732 
L 386.302041 125.23732 
L 385.47384 128.376984 
L 384.64564 129.823933 
L 382.989239 129.823933 
L 382.161039 134.12177 
L 381.332839 134.12177 
L 380.504638 139.934141 
L 378.848237 143.976996 
L 378.020037 143.976996 
L 377.191837 145.043007 
L 376.363636 146.58519 
L 375.535436 151.165659 
L 374.707236 153.245455 
L 373.879035 155.005756 
L 373.050835 158.268303 
L 372.222635 160.151487 
L 371.394434 163.263502 
L 370.566234 163.263502 
L 369.738033 165.579849 
L 368.909833 166.249562 
L 368.081633 167.883907 
L 367.253432 167.883907 
L 366.425232 169.217189 
L 365.597032 172.872962 
L 364.768831 174.276902 
L 363.940631 174.276902 
L 363.11243 176.651618 
L 362.28423 177.846656 
L 361.45603 179.373479 
L 360.627829 181.23823 
L 359.799629 181.23823 
L 358.143228 186.408538 
L 357.315028 186.408538 
L 356.486827 189.456039 
L 355.658627 190.718663 
L 354.830427 190.718663 
L 354.002226 193.81839 
L 353.174026 194.389796 
L 352.345826 195.154744 
L 351.517625 195.154744 
L 350.689425 197.633911 
L 349.861224 197.633911 
L 349.033024 197.971839 
L 348.204824 198.577039 
L 347.376623 199.670698 
L 344.892022 199.670698 
L 344.063822 201.154512 
L 343.235622 201.529306 
L 342.407421 202.122217 
L 341.579221 202.122217 
L 340.75102 202.963966 
L 339.92282 202.963966 
L 339.09462 203.688976 
L 336.610019 203.688976 
L 334.125417 204.715051 
L 333.297217 204.715051 
L 329.984416 206.287954 
L 329.156215 207.224938 
L 327.499814 207.224938 
L 326.671614 207.53829 
L 325.843414 207.53829 
L 325.015213 208.595085 
L 323.358813 208.595085 
L 322.530612 208.79477 
L 321.702412 209.464483 
L 320.874212 209.719466 
L 320.046011 210.34617 
L 319.217811 210.607296 
L 318.38961 210.607296 
L 317.56141 211.092685 
L 316.73321 211.092685 
L 315.076809 211.704028 
L 314.248609 212.49048 
L 313.420408 212.49048 
L 312.592208 212.917499 
L 311.764007 212.917499 
L 310.935807 214.075672 
L 308.451206 214.075672 
L 307.623006 214.373664 
L 305.966605 215.365945 
L 304.310204 215.365945 
L 303.482004 215.667009 
L 302.653803 216.988002 
L 301.825603 217.583985 
L 300.997403 217.964923 
L 300.169202 218.511753 
L 299.341002 218.511753 
L 298.512801 219.71908 
L 297.684601 219.977134 
L 296.856401 219.977134 
L 296.0282 220.892613 
L 295.2 221.350353 
L 294.3718 221.350353 
L 293.543599 221.605336 
L 292.715399 222.382571 
L 291.887199 222.382571 
L 291.058998 222.742004 
L 290.230798 222.742004 
L 288.574397 223.37178 
L 287.746197 223.37178 
L 286.917996 223.602186 
L 286.089796 224.173593 
L 285.261596 224.173593 
L 283.605195 224.453152 
L 281.948794 224.453152 
L 281.120594 225.061423 
L 279.464193 225.061423 
L 278.635993 225.319478 
L 277.807792 225.319478 
L 276.151391 225.620541 
L 275.323191 225.734208 
L 274.494991 225.734208 
L 273.66679 226.004551 
L 271.182189 226.425426 
L 270.353989 226.425426 
L 269.525788 226.603606 
L 268.697588 226.603606 
L 267.041187 226.821724 
L 265.384787 226.883166 
L 264.556586 227.248743 
L 263.728386 227.860086 
L 261.243785 227.860086 
L 259.587384 228.213375 
L 258.759184 228.222592 
L 257.930983 228.790926 
L 257.102783 229.116566 
L 255.446382 229.217945 
L 254.618182 229.835433 
L 252.961781 229.835433 
L 252.133581 230.197938 
L 251.30538 230.323893 
L 250.47718 230.323893 
L 247.992579 231.199435 
L 246.336178 231.740121 
L 245.507978 231.740121 
L 244.679777 232.102626 
L 243.851577 233.137916 
L 243.023377 233.137916 
L 241.366976 233.611016 
L 240.538776 233.611016 
L 239.710575 234.501919 
L 238.054174 235.131695 
L 236.397774 235.131695 
L 234.741373 235.792192 
L 233.913173 236.888924 
L 232.256772 237.945718 
L 230.600371 239.128469 
L 229.772171 239.576992 
L 227.28757 241.269707 
L 225.631169 242.151393 
L 224.802968 242.151393 
L 223.974768 242.556908 
L 223.146568 243.518468 
L 222.318367 244.031505 
L 219.833766 246.025284 
L 219.005566 247.343205 
L 218.177365 248.028279 
L 217.349165 248.565892 
L 216.520965 249.379993 
L 215.692764 250.387634 
L 214.864564 251.607249 
L 214.036364 253.536514 
L 213.208163 256.805205 
L 212.379963 257.585513 
L 211.551763 260.107689 
L 210.723562 263.947787 
L 209.895362 263.947787 
L 209.067161 266.860117 
L 208.238961 266.860117 
L 207.410761 270.758584 
L 206.58256 273.246967 
L 205.75436 273.246967 
L 204.92616 275.289899 
L 204.097959 277.809003 
L 203.269759 278.752131 
L 202.441558 281.996245 
L 201.613358 283.953159 
L 200.785158 289.209484 
L 199.956957 289.209484 
L 199.128757 291.541192 
L 198.300557 292.862185 
L 197.472356 297.937258 
L 196.644156 298.567034 
L 195.815955 298.963332 
L 194.987755 300.944822 
L 194.159555 303.27653 
L 193.331354 304.640532 
L 192.503154 304.640532 
L 191.674954 307.343961 
L 190.846753 308.437621 
L 189.190353 312.151763 
L 188.362152 315.402022 
L 187.533952 316.655429 
L 185.877551 323.6782 
L 185.049351 325.337122 
L 184.22115 325.337122 
L 183.39295 327.733343 
L 182.56475 327.733343 
L 180.080148 330.283168 
L 178.423748 333.247723 
L 176.767347 335.32752 
L 175.939147 335.852845 
L 175.110946 337.186127 
L 174.282746 337.186127 
L 173.454545 338.411886 
L 172.626345 355.388189 
L 169.313544 356.279092 
L 168.485343 356.279092 
L 167.657143 357.136202 
L 166.828942 357.314382 
L 165.172542 357.824347 
L 164.344341 357.824347 
L 163.516141 358.162276 
L 162.687941 358.189924 
L 161.03154 358.739826 
L 160.20334 359.563143 
L 159.375139 359.738252 
L 158.546939 360.186775 
L 157.718738 360.306586 
L 156.890538 360.306586 
L 156.062338 361.556922 
L 155.234137 361.922499 
L 153.577737 361.950148 
L 152.749536 362.241995 
L 151.921336 363.000798 
L 151.093135 363.221988 
L 149.436735 363.366376 
L 148.608534 363.529196 
L 147.780334 363.529196 
L 146.952134 363.913206 
L 145.295733 363.971575 
L 144.467532 363.971575 
L 143.639332 364.874766 
L 142.811132 367.289419 
L 141.982931 367.780952 
L 140.326531 367.842393 
L 139.49833 368.198755 
L 138.67013 368.198755 
L 137.013729 368.42916 
L 134.529128 368.456809 
L 133.700928 368.656494 
L 131.216327 368.708719 
L 128.731725 368.883828 
L 126.247124 368.948342 
L 124.590724 369.055864 
L 119.621521 369.105018 
L 118.793321 369.307775 
L 92.290909 369.36 
L 92.290909 369.36 
" style="fill:none;stroke:#ff7f0e;stroke-linecap:square;stroke-width:1.5;"/>
   </g>
   <g id="patch_3">
    <path d="M 72 384.48 
L 72 51.84 
" style="fill:none;stroke:#000000;stroke-linecap:square;stroke-linejoin:miter;stroke-width:0.8;"/>
   </g>
   <g id="patch_4">
    <path d="M 518.4 384.48 
L 518.4 51.84 
" style="fill:none;stroke:#000000;stroke-linecap:square;stroke-linejoin:miter;stroke-width:0.8;"/>
   </g>
   <g id="patch_5">
    <path d="M 72 384.48 
L 518.4 384.48 
" style="fill:none;stroke:#000000;stroke-linecap:square;stroke-linejoin:miter;stroke-width:0.8;"/>
   </g>
   <g id="patch_6">
    <path d="M 72 51.84 
L 518.4 51.84 
" style="fill:none;stroke:#000000;stroke-linecap:square;stroke-linejoin:miter;stroke-width:0.8;"/>
   </g>
   <g id="text_18">
    <!-- Absolute Growth -->
    <defs>
     <path d="M 34.1875 63.1875 
L 20.796875 26.90625 
L 47.609375 26.90625 
z
M 28.609375 72.90625 
L 39.796875 72.90625 
L 67.578125 0 
L 57.328125 0 
L 50.6875 18.703125 
L 17.828125 18.703125 
L 11.1875 0 
L 0.78125 0 
z
" id="DejaVuSans-65"/>
     <path d="M 48.6875 27.296875 
Q 48.6875 37.203125 44.609375 42.84375 
Q 40.53125 48.484375 33.40625 48.484375 
Q 26.265625 48.484375 22.1875 42.84375 
Q 18.109375 37.203125 18.109375 27.296875 
Q 18.109375 17.390625 22.1875 11.75 
Q 26.265625 6.109375 33.40625 6.109375 
Q 40.53125 6.109375 44.609375 11.75 
Q 48.6875 17.390625 48.6875 27.296875 
z
M 18.109375 46.390625 
Q 20.953125 51.265625 25.265625 53.625 
Q 29.59375 56 35.59375 56 
Q 45.5625 56 51.78125 48.09375 
Q 58.015625 40.1875 58.015625 27.296875 
Q 58.015625 14.40625 51.78125 6.484375 
Q 45.5625 -1.421875 35.59375 -1.421875 
Q 29.59375 -1.421875 25.265625 0.953125 
Q 20.953125 3.328125 18.109375 8.203125 
L 18.109375 0 
L 9.078125 0 
L 9.078125 75.984375 
L 18.109375 75.984375 
z
" id="DejaVuSans-98"/>
     <path d="M 9.421875 75.984375 
L 18.40625 75.984375 
L 18.40625 0 
L 9.421875 0 
z
" id="DejaVuSans-108"/>
     <path d="M 8.5 21.578125 
L 8.5 54.6875 
L 17.484375 54.6875 
L 17.484375 21.921875 
Q 17.484375 14.15625 20.5 10.265625 
Q 23.53125 6.390625 29.59375 6.390625 
Q 36.859375 6.390625 41.078125 11.03125 
Q 45.3125 15.671875 45.3125 23.6875 
L 45.3125 54.6875 
L 54.296875 54.6875 
L 54.296875 0 
L 45.3125 0 
L 45.3125 8.40625 
Q 42.046875 3.421875 37.71875 1 
Q 33.40625 -1.421875 27.6875 -1.421875 
Q 18.265625 -1.421875 13.375 4.4375 
Q 8.5 10.296875 8.5 21.578125 
z
M 31.109375 56 
z
" id="DejaVuSans-117"/>
     <path d="M 59.515625 10.40625 
L 59.515625 29.984375 
L 43.40625 29.984375 
L 43.40625 38.09375 
L 69.28125 38.09375 
L 69.28125 6.78125 
Q 63.578125 2.734375 56.6875 0.65625 
Q 49.8125 -1.421875 42 -1.421875 
Q 24.90625 -1.421875 15.25 8.5625 
Q 5.609375 18.5625 5.609375 36.375 
Q 5.609375 54.25 15.25 64.234375 
Q 24.90625 74.21875 42 74.21875 
Q 49.125 74.21875 55.546875 72.453125 
Q 61.96875 70.703125 67.390625 67.28125 
L 67.390625 56.78125 
Q 61.921875 61.421875 55.765625 63.765625 
Q 49.609375 66.109375 42.828125 66.109375 
Q 29.4375 66.109375 22.71875 58.640625 
Q 16.015625 51.171875 16.015625 36.375 
Q 16.015625 21.625 22.71875 14.15625 
Q 29.4375 6.6875 42.828125 6.6875 
Q 48.046875 6.6875 52.140625 7.59375 
Q 56.25 8.5 59.515625 10.40625 
z
" id="DejaVuSans-71"/>
     <path d="M 4.203125 54.6875 
L 13.1875 54.6875 
L 24.421875 12.015625 
L 35.59375 54.6875 
L 46.1875 54.6875 
L 57.421875 12.015625 
L 68.609375 54.6875 
L 77.59375 54.6875 
L 63.28125 0 
L 52.6875 0 
L 40.921875 44.828125 
L 29.109375 0 
L 18.5 0 
z
" id="DejaVuSans-119"/>
     <path d="M 54.890625 33.015625 
L 54.890625 0 
L 45.90625 0 
L 45.90625 32.71875 
Q 45.90625 40.484375 42.875 44.328125 
Q 39.84375 48.1875 33.796875 48.1875 
Q 26.515625 48.1875 22.3125 43.546875 
Q 18.109375 38.921875 18.109375 30.90625 
L 18.109375 0 
L 9.078125 0 
L 9.078125 75.984375 
L 18.109375 75.984375 
L 18.109375 46.1875 
Q 21.34375 51.125 25.703125 53.5625 
Q 30.078125 56 35.796875 56 
Q 45.21875 56 50.046875 50.171875 
Q 54.890625 44.34375 54.890625 33.015625 
z
" id="DejaVuSans-104"/>
    </defs>
    <g transform="translate(245.355937 45.84)scale(0.12 -0.12)">
     <use xlink:href="#DejaVuSans-65"/>
     <use x="68.408203" xlink:href="#DejaVuSans-98"/>
     <use x="131.884766" xlink:href="#DejaVuSans-115"/>
     <use x="183.984375" xlink:href="#DejaVuSans-111"/>
     <use x="245.166016" xlink:href="#DejaVuSans-108"/>
     <use x="272.949219" xlink:href="#DejaVuSans-117"/>
     <use x="336.328125" xlink:href="#DejaVuSans-116"/>
     <use x="375.537109" xlink:href="#DejaVuSans-101"/>
     <use x="437.060547" xlink:href="#DejaVuSans-32"/>
     <use x="468.847656" xlink:href="#DejaVuSans-71"/>
     <use x="546.337891" xlink:href="#DejaVuSans-114"/>
     <use x="585.201172" xlink:href="#DejaVuSans-111"/>
     <use x="646.382812" xlink:href="#DejaVuSans-119"/>
     <use x="728.169922" xlink:href="#DejaVuSans-116"/>
     <use x="767.378906" xlink:href="#DejaVuSans-104"/>
    </g>
   </g>
   <g id="legend_1">
    <g id="patch_7">
     <path d="M 79 89.19625 
L 163.728125 89.19625 
Q 165.728125 89.19625 165.728125 87.19625 
L 165.728125 58.84 
Q 165.728125 56.84 163.728125 56.84 
L 79 56.84 
Q 77 56.84 77 58.84 
L 77 87.19625 
Q 77 89.19625 79 89.19625 
z
" style="fill:#ffffff;opacity:0.8;stroke:#cccccc;stroke-linejoin:miter;"/>
    </g>
    <g id="line2d_18">
     <path d="M 81 64.938437 
L 101 64.938437 
" style="fill:none;stroke:#1f77b4;stroke-linecap:square;stroke-width:1.5;"/>
    </g>
    <g id="line2d_19"/>
    <g id="text_19">
     <!-- Confirmed -->
     <defs>
      <path d="M 37.109375 75.984375 
L 37.109375 68.5 
L 28.515625 68.5 
Q 23.6875 68.5 21.796875 66.546875 
Q 19.921875 64.59375 19.921875 59.515625 
L 19.921875 54.6875 
L 34.71875 54.6875 
L 34.71875 47.703125 
L 19.921875 47.703125 
L 19.921875 0 
L 10.890625 0 
L 10.890625 47.703125 
L 2.296875 47.703125 
L 2.296875 54.6875 
L 10.890625 54.6875 
L 10.890625 58.5 
Q 10.890625 67.625 15.140625 71.796875 
Q 19.390625 75.984375 28.609375 75.984375 
z
" id="DejaVuSans-102"/>
      <path d="M 9.421875 54.6875 
L 18.40625 54.6875 
L 18.40625 0 
L 9.421875 0 
z
M 9.421875 75.984375 
L 18.40625 75.984375 
L 18.40625 64.59375 
L 9.421875 64.59375 
z
" id="DejaVuSans-105"/>
      <path d="M 52 44.1875 
Q 55.375 50.25 60.0625 53.125 
Q 64.75 56 71.09375 56 
Q 79.640625 56 84.28125 50.015625 
Q 88.921875 44.046875 88.921875 33.015625 
L 88.921875 0 
L 79.890625 0 
L 79.890625 32.71875 
Q 79.890625 40.578125 77.09375 44.375 
Q 74.3125 48.1875 68.609375 48.1875 
Q 61.625 48.1875 57.5625 43.546875 
Q 53.515625 38.921875 53.515625 30.90625 
L 53.515625 0 
L 44.484375 0 
L 44.484375 32.71875 
Q 44.484375 40.625 41.703125 44.40625 
Q 38.921875 48.1875 33.109375 48.1875 
Q 26.21875 48.1875 22.15625 43.53125 
Q 18.109375 38.875 18.109375 30.90625 
L 18.109375 0 
L 9.078125 0 
L 9.078125 54.6875 
L 18.109375 54.6875 
L 18.109375 46.1875 
Q 21.1875 51.21875 25.484375 53.609375 
Q 29.78125 56 35.6875 56 
Q 41.65625 56 45.828125 52.96875 
Q 50 49.953125 52 44.1875 
z
" id="DejaVuSans-109"/>
     </defs>
     <g transform="translate(109 68.438437)scale(0.1 -0.1)">
      <use xlink:href="#DejaVuSans-67"/>
      <use x="69.824219" xlink:href="#DejaVuSans-111"/>
      <use x="131.005859" xlink:href="#DejaVuSans-110"/>
      <use x="194.384766" xlink:href="#DejaVuSans-102"/>
      <use x="229.589844" xlink:href="#DejaVuSans-105"/>
      <use x="257.373047" xlink:href="#DejaVuSans-114"/>
      <use x="296.736328" xlink:href="#DejaVuSans-109"/>
      <use x="394.148438" xlink:href="#DejaVuSans-101"/>
      <use x="455.671875" xlink:href="#DejaVuSans-100"/>
     </g>
    </g>
    <g id="line2d_20">
     <path d="M 81 79.616562 
L 101 79.616562 
" style="fill:none;stroke:#ff7f0e;stroke-linecap:square;stroke-width:1.5;"/>
    </g>
    <g id="line2d_21"/>
    <g id="text_20">
     <!-- Recovered -->
     <defs>
      <path d="M 48.78125 52.59375 
L 48.78125 44.1875 
Q 44.96875 46.296875 41.140625 47.34375 
Q 37.3125 48.390625 33.40625 48.390625 
Q 24.65625 48.390625 19.8125 42.84375 
Q 14.984375 37.3125 14.984375 27.296875 
Q 14.984375 17.28125 19.8125 11.734375 
Q 24.65625 6.203125 33.40625 6.203125 
Q 37.3125 6.203125 41.140625 7.25 
Q 44.96875 8.296875 48.78125 10.40625 
L 48.78125 2.09375 
Q 45.015625 0.34375 40.984375 -0.53125 
Q 36.96875 -1.421875 32.421875 -1.421875 
Q 20.0625 -1.421875 12.78125 6.34375 
Q 5.515625 14.109375 5.515625 27.296875 
Q 5.515625 40.671875 12.859375 48.328125 
Q 20.21875 56 33.015625 56 
Q 37.15625 56 41.109375 55.140625 
Q 45.0625 54.296875 48.78125 52.59375 
z
" id="DejaVuSans-99"/>
      <path d="M 2.984375 54.6875 
L 12.5 54.6875 
L 29.59375 8.796875 
L 46.6875 54.6875 
L 56.203125 54.6875 
L 35.6875 0 
L 23.484375 0 
z
" id="DejaVuSans-118"/>
     </defs>
     <g transform="translate(109 83.116562)scale(0.1 -0.1)">
      <use xlink:href="#DejaVuSans-82"/>
      <use x="64.982422" xlink:href="#DejaVuSans-101"/>
      <use x="126.505859" xlink:href="#DejaVuSans-99"/>
      <use x="181.486328" xlink:href="#DejaVuSans-111"/>
      <use x="242.667969" xlink:href="#DejaVuSans-118"/>
      <use x="301.847656" xlink:href="#DejaVuSans-101"/>
      <use x="363.371094" xlink:href="#DejaVuSans-114"/>
      <use x="402.234375" xlink:href="#DejaVuSans-101"/>
      <use x="463.757812" xlink:href="#DejaVuSans-100"/>
     </g>
    </g>
   </g>
  </g>
 </g>
 <defs>
  <clipPath id="p59234d640c">
   <rect height="332.64" width="446.4" x="72" y="51.84"/>
  </clipPath>
 </defs>
</svg>
