<?xml version="1.0" encoding="utf-8" standalone="no"?>
<!DOCTYPE svg PUBLIC "-//W3C//DTD SVG 1.1//EN"
  "http://www.w3.org/Graphics/SVG/1.1/DTD/svg11.dtd">
<!-- Created with matplotlib (https://matplotlib.org/) -->
<svg height="432pt" version="1.1" viewBox="0 0 576 432" width="576pt" xmlns="http://www.w3.org/2000/svg" xmlns:xlink="http://www.w3.org/1999/xlink">
 <defs>
  <style type="text/css">
*{stroke-linecap:butt;stroke-linejoin:round;}
  </style>
 </defs>
 <g id="figure_1">
  <g id="patch_1">
   <path d="M 0 432 
L 576 432 
L 576 0 
L 0 0 
z
" style="fill:#ffffff;"/>
  </g>
  <g id="axes_1">
   <g id="patch_2">
    <path d="M 72 384.48 
L 518.4 384.48 
L 518.4 51.84 
L 72 51.84 
z
" style="fill:#ffffff;"/>
   </g>
   <g id="matplotlib.axis_1">
    <g id="xtick_1">
     <g id="line2d_1">
      <defs>
       <path d="M 0 0 
L 0 3.5 
" id="m8e0ac14efe" style="stroke:#000000;stroke-width:0.8;"/>
      </defs>
      <g>
       <use style="stroke:#000000;stroke-width:0.8;" x="74.133496" xlink:href="#m8e0ac14efe" y="384.48"/>
      </g>
     </g>
     <g id="text_1">
      <!-- 2020-03 -->
      <defs>
       <path d="M 19.1875 8.296875 
L 53.609375 8.296875 
L 53.609375 0 
L 7.328125 0 
L 7.328125 8.296875 
Q 12.9375 14.109375 22.625 23.890625 
Q 32.328125 33.6875 34.8125 36.53125 
Q 39.546875 41.84375 41.421875 45.53125 
Q 43.3125 49.21875 43.3125 52.78125 
Q 43.3125 58.59375 39.234375 62.25 
Q 35.15625 65.921875 28.609375 65.921875 
Q 23.96875 65.921875 18.8125 64.3125 
Q 13.671875 62.703125 7.8125 59.421875 
L 7.8125 69.390625 
Q 13.765625 71.78125 18.9375 73 
Q 24.125 74.21875 28.421875 74.21875 
Q 39.75 74.21875 46.484375 68.546875 
Q 53.21875 62.890625 53.21875 53.421875 
Q 53.21875 48.921875 51.53125 44.890625 
Q 49.859375 40.875 45.40625 35.40625 
Q 44.1875 33.984375 37.640625 27.21875 
Q 31.109375 20.453125 19.1875 8.296875 
z
" id="DejaVuSans-50"/>
       <path d="M 31.78125 66.40625 
Q 24.171875 66.40625 20.328125 58.90625 
Q 16.5 51.421875 16.5 36.375 
Q 16.5 21.390625 20.328125 13.890625 
Q 24.171875 6.390625 31.78125 6.390625 
Q 39.453125 6.390625 43.28125 13.890625 
Q 47.125 21.390625 47.125 36.375 
Q 47.125 51.421875 43.28125 58.90625 
Q 39.453125 66.40625 31.78125 66.40625 
z
M 31.78125 74.21875 
Q 44.046875 74.21875 50.515625 64.515625 
Q 56.984375 54.828125 56.984375 36.375 
Q 56.984375 17.96875 50.515625 8.265625 
Q 44.046875 -1.421875 31.78125 -1.421875 
Q 19.53125 -1.421875 13.0625 8.265625 
Q 6.59375 17.96875 6.59375 36.375 
Q 6.59375 54.828125 13.0625 64.515625 
Q 19.53125 74.21875 31.78125 74.21875 
z
" id="DejaVuSans-48"/>
       <path d="M 4.890625 31.390625 
L 31.203125 31.390625 
L 31.203125 23.390625 
L 4.890625 23.390625 
z
" id="DejaVuSans-45"/>
       <path d="M 40.578125 39.3125 
Q 47.65625 37.796875 51.625 33 
Q 55.609375 28.21875 55.609375 21.1875 
Q 55.609375 10.40625 48.1875 4.484375 
Q 40.765625 -1.421875 27.09375 -1.421875 
Q 22.515625 -1.421875 17.65625 -0.515625 
Q 12.796875 0.390625 7.625 2.203125 
L 7.625 11.71875 
Q 11.71875 9.328125 16.59375 8.109375 
Q 21.484375 6.890625 26.8125 6.890625 
Q 36.078125 6.890625 40.9375 10.546875 
Q 45.796875 14.203125 45.796875 21.1875 
Q 45.796875 27.640625 41.28125 31.265625 
Q 36.765625 34.90625 28.71875 34.90625 
L 20.21875 34.90625 
L 20.21875 43.015625 
L 29.109375 43.015625 
Q 36.375 43.015625 40.234375 45.921875 
Q 44.09375 48.828125 44.09375 54.296875 
Q 44.09375 59.90625 40.109375 62.90625 
Q 36.140625 65.921875 28.71875 65.921875 
Q 24.65625 65.921875 20.015625 65.03125 
Q 15.375 64.15625 9.8125 62.3125 
L 9.8125 71.09375 
Q 15.4375 72.65625 20.34375 73.4375 
Q 25.25 74.21875 29.59375 74.21875 
Q 40.828125 74.21875 47.359375 69.109375 
Q 53.90625 64.015625 53.90625 55.328125 
Q 53.90625 49.265625 50.4375 45.09375 
Q 46.96875 40.921875 40.578125 39.3125 
z
" id="DejaVuSans-51"/>
      </defs>
      <g transform="translate(53.24209 399.078438)scale(0.1 -0.1)">
       <use xlink:href="#DejaVuSans-50"/>
       <use x="63.623047" xlink:href="#DejaVuSans-48"/>
       <use x="127.246094" xlink:href="#DejaVuSans-50"/>
       <use x="190.869141" xlink:href="#DejaVuSans-48"/>
       <use x="254.492188" xlink:href="#DejaVuSans-45"/>
       <use x="290.576172" xlink:href="#DejaVuSans-48"/>
       <use x="354.199219" xlink:href="#DejaVuSans-51"/>
      </g>
     </g>
    </g>
    <g id="xtick_2">
     <g id="line2d_2">
      <g>
       <use style="stroke:#000000;stroke-width:0.8;" x="129.513606" xlink:href="#m8e0ac14efe" y="384.48"/>
      </g>
     </g>
     <g id="text_2">
      <!-- 2020-05 -->
      <defs>
       <path d="M 10.796875 72.90625 
L 49.515625 72.90625 
L 49.515625 64.59375 
L 19.828125 64.59375 
L 19.828125 46.734375 
Q 21.96875 47.46875 24.109375 47.828125 
Q 26.265625 48.1875 28.421875 48.1875 
Q 40.625 48.1875 47.75 41.5 
Q 54.890625 34.8125 54.890625 23.390625 
Q 54.890625 11.625 47.5625 5.09375 
Q 40.234375 -1.421875 26.90625 -1.421875 
Q 22.3125 -1.421875 17.546875 -0.640625 
Q 12.796875 0.140625 7.71875 1.703125 
L 7.71875 11.625 
Q 12.109375 9.234375 16.796875 8.0625 
Q 21.484375 6.890625 26.703125 6.890625 
Q 35.15625 6.890625 40.078125 11.328125 
Q 45.015625 15.765625 45.015625 23.390625 
Q 45.015625 31 40.078125 35.4375 
Q 35.15625 39.890625 26.703125 39.890625 
Q 22.75 39.890625 18.8125 39.015625 
Q 14.890625 38.140625 10.796875 36.28125 
z
" id="DejaVuSans-53"/>
      </defs>
      <g transform="translate(108.6222 399.078438)scale(0.1 -0.1)">
       <use xlink:href="#DejaVuSans-50"/>
       <use x="63.623047" xlink:href="#DejaVuSans-48"/>
       <use x="127.246094" xlink:href="#DejaVuSans-50"/>
       <use x="190.869141" xlink:href="#DejaVuSans-48"/>
       <use x="254.492188" xlink:href="#DejaVuSans-45"/>
       <use x="290.576172" xlink:href="#DejaVuSans-48"/>
       <use x="354.199219" xlink:href="#DejaVuSans-53"/>
      </g>
     </g>
    </g>
    <g id="xtick_3">
     <g id="line2d_3">
      <g>
       <use style="stroke:#000000;stroke-width:0.8;" x="184.893716" xlink:href="#m8e0ac14efe" y="384.48"/>
      </g>
     </g>
     <g id="text_3">
      <!-- 2020-07 -->
      <defs>
       <path d="M 8.203125 72.90625 
L 55.078125 72.90625 
L 55.078125 68.703125 
L 28.609375 0 
L 18.3125 0 
L 43.21875 64.59375 
L 8.203125 64.59375 
z
" id="DejaVuSans-55"/>
      </defs>
      <g transform="translate(164.002309 399.078438)scale(0.1 -0.1)">
       <use xlink:href="#DejaVuSans-50"/>
       <use x="63.623047" xlink:href="#DejaVuSans-48"/>
       <use x="127.246094" xlink:href="#DejaVuSans-50"/>
       <use x="190.869141" xlink:href="#DejaVuSans-48"/>
       <use x="254.492188" xlink:href="#DejaVuSans-45"/>
       <use x="290.576172" xlink:href="#DejaVuSans-48"/>
       <use x="354.199219" xlink:href="#DejaVuSans-55"/>
      </g>
     </g>
    </g>
    <g id="xtick_4">
     <g id="line2d_4">
      <g>
       <use style="stroke:#000000;stroke-width:0.8;" x="241.181696" xlink:href="#m8e0ac14efe" y="384.48"/>
      </g>
     </g>
     <g id="text_4">
      <!-- 2020-09 -->
      <defs>
       <path d="M 10.984375 1.515625 
L 10.984375 10.5 
Q 14.703125 8.734375 18.5 7.8125 
Q 22.3125 6.890625 25.984375 6.890625 
Q 35.75 6.890625 40.890625 13.453125 
Q 46.046875 20.015625 46.78125 33.40625 
Q 43.953125 29.203125 39.59375 26.953125 
Q 35.25 24.703125 29.984375 24.703125 
Q 19.046875 24.703125 12.671875 31.3125 
Q 6.296875 37.9375 6.296875 49.421875 
Q 6.296875 60.640625 12.9375 67.421875 
Q 19.578125 74.21875 30.609375 74.21875 
Q 43.265625 74.21875 49.921875 64.515625 
Q 56.59375 54.828125 56.59375 36.375 
Q 56.59375 19.140625 48.40625 8.859375 
Q 40.234375 -1.421875 26.421875 -1.421875 
Q 22.703125 -1.421875 18.890625 -0.6875 
Q 15.09375 0.046875 10.984375 1.515625 
z
M 30.609375 32.421875 
Q 37.25 32.421875 41.125 36.953125 
Q 45.015625 41.5 45.015625 49.421875 
Q 45.015625 57.28125 41.125 61.84375 
Q 37.25 66.40625 30.609375 66.40625 
Q 23.96875 66.40625 20.09375 61.84375 
Q 16.21875 57.28125 16.21875 49.421875 
Q 16.21875 41.5 20.09375 36.953125 
Q 23.96875 32.421875 30.609375 32.421875 
z
" id="DejaVuSans-57"/>
      </defs>
      <g transform="translate(220.29029 399.078438)scale(0.1 -0.1)">
       <use xlink:href="#DejaVuSans-50"/>
       <use x="63.623047" xlink:href="#DejaVuSans-48"/>
       <use x="127.246094" xlink:href="#DejaVuSans-50"/>
       <use x="190.869141" xlink:href="#DejaVuSans-48"/>
       <use x="254.492188" xlink:href="#DejaVuSans-45"/>
       <use x="290.576172" xlink:href="#DejaVuSans-48"/>
       <use x="354.199219" xlink:href="#DejaVuSans-57"/>
      </g>
     </g>
    </g>
    <g id="xtick_5">
     <g id="line2d_5">
      <g>
       <use style="stroke:#000000;stroke-width:0.8;" x="296.561806" xlink:href="#m8e0ac14efe" y="384.48"/>
      </g>
     </g>
     <g id="text_5">
      <!-- 2020-11 -->
      <defs>
       <path d="M 12.40625 8.296875 
L 28.515625 8.296875 
L 28.515625 63.921875 
L 10.984375 60.40625 
L 10.984375 69.390625 
L 28.421875 72.90625 
L 38.28125 72.90625 
L 38.28125 8.296875 
L 54.390625 8.296875 
L 54.390625 0 
L 12.40625 0 
z
" id="DejaVuSans-49"/>
      </defs>
      <g transform="translate(275.6704 399.078438)scale(0.1 -0.1)">
       <use xlink:href="#DejaVuSans-50"/>
       <use x="63.623047" xlink:href="#DejaVuSans-48"/>
       <use x="127.246094" xlink:href="#DejaVuSans-50"/>
       <use x="190.869141" xlink:href="#DejaVuSans-48"/>
       <use x="254.492188" xlink:href="#DejaVuSans-45"/>
       <use x="290.576172" xlink:href="#DejaVuSans-49"/>
       <use x="354.199219" xlink:href="#DejaVuSans-49"/>
      </g>
     </g>
    </g>
    <g id="xtick_6">
     <g id="line2d_6">
      <g>
       <use style="stroke:#000000;stroke-width:0.8;" x="351.941916" xlink:href="#m8e0ac14efe" y="384.48"/>
      </g>
     </g>
     <g id="text_6">
      <!-- 2021-01 -->
      <g transform="translate(331.05051 399.078438)scale(0.1 -0.1)">
       <use xlink:href="#DejaVuSans-50"/>
       <use x="63.623047" xlink:href="#DejaVuSans-48"/>
       <use x="127.246094" xlink:href="#DejaVuSans-50"/>
       <use x="190.869141" xlink:href="#DejaVuSans-49"/>
       <use x="254.492188" xlink:href="#DejaVuSans-45"/>
       <use x="290.576172" xlink:href="#DejaVuSans-48"/>
       <use x="354.199219" xlink:href="#DejaVuSans-49"/>
      </g>
     </g>
    </g>
    <g id="xtick_7">
     <g id="line2d_7">
      <g>
       <use style="stroke:#000000;stroke-width:0.8;" x="405.506284" xlink:href="#m8e0ac14efe" y="384.48"/>
      </g>
     </g>
     <g id="text_7">
      <!-- 2021-03 -->
      <g transform="translate(384.614878 399.078438)scale(0.1 -0.1)">
       <use xlink:href="#DejaVuSans-50"/>
       <use x="63.623047" xlink:href="#DejaVuSans-48"/>
       <use x="127.246094" xlink:href="#DejaVuSans-50"/>
       <use x="190.869141" xlink:href="#DejaVuSans-49"/>
       <use x="254.492188" xlink:href="#DejaVuSans-45"/>
       <use x="290.576172" xlink:href="#DejaVuSans-48"/>
       <use x="354.199219" xlink:href="#DejaVuSans-51"/>
      </g>
     </g>
    </g>
    <g id="xtick_8">
     <g id="line2d_8">
      <g>
       <use style="stroke:#000000;stroke-width:0.8;" x="460.886394" xlink:href="#m8e0ac14efe" y="384.48"/>
      </g>
     </g>
     <g id="text_8">
      <!-- 2021-05 -->
      <g transform="translate(439.994988 399.078438)scale(0.1 -0.1)">
       <use xlink:href="#DejaVuSans-50"/>
       <use x="63.623047" xlink:href="#DejaVuSans-48"/>
       <use x="127.246094" xlink:href="#DejaVuSans-50"/>
       <use x="190.869141" xlink:href="#DejaVuSans-49"/>
       <use x="254.492188" xlink:href="#DejaVuSans-45"/>
       <use x="290.576172" xlink:href="#DejaVuSans-48"/>
       <use x="354.199219" xlink:href="#DejaVuSans-53"/>
      </g>
     </g>
    </g>
    <g id="xtick_9">
     <g id="line2d_9">
      <g>
       <use style="stroke:#000000;stroke-width:0.8;" x="516.266504" xlink:href="#m8e0ac14efe" y="384.48"/>
      </g>
     </g>
     <g id="text_9">
      <!-- 2021-07 -->
      <g transform="translate(495.375098 399.078438)scale(0.1 -0.1)">
       <use xlink:href="#DejaVuSans-50"/>
       <use x="63.623047" xlink:href="#DejaVuSans-48"/>
       <use x="127.246094" xlink:href="#DejaVuSans-50"/>
       <use x="190.869141" xlink:href="#DejaVuSans-49"/>
       <use x="254.492188" xlink:href="#DejaVuSans-45"/>
       <use x="290.576172" xlink:href="#DejaVuSans-48"/>
       <use x="354.199219" xlink:href="#DejaVuSans-55"/>
      </g>
     </g>
    </g>
    <g id="text_10">
     <!-- Reported On -->
     <defs>
      <path d="M 44.390625 34.1875 
Q 47.5625 33.109375 50.5625 29.59375 
Q 53.5625 26.078125 56.59375 19.921875 
L 66.609375 0 
L 56 0 
L 46.6875 18.703125 
Q 43.0625 26.03125 39.671875 28.421875 
Q 36.28125 30.8125 30.421875 30.8125 
L 19.671875 30.8125 
L 19.671875 0 
L 9.8125 0 
L 9.8125 72.90625 
L 32.078125 72.90625 
Q 44.578125 72.90625 50.734375 67.671875 
Q 56.890625 62.453125 56.890625 51.90625 
Q 56.890625 45.015625 53.6875 40.46875 
Q 50.484375 35.9375 44.390625 34.1875 
z
M 19.671875 64.796875 
L 19.671875 38.921875 
L 32.078125 38.921875 
Q 39.203125 38.921875 42.84375 42.21875 
Q 46.484375 45.515625 46.484375 51.90625 
Q 46.484375 58.296875 42.84375 61.546875 
Q 39.203125 64.796875 32.078125 64.796875 
z
" id="DejaVuSans-82"/>
      <path d="M 56.203125 29.59375 
L 56.203125 25.203125 
L 14.890625 25.203125 
Q 15.484375 15.921875 20.484375 11.0625 
Q 25.484375 6.203125 34.421875 6.203125 
Q 39.59375 6.203125 44.453125 7.46875 
Q 49.3125 8.734375 54.109375 11.28125 
L 54.109375 2.78125 
Q 49.265625 0.734375 44.1875 -0.34375 
Q 39.109375 -1.421875 33.890625 -1.421875 
Q 20.796875 -1.421875 13.15625 6.1875 
Q 5.515625 13.8125 5.515625 26.8125 
Q 5.515625 40.234375 12.765625 48.109375 
Q 20.015625 56 32.328125 56 
Q 43.359375 56 49.78125 48.890625 
Q 56.203125 41.796875 56.203125 29.59375 
z
M 47.21875 32.234375 
Q 47.125 39.59375 43.09375 43.984375 
Q 39.0625 48.390625 32.421875 48.390625 
Q 24.90625 48.390625 20.390625 44.140625 
Q 15.875 39.890625 15.1875 32.171875 
z
" id="DejaVuSans-101"/>
      <path d="M 18.109375 8.203125 
L 18.109375 -20.796875 
L 9.078125 -20.796875 
L 9.078125 54.6875 
L 18.109375 54.6875 
L 18.109375 46.390625 
Q 20.953125 51.265625 25.265625 53.625 
Q 29.59375 56 35.59375 56 
Q 45.5625 56 51.78125 48.09375 
Q 58.015625 40.1875 58.015625 27.296875 
Q 58.015625 14.40625 51.78125 6.484375 
Q 45.5625 -1.421875 35.59375 -1.421875 
Q 29.59375 -1.421875 25.265625 0.953125 
Q 20.953125 3.328125 18.109375 8.203125 
z
M 48.6875 27.296875 
Q 48.6875 37.203125 44.609375 42.84375 
Q 40.53125 48.484375 33.40625 48.484375 
Q 26.265625 48.484375 22.1875 42.84375 
Q 18.109375 37.203125 18.109375 27.296875 
Q 18.109375 17.390625 22.1875 11.75 
Q 26.265625 6.109375 33.40625 6.109375 
Q 40.53125 6.109375 44.609375 11.75 
Q 48.6875 17.390625 48.6875 27.296875 
z
" id="DejaVuSans-112"/>
      <path d="M 30.609375 48.390625 
Q 23.390625 48.390625 19.1875 42.75 
Q 14.984375 37.109375 14.984375 27.296875 
Q 14.984375 17.484375 19.15625 11.84375 
Q 23.34375 6.203125 30.609375 6.203125 
Q 37.796875 6.203125 41.984375 11.859375 
Q 46.1875 17.53125 46.1875 27.296875 
Q 46.1875 37.015625 41.984375 42.703125 
Q 37.796875 48.390625 30.609375 48.390625 
z
M 30.609375 56 
Q 42.328125 56 49.015625 48.375 
Q 55.71875 40.765625 55.71875 27.296875 
Q 55.71875 13.875 49.015625 6.21875 
Q 42.328125 -1.421875 30.609375 -1.421875 
Q 18.84375 -1.421875 12.171875 6.21875 
Q 5.515625 13.875 5.515625 27.296875 
Q 5.515625 40.765625 12.171875 48.375 
Q 18.84375 56 30.609375 56 
z
" id="DejaVuSans-111"/>
      <path d="M 41.109375 46.296875 
Q 39.59375 47.171875 37.8125 47.578125 
Q 36.03125 48 33.890625 48 
Q 26.265625 48 22.1875 43.046875 
Q 18.109375 38.09375 18.109375 28.8125 
L 18.109375 0 
L 9.078125 0 
L 9.078125 54.6875 
L 18.109375 54.6875 
L 18.109375 46.1875 
Q 20.953125 51.171875 25.484375 53.578125 
Q 30.03125 56 36.53125 56 
Q 37.453125 56 38.578125 55.875 
Q 39.703125 55.765625 41.0625 55.515625 
z
" id="DejaVuSans-114"/>
      <path d="M 18.3125 70.21875 
L 18.3125 54.6875 
L 36.8125 54.6875 
L 36.8125 47.703125 
L 18.3125 47.703125 
L 18.3125 18.015625 
Q 18.3125 11.328125 20.140625 9.421875 
Q 21.96875 7.515625 27.59375 7.515625 
L 36.8125 7.515625 
L 36.8125 0 
L 27.59375 0 
Q 17.1875 0 13.234375 3.875 
Q 9.28125 7.765625 9.28125 18.015625 
L 9.28125 47.703125 
L 2.6875 47.703125 
L 2.6875 54.6875 
L 9.28125 54.6875 
L 9.28125 70.21875 
z
" id="DejaVuSans-116"/>
      <path d="M 45.40625 46.390625 
L 45.40625 75.984375 
L 54.390625 75.984375 
L 54.390625 0 
L 45.40625 0 
L 45.40625 8.203125 
Q 42.578125 3.328125 38.25 0.953125 
Q 33.9375 -1.421875 27.875 -1.421875 
Q 17.96875 -1.421875 11.734375 6.484375 
Q 5.515625 14.40625 5.515625 27.296875 
Q 5.515625 40.1875 11.734375 48.09375 
Q 17.96875 56 27.875 56 
Q 33.9375 56 38.25 53.625 
Q 42.578125 51.265625 45.40625 46.390625 
z
M 14.796875 27.296875 
Q 14.796875 17.390625 18.875 11.75 
Q 22.953125 6.109375 30.078125 6.109375 
Q 37.203125 6.109375 41.296875 11.75 
Q 45.40625 17.390625 45.40625 27.296875 
Q 45.40625 37.203125 41.296875 42.84375 
Q 37.203125 48.484375 30.078125 48.484375 
Q 22.953125 48.484375 18.875 42.84375 
Q 14.796875 37.203125 14.796875 27.296875 
z
" id="DejaVuSans-100"/>
      <path id="DejaVuSans-32"/>
      <path d="M 39.40625 66.21875 
Q 28.65625 66.21875 22.328125 58.203125 
Q 16.015625 50.203125 16.015625 36.375 
Q 16.015625 22.609375 22.328125 14.59375 
Q 28.65625 6.59375 39.40625 6.59375 
Q 50.140625 6.59375 56.421875 14.59375 
Q 62.703125 22.609375 62.703125 36.375 
Q 62.703125 50.203125 56.421875 58.203125 
Q 50.140625 66.21875 39.40625 66.21875 
z
M 39.40625 74.21875 
Q 54.734375 74.21875 63.90625 63.9375 
Q 73.09375 53.65625 73.09375 36.375 
Q 73.09375 19.140625 63.90625 8.859375 
Q 54.734375 -1.421875 39.40625 -1.421875 
Q 24.03125 -1.421875 14.8125 8.828125 
Q 5.609375 19.09375 5.609375 36.375 
Q 5.609375 53.65625 14.8125 63.9375 
Q 24.03125 74.21875 39.40625 74.21875 
z
" id="DejaVuSans-79"/>
      <path d="M 54.890625 33.015625 
L 54.890625 0 
L 45.90625 0 
L 45.90625 32.71875 
Q 45.90625 40.484375 42.875 44.328125 
Q 39.84375 48.1875 33.796875 48.1875 
Q 26.515625 48.1875 22.3125 43.546875 
Q 18.109375 38.921875 18.109375 30.90625 
L 18.109375 0 
L 9.078125 0 
L 9.078125 54.6875 
L 18.109375 54.6875 
L 18.109375 46.1875 
Q 21.34375 51.125 25.703125 53.5625 
Q 30.078125 56 35.796875 56 
Q 45.21875 56 50.046875 50.171875 
Q 54.890625 44.34375 54.890625 33.015625 
z
" id="DejaVuSans-110"/>
     </defs>
     <g transform="translate(263.680469 412.756563)scale(0.1 -0.1)">
      <use xlink:href="#DejaVuSans-82"/>
      <use x="64.982422" xlink:href="#DejaVuSans-101"/>
      <use x="126.505859" xlink:href="#DejaVuSans-112"/>
      <use x="189.982422" xlink:href="#DejaVuSans-111"/>
      <use x="251.164062" xlink:href="#DejaVuSans-114"/>
      <use x="292.277344" xlink:href="#DejaVuSans-116"/>
      <use x="331.486328" xlink:href="#DejaVuSans-101"/>
      <use x="393.009766" xlink:href="#DejaVuSans-100"/>
      <use x="456.486328" xlink:href="#DejaVuSans-32"/>
      <use x="488.273438" xlink:href="#DejaVuSans-79"/>
      <use x="566.984375" xlink:href="#DejaVuSans-110"/>
     </g>
    </g>
   </g>
   <g id="matplotlib.axis_2">
    <g id="ytick_1">
     <g id="line2d_10">
      <defs>
       <path d="M 0 0 
L -3.5 0 
" id="m961dd9c3c0" style="stroke:#000000;stroke-width:0.8;"/>
      </defs>
      <g>
       <use style="stroke:#000000;stroke-width:0.8;" x="72" xlink:href="#m961dd9c3c0" y="369.842515"/>
      </g>
     </g>
     <g id="text_11">
      <!--   0 -->
      <g transform="translate(52.28125 373.641734)scale(0.1 -0.1)">
       <use xlink:href="#DejaVuSans-32"/>
       <use x="31.787109" xlink:href="#DejaVuSans-32"/>
       <use x="63.574219" xlink:href="#DejaVuSans-48"/>
      </g>
     </g>
    </g>
    <g id="ytick_2">
     <g id="line2d_11">
      <g>
       <use style="stroke:#000000;stroke-width:0.8;" x="72" xlink:href="#m961dd9c3c0" y="325.432361"/>
      </g>
     </g>
     <g id="text_12">
      <!-- 200 -->
      <g transform="translate(45.9125 329.23158)scale(0.1 -0.1)">
       <use xlink:href="#DejaVuSans-50"/>
       <use x="63.623047" xlink:href="#DejaVuSans-48"/>
       <use x="127.246094" xlink:href="#DejaVuSans-48"/>
      </g>
     </g>
    </g>
    <g id="ytick_3">
     <g id="line2d_12">
      <g>
       <use style="stroke:#000000;stroke-width:0.8;" x="72" xlink:href="#m961dd9c3c0" y="281.022206"/>
      </g>
     </g>
     <g id="text_13">
      <!-- 400 -->
      <defs>
       <path d="M 37.796875 64.3125 
L 12.890625 25.390625 
L 37.796875 25.390625 
z
M 35.203125 72.90625 
L 47.609375 72.90625 
L 47.609375 25.390625 
L 58.015625 25.390625 
L 58.015625 17.1875 
L 47.609375 17.1875 
L 47.609375 0 
L 37.796875 0 
L 37.796875 17.1875 
L 4.890625 17.1875 
L 4.890625 26.703125 
z
" id="DejaVuSans-52"/>
      </defs>
      <g transform="translate(45.9125 284.821425)scale(0.1 -0.1)">
       <use xlink:href="#DejaVuSans-52"/>
       <use x="63.623047" xlink:href="#DejaVuSans-48"/>
       <use x="127.246094" xlink:href="#DejaVuSans-48"/>
      </g>
     </g>
    </g>
    <g id="ytick_4">
     <g id="line2d_13">
      <g>
       <use style="stroke:#000000;stroke-width:0.8;" x="72" xlink:href="#m961dd9c3c0" y="236.612052"/>
      </g>
     </g>
     <g id="text_14">
      <!-- 600 -->
      <defs>
       <path d="M 33.015625 40.375 
Q 26.375 40.375 22.484375 35.828125 
Q 18.609375 31.296875 18.609375 23.390625 
Q 18.609375 15.53125 22.484375 10.953125 
Q 26.375 6.390625 33.015625 6.390625 
Q 39.65625 6.390625 43.53125 10.953125 
Q 47.40625 15.53125 47.40625 23.390625 
Q 47.40625 31.296875 43.53125 35.828125 
Q 39.65625 40.375 33.015625 40.375 
z
M 52.59375 71.296875 
L 52.59375 62.3125 
Q 48.875 64.0625 45.09375 64.984375 
Q 41.3125 65.921875 37.59375 65.921875 
Q 27.828125 65.921875 22.671875 59.328125 
Q 17.53125 52.734375 16.796875 39.40625 
Q 19.671875 43.65625 24.015625 45.921875 
Q 28.375 48.1875 33.59375 48.1875 
Q 44.578125 48.1875 50.953125 41.515625 
Q 57.328125 34.859375 57.328125 23.390625 
Q 57.328125 12.15625 50.6875 5.359375 
Q 44.046875 -1.421875 33.015625 -1.421875 
Q 20.359375 -1.421875 13.671875 8.265625 
Q 6.984375 17.96875 6.984375 36.375 
Q 6.984375 53.65625 15.1875 63.9375 
Q 23.390625 74.21875 37.203125 74.21875 
Q 40.921875 74.21875 44.703125 73.484375 
Q 48.484375 72.75 52.59375 71.296875 
z
" id="DejaVuSans-54"/>
      </defs>
      <g transform="translate(45.9125 240.411271)scale(0.1 -0.1)">
       <use xlink:href="#DejaVuSans-54"/>
       <use x="63.623047" xlink:href="#DejaVuSans-48"/>
       <use x="127.246094" xlink:href="#DejaVuSans-48"/>
      </g>
     </g>
    </g>
    <g id="ytick_5">
     <g id="line2d_14">
      <g>
       <use style="stroke:#000000;stroke-width:0.8;" x="72" xlink:href="#m961dd9c3c0" y="192.201897"/>
      </g>
     </g>
     <g id="text_15">
      <!-- 800 -->
      <defs>
       <path d="M 31.78125 34.625 
Q 24.75 34.625 20.71875 30.859375 
Q 16.703125 27.09375 16.703125 20.515625 
Q 16.703125 13.921875 20.71875 10.15625 
Q 24.75 6.390625 31.78125 6.390625 
Q 38.8125 6.390625 42.859375 10.171875 
Q 46.921875 13.96875 46.921875 20.515625 
Q 46.921875 27.09375 42.890625 30.859375 
Q 38.875 34.625 31.78125 34.625 
z
M 21.921875 38.8125 
Q 15.578125 40.375 12.03125 44.71875 
Q 8.5 49.078125 8.5 55.328125 
Q 8.5 64.0625 14.71875 69.140625 
Q 20.953125 74.21875 31.78125 74.21875 
Q 42.671875 74.21875 48.875 69.140625 
Q 55.078125 64.0625 55.078125 55.328125 
Q 55.078125 49.078125 51.53125 44.71875 
Q 48 40.375 41.703125 38.8125 
Q 48.828125 37.15625 52.796875 32.3125 
Q 56.78125 27.484375 56.78125 20.515625 
Q 56.78125 9.90625 50.3125 4.234375 
Q 43.84375 -1.421875 31.78125 -1.421875 
Q 19.734375 -1.421875 13.25 4.234375 
Q 6.78125 9.90625 6.78125 20.515625 
Q 6.78125 27.484375 10.78125 32.3125 
Q 14.796875 37.15625 21.921875 38.8125 
z
M 18.3125 54.390625 
Q 18.3125 48.734375 21.84375 45.5625 
Q 25.390625 42.390625 31.78125 42.390625 
Q 38.140625 42.390625 41.71875 45.5625 
Q 45.3125 48.734375 45.3125 54.390625 
Q 45.3125 60.0625 41.71875 63.234375 
Q 38.140625 66.40625 31.78125 66.40625 
Q 25.390625 66.40625 21.84375 63.234375 
Q 18.3125 60.0625 18.3125 54.390625 
z
" id="DejaVuSans-56"/>
      </defs>
      <g transform="translate(45.9125 196.001116)scale(0.1 -0.1)">
       <use xlink:href="#DejaVuSans-56"/>
       <use x="63.623047" xlink:href="#DejaVuSans-48"/>
       <use x="127.246094" xlink:href="#DejaVuSans-48"/>
      </g>
     </g>
    </g>
    <g id="ytick_6">
     <g id="line2d_15">
      <g>
       <use style="stroke:#000000;stroke-width:0.8;" x="72" xlink:href="#m961dd9c3c0" y="147.791743"/>
      </g>
     </g>
     <g id="text_16">
      <!-- 1000 -->
      <g transform="translate(39.55 151.590962)scale(0.1 -0.1)">
       <use xlink:href="#DejaVuSans-49"/>
       <use x="63.623047" xlink:href="#DejaVuSans-48"/>
       <use x="127.246094" xlink:href="#DejaVuSans-48"/>
       <use x="190.869141" xlink:href="#DejaVuSans-48"/>
      </g>
     </g>
    </g>
    <g id="ytick_7">
     <g id="line2d_16">
      <g>
       <use style="stroke:#000000;stroke-width:0.8;" x="72" xlink:href="#m961dd9c3c0" y="103.381588"/>
      </g>
     </g>
     <g id="text_17">
      <!-- 1200 -->
      <g transform="translate(39.55 107.180807)scale(0.1 -0.1)">
       <use xlink:href="#DejaVuSans-49"/>
       <use x="63.623047" xlink:href="#DejaVuSans-50"/>
       <use x="127.246094" xlink:href="#DejaVuSans-48"/>
       <use x="190.869141" xlink:href="#DejaVuSans-48"/>
      </g>
     </g>
    </g>
    <g id="ytick_8">
     <g id="line2d_17">
      <g>
       <use style="stroke:#000000;stroke-width:0.8;" x="72" xlink:href="#m961dd9c3c0" y="58.971434"/>
      </g>
     </g>
     <g id="text_18">
      <!-- 1400 -->
      <g transform="translate(39.55 62.770653)scale(0.1 -0.1)">
       <use xlink:href="#DejaVuSans-49"/>
       <use x="63.623047" xlink:href="#DejaVuSans-52"/>
       <use x="127.246094" xlink:href="#DejaVuSans-48"/>
       <use x="190.869141" xlink:href="#DejaVuSans-48"/>
      </g>
     </g>
    </g>
    <g id="text_19">
     <!-- Duration [days] -->
     <defs>
      <path d="M 19.671875 64.796875 
L 19.671875 8.109375 
L 31.59375 8.109375 
Q 46.6875 8.109375 53.6875 14.9375 
Q 60.6875 21.78125 60.6875 36.53125 
Q 60.6875 51.171875 53.6875 57.984375 
Q 46.6875 64.796875 31.59375 64.796875 
z
M 9.8125 72.90625 
L 30.078125 72.90625 
Q 51.265625 72.90625 61.171875 64.09375 
Q 71.09375 55.28125 71.09375 36.53125 
Q 71.09375 17.671875 61.125 8.828125 
Q 51.171875 0 30.078125 0 
L 9.8125 0 
z
" id="DejaVuSans-68"/>
      <path d="M 8.5 21.578125 
L 8.5 54.6875 
L 17.484375 54.6875 
L 17.484375 21.921875 
Q 17.484375 14.15625 20.5 10.265625 
Q 23.53125 6.390625 29.59375 6.390625 
Q 36.859375 6.390625 41.078125 11.03125 
Q 45.3125 15.671875 45.3125 23.6875 
L 45.3125 54.6875 
L 54.296875 54.6875 
L 54.296875 0 
L 45.3125 0 
L 45.3125 8.40625 
Q 42.046875 3.421875 37.71875 1 
Q 33.40625 -1.421875 27.6875 -1.421875 
Q 18.265625 -1.421875 13.375 4.4375 
Q 8.5 10.296875 8.5 21.578125 
z
M 31.109375 56 
z
" id="DejaVuSans-117"/>
      <path d="M 34.28125 27.484375 
Q 23.390625 27.484375 19.1875 25 
Q 14.984375 22.515625 14.984375 16.5 
Q 14.984375 11.71875 18.140625 8.90625 
Q 21.296875 6.109375 26.703125 6.109375 
Q 34.1875 6.109375 38.703125 11.40625 
Q 43.21875 16.703125 43.21875 25.484375 
L 43.21875 27.484375 
z
M 52.203125 31.203125 
L 52.203125 0 
L 43.21875 0 
L 43.21875 8.296875 
Q 40.140625 3.328125 35.546875 0.953125 
Q 30.953125 -1.421875 24.3125 -1.421875 
Q 15.921875 -1.421875 10.953125 3.296875 
Q 6 8.015625 6 15.921875 
Q 6 25.140625 12.171875 29.828125 
Q 18.359375 34.515625 30.609375 34.515625 
L 43.21875 34.515625 
L 43.21875 35.40625 
Q 43.21875 41.609375 39.140625 45 
Q 35.0625 48.390625 27.6875 48.390625 
Q 23 48.390625 18.546875 47.265625 
Q 14.109375 46.140625 10.015625 43.890625 
L 10.015625 52.203125 
Q 14.9375 54.109375 19.578125 55.046875 
Q 24.21875 56 28.609375 56 
Q 40.484375 56 46.34375 49.84375 
Q 52.203125 43.703125 52.203125 31.203125 
z
" id="DejaVuSans-97"/>
      <path d="M 9.421875 54.6875 
L 18.40625 54.6875 
L 18.40625 0 
L 9.421875 0 
z
M 9.421875 75.984375 
L 18.40625 75.984375 
L 18.40625 64.59375 
L 9.421875 64.59375 
z
" id="DejaVuSans-105"/>
      <path d="M 8.59375 75.984375 
L 29.296875 75.984375 
L 29.296875 69 
L 17.578125 69 
L 17.578125 -6.203125 
L 29.296875 -6.203125 
L 29.296875 -13.1875 
L 8.59375 -13.1875 
z
" id="DejaVuSans-91"/>
      <path d="M 32.171875 -5.078125 
Q 28.375 -14.84375 24.75 -17.8125 
Q 21.140625 -20.796875 15.09375 -20.796875 
L 7.90625 -20.796875 
L 7.90625 -13.28125 
L 13.1875 -13.28125 
Q 16.890625 -13.28125 18.9375 -11.515625 
Q 21 -9.765625 23.484375 -3.21875 
L 25.09375 0.875 
L 2.984375 54.6875 
L 12.5 54.6875 
L 29.59375 11.921875 
L 46.6875 54.6875 
L 56.203125 54.6875 
z
" id="DejaVuSans-121"/>
      <path d="M 44.28125 53.078125 
L 44.28125 44.578125 
Q 40.484375 46.53125 36.375 47.5 
Q 32.28125 48.484375 27.875 48.484375 
Q 21.1875 48.484375 17.84375 46.4375 
Q 14.5 44.390625 14.5 40.28125 
Q 14.5 37.15625 16.890625 35.375 
Q 19.28125 33.59375 26.515625 31.984375 
L 29.59375 31.296875 
Q 39.15625 29.25 43.1875 25.515625 
Q 47.21875 21.78125 47.21875 15.09375 
Q 47.21875 7.46875 41.1875 3.015625 
Q 35.15625 -1.421875 24.609375 -1.421875 
Q 20.21875 -1.421875 15.453125 -0.5625 
Q 10.6875 0.296875 5.421875 2 
L 5.421875 11.28125 
Q 10.40625 8.6875 15.234375 7.390625 
Q 20.0625 6.109375 24.8125 6.109375 
Q 31.15625 6.109375 34.5625 8.28125 
Q 37.984375 10.453125 37.984375 14.40625 
Q 37.984375 18.0625 35.515625 20.015625 
Q 33.0625 21.96875 24.703125 23.78125 
L 21.578125 24.515625 
Q 13.234375 26.265625 9.515625 29.90625 
Q 5.8125 33.546875 5.8125 39.890625 
Q 5.8125 47.609375 11.28125 51.796875 
Q 16.75 56 26.8125 56 
Q 31.78125 56 36.171875 55.265625 
Q 40.578125 54.546875 44.28125 53.078125 
z
" id="DejaVuSans-115"/>
      <path d="M 30.421875 75.984375 
L 30.421875 -13.1875 
L 9.71875 -13.1875 
L 9.71875 -6.203125 
L 21.390625 -6.203125 
L 21.390625 69 
L 9.71875 69 
L 9.71875 75.984375 
z
" id="DejaVuSans-93"/>
     </defs>
     <g transform="translate(33.470312 257.168594)rotate(-90)scale(0.1 -0.1)">
      <use xlink:href="#DejaVuSans-68"/>
      <use x="77.001953" xlink:href="#DejaVuSans-117"/>
      <use x="140.380859" xlink:href="#DejaVuSans-114"/>
      <use x="181.494141" xlink:href="#DejaVuSans-97"/>
      <use x="242.773438" xlink:href="#DejaVuSans-116"/>
      <use x="281.982422" xlink:href="#DejaVuSans-105"/>
      <use x="309.765625" xlink:href="#DejaVuSans-111"/>
      <use x="370.947266" xlink:href="#DejaVuSans-110"/>
      <use x="434.326172" xlink:href="#DejaVuSans-32"/>
      <use x="466.113281" xlink:href="#DejaVuSans-91"/>
      <use x="505.126953" xlink:href="#DejaVuSans-100"/>
      <use x="568.603516" xlink:href="#DejaVuSans-97"/>
      <use x="629.882812" xlink:href="#DejaVuSans-121"/>
      <use x="689.0625" xlink:href="#DejaVuSans-115"/>
      <use x="741.162109" xlink:href="#DejaVuSans-93"/>
     </g>
    </g>
   </g>
   <g id="line2d_18">
    <path clip-path="url(#pebafac878a)" d="M 498.109091 143.507757 
L 497.20122 135.17032 
L 496.29335 190.7335 
L 495.385479 157.454888 
L 494.477608 177.14405 
L 493.569738 68.438695 
L 492.661867 68.438695 
L 491.753996 197.512631 
L 490.846126 184.792977 
L 489.938255 151.101659 
L 489.030384 183.818612 
L 488.122514 170.538098 
L 487.214643 234.623222 
L 486.306772 234.623222 
L 485.398902 200.926296 
L 484.491031 200.926296 
L 483.58316 246.592002 
L 482.67529 250.282009 
L 481.767419 258.430562 
L 480.859549 267.961409 
L 479.951678 267.961409 
L 479.043807 256.294671 
L 478.135937 268.910691 
L 477.228066 216.243853 
L 476.320195 186.560354 
L 475.412325 245.44731 
L 474.504454 153.433265 
L 472.688713 243.32849 
L 471.780842 255.924825 
L 470.872971 272.785817 
L 469.965101 300.569547 
L 469.05723 289.023053 
L 468.149359 296.187885 
L 467.241489 301.710416 
L 466.333618 298.41648 
L 465.425747 286.695718 
L 464.517877 306.770503 
L 463.610006 295.463295 
L 462.702135 301.163429 
L 461.794265 301.843419 
L 460.886394 304.09346 
L 459.070653 319.382012 
L 458.162782 313.782341 
L 457.254912 312.794378 
L 456.347041 306.802944 
L 455.43917 322.33048 
L 454.5313 314.826442 
L 453.623429 313.151528 
L 452.715558 317.777009 
L 451.807688 306.701231 
L 450.899817 326.080082 
L 449.991946 330.160705 
L 449.084076 325.060005 
L 448.176205 334.899827 
L 447.268334 334.629546 
L 446.360464 339.505532 
L 445.452593 339.505532 
L 444.544722 332.153286 
L 443.636852 327.227081 
L 442.728981 328.816978 
L 441.82111 324.369135 
L 440.91324 327.156613 
L 440.005369 323.289779 
L 439.097498 336.027276 
L 438.189628 339.488251 
L 437.281757 340.166931 
L 436.373887 340.397023 
L 435.466016 343.545636 
L 434.558145 343.891601 
L 433.650275 344.882412 
L 432.742404 344.278007 
L 431.834533 345.160957 
L 430.926663 344.579465 
L 430.018792 343.583688 
L 429.110921 347.93357 
L 428.203051 345.451318 
L 427.29518 348.428734 
L 426.387309 344.574701 
L 425.479439 349.113514 
L 424.571568 351.652222 
L 423.663697 352.390973 
L 422.755827 349.692014 
L 421.847956 349.692014 
L 420.940085 348.731506 
L 420.032215 352.018077 
L 419.124344 352.203564 
L 418.216473 349.827189 
L 417.308603 352.478642 
L 416.400732 352.293205 
L 415.492862 354.138585 
L 414.584991 350.649187 
L 413.67712 350.091336 
L 412.76925 348.382351 
L 411.861379 350.220068 
L 410.953508 343.818077 
L 410.045638 342.722539 
L 409.137767 336.674426 
L 408.229896 342.271619 
L 407.322026 341.581285 
L 406.414155 341.139991 
L 405.506284 340.474166 
L 404.598414 341.447217 
L 403.690543 335.990247 
L 402.782672 345.051394 
L 400.966931 341.77132 
L 400.05906 334.577622 
L 399.15119 334.174412 
L 398.243319 331.55327 
L 397.335448 337.134226 
L 396.427578 324.25678 
L 395.519707 314.772463 
L 394.611836 315.572856 
L 393.703966 299.639708 
L 392.796095 290.870031 
L 391.888225 312.715266 
L 390.980354 300.532512 
L 390.072483 300.997812 
L 389.164613 300.997812 
L 388.256742 302.781239 
L 387.348871 302.781239 
L 386.441001 294.196997 
L 385.53313 258.0801 
L 384.625259 287.14741 
L 383.717389 281.759077 
L 382.809518 289.061966 
L 381.901647 239.625729 
L 380.993777 281.205858 
L 380.085906 283.185873 
L 379.178035 301.266853 
L 378.270165 281.189242 
L 377.362294 287.927341 
L 376.454423 292.153636 
L 375.546553 302.094195 
L 374.638682 280.236217 
L 373.730811 296.555211 
L 372.822941 295.050707 
L 371.91507 294.034382 
L 371.0072 292.306359 
L 370.099329 287.398295 
L 369.191458 272.186165 
L 368.283588 286.20335 
L 367.375717 287.811789 
L 366.467846 281.896181 
L 365.559976 272.93897 
L 364.652105 276.183636 
L 363.744234 267.322185 
L 362.836364 296.817716 
L 361.928493 286.358252 
L 361.020622 287.08992 
L 360.112752 275.235238 
L 359.204881 275.235238 
L 358.29701 280.063617 
L 357.38914 287.997064 
L 356.481269 262.214143 
L 355.573398 275.29535 
L 354.665528 236.368041 
L 353.757657 235.297344 
L 352.849786 262.690388 
L 351.941916 209.421384 
L 351.034045 209.608758 
L 350.126174 234.819836 
L 349.218304 236.237623 
L 348.310433 236.237623 
L 347.402563 256.101036 
L 346.494692 241.338706 
L 345.586821 261.400276 
L 344.678951 269.029912 
L 343.77108 252.156344 
L 342.863209 249.405099 
L 341.955339 249.405099 
L 341.047468 253.55836 
L 340.139597 240.132366 
L 339.231727 241.484568 
L 338.323856 246.128137 
L 337.415985 272.876765 
L 336.508115 295.183651 
L 335.600244 295.183651 
L 334.692373 292.986459 
L 333.784503 292.986459 
L 332.876632 302.216256 
L 331.968761 298.6507 
L 331.060891 291.42466 
L 330.15302 271.749438 
L 329.245149 271.749438 
L 328.337279 296.814912 
L 327.429408 296.814912 
L 326.521538 273.662034 
L 325.613667 305.231992 
L 324.705796 304.136463 
L 323.797926 315.093671 
L 322.890055 319.463154 
L 321.982184 304.351867 
L 321.074314 312.014761 
L 320.166443 322.846292 
L 319.258572 311.190626 
L 318.350702 305.816603 
L 317.442831 303.996866 
L 316.53496 306.550723 
L 314.719219 305.570923 
L 313.811348 303.658804 
L 312.903478 292.481961 
L 311.995607 300.778028 
L 311.087736 290.109128 
L 310.179866 287.874792 
L 309.271995 301.33588 
L 307.456254 292.677221 
L 306.548383 292.677221 
L 305.640513 297.415342 
L 304.732642 320.674441 
L 303.824771 315.739864 
L 302.916901 309.233709 
L 302.00903 329.575848 
L 301.101159 324.533725 
L 300.193289 331.473424 
L 299.285418 344.360128 
L 298.377547 336.910687 
L 297.469677 347.543559 
L 296.561806 346.846318 
L 295.653935 340.544849 
L 294.746065 340.544849 
L 293.838194 336.670063 
L 292.930323 312.42527 
L 292.022453 324.990604 
L 291.114582 263.16403 
L 290.206711 263.16403 
L 289.298841 290.461458 
L 288.39097 324.388795 
L 287.483099 337.319102 
L 286.575229 339.901896 
L 285.667358 339.537702 
L 284.759487 343.094231 
L 283.851617 345.289218 
L 282.943746 344.651831 
L 281.128005 336.052654 
L 280.220134 333.217978 
L 279.312264 326.041795 
L 278.404393 324.817268 
L 277.496522 325.996548 
L 276.588652 324.91543 
L 275.680781 316.416575 
L 274.77291 323.138882 
L 273.86504 314.837976 
L 272.957169 319.198068 
L 272.049298 312.702579 
L 271.141428 303.717659 
L 270.233557 318.441348 
L 269.325686 325.30314 
L 268.417816 317.661961 
L 267.509945 317.661961 
L 266.602074 323.921631 
L 265.694204 325.352723 
L 264.786333 325.605076 
L 263.878462 320.192983 
L 262.970592 324.602125 
L 262.062721 330.158317 
L 261.154851 330.158317 
L 260.24698 329.7599 
L 259.339109 330.926603 
L 258.431239 330.577759 
L 256.615497 326.565076 
L 255.707627 317.710529 
L 254.799756 329.637981 
L 253.891885 328.886285 
L 252.984015 326.062875 
L 252.076144 326.490936 
L 251.168273 341.20928 
L 250.260403 337.727503 
L 248.444661 344.076399 
L 247.536791 341.553809 
L 246.62892 344.323543 
L 245.721049 345.586239 
L 244.813179 344.188004 
L 243.905308 344.188004 
L 242.997437 342.110048 
L 242.089567 337.574481 
L 241.181696 341.211854 
L 240.273826 339.865429 
L 239.365955 345.317482 
L 238.458084 339.062957 
L 237.550214 339.062957 
L 236.642343 340.853489 
L 235.734472 343.970753 
L 233.918731 348.864997 
L 233.01086 350.389723 
L 232.10299 353.972118 
L 231.195119 355.991019 
L 230.287248 356.20685 
L 229.379378 356.299048 
L 228.471507 356.840564 
L 227.563636 356.852243 
L 226.655766 353.7552 
L 225.747895 351.102871 
L 224.840024 351.884725 
L 223.932154 353.770162 
L 223.024283 354.147628 
L 222.116412 353.98051 
L 220.300671 356.37401 
L 219.3928 355.347253 
L 218.48493 352.44446 
L 217.577059 350.742689 
L 215.761318 348.081187 
L 214.853447 344.631964 
L 213.945577 344.795866 
L 213.037706 349.643498 
L 212.129835 352.45595 
L 211.221965 352.414281 
L 210.314094 352.560123 
L 209.406223 354.113238 
L 208.498353 353.964188 
L 207.590482 354.038121 
L 206.682611 353.192943 
L 205.774741 353.380107 
L 204.86687 353.906085 
L 203.958999 354.877344 
L 203.051129 354.45485 
L 202.143258 354.497699 
L 201.235387 352.815076 
L 200.327517 354.665637 
L 198.511775 355.978427 
L 197.603905 358.634808 
L 196.696034 358.469266 
L 195.788164 357.852474 
L 194.880293 357.852474 
L 193.972422 356.573789 
L 193.064552 355.95653 
L 192.156681 355.610133 
L 191.24881 349.360523 
L 190.34094 345.523798 
L 189.433069 346.971917 
L 188.525198 347.755765 
L 187.617328 348.799639 
L 186.709457 347.518237 
L 185.801586 349.034329 
L 184.893716 344.994095 
L 183.985845 353.76271 
L 183.077974 354.428731 
L 182.170104 354.05219 
L 181.262233 353.088096 
L 180.354362 354.391832 
L 179.446492 353.570253 
L 178.538621 359.296978 
L 177.63075 356.770501 
L 176.72288 357.393828 
L 175.815009 358.527826 
L 174.907138 359.086839 
L 173.999268 359.260187 
L 173.091397 359.192739 
L 172.183527 358.046117 
L 170.367785 356.474998 
L 169.459915 358.547358 
L 168.552044 357.148458 
L 167.644173 357.283312 
L 166.736303 357.949406 
L 165.828432 356.19597 
L 164.920561 357.980488 
L 164.012691 358.102217 
L 163.10482 359.521569 
L 161.289079 359.486549 
L 160.381208 360.497799 
L 159.473337 363.881195 
L 157.657596 363.04034 
L 156.749725 361.051464 
L 155.841855 362.784739 
L 154.933984 363.632795 
L 154.026113 362.441199 
L 153.118243 361.752308 
L 152.210372 361.752308 
L 151.302502 362.952398 
L 150.394631 364.604601 
L 149.48676 363.71474 
L 148.57889 364.761034 
L 147.671019 364.761034 
L 146.763148 364.013451 
L 144.947407 365.693995 
L 144.039536 364.730633 
L 143.131666 365.679476 
L 142.223795 364.581028 
L 141.315924 365.447222 
L 139.500183 365.24215 
L 138.592312 365.022072 
L 137.684442 366.203168 
L 136.776571 365.502718 
L 135.8687 365.742969 
L 134.96083 365.521591 
L 134.052959 366.373591 
L 133.145088 366.921755 
L 132.237218 366.971373 
L 131.329347 367.450512 
L 129.513606 367.50735 
L 128.605735 367.809854 
L 125.882123 368.045075 
L 124.974253 367.780328 
L 124.066382 368.118733 
L 123.158511 368.212414 
L 119.527029 368.153251 
L 118.619158 368.484154 
L 117.711287 368.287932 
L 116.803417 368.43837 
L 115.895546 368.443972 
L 114.079805 368.601879 
L 113.171934 368.587276 
L 112.264063 368.282131 
L 111.356193 368.440009 
L 110.448322 368.756805 
L 108.632581 369.134083 
L 105.001098 369.36 
L 104.093228 369.281789 
L 103.185357 369.34951 
L 101.369616 369.136354 
L 100.461745 369.136354 
L 99.553874 369.250772 
L 98.646004 368.990697 
L 97.738133 369.250772 
L 96.830262 368.990697 
L 94.10665 368.990697 
L 93.19878 368.212414 
L 92.290909 368.212414 
L 92.290909 368.212414 
" style="fill:none;stroke:#1f77b4;stroke-linecap:square;stroke-width:1.5;"/>
   </g>
   <g id="line2d_19">
    <path clip-path="url(#pebafac878a)" d="M 498.109091 220.32285 
L 497.20122 226.917451 
L 496.29335 264.005323 
L 495.385479 248.416689 
L 494.477608 306.631952 
L 493.569738 297.042614 
L 492.661867 297.042614 
L 491.753996 318.659073 
L 489.938255 314.204618 
L 489.030384 317.451338 
L 488.122514 273.735515 
L 487.214643 287.238931 
L 486.306772 287.238931 
L 485.398902 270.955898 
L 484.491031 270.955898 
L 483.58316 276.603327 
L 482.67529 291.821872 
L 481.767419 300.257981 
L 480.859549 303.335647 
L 479.951678 303.335647 
L 479.043807 280.751079 
L 478.135937 288.952133 
L 477.228066 262.842668 
L 476.320195 206.89166 
L 475.412325 254.507611 
L 474.504454 207.769543 
L 473.596583 248.403578 
L 472.688713 270.11224 
L 471.780842 286.977184 
L 470.872971 308.398143 
L 469.965101 321.497095 
L 469.05723 318.160667 
L 467.241489 326.896705 
L 466.333618 324.800543 
L 465.425747 317.286583 
L 464.517877 320.110592 
L 463.610006 319.997361 
L 462.702135 330.922171 
L 461.794265 331.283737 
L 460.886394 327.111945 
L 459.978523 332.664998 
L 459.070653 334.387724 
L 458.162782 332.271272 
L 457.254912 326.153654 
L 456.347041 300.632803 
L 455.43917 310.770454 
L 454.5313 304.02512 
L 453.623429 288.290226 
L 452.715558 292.732949 
L 451.807688 261.972612 
L 450.899817 303.220994 
L 449.991946 313.524194 
L 449.084076 306.533368 
L 448.176205 320.566871 
L 447.268334 324.959587 
L 446.360464 330.791729 
L 445.452593 330.791729 
L 444.544722 323.158268 
L 442.728981 352.210583 
L 441.82111 357.881107 
L 440.005369 357.574289 
L 439.097498 358.596799 
L 438.189628 358.822507 
L 437.281757 357.515111 
L 436.373887 352.101521 
L 435.466016 335.483681 
L 434.558145 338.039134 
L 433.650275 338.302588 
L 432.742404 333.54053 
L 431.834533 332.213532 
L 430.926663 326.02845 
L 430.018792 327.767552 
L 429.110921 334.209816 
L 428.203051 327.342735 
L 427.29518 325.465718 
L 426.387309 317.796883 
L 425.479439 322.185589 
L 424.571568 334.366241 
L 423.663697 335.46259 
L 422.755827 327.90048 
L 421.847956 327.90048 
L 420.940085 322.486257 
L 420.032215 327.532848 
L 419.124344 335.243753 
L 418.216473 323.757477 
L 417.308603 320.111836 
L 416.400732 319.681665 
L 415.492862 325.047004 
L 414.584991 323.299608 
L 413.67712 320.768519 
L 412.76925 302.474229 
L 411.861379 318.84782 
L 410.953508 312.714561 
L 410.045638 305.361496 
L 409.137767 293.612161 
L 408.229896 310.087396 
L 407.322026 310.179176 
L 406.414155 293.011325 
L 405.506284 281.512381 
L 404.598414 286.711778 
L 403.690543 278.175502 
L 402.782672 300.909193 
L 401.874802 293.164956 
L 400.966931 298.163908 
L 400.05906 311.956823 
L 398.243319 292.260585 
L 397.335448 307.436301 
L 396.427578 303.434083 
L 395.519707 292.359588 
L 394.611836 290.176839 
L 393.703966 250.952521 
L 392.796095 250.117295 
L 391.888225 270.786705 
L 390.980354 253.225256 
L 390.072483 230.41806 
L 389.164613 230.41806 
L 388.256742 269.036954 
L 387.348871 269.036954 
L 386.441001 262.774967 
L 385.53313 257.493013 
L 384.625259 310.039011 
L 383.717389 319.286823 
L 382.809518 326.90415 
L 381.901647 315.947206 
L 380.993777 334.657753 
L 380.085906 338.504083 
L 379.178035 340.526198 
L 378.270165 335.231855 
L 377.362294 335.474614 
L 376.454423 335.924154 
L 375.546553 341.633377 
L 374.638682 330.769754 
L 373.730811 332.81351 
L 372.822941 328.8632 
L 371.91507 323.232414 
L 370.099329 300.331847 
L 369.191458 250.794149 
L 368.283588 283.713647 
L 367.375717 248.403983 
L 366.467846 245.345728 
L 365.559976 222.357206 
L 364.652105 220.838522 
L 363.744234 188.906595 
L 362.836364 229.810272 
L 361.928493 115.288607 
L 361.020622 66.96 
L 360.112752 166.784437 
L 359.204881 166.784437 
L 358.29701 163.850475 
L 357.38914 194.436375 
L 356.481269 196.883317 
L 355.573398 248.761792 
L 354.665528 233.703466 
L 353.757657 205.525746 
L 352.849786 234.045334 
L 351.941916 234.045334 
L 351.034045 231.500315 
L 350.126174 231.753822 
L 349.218304 196.298549 
L 348.310433 196.298549 
L 347.402563 244.605515 
L 346.494692 272.673646 
L 344.678951 317.493437 
L 343.77108 321.617686 
L 341.955339 321.670062 
L 341.047468 323.46854 
L 340.139597 314.242288 
L 339.231727 310.845637 
L 338.323856 291.667848 
L 337.415985 293.702021 
L 336.508115 315.076429 
L 335.600244 315.076429 
L 334.692373 325.152116 
L 333.784503 325.152116 
L 332.876632 332.095598 
L 331.968761 335.857807 
L 331.060891 335.994544 
L 330.15302 338.331791 
L 329.245149 338.331791 
L 328.337279 334.620093 
L 327.429408 334.620093 
L 326.521538 324.404829 
L 325.613667 323.680321 
L 324.705796 318.343145 
L 323.797926 293.060022 
L 322.890055 302.715897 
L 321.982184 280.65695 
L 321.074314 290.123064 
L 319.258572 315.178478 
L 318.350702 310.103189 
L 317.442831 344.246526 
L 316.53496 348.404268 
L 315.62709 351.744629 
L 313.811348 356.040173 
L 312.903478 354.369282 
L 311.995607 354.763064 
L 311.087736 347.11912 
L 310.179866 341.602643 
L 309.271995 334.336819 
L 308.364124 324.729663 
L 307.456254 290.963951 
L 306.548383 290.963951 
L 305.640513 305.548873 
L 304.732642 324.791666 
L 303.824771 322.992497 
L 302.916901 319.191278 
L 302.00903 319.809101 
L 301.101159 312.678643 
L 300.193289 312.678643 
L 299.285418 310.58575 
L 298.377547 250.090251 
L 297.469677 279.667186 
L 296.561806 271.100409 
L 295.653935 220.745195 
L 293.838194 220.745195 
L 292.930323 113.076092 
L 292.022453 175.165864 
L 291.114582 130.205586 
L 290.206711 130.205586 
L 289.298841 140.005566 
L 288.39097 161.329603 
L 287.483099 271.317041 
L 286.575229 266.904751 
L 285.667358 257.749466 
L 284.759487 245.482615 
L 282.943746 277.480001 
L 282.035876 297.876743 
L 281.128005 283.103571 
L 280.220134 306.935291 
L 279.312264 305.11381 
L 278.404393 307.027117 
L 277.496522 321.089261 
L 276.588652 323.661442 
L 275.680781 314.73077 
L 274.77291 323.594841 
L 273.86504 309.397044 
L 272.957169 319.54885 
L 272.049298 320.770382 
L 271.141428 317.492769 
L 270.233557 323.153858 
L 269.325686 326.926245 
L 268.417816 315.077031 
L 267.509945 315.077031 
L 266.602074 310.689957 
L 265.694204 311.785048 
L 264.786333 317.018069 
L 263.878462 301.93618 
L 262.970592 302.512586 
L 262.062721 314.435307 
L 261.154851 314.435307 
L 260.24698 338.947509 
L 259.339109 344.352182 
L 258.431239 344.202787 
L 257.523368 346.051952 
L 256.615497 348.211903 
L 255.707627 350.082825 
L 254.799756 351.272938 
L 253.891885 346.917915 
L 252.076144 342.804694 
L 251.168273 346.520913 
L 250.260403 342.57623 
L 249.352532 344.09336 
L 248.444661 352.251044 
L 247.536791 350.171804 
L 245.721049 352.529944 
L 244.813179 353.009109 
L 242.997437 353.091555 
L 242.089567 345.939793 
L 241.181696 351.44524 
L 240.273826 352.774857 
L 239.365955 357.003994 
L 238.458084 356.237415 
L 237.550214 356.237415 
L 236.642343 354.344881 
L 235.734472 355.06655 
L 233.918731 351.578096 
L 233.01086 346.167228 
L 232.10299 351.497027 
L 230.287248 354.132647 
L 229.379378 354.434808 
L 228.471507 354.461184 
L 227.563636 356.286646 
L 225.747895 349.974079 
L 224.840024 349.798646 
L 223.932154 349.176634 
L 223.024283 352.537969 
L 222.116412 352.679899 
L 221.208542 351.398982 
L 220.300671 352.530354 
L 219.3928 350.427017 
L 217.577059 347.487458 
L 216.669189 338.968438 
L 215.761318 344.856162 
L 214.853447 342.047867 
L 213.945577 349.023854 
L 212.129835 352.695278 
L 211.221965 354.510539 
L 210.314094 356.862293 
L 209.406223 357.742168 
L 208.498353 360.192532 
L 207.590482 359.974011 
L 206.682611 362.505755 
L 205.774741 362.447546 
L 204.86687 363.772278 
L 203.958999 363.344953 
L 202.143258 362.05405 
L 201.235387 361.166987 
L 200.327517 357.864469 
L 199.419646 359.059943 
L 198.511775 354.428591 
L 197.603905 357.028552 
L 196.696034 357.270118 
L 195.788164 354.904119 
L 194.880293 354.904119 
L 193.972422 353.4029 
L 193.064552 352.483944 
L 192.156681 352.332779 
L 191.24881 348.961614 
L 190.34094 347.653454 
L 188.525198 350.009296 
L 187.617328 353.071816 
L 186.709457 353.849608 
L 185.801586 361.404705 
L 184.893716 360.660727 
L 183.985845 363.047771 
L 182.170104 362.792442 
L 181.262233 362.555154 
L 180.354362 363.247375 
L 179.446492 359.75617 
L 178.538621 361.946995 
L 177.63075 359.22365 
L 176.72288 360.673719 
L 175.815009 361.228527 
L 174.907138 360.936652 
L 173.999268 361.194151 
L 173.091397 361.709739 
L 172.183527 361.727992 
L 171.275656 361.00513 
L 170.367785 360.017496 
L 169.459915 360.555019 
L 168.552044 360.5912 
L 167.644173 362.695441 
L 166.736303 364.049446 
L 165.828432 365.129286 
L 164.920561 365.632245 
L 164.012691 366.317695 
L 163.10482 366.676537 
L 162.196949 366.613455 
L 160.381208 365.51173 
L 159.473337 366.522035 
L 158.565467 366.220156 
L 157.657596 365.347688 
L 156.749725 364.195586 
L 155.841855 364.842791 
L 154.933984 365.256012 
L 154.026113 364.721339 
L 153.118243 358.133786 
L 152.210372 358.133786 
L 151.302502 365.933664 
L 150.394631 367.001921 
L 149.48676 366.808962 
L 148.57889 367.860287 
L 146.763148 367.900886 
L 145.855278 368.043745 
L 144.947407 367.877593 
L 144.039536 367.433043 
L 143.131666 367.542251 
L 142.223795 366.175356 
L 141.315924 366.711411 
L 140.408054 366.776367 
L 139.500183 367.584647 
L 138.592312 367.432507 
L 137.684442 367.866372 
L 136.776571 367.787218 
L 135.8687 368.139141 
L 132.237218 367.982602 
L 131.329347 368.149859 
L 130.421477 368.149859 
L 129.513606 367.917093 
L 128.605735 368.134936 
L 127.697865 368.099763 
L 126.789994 368.331339 
L 125.882123 368.23052 
L 124.066382 368.841255 
L 122.250641 368.901566 
L 121.34277 369.121551 
L 120.434899 369.003908 
L 119.527029 369.222059 
L 116.803417 368.981133 
L 114.079805 369.178026 
L 113.171934 368.887236 
L 111.356193 368.887236 
L 110.448322 369.234086 
L 110.448322 369.234086 
" style="fill:none;stroke:#ff7f0e;stroke-linecap:square;stroke-width:1.5;"/>
   </g>
   <g id="patch_3">
    <path d="M 72 384.48 
L 72 51.84 
" style="fill:none;stroke:#000000;stroke-linecap:square;stroke-linejoin:miter;stroke-width:0.8;"/>
   </g>
   <g id="patch_4">
    <path d="M 518.4 384.48 
L 518.4 51.84 
" style="fill:none;stroke:#000000;stroke-linecap:square;stroke-linejoin:miter;stroke-width:0.8;"/>
   </g>
   <g id="patch_5">
    <path d="M 72 384.48 
L 518.4 384.48 
" style="fill:none;stroke:#000000;stroke-linecap:square;stroke-linejoin:miter;stroke-width:0.8;"/>
   </g>
   <g id="patch_6">
    <path d="M 72 51.84 
L 518.4 51.84 
" style="fill:none;stroke:#000000;stroke-linecap:square;stroke-linejoin:miter;stroke-width:0.8;"/>
   </g>
   <g id="text_20">
    <!-- Doubling Time -->
    <defs>
     <path d="M 48.6875 27.296875 
Q 48.6875 37.203125 44.609375 42.84375 
Q 40.53125 48.484375 33.40625 48.484375 
Q 26.265625 48.484375 22.1875 42.84375 
Q 18.109375 37.203125 18.109375 27.296875 
Q 18.109375 17.390625 22.1875 11.75 
Q 26.265625 6.109375 33.40625 6.109375 
Q 40.53125 6.109375 44.609375 11.75 
Q 48.6875 17.390625 48.6875 27.296875 
z
M 18.109375 46.390625 
Q 20.953125 51.265625 25.265625 53.625 
Q 29.59375 56 35.59375 56 
Q 45.5625 56 51.78125 48.09375 
Q 58.015625 40.1875 58.015625 27.296875 
Q 58.015625 14.40625 51.78125 6.484375 
Q 45.5625 -1.421875 35.59375 -1.421875 
Q 29.59375 -1.421875 25.265625 0.953125 
Q 20.953125 3.328125 18.109375 8.203125 
L 18.109375 0 
L 9.078125 0 
L 9.078125 75.984375 
L 18.109375 75.984375 
z
" id="DejaVuSans-98"/>
     <path d="M 9.421875 75.984375 
L 18.40625 75.984375 
L 18.40625 0 
L 9.421875 0 
z
" id="DejaVuSans-108"/>
     <path d="M 45.40625 27.984375 
Q 45.40625 37.75 41.375 43.109375 
Q 37.359375 48.484375 30.078125 48.484375 
Q 22.859375 48.484375 18.828125 43.109375 
Q 14.796875 37.75 14.796875 27.984375 
Q 14.796875 18.265625 18.828125 12.890625 
Q 22.859375 7.515625 30.078125 7.515625 
Q 37.359375 7.515625 41.375 12.890625 
Q 45.40625 18.265625 45.40625 27.984375 
z
M 54.390625 6.78125 
Q 54.390625 -7.171875 48.1875 -13.984375 
Q 42 -20.796875 29.203125 -20.796875 
Q 24.46875 -20.796875 20.265625 -20.09375 
Q 16.0625 -19.390625 12.109375 -17.921875 
L 12.109375 -9.1875 
Q 16.0625 -11.328125 19.921875 -12.34375 
Q 23.78125 -13.375 27.78125 -13.375 
Q 36.625 -13.375 41.015625 -8.765625 
Q 45.40625 -4.15625 45.40625 5.171875 
L 45.40625 9.625 
Q 42.625 4.78125 38.28125 2.390625 
Q 33.9375 0 27.875 0 
Q 17.828125 0 11.671875 7.65625 
Q 5.515625 15.328125 5.515625 27.984375 
Q 5.515625 40.671875 11.671875 48.328125 
Q 17.828125 56 27.875 56 
Q 33.9375 56 38.28125 53.609375 
Q 42.625 51.21875 45.40625 46.390625 
L 45.40625 54.6875 
L 54.390625 54.6875 
z
" id="DejaVuSans-103"/>
     <path d="M -0.296875 72.90625 
L 61.375 72.90625 
L 61.375 64.59375 
L 35.5 64.59375 
L 35.5 0 
L 25.59375 0 
L 25.59375 64.59375 
L -0.296875 64.59375 
z
" id="DejaVuSans-84"/>
     <path d="M 52 44.1875 
Q 55.375 50.25 60.0625 53.125 
Q 64.75 56 71.09375 56 
Q 79.640625 56 84.28125 50.015625 
Q 88.921875 44.046875 88.921875 33.015625 
L 88.921875 0 
L 79.890625 0 
L 79.890625 32.71875 
Q 79.890625 40.578125 77.09375 44.375 
Q 74.3125 48.1875 68.609375 48.1875 
Q 61.625 48.1875 57.5625 43.546875 
Q 53.515625 38.921875 53.515625 30.90625 
L 53.515625 0 
L 44.484375 0 
L 44.484375 32.71875 
Q 44.484375 40.625 41.703125 44.40625 
Q 38.921875 48.1875 33.109375 48.1875 
Q 26.21875 48.1875 22.15625 43.53125 
Q 18.109375 38.875 18.109375 30.90625 
L 18.109375 0 
L 9.078125 0 
L 9.078125 54.6875 
L 18.109375 54.6875 
L 18.109375 46.1875 
Q 21.1875 51.21875 25.484375 53.609375 
Q 29.78125 56 35.6875 56 
Q 41.65625 56 45.828125 52.96875 
Q 50 49.953125 52 44.1875 
z
" id="DejaVuSans-109"/>
    </defs>
    <g transform="translate(251.764687 45.84)scale(0.12 -0.12)">
     <use xlink:href="#DejaVuSans-68"/>
     <use x="77.001953" xlink:href="#DejaVuSans-111"/>
     <use x="138.183594" xlink:href="#DejaVuSans-117"/>
     <use x="201.5625" xlink:href="#DejaVuSans-98"/>
     <use x="265.039062" xlink:href="#DejaVuSans-108"/>
     <use x="292.822266" xlink:href="#DejaVuSans-105"/>
     <use x="320.605469" xlink:href="#DejaVuSans-110"/>
     <use x="383.984375" xlink:href="#DejaVuSans-103"/>
     <use x="447.460938" xlink:href="#DejaVuSans-32"/>
     <use x="479.248047" xlink:href="#DejaVuSans-84"/>
     <use x="537.207031" xlink:href="#DejaVuSans-105"/>
     <use x="564.990234" xlink:href="#DejaVuSans-109"/>
     <use x="662.402344" xlink:href="#DejaVuSans-101"/>
    </g>
   </g>
   <g id="legend_1">
    <g id="patch_7">
     <path d="M 79 89.19625 
L 354.582813 89.19625 
Q 356.582813 89.19625 356.582813 87.19625 
L 356.582813 58.84 
Q 356.582813 56.84 354.582813 56.84 
L 79 56.84 
Q 77 56.84 77 58.84 
L 77 87.19625 
Q 77 89.19625 79 89.19625 
z
" style="fill:#ffffff;opacity:0.8;stroke:#cccccc;stroke-linejoin:miter;"/>
    </g>
    <g id="line2d_20">
     <path d="M 81 64.938437 
L 101 64.938437 
" style="fill:none;stroke:#1f77b4;stroke-linecap:square;stroke-width:1.5;"/>
    </g>
    <g id="line2d_21"/>
    <g id="text_21">
     <!-- Doubling Time of Confirmed Cases (over 7 days) -->
     <defs>
      <path d="M 37.109375 75.984375 
L 37.109375 68.5 
L 28.515625 68.5 
Q 23.6875 68.5 21.796875 66.546875 
Q 19.921875 64.59375 19.921875 59.515625 
L 19.921875 54.6875 
L 34.71875 54.6875 
L 34.71875 47.703125 
L 19.921875 47.703125 
L 19.921875 0 
L 10.890625 0 
L 10.890625 47.703125 
L 2.296875 47.703125 
L 2.296875 54.6875 
L 10.890625 54.6875 
L 10.890625 58.5 
Q 10.890625 67.625 15.140625 71.796875 
Q 19.390625 75.984375 28.609375 75.984375 
z
" id="DejaVuSans-102"/>
      <path d="M 64.40625 67.28125 
L 64.40625 56.890625 
Q 59.421875 61.53125 53.78125 63.8125 
Q 48.140625 66.109375 41.796875 66.109375 
Q 29.296875 66.109375 22.65625 58.46875 
Q 16.015625 50.828125 16.015625 36.375 
Q 16.015625 21.96875 22.65625 14.328125 
Q 29.296875 6.6875 41.796875 6.6875 
Q 48.140625 6.6875 53.78125 8.984375 
Q 59.421875 11.28125 64.40625 15.921875 
L 64.40625 5.609375 
Q 59.234375 2.09375 53.4375 0.328125 
Q 47.65625 -1.421875 41.21875 -1.421875 
Q 24.65625 -1.421875 15.125 8.703125 
Q 5.609375 18.84375 5.609375 36.375 
Q 5.609375 53.953125 15.125 64.078125 
Q 24.65625 74.21875 41.21875 74.21875 
Q 47.75 74.21875 53.53125 72.484375 
Q 59.328125 70.75 64.40625 67.28125 
z
" id="DejaVuSans-67"/>
      <path d="M 31 75.875 
Q 24.46875 64.65625 21.28125 53.65625 
Q 18.109375 42.671875 18.109375 31.390625 
Q 18.109375 20.125 21.3125 9.0625 
Q 24.515625 -2 31 -13.1875 
L 23.1875 -13.1875 
Q 15.875 -1.703125 12.234375 9.375 
Q 8.59375 20.453125 8.59375 31.390625 
Q 8.59375 42.28125 12.203125 53.3125 
Q 15.828125 64.359375 23.1875 75.875 
z
" id="DejaVuSans-40"/>
      <path d="M 2.984375 54.6875 
L 12.5 54.6875 
L 29.59375 8.796875 
L 46.6875 54.6875 
L 56.203125 54.6875 
L 35.6875 0 
L 23.484375 0 
z
" id="DejaVuSans-118"/>
      <path d="M 8.015625 75.875 
L 15.828125 75.875 
Q 23.140625 64.359375 26.78125 53.3125 
Q 30.421875 42.28125 30.421875 31.390625 
Q 30.421875 20.453125 26.78125 9.375 
Q 23.140625 -1.703125 15.828125 -13.1875 
L 8.015625 -13.1875 
Q 14.5 -2 17.703125 9.0625 
Q 20.90625 20.125 20.90625 31.390625 
Q 20.90625 42.671875 17.703125 53.65625 
Q 14.5 64.65625 8.015625 75.875 
z
" id="DejaVuSans-41"/>
     </defs>
     <g transform="translate(109 68.438437)scale(0.1 -0.1)">
      <use xlink:href="#DejaVuSans-68"/>
      <use x="77.001953" xlink:href="#DejaVuSans-111"/>
      <use x="138.183594" xlink:href="#DejaVuSans-117"/>
      <use x="201.5625" xlink:href="#DejaVuSans-98"/>
      <use x="265.039062" xlink:href="#DejaVuSans-108"/>
      <use x="292.822266" xlink:href="#DejaVuSans-105"/>
      <use x="320.605469" xlink:href="#DejaVuSans-110"/>
      <use x="383.984375" xlink:href="#DejaVuSans-103"/>
      <use x="447.460938" xlink:href="#DejaVuSans-32"/>
      <use x="479.248047" xlink:href="#DejaVuSans-84"/>
      <use x="537.207031" xlink:href="#DejaVuSans-105"/>
      <use x="564.990234" xlink:href="#DejaVuSans-109"/>
      <use x="662.402344" xlink:href="#DejaVuSans-101"/>
      <use x="723.925781" xlink:href="#DejaVuSans-32"/>
      <use x="755.712891" xlink:href="#DejaVuSans-111"/>
      <use x="816.894531" xlink:href="#DejaVuSans-102"/>
      <use x="852.099609" xlink:href="#DejaVuSans-32"/>
      <use x="883.886719" xlink:href="#DejaVuSans-67"/>
      <use x="953.710938" xlink:href="#DejaVuSans-111"/>
      <use x="1014.892578" xlink:href="#DejaVuSans-110"/>
      <use x="1078.271484" xlink:href="#DejaVuSans-102"/>
      <use x="1113.476562" xlink:href="#DejaVuSans-105"/>
      <use x="1141.259766" xlink:href="#DejaVuSans-114"/>
      <use x="1180.623047" xlink:href="#DejaVuSans-109"/>
      <use x="1278.035156" xlink:href="#DejaVuSans-101"/>
      <use x="1339.558594" xlink:href="#DejaVuSans-100"/>
      <use x="1403.035156" xlink:href="#DejaVuSans-32"/>
      <use x="1434.822266" xlink:href="#DejaVuSans-67"/>
      <use x="1504.646484" xlink:href="#DejaVuSans-97"/>
      <use x="1565.925781" xlink:href="#DejaVuSans-115"/>
      <use x="1618.025391" xlink:href="#DejaVuSans-101"/>
      <use x="1679.548828" xlink:href="#DejaVuSans-115"/>
      <use x="1731.648438" xlink:href="#DejaVuSans-32"/>
      <use x="1763.435547" xlink:href="#DejaVuSans-40"/>
      <use x="1802.449219" xlink:href="#DejaVuSans-111"/>
      <use x="1863.630859" xlink:href="#DejaVuSans-118"/>
      <use x="1922.810547" xlink:href="#DejaVuSans-101"/>
      <use x="1984.333984" xlink:href="#DejaVuSans-114"/>
      <use x="2025.447266" xlink:href="#DejaVuSans-32"/>
      <use x="2057.234375" xlink:href="#DejaVuSans-55"/>
      <use x="2120.857422" xlink:href="#DejaVuSans-32"/>
      <use x="2152.644531" xlink:href="#DejaVuSans-100"/>
      <use x="2216.121094" xlink:href="#DejaVuSans-97"/>
      <use x="2277.400391" xlink:href="#DejaVuSans-121"/>
      <use x="2336.580078" xlink:href="#DejaVuSans-115"/>
      <use x="2388.679688" xlink:href="#DejaVuSans-41"/>
     </g>
    </g>
    <g id="line2d_22">
     <path d="M 81 79.616562 
L 101 79.616562 
" style="fill:none;stroke:#ff7f0e;stroke-linecap:square;stroke-width:1.5;"/>
    </g>
    <g id="line2d_23"/>
    <g id="text_22">
     <!-- Doubling Time of Recovered Cases (over 7 days) -->
     <defs>
      <path d="M 48.78125 52.59375 
L 48.78125 44.1875 
Q 44.96875 46.296875 41.140625 47.34375 
Q 37.3125 48.390625 33.40625 48.390625 
Q 24.65625 48.390625 19.8125 42.84375 
Q 14.984375 37.3125 14.984375 27.296875 
Q 14.984375 17.28125 19.8125 11.734375 
Q 24.65625 6.203125 33.40625 6.203125 
Q 37.3125 6.203125 41.140625 7.25 
Q 44.96875 8.296875 48.78125 10.40625 
L 48.78125 2.09375 
Q 45.015625 0.34375 40.984375 -0.53125 
Q 36.96875 -1.421875 32.421875 -1.421875 
Q 20.0625 -1.421875 12.78125 6.34375 
Q 5.515625 14.109375 5.515625 27.296875 
Q 5.515625 40.671875 12.859375 48.328125 
Q 20.21875 56 33.015625 56 
Q 37.15625 56 41.109375 55.140625 
Q 45.0625 54.296875 48.78125 52.59375 
z
" id="DejaVuSans-99"/>
     </defs>
     <g transform="translate(109 83.116562)scale(0.1 -0.1)">
      <use xlink:href="#DejaVuSans-68"/>
      <use x="77.001953" xlink:href="#DejaVuSans-111"/>
      <use x="138.183594" xlink:href="#DejaVuSans-117"/>
      <use x="201.5625" xlink:href="#DejaVuSans-98"/>
      <use x="265.039062" xlink:href="#DejaVuSans-108"/>
      <use x="292.822266" xlink:href="#DejaVuSans-105"/>
      <use x="320.605469" xlink:href="#DejaVuSans-110"/>
      <use x="383.984375" xlink:href="#DejaVuSans-103"/>
      <use x="447.460938" xlink:href="#DejaVuSans-32"/>
      <use x="479.248047" xlink:href="#DejaVuSans-84"/>
      <use x="537.207031" xlink:href="#DejaVuSans-105"/>
      <use x="564.990234" xlink:href="#DejaVuSans-109"/>
      <use x="662.402344" xlink:href="#DejaVuSans-101"/>
      <use x="723.925781" xlink:href="#DejaVuSans-32"/>
      <use x="755.712891" xlink:href="#DejaVuSans-111"/>
      <use x="816.894531" xlink:href="#DejaVuSans-102"/>
      <use x="852.099609" xlink:href="#DejaVuSans-32"/>
      <use x="883.886719" xlink:href="#DejaVuSans-82"/>
      <use x="948.869141" xlink:href="#DejaVuSans-101"/>
      <use x="1010.392578" xlink:href="#DejaVuSans-99"/>
      <use x="1065.373047" xlink:href="#DejaVuSans-111"/>
      <use x="1126.554688" xlink:href="#DejaVuSans-118"/>
      <use x="1185.734375" xlink:href="#DejaVuSans-101"/>
      <use x="1247.257812" xlink:href="#DejaVuSans-114"/>
      <use x="1286.121094" xlink:href="#DejaVuSans-101"/>
      <use x="1347.644531" xlink:href="#DejaVuSans-100"/>
      <use x="1411.121094" xlink:href="#DejaVuSans-32"/>
      <use x="1442.908203" xlink:href="#DejaVuSans-67"/>
      <use x="1512.732422" xlink:href="#DejaVuSans-97"/>
      <use x="1574.011719" xlink:href="#DejaVuSans-115"/>
      <use x="1626.111328" xlink:href="#DejaVuSans-101"/>
      <use x="1687.634766" xlink:href="#DejaVuSans-115"/>
      <use x="1739.734375" xlink:href="#DejaVuSans-32"/>
      <use x="1771.521484" xlink:href="#DejaVuSans-40"/>
      <use x="1810.535156" xlink:href="#DejaVuSans-111"/>
      <use x="1871.716797" xlink:href="#DejaVuSans-118"/>
      <use x="1930.896484" xlink:href="#DejaVuSans-101"/>
      <use x="1992.419922" xlink:href="#DejaVuSans-114"/>
      <use x="2033.533203" xlink:href="#DejaVuSans-32"/>
      <use x="2065.320312" xlink:href="#DejaVuSans-55"/>
      <use x="2128.943359" xlink:href="#DejaVuSans-32"/>
      <use x="2160.730469" xlink:href="#DejaVuSans-100"/>
      <use x="2224.207031" xlink:href="#DejaVuSans-97"/>
      <use x="2285.486328" xlink:href="#DejaVuSans-121"/>
      <use x="2344.666016" xlink:href="#DejaVuSans-115"/>
      <use x="2396.765625" xlink:href="#DejaVuSans-41"/>
     </g>
    </g>
   </g>
  </g>
 </g>
 <defs>
  <clipPath id="pebafac878a">
   <rect height="332.64" width="446.4" x="72" y="51.84"/>
  </clipPath>
 </defs>
</svg>
