<?xml version="1.0" encoding="utf-8" standalone="no"?>
<!DOCTYPE svg PUBLIC "-//W3C//DTD SVG 1.1//EN"
  "http://www.w3.org/Graphics/SVG/1.1/DTD/svg11.dtd">
<!-- Created with matplotlib (https://matplotlib.org/) -->
<svg height="432pt" version="1.1" viewBox="0 0 576 432" width="576pt" xmlns="http://www.w3.org/2000/svg" xmlns:xlink="http://www.w3.org/1999/xlink">
 <defs>
  <style type="text/css">
*{stroke-linecap:butt;stroke-linejoin:round;}
  </style>
 </defs>
 <g id="figure_1">
  <g id="patch_1">
   <path d="M 0 432 
L 576 432 
L 576 0 
L 0 0 
z
" style="fill:#ffffff;"/>
  </g>
  <g id="axes_1">
   <g id="patch_2">
    <path d="M 72 384.48 
L 518.4 384.48 
L 518.4 51.84 
L 72 51.84 
z
" style="fill:#ffffff;"/>
   </g>
   <g id="matplotlib.axis_1">
    <g id="xtick_1">
     <g id="line2d_1">
      <defs>
       <path d="M 0 0 
L 0 3.5 
" id="m85f2138830" style="stroke:#000000;stroke-width:0.8;"/>
      </defs>
      <g>
       <use style="stroke:#000000;stroke-width:0.8;" x="95.42464" xlink:href="#m85f2138830" y="384.48"/>
      </g>
     </g>
     <g id="text_1">
      <!-- 2020-03 -->
      <defs>
       <path d="M 19.1875 8.296875 
L 53.609375 8.296875 
L 53.609375 0 
L 7.328125 0 
L 7.328125 8.296875 
Q 12.9375 14.109375 22.625 23.890625 
Q 32.328125 33.6875 34.8125 36.53125 
Q 39.546875 41.84375 41.421875 45.53125 
Q 43.3125 49.21875 43.3125 52.78125 
Q 43.3125 58.59375 39.234375 62.25 
Q 35.15625 65.921875 28.609375 65.921875 
Q 23.96875 65.921875 18.8125 64.3125 
Q 13.671875 62.703125 7.8125 59.421875 
L 7.8125 69.390625 
Q 13.765625 71.78125 18.9375 73 
Q 24.125 74.21875 28.421875 74.21875 
Q 39.75 74.21875 46.484375 68.546875 
Q 53.21875 62.890625 53.21875 53.421875 
Q 53.21875 48.921875 51.53125 44.890625 
Q 49.859375 40.875 45.40625 35.40625 
Q 44.1875 33.984375 37.640625 27.21875 
Q 31.109375 20.453125 19.1875 8.296875 
z
" id="DejaVuSans-50"/>
       <path d="M 31.78125 66.40625 
Q 24.171875 66.40625 20.328125 58.90625 
Q 16.5 51.421875 16.5 36.375 
Q 16.5 21.390625 20.328125 13.890625 
Q 24.171875 6.390625 31.78125 6.390625 
Q 39.453125 6.390625 43.28125 13.890625 
Q 47.125 21.390625 47.125 36.375 
Q 47.125 51.421875 43.28125 58.90625 
Q 39.453125 66.40625 31.78125 66.40625 
z
M 31.78125 74.21875 
Q 44.046875 74.21875 50.515625 64.515625 
Q 56.984375 54.828125 56.984375 36.375 
Q 56.984375 17.96875 50.515625 8.265625 
Q 44.046875 -1.421875 31.78125 -1.421875 
Q 19.53125 -1.421875 13.0625 8.265625 
Q 6.59375 17.96875 6.59375 36.375 
Q 6.59375 54.828125 13.0625 64.515625 
Q 19.53125 74.21875 31.78125 74.21875 
z
" id="DejaVuSans-48"/>
       <path d="M 4.890625 31.390625 
L 31.203125 31.390625 
L 31.203125 23.390625 
L 4.890625 23.390625 
z
" id="DejaVuSans-45"/>
       <path d="M 40.578125 39.3125 
Q 47.65625 37.796875 51.625 33 
Q 55.609375 28.21875 55.609375 21.1875 
Q 55.609375 10.40625 48.1875 4.484375 
Q 40.765625 -1.421875 27.09375 -1.421875 
Q 22.515625 -1.421875 17.65625 -0.515625 
Q 12.796875 0.390625 7.625 2.203125 
L 7.625 11.71875 
Q 11.71875 9.328125 16.59375 8.109375 
Q 21.484375 6.890625 26.8125 6.890625 
Q 36.078125 6.890625 40.9375 10.546875 
Q 45.796875 14.203125 45.796875 21.1875 
Q 45.796875 27.640625 41.28125 31.265625 
Q 36.765625 34.90625 28.71875 34.90625 
L 20.21875 34.90625 
L 20.21875 43.015625 
L 29.109375 43.015625 
Q 36.375 43.015625 40.234375 45.921875 
Q 44.09375 48.828125 44.09375 54.296875 
Q 44.09375 59.90625 40.109375 62.90625 
Q 36.140625 65.921875 28.71875 65.921875 
Q 24.65625 65.921875 20.015625 65.03125 
Q 15.375 64.15625 9.8125 62.3125 
L 9.8125 71.09375 
Q 15.4375 72.65625 20.34375 73.4375 
Q 25.25 74.21875 29.59375 74.21875 
Q 40.828125 74.21875 47.359375 69.109375 
Q 53.90625 64.015625 53.90625 55.328125 
Q 53.90625 49.265625 50.4375 45.09375 
Q 46.96875 40.921875 40.578125 39.3125 
z
" id="DejaVuSans-51"/>
      </defs>
      <g transform="translate(74.533234 399.078438)scale(0.1 -0.1)">
       <use xlink:href="#DejaVuSans-50"/>
       <use x="63.623047" xlink:href="#DejaVuSans-48"/>
       <use x="127.246094" xlink:href="#DejaVuSans-50"/>
       <use x="190.869141" xlink:href="#DejaVuSans-48"/>
       <use x="254.492188" xlink:href="#DejaVuSans-45"/>
       <use x="290.576172" xlink:href="#DejaVuSans-48"/>
       <use x="354.199219" xlink:href="#DejaVuSans-51"/>
      </g>
     </g>
    </g>
    <g id="xtick_2">
     <g id="line2d_2">
      <g>
       <use style="stroke:#000000;stroke-width:0.8;" x="143.997473" xlink:href="#m85f2138830" y="384.48"/>
      </g>
     </g>
     <g id="text_2">
      <!-- 2020-04 -->
      <defs>
       <path d="M 37.796875 64.3125 
L 12.890625 25.390625 
L 37.796875 25.390625 
z
M 35.203125 72.90625 
L 47.609375 72.90625 
L 47.609375 25.390625 
L 58.015625 25.390625 
L 58.015625 17.1875 
L 47.609375 17.1875 
L 47.609375 0 
L 37.796875 0 
L 37.796875 17.1875 
L 4.890625 17.1875 
L 4.890625 26.703125 
z
" id="DejaVuSans-52"/>
      </defs>
      <g transform="translate(123.106067 399.078438)scale(0.1 -0.1)">
       <use xlink:href="#DejaVuSans-50"/>
       <use x="63.623047" xlink:href="#DejaVuSans-48"/>
       <use x="127.246094" xlink:href="#DejaVuSans-50"/>
       <use x="190.869141" xlink:href="#DejaVuSans-48"/>
       <use x="254.492188" xlink:href="#DejaVuSans-45"/>
       <use x="290.576172" xlink:href="#DejaVuSans-48"/>
       <use x="354.199219" xlink:href="#DejaVuSans-52"/>
      </g>
     </g>
    </g>
    <g id="xtick_3">
     <g id="line2d_3">
      <g>
       <use style="stroke:#000000;stroke-width:0.8;" x="191.00344" xlink:href="#m85f2138830" y="384.48"/>
      </g>
     </g>
     <g id="text_3">
      <!-- 2020-05 -->
      <defs>
       <path d="M 10.796875 72.90625 
L 49.515625 72.90625 
L 49.515625 64.59375 
L 19.828125 64.59375 
L 19.828125 46.734375 
Q 21.96875 47.46875 24.109375 47.828125 
Q 26.265625 48.1875 28.421875 48.1875 
Q 40.625 48.1875 47.75 41.5 
Q 54.890625 34.8125 54.890625 23.390625 
Q 54.890625 11.625 47.5625 5.09375 
Q 40.234375 -1.421875 26.90625 -1.421875 
Q 22.3125 -1.421875 17.546875 -0.640625 
Q 12.796875 0.140625 7.71875 1.703125 
L 7.71875 11.625 
Q 12.109375 9.234375 16.796875 8.0625 
Q 21.484375 6.890625 26.703125 6.890625 
Q 35.15625 6.890625 40.078125 11.328125 
Q 45.015625 15.765625 45.015625 23.390625 
Q 45.015625 31 40.078125 35.4375 
Q 35.15625 39.890625 26.703125 39.890625 
Q 22.75 39.890625 18.8125 39.015625 
Q 14.890625 38.140625 10.796875 36.28125 
z
" id="DejaVuSans-53"/>
      </defs>
      <g transform="translate(170.112034 399.078438)scale(0.1 -0.1)">
       <use xlink:href="#DejaVuSans-50"/>
       <use x="63.623047" xlink:href="#DejaVuSans-48"/>
       <use x="127.246094" xlink:href="#DejaVuSans-50"/>
       <use x="190.869141" xlink:href="#DejaVuSans-48"/>
       <use x="254.492188" xlink:href="#DejaVuSans-45"/>
       <use x="290.576172" xlink:href="#DejaVuSans-48"/>
       <use x="354.199219" xlink:href="#DejaVuSans-53"/>
      </g>
     </g>
    </g>
    <g id="xtick_4">
     <g id="line2d_4">
      <g>
       <use style="stroke:#000000;stroke-width:0.8;" x="239.576272" xlink:href="#m85f2138830" y="384.48"/>
      </g>
     </g>
     <g id="text_4">
      <!-- 2020-06 -->
      <defs>
       <path d="M 33.015625 40.375 
Q 26.375 40.375 22.484375 35.828125 
Q 18.609375 31.296875 18.609375 23.390625 
Q 18.609375 15.53125 22.484375 10.953125 
Q 26.375 6.390625 33.015625 6.390625 
Q 39.65625 6.390625 43.53125 10.953125 
Q 47.40625 15.53125 47.40625 23.390625 
Q 47.40625 31.296875 43.53125 35.828125 
Q 39.65625 40.375 33.015625 40.375 
z
M 52.59375 71.296875 
L 52.59375 62.3125 
Q 48.875 64.0625 45.09375 64.984375 
Q 41.3125 65.921875 37.59375 65.921875 
Q 27.828125 65.921875 22.671875 59.328125 
Q 17.53125 52.734375 16.796875 39.40625 
Q 19.671875 43.65625 24.015625 45.921875 
Q 28.375 48.1875 33.59375 48.1875 
Q 44.578125 48.1875 50.953125 41.515625 
Q 57.328125 34.859375 57.328125 23.390625 
Q 57.328125 12.15625 50.6875 5.359375 
Q 44.046875 -1.421875 33.015625 -1.421875 
Q 20.359375 -1.421875 13.671875 8.265625 
Q 6.984375 17.96875 6.984375 36.375 
Q 6.984375 53.65625 15.1875 63.9375 
Q 23.390625 74.21875 37.203125 74.21875 
Q 40.921875 74.21875 44.703125 73.484375 
Q 48.484375 72.75 52.59375 71.296875 
z
" id="DejaVuSans-54"/>
      </defs>
      <g transform="translate(218.684866 399.078438)scale(0.1 -0.1)">
       <use xlink:href="#DejaVuSans-50"/>
       <use x="63.623047" xlink:href="#DejaVuSans-48"/>
       <use x="127.246094" xlink:href="#DejaVuSans-50"/>
       <use x="190.869141" xlink:href="#DejaVuSans-48"/>
       <use x="254.492188" xlink:href="#DejaVuSans-45"/>
       <use x="290.576172" xlink:href="#DejaVuSans-48"/>
       <use x="354.199219" xlink:href="#DejaVuSans-54"/>
      </g>
     </g>
    </g>
    <g id="xtick_5">
     <g id="line2d_5">
      <g>
       <use style="stroke:#000000;stroke-width:0.8;" x="286.582239" xlink:href="#m85f2138830" y="384.48"/>
      </g>
     </g>
     <g id="text_5">
      <!-- 2020-07 -->
      <defs>
       <path d="M 8.203125 72.90625 
L 55.078125 72.90625 
L 55.078125 68.703125 
L 28.609375 0 
L 18.3125 0 
L 43.21875 64.59375 
L 8.203125 64.59375 
z
" id="DejaVuSans-55"/>
      </defs>
      <g transform="translate(265.690833 399.078438)scale(0.1 -0.1)">
       <use xlink:href="#DejaVuSans-50"/>
       <use x="63.623047" xlink:href="#DejaVuSans-48"/>
       <use x="127.246094" xlink:href="#DejaVuSans-50"/>
       <use x="190.869141" xlink:href="#DejaVuSans-48"/>
       <use x="254.492188" xlink:href="#DejaVuSans-45"/>
       <use x="290.576172" xlink:href="#DejaVuSans-48"/>
       <use x="354.199219" xlink:href="#DejaVuSans-55"/>
      </g>
     </g>
    </g>
    <g id="xtick_6">
     <g id="line2d_6">
      <g>
       <use style="stroke:#000000;stroke-width:0.8;" x="335.155072" xlink:href="#m85f2138830" y="384.48"/>
      </g>
     </g>
     <g id="text_6">
      <!-- 2020-08 -->
      <defs>
       <path d="M 31.78125 34.625 
Q 24.75 34.625 20.71875 30.859375 
Q 16.703125 27.09375 16.703125 20.515625 
Q 16.703125 13.921875 20.71875 10.15625 
Q 24.75 6.390625 31.78125 6.390625 
Q 38.8125 6.390625 42.859375 10.171875 
Q 46.921875 13.96875 46.921875 20.515625 
Q 46.921875 27.09375 42.890625 30.859375 
Q 38.875 34.625 31.78125 34.625 
z
M 21.921875 38.8125 
Q 15.578125 40.375 12.03125 44.71875 
Q 8.5 49.078125 8.5 55.328125 
Q 8.5 64.0625 14.71875 69.140625 
Q 20.953125 74.21875 31.78125 74.21875 
Q 42.671875 74.21875 48.875 69.140625 
Q 55.078125 64.0625 55.078125 55.328125 
Q 55.078125 49.078125 51.53125 44.71875 
Q 48 40.375 41.703125 38.8125 
Q 48.828125 37.15625 52.796875 32.3125 
Q 56.78125 27.484375 56.78125 20.515625 
Q 56.78125 9.90625 50.3125 4.234375 
Q 43.84375 -1.421875 31.78125 -1.421875 
Q 19.734375 -1.421875 13.25 4.234375 
Q 6.78125 9.90625 6.78125 20.515625 
Q 6.78125 27.484375 10.78125 32.3125 
Q 14.796875 37.15625 21.921875 38.8125 
z
M 18.3125 54.390625 
Q 18.3125 48.734375 21.84375 45.5625 
Q 25.390625 42.390625 31.78125 42.390625 
Q 38.140625 42.390625 41.71875 45.5625 
Q 45.3125 48.734375 45.3125 54.390625 
Q 45.3125 60.0625 41.71875 63.234375 
Q 38.140625 66.40625 31.78125 66.40625 
Q 25.390625 66.40625 21.84375 63.234375 
Q 18.3125 60.0625 18.3125 54.390625 
z
" id="DejaVuSans-56"/>
      </defs>
      <g transform="translate(314.263666 399.078438)scale(0.1 -0.1)">
       <use xlink:href="#DejaVuSans-50"/>
       <use x="63.623047" xlink:href="#DejaVuSans-48"/>
       <use x="127.246094" xlink:href="#DejaVuSans-50"/>
       <use x="190.869141" xlink:href="#DejaVuSans-48"/>
       <use x="254.492188" xlink:href="#DejaVuSans-45"/>
       <use x="290.576172" xlink:href="#DejaVuSans-48"/>
       <use x="354.199219" xlink:href="#DejaVuSans-56"/>
      </g>
     </g>
    </g>
    <g id="xtick_7">
     <g id="line2d_7">
      <g>
       <use style="stroke:#000000;stroke-width:0.8;" x="383.727905" xlink:href="#m85f2138830" y="384.48"/>
      </g>
     </g>
     <g id="text_7">
      <!-- 2020-09 -->
      <defs>
       <path d="M 10.984375 1.515625 
L 10.984375 10.5 
Q 14.703125 8.734375 18.5 7.8125 
Q 22.3125 6.890625 25.984375 6.890625 
Q 35.75 6.890625 40.890625 13.453125 
Q 46.046875 20.015625 46.78125 33.40625 
Q 43.953125 29.203125 39.59375 26.953125 
Q 35.25 24.703125 29.984375 24.703125 
Q 19.046875 24.703125 12.671875 31.3125 
Q 6.296875 37.9375 6.296875 49.421875 
Q 6.296875 60.640625 12.9375 67.421875 
Q 19.578125 74.21875 30.609375 74.21875 
Q 43.265625 74.21875 49.921875 64.515625 
Q 56.59375 54.828125 56.59375 36.375 
Q 56.59375 19.140625 48.40625 8.859375 
Q 40.234375 -1.421875 26.421875 -1.421875 
Q 22.703125 -1.421875 18.890625 -0.6875 
Q 15.09375 0.046875 10.984375 1.515625 
z
M 30.609375 32.421875 
Q 37.25 32.421875 41.125 36.953125 
Q 45.015625 41.5 45.015625 49.421875 
Q 45.015625 57.28125 41.125 61.84375 
Q 37.25 66.40625 30.609375 66.40625 
Q 23.96875 66.40625 20.09375 61.84375 
Q 16.21875 57.28125 16.21875 49.421875 
Q 16.21875 41.5 20.09375 36.953125 
Q 23.96875 32.421875 30.609375 32.421875 
z
" id="DejaVuSans-57"/>
      </defs>
      <g transform="translate(362.836498 399.078438)scale(0.1 -0.1)">
       <use xlink:href="#DejaVuSans-50"/>
       <use x="63.623047" xlink:href="#DejaVuSans-48"/>
       <use x="127.246094" xlink:href="#DejaVuSans-50"/>
       <use x="190.869141" xlink:href="#DejaVuSans-48"/>
       <use x="254.492188" xlink:href="#DejaVuSans-45"/>
       <use x="290.576172" xlink:href="#DejaVuSans-48"/>
       <use x="354.199219" xlink:href="#DejaVuSans-57"/>
      </g>
     </g>
    </g>
    <g id="xtick_8">
     <g id="line2d_8">
      <g>
       <use style="stroke:#000000;stroke-width:0.8;" x="430.733872" xlink:href="#m85f2138830" y="384.48"/>
      </g>
     </g>
     <g id="text_8">
      <!-- 2020-10 -->
      <defs>
       <path d="M 12.40625 8.296875 
L 28.515625 8.296875 
L 28.515625 63.921875 
L 10.984375 60.40625 
L 10.984375 69.390625 
L 28.421875 72.90625 
L 38.28125 72.90625 
L 38.28125 8.296875 
L 54.390625 8.296875 
L 54.390625 0 
L 12.40625 0 
z
" id="DejaVuSans-49"/>
      </defs>
      <g transform="translate(409.842465 399.078438)scale(0.1 -0.1)">
       <use xlink:href="#DejaVuSans-50"/>
       <use x="63.623047" xlink:href="#DejaVuSans-48"/>
       <use x="127.246094" xlink:href="#DejaVuSans-50"/>
       <use x="190.869141" xlink:href="#DejaVuSans-48"/>
       <use x="254.492188" xlink:href="#DejaVuSans-45"/>
       <use x="290.576172" xlink:href="#DejaVuSans-49"/>
       <use x="354.199219" xlink:href="#DejaVuSans-48"/>
      </g>
     </g>
    </g>
    <g id="xtick_9">
     <g id="line2d_9">
      <g>
       <use style="stroke:#000000;stroke-width:0.8;" x="479.306704" xlink:href="#m85f2138830" y="384.48"/>
      </g>
     </g>
     <g id="text_9">
      <!-- 2020-11 -->
      <g transform="translate(458.415298 399.078438)scale(0.1 -0.1)">
       <use xlink:href="#DejaVuSans-50"/>
       <use x="63.623047" xlink:href="#DejaVuSans-48"/>
       <use x="127.246094" xlink:href="#DejaVuSans-50"/>
       <use x="190.869141" xlink:href="#DejaVuSans-48"/>
       <use x="254.492188" xlink:href="#DejaVuSans-45"/>
       <use x="290.576172" xlink:href="#DejaVuSans-49"/>
       <use x="354.199219" xlink:href="#DejaVuSans-49"/>
      </g>
     </g>
    </g>
    <g id="text_10">
     <!-- Reported On -->
     <defs>
      <path d="M 44.390625 34.1875 
Q 47.5625 33.109375 50.5625 29.59375 
Q 53.5625 26.078125 56.59375 19.921875 
L 66.609375 0 
L 56 0 
L 46.6875 18.703125 
Q 43.0625 26.03125 39.671875 28.421875 
Q 36.28125 30.8125 30.421875 30.8125 
L 19.671875 30.8125 
L 19.671875 0 
L 9.8125 0 
L 9.8125 72.90625 
L 32.078125 72.90625 
Q 44.578125 72.90625 50.734375 67.671875 
Q 56.890625 62.453125 56.890625 51.90625 
Q 56.890625 45.015625 53.6875 40.46875 
Q 50.484375 35.9375 44.390625 34.1875 
z
M 19.671875 64.796875 
L 19.671875 38.921875 
L 32.078125 38.921875 
Q 39.203125 38.921875 42.84375 42.21875 
Q 46.484375 45.515625 46.484375 51.90625 
Q 46.484375 58.296875 42.84375 61.546875 
Q 39.203125 64.796875 32.078125 64.796875 
z
" id="DejaVuSans-82"/>
      <path d="M 56.203125 29.59375 
L 56.203125 25.203125 
L 14.890625 25.203125 
Q 15.484375 15.921875 20.484375 11.0625 
Q 25.484375 6.203125 34.421875 6.203125 
Q 39.59375 6.203125 44.453125 7.46875 
Q 49.3125 8.734375 54.109375 11.28125 
L 54.109375 2.78125 
Q 49.265625 0.734375 44.1875 -0.34375 
Q 39.109375 -1.421875 33.890625 -1.421875 
Q 20.796875 -1.421875 13.15625 6.1875 
Q 5.515625 13.8125 5.515625 26.8125 
Q 5.515625 40.234375 12.765625 48.109375 
Q 20.015625 56 32.328125 56 
Q 43.359375 56 49.78125 48.890625 
Q 56.203125 41.796875 56.203125 29.59375 
z
M 47.21875 32.234375 
Q 47.125 39.59375 43.09375 43.984375 
Q 39.0625 48.390625 32.421875 48.390625 
Q 24.90625 48.390625 20.390625 44.140625 
Q 15.875 39.890625 15.1875 32.171875 
z
" id="DejaVuSans-101"/>
      <path d="M 18.109375 8.203125 
L 18.109375 -20.796875 
L 9.078125 -20.796875 
L 9.078125 54.6875 
L 18.109375 54.6875 
L 18.109375 46.390625 
Q 20.953125 51.265625 25.265625 53.625 
Q 29.59375 56 35.59375 56 
Q 45.5625 56 51.78125 48.09375 
Q 58.015625 40.1875 58.015625 27.296875 
Q 58.015625 14.40625 51.78125 6.484375 
Q 45.5625 -1.421875 35.59375 -1.421875 
Q 29.59375 -1.421875 25.265625 0.953125 
Q 20.953125 3.328125 18.109375 8.203125 
z
M 48.6875 27.296875 
Q 48.6875 37.203125 44.609375 42.84375 
Q 40.53125 48.484375 33.40625 48.484375 
Q 26.265625 48.484375 22.1875 42.84375 
Q 18.109375 37.203125 18.109375 27.296875 
Q 18.109375 17.390625 22.1875 11.75 
Q 26.265625 6.109375 33.40625 6.109375 
Q 40.53125 6.109375 44.609375 11.75 
Q 48.6875 17.390625 48.6875 27.296875 
z
" id="DejaVuSans-112"/>
      <path d="M 30.609375 48.390625 
Q 23.390625 48.390625 19.1875 42.75 
Q 14.984375 37.109375 14.984375 27.296875 
Q 14.984375 17.484375 19.15625 11.84375 
Q 23.34375 6.203125 30.609375 6.203125 
Q 37.796875 6.203125 41.984375 11.859375 
Q 46.1875 17.53125 46.1875 27.296875 
Q 46.1875 37.015625 41.984375 42.703125 
Q 37.796875 48.390625 30.609375 48.390625 
z
M 30.609375 56 
Q 42.328125 56 49.015625 48.375 
Q 55.71875 40.765625 55.71875 27.296875 
Q 55.71875 13.875 49.015625 6.21875 
Q 42.328125 -1.421875 30.609375 -1.421875 
Q 18.84375 -1.421875 12.171875 6.21875 
Q 5.515625 13.875 5.515625 27.296875 
Q 5.515625 40.765625 12.171875 48.375 
Q 18.84375 56 30.609375 56 
z
" id="DejaVuSans-111"/>
      <path d="M 41.109375 46.296875 
Q 39.59375 47.171875 37.8125 47.578125 
Q 36.03125 48 33.890625 48 
Q 26.265625 48 22.1875 43.046875 
Q 18.109375 38.09375 18.109375 28.8125 
L 18.109375 0 
L 9.078125 0 
L 9.078125 54.6875 
L 18.109375 54.6875 
L 18.109375 46.1875 
Q 20.953125 51.171875 25.484375 53.578125 
Q 30.03125 56 36.53125 56 
Q 37.453125 56 38.578125 55.875 
Q 39.703125 55.765625 41.0625 55.515625 
z
" id="DejaVuSans-114"/>
      <path d="M 18.3125 70.21875 
L 18.3125 54.6875 
L 36.8125 54.6875 
L 36.8125 47.703125 
L 18.3125 47.703125 
L 18.3125 18.015625 
Q 18.3125 11.328125 20.140625 9.421875 
Q 21.96875 7.515625 27.59375 7.515625 
L 36.8125 7.515625 
L 36.8125 0 
L 27.59375 0 
Q 17.1875 0 13.234375 3.875 
Q 9.28125 7.765625 9.28125 18.015625 
L 9.28125 47.703125 
L 2.6875 47.703125 
L 2.6875 54.6875 
L 9.28125 54.6875 
L 9.28125 70.21875 
z
" id="DejaVuSans-116"/>
      <path d="M 45.40625 46.390625 
L 45.40625 75.984375 
L 54.390625 75.984375 
L 54.390625 0 
L 45.40625 0 
L 45.40625 8.203125 
Q 42.578125 3.328125 38.25 0.953125 
Q 33.9375 -1.421875 27.875 -1.421875 
Q 17.96875 -1.421875 11.734375 6.484375 
Q 5.515625 14.40625 5.515625 27.296875 
Q 5.515625 40.1875 11.734375 48.09375 
Q 17.96875 56 27.875 56 
Q 33.9375 56 38.25 53.625 
Q 42.578125 51.265625 45.40625 46.390625 
z
M 14.796875 27.296875 
Q 14.796875 17.390625 18.875 11.75 
Q 22.953125 6.109375 30.078125 6.109375 
Q 37.203125 6.109375 41.296875 11.75 
Q 45.40625 17.390625 45.40625 27.296875 
Q 45.40625 37.203125 41.296875 42.84375 
Q 37.203125 48.484375 30.078125 48.484375 
Q 22.953125 48.484375 18.875 42.84375 
Q 14.796875 37.203125 14.796875 27.296875 
z
" id="DejaVuSans-100"/>
      <path id="DejaVuSans-32"/>
      <path d="M 39.40625 66.21875 
Q 28.65625 66.21875 22.328125 58.203125 
Q 16.015625 50.203125 16.015625 36.375 
Q 16.015625 22.609375 22.328125 14.59375 
Q 28.65625 6.59375 39.40625 6.59375 
Q 50.140625 6.59375 56.421875 14.59375 
Q 62.703125 22.609375 62.703125 36.375 
Q 62.703125 50.203125 56.421875 58.203125 
Q 50.140625 66.21875 39.40625 66.21875 
z
M 39.40625 74.21875 
Q 54.734375 74.21875 63.90625 63.9375 
Q 73.09375 53.65625 73.09375 36.375 
Q 73.09375 19.140625 63.90625 8.859375 
Q 54.734375 -1.421875 39.40625 -1.421875 
Q 24.03125 -1.421875 14.8125 8.828125 
Q 5.609375 19.09375 5.609375 36.375 
Q 5.609375 53.65625 14.8125 63.9375 
Q 24.03125 74.21875 39.40625 74.21875 
z
" id="DejaVuSans-79"/>
      <path d="M 54.890625 33.015625 
L 54.890625 0 
L 45.90625 0 
L 45.90625 32.71875 
Q 45.90625 40.484375 42.875 44.328125 
Q 39.84375 48.1875 33.796875 48.1875 
Q 26.515625 48.1875 22.3125 43.546875 
Q 18.109375 38.921875 18.109375 30.90625 
L 18.109375 0 
L 9.078125 0 
L 9.078125 54.6875 
L 18.109375 54.6875 
L 18.109375 46.1875 
Q 21.34375 51.125 25.703125 53.5625 
Q 30.078125 56 35.796875 56 
Q 45.21875 56 50.046875 50.171875 
Q 54.890625 44.34375 54.890625 33.015625 
z
" id="DejaVuSans-110"/>
     </defs>
     <g transform="translate(263.680469 412.756563)scale(0.1 -0.1)">
      <use xlink:href="#DejaVuSans-82"/>
      <use x="64.982422" xlink:href="#DejaVuSans-101"/>
      <use x="126.505859" xlink:href="#DejaVuSans-112"/>
      <use x="189.982422" xlink:href="#DejaVuSans-111"/>
      <use x="251.164062" xlink:href="#DejaVuSans-114"/>
      <use x="292.277344" xlink:href="#DejaVuSans-116"/>
      <use x="331.486328" xlink:href="#DejaVuSans-101"/>
      <use x="393.009766" xlink:href="#DejaVuSans-100"/>
      <use x="456.486328" xlink:href="#DejaVuSans-32"/>
      <use x="488.273438" xlink:href="#DejaVuSans-79"/>
      <use x="566.984375" xlink:href="#DejaVuSans-110"/>
     </g>
    </g>
   </g>
   <g id="matplotlib.axis_2">
    <g id="ytick_1">
     <g id="line2d_10">
      <defs>
       <path d="M 0 0 
L -3.5 0 
" id="m32054fd896" style="stroke:#000000;stroke-width:0.8;"/>
      </defs>
      <g>
       <use style="stroke:#000000;stroke-width:0.8;" x="72" xlink:href="#m32054fd896" y="370.137103"/>
      </g>
     </g>
     <g id="text_11">
      <!--   0 -->
      <g transform="translate(52.28125 373.936322)scale(0.1 -0.1)">
       <use xlink:href="#DejaVuSans-32"/>
       <use x="31.787109" xlink:href="#DejaVuSans-32"/>
       <use x="63.574219" xlink:href="#DejaVuSans-48"/>
      </g>
     </g>
    </g>
    <g id="ytick_2">
     <g id="line2d_11">
      <g>
       <use style="stroke:#000000;stroke-width:0.8;" x="72" xlink:href="#m32054fd896" y="302.019562"/>
      </g>
     </g>
     <g id="text_12">
      <!-- 200 -->
      <g transform="translate(45.9125 305.818781)scale(0.1 -0.1)">
       <use xlink:href="#DejaVuSans-50"/>
       <use x="63.623047" xlink:href="#DejaVuSans-48"/>
       <use x="127.246094" xlink:href="#DejaVuSans-48"/>
      </g>
     </g>
    </g>
    <g id="ytick_3">
     <g id="line2d_12">
      <g>
       <use style="stroke:#000000;stroke-width:0.8;" x="72" xlink:href="#m32054fd896" y="233.902022"/>
      </g>
     </g>
     <g id="text_13">
      <!-- 400 -->
      <g transform="translate(45.9125 237.70124)scale(0.1 -0.1)">
       <use xlink:href="#DejaVuSans-52"/>
       <use x="63.623047" xlink:href="#DejaVuSans-48"/>
       <use x="127.246094" xlink:href="#DejaVuSans-48"/>
      </g>
     </g>
    </g>
    <g id="ytick_4">
     <g id="line2d_13">
      <g>
       <use style="stroke:#000000;stroke-width:0.8;" x="72" xlink:href="#m32054fd896" y="165.784481"/>
      </g>
     </g>
     <g id="text_14">
      <!-- 600 -->
      <g transform="translate(45.9125 169.5837)scale(0.1 -0.1)">
       <use xlink:href="#DejaVuSans-54"/>
       <use x="63.623047" xlink:href="#DejaVuSans-48"/>
       <use x="127.246094" xlink:href="#DejaVuSans-48"/>
      </g>
     </g>
    </g>
    <g id="ytick_5">
     <g id="line2d_14">
      <g>
       <use style="stroke:#000000;stroke-width:0.8;" x="72" xlink:href="#m32054fd896" y="97.66694"/>
      </g>
     </g>
     <g id="text_15">
      <!-- 800 -->
      <g transform="translate(45.9125 101.466159)scale(0.1 -0.1)">
       <use xlink:href="#DejaVuSans-56"/>
       <use x="63.623047" xlink:href="#DejaVuSans-48"/>
       <use x="127.246094" xlink:href="#DejaVuSans-48"/>
      </g>
     </g>
    </g>
    <g id="text_16">
     <!-- Duration [days] -->
     <defs>
      <path d="M 19.671875 64.796875 
L 19.671875 8.109375 
L 31.59375 8.109375 
Q 46.6875 8.109375 53.6875 14.9375 
Q 60.6875 21.78125 60.6875 36.53125 
Q 60.6875 51.171875 53.6875 57.984375 
Q 46.6875 64.796875 31.59375 64.796875 
z
M 9.8125 72.90625 
L 30.078125 72.90625 
Q 51.265625 72.90625 61.171875 64.09375 
Q 71.09375 55.28125 71.09375 36.53125 
Q 71.09375 17.671875 61.125 8.828125 
Q 51.171875 0 30.078125 0 
L 9.8125 0 
z
" id="DejaVuSans-68"/>
      <path d="M 8.5 21.578125 
L 8.5 54.6875 
L 17.484375 54.6875 
L 17.484375 21.921875 
Q 17.484375 14.15625 20.5 10.265625 
Q 23.53125 6.390625 29.59375 6.390625 
Q 36.859375 6.390625 41.078125 11.03125 
Q 45.3125 15.671875 45.3125 23.6875 
L 45.3125 54.6875 
L 54.296875 54.6875 
L 54.296875 0 
L 45.3125 0 
L 45.3125 8.40625 
Q 42.046875 3.421875 37.71875 1 
Q 33.40625 -1.421875 27.6875 -1.421875 
Q 18.265625 -1.421875 13.375 4.4375 
Q 8.5 10.296875 8.5 21.578125 
z
M 31.109375 56 
z
" id="DejaVuSans-117"/>
      <path d="M 34.28125 27.484375 
Q 23.390625 27.484375 19.1875 25 
Q 14.984375 22.515625 14.984375 16.5 
Q 14.984375 11.71875 18.140625 8.90625 
Q 21.296875 6.109375 26.703125 6.109375 
Q 34.1875 6.109375 38.703125 11.40625 
Q 43.21875 16.703125 43.21875 25.484375 
L 43.21875 27.484375 
z
M 52.203125 31.203125 
L 52.203125 0 
L 43.21875 0 
L 43.21875 8.296875 
Q 40.140625 3.328125 35.546875 0.953125 
Q 30.953125 -1.421875 24.3125 -1.421875 
Q 15.921875 -1.421875 10.953125 3.296875 
Q 6 8.015625 6 15.921875 
Q 6 25.140625 12.171875 29.828125 
Q 18.359375 34.515625 30.609375 34.515625 
L 43.21875 34.515625 
L 43.21875 35.40625 
Q 43.21875 41.609375 39.140625 45 
Q 35.0625 48.390625 27.6875 48.390625 
Q 23 48.390625 18.546875 47.265625 
Q 14.109375 46.140625 10.015625 43.890625 
L 10.015625 52.203125 
Q 14.9375 54.109375 19.578125 55.046875 
Q 24.21875 56 28.609375 56 
Q 40.484375 56 46.34375 49.84375 
Q 52.203125 43.703125 52.203125 31.203125 
z
" id="DejaVuSans-97"/>
      <path d="M 9.421875 54.6875 
L 18.40625 54.6875 
L 18.40625 0 
L 9.421875 0 
z
M 9.421875 75.984375 
L 18.40625 75.984375 
L 18.40625 64.59375 
L 9.421875 64.59375 
z
" id="DejaVuSans-105"/>
      <path d="M 8.59375 75.984375 
L 29.296875 75.984375 
L 29.296875 69 
L 17.578125 69 
L 17.578125 -6.203125 
L 29.296875 -6.203125 
L 29.296875 -13.1875 
L 8.59375 -13.1875 
z
" id="DejaVuSans-91"/>
      <path d="M 32.171875 -5.078125 
Q 28.375 -14.84375 24.75 -17.8125 
Q 21.140625 -20.796875 15.09375 -20.796875 
L 7.90625 -20.796875 
L 7.90625 -13.28125 
L 13.1875 -13.28125 
Q 16.890625 -13.28125 18.9375 -11.515625 
Q 21 -9.765625 23.484375 -3.21875 
L 25.09375 0.875 
L 2.984375 54.6875 
L 12.5 54.6875 
L 29.59375 11.921875 
L 46.6875 54.6875 
L 56.203125 54.6875 
z
" id="DejaVuSans-121"/>
      <path d="M 44.28125 53.078125 
L 44.28125 44.578125 
Q 40.484375 46.53125 36.375 47.5 
Q 32.28125 48.484375 27.875 48.484375 
Q 21.1875 48.484375 17.84375 46.4375 
Q 14.5 44.390625 14.5 40.28125 
Q 14.5 37.15625 16.890625 35.375 
Q 19.28125 33.59375 26.515625 31.984375 
L 29.59375 31.296875 
Q 39.15625 29.25 43.1875 25.515625 
Q 47.21875 21.78125 47.21875 15.09375 
Q 47.21875 7.46875 41.1875 3.015625 
Q 35.15625 -1.421875 24.609375 -1.421875 
Q 20.21875 -1.421875 15.453125 -0.5625 
Q 10.6875 0.296875 5.421875 2 
L 5.421875 11.28125 
Q 10.40625 8.6875 15.234375 7.390625 
Q 20.0625 6.109375 24.8125 6.109375 
Q 31.15625 6.109375 34.5625 8.28125 
Q 37.984375 10.453125 37.984375 14.40625 
Q 37.984375 18.0625 35.515625 20.015625 
Q 33.0625 21.96875 24.703125 23.78125 
L 21.578125 24.515625 
Q 13.234375 26.265625 9.515625 29.90625 
Q 5.8125 33.546875 5.8125 39.890625 
Q 5.8125 47.609375 11.28125 51.796875 
Q 16.75 56 26.8125 56 
Q 31.78125 56 36.171875 55.265625 
Q 40.578125 54.546875 44.28125 53.078125 
z
" id="DejaVuSans-115"/>
      <path d="M 30.421875 75.984375 
L 30.421875 -13.1875 
L 9.71875 -13.1875 
L 9.71875 -6.203125 
L 21.390625 -6.203125 
L 21.390625 69 
L 9.71875 69 
L 9.71875 75.984375 
z
" id="DejaVuSans-93"/>
     </defs>
     <g transform="translate(39.832812 257.168594)rotate(-90)scale(0.1 -0.1)">
      <use xlink:href="#DejaVuSans-68"/>
      <use x="77.001953" xlink:href="#DejaVuSans-117"/>
      <use x="140.380859" xlink:href="#DejaVuSans-114"/>
      <use x="181.494141" xlink:href="#DejaVuSans-97"/>
      <use x="242.773438" xlink:href="#DejaVuSans-116"/>
      <use x="281.982422" xlink:href="#DejaVuSans-105"/>
      <use x="309.765625" xlink:href="#DejaVuSans-111"/>
      <use x="370.947266" xlink:href="#DejaVuSans-110"/>
      <use x="434.326172" xlink:href="#DejaVuSans-32"/>
      <use x="466.113281" xlink:href="#DejaVuSans-91"/>
      <use x="505.126953" xlink:href="#DejaVuSans-100"/>
      <use x="568.603516" xlink:href="#DejaVuSans-97"/>
      <use x="629.882812" xlink:href="#DejaVuSans-121"/>
      <use x="689.0625" xlink:href="#DejaVuSans-115"/>
      <use x="741.162109" xlink:href="#DejaVuSans-93"/>
     </g>
    </g>
   </g>
   <g id="line2d_15">
    <path clip-path="url(#pb943f36a34)" d="M 498.109091 246.629423 
L 496.542225 246.922355 
L 494.97536 237.896502 
L 493.408494 242.633822 
L 491.841629 254.506656 
L 490.274763 248.101984 
L 488.707898 254.417795 
L 487.141032 258.919617 
L 485.574166 260.2385 
L 484.007301 261.185317 
L 482.440435 261.964103 
L 480.87357 261.839813 
L 479.306704 266.693793 
L 477.739839 267.115208 
L 476.172973 264.201978 
L 474.606107 264.532766 
L 473.039242 271.806098 
L 469.905511 284.874124 
L 468.338645 295.932756 
L 466.77178 293.877449 
L 465.204914 297.3504 
L 463.638048 307.5392 
L 462.071183 313.363984 
L 460.504317 317.648348 
L 457.370586 331.147733 
L 455.803721 332.050358 
L 454.236855 335.313076 
L 452.669989 337.47913 
L 451.103124 341.869287 
L 449.536258 345.87636 
L 447.969393 348.487159 
L 446.402527 350.617322 
L 444.835662 352.022494 
L 443.268796 354.421716 
L 441.701931 356.0554 
L 440.135065 357.938794 
L 438.568199 359.450909 
L 437.001334 359.34156 
L 435.434468 358.533537 
L 433.867603 359.164304 
L 432.300737 360.438895 
L 430.733872 360.745817 
L 429.167006 360.928473 
L 427.60014 361.883905 
L 426.033275 361.768195 
L 422.899544 362.247377 
L 421.332678 361.598982 
L 419.765813 361.36214 
L 418.198947 360.987642 
L 416.632081 359.838216 
L 413.49835 361.257725 
L 411.931485 361.045739 
L 410.364619 361.171413 
L 408.797754 361.129832 
L 407.230888 361.279791 
L 405.664022 360.746978 
L 404.097157 360.829481 
L 400.963426 360.258687 
L 399.39656 359.781607 
L 397.829695 359.454088 
L 396.262829 358.990011 
L 394.695963 358.918383 
L 393.129098 358.125377 
L 391.562232 357.877524 
L 388.428501 356.373638 
L 386.861636 356.22602 
L 383.727905 354.641769 
L 382.161039 354.968333 
L 380.594173 354.269177 
L 379.027308 354.600795 
L 377.460442 354.457853 
L 375.893577 353.972948 
L 371.19298 353.099118 
L 369.626114 353.865325 
L 368.059249 353.493553 
L 366.492383 353.587005 
L 363.358652 354.370266 
L 361.791787 354.629785 
L 360.224921 355.248329 
L 358.658055 355.035494 
L 353.957459 356.399296 
L 352.390593 356.625643 
L 350.823728 357.097203 
L 347.689996 357.399088 
L 344.556265 357.507833 
L 342.9894 357.057238 
L 341.422534 357.47877 
L 339.855669 358.152083 
L 338.288803 359.090727 
L 335.155072 360.528079 
L 333.588206 360.667372 
L 332.021341 361.270276 
L 328.88761 361.931733 
L 325.753879 362.099028 
L 324.187013 362.010788 
L 322.620147 362.697509 
L 316.352685 363.322392 
L 313.218954 364.029342 
L 311.652088 363.876197 
L 310.085223 364.109196 
L 306.951492 363.978834 
L 305.384626 364.090335 
L 303.817761 363.546009 
L 302.250895 363.415919 
L 300.684029 363.58248 
L 295.983433 363.248717 
L 294.416567 362.822074 
L 292.849702 362.896784 
L 289.715971 362.051985 
L 283.448508 358.841754 
L 281.881643 357.677668 
L 280.314777 356.980719 
L 278.747912 355.551362 
L 275.61418 354.748802 
L 274.047315 353.234238 
L 272.480449 351.975336 
L 270.913584 350.929166 
L 269.346718 350.329194 
L 267.779853 349.087613 
L 266.212987 348.285924 
L 264.646121 347.962139 
L 263.079256 346.356057 
L 261.51239 344.472725 
L 259.945525 344.43731 
L 258.378659 345.156293 
L 256.811794 345.664663 
L 255.244928 342.281966 
L 252.111197 337.284595 
L 250.544331 336.323102 
L 248.977466 333.579795 
L 247.4106 331.208179 
L 245.843735 320.377074 
L 244.276869 324.443978 
L 242.710004 321.67853 
L 241.143138 316.750858 
L 239.576272 305.624824 
L 236.442541 277.137696 
L 234.875676 276.33021 
L 233.30881 223.32477 
L 231.741945 150.599289 
L 230.175079 88.278367 
L 228.608213 66.96 
L 227.041348 94.590758 
L 225.474482 105.29545 
L 223.907617 97.767739 
L 222.340751 105.756256 
L 220.773886 139.393276 
L 219.20702 159.079555 
L 217.640154 170.092818 
L 216.073289 174.701611 
L 214.506423 192.629664 
L 212.939558 191.670058 
L 211.372692 232.475856 
L 209.805827 255.947109 
L 208.238961 257.035457 
L 206.672095 265.936583 
L 205.10523 269.624853 
L 203.538364 269.766151 
L 200.404633 308.61857 
L 198.837768 314.225637 
L 195.704037 331.998773 
L 194.137171 335.839843 
L 191.00344 345.344125 
L 189.436574 347.801164 
L 187.869709 351.27213 
L 186.302843 356.309535 
L 184.735978 356.907942 
L 183.169112 357.79044 
L 181.602246 358.430249 
L 180.035381 358.879669 
L 176.90165 358.868877 
L 175.334784 358.714104 
L 173.767919 360.214887 
L 172.201053 361.368984 
L 170.634187 362.183039 
L 169.067322 362.54174 
L 165.933591 364.214806 
L 164.366725 363.76787 
L 162.79986 363.743446 
L 161.232994 364.100865 
L 159.666128 364.750568 
L 156.532397 365.602826 
L 154.965532 366.21394 
L 153.398666 366.992891 
L 151.831801 367.438699 
L 148.698069 367.887283 
L 147.131204 368.175109 
L 142.430607 368.403302 
L 139.296876 368.823034 
L 134.596279 368.825752 
L 133.029414 369.050959 
L 129.895683 369.069576 
L 128.328817 368.883787 
L 123.62822 369.017078 
L 122.061355 368.824577 
L 120.494489 369.084336 
L 114.227027 369.212774 
L 111.093296 369.190738 
L 107.959565 368.808325 
L 106.392699 368.808325 
L 104.825834 368.517723 
L 103.258968 369.026673 
L 101.692102 369.036084 
L 98.558371 369.36 
L 93.857775 369.174647 
L 92.290909 368.83056 
L 92.290909 368.83056 
" style="fill:none;stroke:#1f77b4;stroke-linecap:square;stroke-width:1.5;"/>
   </g>
   <g id="line2d_16">
    <path clip-path="url(#pb943f36a34)" d="M 498.109091 272.429562 
L 496.542225 256.580294 
L 494.97536 273.615738 
L 493.408494 282.124434 
L 491.841629 285.894431 
L 490.274763 283.742924 
L 488.707898 289.315479 
L 487.141032 299.095841 
L 485.574166 295.052127 
L 484.007301 301.569036 
L 482.440435 303.06427 
L 480.87357 312.214168 
L 479.306704 318.741604 
L 477.739839 321.242387 
L 476.172973 319.728574 
L 474.606107 326.278902 
L 473.039242 331.662295 
L 471.472376 336.208965 
L 469.905511 341.25082 
L 468.338645 351.495265 
L 466.77178 352.17778 
L 465.204914 353.504922 
L 463.638048 355.545602 
L 460.504317 358.142052 
L 458.937452 359.282387 
L 457.370586 359.633118 
L 455.803721 359.824317 
L 454.236855 359.222832 
L 452.669989 358.944352 
L 449.536258 359.062805 
L 447.969393 359.376424 
L 446.402527 359.426786 
L 444.835662 360.04828 
L 443.268796 361.596307 
L 441.701931 362.178263 
L 440.135065 362.374429 
L 438.568199 362.864022 
L 437.001334 362.252354 
L 435.434468 361.817508 
L 432.300737 361.174539 
L 429.167006 361.110065 
L 427.60014 360.619656 
L 426.033275 361.263406 
L 424.466409 360.650759 
L 422.899544 360.49276 
L 421.332678 360.092173 
L 418.198947 359.850984 
L 416.632081 359.25098 
L 415.065216 358.452734 
L 413.49835 359.249526 
L 411.931485 359.318587 
L 410.364619 359.122531 
L 407.230888 357.165138 
L 405.664022 356.32524 
L 404.097157 355.921512 
L 402.530291 355.683906 
L 400.963426 355.250826 
L 399.39656 354.623038 
L 397.829695 354.778088 
L 396.262829 354.758072 
L 393.129098 354.177163 
L 391.562232 353.366503 
L 389.995367 352.9746 
L 388.428501 353.0378 
L 386.861636 355.932334 
L 385.29477 355.939529 
L 383.727905 358.034031 
L 382.161039 359.120812 
L 379.027308 359.553623 
L 377.460442 359.525253 
L 374.326711 360.184866 
L 372.759846 359.159525 
L 371.19298 358.980462 
L 369.626114 358.925123 
L 368.059249 358.719901 
L 366.492383 358.986244 
L 364.925518 358.331387 
L 363.358652 359.870515 
L 361.791787 360.881939 
L 360.224921 360.584015 
L 357.09119 360.548094 
L 355.524324 361.374881 
L 353.957459 361.419582 
L 350.823728 361.181493 
L 349.256862 362.343424 
L 347.689996 362.85852 
L 346.123131 362.998662 
L 344.556265 362.903835 
L 342.9894 361.990111 
L 341.422534 366.354169 
L 339.855669 366.241206 
L 338.288803 367.077354 
L 336.721938 366.871783 
L 333.588206 366.664883 
L 332.021341 367.23214 
L 330.454475 365.158127 
L 328.88761 365.259704 
L 327.320744 361.86829 
L 325.753879 362.528648 
L 324.187013 362.890534 
L 322.620147 363.565359 
L 321.053282 360.053783 
L 319.486416 359.267779 
L 317.919551 358.65531 
L 316.352685 357.594566 
L 314.78582 357.433389 
L 313.218954 356.941038 
L 311.652088 354.774064 
L 310.085223 353.308509 
L 306.951492 348.257092 
L 305.384626 346.91883 
L 303.817761 341.163859 
L 300.684029 338.269215 
L 299.117164 337.158808 
L 297.550298 336.648781 
L 295.983433 336.855858 
L 294.416567 335.245455 
L 292.849702 336.990349 
L 291.282836 334.682759 
L 289.715971 334.215984 
L 288.149105 352.02892 
L 286.582239 351.783886 
L 285.015374 351.389911 
L 283.448508 351.328954 
L 281.881643 350.411161 
L 280.314777 351.015379 
L 278.747912 349.175536 
L 277.181046 316.75514 
L 275.61418 316.085572 
L 274.047315 308.410565 
L 272.480449 295.57183 
L 270.913584 289.547306 
L 269.346718 258.373541 
L 267.779853 284.416782 
L 266.212987 275.160677 
L 264.646121 283.05885 
L 263.079256 282.813105 
L 261.51239 289.461852 
L 259.945525 281.383762 
L 258.378659 290.282898 
L 256.811794 274.420055 
L 255.244928 264.513093 
L 253.678062 235.356494 
L 252.111197 256.459792 
L 250.544331 259.433654 
L 248.977466 281.462621 
L 247.4106 263.239136 
L 245.843735 271.523318 
L 244.276869 296.568225 
L 242.710004 310.897606 
L 241.143138 319.734062 
L 239.576272 327.792134 
L 238.009407 333.708407 
L 236.442541 336.905333 
L 234.875676 342.493773 
L 231.741945 348.269204 
L 230.175079 347.479122 
L 228.608213 348.424477 
L 227.041348 351.544586 
L 225.474482 352.004526 
L 223.907617 353.543824 
L 222.340751 352.005784 
L 220.773886 353.315267 
L 219.20702 354.438711 
L 217.640154 355.328415 
L 216.073289 356.717815 
L 214.506423 356.499133 
L 212.939558 355.544329 
L 211.372692 358.309649 
L 209.805827 358.191672 
L 208.238961 358.524573 
L 206.672095 359.867039 
L 205.10523 359.631177 
L 203.538364 360.32563 
L 201.971499 361.922519 
L 200.404633 363.107223 
L 198.837768 363.569268 
L 197.270902 364.527161 
L 194.137171 365.559067 
L 191.00344 366.105632 
L 189.436574 366.108765 
L 187.869709 366.401165 
L 186.302843 366.968997 
L 184.735978 367.149684 
L 183.169112 367.190469 
L 178.468515 367.621407 
L 173.767919 367.904089 
L 165.933591 368.601246 
L 164.366725 368.444272 
L 161.232994 368.6754 
L 158.099263 368.487303 
L 154.965532 368.64628 
L 150.264935 368.736067 
L 148.698069 368.969221 
L 145.564338 368.99256 
L 143.997473 368.862502 
L 140.863742 368.814427 
L 139.296876 368.723061 
L 137.730011 368.19568 
L 136.163145 369.068396 
L 134.596279 369.116424 
L 131.462548 368.972078 
L 129.895683 369.314628 
L 126.761952 369.272324 
L 125.195086 368.703184 
L 123.62822 368.388128 
L 120.494489 368.388128 
L 118.927624 367.636808 
L 114.227027 367.636808 
L 112.660161 368.83056 
L 109.52643 368.83056 
L 107.959565 367.636808 
L 103.258968 367.636808 
L 103.258968 367.636808 
" style="fill:none;stroke:#ff7f0e;stroke-linecap:square;stroke-width:1.5;"/>
   </g>
   <g id="patch_3">
    <path d="M 72 384.48 
L 72 51.84 
" style="fill:none;stroke:#000000;stroke-linecap:square;stroke-linejoin:miter;stroke-width:0.8;"/>
   </g>
   <g id="patch_4">
    <path d="M 518.4 384.48 
L 518.4 51.84 
" style="fill:none;stroke:#000000;stroke-linecap:square;stroke-linejoin:miter;stroke-width:0.8;"/>
   </g>
   <g id="patch_5">
    <path d="M 72 384.48 
L 518.4 384.48 
" style="fill:none;stroke:#000000;stroke-linecap:square;stroke-linejoin:miter;stroke-width:0.8;"/>
   </g>
   <g id="patch_6">
    <path d="M 72 51.84 
L 518.4 51.84 
" style="fill:none;stroke:#000000;stroke-linecap:square;stroke-linejoin:miter;stroke-width:0.8;"/>
   </g>
   <g id="text_17">
    <!-- Doubling Time -->
    <defs>
     <path d="M 48.6875 27.296875 
Q 48.6875 37.203125 44.609375 42.84375 
Q 40.53125 48.484375 33.40625 48.484375 
Q 26.265625 48.484375 22.1875 42.84375 
Q 18.109375 37.203125 18.109375 27.296875 
Q 18.109375 17.390625 22.1875 11.75 
Q 26.265625 6.109375 33.40625 6.109375 
Q 40.53125 6.109375 44.609375 11.75 
Q 48.6875 17.390625 48.6875 27.296875 
z
M 18.109375 46.390625 
Q 20.953125 51.265625 25.265625 53.625 
Q 29.59375 56 35.59375 56 
Q 45.5625 56 51.78125 48.09375 
Q 58.015625 40.1875 58.015625 27.296875 
Q 58.015625 14.40625 51.78125 6.484375 
Q 45.5625 -1.421875 35.59375 -1.421875 
Q 29.59375 -1.421875 25.265625 0.953125 
Q 20.953125 3.328125 18.109375 8.203125 
L 18.109375 0 
L 9.078125 0 
L 9.078125 75.984375 
L 18.109375 75.984375 
z
" id="DejaVuSans-98"/>
     <path d="M 9.421875 75.984375 
L 18.40625 75.984375 
L 18.40625 0 
L 9.421875 0 
z
" id="DejaVuSans-108"/>
     <path d="M 45.40625 27.984375 
Q 45.40625 37.75 41.375 43.109375 
Q 37.359375 48.484375 30.078125 48.484375 
Q 22.859375 48.484375 18.828125 43.109375 
Q 14.796875 37.75 14.796875 27.984375 
Q 14.796875 18.265625 18.828125 12.890625 
Q 22.859375 7.515625 30.078125 7.515625 
Q 37.359375 7.515625 41.375 12.890625 
Q 45.40625 18.265625 45.40625 27.984375 
z
M 54.390625 6.78125 
Q 54.390625 -7.171875 48.1875 -13.984375 
Q 42 -20.796875 29.203125 -20.796875 
Q 24.46875 -20.796875 20.265625 -20.09375 
Q 16.0625 -19.390625 12.109375 -17.921875 
L 12.109375 -9.1875 
Q 16.0625 -11.328125 19.921875 -12.34375 
Q 23.78125 -13.375 27.78125 -13.375 
Q 36.625 -13.375 41.015625 -8.765625 
Q 45.40625 -4.15625 45.40625 5.171875 
L 45.40625 9.625 
Q 42.625 4.78125 38.28125 2.390625 
Q 33.9375 0 27.875 0 
Q 17.828125 0 11.671875 7.65625 
Q 5.515625 15.328125 5.515625 27.984375 
Q 5.515625 40.671875 11.671875 48.328125 
Q 17.828125 56 27.875 56 
Q 33.9375 56 38.28125 53.609375 
Q 42.625 51.21875 45.40625 46.390625 
L 45.40625 54.6875 
L 54.390625 54.6875 
z
" id="DejaVuSans-103"/>
     <path d="M -0.296875 72.90625 
L 61.375 72.90625 
L 61.375 64.59375 
L 35.5 64.59375 
L 35.5 0 
L 25.59375 0 
L 25.59375 64.59375 
L -0.296875 64.59375 
z
" id="DejaVuSans-84"/>
     <path d="M 52 44.1875 
Q 55.375 50.25 60.0625 53.125 
Q 64.75 56 71.09375 56 
Q 79.640625 56 84.28125 50.015625 
Q 88.921875 44.046875 88.921875 33.015625 
L 88.921875 0 
L 79.890625 0 
L 79.890625 32.71875 
Q 79.890625 40.578125 77.09375 44.375 
Q 74.3125 48.1875 68.609375 48.1875 
Q 61.625 48.1875 57.5625 43.546875 
Q 53.515625 38.921875 53.515625 30.90625 
L 53.515625 0 
L 44.484375 0 
L 44.484375 32.71875 
Q 44.484375 40.625 41.703125 44.40625 
Q 38.921875 48.1875 33.109375 48.1875 
Q 26.21875 48.1875 22.15625 43.53125 
Q 18.109375 38.875 18.109375 30.90625 
L 18.109375 0 
L 9.078125 0 
L 9.078125 54.6875 
L 18.109375 54.6875 
L 18.109375 46.1875 
Q 21.1875 51.21875 25.484375 53.609375 
Q 29.78125 56 35.6875 56 
Q 41.65625 56 45.828125 52.96875 
Q 50 49.953125 52 44.1875 
z
" id="DejaVuSans-109"/>
    </defs>
    <g transform="translate(251.764687 45.84)scale(0.12 -0.12)">
     <use xlink:href="#DejaVuSans-68"/>
     <use x="77.001953" xlink:href="#DejaVuSans-111"/>
     <use x="138.183594" xlink:href="#DejaVuSans-117"/>
     <use x="201.5625" xlink:href="#DejaVuSans-98"/>
     <use x="265.039062" xlink:href="#DejaVuSans-108"/>
     <use x="292.822266" xlink:href="#DejaVuSans-105"/>
     <use x="320.605469" xlink:href="#DejaVuSans-110"/>
     <use x="383.984375" xlink:href="#DejaVuSans-103"/>
     <use x="447.460938" xlink:href="#DejaVuSans-32"/>
     <use x="479.248047" xlink:href="#DejaVuSans-84"/>
     <use x="537.207031" xlink:href="#DejaVuSans-105"/>
     <use x="564.990234" xlink:href="#DejaVuSans-109"/>
     <use x="662.402344" xlink:href="#DejaVuSans-101"/>
    </g>
   </g>
   <g id="legend_1">
    <g id="patch_7">
     <path d="M 235.817187 89.19625 
L 511.4 89.19625 
Q 513.4 89.19625 513.4 87.19625 
L 513.4 58.84 
Q 513.4 56.84 511.4 56.84 
L 235.817187 56.84 
Q 233.817187 56.84 233.817187 58.84 
L 233.817187 87.19625 
Q 233.817187 89.19625 235.817187 89.19625 
z
" style="fill:#ffffff;opacity:0.8;stroke:#cccccc;stroke-linejoin:miter;"/>
    </g>
    <g id="line2d_17">
     <path d="M 237.817187 64.938437 
L 257.817187 64.938437 
" style="fill:none;stroke:#1f77b4;stroke-linecap:square;stroke-width:1.5;"/>
    </g>
    <g id="line2d_18"/>
    <g id="text_18">
     <!-- Doubling Time of Confirmed Cases (over 7 days) -->
     <defs>
      <path d="M 37.109375 75.984375 
L 37.109375 68.5 
L 28.515625 68.5 
Q 23.6875 68.5 21.796875 66.546875 
Q 19.921875 64.59375 19.921875 59.515625 
L 19.921875 54.6875 
L 34.71875 54.6875 
L 34.71875 47.703125 
L 19.921875 47.703125 
L 19.921875 0 
L 10.890625 0 
L 10.890625 47.703125 
L 2.296875 47.703125 
L 2.296875 54.6875 
L 10.890625 54.6875 
L 10.890625 58.5 
Q 10.890625 67.625 15.140625 71.796875 
Q 19.390625 75.984375 28.609375 75.984375 
z
" id="DejaVuSans-102"/>
      <path d="M 64.40625 67.28125 
L 64.40625 56.890625 
Q 59.421875 61.53125 53.78125 63.8125 
Q 48.140625 66.109375 41.796875 66.109375 
Q 29.296875 66.109375 22.65625 58.46875 
Q 16.015625 50.828125 16.015625 36.375 
Q 16.015625 21.96875 22.65625 14.328125 
Q 29.296875 6.6875 41.796875 6.6875 
Q 48.140625 6.6875 53.78125 8.984375 
Q 59.421875 11.28125 64.40625 15.921875 
L 64.40625 5.609375 
Q 59.234375 2.09375 53.4375 0.328125 
Q 47.65625 -1.421875 41.21875 -1.421875 
Q 24.65625 -1.421875 15.125 8.703125 
Q 5.609375 18.84375 5.609375 36.375 
Q 5.609375 53.953125 15.125 64.078125 
Q 24.65625 74.21875 41.21875 74.21875 
Q 47.75 74.21875 53.53125 72.484375 
Q 59.328125 70.75 64.40625 67.28125 
z
" id="DejaVuSans-67"/>
      <path d="M 31 75.875 
Q 24.46875 64.65625 21.28125 53.65625 
Q 18.109375 42.671875 18.109375 31.390625 
Q 18.109375 20.125 21.3125 9.0625 
Q 24.515625 -2 31 -13.1875 
L 23.1875 -13.1875 
Q 15.875 -1.703125 12.234375 9.375 
Q 8.59375 20.453125 8.59375 31.390625 
Q 8.59375 42.28125 12.203125 53.3125 
Q 15.828125 64.359375 23.1875 75.875 
z
" id="DejaVuSans-40"/>
      <path d="M 2.984375 54.6875 
L 12.5 54.6875 
L 29.59375 8.796875 
L 46.6875 54.6875 
L 56.203125 54.6875 
L 35.6875 0 
L 23.484375 0 
z
" id="DejaVuSans-118"/>
      <path d="M 8.015625 75.875 
L 15.828125 75.875 
Q 23.140625 64.359375 26.78125 53.3125 
Q 30.421875 42.28125 30.421875 31.390625 
Q 30.421875 20.453125 26.78125 9.375 
Q 23.140625 -1.703125 15.828125 -13.1875 
L 8.015625 -13.1875 
Q 14.5 -2 17.703125 9.0625 
Q 20.90625 20.125 20.90625 31.390625 
Q 20.90625 42.671875 17.703125 53.65625 
Q 14.5 64.65625 8.015625 75.875 
z
" id="DejaVuSans-41"/>
     </defs>
     <g transform="translate(265.817187 68.438437)scale(0.1 -0.1)">
      <use xlink:href="#DejaVuSans-68"/>
      <use x="77.001953" xlink:href="#DejaVuSans-111"/>
      <use x="138.183594" xlink:href="#DejaVuSans-117"/>
      <use x="201.5625" xlink:href="#DejaVuSans-98"/>
      <use x="265.039062" xlink:href="#DejaVuSans-108"/>
      <use x="292.822266" xlink:href="#DejaVuSans-105"/>
      <use x="320.605469" xlink:href="#DejaVuSans-110"/>
      <use x="383.984375" xlink:href="#DejaVuSans-103"/>
      <use x="447.460938" xlink:href="#DejaVuSans-32"/>
      <use x="479.248047" xlink:href="#DejaVuSans-84"/>
      <use x="537.207031" xlink:href="#DejaVuSans-105"/>
      <use x="564.990234" xlink:href="#DejaVuSans-109"/>
      <use x="662.402344" xlink:href="#DejaVuSans-101"/>
      <use x="723.925781" xlink:href="#DejaVuSans-32"/>
      <use x="755.712891" xlink:href="#DejaVuSans-111"/>
      <use x="816.894531" xlink:href="#DejaVuSans-102"/>
      <use x="852.099609" xlink:href="#DejaVuSans-32"/>
      <use x="883.886719" xlink:href="#DejaVuSans-67"/>
      <use x="953.710938" xlink:href="#DejaVuSans-111"/>
      <use x="1014.892578" xlink:href="#DejaVuSans-110"/>
      <use x="1078.271484" xlink:href="#DejaVuSans-102"/>
      <use x="1113.476562" xlink:href="#DejaVuSans-105"/>
      <use x="1141.259766" xlink:href="#DejaVuSans-114"/>
      <use x="1180.623047" xlink:href="#DejaVuSans-109"/>
      <use x="1278.035156" xlink:href="#DejaVuSans-101"/>
      <use x="1339.558594" xlink:href="#DejaVuSans-100"/>
      <use x="1403.035156" xlink:href="#DejaVuSans-32"/>
      <use x="1434.822266" xlink:href="#DejaVuSans-67"/>
      <use x="1504.646484" xlink:href="#DejaVuSans-97"/>
      <use x="1565.925781" xlink:href="#DejaVuSans-115"/>
      <use x="1618.025391" xlink:href="#DejaVuSans-101"/>
      <use x="1679.548828" xlink:href="#DejaVuSans-115"/>
      <use x="1731.648438" xlink:href="#DejaVuSans-32"/>
      <use x="1763.435547" xlink:href="#DejaVuSans-40"/>
      <use x="1802.449219" xlink:href="#DejaVuSans-111"/>
      <use x="1863.630859" xlink:href="#DejaVuSans-118"/>
      <use x="1922.810547" xlink:href="#DejaVuSans-101"/>
      <use x="1984.333984" xlink:href="#DejaVuSans-114"/>
      <use x="2025.447266" xlink:href="#DejaVuSans-32"/>
      <use x="2057.234375" xlink:href="#DejaVuSans-55"/>
      <use x="2120.857422" xlink:href="#DejaVuSans-32"/>
      <use x="2152.644531" xlink:href="#DejaVuSans-100"/>
      <use x="2216.121094" xlink:href="#DejaVuSans-97"/>
      <use x="2277.400391" xlink:href="#DejaVuSans-121"/>
      <use x="2336.580078" xlink:href="#DejaVuSans-115"/>
      <use x="2388.679688" xlink:href="#DejaVuSans-41"/>
     </g>
    </g>
    <g id="line2d_19">
     <path d="M 237.817187 79.616562 
L 257.817187 79.616562 
" style="fill:none;stroke:#ff7f0e;stroke-linecap:square;stroke-width:1.5;"/>
    </g>
    <g id="line2d_20"/>
    <g id="text_19">
     <!-- Doubling Time of Recovered Cases (over 7 days) -->
     <defs>
      <path d="M 48.78125 52.59375 
L 48.78125 44.1875 
Q 44.96875 46.296875 41.140625 47.34375 
Q 37.3125 48.390625 33.40625 48.390625 
Q 24.65625 48.390625 19.8125 42.84375 
Q 14.984375 37.3125 14.984375 27.296875 
Q 14.984375 17.28125 19.8125 11.734375 
Q 24.65625 6.203125 33.40625 6.203125 
Q 37.3125 6.203125 41.140625 7.25 
Q 44.96875 8.296875 48.78125 10.40625 
L 48.78125 2.09375 
Q 45.015625 0.34375 40.984375 -0.53125 
Q 36.96875 -1.421875 32.421875 -1.421875 
Q 20.0625 -1.421875 12.78125 6.34375 
Q 5.515625 14.109375 5.515625 27.296875 
Q 5.515625 40.671875 12.859375 48.328125 
Q 20.21875 56 33.015625 56 
Q 37.15625 56 41.109375 55.140625 
Q 45.0625 54.296875 48.78125 52.59375 
z
" id="DejaVuSans-99"/>
     </defs>
     <g transform="translate(265.817187 83.116562)scale(0.1 -0.1)">
      <use xlink:href="#DejaVuSans-68"/>
      <use x="77.001953" xlink:href="#DejaVuSans-111"/>
      <use x="138.183594" xlink:href="#DejaVuSans-117"/>
      <use x="201.5625" xlink:href="#DejaVuSans-98"/>
      <use x="265.039062" xlink:href="#DejaVuSans-108"/>
      <use x="292.822266" xlink:href="#DejaVuSans-105"/>
      <use x="320.605469" xlink:href="#DejaVuSans-110"/>
      <use x="383.984375" xlink:href="#DejaVuSans-103"/>
      <use x="447.460938" xlink:href="#DejaVuSans-32"/>
      <use x="479.248047" xlink:href="#DejaVuSans-84"/>
      <use x="537.207031" xlink:href="#DejaVuSans-105"/>
      <use x="564.990234" xlink:href="#DejaVuSans-109"/>
      <use x="662.402344" xlink:href="#DejaVuSans-101"/>
      <use x="723.925781" xlink:href="#DejaVuSans-32"/>
      <use x="755.712891" xlink:href="#DejaVuSans-111"/>
      <use x="816.894531" xlink:href="#DejaVuSans-102"/>
      <use x="852.099609" xlink:href="#DejaVuSans-32"/>
      <use x="883.886719" xlink:href="#DejaVuSans-82"/>
      <use x="948.869141" xlink:href="#DejaVuSans-101"/>
      <use x="1010.392578" xlink:href="#DejaVuSans-99"/>
      <use x="1065.373047" xlink:href="#DejaVuSans-111"/>
      <use x="1126.554688" xlink:href="#DejaVuSans-118"/>
      <use x="1185.734375" xlink:href="#DejaVuSans-101"/>
      <use x="1247.257812" xlink:href="#DejaVuSans-114"/>
      <use x="1286.121094" xlink:href="#DejaVuSans-101"/>
      <use x="1347.644531" xlink:href="#DejaVuSans-100"/>
      <use x="1411.121094" xlink:href="#DejaVuSans-32"/>
      <use x="1442.908203" xlink:href="#DejaVuSans-67"/>
      <use x="1512.732422" xlink:href="#DejaVuSans-97"/>
      <use x="1574.011719" xlink:href="#DejaVuSans-115"/>
      <use x="1626.111328" xlink:href="#DejaVuSans-101"/>
      <use x="1687.634766" xlink:href="#DejaVuSans-115"/>
      <use x="1739.734375" xlink:href="#DejaVuSans-32"/>
      <use x="1771.521484" xlink:href="#DejaVuSans-40"/>
      <use x="1810.535156" xlink:href="#DejaVuSans-111"/>
      <use x="1871.716797" xlink:href="#DejaVuSans-118"/>
      <use x="1930.896484" xlink:href="#DejaVuSans-101"/>
      <use x="1992.419922" xlink:href="#DejaVuSans-114"/>
      <use x="2033.533203" xlink:href="#DejaVuSans-32"/>
      <use x="2065.320312" xlink:href="#DejaVuSans-55"/>
      <use x="2128.943359" xlink:href="#DejaVuSans-32"/>
      <use x="2160.730469" xlink:href="#DejaVuSans-100"/>
      <use x="2224.207031" xlink:href="#DejaVuSans-97"/>
      <use x="2285.486328" xlink:href="#DejaVuSans-121"/>
      <use x="2344.666016" xlink:href="#DejaVuSans-115"/>
      <use x="2396.765625" xlink:href="#DejaVuSans-41"/>
     </g>
    </g>
   </g>
  </g>
 </g>
 <defs>
  <clipPath id="pb943f36a34">
   <rect height="332.64" width="446.4" x="72" y="51.84"/>
  </clipPath>
 </defs>
</svg>
