<?xml version="1.0" encoding="utf-8" standalone="no"?>
<!DOCTYPE svg PUBLIC "-//W3C//DTD SVG 1.1//EN"
  "http://www.w3.org/Graphics/SVG/1.1/DTD/svg11.dtd">
<!-- Created with matplotlib (https://matplotlib.org/) -->
<svg height="432pt" version="1.1" viewBox="0 0 576 432" width="576pt" xmlns="http://www.w3.org/2000/svg" xmlns:xlink="http://www.w3.org/1999/xlink">
 <defs>
  <style type="text/css">
*{stroke-linecap:butt;stroke-linejoin:round;}
  </style>
 </defs>
 <g id="figure_1">
  <g id="patch_1">
   <path d="M 0 432 
L 576 432 
L 576 0 
L 0 0 
z
" style="fill:#ffffff;"/>
  </g>
  <g id="axes_1">
   <g id="patch_2">
    <path d="M 72 384.48 
L 518.4 384.48 
L 518.4 51.84 
L 72 51.84 
z
" style="fill:#ffffff;"/>
   </g>
   <g id="matplotlib.axis_1">
    <g id="xtick_1">
     <g id="line2d_1">
      <defs>
       <path d="M 0 0 
L 0 3.5 
" id="m2698d1b1da" style="stroke:#000000;stroke-width:0.8;"/>
      </defs>
      <g>
       <use style="stroke:#000000;stroke-width:0.8;" x="108.916607" xlink:href="#m2698d1b1da" y="384.48"/>
      </g>
     </g>
     <g id="text_1">
      <!-- 2020-03 -->
      <defs>
       <path d="M 19.1875 8.296875 
L 53.609375 8.296875 
L 53.609375 0 
L 7.328125 0 
L 7.328125 8.296875 
Q 12.9375 14.109375 22.625 23.890625 
Q 32.328125 33.6875 34.8125 36.53125 
Q 39.546875 41.84375 41.421875 45.53125 
Q 43.3125 49.21875 43.3125 52.78125 
Q 43.3125 58.59375 39.234375 62.25 
Q 35.15625 65.921875 28.609375 65.921875 
Q 23.96875 65.921875 18.8125 64.3125 
Q 13.671875 62.703125 7.8125 59.421875 
L 7.8125 69.390625 
Q 13.765625 71.78125 18.9375 73 
Q 24.125 74.21875 28.421875 74.21875 
Q 39.75 74.21875 46.484375 68.546875 
Q 53.21875 62.890625 53.21875 53.421875 
Q 53.21875 48.921875 51.53125 44.890625 
Q 49.859375 40.875 45.40625 35.40625 
Q 44.1875 33.984375 37.640625 27.21875 
Q 31.109375 20.453125 19.1875 8.296875 
z
" id="DejaVuSans-50"/>
       <path d="M 31.78125 66.40625 
Q 24.171875 66.40625 20.328125 58.90625 
Q 16.5 51.421875 16.5 36.375 
Q 16.5 21.390625 20.328125 13.890625 
Q 24.171875 6.390625 31.78125 6.390625 
Q 39.453125 6.390625 43.28125 13.890625 
Q 47.125 21.390625 47.125 36.375 
Q 47.125 51.421875 43.28125 58.90625 
Q 39.453125 66.40625 31.78125 66.40625 
z
M 31.78125 74.21875 
Q 44.046875 74.21875 50.515625 64.515625 
Q 56.984375 54.828125 56.984375 36.375 
Q 56.984375 17.96875 50.515625 8.265625 
Q 44.046875 -1.421875 31.78125 -1.421875 
Q 19.53125 -1.421875 13.0625 8.265625 
Q 6.59375 17.96875 6.59375 36.375 
Q 6.59375 54.828125 13.0625 64.515625 
Q 19.53125 74.21875 31.78125 74.21875 
z
" id="DejaVuSans-48"/>
       <path d="M 4.890625 31.390625 
L 31.203125 31.390625 
L 31.203125 23.390625 
L 4.890625 23.390625 
z
" id="DejaVuSans-45"/>
       <path d="M 40.578125 39.3125 
Q 47.65625 37.796875 51.625 33 
Q 55.609375 28.21875 55.609375 21.1875 
Q 55.609375 10.40625 48.1875 4.484375 
Q 40.765625 -1.421875 27.09375 -1.421875 
Q 22.515625 -1.421875 17.65625 -0.515625 
Q 12.796875 0.390625 7.625 2.203125 
L 7.625 11.71875 
Q 11.71875 9.328125 16.59375 8.109375 
Q 21.484375 6.890625 26.8125 6.890625 
Q 36.078125 6.890625 40.9375 10.546875 
Q 45.796875 14.203125 45.796875 21.1875 
Q 45.796875 27.640625 41.28125 31.265625 
Q 36.765625 34.90625 28.71875 34.90625 
L 20.21875 34.90625 
L 20.21875 43.015625 
L 29.109375 43.015625 
Q 36.375 43.015625 40.234375 45.921875 
Q 44.09375 48.828125 44.09375 54.296875 
Q 44.09375 59.90625 40.109375 62.90625 
Q 36.140625 65.921875 28.71875 65.921875 
Q 24.65625 65.921875 20.015625 65.03125 
Q 15.375 64.15625 9.8125 62.3125 
L 9.8125 71.09375 
Q 15.4375 72.65625 20.34375 73.4375 
Q 25.25 74.21875 29.59375 74.21875 
Q 40.828125 74.21875 47.359375 69.109375 
Q 53.90625 64.015625 53.90625 55.328125 
Q 53.90625 49.265625 50.4375 45.09375 
Q 46.96875 40.921875 40.578125 39.3125 
z
" id="DejaVuSans-51"/>
      </defs>
      <g transform="translate(88.025201 399.078438)scale(0.1 -0.1)">
       <use xlink:href="#DejaVuSans-50"/>
       <use x="63.623047" xlink:href="#DejaVuSans-48"/>
       <use x="127.246094" xlink:href="#DejaVuSans-50"/>
       <use x="190.869141" xlink:href="#DejaVuSans-48"/>
       <use x="254.492188" xlink:href="#DejaVuSans-45"/>
       <use x="290.576172" xlink:href="#DejaVuSans-48"/>
       <use x="354.199219" xlink:href="#DejaVuSans-51"/>
      </g>
     </g>
    </g>
    <g id="xtick_2">
     <g id="line2d_2">
      <g>
       <use style="stroke:#000000;stroke-width:0.8;" x="155.015135" xlink:href="#m2698d1b1da" y="384.48"/>
      </g>
     </g>
     <g id="text_2">
      <!-- 2020-05 -->
      <defs>
       <path d="M 10.796875 72.90625 
L 49.515625 72.90625 
L 49.515625 64.59375 
L 19.828125 64.59375 
L 19.828125 46.734375 
Q 21.96875 47.46875 24.109375 47.828125 
Q 26.265625 48.1875 28.421875 48.1875 
Q 40.625 48.1875 47.75 41.5 
Q 54.890625 34.8125 54.890625 23.390625 
Q 54.890625 11.625 47.5625 5.09375 
Q 40.234375 -1.421875 26.90625 -1.421875 
Q 22.3125 -1.421875 17.546875 -0.640625 
Q 12.796875 0.140625 7.71875 1.703125 
L 7.71875 11.625 
Q 12.109375 9.234375 16.796875 8.0625 
Q 21.484375 6.890625 26.703125 6.890625 
Q 35.15625 6.890625 40.078125 11.328125 
Q 45.015625 15.765625 45.015625 23.390625 
Q 45.015625 31 40.078125 35.4375 
Q 35.15625 39.890625 26.703125 39.890625 
Q 22.75 39.890625 18.8125 39.015625 
Q 14.890625 38.140625 10.796875 36.28125 
z
" id="DejaVuSans-53"/>
      </defs>
      <g transform="translate(134.123728 399.078438)scale(0.1 -0.1)">
       <use xlink:href="#DejaVuSans-50"/>
       <use x="63.623047" xlink:href="#DejaVuSans-48"/>
       <use x="127.246094" xlink:href="#DejaVuSans-50"/>
       <use x="190.869141" xlink:href="#DejaVuSans-48"/>
       <use x="254.492188" xlink:href="#DejaVuSans-45"/>
       <use x="290.576172" xlink:href="#DejaVuSans-48"/>
       <use x="354.199219" xlink:href="#DejaVuSans-53"/>
      </g>
     </g>
    </g>
    <g id="xtick_3">
     <g id="line2d_3">
      <g>
       <use style="stroke:#000000;stroke-width:0.8;" x="201.113662" xlink:href="#m2698d1b1da" y="384.48"/>
      </g>
     </g>
     <g id="text_3">
      <!-- 2020-07 -->
      <defs>
       <path d="M 8.203125 72.90625 
L 55.078125 72.90625 
L 55.078125 68.703125 
L 28.609375 0 
L 18.3125 0 
L 43.21875 64.59375 
L 8.203125 64.59375 
z
" id="DejaVuSans-55"/>
      </defs>
      <g transform="translate(180.222256 399.078438)scale(0.1 -0.1)">
       <use xlink:href="#DejaVuSans-50"/>
       <use x="63.623047" xlink:href="#DejaVuSans-48"/>
       <use x="127.246094" xlink:href="#DejaVuSans-50"/>
       <use x="190.869141" xlink:href="#DejaVuSans-48"/>
       <use x="254.492188" xlink:href="#DejaVuSans-45"/>
       <use x="290.576172" xlink:href="#DejaVuSans-48"/>
       <use x="354.199219" xlink:href="#DejaVuSans-55"/>
      </g>
     </g>
    </g>
    <g id="xtick_4">
     <g id="line2d_4">
      <g>
       <use style="stroke:#000000;stroke-width:0.8;" x="247.967902" xlink:href="#m2698d1b1da" y="384.48"/>
      </g>
     </g>
     <g id="text_4">
      <!-- 2020-09 -->
      <defs>
       <path d="M 10.984375 1.515625 
L 10.984375 10.5 
Q 14.703125 8.734375 18.5 7.8125 
Q 22.3125 6.890625 25.984375 6.890625 
Q 35.75 6.890625 40.890625 13.453125 
Q 46.046875 20.015625 46.78125 33.40625 
Q 43.953125 29.203125 39.59375 26.953125 
Q 35.25 24.703125 29.984375 24.703125 
Q 19.046875 24.703125 12.671875 31.3125 
Q 6.296875 37.9375 6.296875 49.421875 
Q 6.296875 60.640625 12.9375 67.421875 
Q 19.578125 74.21875 30.609375 74.21875 
Q 43.265625 74.21875 49.921875 64.515625 
Q 56.59375 54.828125 56.59375 36.375 
Q 56.59375 19.140625 48.40625 8.859375 
Q 40.234375 -1.421875 26.421875 -1.421875 
Q 22.703125 -1.421875 18.890625 -0.6875 
Q 15.09375 0.046875 10.984375 1.515625 
z
M 30.609375 32.421875 
Q 37.25 32.421875 41.125 36.953125 
Q 45.015625 41.5 45.015625 49.421875 
Q 45.015625 57.28125 41.125 61.84375 
Q 37.25 66.40625 30.609375 66.40625 
Q 23.96875 66.40625 20.09375 61.84375 
Q 16.21875 57.28125 16.21875 49.421875 
Q 16.21875 41.5 20.09375 36.953125 
Q 23.96875 32.421875 30.609375 32.421875 
z
" id="DejaVuSans-57"/>
      </defs>
      <g transform="translate(227.076496 399.078438)scale(0.1 -0.1)">
       <use xlink:href="#DejaVuSans-50"/>
       <use x="63.623047" xlink:href="#DejaVuSans-48"/>
       <use x="127.246094" xlink:href="#DejaVuSans-50"/>
       <use x="190.869141" xlink:href="#DejaVuSans-48"/>
       <use x="254.492188" xlink:href="#DejaVuSans-45"/>
       <use x="290.576172" xlink:href="#DejaVuSans-48"/>
       <use x="354.199219" xlink:href="#DejaVuSans-57"/>
      </g>
     </g>
    </g>
    <g id="xtick_5">
     <g id="line2d_5">
      <g>
       <use style="stroke:#000000;stroke-width:0.8;" x="294.06643" xlink:href="#m2698d1b1da" y="384.48"/>
      </g>
     </g>
     <g id="text_5">
      <!-- 2020-11 -->
      <defs>
       <path d="M 12.40625 8.296875 
L 28.515625 8.296875 
L 28.515625 63.921875 
L 10.984375 60.40625 
L 10.984375 69.390625 
L 28.421875 72.90625 
L 38.28125 72.90625 
L 38.28125 8.296875 
L 54.390625 8.296875 
L 54.390625 0 
L 12.40625 0 
z
" id="DejaVuSans-49"/>
      </defs>
      <g transform="translate(273.175023 399.078438)scale(0.1 -0.1)">
       <use xlink:href="#DejaVuSans-50"/>
       <use x="63.623047" xlink:href="#DejaVuSans-48"/>
       <use x="127.246094" xlink:href="#DejaVuSans-50"/>
       <use x="190.869141" xlink:href="#DejaVuSans-48"/>
       <use x="254.492188" xlink:href="#DejaVuSans-45"/>
       <use x="290.576172" xlink:href="#DejaVuSans-49"/>
       <use x="354.199219" xlink:href="#DejaVuSans-49"/>
      </g>
     </g>
    </g>
    <g id="xtick_6">
     <g id="line2d_6">
      <g>
       <use style="stroke:#000000;stroke-width:0.8;" x="340.164957" xlink:href="#m2698d1b1da" y="384.48"/>
      </g>
     </g>
     <g id="text_6">
      <!-- 2021-01 -->
      <g transform="translate(319.273551 399.078438)scale(0.1 -0.1)">
       <use xlink:href="#DejaVuSans-50"/>
       <use x="63.623047" xlink:href="#DejaVuSans-48"/>
       <use x="127.246094" xlink:href="#DejaVuSans-50"/>
       <use x="190.869141" xlink:href="#DejaVuSans-49"/>
       <use x="254.492188" xlink:href="#DejaVuSans-45"/>
       <use x="290.576172" xlink:href="#DejaVuSans-48"/>
       <use x="354.199219" xlink:href="#DejaVuSans-49"/>
      </g>
     </g>
    </g>
    <g id="xtick_7">
     <g id="line2d_7">
      <g>
       <use style="stroke:#000000;stroke-width:0.8;" x="384.752057" xlink:href="#m2698d1b1da" y="384.48"/>
      </g>
     </g>
     <g id="text_7">
      <!-- 2021-03 -->
      <g transform="translate(363.860651 399.078438)scale(0.1 -0.1)">
       <use xlink:href="#DejaVuSans-50"/>
       <use x="63.623047" xlink:href="#DejaVuSans-48"/>
       <use x="127.246094" xlink:href="#DejaVuSans-50"/>
       <use x="190.869141" xlink:href="#DejaVuSans-49"/>
       <use x="254.492188" xlink:href="#DejaVuSans-45"/>
       <use x="290.576172" xlink:href="#DejaVuSans-48"/>
       <use x="354.199219" xlink:href="#DejaVuSans-51"/>
      </g>
     </g>
    </g>
    <g id="xtick_8">
     <g id="line2d_8">
      <g>
       <use style="stroke:#000000;stroke-width:0.8;" x="430.850584" xlink:href="#m2698d1b1da" y="384.48"/>
      </g>
     </g>
     <g id="text_8">
      <!-- 2021-05 -->
      <g transform="translate(409.959178 399.078438)scale(0.1 -0.1)">
       <use xlink:href="#DejaVuSans-50"/>
       <use x="63.623047" xlink:href="#DejaVuSans-48"/>
       <use x="127.246094" xlink:href="#DejaVuSans-50"/>
       <use x="190.869141" xlink:href="#DejaVuSans-49"/>
       <use x="254.492188" xlink:href="#DejaVuSans-45"/>
       <use x="290.576172" xlink:href="#DejaVuSans-48"/>
       <use x="354.199219" xlink:href="#DejaVuSans-53"/>
      </g>
     </g>
    </g>
    <g id="xtick_9">
     <g id="line2d_9">
      <g>
       <use style="stroke:#000000;stroke-width:0.8;" x="476.949111" xlink:href="#m2698d1b1da" y="384.48"/>
      </g>
     </g>
     <g id="text_9">
      <!-- 2021-07 -->
      <g transform="translate(456.057705 399.078438)scale(0.1 -0.1)">
       <use xlink:href="#DejaVuSans-50"/>
       <use x="63.623047" xlink:href="#DejaVuSans-48"/>
       <use x="127.246094" xlink:href="#DejaVuSans-50"/>
       <use x="190.869141" xlink:href="#DejaVuSans-49"/>
       <use x="254.492188" xlink:href="#DejaVuSans-45"/>
       <use x="290.576172" xlink:href="#DejaVuSans-48"/>
       <use x="354.199219" xlink:href="#DejaVuSans-55"/>
      </g>
     </g>
    </g>
    <g id="text_10">
     <!-- Reported On -->
     <defs>
      <path d="M 44.390625 34.1875 
Q 47.5625 33.109375 50.5625 29.59375 
Q 53.5625 26.078125 56.59375 19.921875 
L 66.609375 0 
L 56 0 
L 46.6875 18.703125 
Q 43.0625 26.03125 39.671875 28.421875 
Q 36.28125 30.8125 30.421875 30.8125 
L 19.671875 30.8125 
L 19.671875 0 
L 9.8125 0 
L 9.8125 72.90625 
L 32.078125 72.90625 
Q 44.578125 72.90625 50.734375 67.671875 
Q 56.890625 62.453125 56.890625 51.90625 
Q 56.890625 45.015625 53.6875 40.46875 
Q 50.484375 35.9375 44.390625 34.1875 
z
M 19.671875 64.796875 
L 19.671875 38.921875 
L 32.078125 38.921875 
Q 39.203125 38.921875 42.84375 42.21875 
Q 46.484375 45.515625 46.484375 51.90625 
Q 46.484375 58.296875 42.84375 61.546875 
Q 39.203125 64.796875 32.078125 64.796875 
z
" id="DejaVuSans-82"/>
      <path d="M 56.203125 29.59375 
L 56.203125 25.203125 
L 14.890625 25.203125 
Q 15.484375 15.921875 20.484375 11.0625 
Q 25.484375 6.203125 34.421875 6.203125 
Q 39.59375 6.203125 44.453125 7.46875 
Q 49.3125 8.734375 54.109375 11.28125 
L 54.109375 2.78125 
Q 49.265625 0.734375 44.1875 -0.34375 
Q 39.109375 -1.421875 33.890625 -1.421875 
Q 20.796875 -1.421875 13.15625 6.1875 
Q 5.515625 13.8125 5.515625 26.8125 
Q 5.515625 40.234375 12.765625 48.109375 
Q 20.015625 56 32.328125 56 
Q 43.359375 56 49.78125 48.890625 
Q 56.203125 41.796875 56.203125 29.59375 
z
M 47.21875 32.234375 
Q 47.125 39.59375 43.09375 43.984375 
Q 39.0625 48.390625 32.421875 48.390625 
Q 24.90625 48.390625 20.390625 44.140625 
Q 15.875 39.890625 15.1875 32.171875 
z
" id="DejaVuSans-101"/>
      <path d="M 18.109375 8.203125 
L 18.109375 -20.796875 
L 9.078125 -20.796875 
L 9.078125 54.6875 
L 18.109375 54.6875 
L 18.109375 46.390625 
Q 20.953125 51.265625 25.265625 53.625 
Q 29.59375 56 35.59375 56 
Q 45.5625 56 51.78125 48.09375 
Q 58.015625 40.1875 58.015625 27.296875 
Q 58.015625 14.40625 51.78125 6.484375 
Q 45.5625 -1.421875 35.59375 -1.421875 
Q 29.59375 -1.421875 25.265625 0.953125 
Q 20.953125 3.328125 18.109375 8.203125 
z
M 48.6875 27.296875 
Q 48.6875 37.203125 44.609375 42.84375 
Q 40.53125 48.484375 33.40625 48.484375 
Q 26.265625 48.484375 22.1875 42.84375 
Q 18.109375 37.203125 18.109375 27.296875 
Q 18.109375 17.390625 22.1875 11.75 
Q 26.265625 6.109375 33.40625 6.109375 
Q 40.53125 6.109375 44.609375 11.75 
Q 48.6875 17.390625 48.6875 27.296875 
z
" id="DejaVuSans-112"/>
      <path d="M 30.609375 48.390625 
Q 23.390625 48.390625 19.1875 42.75 
Q 14.984375 37.109375 14.984375 27.296875 
Q 14.984375 17.484375 19.15625 11.84375 
Q 23.34375 6.203125 30.609375 6.203125 
Q 37.796875 6.203125 41.984375 11.859375 
Q 46.1875 17.53125 46.1875 27.296875 
Q 46.1875 37.015625 41.984375 42.703125 
Q 37.796875 48.390625 30.609375 48.390625 
z
M 30.609375 56 
Q 42.328125 56 49.015625 48.375 
Q 55.71875 40.765625 55.71875 27.296875 
Q 55.71875 13.875 49.015625 6.21875 
Q 42.328125 -1.421875 30.609375 -1.421875 
Q 18.84375 -1.421875 12.171875 6.21875 
Q 5.515625 13.875 5.515625 27.296875 
Q 5.515625 40.765625 12.171875 48.375 
Q 18.84375 56 30.609375 56 
z
" id="DejaVuSans-111"/>
      <path d="M 41.109375 46.296875 
Q 39.59375 47.171875 37.8125 47.578125 
Q 36.03125 48 33.890625 48 
Q 26.265625 48 22.1875 43.046875 
Q 18.109375 38.09375 18.109375 28.8125 
L 18.109375 0 
L 9.078125 0 
L 9.078125 54.6875 
L 18.109375 54.6875 
L 18.109375 46.1875 
Q 20.953125 51.171875 25.484375 53.578125 
Q 30.03125 56 36.53125 56 
Q 37.453125 56 38.578125 55.875 
Q 39.703125 55.765625 41.0625 55.515625 
z
" id="DejaVuSans-114"/>
      <path d="M 18.3125 70.21875 
L 18.3125 54.6875 
L 36.8125 54.6875 
L 36.8125 47.703125 
L 18.3125 47.703125 
L 18.3125 18.015625 
Q 18.3125 11.328125 20.140625 9.421875 
Q 21.96875 7.515625 27.59375 7.515625 
L 36.8125 7.515625 
L 36.8125 0 
L 27.59375 0 
Q 17.1875 0 13.234375 3.875 
Q 9.28125 7.765625 9.28125 18.015625 
L 9.28125 47.703125 
L 2.6875 47.703125 
L 2.6875 54.6875 
L 9.28125 54.6875 
L 9.28125 70.21875 
z
" id="DejaVuSans-116"/>
      <path d="M 45.40625 46.390625 
L 45.40625 75.984375 
L 54.390625 75.984375 
L 54.390625 0 
L 45.40625 0 
L 45.40625 8.203125 
Q 42.578125 3.328125 38.25 0.953125 
Q 33.9375 -1.421875 27.875 -1.421875 
Q 17.96875 -1.421875 11.734375 6.484375 
Q 5.515625 14.40625 5.515625 27.296875 
Q 5.515625 40.1875 11.734375 48.09375 
Q 17.96875 56 27.875 56 
Q 33.9375 56 38.25 53.625 
Q 42.578125 51.265625 45.40625 46.390625 
z
M 14.796875 27.296875 
Q 14.796875 17.390625 18.875 11.75 
Q 22.953125 6.109375 30.078125 6.109375 
Q 37.203125 6.109375 41.296875 11.75 
Q 45.40625 17.390625 45.40625 27.296875 
Q 45.40625 37.203125 41.296875 42.84375 
Q 37.203125 48.484375 30.078125 48.484375 
Q 22.953125 48.484375 18.875 42.84375 
Q 14.796875 37.203125 14.796875 27.296875 
z
" id="DejaVuSans-100"/>
      <path id="DejaVuSans-32"/>
      <path d="M 39.40625 66.21875 
Q 28.65625 66.21875 22.328125 58.203125 
Q 16.015625 50.203125 16.015625 36.375 
Q 16.015625 22.609375 22.328125 14.59375 
Q 28.65625 6.59375 39.40625 6.59375 
Q 50.140625 6.59375 56.421875 14.59375 
Q 62.703125 22.609375 62.703125 36.375 
Q 62.703125 50.203125 56.421875 58.203125 
Q 50.140625 66.21875 39.40625 66.21875 
z
M 39.40625 74.21875 
Q 54.734375 74.21875 63.90625 63.9375 
Q 73.09375 53.65625 73.09375 36.375 
Q 73.09375 19.140625 63.90625 8.859375 
Q 54.734375 -1.421875 39.40625 -1.421875 
Q 24.03125 -1.421875 14.8125 8.828125 
Q 5.609375 19.09375 5.609375 36.375 
Q 5.609375 53.65625 14.8125 63.9375 
Q 24.03125 74.21875 39.40625 74.21875 
z
" id="DejaVuSans-79"/>
      <path d="M 54.890625 33.015625 
L 54.890625 0 
L 45.90625 0 
L 45.90625 32.71875 
Q 45.90625 40.484375 42.875 44.328125 
Q 39.84375 48.1875 33.796875 48.1875 
Q 26.515625 48.1875 22.3125 43.546875 
Q 18.109375 38.921875 18.109375 30.90625 
L 18.109375 0 
L 9.078125 0 
L 9.078125 54.6875 
L 18.109375 54.6875 
L 18.109375 46.1875 
Q 21.34375 51.125 25.703125 53.5625 
Q 30.078125 56 35.796875 56 
Q 45.21875 56 50.046875 50.171875 
Q 54.890625 44.34375 54.890625 33.015625 
z
" id="DejaVuSans-110"/>
     </defs>
     <g transform="translate(263.680469 412.756563)scale(0.1 -0.1)">
      <use xlink:href="#DejaVuSans-82"/>
      <use x="64.982422" xlink:href="#DejaVuSans-101"/>
      <use x="126.505859" xlink:href="#DejaVuSans-112"/>
      <use x="189.982422" xlink:href="#DejaVuSans-111"/>
      <use x="251.164062" xlink:href="#DejaVuSans-114"/>
      <use x="292.277344" xlink:href="#DejaVuSans-116"/>
      <use x="331.486328" xlink:href="#DejaVuSans-101"/>
      <use x="393.009766" xlink:href="#DejaVuSans-100"/>
      <use x="456.486328" xlink:href="#DejaVuSans-32"/>
      <use x="488.273438" xlink:href="#DejaVuSans-79"/>
      <use x="566.984375" xlink:href="#DejaVuSans-110"/>
     </g>
    </g>
   </g>
   <g id="matplotlib.axis_2">
    <g id="ytick_1">
     <g id="line2d_10">
      <defs>
       <path d="M 0 0 
L -3.5 0 
" id="m7c52f8f398" style="stroke:#000000;stroke-width:0.8;"/>
      </defs>
      <g>
       <use style="stroke:#000000;stroke-width:0.8;" x="72" xlink:href="#m7c52f8f398" y="369.439581"/>
      </g>
     </g>
     <g id="text_11">
      <!--   0 -->
      <g transform="translate(52.28125 373.2388)scale(0.1 -0.1)">
       <use xlink:href="#DejaVuSans-32"/>
       <use x="31.787109" xlink:href="#DejaVuSans-32"/>
       <use x="63.574219" xlink:href="#DejaVuSans-48"/>
      </g>
     </g>
    </g>
    <g id="ytick_2">
     <g id="line2d_11">
      <g>
       <use style="stroke:#000000;stroke-width:0.8;" x="72" xlink:href="#m7c52f8f398" y="303.921542"/>
      </g>
     </g>
     <g id="text_12">
      <!-- 1000 -->
      <g transform="translate(39.55 307.720761)scale(0.1 -0.1)">
       <use xlink:href="#DejaVuSans-49"/>
       <use x="63.623047" xlink:href="#DejaVuSans-48"/>
       <use x="127.246094" xlink:href="#DejaVuSans-48"/>
       <use x="190.869141" xlink:href="#DejaVuSans-48"/>
      </g>
     </g>
    </g>
    <g id="ytick_3">
     <g id="line2d_12">
      <g>
       <use style="stroke:#000000;stroke-width:0.8;" x="72" xlink:href="#m7c52f8f398" y="238.403504"/>
      </g>
     </g>
     <g id="text_13">
      <!-- 2000 -->
      <g transform="translate(39.55 242.202722)scale(0.1 -0.1)">
       <use xlink:href="#DejaVuSans-50"/>
       <use x="63.623047" xlink:href="#DejaVuSans-48"/>
       <use x="127.246094" xlink:href="#DejaVuSans-48"/>
       <use x="190.869141" xlink:href="#DejaVuSans-48"/>
      </g>
     </g>
    </g>
    <g id="ytick_4">
     <g id="line2d_13">
      <g>
       <use style="stroke:#000000;stroke-width:0.8;" x="72" xlink:href="#m7c52f8f398" y="172.885465"/>
      </g>
     </g>
     <g id="text_14">
      <!-- 3000 -->
      <g transform="translate(39.55 176.684684)scale(0.1 -0.1)">
       <use xlink:href="#DejaVuSans-51"/>
       <use x="63.623047" xlink:href="#DejaVuSans-48"/>
       <use x="127.246094" xlink:href="#DejaVuSans-48"/>
       <use x="190.869141" xlink:href="#DejaVuSans-48"/>
      </g>
     </g>
    </g>
    <g id="ytick_5">
     <g id="line2d_14">
      <g>
       <use style="stroke:#000000;stroke-width:0.8;" x="72" xlink:href="#m7c52f8f398" y="107.367426"/>
      </g>
     </g>
     <g id="text_15">
      <!-- 4000 -->
      <defs>
       <path d="M 37.796875 64.3125 
L 12.890625 25.390625 
L 37.796875 25.390625 
z
M 35.203125 72.90625 
L 47.609375 72.90625 
L 47.609375 25.390625 
L 58.015625 25.390625 
L 58.015625 17.1875 
L 47.609375 17.1875 
L 47.609375 0 
L 37.796875 0 
L 37.796875 17.1875 
L 4.890625 17.1875 
L 4.890625 26.703125 
z
" id="DejaVuSans-52"/>
      </defs>
      <g transform="translate(39.55 111.166645)scale(0.1 -0.1)">
       <use xlink:href="#DejaVuSans-52"/>
       <use x="63.623047" xlink:href="#DejaVuSans-48"/>
       <use x="127.246094" xlink:href="#DejaVuSans-48"/>
       <use x="190.869141" xlink:href="#DejaVuSans-48"/>
      </g>
     </g>
    </g>
    <g id="text_16">
     <!-- Duration [days] -->
     <defs>
      <path d="M 19.671875 64.796875 
L 19.671875 8.109375 
L 31.59375 8.109375 
Q 46.6875 8.109375 53.6875 14.9375 
Q 60.6875 21.78125 60.6875 36.53125 
Q 60.6875 51.171875 53.6875 57.984375 
Q 46.6875 64.796875 31.59375 64.796875 
z
M 9.8125 72.90625 
L 30.078125 72.90625 
Q 51.265625 72.90625 61.171875 64.09375 
Q 71.09375 55.28125 71.09375 36.53125 
Q 71.09375 17.671875 61.125 8.828125 
Q 51.171875 0 30.078125 0 
L 9.8125 0 
z
" id="DejaVuSans-68"/>
      <path d="M 8.5 21.578125 
L 8.5 54.6875 
L 17.484375 54.6875 
L 17.484375 21.921875 
Q 17.484375 14.15625 20.5 10.265625 
Q 23.53125 6.390625 29.59375 6.390625 
Q 36.859375 6.390625 41.078125 11.03125 
Q 45.3125 15.671875 45.3125 23.6875 
L 45.3125 54.6875 
L 54.296875 54.6875 
L 54.296875 0 
L 45.3125 0 
L 45.3125 8.40625 
Q 42.046875 3.421875 37.71875 1 
Q 33.40625 -1.421875 27.6875 -1.421875 
Q 18.265625 -1.421875 13.375 4.4375 
Q 8.5 10.296875 8.5 21.578125 
z
M 31.109375 56 
z
" id="DejaVuSans-117"/>
      <path d="M 34.28125 27.484375 
Q 23.390625 27.484375 19.1875 25 
Q 14.984375 22.515625 14.984375 16.5 
Q 14.984375 11.71875 18.140625 8.90625 
Q 21.296875 6.109375 26.703125 6.109375 
Q 34.1875 6.109375 38.703125 11.40625 
Q 43.21875 16.703125 43.21875 25.484375 
L 43.21875 27.484375 
z
M 52.203125 31.203125 
L 52.203125 0 
L 43.21875 0 
L 43.21875 8.296875 
Q 40.140625 3.328125 35.546875 0.953125 
Q 30.953125 -1.421875 24.3125 -1.421875 
Q 15.921875 -1.421875 10.953125 3.296875 
Q 6 8.015625 6 15.921875 
Q 6 25.140625 12.171875 29.828125 
Q 18.359375 34.515625 30.609375 34.515625 
L 43.21875 34.515625 
L 43.21875 35.40625 
Q 43.21875 41.609375 39.140625 45 
Q 35.0625 48.390625 27.6875 48.390625 
Q 23 48.390625 18.546875 47.265625 
Q 14.109375 46.140625 10.015625 43.890625 
L 10.015625 52.203125 
Q 14.9375 54.109375 19.578125 55.046875 
Q 24.21875 56 28.609375 56 
Q 40.484375 56 46.34375 49.84375 
Q 52.203125 43.703125 52.203125 31.203125 
z
" id="DejaVuSans-97"/>
      <path d="M 9.421875 54.6875 
L 18.40625 54.6875 
L 18.40625 0 
L 9.421875 0 
z
M 9.421875 75.984375 
L 18.40625 75.984375 
L 18.40625 64.59375 
L 9.421875 64.59375 
z
" id="DejaVuSans-105"/>
      <path d="M 8.59375 75.984375 
L 29.296875 75.984375 
L 29.296875 69 
L 17.578125 69 
L 17.578125 -6.203125 
L 29.296875 -6.203125 
L 29.296875 -13.1875 
L 8.59375 -13.1875 
z
" id="DejaVuSans-91"/>
      <path d="M 32.171875 -5.078125 
Q 28.375 -14.84375 24.75 -17.8125 
Q 21.140625 -20.796875 15.09375 -20.796875 
L 7.90625 -20.796875 
L 7.90625 -13.28125 
L 13.1875 -13.28125 
Q 16.890625 -13.28125 18.9375 -11.515625 
Q 21 -9.765625 23.484375 -3.21875 
L 25.09375 0.875 
L 2.984375 54.6875 
L 12.5 54.6875 
L 29.59375 11.921875 
L 46.6875 54.6875 
L 56.203125 54.6875 
z
" id="DejaVuSans-121"/>
      <path d="M 44.28125 53.078125 
L 44.28125 44.578125 
Q 40.484375 46.53125 36.375 47.5 
Q 32.28125 48.484375 27.875 48.484375 
Q 21.1875 48.484375 17.84375 46.4375 
Q 14.5 44.390625 14.5 40.28125 
Q 14.5 37.15625 16.890625 35.375 
Q 19.28125 33.59375 26.515625 31.984375 
L 29.59375 31.296875 
Q 39.15625 29.25 43.1875 25.515625 
Q 47.21875 21.78125 47.21875 15.09375 
Q 47.21875 7.46875 41.1875 3.015625 
Q 35.15625 -1.421875 24.609375 -1.421875 
Q 20.21875 -1.421875 15.453125 -0.5625 
Q 10.6875 0.296875 5.421875 2 
L 5.421875 11.28125 
Q 10.40625 8.6875 15.234375 7.390625 
Q 20.0625 6.109375 24.8125 6.109375 
Q 31.15625 6.109375 34.5625 8.28125 
Q 37.984375 10.453125 37.984375 14.40625 
Q 37.984375 18.0625 35.515625 20.015625 
Q 33.0625 21.96875 24.703125 23.78125 
L 21.578125 24.515625 
Q 13.234375 26.265625 9.515625 29.90625 
Q 5.8125 33.546875 5.8125 39.890625 
Q 5.8125 47.609375 11.28125 51.796875 
Q 16.75 56 26.8125 56 
Q 31.78125 56 36.171875 55.265625 
Q 40.578125 54.546875 44.28125 53.078125 
z
" id="DejaVuSans-115"/>
      <path d="M 30.421875 75.984375 
L 30.421875 -13.1875 
L 9.71875 -13.1875 
L 9.71875 -6.203125 
L 21.390625 -6.203125 
L 21.390625 69 
L 9.71875 69 
L 9.71875 75.984375 
z
" id="DejaVuSans-93"/>
     </defs>
     <g transform="translate(33.470312 257.168594)rotate(-90)scale(0.1 -0.1)">
      <use xlink:href="#DejaVuSans-68"/>
      <use x="77.001953" xlink:href="#DejaVuSans-117"/>
      <use x="140.380859" xlink:href="#DejaVuSans-114"/>
      <use x="181.494141" xlink:href="#DejaVuSans-97"/>
      <use x="242.773438" xlink:href="#DejaVuSans-116"/>
      <use x="281.982422" xlink:href="#DejaVuSans-105"/>
      <use x="309.765625" xlink:href="#DejaVuSans-111"/>
      <use x="370.947266" xlink:href="#DejaVuSans-110"/>
      <use x="434.326172" xlink:href="#DejaVuSans-32"/>
      <use x="466.113281" xlink:href="#DejaVuSans-91"/>
      <use x="505.126953" xlink:href="#DejaVuSans-100"/>
      <use x="568.603516" xlink:href="#DejaVuSans-97"/>
      <use x="629.882812" xlink:href="#DejaVuSans-121"/>
      <use x="689.0625" xlink:href="#DejaVuSans-115"/>
      <use x="741.162109" xlink:href="#DejaVuSans-93"/>
     </g>
    </g>
   </g>
   <g id="line2d_15">
    <path clip-path="url(#p68c31feff9)" d="M 498.109091 329.629266 
L 497.353377 328.359264 
L 496.597664 326.560264 
L 495.84195 325.273163 
L 495.086237 323.760781 
L 494.330523 321.201583 
L 493.57481 317.55114 
L 492.819096 312.763171 
L 491.307669 299.191633 
L 490.551955 291.048913 
L 489.796242 285.348781 
L 489.040528 275.302369 
L 486.773388 235.419527 
L 486.017674 218.436953 
L 485.26196 207.240061 
L 484.506247 198.974107 
L 482.99482 173.174924 
L 481.483393 135.975288 
L 479.971965 115.795308 
L 479.216252 111.327128 
L 478.460538 110.090391 
L 477.704825 105.545886 
L 476.949111 103.364109 
L 476.193398 66.96 
L 475.437684 89.774397 
L 474.681971 98.610276 
L 473.170543 109.011156 
L 471.659116 142.011872 
L 470.903403 176.376302 
L 470.147689 183.343295 
L 467.880549 212.636147 
L 467.124835 221.758921 
L 465.613408 242.667654 
L 464.857694 251.559078 
L 464.101981 257.853851 
L 463.346267 261.136032 
L 462.590554 268.369225 
L 461.83484 273.54027 
L 461.079126 277.917637 
L 460.323413 277.240453 
L 459.567699 281.501897 
L 456.544845 294.960521 
L 455.789132 299.594164 
L 455.033418 306.761366 
L 454.277704 309.714478 
L 452.010564 315.71267 
L 449.743423 323.990661 
L 448.987709 326.342439 
L 448.231996 328.029813 
L 447.476282 329.266422 
L 443.697715 339.328853 
L 442.942001 340.989112 
L 442.186287 341.980414 
L 441.430574 343.406471 
L 440.67486 345.153308 
L 438.40772 348.904786 
L 437.652006 349.622473 
L 436.140579 350.197032 
L 434.629152 351.796992 
L 433.117725 353.095499 
L 432.362011 353.39798 
L 431.606298 353.912556 
L 430.850584 354.676236 
L 429.339157 355.13652 
L 428.583443 355.465 
L 427.82773 355.582869 
L 427.072016 355.8726 
L 426.316303 355.964234 
L 425.560589 355.940322 
L 424.049162 356.426743 
L 423.293448 356.606043 
L 422.537735 356.958421 
L 421.026308 357.312437 
L 419.514881 358.00533 
L 418.759167 358.371874 
L 418.003454 358.446777 
L 417.24774 358.236108 
L 416.492026 357.638986 
L 415.736313 357.775409 
L 414.980599 358.082752 
L 412.713459 359.391403 
L 411.957745 360.252701 
L 411.202031 360.848219 
L 407.423464 361.664913 
L 406.66775 361.570823 
L 405.912037 361.755415 
L 405.156323 362.364696 
L 402.133469 362.699888 
L 400.622042 362.923381 
L 399.866328 362.57253 
L 396.08776 363.007096 
L 393.064906 362.964709 
L 387.774911 362.416124 
L 385.50777 361.95546 
L 382.484916 361.076601 
L 381.729203 360.725752 
L 380.217776 359.850871 
L 377.950635 359.117697 
L 376.439208 358.856934 
L 374.927781 359.24223 
L 371.149213 359.65265 
L 370.393499 359.535618 
L 369.637786 359.612066 
L 368.126359 359.562989 
L 365.103504 359.637865 
L 364.347791 359.923267 
L 362.08065 360.246042 
L 360.569223 360.415303 
L 359.813509 360.435663 
L 359.057796 360.318416 
L 357.546369 360.408838 
L 356.790655 360.548749 
L 354.523514 361.509501 
L 353.012087 362.060219 
L 352.256374 362.352817 
L 351.50066 362.785109 
L 350.744947 363.047833 
L 349.23352 363.28117 
L 348.477806 363.55811 
L 347.722092 363.650555 
L 346.966379 363.598644 
L 346.210665 363.424893 
L 345.454952 363.02119 
L 343.943525 363.658051 
L 339.409243 362.731267 
L 338.65353 362.40912 
L 337.897816 362.283788 
L 336.386389 362.689506 
L 334.874962 363.527095 
L 334.119248 363.372145 
L 333.363535 363.439436 
L 332.607821 363.691252 
L 330.340681 364.091558 
L 328.829253 364.494714 
L 328.07354 364.490635 
L 327.317826 364.323602 
L 325.806399 364.473603 
L 324.294972 364.668205 
L 321.272118 365.649455 
L 318.249264 366.162986 
L 315.982123 366.579734 
L 309.936414 367.636237 
L 306.157847 367.95944 
L 302.379279 368.179138 
L 295.577857 368.345452 
L 291.799289 368.28417 
L 288.020721 368.009138 
L 284.997867 367.578385 
L 282.730726 367.167129 
L 280.463586 366.529024 
L 277.440731 365.423519 
L 275.929304 364.452239 
L 273.662164 363.157634 
L 272.150736 362.572155 
L 271.395023 362.139182 
L 270.639309 361.866208 
L 269.883596 361.455115 
L 266.105028 360.964016 
L 265.349314 361.014009 
L 263.082174 360.715794 
L 262.32646 360.465713 
L 260.815033 360.326811 
L 260.059319 360.114955 
L 257.792179 360.376028 
L 257.036465 360.536827 
L 256.280752 360.438057 
L 254.769325 360.809616 
L 253.257897 360.638686 
L 252.502184 360.316141 
L 251.74647 360.203496 
L 250.990757 360.315131 
L 249.47933 359.897209 
L 247.212189 359.978042 
L 246.456475 359.967208 
L 245.700762 359.845004 
L 244.945048 359.464949 
L 244.189335 358.861759 
L 243.433621 358.083839 
L 242.677908 356.877511 
L 241.922194 355.928502 
L 241.16648 354.393225 
L 240.410767 352.109253 
L 238.143626 346.812744 
L 237.387913 345.761051 
L 236.632199 345.875259 
L 235.876486 345.47393 
L 235.120772 345.418219 
L 234.365058 343.252258 
L 233.609345 343.12139 
L 232.853631 342.078394 
L 232.097918 341.234355 
L 231.342204 338.861103 
L 230.586491 337.66351 
L 229.830777 334.566549 
L 229.075063 333.795842 
L 228.31935 330.856186 
L 227.563636 330.556134 
L 226.807923 328.679459 
L 224.540782 329.543172 
L 223.785069 329.159549 
L 223.029355 326.405463 
L 222.273641 324.5938 
L 221.517928 324.439246 
L 220.762214 322.468175 
L 220.006501 323.115315 
L 219.250787 322.149389 
L 217.73936 320.891949 
L 216.983647 318.531055 
L 216.227933 314.316347 
L 215.472219 313.79056 
L 214.716506 312.981313 
L 213.960792 313.683126 
L 213.205079 311.175357 
L 212.449365 313.142924 
L 211.693652 312.531417 
L 210.937938 313.842573 
L 210.182224 314.776742 
L 209.426511 316.287708 
L 208.670797 314.750971 
L 207.915084 316.563031 
L 207.15937 314.62155 
L 205.647943 313.758324 
L 204.89223 313.991614 
L 204.136516 310.539034 
L 203.380802 309.758339 
L 202.625089 306.884782 
L 201.869375 308.539773 
L 201.113662 312.882254 
L 200.357948 325.748704 
L 199.602235 325.034335 
L 198.846521 327.392995 
L 198.090808 328.556067 
L 197.335094 330.4568 
L 196.57938 320.318427 
L 195.823667 321.467681 
L 195.067953 312.618781 
L 194.31224 316.507442 
L 193.556526 319.365556 
L 192.800813 322.934041 
L 192.045099 325.225121 
L 191.289385 332.040268 
L 190.533672 332.963732 
L 189.777958 330.638353 
L 189.022245 332.08429 
L 188.266531 331.736905 
L 187.510818 328.911013 
L 186.755104 327.230875 
L 185.999391 334.316095 
L 185.243677 330.682428 
L 184.487963 332.975968 
L 183.73225 333.634775 
L 182.976536 332.242316 
L 181.465109 336.918902 
L 180.709396 336.962461 
L 179.953682 342.013876 
L 179.197969 344.497326 
L 177.686541 345.979916 
L 176.175114 349.010618 
L 175.419401 349.80531 
L 174.663687 350.111883 
L 173.907974 350.568913 
L 173.15226 352.44941 
L 170.129406 354.814275 
L 169.373692 355.835391 
L 168.617979 356.432841 
L 167.862265 357.750448 
L 167.106552 358.317402 
L 166.350838 358.570731 
L 165.595124 358.953951 
L 164.839411 359.778259 
L 163.327984 361.003934 
L 162.57227 360.704553 
L 161.060843 361.815608 
L 160.30513 362.5009 
L 159.549416 362.975878 
L 158.037989 363.69308 
L 157.282275 364.197866 
L 156.526562 364.441374 
L 155.770848 364.816694 
L 155.015135 365.009361 
L 153.503707 365.59869 
L 152.747994 365.927866 
L 148.213713 366.893387 
L 146.702285 366.925827 
L 142.168004 367.660623 
L 139.14515 367.89085 
L 130.076587 368.783771 
L 124.786592 369.052411 
L 117.98517 369.179848 
L 115.718029 369.190542 
L 103.626612 369.337974 
L 102.115185 369.250214 
M 96.069477 368.633061 
L 92.290909 368.633061 
L 92.290909 368.633061 
" style="fill:none;stroke:#1f77b4;stroke-linecap:square;stroke-width:1.5;"/>
   </g>
   <g id="line2d_16">
    <path clip-path="url(#p68c31feff9)" d="M 498.109091 247.840924 
L 497.353377 243.910129 
L 496.597664 248.688276 
L 495.84195 240.96065 
L 495.086237 234.877539 
L 494.330523 227.61603 
L 493.57481 241.106886 
L 492.819096 238.981098 
L 492.063382 258.716969 
L 491.307669 246.753906 
L 490.551955 241.102105 
L 489.796242 251.321584 
L 489.040528 259.470897 
L 488.284815 254.035945 
L 487.529101 257.667667 
L 486.773388 241.081048 
L 486.017674 248.906815 
L 485.26196 254.762296 
L 484.506247 255.337908 
L 483.750533 259.128433 
L 482.99482 270.483714 
L 482.239106 276.935779 
L 481.483393 278.222641 
L 480.727679 286.427974 
L 479.971965 289.817795 
L 479.216252 295.552841 
L 478.460538 293.991922 
L 477.704825 294.878939 
L 476.949111 296.69869 
L 476.193398 311.747266 
L 475.437684 317.206274 
L 474.681971 321.507555 
L 473.926257 333.036464 
L 473.170543 334.019661 
L 472.41483 334.799295 
L 471.659116 338.853239 
L 470.903403 337.345389 
L 470.147689 337.343618 
L 469.391976 355.008893 
L 468.636262 353.618177 
L 467.880549 353.85325 
L 467.124835 353.948279 
L 466.369121 353.636802 
L 464.857694 354.88378 
L 464.101981 339.804312 
L 462.590554 342.121956 
L 461.83484 343.68033 
L 461.079126 344.723642 
L 460.323413 344.154804 
L 459.567699 348.360276 
L 458.811986 349.032633 
L 457.300559 349.925257 
L 456.544845 350.075276 
L 455.789132 350.901831 
L 455.033418 352.097183 
L 454.277704 350.3876 
L 453.521991 350.742927 
L 452.766277 350.96658 
L 452.010564 350.998061 
L 451.25485 352.359784 
L 449.743423 353.40691 
L 448.987709 353.875797 
L 448.231996 354.020184 
L 446.720569 355.068617 
L 445.209142 355.46342 
L 444.453428 355.753393 
L 442.942001 357.248047 
L 442.186287 357.976181 
L 440.67486 358.978242 
L 439.163433 359.370401 
L 438.40772 359.246479 
L 437.652006 359.471652 
L 436.896293 359.331496 
L 436.140579 358.816449 
L 433.117725 359.46024 
L 432.362011 359.156744 
L 430.850584 359.945259 
L 430.09487 359.92251 
L 429.339157 360.403995 
L 427.82773 360.735716 
L 427.072016 361.297622 
L 426.316303 361.530921 
L 424.804876 361.535199 
L 424.049162 361.445186 
L 423.293448 361.619944 
L 422.537735 361.651302 
L 421.782021 361.440719 
L 421.026308 361.383227 
L 419.514881 361.847481 
L 418.759167 362.299225 
L 417.24774 362.377326 
L 416.492026 362.597562 
L 415.736313 362.188832 
L 414.980599 362.115783 
L 414.224886 362.211057 
L 413.469172 361.895479 
L 412.713459 361.975254 
L 411.957745 362.191262 
L 411.202031 362.068412 
L 410.446318 362.658915 
L 409.690604 362.905913 
L 408.934891 362.809306 
L 407.423464 362.95451 
L 406.66775 362.83429 
L 405.912037 363.53935 
L 405.156323 363.580452 
L 402.133469 362.990491 
L 401.377755 363.017926 
L 400.622042 361.989502 
L 399.110615 361.546611 
L 398.354901 361.618103 
L 396.843474 361.500403 
L 396.08776 361.072453 
L 394.576333 360.901033 
L 393.82062 361.252635 
L 390.042052 360.967996 
L 389.286338 360.72922 
L 388.530625 360.075212 
L 387.019198 359.625915 
L 386.263484 359.599792 
L 385.50777 359.724604 
L 384.752057 360.109071 
L 383.996343 360.086363 
L 382.484916 360.525141 
L 380.973489 361.605358 
L 378.706348 362.121036 
L 376.439208 362.336585 
L 375.683494 362.537872 
L 374.172067 362.723053 
L 372.66064 363.113484 
L 371.904926 363.222194 
L 369.637786 363.122182 
L 368.882072 363.354878 
L 368.126359 363.335469 
L 367.370645 363.847907 
L 366.614931 363.967132 
L 365.859218 364.227847 
L 365.103504 364.253551 
L 364.347791 364.437424 
L 362.836364 364.602716 
L 362.08065 364.259361 
L 361.324937 364.27286 
L 360.569223 364.651228 
L 358.302082 365.185972 
L 357.546369 365.189797 
L 356.790655 365.388126 
L 356.034942 365.427737 
L 355.279228 365.22301 
L 354.523514 365.258844 
L 353.012087 365.158957 
L 352.256374 365.239622 
L 351.50066 365.093529 
L 349.989233 365.164955 
L 349.23352 365.052049 
L 348.477806 365.095954 
L 347.722092 365.011023 
L 346.966379 365.062654 
L 346.210665 365.230259 
L 345.454952 364.967221 
L 343.943525 365.107079 
L 341.676384 365.227273 
L 340.92067 364.979723 
L 340.164957 365.004615 
L 339.409243 365.647296 
L 338.65353 365.860658 
L 337.142103 366.064126 
L 335.630675 366.355688 
L 334.874962 366.680219 
L 334.119248 366.546268 
L 333.363535 366.703633 
L 332.607821 366.99604 
L 330.340681 367.278278 
L 323.539259 367.777407 
L 322.027831 367.830173 
L 316.737836 368.19148 
L 315.226409 368.296328 
L 312.959269 368.287516 
L 306.91356 368.188088 
L 306.157847 368.046533 
L 305.402133 368.133883 
L 303.890706 367.997324 
L 300.867852 367.681062 
L 299.356425 367.084575 
L 298.600711 366.930018 
L 297.844997 366.971061 
L 297.089284 366.57521 
L 295.577857 366.405965 
L 294.822143 366.142921 
L 293.310716 365.942939 
L 292.555003 365.435111 
L 288.776435 363.836978 
L 288.020721 363.976227 
L 287.265008 363.605172 
L 285.75358 363.429685 
L 284.997867 363.330417 
L 283.48644 362.775012 
L 282.730726 362.107053 
L 281.975013 361.943784 
L 281.219299 361.432866 
L 279.707872 359.873151 
L 278.952158 359.918227 
L 278.196445 359.800909 
L 277.440731 359.200907 
L 276.685018 359.612883 
L 275.929304 359.583514 
L 274.417877 359.77571 
L 273.662164 359.702425 
L 272.150736 359.807598 
L 270.639309 359.304365 
L 269.883596 359.293097 
L 269.127882 359.043409 
L 268.372169 358.541174 
L 267.616455 357.815739 
L 265.349314 357.438602 
L 263.082174 354.948875 
L 262.32646 354.860957 
L 260.815033 353.82278 
L 260.059319 352.704671 
L 259.303606 352.438393 
L 257.792179 351.253627 
L 257.036465 350.810523 
L 256.280752 350.650711 
L 255.525038 349.743314 
L 254.769325 349.736115 
L 254.013611 347.706332 
L 253.257897 346.120576 
L 252.502184 343.721721 
L 251.74647 324.435496 
L 250.990757 321.499467 
L 250.235043 338.306101 
L 249.47933 335.341552 
L 248.723616 334.22021 
L 247.212189 336.420906 
L 246.456475 347.954351 
L 245.700762 347.665104 
L 244.945048 335.707274 
L 244.189335 334.424789 
L 243.433621 333.596324 
L 242.677908 334.610109 
L 241.922194 330.981579 
L 241.16648 330.78864 
L 240.410767 327.840193 
L 239.655053 329.700969 
L 238.89934 332.668081 
L 238.143626 333.63823 
L 237.387913 330.970558 
L 236.632199 331.87808 
L 235.876486 331.197698 
L 235.120772 331.338457 
L 234.365058 331.193374 
L 233.609345 329.258342 
L 232.853631 332.134759 
L 232.097918 331.604697 
L 231.342204 330.821536 
L 230.586491 330.353792 
L 229.830777 332.208158 
L 229.075063 331.146139 
L 228.31935 327.663993 
L 227.563636 336.728081 
L 226.807923 337.823552 
L 226.052209 337.629027 
L 225.296496 337.934917 
L 224.540782 336.233022 
L 223.785069 333.902194 
L 223.029355 337.071353 
L 222.273641 324.479035 
L 221.517928 321.890237 
L 220.762214 325.458741 
L 220.006501 327.435017 
L 219.250787 327.934657 
L 218.495074 332.70985 
L 217.73936 330.169347 
L 216.983647 330.602685 
L 216.227933 338.037187 
L 215.472219 339.091225 
L 214.716506 338.596783 
L 213.960792 341.482846 
L 213.205079 341.313203 
L 212.449365 342.069204 
L 211.693652 343.350308 
L 210.937938 345.9167 
L 210.182224 347.927593 
L 209.426511 347.602196 
L 208.670797 346.101508 
L 207.915084 347.566766 
L 207.15937 348.275802 
L 206.403657 348.516607 
L 205.647943 345.698108 
L 204.89223 349.506451 
L 204.136516 350.59267 
L 203.380802 351.41614 
L 202.625089 353.7751 
L 201.869375 355.637844 
L 201.113662 356.413635 
L 200.357948 358.896967 
L 199.602235 359.152992 
L 198.846521 359.565424 
L 198.090808 359.798538 
L 197.335094 359.12782 
L 195.823667 360.688007 
L 195.067953 359.892165 
L 194.31224 360.488521 
L 193.556526 360.663595 
L 192.045099 363.022256 
L 190.533672 363.582345 
L 188.266531 364.25448 
L 186.755104 363.663413 
L 185.999391 363.809317 
L 183.73225 363.141864 
L 182.976536 363.248423 
L 181.465109 364.817221 
L 180.709396 365.019659 
L 179.953682 365.880812 
L 179.197969 366.281132 
L 177.686541 366.638418 
L 175.419401 366.594801 
L 174.663687 366.423097 
L 173.907974 366.564734 
L 173.15226 366.498921 
L 170.885119 366.947591 
L 170.129406 367.360404 
L 167.862265 367.628922 
L 166.350838 367.606717 
L 165.595124 367.777043 
L 164.839411 367.652984 
L 164.083697 367.726825 
L 163.327984 368.126533 
L 161.060843 368.165841 
L 159.549416 368.076855 
L 158.793702 368.235282 
L 158.037989 367.918287 
L 155.015135 368.181437 
L 154.259421 368.268984 
L 153.503707 368.227437 
L 151.236567 368.429674 
L 148.213713 368.531524 
L 146.702285 368.428584 
L 143.679431 368.493264 
L 139.14515 368.682408 
L 129.320874 368.971208 
L 128.56516 369.065167 
L 127.053733 369.040711 
L 125.542306 369.097742 
L 121.008024 369.190774 
L 115.718029 369.207033 
L 108.160894 369.335489 
L 108.160894 369.335489 
" style="fill:none;stroke:#ff7f0e;stroke-linecap:square;stroke-width:1.5;"/>
   </g>
   <g id="patch_3">
    <path d="M 72 384.48 
L 72 51.84 
" style="fill:none;stroke:#000000;stroke-linecap:square;stroke-linejoin:miter;stroke-width:0.8;"/>
   </g>
   <g id="patch_4">
    <path d="M 518.4 384.48 
L 518.4 51.84 
" style="fill:none;stroke:#000000;stroke-linecap:square;stroke-linejoin:miter;stroke-width:0.8;"/>
   </g>
   <g id="patch_5">
    <path d="M 72 384.48 
L 518.4 384.48 
" style="fill:none;stroke:#000000;stroke-linecap:square;stroke-linejoin:miter;stroke-width:0.8;"/>
   </g>
   <g id="patch_6">
    <path d="M 72 51.84 
L 518.4 51.84 
" style="fill:none;stroke:#000000;stroke-linecap:square;stroke-linejoin:miter;stroke-width:0.8;"/>
   </g>
   <g id="text_17">
    <!-- Doubling Time -->
    <defs>
     <path d="M 48.6875 27.296875 
Q 48.6875 37.203125 44.609375 42.84375 
Q 40.53125 48.484375 33.40625 48.484375 
Q 26.265625 48.484375 22.1875 42.84375 
Q 18.109375 37.203125 18.109375 27.296875 
Q 18.109375 17.390625 22.1875 11.75 
Q 26.265625 6.109375 33.40625 6.109375 
Q 40.53125 6.109375 44.609375 11.75 
Q 48.6875 17.390625 48.6875 27.296875 
z
M 18.109375 46.390625 
Q 20.953125 51.265625 25.265625 53.625 
Q 29.59375 56 35.59375 56 
Q 45.5625 56 51.78125 48.09375 
Q 58.015625 40.1875 58.015625 27.296875 
Q 58.015625 14.40625 51.78125 6.484375 
Q 45.5625 -1.421875 35.59375 -1.421875 
Q 29.59375 -1.421875 25.265625 0.953125 
Q 20.953125 3.328125 18.109375 8.203125 
L 18.109375 0 
L 9.078125 0 
L 9.078125 75.984375 
L 18.109375 75.984375 
z
" id="DejaVuSans-98"/>
     <path d="M 9.421875 75.984375 
L 18.40625 75.984375 
L 18.40625 0 
L 9.421875 0 
z
" id="DejaVuSans-108"/>
     <path d="M 45.40625 27.984375 
Q 45.40625 37.75 41.375 43.109375 
Q 37.359375 48.484375 30.078125 48.484375 
Q 22.859375 48.484375 18.828125 43.109375 
Q 14.796875 37.75 14.796875 27.984375 
Q 14.796875 18.265625 18.828125 12.890625 
Q 22.859375 7.515625 30.078125 7.515625 
Q 37.359375 7.515625 41.375 12.890625 
Q 45.40625 18.265625 45.40625 27.984375 
z
M 54.390625 6.78125 
Q 54.390625 -7.171875 48.1875 -13.984375 
Q 42 -20.796875 29.203125 -20.796875 
Q 24.46875 -20.796875 20.265625 -20.09375 
Q 16.0625 -19.390625 12.109375 -17.921875 
L 12.109375 -9.1875 
Q 16.0625 -11.328125 19.921875 -12.34375 
Q 23.78125 -13.375 27.78125 -13.375 
Q 36.625 -13.375 41.015625 -8.765625 
Q 45.40625 -4.15625 45.40625 5.171875 
L 45.40625 9.625 
Q 42.625 4.78125 38.28125 2.390625 
Q 33.9375 0 27.875 0 
Q 17.828125 0 11.671875 7.65625 
Q 5.515625 15.328125 5.515625 27.984375 
Q 5.515625 40.671875 11.671875 48.328125 
Q 17.828125 56 27.875 56 
Q 33.9375 56 38.28125 53.609375 
Q 42.625 51.21875 45.40625 46.390625 
L 45.40625 54.6875 
L 54.390625 54.6875 
z
" id="DejaVuSans-103"/>
     <path d="M -0.296875 72.90625 
L 61.375 72.90625 
L 61.375 64.59375 
L 35.5 64.59375 
L 35.5 0 
L 25.59375 0 
L 25.59375 64.59375 
L -0.296875 64.59375 
z
" id="DejaVuSans-84"/>
     <path d="M 52 44.1875 
Q 55.375 50.25 60.0625 53.125 
Q 64.75 56 71.09375 56 
Q 79.640625 56 84.28125 50.015625 
Q 88.921875 44.046875 88.921875 33.015625 
L 88.921875 0 
L 79.890625 0 
L 79.890625 32.71875 
Q 79.890625 40.578125 77.09375 44.375 
Q 74.3125 48.1875 68.609375 48.1875 
Q 61.625 48.1875 57.5625 43.546875 
Q 53.515625 38.921875 53.515625 30.90625 
L 53.515625 0 
L 44.484375 0 
L 44.484375 32.71875 
Q 44.484375 40.625 41.703125 44.40625 
Q 38.921875 48.1875 33.109375 48.1875 
Q 26.21875 48.1875 22.15625 43.53125 
Q 18.109375 38.875 18.109375 30.90625 
L 18.109375 0 
L 9.078125 0 
L 9.078125 54.6875 
L 18.109375 54.6875 
L 18.109375 46.1875 
Q 21.1875 51.21875 25.484375 53.609375 
Q 29.78125 56 35.6875 56 
Q 41.65625 56 45.828125 52.96875 
Q 50 49.953125 52 44.1875 
z
" id="DejaVuSans-109"/>
    </defs>
    <g transform="translate(251.764687 45.84)scale(0.12 -0.12)">
     <use xlink:href="#DejaVuSans-68"/>
     <use x="77.001953" xlink:href="#DejaVuSans-111"/>
     <use x="138.183594" xlink:href="#DejaVuSans-117"/>
     <use x="201.5625" xlink:href="#DejaVuSans-98"/>
     <use x="265.039062" xlink:href="#DejaVuSans-108"/>
     <use x="292.822266" xlink:href="#DejaVuSans-105"/>
     <use x="320.605469" xlink:href="#DejaVuSans-110"/>
     <use x="383.984375" xlink:href="#DejaVuSans-103"/>
     <use x="447.460938" xlink:href="#DejaVuSans-32"/>
     <use x="479.248047" xlink:href="#DejaVuSans-84"/>
     <use x="537.207031" xlink:href="#DejaVuSans-105"/>
     <use x="564.990234" xlink:href="#DejaVuSans-109"/>
     <use x="662.402344" xlink:href="#DejaVuSans-101"/>
    </g>
   </g>
   <g id="legend_1">
    <g id="patch_7">
     <path d="M 79 89.19625 
L 354.582813 89.19625 
Q 356.582813 89.19625 356.582813 87.19625 
L 356.582813 58.84 
Q 356.582813 56.84 354.582813 56.84 
L 79 56.84 
Q 77 56.84 77 58.84 
L 77 87.19625 
Q 77 89.19625 79 89.19625 
z
" style="fill:#ffffff;opacity:0.8;stroke:#cccccc;stroke-linejoin:miter;"/>
    </g>
    <g id="line2d_17">
     <path d="M 81 64.938437 
L 101 64.938437 
" style="fill:none;stroke:#1f77b4;stroke-linecap:square;stroke-width:1.5;"/>
    </g>
    <g id="line2d_18"/>
    <g id="text_18">
     <!-- Doubling Time of Confirmed Cases (over 7 days) -->
     <defs>
      <path d="M 37.109375 75.984375 
L 37.109375 68.5 
L 28.515625 68.5 
Q 23.6875 68.5 21.796875 66.546875 
Q 19.921875 64.59375 19.921875 59.515625 
L 19.921875 54.6875 
L 34.71875 54.6875 
L 34.71875 47.703125 
L 19.921875 47.703125 
L 19.921875 0 
L 10.890625 0 
L 10.890625 47.703125 
L 2.296875 47.703125 
L 2.296875 54.6875 
L 10.890625 54.6875 
L 10.890625 58.5 
Q 10.890625 67.625 15.140625 71.796875 
Q 19.390625 75.984375 28.609375 75.984375 
z
" id="DejaVuSans-102"/>
      <path d="M 64.40625 67.28125 
L 64.40625 56.890625 
Q 59.421875 61.53125 53.78125 63.8125 
Q 48.140625 66.109375 41.796875 66.109375 
Q 29.296875 66.109375 22.65625 58.46875 
Q 16.015625 50.828125 16.015625 36.375 
Q 16.015625 21.96875 22.65625 14.328125 
Q 29.296875 6.6875 41.796875 6.6875 
Q 48.140625 6.6875 53.78125 8.984375 
Q 59.421875 11.28125 64.40625 15.921875 
L 64.40625 5.609375 
Q 59.234375 2.09375 53.4375 0.328125 
Q 47.65625 -1.421875 41.21875 -1.421875 
Q 24.65625 -1.421875 15.125 8.703125 
Q 5.609375 18.84375 5.609375 36.375 
Q 5.609375 53.953125 15.125 64.078125 
Q 24.65625 74.21875 41.21875 74.21875 
Q 47.75 74.21875 53.53125 72.484375 
Q 59.328125 70.75 64.40625 67.28125 
z
" id="DejaVuSans-67"/>
      <path d="M 31 75.875 
Q 24.46875 64.65625 21.28125 53.65625 
Q 18.109375 42.671875 18.109375 31.390625 
Q 18.109375 20.125 21.3125 9.0625 
Q 24.515625 -2 31 -13.1875 
L 23.1875 -13.1875 
Q 15.875 -1.703125 12.234375 9.375 
Q 8.59375 20.453125 8.59375 31.390625 
Q 8.59375 42.28125 12.203125 53.3125 
Q 15.828125 64.359375 23.1875 75.875 
z
" id="DejaVuSans-40"/>
      <path d="M 2.984375 54.6875 
L 12.5 54.6875 
L 29.59375 8.796875 
L 46.6875 54.6875 
L 56.203125 54.6875 
L 35.6875 0 
L 23.484375 0 
z
" id="DejaVuSans-118"/>
      <path d="M 8.015625 75.875 
L 15.828125 75.875 
Q 23.140625 64.359375 26.78125 53.3125 
Q 30.421875 42.28125 30.421875 31.390625 
Q 30.421875 20.453125 26.78125 9.375 
Q 23.140625 -1.703125 15.828125 -13.1875 
L 8.015625 -13.1875 
Q 14.5 -2 17.703125 9.0625 
Q 20.90625 20.125 20.90625 31.390625 
Q 20.90625 42.671875 17.703125 53.65625 
Q 14.5 64.65625 8.015625 75.875 
z
" id="DejaVuSans-41"/>
     </defs>
     <g transform="translate(109 68.438437)scale(0.1 -0.1)">
      <use xlink:href="#DejaVuSans-68"/>
      <use x="77.001953" xlink:href="#DejaVuSans-111"/>
      <use x="138.183594" xlink:href="#DejaVuSans-117"/>
      <use x="201.5625" xlink:href="#DejaVuSans-98"/>
      <use x="265.039062" xlink:href="#DejaVuSans-108"/>
      <use x="292.822266" xlink:href="#DejaVuSans-105"/>
      <use x="320.605469" xlink:href="#DejaVuSans-110"/>
      <use x="383.984375" xlink:href="#DejaVuSans-103"/>
      <use x="447.460938" xlink:href="#DejaVuSans-32"/>
      <use x="479.248047" xlink:href="#DejaVuSans-84"/>
      <use x="537.207031" xlink:href="#DejaVuSans-105"/>
      <use x="564.990234" xlink:href="#DejaVuSans-109"/>
      <use x="662.402344" xlink:href="#DejaVuSans-101"/>
      <use x="723.925781" xlink:href="#DejaVuSans-32"/>
      <use x="755.712891" xlink:href="#DejaVuSans-111"/>
      <use x="816.894531" xlink:href="#DejaVuSans-102"/>
      <use x="852.099609" xlink:href="#DejaVuSans-32"/>
      <use x="883.886719" xlink:href="#DejaVuSans-67"/>
      <use x="953.710938" xlink:href="#DejaVuSans-111"/>
      <use x="1014.892578" xlink:href="#DejaVuSans-110"/>
      <use x="1078.271484" xlink:href="#DejaVuSans-102"/>
      <use x="1113.476562" xlink:href="#DejaVuSans-105"/>
      <use x="1141.259766" xlink:href="#DejaVuSans-114"/>
      <use x="1180.623047" xlink:href="#DejaVuSans-109"/>
      <use x="1278.035156" xlink:href="#DejaVuSans-101"/>
      <use x="1339.558594" xlink:href="#DejaVuSans-100"/>
      <use x="1403.035156" xlink:href="#DejaVuSans-32"/>
      <use x="1434.822266" xlink:href="#DejaVuSans-67"/>
      <use x="1504.646484" xlink:href="#DejaVuSans-97"/>
      <use x="1565.925781" xlink:href="#DejaVuSans-115"/>
      <use x="1618.025391" xlink:href="#DejaVuSans-101"/>
      <use x="1679.548828" xlink:href="#DejaVuSans-115"/>
      <use x="1731.648438" xlink:href="#DejaVuSans-32"/>
      <use x="1763.435547" xlink:href="#DejaVuSans-40"/>
      <use x="1802.449219" xlink:href="#DejaVuSans-111"/>
      <use x="1863.630859" xlink:href="#DejaVuSans-118"/>
      <use x="1922.810547" xlink:href="#DejaVuSans-101"/>
      <use x="1984.333984" xlink:href="#DejaVuSans-114"/>
      <use x="2025.447266" xlink:href="#DejaVuSans-32"/>
      <use x="2057.234375" xlink:href="#DejaVuSans-55"/>
      <use x="2120.857422" xlink:href="#DejaVuSans-32"/>
      <use x="2152.644531" xlink:href="#DejaVuSans-100"/>
      <use x="2216.121094" xlink:href="#DejaVuSans-97"/>
      <use x="2277.400391" xlink:href="#DejaVuSans-121"/>
      <use x="2336.580078" xlink:href="#DejaVuSans-115"/>
      <use x="2388.679688" xlink:href="#DejaVuSans-41"/>
     </g>
    </g>
    <g id="line2d_19">
     <path d="M 81 79.616562 
L 101 79.616562 
" style="fill:none;stroke:#ff7f0e;stroke-linecap:square;stroke-width:1.5;"/>
    </g>
    <g id="line2d_20"/>
    <g id="text_19">
     <!-- Doubling Time of Recovered Cases (over 7 days) -->
     <defs>
      <path d="M 48.78125 52.59375 
L 48.78125 44.1875 
Q 44.96875 46.296875 41.140625 47.34375 
Q 37.3125 48.390625 33.40625 48.390625 
Q 24.65625 48.390625 19.8125 42.84375 
Q 14.984375 37.3125 14.984375 27.296875 
Q 14.984375 17.28125 19.8125 11.734375 
Q 24.65625 6.203125 33.40625 6.203125 
Q 37.3125 6.203125 41.140625 7.25 
Q 44.96875 8.296875 48.78125 10.40625 
L 48.78125 2.09375 
Q 45.015625 0.34375 40.984375 -0.53125 
Q 36.96875 -1.421875 32.421875 -1.421875 
Q 20.0625 -1.421875 12.78125 6.34375 
Q 5.515625 14.109375 5.515625 27.296875 
Q 5.515625 40.671875 12.859375 48.328125 
Q 20.21875 56 33.015625 56 
Q 37.15625 56 41.109375 55.140625 
Q 45.0625 54.296875 48.78125 52.59375 
z
" id="DejaVuSans-99"/>
     </defs>
     <g transform="translate(109 83.116562)scale(0.1 -0.1)">
      <use xlink:href="#DejaVuSans-68"/>
      <use x="77.001953" xlink:href="#DejaVuSans-111"/>
      <use x="138.183594" xlink:href="#DejaVuSans-117"/>
      <use x="201.5625" xlink:href="#DejaVuSans-98"/>
      <use x="265.039062" xlink:href="#DejaVuSans-108"/>
      <use x="292.822266" xlink:href="#DejaVuSans-105"/>
      <use x="320.605469" xlink:href="#DejaVuSans-110"/>
      <use x="383.984375" xlink:href="#DejaVuSans-103"/>
      <use x="447.460938" xlink:href="#DejaVuSans-32"/>
      <use x="479.248047" xlink:href="#DejaVuSans-84"/>
      <use x="537.207031" xlink:href="#DejaVuSans-105"/>
      <use x="564.990234" xlink:href="#DejaVuSans-109"/>
      <use x="662.402344" xlink:href="#DejaVuSans-101"/>
      <use x="723.925781" xlink:href="#DejaVuSans-32"/>
      <use x="755.712891" xlink:href="#DejaVuSans-111"/>
      <use x="816.894531" xlink:href="#DejaVuSans-102"/>
      <use x="852.099609" xlink:href="#DejaVuSans-32"/>
      <use x="883.886719" xlink:href="#DejaVuSans-82"/>
      <use x="948.869141" xlink:href="#DejaVuSans-101"/>
      <use x="1010.392578" xlink:href="#DejaVuSans-99"/>
      <use x="1065.373047" xlink:href="#DejaVuSans-111"/>
      <use x="1126.554688" xlink:href="#DejaVuSans-118"/>
      <use x="1185.734375" xlink:href="#DejaVuSans-101"/>
      <use x="1247.257812" xlink:href="#DejaVuSans-114"/>
      <use x="1286.121094" xlink:href="#DejaVuSans-101"/>
      <use x="1347.644531" xlink:href="#DejaVuSans-100"/>
      <use x="1411.121094" xlink:href="#DejaVuSans-32"/>
      <use x="1442.908203" xlink:href="#DejaVuSans-67"/>
      <use x="1512.732422" xlink:href="#DejaVuSans-97"/>
      <use x="1574.011719" xlink:href="#DejaVuSans-115"/>
      <use x="1626.111328" xlink:href="#DejaVuSans-101"/>
      <use x="1687.634766" xlink:href="#DejaVuSans-115"/>
      <use x="1739.734375" xlink:href="#DejaVuSans-32"/>
      <use x="1771.521484" xlink:href="#DejaVuSans-40"/>
      <use x="1810.535156" xlink:href="#DejaVuSans-111"/>
      <use x="1871.716797" xlink:href="#DejaVuSans-118"/>
      <use x="1930.896484" xlink:href="#DejaVuSans-101"/>
      <use x="1992.419922" xlink:href="#DejaVuSans-114"/>
      <use x="2033.533203" xlink:href="#DejaVuSans-32"/>
      <use x="2065.320312" xlink:href="#DejaVuSans-55"/>
      <use x="2128.943359" xlink:href="#DejaVuSans-32"/>
      <use x="2160.730469" xlink:href="#DejaVuSans-100"/>
      <use x="2224.207031" xlink:href="#DejaVuSans-97"/>
      <use x="2285.486328" xlink:href="#DejaVuSans-121"/>
      <use x="2344.666016" xlink:href="#DejaVuSans-115"/>
      <use x="2396.765625" xlink:href="#DejaVuSans-41"/>
     </g>
    </g>
   </g>
  </g>
 </g>
 <defs>
  <clipPath id="p68c31feff9">
   <rect height="332.64" width="446.4" x="72" y="51.84"/>
  </clipPath>
 </defs>
</svg>
