<?xml version="1.0" encoding="utf-8" standalone="no"?>
<!DOCTYPE svg PUBLIC "-//W3C//DTD SVG 1.1//EN"
  "http://www.w3.org/Graphics/SVG/1.1/DTD/svg11.dtd">
<!-- Created with matplotlib (https://matplotlib.org/) -->
<svg height="432pt" version="1.1" viewBox="0 0 576 432" width="576pt" xmlns="http://www.w3.org/2000/svg" xmlns:xlink="http://www.w3.org/1999/xlink">
 <defs>
  <style type="text/css">
*{stroke-linecap:butt;stroke-linejoin:round;}
  </style>
 </defs>
 <g id="figure_1">
  <g id="patch_1">
   <path d="M 0 432 
L 576 432 
L 576 0 
L 0 0 
z
" style="fill:#ffffff;"/>
  </g>
  <g id="axes_1">
   <g id="patch_2">
    <path d="M 72 384.48 
L 518.4 384.48 
L 518.4 51.84 
L 72 51.84 
z
" style="fill:#ffffff;"/>
   </g>
   <g id="matplotlib.axis_1">
    <g id="xtick_1">
     <g id="line2d_1">
      <defs>
       <path d="M 0 0 
L 0 3.5 
" id="m57d88325e2" style="stroke:#000000;stroke-width:0.8;"/>
      </defs>
      <g>
       <use style="stroke:#000000;stroke-width:0.8;" x="72.86888" xlink:href="#m57d88325e2" y="384.48"/>
      </g>
     </g>
     <g id="text_1">
      <!-- 2020-03 -->
      <defs>
       <path d="M 19.1875 8.296875 
L 53.609375 8.296875 
L 53.609375 0 
L 7.328125 0 
L 7.328125 8.296875 
Q 12.9375 14.109375 22.625 23.890625 
Q 32.328125 33.6875 34.8125 36.53125 
Q 39.546875 41.84375 41.421875 45.53125 
Q 43.3125 49.21875 43.3125 52.78125 
Q 43.3125 58.59375 39.234375 62.25 
Q 35.15625 65.921875 28.609375 65.921875 
Q 23.96875 65.921875 18.8125 64.3125 
Q 13.671875 62.703125 7.8125 59.421875 
L 7.8125 69.390625 
Q 13.765625 71.78125 18.9375 73 
Q 24.125 74.21875 28.421875 74.21875 
Q 39.75 74.21875 46.484375 68.546875 
Q 53.21875 62.890625 53.21875 53.421875 
Q 53.21875 48.921875 51.53125 44.890625 
Q 49.859375 40.875 45.40625 35.40625 
Q 44.1875 33.984375 37.640625 27.21875 
Q 31.109375 20.453125 19.1875 8.296875 
z
" id="DejaVuSans-50"/>
       <path d="M 31.78125 66.40625 
Q 24.171875 66.40625 20.328125 58.90625 
Q 16.5 51.421875 16.5 36.375 
Q 16.5 21.390625 20.328125 13.890625 
Q 24.171875 6.390625 31.78125 6.390625 
Q 39.453125 6.390625 43.28125 13.890625 
Q 47.125 21.390625 47.125 36.375 
Q 47.125 51.421875 43.28125 58.90625 
Q 39.453125 66.40625 31.78125 66.40625 
z
M 31.78125 74.21875 
Q 44.046875 74.21875 50.515625 64.515625 
Q 56.984375 54.828125 56.984375 36.375 
Q 56.984375 17.96875 50.515625 8.265625 
Q 44.046875 -1.421875 31.78125 -1.421875 
Q 19.53125 -1.421875 13.0625 8.265625 
Q 6.59375 17.96875 6.59375 36.375 
Q 6.59375 54.828125 13.0625 64.515625 
Q 19.53125 74.21875 31.78125 74.21875 
z
" id="DejaVuSans-48"/>
       <path d="M 4.890625 31.390625 
L 31.203125 31.390625 
L 31.203125 23.390625 
L 4.890625 23.390625 
z
" id="DejaVuSans-45"/>
       <path d="M 40.578125 39.3125 
Q 47.65625 37.796875 51.625 33 
Q 55.609375 28.21875 55.609375 21.1875 
Q 55.609375 10.40625 48.1875 4.484375 
Q 40.765625 -1.421875 27.09375 -1.421875 
Q 22.515625 -1.421875 17.65625 -0.515625 
Q 12.796875 0.390625 7.625 2.203125 
L 7.625 11.71875 
Q 11.71875 9.328125 16.59375 8.109375 
Q 21.484375 6.890625 26.8125 6.890625 
Q 36.078125 6.890625 40.9375 10.546875 
Q 45.796875 14.203125 45.796875 21.1875 
Q 45.796875 27.640625 41.28125 31.265625 
Q 36.765625 34.90625 28.71875 34.90625 
L 20.21875 34.90625 
L 20.21875 43.015625 
L 29.109375 43.015625 
Q 36.375 43.015625 40.234375 45.921875 
Q 44.09375 48.828125 44.09375 54.296875 
Q 44.09375 59.90625 40.109375 62.90625 
Q 36.140625 65.921875 28.71875 65.921875 
Q 24.65625 65.921875 20.015625 65.03125 
Q 15.375 64.15625 9.8125 62.3125 
L 9.8125 71.09375 
Q 15.4375 72.65625 20.34375 73.4375 
Q 25.25 74.21875 29.59375 74.21875 
Q 40.828125 74.21875 47.359375 69.109375 
Q 53.90625 64.015625 53.90625 55.328125 
Q 53.90625 49.265625 50.4375 45.09375 
Q 46.96875 40.921875 40.578125 39.3125 
z
" id="DejaVuSans-51"/>
      </defs>
      <g transform="translate(51.977474 399.078438)scale(0.1 -0.1)">
       <use xlink:href="#DejaVuSans-50"/>
       <use x="63.623047" xlink:href="#DejaVuSans-48"/>
       <use x="127.246094" xlink:href="#DejaVuSans-50"/>
       <use x="190.869141" xlink:href="#DejaVuSans-48"/>
       <use x="254.492188" xlink:href="#DejaVuSans-45"/>
       <use x="290.576172" xlink:href="#DejaVuSans-48"/>
       <use x="354.199219" xlink:href="#DejaVuSans-51"/>
      </g>
     </g>
    </g>
    <g id="xtick_2">
     <g id="line2d_2">
      <g>
       <use style="stroke:#000000;stroke-width:0.8;" x="135.223815" xlink:href="#m57d88325e2" y="384.48"/>
      </g>
     </g>
     <g id="text_2">
      <!-- 2020-05 -->
      <defs>
       <path d="M 10.796875 72.90625 
L 49.515625 72.90625 
L 49.515625 64.59375 
L 19.828125 64.59375 
L 19.828125 46.734375 
Q 21.96875 47.46875 24.109375 47.828125 
Q 26.265625 48.1875 28.421875 48.1875 
Q 40.625 48.1875 47.75 41.5 
Q 54.890625 34.8125 54.890625 23.390625 
Q 54.890625 11.625 47.5625 5.09375 
Q 40.234375 -1.421875 26.90625 -1.421875 
Q 22.3125 -1.421875 17.546875 -0.640625 
Q 12.796875 0.140625 7.71875 1.703125 
L 7.71875 11.625 
Q 12.109375 9.234375 16.796875 8.0625 
Q 21.484375 6.890625 26.703125 6.890625 
Q 35.15625 6.890625 40.078125 11.328125 
Q 45.015625 15.765625 45.015625 23.390625 
Q 45.015625 31 40.078125 35.4375 
Q 35.15625 39.890625 26.703125 39.890625 
Q 22.75 39.890625 18.8125 39.015625 
Q 14.890625 38.140625 10.796875 36.28125 
z
" id="DejaVuSans-53"/>
      </defs>
      <g transform="translate(114.332409 399.078438)scale(0.1 -0.1)">
       <use xlink:href="#DejaVuSans-50"/>
       <use x="63.623047" xlink:href="#DejaVuSans-48"/>
       <use x="127.246094" xlink:href="#DejaVuSans-50"/>
       <use x="190.869141" xlink:href="#DejaVuSans-48"/>
       <use x="254.492188" xlink:href="#DejaVuSans-45"/>
       <use x="290.576172" xlink:href="#DejaVuSans-48"/>
       <use x="354.199219" xlink:href="#DejaVuSans-53"/>
      </g>
     </g>
    </g>
    <g id="xtick_3">
     <g id="line2d_3">
      <g>
       <use style="stroke:#000000;stroke-width:0.8;" x="197.57875" xlink:href="#m57d88325e2" y="384.48"/>
      </g>
     </g>
     <g id="text_3">
      <!-- 2020-07 -->
      <defs>
       <path d="M 8.203125 72.90625 
L 55.078125 72.90625 
L 55.078125 68.703125 
L 28.609375 0 
L 18.3125 0 
L 43.21875 64.59375 
L 8.203125 64.59375 
z
" id="DejaVuSans-55"/>
      </defs>
      <g transform="translate(176.687343 399.078438)scale(0.1 -0.1)">
       <use xlink:href="#DejaVuSans-50"/>
       <use x="63.623047" xlink:href="#DejaVuSans-48"/>
       <use x="127.246094" xlink:href="#DejaVuSans-50"/>
       <use x="190.869141" xlink:href="#DejaVuSans-48"/>
       <use x="254.492188" xlink:href="#DejaVuSans-45"/>
       <use x="290.576172" xlink:href="#DejaVuSans-48"/>
       <use x="354.199219" xlink:href="#DejaVuSans-55"/>
      </g>
     </g>
    </g>
    <g id="xtick_4">
     <g id="line2d_4">
      <g>
       <use style="stroke:#000000;stroke-width:0.8;" x="260.955896" xlink:href="#m57d88325e2" y="384.48"/>
      </g>
     </g>
     <g id="text_4">
      <!-- 2020-09 -->
      <defs>
       <path d="M 10.984375 1.515625 
L 10.984375 10.5 
Q 14.703125 8.734375 18.5 7.8125 
Q 22.3125 6.890625 25.984375 6.890625 
Q 35.75 6.890625 40.890625 13.453125 
Q 46.046875 20.015625 46.78125 33.40625 
Q 43.953125 29.203125 39.59375 26.953125 
Q 35.25 24.703125 29.984375 24.703125 
Q 19.046875 24.703125 12.671875 31.3125 
Q 6.296875 37.9375 6.296875 49.421875 
Q 6.296875 60.640625 12.9375 67.421875 
Q 19.578125 74.21875 30.609375 74.21875 
Q 43.265625 74.21875 49.921875 64.515625 
Q 56.59375 54.828125 56.59375 36.375 
Q 56.59375 19.140625 48.40625 8.859375 
Q 40.234375 -1.421875 26.421875 -1.421875 
Q 22.703125 -1.421875 18.890625 -0.6875 
Q 15.09375 0.046875 10.984375 1.515625 
z
M 30.609375 32.421875 
Q 37.25 32.421875 41.125 36.953125 
Q 45.015625 41.5 45.015625 49.421875 
Q 45.015625 57.28125 41.125 61.84375 
Q 37.25 66.40625 30.609375 66.40625 
Q 23.96875 66.40625 20.09375 61.84375 
Q 16.21875 57.28125 16.21875 49.421875 
Q 16.21875 41.5 20.09375 36.953125 
Q 23.96875 32.421875 30.609375 32.421875 
z
" id="DejaVuSans-57"/>
      </defs>
      <g transform="translate(240.06449 399.078438)scale(0.1 -0.1)">
       <use xlink:href="#DejaVuSans-50"/>
       <use x="63.623047" xlink:href="#DejaVuSans-48"/>
       <use x="127.246094" xlink:href="#DejaVuSans-50"/>
       <use x="190.869141" xlink:href="#DejaVuSans-48"/>
       <use x="254.492188" xlink:href="#DejaVuSans-45"/>
       <use x="290.576172" xlink:href="#DejaVuSans-48"/>
       <use x="354.199219" xlink:href="#DejaVuSans-57"/>
      </g>
     </g>
    </g>
    <g id="xtick_5">
     <g id="line2d_5">
      <g>
       <use style="stroke:#000000;stroke-width:0.8;" x="323.310831" xlink:href="#m57d88325e2" y="384.48"/>
      </g>
     </g>
     <g id="text_5">
      <!-- 2020-11 -->
      <defs>
       <path d="M 12.40625 8.296875 
L 28.515625 8.296875 
L 28.515625 63.921875 
L 10.984375 60.40625 
L 10.984375 69.390625 
L 28.421875 72.90625 
L 38.28125 72.90625 
L 38.28125 8.296875 
L 54.390625 8.296875 
L 54.390625 0 
L 12.40625 0 
z
" id="DejaVuSans-49"/>
      </defs>
      <g transform="translate(302.419425 399.078438)scale(0.1 -0.1)">
       <use xlink:href="#DejaVuSans-50"/>
       <use x="63.623047" xlink:href="#DejaVuSans-48"/>
       <use x="127.246094" xlink:href="#DejaVuSans-50"/>
       <use x="190.869141" xlink:href="#DejaVuSans-48"/>
       <use x="254.492188" xlink:href="#DejaVuSans-45"/>
       <use x="290.576172" xlink:href="#DejaVuSans-49"/>
       <use x="354.199219" xlink:href="#DejaVuSans-49"/>
      </g>
     </g>
    </g>
    <g id="xtick_6">
     <g id="line2d_6">
      <g>
       <use style="stroke:#000000;stroke-width:0.8;" x="385.665766" xlink:href="#m57d88325e2" y="384.48"/>
      </g>
     </g>
     <g id="text_6">
      <!-- 2021-01 -->
      <g transform="translate(364.77436 399.078438)scale(0.1 -0.1)">
       <use xlink:href="#DejaVuSans-50"/>
       <use x="63.623047" xlink:href="#DejaVuSans-48"/>
       <use x="127.246094" xlink:href="#DejaVuSans-50"/>
       <use x="190.869141" xlink:href="#DejaVuSans-49"/>
       <use x="254.492188" xlink:href="#DejaVuSans-45"/>
       <use x="290.576172" xlink:href="#DejaVuSans-48"/>
       <use x="354.199219" xlink:href="#DejaVuSans-49"/>
      </g>
     </g>
    </g>
    <g id="xtick_7">
     <g id="line2d_7">
      <g>
       <use style="stroke:#000000;stroke-width:0.8;" x="445.976277" xlink:href="#m57d88325e2" y="384.48"/>
      </g>
     </g>
     <g id="text_7">
      <!-- 2021-03 -->
      <g transform="translate(425.08487 399.078438)scale(0.1 -0.1)">
       <use xlink:href="#DejaVuSans-50"/>
       <use x="63.623047" xlink:href="#DejaVuSans-48"/>
       <use x="127.246094" xlink:href="#DejaVuSans-50"/>
       <use x="190.869141" xlink:href="#DejaVuSans-49"/>
       <use x="254.492188" xlink:href="#DejaVuSans-45"/>
       <use x="290.576172" xlink:href="#DejaVuSans-48"/>
       <use x="354.199219" xlink:href="#DejaVuSans-51"/>
      </g>
     </g>
    </g>
    <g id="xtick_8">
     <g id="line2d_8">
      <g>
       <use style="stroke:#000000;stroke-width:0.8;" x="508.331211" xlink:href="#m57d88325e2" y="384.48"/>
      </g>
     </g>
     <g id="text_8">
      <!-- 2021-05 -->
      <g transform="translate(487.439805 399.078438)scale(0.1 -0.1)">
       <use xlink:href="#DejaVuSans-50"/>
       <use x="63.623047" xlink:href="#DejaVuSans-48"/>
       <use x="127.246094" xlink:href="#DejaVuSans-50"/>
       <use x="190.869141" xlink:href="#DejaVuSans-49"/>
       <use x="254.492188" xlink:href="#DejaVuSans-45"/>
       <use x="290.576172" xlink:href="#DejaVuSans-48"/>
       <use x="354.199219" xlink:href="#DejaVuSans-53"/>
      </g>
     </g>
    </g>
    <g id="text_9">
     <!-- Reported On -->
     <defs>
      <path d="M 44.390625 34.1875 
Q 47.5625 33.109375 50.5625 29.59375 
Q 53.5625 26.078125 56.59375 19.921875 
L 66.609375 0 
L 56 0 
L 46.6875 18.703125 
Q 43.0625 26.03125 39.671875 28.421875 
Q 36.28125 30.8125 30.421875 30.8125 
L 19.671875 30.8125 
L 19.671875 0 
L 9.8125 0 
L 9.8125 72.90625 
L 32.078125 72.90625 
Q 44.578125 72.90625 50.734375 67.671875 
Q 56.890625 62.453125 56.890625 51.90625 
Q 56.890625 45.015625 53.6875 40.46875 
Q 50.484375 35.9375 44.390625 34.1875 
z
M 19.671875 64.796875 
L 19.671875 38.921875 
L 32.078125 38.921875 
Q 39.203125 38.921875 42.84375 42.21875 
Q 46.484375 45.515625 46.484375 51.90625 
Q 46.484375 58.296875 42.84375 61.546875 
Q 39.203125 64.796875 32.078125 64.796875 
z
" id="DejaVuSans-82"/>
      <path d="M 56.203125 29.59375 
L 56.203125 25.203125 
L 14.890625 25.203125 
Q 15.484375 15.921875 20.484375 11.0625 
Q 25.484375 6.203125 34.421875 6.203125 
Q 39.59375 6.203125 44.453125 7.46875 
Q 49.3125 8.734375 54.109375 11.28125 
L 54.109375 2.78125 
Q 49.265625 0.734375 44.1875 -0.34375 
Q 39.109375 -1.421875 33.890625 -1.421875 
Q 20.796875 -1.421875 13.15625 6.1875 
Q 5.515625 13.8125 5.515625 26.8125 
Q 5.515625 40.234375 12.765625 48.109375 
Q 20.015625 56 32.328125 56 
Q 43.359375 56 49.78125 48.890625 
Q 56.203125 41.796875 56.203125 29.59375 
z
M 47.21875 32.234375 
Q 47.125 39.59375 43.09375 43.984375 
Q 39.0625 48.390625 32.421875 48.390625 
Q 24.90625 48.390625 20.390625 44.140625 
Q 15.875 39.890625 15.1875 32.171875 
z
" id="DejaVuSans-101"/>
      <path d="M 18.109375 8.203125 
L 18.109375 -20.796875 
L 9.078125 -20.796875 
L 9.078125 54.6875 
L 18.109375 54.6875 
L 18.109375 46.390625 
Q 20.953125 51.265625 25.265625 53.625 
Q 29.59375 56 35.59375 56 
Q 45.5625 56 51.78125 48.09375 
Q 58.015625 40.1875 58.015625 27.296875 
Q 58.015625 14.40625 51.78125 6.484375 
Q 45.5625 -1.421875 35.59375 -1.421875 
Q 29.59375 -1.421875 25.265625 0.953125 
Q 20.953125 3.328125 18.109375 8.203125 
z
M 48.6875 27.296875 
Q 48.6875 37.203125 44.609375 42.84375 
Q 40.53125 48.484375 33.40625 48.484375 
Q 26.265625 48.484375 22.1875 42.84375 
Q 18.109375 37.203125 18.109375 27.296875 
Q 18.109375 17.390625 22.1875 11.75 
Q 26.265625 6.109375 33.40625 6.109375 
Q 40.53125 6.109375 44.609375 11.75 
Q 48.6875 17.390625 48.6875 27.296875 
z
" id="DejaVuSans-112"/>
      <path d="M 30.609375 48.390625 
Q 23.390625 48.390625 19.1875 42.75 
Q 14.984375 37.109375 14.984375 27.296875 
Q 14.984375 17.484375 19.15625 11.84375 
Q 23.34375 6.203125 30.609375 6.203125 
Q 37.796875 6.203125 41.984375 11.859375 
Q 46.1875 17.53125 46.1875 27.296875 
Q 46.1875 37.015625 41.984375 42.703125 
Q 37.796875 48.390625 30.609375 48.390625 
z
M 30.609375 56 
Q 42.328125 56 49.015625 48.375 
Q 55.71875 40.765625 55.71875 27.296875 
Q 55.71875 13.875 49.015625 6.21875 
Q 42.328125 -1.421875 30.609375 -1.421875 
Q 18.84375 -1.421875 12.171875 6.21875 
Q 5.515625 13.875 5.515625 27.296875 
Q 5.515625 40.765625 12.171875 48.375 
Q 18.84375 56 30.609375 56 
z
" id="DejaVuSans-111"/>
      <path d="M 41.109375 46.296875 
Q 39.59375 47.171875 37.8125 47.578125 
Q 36.03125 48 33.890625 48 
Q 26.265625 48 22.1875 43.046875 
Q 18.109375 38.09375 18.109375 28.8125 
L 18.109375 0 
L 9.078125 0 
L 9.078125 54.6875 
L 18.109375 54.6875 
L 18.109375 46.1875 
Q 20.953125 51.171875 25.484375 53.578125 
Q 30.03125 56 36.53125 56 
Q 37.453125 56 38.578125 55.875 
Q 39.703125 55.765625 41.0625 55.515625 
z
" id="DejaVuSans-114"/>
      <path d="M 18.3125 70.21875 
L 18.3125 54.6875 
L 36.8125 54.6875 
L 36.8125 47.703125 
L 18.3125 47.703125 
L 18.3125 18.015625 
Q 18.3125 11.328125 20.140625 9.421875 
Q 21.96875 7.515625 27.59375 7.515625 
L 36.8125 7.515625 
L 36.8125 0 
L 27.59375 0 
Q 17.1875 0 13.234375 3.875 
Q 9.28125 7.765625 9.28125 18.015625 
L 9.28125 47.703125 
L 2.6875 47.703125 
L 2.6875 54.6875 
L 9.28125 54.6875 
L 9.28125 70.21875 
z
" id="DejaVuSans-116"/>
      <path d="M 45.40625 46.390625 
L 45.40625 75.984375 
L 54.390625 75.984375 
L 54.390625 0 
L 45.40625 0 
L 45.40625 8.203125 
Q 42.578125 3.328125 38.25 0.953125 
Q 33.9375 -1.421875 27.875 -1.421875 
Q 17.96875 -1.421875 11.734375 6.484375 
Q 5.515625 14.40625 5.515625 27.296875 
Q 5.515625 40.1875 11.734375 48.09375 
Q 17.96875 56 27.875 56 
Q 33.9375 56 38.25 53.625 
Q 42.578125 51.265625 45.40625 46.390625 
z
M 14.796875 27.296875 
Q 14.796875 17.390625 18.875 11.75 
Q 22.953125 6.109375 30.078125 6.109375 
Q 37.203125 6.109375 41.296875 11.75 
Q 45.40625 17.390625 45.40625 27.296875 
Q 45.40625 37.203125 41.296875 42.84375 
Q 37.203125 48.484375 30.078125 48.484375 
Q 22.953125 48.484375 18.875 42.84375 
Q 14.796875 37.203125 14.796875 27.296875 
z
" id="DejaVuSans-100"/>
      <path id="DejaVuSans-32"/>
      <path d="M 39.40625 66.21875 
Q 28.65625 66.21875 22.328125 58.203125 
Q 16.015625 50.203125 16.015625 36.375 
Q 16.015625 22.609375 22.328125 14.59375 
Q 28.65625 6.59375 39.40625 6.59375 
Q 50.140625 6.59375 56.421875 14.59375 
Q 62.703125 22.609375 62.703125 36.375 
Q 62.703125 50.203125 56.421875 58.203125 
Q 50.140625 66.21875 39.40625 66.21875 
z
M 39.40625 74.21875 
Q 54.734375 74.21875 63.90625 63.9375 
Q 73.09375 53.65625 73.09375 36.375 
Q 73.09375 19.140625 63.90625 8.859375 
Q 54.734375 -1.421875 39.40625 -1.421875 
Q 24.03125 -1.421875 14.8125 8.828125 
Q 5.609375 19.09375 5.609375 36.375 
Q 5.609375 53.65625 14.8125 63.9375 
Q 24.03125 74.21875 39.40625 74.21875 
z
" id="DejaVuSans-79"/>
      <path d="M 54.890625 33.015625 
L 54.890625 0 
L 45.90625 0 
L 45.90625 32.71875 
Q 45.90625 40.484375 42.875 44.328125 
Q 39.84375 48.1875 33.796875 48.1875 
Q 26.515625 48.1875 22.3125 43.546875 
Q 18.109375 38.921875 18.109375 30.90625 
L 18.109375 0 
L 9.078125 0 
L 9.078125 54.6875 
L 18.109375 54.6875 
L 18.109375 46.1875 
Q 21.34375 51.125 25.703125 53.5625 
Q 30.078125 56 35.796875 56 
Q 45.21875 56 50.046875 50.171875 
Q 54.890625 44.34375 54.890625 33.015625 
z
" id="DejaVuSans-110"/>
     </defs>
     <g transform="translate(263.680469 412.756563)scale(0.1 -0.1)">
      <use xlink:href="#DejaVuSans-82"/>
      <use x="64.982422" xlink:href="#DejaVuSans-101"/>
      <use x="126.505859" xlink:href="#DejaVuSans-112"/>
      <use x="189.982422" xlink:href="#DejaVuSans-111"/>
      <use x="251.164062" xlink:href="#DejaVuSans-114"/>
      <use x="292.277344" xlink:href="#DejaVuSans-116"/>
      <use x="331.486328" xlink:href="#DejaVuSans-101"/>
      <use x="393.009766" xlink:href="#DejaVuSans-100"/>
      <use x="456.486328" xlink:href="#DejaVuSans-32"/>
      <use x="488.273438" xlink:href="#DejaVuSans-79"/>
      <use x="566.984375" xlink:href="#DejaVuSans-110"/>
     </g>
    </g>
   </g>
   <g id="matplotlib.axis_2">
    <g id="ytick_1">
     <g id="line2d_9">
      <defs>
       <path d="M 0 0 
L -3.5 0 
" id="m613729258a" style="stroke:#000000;stroke-width:0.8;"/>
      </defs>
      <g>
       <use style="stroke:#000000;stroke-width:0.8;" x="72" xlink:href="#m613729258a" y="368.401282"/>
      </g>
     </g>
     <g id="text_10">
      <!-- 0.00 % -->
      <defs>
       <path d="M 10.6875 12.40625 
L 21 12.40625 
L 21 0 
L 10.6875 0 
z
" id="DejaVuSans-46"/>
       <path d="M 72.703125 32.078125 
Q 68.453125 32.078125 66.03125 28.46875 
Q 63.625 24.859375 63.625 18.40625 
Q 63.625 12.0625 66.03125 8.421875 
Q 68.453125 4.78125 72.703125 4.78125 
Q 76.859375 4.78125 79.265625 8.421875 
Q 81.6875 12.0625 81.6875 18.40625 
Q 81.6875 24.8125 79.265625 28.4375 
Q 76.859375 32.078125 72.703125 32.078125 
z
M 72.703125 38.28125 
Q 80.421875 38.28125 84.953125 32.90625 
Q 89.5 27.546875 89.5 18.40625 
Q 89.5 9.28125 84.9375 3.921875 
Q 80.375 -1.421875 72.703125 -1.421875 
Q 64.890625 -1.421875 60.34375 3.921875 
Q 55.8125 9.28125 55.8125 18.40625 
Q 55.8125 27.59375 60.375 32.9375 
Q 64.9375 38.28125 72.703125 38.28125 
z
M 22.3125 68.015625 
Q 18.109375 68.015625 15.6875 64.375 
Q 13.28125 60.75 13.28125 54.390625 
Q 13.28125 47.953125 15.671875 44.328125 
Q 18.0625 40.71875 22.3125 40.71875 
Q 26.5625 40.71875 28.96875 44.328125 
Q 31.390625 47.953125 31.390625 54.390625 
Q 31.390625 60.6875 28.953125 64.34375 
Q 26.515625 68.015625 22.3125 68.015625 
z
M 66.40625 74.21875 
L 74.21875 74.21875 
L 28.609375 -1.421875 
L 20.796875 -1.421875 
z
M 22.3125 74.21875 
Q 30.03125 74.21875 34.609375 68.875 
Q 39.203125 63.53125 39.203125 54.390625 
Q 39.203125 45.171875 34.640625 39.84375 
Q 30.078125 34.515625 22.3125 34.515625 
Q 14.546875 34.515625 10.03125 39.859375 
Q 5.515625 45.21875 5.515625 54.390625 
Q 5.515625 63.484375 10.046875 68.84375 
Q 14.59375 74.21875 22.3125 74.21875 
z
" id="DejaVuSans-37"/>
      </defs>
      <g transform="translate(30.054688 372.2005)scale(0.1 -0.1)">
       <use xlink:href="#DejaVuSans-48"/>
       <use x="63.623047" xlink:href="#DejaVuSans-46"/>
       <use x="95.410156" xlink:href="#DejaVuSans-48"/>
       <use x="159.033203" xlink:href="#DejaVuSans-48"/>
       <use x="222.65625" xlink:href="#DejaVuSans-32"/>
       <use x="254.443359" xlink:href="#DejaVuSans-37"/>
      </g>
     </g>
    </g>
    <g id="ytick_2">
     <g id="line2d_10">
      <g>
       <use style="stroke:#000000;stroke-width:0.8;" x="72" xlink:href="#m613729258a" y="322.581282"/>
      </g>
     </g>
     <g id="text_11">
      <!-- 5.00 % -->
      <g transform="translate(30.054688 326.3805)scale(0.1 -0.1)">
       <use xlink:href="#DejaVuSans-53"/>
       <use x="63.623047" xlink:href="#DejaVuSans-46"/>
       <use x="95.410156" xlink:href="#DejaVuSans-48"/>
       <use x="159.033203" xlink:href="#DejaVuSans-48"/>
       <use x="222.65625" xlink:href="#DejaVuSans-32"/>
       <use x="254.443359" xlink:href="#DejaVuSans-37"/>
      </g>
     </g>
    </g>
    <g id="ytick_3">
     <g id="line2d_11">
      <g>
       <use style="stroke:#000000;stroke-width:0.8;" x="72" xlink:href="#m613729258a" y="276.761282"/>
      </g>
     </g>
     <g id="text_12">
      <!-- 10.00 % -->
      <g transform="translate(23.692187 280.560501)scale(0.1 -0.1)">
       <use xlink:href="#DejaVuSans-49"/>
       <use x="63.623047" xlink:href="#DejaVuSans-48"/>
       <use x="127.246094" xlink:href="#DejaVuSans-46"/>
       <use x="159.033203" xlink:href="#DejaVuSans-48"/>
       <use x="222.65625" xlink:href="#DejaVuSans-48"/>
       <use x="286.279297" xlink:href="#DejaVuSans-32"/>
       <use x="318.066406" xlink:href="#DejaVuSans-37"/>
      </g>
     </g>
    </g>
    <g id="ytick_4">
     <g id="line2d_12">
      <g>
       <use style="stroke:#000000;stroke-width:0.8;" x="72" xlink:href="#m613729258a" y="230.941282"/>
      </g>
     </g>
     <g id="text_13">
      <!-- 15.00 % -->
      <g transform="translate(23.692187 234.740501)scale(0.1 -0.1)">
       <use xlink:href="#DejaVuSans-49"/>
       <use x="63.623047" xlink:href="#DejaVuSans-53"/>
       <use x="127.246094" xlink:href="#DejaVuSans-46"/>
       <use x="159.033203" xlink:href="#DejaVuSans-48"/>
       <use x="222.65625" xlink:href="#DejaVuSans-48"/>
       <use x="286.279297" xlink:href="#DejaVuSans-32"/>
       <use x="318.066406" xlink:href="#DejaVuSans-37"/>
      </g>
     </g>
    </g>
    <g id="ytick_5">
     <g id="line2d_13">
      <g>
       <use style="stroke:#000000;stroke-width:0.8;" x="72" xlink:href="#m613729258a" y="185.121282"/>
      </g>
     </g>
     <g id="text_14">
      <!-- 20.00 % -->
      <g transform="translate(23.692187 188.920501)scale(0.1 -0.1)">
       <use xlink:href="#DejaVuSans-50"/>
       <use x="63.623047" xlink:href="#DejaVuSans-48"/>
       <use x="127.246094" xlink:href="#DejaVuSans-46"/>
       <use x="159.033203" xlink:href="#DejaVuSans-48"/>
       <use x="222.65625" xlink:href="#DejaVuSans-48"/>
       <use x="286.279297" xlink:href="#DejaVuSans-32"/>
       <use x="318.066406" xlink:href="#DejaVuSans-37"/>
      </g>
     </g>
    </g>
    <g id="ytick_6">
     <g id="line2d_14">
      <g>
       <use style="stroke:#000000;stroke-width:0.8;" x="72" xlink:href="#m613729258a" y="139.301282"/>
      </g>
     </g>
     <g id="text_15">
      <!-- 25.00 % -->
      <g transform="translate(23.692187 143.100501)scale(0.1 -0.1)">
       <use xlink:href="#DejaVuSans-50"/>
       <use x="63.623047" xlink:href="#DejaVuSans-53"/>
       <use x="127.246094" xlink:href="#DejaVuSans-46"/>
       <use x="159.033203" xlink:href="#DejaVuSans-48"/>
       <use x="222.65625" xlink:href="#DejaVuSans-48"/>
       <use x="286.279297" xlink:href="#DejaVuSans-32"/>
       <use x="318.066406" xlink:href="#DejaVuSans-37"/>
      </g>
     </g>
    </g>
    <g id="ytick_7">
     <g id="line2d_15">
      <g>
       <use style="stroke:#000000;stroke-width:0.8;" x="72" xlink:href="#m613729258a" y="93.481283"/>
      </g>
     </g>
     <g id="text_16">
      <!-- 30.00 % -->
      <g transform="translate(23.692187 97.280501)scale(0.1 -0.1)">
       <use xlink:href="#DejaVuSans-51"/>
       <use x="63.623047" xlink:href="#DejaVuSans-48"/>
       <use x="127.246094" xlink:href="#DejaVuSans-46"/>
       <use x="159.033203" xlink:href="#DejaVuSans-48"/>
       <use x="222.65625" xlink:href="#DejaVuSans-48"/>
       <use x="286.279297" xlink:href="#DejaVuSans-32"/>
       <use x="318.066406" xlink:href="#DejaVuSans-37"/>
      </g>
     </g>
    </g>
    <g id="text_17">
     <!-- Rate -->
     <defs>
      <path d="M 34.28125 27.484375 
Q 23.390625 27.484375 19.1875 25 
Q 14.984375 22.515625 14.984375 16.5 
Q 14.984375 11.71875 18.140625 8.90625 
Q 21.296875 6.109375 26.703125 6.109375 
Q 34.1875 6.109375 38.703125 11.40625 
Q 43.21875 16.703125 43.21875 25.484375 
L 43.21875 27.484375 
z
M 52.203125 31.203125 
L 52.203125 0 
L 43.21875 0 
L 43.21875 8.296875 
Q 40.140625 3.328125 35.546875 0.953125 
Q 30.953125 -1.421875 24.3125 -1.421875 
Q 15.921875 -1.421875 10.953125 3.296875 
Q 6 8.015625 6 15.921875 
Q 6 25.140625 12.171875 29.828125 
Q 18.359375 34.515625 30.609375 34.515625 
L 43.21875 34.515625 
L 43.21875 35.40625 
Q 43.21875 41.609375 39.140625 45 
Q 35.0625 48.390625 27.6875 48.390625 
Q 23 48.390625 18.546875 47.265625 
Q 14.109375 46.140625 10.015625 43.890625 
L 10.015625 52.203125 
Q 14.9375 54.109375 19.578125 55.046875 
Q 24.21875 56 28.609375 56 
Q 40.484375 56 46.34375 49.84375 
Q 52.203125 43.703125 52.203125 31.203125 
z
" id="DejaVuSans-97"/>
     </defs>
     <g transform="translate(17.6125 229.6225)rotate(-90)scale(0.1 -0.1)">
      <use xlink:href="#DejaVuSans-82"/>
      <use x="67.232422" xlink:href="#DejaVuSans-97"/>
      <use x="128.511719" xlink:href="#DejaVuSans-116"/>
      <use x="167.720703" xlink:href="#DejaVuSans-101"/>
     </g>
    </g>
   </g>
   <g id="line2d_16">
    <path clip-path="url(#p40cace9fbe)" d="M 498.109091 363.747852 
L 497.086879 363.703643 
L 495.042455 363.131821 
L 492.998031 362.970308 
L 491.975819 362.885872 
L 489.931395 361.735274 
L 488.909183 362.250565 
L 487.88697 362.254045 
L 486.864758 361.830641 
L 485.842546 361.635294 
L 484.820334 360.847625 
L 483.798122 361.453313 
L 482.77591 361.485173 
L 481.753698 360.335738 
L 480.731486 359.864577 
L 478.687062 359.789782 
L 477.66485 359.504918 
L 476.642638 358.935451 
L 475.620426 358.694934 
L 474.598214 359.010333 
L 473.576002 358.696241 
L 472.55379 358.776709 
L 471.531578 358.552647 
L 470.509366 359.120239 
L 468.464942 359.454665 
L 467.44273 359.441517 
L 464.376093 360.510824 
L 463.353881 361.130213 
L 462.331669 361.522058 
L 459.265033 363.202064 
L 458.242821 363.140728 
L 457.220609 363.387326 
L 454.153973 364.556803 
L 451.087337 365.080685 
L 450.065125 365.623188 
L 449.042913 365.600263 
L 448.020701 365.900246 
L 446.998489 365.956302 
L 445.976277 366.137936 
L 442.90964 366.367237 
L 441.887428 366.591921 
L 440.865216 366.579503 
L 439.843004 366.747244 
L 431.665308 367.034372 
L 427.57646 367.097861 
L 424.509824 366.996586 
L 415.309915 367.386978 
L 405.087795 367.225684 
L 399.976735 367.197314 
L 398.954523 367.121627 
L 396.910098 366.654027 
L 394.865674 366.429541 
L 393.843462 366.377687 
L 392.82125 366.598026 
L 390.776826 366.85043 
L 389.754614 367.062769 
L 386.687978 367.265674 
L 383.621342 366.957043 
L 382.59913 366.520925 
L 380.554706 366.444643 
L 378.510282 365.703775 
L 377.48807 365.592045 
L 376.465858 365.14023 
L 375.443646 365.172085 
L 374.421433 364.811712 
L 372.377009 364.699446 
L 371.354797 364.456668 
L 370.332585 363.982656 
L 368.288161 363.556672 
L 367.265949 363.362205 
L 365.221525 363.234343 
L 363.177101 362.588434 
L 362.154889 361.612539 
L 361.132677 360.947984 
L 359.088253 360.676672 
L 357.043829 359.728106 
L 356.021617 358.518552 
L 354.999405 359.150357 
L 353.977193 359.292894 
L 352.954981 358.934844 
L 351.932768 358.711576 
L 349.888344 357.606461 
L 348.866132 358.284463 
L 347.84392 356.963729 
L 344.777284 355.750271 
L 343.755072 355.574322 
L 342.73286 355.608832 
L 341.710648 354.59337 
L 340.688436 355.379478 
L 339.666224 354.672759 
L 338.644012 353.619064 
L 337.6218 353.0824 
L 336.599588 353.391488 
L 335.577376 353.171718 
L 334.555164 353.610842 
L 333.532952 353.193257 
L 332.51074 352.253382 
L 331.488528 353.873251 
L 329.444104 353.662479 
L 328.421891 352.587898 
L 327.399679 352.085768 
L 326.377467 352.411593 
L 325.355255 353.197451 
L 324.333043 352.159578 
L 323.310831 353.12025 
L 322.288619 352.260514 
L 321.266407 353.045967 
L 320.244195 354.223771 
L 319.221983 353.135723 
L 318.199771 354.313875 
L 317.177559 354.836853 
L 316.155347 354.993978 
L 315.133135 355.455026 
L 314.110923 356.183511 
L 313.088711 356.60225 
L 312.066499 357.75813 
L 311.044287 357.303757 
L 310.022075 357.955217 
L 308.999863 358.292958 
L 307.977651 359.078094 
L 306.955439 359.193062 
L 305.933226 359.080106 
L 303.888802 360.848447 
L 302.86659 361.391071 
L 301.844378 361.547868 
L 300.822166 361.966868 
L 298.777742 363.538585 
L 297.75553 363.800883 
L 296.733318 364.344098 
L 295.711106 364.07964 
L 293.666682 363.939349 
L 292.64447 364.246117 
L 291.622258 364.19528 
L 288.555622 364.611745 
L 287.53341 364.447194 
L 285.488986 364.943147 
L 284.466774 365.173555 
L 283.444561 364.678855 
L 282.422349 365.135333 
L 280.377925 365.451298 
L 279.355713 365.308023 
L 277.311289 364.87152 
L 276.289077 365.332652 
L 275.266865 364.948132 
L 273.222441 364.528317 
L 272.200229 364.900878 
L 270.155805 365.056928 
L 268.111381 364.488838 
L 267.089169 364.613508 
L 266.066957 364.440993 
L 265.044745 363.736013 
L 264.022533 363.608543 
L 263.000321 363.340493 
L 261.978109 362.671934 
L 260.955896 362.501943 
L 259.933684 361.952119 
L 258.911472 361.726106 
L 257.88926 361.74211 
L 256.867048 360.923924 
L 254.822624 360.216346 
L 253.800412 359.454051 
L 250.733776 358.80981 
L 249.711564 357.986417 
L 247.66714 355.498495 
L 246.644928 353.90635 
L 244.600504 351.321852 
L 243.578292 349.504621 
L 241.533868 346.964979 
L 240.511656 347.040809 
L 239.489444 346.51025 
L 238.467232 345.445529 
L 237.445019 344.669393 
L 236.422807 343.508307 
L 234.378383 341.739139 
L 233.356171 339.370812 
L 232.333959 339.325359 
L 231.311747 338.443478 
L 230.289535 338.895911 
L 229.267323 335.715814 
L 228.245111 337.265003 
L 227.222899 336.453251 
L 226.200687 334.883111 
L 225.178475 332.903395 
L 224.156263 333.523494 
L 223.134051 332.225964 
L 222.111839 333.518066 
L 221.089627 329.239586 
L 220.067415 330.428738 
L 219.045203 332.475905 
L 218.022991 332.756798 
L 217.000779 330.304736 
L 215.978567 331.914066 
L 214.956354 332.959046 
L 213.934142 336.424559 
L 212.91193 333.992354 
L 211.889718 332.113017 
L 210.867506 333.250894 
L 209.845294 336.487058 
L 208.823082 335.942221 
L 207.80087 335.7139 
L 206.778658 332.610611 
L 205.756446 334.756693 
L 204.734234 336.289927 
L 203.712022 334.462817 
L 202.68981 333.729081 
L 201.667598 334.137029 
L 200.645386 333.661255 
L 199.623174 334.143264 
L 198.600962 335.147186 
L 197.57875 335.900799 
L 195.534326 335.025422 
L 194.512114 335.968118 
L 193.489902 334.288141 
L 192.467689 337.629585 
L 191.445477 337.653849 
L 190.423265 335.335278 
L 189.401053 335.787345 
L 188.378841 335.360205 
L 187.356629 332.223208 
L 186.334417 334.523891 
L 185.312205 331.713673 
L 184.289993 331.648755 
L 182.245569 334.922794 
L 181.223357 334.285677 
L 180.201145 334.166923 
L 179.178933 331.105148 
L 178.156721 330.488478 
L 177.134509 326.812899 
L 176.112297 324.707201 
L 175.090085 321.751228 
L 174.067873 322.395879 
L 173.045661 323.393037 
L 172.023449 326.509577 
L 171.001237 322.701498 
L 169.979025 320.099132 
L 168.956812 314.75767 
L 167.9346 310.802082 
L 166.912388 309.220718 
L 165.890176 305.556708 
L 164.867964 308.1957 
L 163.845752 315.057264 
L 162.82354 318.950752 
L 160.779116 324.371681 
L 159.756904 323.412337 
L 158.734692 327.316322 
L 157.71248 321.015266 
L 156.690268 316.498764 
L 155.668056 318.58439 
L 154.645844 324.708005 
L 152.60142 333.766643 
L 151.579208 332.061225 
L 150.556996 336.197286 
L 149.534784 338.389958 
L 148.512572 339.318072 
L 147.49036 337.490135 
L 146.468147 330.434071 
L 145.445935 321.707436 
L 144.423723 320.195901 
L 143.401511 316.024219 
L 142.379299 314.367999 
L 141.357087 312.485882 
L 140.334875 313.96347 
L 138.290451 329.126661 
L 136.246027 337.294007 
L 135.223815 342.024402 
L 134.201603 340.504336 
L 133.179391 337.386411 
L 132.157179 337.780909 
L 131.134967 334.880919 
L 130.112755 332.570588 
L 129.090543 333.134813 
L 128.068331 327.584875 
L 127.046119 327.425126 
L 126.023907 329.436948 
L 125.001695 327.152672 
L 123.979482 329.020093 
L 122.95727 327.134712 
L 121.935058 327.023063 
L 120.912846 333.894302 
L 119.890634 336.931404 
L 118.868422 338.459274 
L 117.84621 338.581111 
L 116.823998 332.407309 
L 115.801786 325.542999 
L 114.779574 313.942049 
L 113.757362 311.096699 
L 112.73515 301.051722 
L 110.690726 228.328621 
L 109.668514 217.774967 
L 108.646302 208.927071 
L 107.62409 211.474885 
L 106.601878 189.044281 
L 105.579666 202.599235 
L 103.535242 255.990209 
L 102.51303 219.233057 
L 101.490817 233.609392 
L 100.468605 146.936726 
L 99.446393 173.590738 
L 98.424181 173.590738 
L 97.401969 75.992152 
L 96.379757 90.828496 
L 95.357545 149.253853 
L 94.335333 157.702868 
L 93.313121 113.653845 
L 92.290909 113.653845 
L 92.290909 113.653845 
" style="fill:none;stroke:#1f77b4;stroke-linecap:square;stroke-width:1.5;"/>
   </g>
   <g id="line2d_17">
    <path clip-path="url(#p40cace9fbe)" d="M 498.109091 361.115558 
L 497.086879 362.919815 
L 496.064667 364.414185 
L 495.042455 365.078959 
L 494.020243 364.79115 
L 492.998031 366.551691 
L 489.931395 364.393947 
L 488.909183 361.841041 
L 486.864758 361.651663 
L 484.820334 362.108233 
L 483.798122 362.174072 
L 482.77591 362.455786 
L 481.753698 365.312908 
L 480.731486 364.980673 
L 479.709274 365.5966 
L 477.66485 365.845909 
L 476.642638 365.676553 
L 475.620426 365.961548 
L 474.598214 365.84082 
L 473.576002 365.323453 
L 471.531578 365.325504 
L 470.509366 365.405235 
L 469.487154 365.912954 
L 468.464942 365.766368 
L 467.44273 365.79713 
L 466.420518 366.611383 
L 464.376093 366.663074 
L 463.353881 366.61482 
L 461.309457 366.85121 
L 458.242821 367.246034 
L 457.220609 366.85912 
L 456.198397 367.062915 
L 455.176185 366.920011 
L 454.153973 367.087599 
L 451.087337 366.98658 
L 450.065125 367.413939 
L 448.020701 367.591431 
L 446.998489 366.587688 
L 445.976277 366.74378 
L 443.931853 366.775374 
L 442.90964 366.865599 
L 441.887428 366.817689 
L 440.865216 366.896775 
L 439.843004 367.897532 
L 438.820792 367.825146 
L 437.79858 367.527928 
L 433.709732 367.380859 
L 432.68752 367.177501 
L 431.665308 367.202609 
L 430.643096 367.401075 
L 426.554248 367.365056 
L 425.532036 367.5437 
L 421.443188 367.704998 
L 419.398763 367.825339 
L 418.376551 367.83112 
L 417.354339 367.590858 
L 416.332127 366.929543 
L 414.287703 366.90117 
L 411.221067 366.593234 
L 410.198855 366.836717 
L 409.176643 369.001074 
L 408.154431 369.01231 
L 407.132219 367.3369 
L 405.087795 366.82858 
L 404.065583 366.445523 
L 403.043371 366.278145 
L 402.021159 364.45502 
L 400.998947 364.387364 
L 399.976735 365.951179 
L 397.932311 365.645738 
L 396.910098 365.307031 
L 393.843462 365.458822 
L 392.82125 365.332549 
L 391.799038 365.818192 
L 390.776826 365.937286 
L 389.754614 365.569709 
L 388.732402 365.50194 
L 387.71019 365.640616 
L 386.687978 365.021036 
L 383.621342 365.07805 
L 382.59913 365.956155 
L 381.576918 365.910459 
L 380.554706 365.515474 
L 379.532494 365.9315 
L 378.510282 365.755102 
L 377.48807 365.431144 
L 376.465858 364.748898 
L 375.443646 364.49102 
L 374.421433 363.833634 
L 373.399221 363.636332 
L 372.377009 363.164189 
L 371.354797 361.811966 
L 370.332585 361.695351 
L 369.310373 360.777694 
L 367.265949 360.998922 
L 366.243737 360.838895 
L 365.221525 360.859436 
L 364.199313 361.897762 
L 363.177101 337.944375 
L 362.154889 339.906534 
L 361.132677 338.575139 
L 360.110465 338.746535 
L 359.088253 338.788673 
L 358.066041 338.16597 
L 357.043829 338.313532 
L 356.021617 361.405779 
L 354.999405 360.048683 
L 353.977193 361.38731 
L 352.954981 359.997676 
L 351.932768 359.8708 
L 350.910556 360.855135 
L 349.888344 360.574659 
L 348.866132 361.191786 
L 347.84392 360.517466 
L 346.821708 354.1212 
L 345.799496 353.287899 
L 344.777284 352.930321 
L 343.755072 350.742268 
L 342.73286 351.683807 
L 341.710648 350.073432 
L 340.688436 350.868361 
L 339.666224 356.317944 
L 338.644012 357.837356 
L 337.6218 356.944181 
L 336.599588 356.647978 
L 335.577376 353.782752 
L 334.555164 353.136656 
L 333.532952 351.632372 
L 332.51074 351.397913 
L 331.488528 351.324141 
L 330.466316 352.707545 
L 329.444104 350.86311 
L 328.421891 353.728336 
L 327.399679 355.828252 
L 326.377467 357.290574 
L 325.355255 357.536864 
L 324.333043 357.41838 
L 323.310831 357.449164 
L 322.288619 360.891809 
L 321.266407 359.12154 
L 320.244195 358.65649 
L 319.221983 358.781151 
L 318.199771 359.41798 
L 317.177559 359.166356 
L 316.155347 359.076044 
L 315.133135 359.92444 
L 314.110923 361.265211 
L 312.066499 362.967155 
L 311.044287 363.554632 
L 310.022075 368.058082 
L 308.999863 368.987616 
L 307.977651 368.911541 
L 306.955439 369.341039 
L 305.933226 369.237903 
L 304.911014 369.36 
L 303.888802 350.482566 
L 302.86659 346.328664 
L 301.844378 339.489972 
L 300.822166 338.804036 
L 299.799954 337.187661 
L 298.777742 336.792937 
L 297.75553 337.003659 
L 296.733318 355.36219 
L 295.711106 356.475173 
L 294.688894 362.995222 
L 293.666682 363.976577 
L 292.64447 365.182218 
L 291.622258 365.349082 
L 290.600046 364.912584 
L 289.577834 365.225142 
L 288.555622 364.459826 
L 287.53341 364.439114 
L 286.511198 364.047719 
L 285.488986 364.083513 
L 284.466774 364.452665 
L 283.444561 363.512426 
L 282.422349 364.085853 
L 281.400137 364.483991 
L 280.377925 363.828268 
L 279.355713 362.741735 
L 278.333501 361.211401 
L 276.289077 357.863233 
L 274.244653 357.034313 
L 273.222441 357.537 
L 271.178017 360.074324 
L 270.155805 359.793429 
L 269.133593 359.960769 
L 268.111381 360.410939 
L 266.066957 358.529564 
L 265.044745 358.321032 
L 264.022533 357.888352 
L 261.978109 362.336129 
L 260.955896 360.690761 
L 259.933684 361.663048 
L 258.911472 361.450865 
L 257.88926 360.573619 
L 256.867048 359.503306 
L 255.844836 357.855501 
L 254.822624 356.446538 
L 253.800412 356.265514 
L 252.7782 355.792109 
L 251.755988 353.45775 
L 250.733776 349.482204 
L 249.711564 345.971206 
L 248.689352 346.3589 
L 247.66714 343.936771 
L 246.644928 338.930183 
L 245.622716 336.947574 
L 244.600504 335.564619 
L 243.578292 329.878758 
L 242.55608 326.619112 
L 241.533868 320.137493 
L 240.511656 317.849287 
L 239.489444 316.480873 
L 238.467232 311.53093 
L 237.445019 312.816616 
L 236.422807 323.109743 
L 235.400595 327.986904 
L 234.378383 335.466605 
L 233.356171 340.451425 
L 232.333959 346.795382 
L 231.311747 354.057709 
L 230.289535 356.544715 
L 229.267323 354.554513 
L 228.245111 356.333635 
L 227.222899 351.455599 
L 226.200687 345.951563 
L 225.178475 337.765472 
L 224.156263 324.842707 
L 223.134051 314.30171 
L 222.111839 298.484288 
L 221.089627 286.495849 
L 220.067415 280.220277 
L 219.045203 265.037499 
L 218.022991 272.886522 
L 217.000779 283.939136 
L 215.978567 293.072216 
L 214.956354 309.532898 
L 213.934142 319.094328 
L 212.91193 327.263246 
L 211.889718 346.38014 
L 210.867506 344.002327 
L 209.845294 342.327974 
L 208.823082 338.173626 
L 206.778658 336.868909 
L 205.756446 338.162207 
L 204.734234 340.106774 
L 203.712022 341.507565 
L 202.68981 344.619527 
L 201.667598 348.934342 
L 200.645386 349.541172 
L 199.623174 352.684345 
L 198.600962 351.742227 
L 197.57875 350.570496 
L 196.556538 350.764095 
L 195.534326 344.727743 
L 194.512114 341.672258 
L 193.489902 342.295812 
L 192.467689 341.403211 
L 191.445477 336.823314 
L 190.423265 329.36799 
L 189.401053 329.904329 
L 188.378841 333.413501 
L 187.356629 335.826088 
L 186.334417 334.161314 
L 185.312205 330.908401 
L 184.289993 330.470125 
L 183.267781 334.960437 
L 182.245569 313.483554 
L 181.223357 314.041387 
L 180.201145 301.561732 
L 179.178933 296.685096 
L 178.156721 290.707201 
L 177.134509 288.247764 
L 176.112297 284.710284 
L 175.090085 295.177065 
L 174.067873 294.288732 
L 173.045661 309.080669 
L 171.001237 318.139908 
L 169.979025 323.776032 
L 168.956812 328.591448 
L 167.9346 341.076979 
L 166.912388 344.641383 
L 165.890176 339.393852 
L 164.867964 342.255958 
L 163.845752 349.805214 
L 162.82354 353.253608 
L 161.801328 354.17956 
L 160.779116 352.25247 
L 159.756904 344.922992 
L 158.734692 341.978616 
L 157.71248 337.890269 
L 156.690268 330.279433 
L 154.645844 333.803429 
L 153.623632 326.023683 
L 152.60142 330.219054 
L 151.579208 333.08851 
L 150.556996 319.38809 
L 149.534784 323.797928 
L 147.49036 317.170516 
L 146.468147 322.211924 
L 145.445935 319.680045 
L 144.423723 321.472472 
L 143.401511 327.96994 
L 142.379299 329.436948 
L 141.357087 327.373998 
L 140.334875 317.709743 
L 139.312663 318.166182 
L 138.290451 313.79783 
L 137.268239 308.893576 
L 136.246027 310.941294 
L 135.223815 307.219733 
L 134.201603 305.408348 
L 133.179391 295.64602 
L 132.157179 300.821171 
L 131.134967 302.670274 
L 130.112755 308.344815 
L 129.090543 304.171733 
L 128.068331 293.387021 
L 127.046119 300.542588 
L 126.023907 324.705604 
L 125.001695 291.097309 
L 123.979482 297.023272 
L 122.95727 239.343781 
L 121.935058 248.445735 
L 120.912846 253.294967 
L 119.890634 173.943132 
L 118.868422 136.281439 
L 117.84621 136.989085 
L 116.823998 66.96 
L 115.801786 128.490189 
L 114.779574 133.834371 
L 113.757362 145.225404 
L 112.73515 224.577239 
L 111.712938 224.577239 
L 110.690726 113.653845 
L 109.668514 186.915546 
L 105.579666 186.915546 
L 104.557454 224.577239 
L 104.557454 224.577239 
" style="fill:none;stroke:#ff7f0e;stroke-linecap:square;stroke-width:1.5;"/>
   </g>
   <g id="patch_3">
    <path d="M 72 384.48 
L 72 51.84 
" style="fill:none;stroke:#000000;stroke-linecap:square;stroke-linejoin:miter;stroke-width:0.8;"/>
   </g>
   <g id="patch_4">
    <path d="M 518.4 384.48 
L 518.4 51.84 
" style="fill:none;stroke:#000000;stroke-linecap:square;stroke-linejoin:miter;stroke-width:0.8;"/>
   </g>
   <g id="patch_5">
    <path d="M 72 384.48 
L 518.4 384.48 
" style="fill:none;stroke:#000000;stroke-linecap:square;stroke-linejoin:miter;stroke-width:0.8;"/>
   </g>
   <g id="patch_6">
    <path d="M 72 51.84 
L 518.4 51.84 
" style="fill:none;stroke:#000000;stroke-linecap:square;stroke-linejoin:miter;stroke-width:0.8;"/>
   </g>
   <g id="text_18">
    <!-- Growth Rate -->
    <defs>
     <path d="M 59.515625 10.40625 
L 59.515625 29.984375 
L 43.40625 29.984375 
L 43.40625 38.09375 
L 69.28125 38.09375 
L 69.28125 6.78125 
Q 63.578125 2.734375 56.6875 0.65625 
Q 49.8125 -1.421875 42 -1.421875 
Q 24.90625 -1.421875 15.25 8.5625 
Q 5.609375 18.5625 5.609375 36.375 
Q 5.609375 54.25 15.25 64.234375 
Q 24.90625 74.21875 42 74.21875 
Q 49.125 74.21875 55.546875 72.453125 
Q 61.96875 70.703125 67.390625 67.28125 
L 67.390625 56.78125 
Q 61.921875 61.421875 55.765625 63.765625 
Q 49.609375 66.109375 42.828125 66.109375 
Q 29.4375 66.109375 22.71875 58.640625 
Q 16.015625 51.171875 16.015625 36.375 
Q 16.015625 21.625 22.71875 14.15625 
Q 29.4375 6.6875 42.828125 6.6875 
Q 48.046875 6.6875 52.140625 7.59375 
Q 56.25 8.5 59.515625 10.40625 
z
" id="DejaVuSans-71"/>
     <path d="M 4.203125 54.6875 
L 13.1875 54.6875 
L 24.421875 12.015625 
L 35.59375 54.6875 
L 46.1875 54.6875 
L 57.421875 12.015625 
L 68.609375 54.6875 
L 77.59375 54.6875 
L 63.28125 0 
L 52.6875 0 
L 40.921875 44.828125 
L 29.109375 0 
L 18.5 0 
z
" id="DejaVuSans-119"/>
     <path d="M 54.890625 33.015625 
L 54.890625 0 
L 45.90625 0 
L 45.90625 32.71875 
Q 45.90625 40.484375 42.875 44.328125 
Q 39.84375 48.1875 33.796875 48.1875 
Q 26.515625 48.1875 22.3125 43.546875 
Q 18.109375 38.921875 18.109375 30.90625 
L 18.109375 0 
L 9.078125 0 
L 9.078125 75.984375 
L 18.109375 75.984375 
L 18.109375 46.1875 
Q 21.34375 51.125 25.703125 53.5625 
Q 30.078125 56 35.796875 56 
Q 45.21875 56 50.046875 50.171875 
Q 54.890625 44.34375 54.890625 33.015625 
z
" id="DejaVuSans-104"/>
    </defs>
    <g transform="translate(257.824687 45.84)scale(0.12 -0.12)">
     <use xlink:href="#DejaVuSans-71"/>
     <use x="77.490234" xlink:href="#DejaVuSans-114"/>
     <use x="116.353516" xlink:href="#DejaVuSans-111"/>
     <use x="177.535156" xlink:href="#DejaVuSans-119"/>
     <use x="259.322266" xlink:href="#DejaVuSans-116"/>
     <use x="298.53125" xlink:href="#DejaVuSans-104"/>
     <use x="361.910156" xlink:href="#DejaVuSans-32"/>
     <use x="393.697266" xlink:href="#DejaVuSans-82"/>
     <use x="460.929688" xlink:href="#DejaVuSans-97"/>
     <use x="522.208984" xlink:href="#DejaVuSans-116"/>
     <use x="561.417969" xlink:href="#DejaVuSans-101"/>
    </g>
   </g>
   <g id="legend_1">
    <g id="patch_7">
     <path d="M 291.595312 89.19625 
L 511.4 89.19625 
Q 513.4 89.19625 513.4 87.19625 
L 513.4 58.84 
Q 513.4 56.84 511.4 56.84 
L 291.595312 56.84 
Q 289.595312 56.84 289.595312 58.84 
L 289.595312 87.19625 
Q 289.595312 89.19625 291.595312 89.19625 
z
" style="fill:#ffffff;opacity:0.8;stroke:#cccccc;stroke-linejoin:miter;"/>
    </g>
    <g id="line2d_18">
     <path d="M 293.595312 64.938437 
L 313.595312 64.938437 
" style="fill:none;stroke:#1f77b4;stroke-linecap:square;stroke-width:1.5;"/>
    </g>
    <g id="line2d_19"/>
    <g id="text_19">
     <!-- Confirmed Growth Rate (over 7 days) -->
     <defs>
      <path d="M 64.40625 67.28125 
L 64.40625 56.890625 
Q 59.421875 61.53125 53.78125 63.8125 
Q 48.140625 66.109375 41.796875 66.109375 
Q 29.296875 66.109375 22.65625 58.46875 
Q 16.015625 50.828125 16.015625 36.375 
Q 16.015625 21.96875 22.65625 14.328125 
Q 29.296875 6.6875 41.796875 6.6875 
Q 48.140625 6.6875 53.78125 8.984375 
Q 59.421875 11.28125 64.40625 15.921875 
L 64.40625 5.609375 
Q 59.234375 2.09375 53.4375 0.328125 
Q 47.65625 -1.421875 41.21875 -1.421875 
Q 24.65625 -1.421875 15.125 8.703125 
Q 5.609375 18.84375 5.609375 36.375 
Q 5.609375 53.953125 15.125 64.078125 
Q 24.65625 74.21875 41.21875 74.21875 
Q 47.75 74.21875 53.53125 72.484375 
Q 59.328125 70.75 64.40625 67.28125 
z
" id="DejaVuSans-67"/>
      <path d="M 37.109375 75.984375 
L 37.109375 68.5 
L 28.515625 68.5 
Q 23.6875 68.5 21.796875 66.546875 
Q 19.921875 64.59375 19.921875 59.515625 
L 19.921875 54.6875 
L 34.71875 54.6875 
L 34.71875 47.703125 
L 19.921875 47.703125 
L 19.921875 0 
L 10.890625 0 
L 10.890625 47.703125 
L 2.296875 47.703125 
L 2.296875 54.6875 
L 10.890625 54.6875 
L 10.890625 58.5 
Q 10.890625 67.625 15.140625 71.796875 
Q 19.390625 75.984375 28.609375 75.984375 
z
" id="DejaVuSans-102"/>
      <path d="M 9.421875 54.6875 
L 18.40625 54.6875 
L 18.40625 0 
L 9.421875 0 
z
M 9.421875 75.984375 
L 18.40625 75.984375 
L 18.40625 64.59375 
L 9.421875 64.59375 
z
" id="DejaVuSans-105"/>
      <path d="M 52 44.1875 
Q 55.375 50.25 60.0625 53.125 
Q 64.75 56 71.09375 56 
Q 79.640625 56 84.28125 50.015625 
Q 88.921875 44.046875 88.921875 33.015625 
L 88.921875 0 
L 79.890625 0 
L 79.890625 32.71875 
Q 79.890625 40.578125 77.09375 44.375 
Q 74.3125 48.1875 68.609375 48.1875 
Q 61.625 48.1875 57.5625 43.546875 
Q 53.515625 38.921875 53.515625 30.90625 
L 53.515625 0 
L 44.484375 0 
L 44.484375 32.71875 
Q 44.484375 40.625 41.703125 44.40625 
Q 38.921875 48.1875 33.109375 48.1875 
Q 26.21875 48.1875 22.15625 43.53125 
Q 18.109375 38.875 18.109375 30.90625 
L 18.109375 0 
L 9.078125 0 
L 9.078125 54.6875 
L 18.109375 54.6875 
L 18.109375 46.1875 
Q 21.1875 51.21875 25.484375 53.609375 
Q 29.78125 56 35.6875 56 
Q 41.65625 56 45.828125 52.96875 
Q 50 49.953125 52 44.1875 
z
" id="DejaVuSans-109"/>
      <path d="M 31 75.875 
Q 24.46875 64.65625 21.28125 53.65625 
Q 18.109375 42.671875 18.109375 31.390625 
Q 18.109375 20.125 21.3125 9.0625 
Q 24.515625 -2 31 -13.1875 
L 23.1875 -13.1875 
Q 15.875 -1.703125 12.234375 9.375 
Q 8.59375 20.453125 8.59375 31.390625 
Q 8.59375 42.28125 12.203125 53.3125 
Q 15.828125 64.359375 23.1875 75.875 
z
" id="DejaVuSans-40"/>
      <path d="M 2.984375 54.6875 
L 12.5 54.6875 
L 29.59375 8.796875 
L 46.6875 54.6875 
L 56.203125 54.6875 
L 35.6875 0 
L 23.484375 0 
z
" id="DejaVuSans-118"/>
      <path d="M 32.171875 -5.078125 
Q 28.375 -14.84375 24.75 -17.8125 
Q 21.140625 -20.796875 15.09375 -20.796875 
L 7.90625 -20.796875 
L 7.90625 -13.28125 
L 13.1875 -13.28125 
Q 16.890625 -13.28125 18.9375 -11.515625 
Q 21 -9.765625 23.484375 -3.21875 
L 25.09375 0.875 
L 2.984375 54.6875 
L 12.5 54.6875 
L 29.59375 11.921875 
L 46.6875 54.6875 
L 56.203125 54.6875 
z
" id="DejaVuSans-121"/>
      <path d="M 44.28125 53.078125 
L 44.28125 44.578125 
Q 40.484375 46.53125 36.375 47.5 
Q 32.28125 48.484375 27.875 48.484375 
Q 21.1875 48.484375 17.84375 46.4375 
Q 14.5 44.390625 14.5 40.28125 
Q 14.5 37.15625 16.890625 35.375 
Q 19.28125 33.59375 26.515625 31.984375 
L 29.59375 31.296875 
Q 39.15625 29.25 43.1875 25.515625 
Q 47.21875 21.78125 47.21875 15.09375 
Q 47.21875 7.46875 41.1875 3.015625 
Q 35.15625 -1.421875 24.609375 -1.421875 
Q 20.21875 -1.421875 15.453125 -0.5625 
Q 10.6875 0.296875 5.421875 2 
L 5.421875 11.28125 
Q 10.40625 8.6875 15.234375 7.390625 
Q 20.0625 6.109375 24.8125 6.109375 
Q 31.15625 6.109375 34.5625 8.28125 
Q 37.984375 10.453125 37.984375 14.40625 
Q 37.984375 18.0625 35.515625 20.015625 
Q 33.0625 21.96875 24.703125 23.78125 
L 21.578125 24.515625 
Q 13.234375 26.265625 9.515625 29.90625 
Q 5.8125 33.546875 5.8125 39.890625 
Q 5.8125 47.609375 11.28125 51.796875 
Q 16.75 56 26.8125 56 
Q 31.78125 56 36.171875 55.265625 
Q 40.578125 54.546875 44.28125 53.078125 
z
" id="DejaVuSans-115"/>
      <path d="M 8.015625 75.875 
L 15.828125 75.875 
Q 23.140625 64.359375 26.78125 53.3125 
Q 30.421875 42.28125 30.421875 31.390625 
Q 30.421875 20.453125 26.78125 9.375 
Q 23.140625 -1.703125 15.828125 -13.1875 
L 8.015625 -13.1875 
Q 14.5 -2 17.703125 9.0625 
Q 20.90625 20.125 20.90625 31.390625 
Q 20.90625 42.671875 17.703125 53.65625 
Q 14.5 64.65625 8.015625 75.875 
z
" id="DejaVuSans-41"/>
     </defs>
     <g transform="translate(321.595312 68.438437)scale(0.1 -0.1)">
      <use xlink:href="#DejaVuSans-67"/>
      <use x="69.824219" xlink:href="#DejaVuSans-111"/>
      <use x="131.005859" xlink:href="#DejaVuSans-110"/>
      <use x="194.384766" xlink:href="#DejaVuSans-102"/>
      <use x="229.589844" xlink:href="#DejaVuSans-105"/>
      <use x="257.373047" xlink:href="#DejaVuSans-114"/>
      <use x="296.736328" xlink:href="#DejaVuSans-109"/>
      <use x="394.148438" xlink:href="#DejaVuSans-101"/>
      <use x="455.671875" xlink:href="#DejaVuSans-100"/>
      <use x="519.148438" xlink:href="#DejaVuSans-32"/>
      <use x="550.935547" xlink:href="#DejaVuSans-71"/>
      <use x="628.425781" xlink:href="#DejaVuSans-114"/>
      <use x="667.289062" xlink:href="#DejaVuSans-111"/>
      <use x="728.470703" xlink:href="#DejaVuSans-119"/>
      <use x="810.257812" xlink:href="#DejaVuSans-116"/>
      <use x="849.466797" xlink:href="#DejaVuSans-104"/>
      <use x="912.845703" xlink:href="#DejaVuSans-32"/>
      <use x="944.632812" xlink:href="#DejaVuSans-82"/>
      <use x="1011.865234" xlink:href="#DejaVuSans-97"/>
      <use x="1073.144531" xlink:href="#DejaVuSans-116"/>
      <use x="1112.353516" xlink:href="#DejaVuSans-101"/>
      <use x="1173.876953" xlink:href="#DejaVuSans-32"/>
      <use x="1205.664062" xlink:href="#DejaVuSans-40"/>
      <use x="1244.677734" xlink:href="#DejaVuSans-111"/>
      <use x="1305.859375" xlink:href="#DejaVuSans-118"/>
      <use x="1365.039062" xlink:href="#DejaVuSans-101"/>
      <use x="1426.5625" xlink:href="#DejaVuSans-114"/>
      <use x="1467.675781" xlink:href="#DejaVuSans-32"/>
      <use x="1499.462891" xlink:href="#DejaVuSans-55"/>
      <use x="1563.085938" xlink:href="#DejaVuSans-32"/>
      <use x="1594.873047" xlink:href="#DejaVuSans-100"/>
      <use x="1658.349609" xlink:href="#DejaVuSans-97"/>
      <use x="1719.628906" xlink:href="#DejaVuSans-121"/>
      <use x="1778.808594" xlink:href="#DejaVuSans-115"/>
      <use x="1830.908203" xlink:href="#DejaVuSans-41"/>
     </g>
    </g>
    <g id="line2d_20">
     <path d="M 293.595312 79.616562 
L 313.595312 79.616562 
" style="fill:none;stroke:#ff7f0e;stroke-linecap:square;stroke-width:1.5;"/>
    </g>
    <g id="line2d_21"/>
    <g id="text_20">
     <!-- Recovered Growth Rate (over 7 days) -->
     <defs>
      <path d="M 48.78125 52.59375 
L 48.78125 44.1875 
Q 44.96875 46.296875 41.140625 47.34375 
Q 37.3125 48.390625 33.40625 48.390625 
Q 24.65625 48.390625 19.8125 42.84375 
Q 14.984375 37.3125 14.984375 27.296875 
Q 14.984375 17.28125 19.8125 11.734375 
Q 24.65625 6.203125 33.40625 6.203125 
Q 37.3125 6.203125 41.140625 7.25 
Q 44.96875 8.296875 48.78125 10.40625 
L 48.78125 2.09375 
Q 45.015625 0.34375 40.984375 -0.53125 
Q 36.96875 -1.421875 32.421875 -1.421875 
Q 20.0625 -1.421875 12.78125 6.34375 
Q 5.515625 14.109375 5.515625 27.296875 
Q 5.515625 40.671875 12.859375 48.328125 
Q 20.21875 56 33.015625 56 
Q 37.15625 56 41.109375 55.140625 
Q 45.0625 54.296875 48.78125 52.59375 
z
" id="DejaVuSans-99"/>
     </defs>
     <g transform="translate(321.595312 83.116562)scale(0.1 -0.1)">
      <use xlink:href="#DejaVuSans-82"/>
      <use x="64.982422" xlink:href="#DejaVuSans-101"/>
      <use x="126.505859" xlink:href="#DejaVuSans-99"/>
      <use x="181.486328" xlink:href="#DejaVuSans-111"/>
      <use x="242.667969" xlink:href="#DejaVuSans-118"/>
      <use x="301.847656" xlink:href="#DejaVuSans-101"/>
      <use x="363.371094" xlink:href="#DejaVuSans-114"/>
      <use x="402.234375" xlink:href="#DejaVuSans-101"/>
      <use x="463.757812" xlink:href="#DejaVuSans-100"/>
      <use x="527.234375" xlink:href="#DejaVuSans-32"/>
      <use x="559.021484" xlink:href="#DejaVuSans-71"/>
      <use x="636.511719" xlink:href="#DejaVuSans-114"/>
      <use x="675.375" xlink:href="#DejaVuSans-111"/>
      <use x="736.556641" xlink:href="#DejaVuSans-119"/>
      <use x="818.34375" xlink:href="#DejaVuSans-116"/>
      <use x="857.552734" xlink:href="#DejaVuSans-104"/>
      <use x="920.931641" xlink:href="#DejaVuSans-32"/>
      <use x="952.71875" xlink:href="#DejaVuSans-82"/>
      <use x="1019.951172" xlink:href="#DejaVuSans-97"/>
      <use x="1081.230469" xlink:href="#DejaVuSans-116"/>
      <use x="1120.439453" xlink:href="#DejaVuSans-101"/>
      <use x="1181.962891" xlink:href="#DejaVuSans-32"/>
      <use x="1213.75" xlink:href="#DejaVuSans-40"/>
      <use x="1252.763672" xlink:href="#DejaVuSans-111"/>
      <use x="1313.945312" xlink:href="#DejaVuSans-118"/>
      <use x="1373.125" xlink:href="#DejaVuSans-101"/>
      <use x="1434.648438" xlink:href="#DejaVuSans-114"/>
      <use x="1475.761719" xlink:href="#DejaVuSans-32"/>
      <use x="1507.548828" xlink:href="#DejaVuSans-55"/>
      <use x="1571.171875" xlink:href="#DejaVuSans-32"/>
      <use x="1602.958984" xlink:href="#DejaVuSans-100"/>
      <use x="1666.435547" xlink:href="#DejaVuSans-97"/>
      <use x="1727.714844" xlink:href="#DejaVuSans-121"/>
      <use x="1786.894531" xlink:href="#DejaVuSans-115"/>
      <use x="1838.994141" xlink:href="#DejaVuSans-41"/>
     </g>
    </g>
   </g>
  </g>
 </g>
 <defs>
  <clipPath id="p40cace9fbe">
   <rect height="332.64" width="446.4" x="72" y="51.84"/>
  </clipPath>
 </defs>
</svg>
