<?xml version="1.0" encoding="utf-8" standalone="no"?>
<!DOCTYPE svg PUBLIC "-//W3C//DTD SVG 1.1//EN"
  "http://www.w3.org/Graphics/SVG/1.1/DTD/svg11.dtd">
<!-- Created with matplotlib (https://matplotlib.org/) -->
<svg height="432pt" version="1.1" viewBox="0 0 576 432" width="576pt" xmlns="http://www.w3.org/2000/svg" xmlns:xlink="http://www.w3.org/1999/xlink">
 <defs>
  <style type="text/css">
*{stroke-linecap:butt;stroke-linejoin:round;}
  </style>
 </defs>
 <g id="figure_1">
  <g id="patch_1">
   <path d="M 0 432 
L 576 432 
L 576 0 
L 0 0 
z
" style="fill:#ffffff;"/>
  </g>
  <g id="axes_1">
   <g id="patch_2">
    <path d="M 72 384.48 
L 518.4 384.48 
L 518.4 51.84 
L 72 51.84 
z
" style="fill:#ffffff;"/>
   </g>
   <g id="matplotlib.axis_1">
    <g id="xtick_1">
     <g id="line2d_1">
      <defs>
       <path d="M 0 0 
L 0 3.5 
" id="m907412e6c4" style="stroke:#000000;stroke-width:0.8;"/>
      </defs>
      <g>
       <use style="stroke:#000000;stroke-width:0.8;" x="84.793114" xlink:href="#m907412e6c4" y="384.48"/>
      </g>
     </g>
     <g id="text_1">
      <!-- 2020-03 -->
      <defs>
       <path d="M 19.1875 8.296875 
L 53.609375 8.296875 
L 53.609375 0 
L 7.328125 0 
L 7.328125 8.296875 
Q 12.9375 14.109375 22.625 23.890625 
Q 32.328125 33.6875 34.8125 36.53125 
Q 39.546875 41.84375 41.421875 45.53125 
Q 43.3125 49.21875 43.3125 52.78125 
Q 43.3125 58.59375 39.234375 62.25 
Q 35.15625 65.921875 28.609375 65.921875 
Q 23.96875 65.921875 18.8125 64.3125 
Q 13.671875 62.703125 7.8125 59.421875 
L 7.8125 69.390625 
Q 13.765625 71.78125 18.9375 73 
Q 24.125 74.21875 28.421875 74.21875 
Q 39.75 74.21875 46.484375 68.546875 
Q 53.21875 62.890625 53.21875 53.421875 
Q 53.21875 48.921875 51.53125 44.890625 
Q 49.859375 40.875 45.40625 35.40625 
Q 44.1875 33.984375 37.640625 27.21875 
Q 31.109375 20.453125 19.1875 8.296875 
z
" id="DejaVuSans-50"/>
       <path d="M 31.78125 66.40625 
Q 24.171875 66.40625 20.328125 58.90625 
Q 16.5 51.421875 16.5 36.375 
Q 16.5 21.390625 20.328125 13.890625 
Q 24.171875 6.390625 31.78125 6.390625 
Q 39.453125 6.390625 43.28125 13.890625 
Q 47.125 21.390625 47.125 36.375 
Q 47.125 51.421875 43.28125 58.90625 
Q 39.453125 66.40625 31.78125 66.40625 
z
M 31.78125 74.21875 
Q 44.046875 74.21875 50.515625 64.515625 
Q 56.984375 54.828125 56.984375 36.375 
Q 56.984375 17.96875 50.515625 8.265625 
Q 44.046875 -1.421875 31.78125 -1.421875 
Q 19.53125 -1.421875 13.0625 8.265625 
Q 6.59375 17.96875 6.59375 36.375 
Q 6.59375 54.828125 13.0625 64.515625 
Q 19.53125 74.21875 31.78125 74.21875 
z
" id="DejaVuSans-48"/>
       <path d="M 4.890625 31.390625 
L 31.203125 31.390625 
L 31.203125 23.390625 
L 4.890625 23.390625 
z
" id="DejaVuSans-45"/>
       <path d="M 40.578125 39.3125 
Q 47.65625 37.796875 51.625 33 
Q 55.609375 28.21875 55.609375 21.1875 
Q 55.609375 10.40625 48.1875 4.484375 
Q 40.765625 -1.421875 27.09375 -1.421875 
Q 22.515625 -1.421875 17.65625 -0.515625 
Q 12.796875 0.390625 7.625 2.203125 
L 7.625 11.71875 
Q 11.71875 9.328125 16.59375 8.109375 
Q 21.484375 6.890625 26.8125 6.890625 
Q 36.078125 6.890625 40.9375 10.546875 
Q 45.796875 14.203125 45.796875 21.1875 
Q 45.796875 27.640625 41.28125 31.265625 
Q 36.765625 34.90625 28.71875 34.90625 
L 20.21875 34.90625 
L 20.21875 43.015625 
L 29.109375 43.015625 
Q 36.375 43.015625 40.234375 45.921875 
Q 44.09375 48.828125 44.09375 54.296875 
Q 44.09375 59.90625 40.109375 62.90625 
Q 36.140625 65.921875 28.71875 65.921875 
Q 24.65625 65.921875 20.015625 65.03125 
Q 15.375 64.15625 9.8125 62.3125 
L 9.8125 71.09375 
Q 15.4375 72.65625 20.34375 73.4375 
Q 25.25 74.21875 29.59375 74.21875 
Q 40.828125 74.21875 47.359375 69.109375 
Q 53.90625 64.015625 53.90625 55.328125 
Q 53.90625 49.265625 50.4375 45.09375 
Q 46.96875 40.921875 40.578125 39.3125 
z
" id="DejaVuSans-51"/>
      </defs>
      <g transform="translate(63.901707 399.078438)scale(0.1 -0.1)">
       <use xlink:href="#DejaVuSans-50"/>
       <use x="63.623047" xlink:href="#DejaVuSans-48"/>
       <use x="127.246094" xlink:href="#DejaVuSans-50"/>
       <use x="190.869141" xlink:href="#DejaVuSans-48"/>
       <use x="254.492188" xlink:href="#DejaVuSans-45"/>
       <use x="290.576172" xlink:href="#DejaVuSans-48"/>
       <use x="354.199219" xlink:href="#DejaVuSans-51"/>
      </g>
     </g>
    </g>
    <g id="xtick_2">
     <g id="line2d_2">
      <g>
       <use style="stroke:#000000;stroke-width:0.8;" x="141.963804" xlink:href="#m907412e6c4" y="384.48"/>
      </g>
     </g>
     <g id="text_2">
      <!-- 2020-05 -->
      <defs>
       <path d="M 10.796875 72.90625 
L 49.515625 72.90625 
L 49.515625 64.59375 
L 19.828125 64.59375 
L 19.828125 46.734375 
Q 21.96875 47.46875 24.109375 47.828125 
Q 26.265625 48.1875 28.421875 48.1875 
Q 40.625 48.1875 47.75 41.5 
Q 54.890625 34.8125 54.890625 23.390625 
Q 54.890625 11.625 47.5625 5.09375 
Q 40.234375 -1.421875 26.90625 -1.421875 
Q 22.3125 -1.421875 17.546875 -0.640625 
Q 12.796875 0.140625 7.71875 1.703125 
L 7.71875 11.625 
Q 12.109375 9.234375 16.796875 8.0625 
Q 21.484375 6.890625 26.703125 6.890625 
Q 35.15625 6.890625 40.078125 11.328125 
Q 45.015625 15.765625 45.015625 23.390625 
Q 45.015625 31 40.078125 35.4375 
Q 35.15625 39.890625 26.703125 39.890625 
Q 22.75 39.890625 18.8125 39.015625 
Q 14.890625 38.140625 10.796875 36.28125 
z
" id="DejaVuSans-53"/>
      </defs>
      <g transform="translate(121.072398 399.078438)scale(0.1 -0.1)">
       <use xlink:href="#DejaVuSans-50"/>
       <use x="63.623047" xlink:href="#DejaVuSans-48"/>
       <use x="127.246094" xlink:href="#DejaVuSans-50"/>
       <use x="190.869141" xlink:href="#DejaVuSans-48"/>
       <use x="254.492188" xlink:href="#DejaVuSans-45"/>
       <use x="290.576172" xlink:href="#DejaVuSans-48"/>
       <use x="354.199219" xlink:href="#DejaVuSans-53"/>
      </g>
     </g>
    </g>
    <g id="xtick_3">
     <g id="line2d_3">
      <g>
       <use style="stroke:#000000;stroke-width:0.8;" x="199.134495" xlink:href="#m907412e6c4" y="384.48"/>
      </g>
     </g>
     <g id="text_3">
      <!-- 2020-07 -->
      <defs>
       <path d="M 8.203125 72.90625 
L 55.078125 72.90625 
L 55.078125 68.703125 
L 28.609375 0 
L 18.3125 0 
L 43.21875 64.59375 
L 8.203125 64.59375 
z
" id="DejaVuSans-55"/>
      </defs>
      <g transform="translate(178.243089 399.078438)scale(0.1 -0.1)">
       <use xlink:href="#DejaVuSans-50"/>
       <use x="63.623047" xlink:href="#DejaVuSans-48"/>
       <use x="127.246094" xlink:href="#DejaVuSans-50"/>
       <use x="190.869141" xlink:href="#DejaVuSans-48"/>
       <use x="254.492188" xlink:href="#DejaVuSans-45"/>
       <use x="290.576172" xlink:href="#DejaVuSans-48"/>
       <use x="354.199219" xlink:href="#DejaVuSans-55"/>
      </g>
     </g>
    </g>
    <g id="xtick_4">
     <g id="line2d_4">
      <g>
       <use style="stroke:#000000;stroke-width:0.8;" x="257.24241" xlink:href="#m907412e6c4" y="384.48"/>
      </g>
     </g>
     <g id="text_4">
      <!-- 2020-09 -->
      <defs>
       <path d="M 10.984375 1.515625 
L 10.984375 10.5 
Q 14.703125 8.734375 18.5 7.8125 
Q 22.3125 6.890625 25.984375 6.890625 
Q 35.75 6.890625 40.890625 13.453125 
Q 46.046875 20.015625 46.78125 33.40625 
Q 43.953125 29.203125 39.59375 26.953125 
Q 35.25 24.703125 29.984375 24.703125 
Q 19.046875 24.703125 12.671875 31.3125 
Q 6.296875 37.9375 6.296875 49.421875 
Q 6.296875 60.640625 12.9375 67.421875 
Q 19.578125 74.21875 30.609375 74.21875 
Q 43.265625 74.21875 49.921875 64.515625 
Q 56.59375 54.828125 56.59375 36.375 
Q 56.59375 19.140625 48.40625 8.859375 
Q 40.234375 -1.421875 26.421875 -1.421875 
Q 22.703125 -1.421875 18.890625 -0.6875 
Q 15.09375 0.046875 10.984375 1.515625 
z
M 30.609375 32.421875 
Q 37.25 32.421875 41.125 36.953125 
Q 45.015625 41.5 45.015625 49.421875 
Q 45.015625 57.28125 41.125 61.84375 
Q 37.25 66.40625 30.609375 66.40625 
Q 23.96875 66.40625 20.09375 61.84375 
Q 16.21875 57.28125 16.21875 49.421875 
Q 16.21875 41.5 20.09375 36.953125 
Q 23.96875 32.421875 30.609375 32.421875 
z
" id="DejaVuSans-57"/>
      </defs>
      <g transform="translate(236.351004 399.078438)scale(0.1 -0.1)">
       <use xlink:href="#DejaVuSans-50"/>
       <use x="63.623047" xlink:href="#DejaVuSans-48"/>
       <use x="127.246094" xlink:href="#DejaVuSans-50"/>
       <use x="190.869141" xlink:href="#DejaVuSans-48"/>
       <use x="254.492188" xlink:href="#DejaVuSans-45"/>
       <use x="290.576172" xlink:href="#DejaVuSans-48"/>
       <use x="354.199219" xlink:href="#DejaVuSans-57"/>
      </g>
     </g>
    </g>
    <g id="xtick_5">
     <g id="line2d_5">
      <g>
       <use style="stroke:#000000;stroke-width:0.8;" x="314.413101" xlink:href="#m907412e6c4" y="384.48"/>
      </g>
     </g>
     <g id="text_5">
      <!-- 2020-11 -->
      <defs>
       <path d="M 12.40625 8.296875 
L 28.515625 8.296875 
L 28.515625 63.921875 
L 10.984375 60.40625 
L 10.984375 69.390625 
L 28.421875 72.90625 
L 38.28125 72.90625 
L 38.28125 8.296875 
L 54.390625 8.296875 
L 54.390625 0 
L 12.40625 0 
z
" id="DejaVuSans-49"/>
      </defs>
      <g transform="translate(293.521695 399.078438)scale(0.1 -0.1)">
       <use xlink:href="#DejaVuSans-50"/>
       <use x="63.623047" xlink:href="#DejaVuSans-48"/>
       <use x="127.246094" xlink:href="#DejaVuSans-50"/>
       <use x="190.869141" xlink:href="#DejaVuSans-48"/>
       <use x="254.492188" xlink:href="#DejaVuSans-45"/>
       <use x="290.576172" xlink:href="#DejaVuSans-49"/>
       <use x="354.199219" xlink:href="#DejaVuSans-49"/>
      </g>
     </g>
    </g>
    <g id="xtick_6">
     <g id="line2d_6">
      <g>
       <use style="stroke:#000000;stroke-width:0.8;" x="371.583792" xlink:href="#m907412e6c4" y="384.48"/>
      </g>
     </g>
     <g id="text_6">
      <!-- 2021-01 -->
      <g transform="translate(350.692385 399.078438)scale(0.1 -0.1)">
       <use xlink:href="#DejaVuSans-50"/>
       <use x="63.623047" xlink:href="#DejaVuSans-48"/>
       <use x="127.246094" xlink:href="#DejaVuSans-50"/>
       <use x="190.869141" xlink:href="#DejaVuSans-49"/>
       <use x="254.492188" xlink:href="#DejaVuSans-45"/>
       <use x="290.576172" xlink:href="#DejaVuSans-48"/>
       <use x="354.199219" xlink:href="#DejaVuSans-49"/>
      </g>
     </g>
    </g>
    <g id="xtick_7">
     <g id="line2d_7">
      <g>
       <use style="stroke:#000000;stroke-width:0.8;" x="426.880034" xlink:href="#m907412e6c4" y="384.48"/>
      </g>
     </g>
     <g id="text_7">
      <!-- 2021-03 -->
      <g transform="translate(405.988627 399.078438)scale(0.1 -0.1)">
       <use xlink:href="#DejaVuSans-50"/>
       <use x="63.623047" xlink:href="#DejaVuSans-48"/>
       <use x="127.246094" xlink:href="#DejaVuSans-50"/>
       <use x="190.869141" xlink:href="#DejaVuSans-49"/>
       <use x="254.492188" xlink:href="#DejaVuSans-45"/>
       <use x="290.576172" xlink:href="#DejaVuSans-48"/>
       <use x="354.199219" xlink:href="#DejaVuSans-51"/>
      </g>
     </g>
    </g>
    <g id="xtick_8">
     <g id="line2d_8">
      <g>
       <use style="stroke:#000000;stroke-width:0.8;" x="484.050724" xlink:href="#m907412e6c4" y="384.48"/>
      </g>
     </g>
     <g id="text_8">
      <!-- 2021-05 -->
      <g transform="translate(463.159318 399.078438)scale(0.1 -0.1)">
       <use xlink:href="#DejaVuSans-50"/>
       <use x="63.623047" xlink:href="#DejaVuSans-48"/>
       <use x="127.246094" xlink:href="#DejaVuSans-50"/>
       <use x="190.869141" xlink:href="#DejaVuSans-49"/>
       <use x="254.492188" xlink:href="#DejaVuSans-45"/>
       <use x="290.576172" xlink:href="#DejaVuSans-48"/>
       <use x="354.199219" xlink:href="#DejaVuSans-53"/>
      </g>
     </g>
    </g>
    <g id="text_9">
     <!-- Reported On -->
     <defs>
      <path d="M 44.390625 34.1875 
Q 47.5625 33.109375 50.5625 29.59375 
Q 53.5625 26.078125 56.59375 19.921875 
L 66.609375 0 
L 56 0 
L 46.6875 18.703125 
Q 43.0625 26.03125 39.671875 28.421875 
Q 36.28125 30.8125 30.421875 30.8125 
L 19.671875 30.8125 
L 19.671875 0 
L 9.8125 0 
L 9.8125 72.90625 
L 32.078125 72.90625 
Q 44.578125 72.90625 50.734375 67.671875 
Q 56.890625 62.453125 56.890625 51.90625 
Q 56.890625 45.015625 53.6875 40.46875 
Q 50.484375 35.9375 44.390625 34.1875 
z
M 19.671875 64.796875 
L 19.671875 38.921875 
L 32.078125 38.921875 
Q 39.203125 38.921875 42.84375 42.21875 
Q 46.484375 45.515625 46.484375 51.90625 
Q 46.484375 58.296875 42.84375 61.546875 
Q 39.203125 64.796875 32.078125 64.796875 
z
" id="DejaVuSans-82"/>
      <path d="M 56.203125 29.59375 
L 56.203125 25.203125 
L 14.890625 25.203125 
Q 15.484375 15.921875 20.484375 11.0625 
Q 25.484375 6.203125 34.421875 6.203125 
Q 39.59375 6.203125 44.453125 7.46875 
Q 49.3125 8.734375 54.109375 11.28125 
L 54.109375 2.78125 
Q 49.265625 0.734375 44.1875 -0.34375 
Q 39.109375 -1.421875 33.890625 -1.421875 
Q 20.796875 -1.421875 13.15625 6.1875 
Q 5.515625 13.8125 5.515625 26.8125 
Q 5.515625 40.234375 12.765625 48.109375 
Q 20.015625 56 32.328125 56 
Q 43.359375 56 49.78125 48.890625 
Q 56.203125 41.796875 56.203125 29.59375 
z
M 47.21875 32.234375 
Q 47.125 39.59375 43.09375 43.984375 
Q 39.0625 48.390625 32.421875 48.390625 
Q 24.90625 48.390625 20.390625 44.140625 
Q 15.875 39.890625 15.1875 32.171875 
z
" id="DejaVuSans-101"/>
      <path d="M 18.109375 8.203125 
L 18.109375 -20.796875 
L 9.078125 -20.796875 
L 9.078125 54.6875 
L 18.109375 54.6875 
L 18.109375 46.390625 
Q 20.953125 51.265625 25.265625 53.625 
Q 29.59375 56 35.59375 56 
Q 45.5625 56 51.78125 48.09375 
Q 58.015625 40.1875 58.015625 27.296875 
Q 58.015625 14.40625 51.78125 6.484375 
Q 45.5625 -1.421875 35.59375 -1.421875 
Q 29.59375 -1.421875 25.265625 0.953125 
Q 20.953125 3.328125 18.109375 8.203125 
z
M 48.6875 27.296875 
Q 48.6875 37.203125 44.609375 42.84375 
Q 40.53125 48.484375 33.40625 48.484375 
Q 26.265625 48.484375 22.1875 42.84375 
Q 18.109375 37.203125 18.109375 27.296875 
Q 18.109375 17.390625 22.1875 11.75 
Q 26.265625 6.109375 33.40625 6.109375 
Q 40.53125 6.109375 44.609375 11.75 
Q 48.6875 17.390625 48.6875 27.296875 
z
" id="DejaVuSans-112"/>
      <path d="M 30.609375 48.390625 
Q 23.390625 48.390625 19.1875 42.75 
Q 14.984375 37.109375 14.984375 27.296875 
Q 14.984375 17.484375 19.15625 11.84375 
Q 23.34375 6.203125 30.609375 6.203125 
Q 37.796875 6.203125 41.984375 11.859375 
Q 46.1875 17.53125 46.1875 27.296875 
Q 46.1875 37.015625 41.984375 42.703125 
Q 37.796875 48.390625 30.609375 48.390625 
z
M 30.609375 56 
Q 42.328125 56 49.015625 48.375 
Q 55.71875 40.765625 55.71875 27.296875 
Q 55.71875 13.875 49.015625 6.21875 
Q 42.328125 -1.421875 30.609375 -1.421875 
Q 18.84375 -1.421875 12.171875 6.21875 
Q 5.515625 13.875 5.515625 27.296875 
Q 5.515625 40.765625 12.171875 48.375 
Q 18.84375 56 30.609375 56 
z
" id="DejaVuSans-111"/>
      <path d="M 41.109375 46.296875 
Q 39.59375 47.171875 37.8125 47.578125 
Q 36.03125 48 33.890625 48 
Q 26.265625 48 22.1875 43.046875 
Q 18.109375 38.09375 18.109375 28.8125 
L 18.109375 0 
L 9.078125 0 
L 9.078125 54.6875 
L 18.109375 54.6875 
L 18.109375 46.1875 
Q 20.953125 51.171875 25.484375 53.578125 
Q 30.03125 56 36.53125 56 
Q 37.453125 56 38.578125 55.875 
Q 39.703125 55.765625 41.0625 55.515625 
z
" id="DejaVuSans-114"/>
      <path d="M 18.3125 70.21875 
L 18.3125 54.6875 
L 36.8125 54.6875 
L 36.8125 47.703125 
L 18.3125 47.703125 
L 18.3125 18.015625 
Q 18.3125 11.328125 20.140625 9.421875 
Q 21.96875 7.515625 27.59375 7.515625 
L 36.8125 7.515625 
L 36.8125 0 
L 27.59375 0 
Q 17.1875 0 13.234375 3.875 
Q 9.28125 7.765625 9.28125 18.015625 
L 9.28125 47.703125 
L 2.6875 47.703125 
L 2.6875 54.6875 
L 9.28125 54.6875 
L 9.28125 70.21875 
z
" id="DejaVuSans-116"/>
      <path d="M 45.40625 46.390625 
L 45.40625 75.984375 
L 54.390625 75.984375 
L 54.390625 0 
L 45.40625 0 
L 45.40625 8.203125 
Q 42.578125 3.328125 38.25 0.953125 
Q 33.9375 -1.421875 27.875 -1.421875 
Q 17.96875 -1.421875 11.734375 6.484375 
Q 5.515625 14.40625 5.515625 27.296875 
Q 5.515625 40.1875 11.734375 48.09375 
Q 17.96875 56 27.875 56 
Q 33.9375 56 38.25 53.625 
Q 42.578125 51.265625 45.40625 46.390625 
z
M 14.796875 27.296875 
Q 14.796875 17.390625 18.875 11.75 
Q 22.953125 6.109375 30.078125 6.109375 
Q 37.203125 6.109375 41.296875 11.75 
Q 45.40625 17.390625 45.40625 27.296875 
Q 45.40625 37.203125 41.296875 42.84375 
Q 37.203125 48.484375 30.078125 48.484375 
Q 22.953125 48.484375 18.875 42.84375 
Q 14.796875 37.203125 14.796875 27.296875 
z
" id="DejaVuSans-100"/>
      <path id="DejaVuSans-32"/>
      <path d="M 39.40625 66.21875 
Q 28.65625 66.21875 22.328125 58.203125 
Q 16.015625 50.203125 16.015625 36.375 
Q 16.015625 22.609375 22.328125 14.59375 
Q 28.65625 6.59375 39.40625 6.59375 
Q 50.140625 6.59375 56.421875 14.59375 
Q 62.703125 22.609375 62.703125 36.375 
Q 62.703125 50.203125 56.421875 58.203125 
Q 50.140625 66.21875 39.40625 66.21875 
z
M 39.40625 74.21875 
Q 54.734375 74.21875 63.90625 63.9375 
Q 73.09375 53.65625 73.09375 36.375 
Q 73.09375 19.140625 63.90625 8.859375 
Q 54.734375 -1.421875 39.40625 -1.421875 
Q 24.03125 -1.421875 14.8125 8.828125 
Q 5.609375 19.09375 5.609375 36.375 
Q 5.609375 53.65625 14.8125 63.9375 
Q 24.03125 74.21875 39.40625 74.21875 
z
" id="DejaVuSans-79"/>
      <path d="M 54.890625 33.015625 
L 54.890625 0 
L 45.90625 0 
L 45.90625 32.71875 
Q 45.90625 40.484375 42.875 44.328125 
Q 39.84375 48.1875 33.796875 48.1875 
Q 26.515625 48.1875 22.3125 43.546875 
Q 18.109375 38.921875 18.109375 30.90625 
L 18.109375 0 
L 9.078125 0 
L 9.078125 54.6875 
L 18.109375 54.6875 
L 18.109375 46.1875 
Q 21.34375 51.125 25.703125 53.5625 
Q 30.078125 56 35.796875 56 
Q 45.21875 56 50.046875 50.171875 
Q 54.890625 44.34375 54.890625 33.015625 
z
" id="DejaVuSans-110"/>
     </defs>
     <g transform="translate(263.680469 412.756563)scale(0.1 -0.1)">
      <use xlink:href="#DejaVuSans-82"/>
      <use x="64.982422" xlink:href="#DejaVuSans-101"/>
      <use x="126.505859" xlink:href="#DejaVuSans-112"/>
      <use x="189.982422" xlink:href="#DejaVuSans-111"/>
      <use x="251.164062" xlink:href="#DejaVuSans-114"/>
      <use x="292.277344" xlink:href="#DejaVuSans-116"/>
      <use x="331.486328" xlink:href="#DejaVuSans-101"/>
      <use x="393.009766" xlink:href="#DejaVuSans-100"/>
      <use x="456.486328" xlink:href="#DejaVuSans-32"/>
      <use x="488.273438" xlink:href="#DejaVuSans-79"/>
      <use x="566.984375" xlink:href="#DejaVuSans-110"/>
     </g>
    </g>
   </g>
   <g id="matplotlib.axis_2">
    <g id="ytick_1">
     <g id="line2d_9">
      <defs>
       <path d="M 0 0 
L -3.5 0 
" id="me4b75fca1b" style="stroke:#000000;stroke-width:0.8;"/>
      </defs>
      <g>
       <use style="stroke:#000000;stroke-width:0.8;" x="72" xlink:href="#me4b75fca1b" y="372.210305"/>
      </g>
     </g>
     <g id="text_10">
      <!-- -10.00 % -->
      <defs>
       <path d="M 10.6875 12.40625 
L 21 12.40625 
L 21 0 
L 10.6875 0 
z
" id="DejaVuSans-46"/>
       <path d="M 72.703125 32.078125 
Q 68.453125 32.078125 66.03125 28.46875 
Q 63.625 24.859375 63.625 18.40625 
Q 63.625 12.0625 66.03125 8.421875 
Q 68.453125 4.78125 72.703125 4.78125 
Q 76.859375 4.78125 79.265625 8.421875 
Q 81.6875 12.0625 81.6875 18.40625 
Q 81.6875 24.8125 79.265625 28.4375 
Q 76.859375 32.078125 72.703125 32.078125 
z
M 72.703125 38.28125 
Q 80.421875 38.28125 84.953125 32.90625 
Q 89.5 27.546875 89.5 18.40625 
Q 89.5 9.28125 84.9375 3.921875 
Q 80.375 -1.421875 72.703125 -1.421875 
Q 64.890625 -1.421875 60.34375 3.921875 
Q 55.8125 9.28125 55.8125 18.40625 
Q 55.8125 27.59375 60.375 32.9375 
Q 64.9375 38.28125 72.703125 38.28125 
z
M 22.3125 68.015625 
Q 18.109375 68.015625 15.6875 64.375 
Q 13.28125 60.75 13.28125 54.390625 
Q 13.28125 47.953125 15.671875 44.328125 
Q 18.0625 40.71875 22.3125 40.71875 
Q 26.5625 40.71875 28.96875 44.328125 
Q 31.390625 47.953125 31.390625 54.390625 
Q 31.390625 60.6875 28.953125 64.34375 
Q 26.515625 68.015625 22.3125 68.015625 
z
M 66.40625 74.21875 
L 74.21875 74.21875 
L 28.609375 -1.421875 
L 20.796875 -1.421875 
z
M 22.3125 74.21875 
Q 30.03125 74.21875 34.609375 68.875 
Q 39.203125 63.53125 39.203125 54.390625 
Q 39.203125 45.171875 34.640625 39.84375 
Q 30.078125 34.515625 22.3125 34.515625 
Q 14.546875 34.515625 10.03125 39.859375 
Q 5.515625 45.21875 5.515625 54.390625 
Q 5.515625 63.484375 10.046875 68.84375 
Q 14.59375 74.21875 22.3125 74.21875 
z
" id="DejaVuSans-37"/>
      </defs>
      <g transform="translate(20.084375 376.009524)scale(0.1 -0.1)">
       <use xlink:href="#DejaVuSans-45"/>
       <use x="36.083984" xlink:href="#DejaVuSans-49"/>
       <use x="99.707031" xlink:href="#DejaVuSans-48"/>
       <use x="163.330078" xlink:href="#DejaVuSans-46"/>
       <use x="195.117188" xlink:href="#DejaVuSans-48"/>
       <use x="258.740234" xlink:href="#DejaVuSans-48"/>
       <use x="322.363281" xlink:href="#DejaVuSans-32"/>
       <use x="354.150391" xlink:href="#DejaVuSans-37"/>
      </g>
     </g>
    </g>
    <g id="ytick_2">
     <g id="line2d_10">
      <g>
       <use style="stroke:#000000;stroke-width:0.8;" x="72" xlink:href="#me4b75fca1b" y="320.522866"/>
      </g>
     </g>
     <g id="text_11">
      <!-- 0.00 % -->
      <g transform="translate(30.054688 324.322084)scale(0.1 -0.1)">
       <use xlink:href="#DejaVuSans-48"/>
       <use x="63.623047" xlink:href="#DejaVuSans-46"/>
       <use x="95.410156" xlink:href="#DejaVuSans-48"/>
       <use x="159.033203" xlink:href="#DejaVuSans-48"/>
       <use x="222.65625" xlink:href="#DejaVuSans-32"/>
       <use x="254.443359" xlink:href="#DejaVuSans-37"/>
      </g>
     </g>
    </g>
    <g id="ytick_3">
     <g id="line2d_11">
      <g>
       <use style="stroke:#000000;stroke-width:0.8;" x="72" xlink:href="#me4b75fca1b" y="268.835426"/>
      </g>
     </g>
     <g id="text_12">
      <!-- 10.00 % -->
      <g transform="translate(23.692187 272.634645)scale(0.1 -0.1)">
       <use xlink:href="#DejaVuSans-49"/>
       <use x="63.623047" xlink:href="#DejaVuSans-48"/>
       <use x="127.246094" xlink:href="#DejaVuSans-46"/>
       <use x="159.033203" xlink:href="#DejaVuSans-48"/>
       <use x="222.65625" xlink:href="#DejaVuSans-48"/>
       <use x="286.279297" xlink:href="#DejaVuSans-32"/>
       <use x="318.066406" xlink:href="#DejaVuSans-37"/>
      </g>
     </g>
    </g>
    <g id="ytick_4">
     <g id="line2d_12">
      <g>
       <use style="stroke:#000000;stroke-width:0.8;" x="72" xlink:href="#me4b75fca1b" y="217.147987"/>
      </g>
     </g>
     <g id="text_13">
      <!-- 20.00 % -->
      <g transform="translate(23.692187 220.947205)scale(0.1 -0.1)">
       <use xlink:href="#DejaVuSans-50"/>
       <use x="63.623047" xlink:href="#DejaVuSans-48"/>
       <use x="127.246094" xlink:href="#DejaVuSans-46"/>
       <use x="159.033203" xlink:href="#DejaVuSans-48"/>
       <use x="222.65625" xlink:href="#DejaVuSans-48"/>
       <use x="286.279297" xlink:href="#DejaVuSans-32"/>
       <use x="318.066406" xlink:href="#DejaVuSans-37"/>
      </g>
     </g>
    </g>
    <g id="ytick_5">
     <g id="line2d_13">
      <g>
       <use style="stroke:#000000;stroke-width:0.8;" x="72" xlink:href="#me4b75fca1b" y="165.460547"/>
      </g>
     </g>
     <g id="text_14">
      <!-- 30.00 % -->
      <g transform="translate(23.692187 169.259766)scale(0.1 -0.1)">
       <use xlink:href="#DejaVuSans-51"/>
       <use x="63.623047" xlink:href="#DejaVuSans-48"/>
       <use x="127.246094" xlink:href="#DejaVuSans-46"/>
       <use x="159.033203" xlink:href="#DejaVuSans-48"/>
       <use x="222.65625" xlink:href="#DejaVuSans-48"/>
       <use x="286.279297" xlink:href="#DejaVuSans-32"/>
       <use x="318.066406" xlink:href="#DejaVuSans-37"/>
      </g>
     </g>
    </g>
    <g id="ytick_6">
     <g id="line2d_14">
      <g>
       <use style="stroke:#000000;stroke-width:0.8;" x="72" xlink:href="#me4b75fca1b" y="113.773108"/>
      </g>
     </g>
     <g id="text_15">
      <!-- 40.00 % -->
      <defs>
       <path d="M 37.796875 64.3125 
L 12.890625 25.390625 
L 37.796875 25.390625 
z
M 35.203125 72.90625 
L 47.609375 72.90625 
L 47.609375 25.390625 
L 58.015625 25.390625 
L 58.015625 17.1875 
L 47.609375 17.1875 
L 47.609375 0 
L 37.796875 0 
L 37.796875 17.1875 
L 4.890625 17.1875 
L 4.890625 26.703125 
z
" id="DejaVuSans-52"/>
      </defs>
      <g transform="translate(23.692187 117.572326)scale(0.1 -0.1)">
       <use xlink:href="#DejaVuSans-52"/>
       <use x="63.623047" xlink:href="#DejaVuSans-48"/>
       <use x="127.246094" xlink:href="#DejaVuSans-46"/>
       <use x="159.033203" xlink:href="#DejaVuSans-48"/>
       <use x="222.65625" xlink:href="#DejaVuSans-48"/>
       <use x="286.279297" xlink:href="#DejaVuSans-32"/>
       <use x="318.066406" xlink:href="#DejaVuSans-37"/>
      </g>
     </g>
    </g>
    <g id="ytick_7">
     <g id="line2d_15">
      <g>
       <use style="stroke:#000000;stroke-width:0.8;" x="72" xlink:href="#me4b75fca1b" y="62.085668"/>
      </g>
     </g>
     <g id="text_16">
      <!-- 50.00 % -->
      <g transform="translate(23.692187 65.884887)scale(0.1 -0.1)">
       <use xlink:href="#DejaVuSans-53"/>
       <use x="63.623047" xlink:href="#DejaVuSans-48"/>
       <use x="127.246094" xlink:href="#DejaVuSans-46"/>
       <use x="159.033203" xlink:href="#DejaVuSans-48"/>
       <use x="222.65625" xlink:href="#DejaVuSans-48"/>
       <use x="286.279297" xlink:href="#DejaVuSans-32"/>
       <use x="318.066406" xlink:href="#DejaVuSans-37"/>
      </g>
     </g>
    </g>
    <g id="text_17">
     <!-- Rate -->
     <defs>
      <path d="M 34.28125 27.484375 
Q 23.390625 27.484375 19.1875 25 
Q 14.984375 22.515625 14.984375 16.5 
Q 14.984375 11.71875 18.140625 8.90625 
Q 21.296875 6.109375 26.703125 6.109375 
Q 34.1875 6.109375 38.703125 11.40625 
Q 43.21875 16.703125 43.21875 25.484375 
L 43.21875 27.484375 
z
M 52.203125 31.203125 
L 52.203125 0 
L 43.21875 0 
L 43.21875 8.296875 
Q 40.140625 3.328125 35.546875 0.953125 
Q 30.953125 -1.421875 24.3125 -1.421875 
Q 15.921875 -1.421875 10.953125 3.296875 
Q 6 8.015625 6 15.921875 
Q 6 25.140625 12.171875 29.828125 
Q 18.359375 34.515625 30.609375 34.515625 
L 43.21875 34.515625 
L 43.21875 35.40625 
Q 43.21875 41.609375 39.140625 45 
Q 35.0625 48.390625 27.6875 48.390625 
Q 23 48.390625 18.546875 47.265625 
Q 14.109375 46.140625 10.015625 43.890625 
L 10.015625 52.203125 
Q 14.9375 54.109375 19.578125 55.046875 
Q 24.21875 56 28.609375 56 
Q 40.484375 56 46.34375 49.84375 
Q 52.203125 43.703125 52.203125 31.203125 
z
" id="DejaVuSans-97"/>
     </defs>
     <g transform="translate(14.004687 229.6225)rotate(-90)scale(0.1 -0.1)">
      <use xlink:href="#DejaVuSans-82"/>
      <use x="67.232422" xlink:href="#DejaVuSans-97"/>
      <use x="128.511719" xlink:href="#DejaVuSans-116"/>
      <use x="167.720703" xlink:href="#DejaVuSans-101"/>
     </g>
    </g>
   </g>
   <g id="line2d_16">
    <path clip-path="url(#p578565163c)" d="M 498.109091 318.169223 
L 494.360193 317.554215 
L 492.485744 317.893744 
L 487.799622 318.264375 
L 486.862398 317.87135 
L 484.987949 317.736909 
L 482.176275 317.819931 
L 479.364602 317.921159 
L 469.055133 317.910022 
L 468.117909 317.826276 
L 466.24346 318.019555 
L 464.369011 318.163107 
L 463.431787 318.424497 
L 460.620113 318.518052 
L 459.682889 318.353876 
L 457.80844 318.248134 
L 456.871216 318.004066 
L 452.185093 317.820508 
L 450.310645 317.826416 
L 445.624522 317.7202 
L 441.875625 317.535037 
L 440.001176 317.773651 
L 437.189502 317.694015 
L 431.566156 316.995263 
L 430.628931 316.769912 
L 429.691707 316.755919 
L 427.817258 316.479893 
L 425.005585 316.362645 
L 424.06836 316.098072 
L 418.445014 315.992319 
L 417.507789 316.219912 
L 413.758891 315.670891 
L 411.884443 315.556426 
L 410.947218 315.219623 
L 410.009994 315.087812 
L 409.072769 315.131112 
L 408.135545 314.791631 
L 406.261096 314.572543 
L 405.323872 314.471292 
L 404.386647 314.672704 
L 403.449423 314.532381 
L 402.512198 314.204117 
L 400.637749 314.258979 
L 399.700525 314.446298 
L 398.7633 314.42054 
L 397.826076 314.188843 
L 395.014403 314.041191 
L 394.077178 313.807477 
L 392.202729 313.620231 
L 391.265505 313.344579 
L 390.32828 312.942693 
L 389.391056 312.749942 
L 388.453832 312.350093 
L 384.704934 311.399551 
L 383.767709 310.958279 
L 382.830485 310.081735 
L 381.893261 309.847717 
L 380.956036 309.737881 
L 380.018812 309.158128 
L 379.081587 309.087942 
L 378.144363 310.319151 
L 377.207138 310.983452 
L 376.269914 309.757724 
L 375.332689 309.162905 
L 374.395465 308.899791 
L 372.521016 308.893248 
L 371.583792 308.621165 
L 370.646567 308.49201 
L 369.709343 309.181468 
L 368.772118 309.243976 
L 367.834894 308.576109 
L 366.89767 308.664733 
L 365.960445 308.159985 
L 365.023221 306.835735 
L 364.085996 305.964488 
L 363.148772 305.971851 
L 362.211547 305.741265 
L 361.274323 306.41426 
L 360.337098 306.749486 
L 359.399874 306.468714 
L 357.525425 306.83284 
L 356.588201 306.748744 
L 355.650976 307.207518 
L 354.713752 306.886175 
L 352.839303 306.760247 
L 351.902079 305.856408 
L 350.964854 305.366598 
L 350.02763 304.546857 
L 349.090405 304.06199 
L 348.153181 303.438887 
L 347.215956 303.71887 
L 346.278732 303.740895 
L 344.404283 302.721563 
L 343.467059 301.861467 
L 342.529834 301.62408 
L 341.59261 301.717866 
L 339.718161 301.177737 
L 338.780936 300.797062 
L 337.843712 301.478385 
L 336.906488 303.641497 
L 335.969263 303.773301 
L 335.032039 304.374534 
L 334.094814 304.40404 
L 333.15759 304.304953 
L 332.220365 305.214404 
L 331.283141 304.072891 
L 330.345916 302.095939 
L 329.408692 301.146716 
L 328.471468 301.199373 
L 327.534243 300.985392 
L 326.597019 301.243862 
L 325.659794 300.26499 
L 324.72257 300.14922 
L 322.848121 300.936055 
L 321.910896 300.801139 
L 320.973672 300.063979 
L 320.036448 299.080478 
L 319.099223 300.222791 
L 318.161999 300.047649 
L 317.224774 300.43803 
L 315.350325 300.155053 
L 314.413101 300.490114 
L 313.475877 300.053322 
L 312.538652 298.386783 
L 311.601428 297.652373 
L 310.664203 298.10383 
L 309.726979 298.048068 
L 308.789754 297.738303 
L 307.85253 298.039093 
L 306.915305 300.195132 
L 305.978081 300.395227 
L 305.040857 301.425688 
L 304.103632 301.684887 
L 303.166408 302.829024 
L 302.229183 303.244007 
L 301.291959 301.598192 
L 300.354734 300.774725 
L 299.41751 302.409135 
L 297.543061 301.082302 
L 296.605837 301.466616 
L 295.668612 301.118046 
L 294.731388 302.297128 
L 293.794163 301.961946 
L 292.856939 301.780643 
L 291.919714 302.94754 
L 290.98249 304.664029 
L 290.045266 302.935612 
L 289.108041 303.880965 
L 288.170817 304.364017 
L 285.359143 308.810362 
L 284.421919 309.544217 
L 283.484695 312.927959 
L 282.54747 312.680253 
L 281.610246 313.551294 
L 279.735797 314.514058 
L 278.798572 315.738861 
L 277.861348 316.368617 
L 276.924123 316.73541 
L 275.986899 318.112981 
L 274.11245 317.994388 
L 273.175226 318.575016 
L 272.238001 318.213634 
L 271.300777 318.354676 
L 270.363552 317.98867 
L 268.489104 318.181799 
L 267.551879 318.529163 
L 266.614655 318.313946 
L 265.67743 318.559216 
L 264.740206 318.604857 
L 263.802981 319.06478 
L 262.865757 318.797694 
L 261.928532 318.690533 
L 260.991308 318.206977 
L 260.054084 318.353303 
L 258.179635 318.066672 
L 257.24241 317.187972 
L 255.367961 317.49314 
L 254.430737 317.910742 
L 253.493512 318.065882 
L 251.619064 318.653419 
L 250.681839 319.469981 
L 249.744615 319.745604 
L 248.80739 319.689771 
L 246.932941 319.291251 
L 245.995717 319.40152 
L 245.058493 319.230857 
L 244.121268 318.829232 
L 243.184044 318.657712 
L 242.246819 318.713545 
L 241.309595 318.990995 
L 240.37237 318.982711 
L 239.435146 318.692521 
L 238.497921 317.868984 
L 236.623473 317.960365 
L 234.749024 317.599317 
L 233.811799 317.583019 
L 232.874575 317.749513 
L 231.93735 318.558466 
L 230.062902 318.905228 
L 229.125677 319.083226 
L 228.188453 318.589159 
L 227.251228 318.9466 
L 226.314004 319.004112 
L 225.376779 318.875826 
L 222.565106 318.868994 
L 221.627882 319.474609 
L 219.753433 319.034872 
L 218.816208 319.341413 
L 216.004535 319.336417 
L 215.067311 319.522489 
L 213.192862 318.94031 
L 212.255637 318.166434 
L 211.318413 317.963192 
L 210.381188 317.505982 
L 208.506739 317.306364 
L 207.569515 317.7459 
L 205.695066 319.217099 
L 204.757842 319.473623 
L 203.820617 319.864758 
L 202.883393 319.995441 
L 201.946168 319.994969 
L 200.07172 319.79538 
L 199.134495 319.86122 
L 198.197271 320.059092 
L 193.511148 320.32321 
L 192.573924 320.05616 
L 191.6367 319.653766 
L 189.762251 319.586486 
L 186.950577 319.583935 
L 184.138904 319.914576 
L 183.20168 319.914576 
L 182.264455 319.778717 
L 180.390006 319.708454 
L 179.452782 319.638553 
L 177.578333 319.014492 
L 172.892211 319.00178 
L 171.954986 319.271324 
L 171.017762 319.335827 
L 170.080537 319.194912 
L 169.143313 319.193654 
L 168.206089 318.12482 
L 167.268864 317.973992 
L 166.33164 317.601687 
L 164.457191 317.652176 
L 163.519966 317.719873 
L 162.582742 316.980218 
L 161.645518 316.091184 
L 159.771069 315.641019 
L 158.833844 315.854614 
L 157.89662 315.762271 
L 156.959395 315.287078 
L 156.022171 315.386154 
L 155.084946 317.254422 
L 154.147722 316.338446 
L 153.210498 316.452901 
L 152.273273 316.20168 
L 151.336049 316.513238 
L 150.398824 315.64722 
L 148.524375 315.757393 
L 147.587151 316.259317 
L 146.649927 316.215413 
L 145.712702 315.404938 
L 144.775478 313.797733 
L 143.838253 314.668557 
L 142.901029 314.612576 
L 141.963804 312.837372 
L 141.02658 313.295664 
L 140.089355 312.44295 
L 139.152131 312.310054 
L 138.214907 313.023431 
L 137.277682 312.35818 
L 136.340458 311.549826 
L 135.403233 310.231205 
L 134.466009 310.036678 
L 133.528784 310.676875 
L 132.59156 310.944522 
L 130.717111 312.369775 
L 129.779887 311.488042 
L 128.842662 312.526274 
L 127.905438 310.459579 
L 126.968213 309.930824 
L 126.030989 307.12779 
L 125.093764 306.539993 
L 124.15654 305.755896 
L 123.219316 304.775046 
L 122.282091 304.557124 
L 121.344867 301.948098 
L 120.407642 301.50755 
L 119.470418 296.907371 
L 118.533193 293.521579 
L 117.595969 288.831329 
L 116.658744 282.707136 
L 115.72152 278.750585 
L 114.784296 274.026251 
L 113.847071 268.67621 
L 112.909847 268.595576 
L 111.972622 266.130527 
L 111.035398 252.971012 
L 110.098173 254.065356 
L 109.160949 252.202452 
L 108.223725 243.521803 
L 107.2865 236.679723 
L 105.412051 197.462727 
L 104.474827 207.306953 
L 103.537602 205.172374 
L 102.600378 181.977131 
L 101.663153 161.638467 
L 100.725929 175.791036 
L 99.788705 186.698269 
L 98.85148 192.441313 
L 97.914256 120.562607 
L 96.977031 79.947626 
L 96.039807 111.320661 
L 95.102582 150.501826 
L 94.165358 150.501826 
L 93.228134 166.978567 
L 92.290909 188.220781 
L 92.290909 188.220781 
" style="fill:none;stroke:#1f77b4;stroke-linecap:square;stroke-width:1.5;"/>
   </g>
   <g id="line2d_17">
    <path clip-path="url(#p578565163c)" d="M 498.109091 317.94835 
L 497.171866 317.759271 
L 495.297418 317.857128 
L 494.360193 317.355416 
L 493.422969 318.358225 
L 492.485744 317.912112 
L 491.54852 317.687444 
L 490.611295 318.384676 
L 489.674071 317.981059 
L 487.799622 317.930625 
L 486.862398 317.565224 
L 485.925173 318.008208 
L 484.987949 317.975162 
L 484.050724 317.056779 
L 483.1135 317.907482 
L 482.176275 317.826703 
L 480.301827 318.012095 
L 478.427378 318.163494 
L 477.490153 319.081877 
L 476.552929 318.459248 
L 475.615704 318.974599 
L 474.67848 318.512221 
L 473.741256 318.732781 
L 472.804031 318.433954 
L 471.866807 318.479826 
L 470.929582 317.795325 
L 469.992358 317.939159 
L 469.055133 317.489212 
L 468.117909 317.821948 
L 467.180684 317.440468 
L 466.24346 317.671015 
L 465.306236 316.65471 
L 464.369011 317.339212 
L 463.431787 317.818006 
L 462.494562 317.898228 
L 461.557338 318.482762 
L 459.682889 317.871069 
L 458.745664 318.866805 
L 457.80844 318.636134 
L 456.871216 317.671929 
L 455.933991 318.041653 
L 454.996767 317.528512 
L 454.059542 316.851081 
L 453.122318 317.357938 
L 451.247869 317.72971 
L 450.310645 318.200689 
L 449.37342 316.265912 
L 448.436196 316.779053 
L 447.498971 318.094864 
L 446.561747 317.550287 
L 443.750073 316.766145 
L 442.812849 318.063235 
L 441.875625 317.338853 
L 440.9384 316.4623 
L 440.001176 316.415753 
L 439.063951 315.031581 
L 438.126727 315.357103 
L 437.189502 316.074448 
L 434.377829 316.121376 
L 433.440605 315.780393 
L 432.50338 317.399065 
L 431.566156 316.989759 
L 430.628931 316.235082 
L 427.817258 315.817504 
L 426.880034 315.955392 
L 425.942809 315.170476 
L 425.005585 315.579781 
L 424.06836 315.244067 
L 423.131136 315.125237 
L 422.193911 313.858067 
L 421.256687 313.988475 
L 420.319463 314.782693 
L 419.382238 315.110414 
L 418.445014 314.520034 
L 417.507789 313.657839 
L 415.63334 315.541759 
L 414.696116 315.078731 
L 413.758891 314.246989 
L 412.821667 314.433473 
L 411.884443 314.407367 
L 410.947218 314.156953 
L 410.009994 311.622901 
L 409.072769 312.753601 
L 408.135545 314.066873 
L 407.19832 313.85341 
L 405.323872 313.672213 
L 404.386647 314.491553 
L 403.449423 315.524805 
L 402.512198 314.180871 
L 401.574974 311.101764 
L 400.637749 312.146969 
L 399.700525 311.099585 
L 398.7633 311.845976 
L 397.826076 311.439367 
L 396.888852 305.568115 
L 395.951627 306.912049 
L 395.014403 309.832947 
L 394.077178 309.832947 
L 393.139954 310.134736 
L 392.202729 309.146383 
L 391.265505 310.415847 
L 390.32828 313.035281 
L 389.391056 308.768493 
L 388.453832 308.926702 
L 385.642158 309.009749 
L 384.704934 307.331306 
L 383.767709 312.083924 
L 382.830485 308.6925 
L 380.018812 308.754519 
L 379.081587 308.181261 
L 378.144363 308.243728 
L 377.207138 303.229824 
L 376.269914 310.888037 
L 375.332689 308.118811 
L 374.395465 306.454614 
L 373.458241 306.794096 
L 372.521016 306.555362 
L 371.583792 306.709418 
L 370.646567 309.654339 
L 369.709343 306.827444 
L 368.772118 307.241688 
L 367.834894 306.957943 
L 365.960445 306.817462 
L 365.023221 303.346368 
L 364.085996 305.415351 
L 363.148772 304.595664 
L 362.211547 304.148439 
L 361.274323 303.481875 
L 360.337098 303.770261 
L 359.399874 143.435425 
L 358.46265 148.889245 
L 357.525425 148.889245 
L 356.588201 152.535827 
L 354.713752 157.952539 
L 353.776527 158.351944 
L 352.839303 320.522866 
L 351.902079 319.847078 
L 350.964854 319.807133 
L 350.02763 318.801408 
L 349.090405 318.109605 
L 348.153181 317.658489 
L 347.215956 314.464036 
L 346.278732 314.464036 
L 345.341507 315.139824 
L 344.404283 315.179769 
L 343.467059 314.754205 
L 342.529834 313.897031 
L 341.59261 313.629074 
L 340.655385 316.823528 
L 339.718161 313.214126 
L 337.843712 313.214126 
L 335.969263 316.194392 
L 335.032039 314.894298 
L 334.094814 314.894298 
L 333.15759 318.503699 
L 331.283141 318.503699 
L 330.345916 316.327437 
L 329.408692 316.327437 
L 328.471468 318.095193 
L 327.534243 318.095193 
L 326.597019 316.978702 
L 324.72257 316.978702 
L 323.785345 319.154965 
L 322.848121 319.154965 
L 321.910896 317.437213 
L 320.973672 317.437213 
L 320.036448 318.553704 
L 318.161999 318.553704 
L 317.224774 317.282409 
L 316.28755 317.282409 
L 315.350325 317.903611 
L 311.601428 317.903611 
L 310.664203 318.299115 
L 309.726979 318.299115 
L 308.789754 319.647075 
L 307.85253 318.983348 
L 305.040857 318.983348 
L 304.103632 319.636563 
L 302.229183 319.636563 
L 301.291959 320.132918 
L 298.480286 320.132918 
L 297.543061 320.355493 
L 296.605837 320.355493 
L 295.668612 319.512891 
L 294.731388 319.680264 
L 290.045266 319.680264 
L 289.108041 320.353185 
L 287.233592 320.353185 
L 286.296368 319.096804 
L 285.359143 317.112073 
L 283.484695 317.112073 
L 282.54747 317.281754 
L 280.673021 317.281754 
L 279.735797 318.538135 
L 278.798572 320.522866 
L 272.238001 320.522866 
L 271.300777 319.68986 
L 270.363552 316.82255 
L 264.740206 316.779487 
L 263.802981 319.646797 
L 262.865757 319.014608 
L 259.116859 319.014608 
L 258.179635 318.091199 
L 257.24241 318.091199 
L 256.305186 315.939174 
L 252.556288 315.939174 
L 251.619064 317.738652 
L 250.681839 317.738652 
L 249.744615 319.502501 
L 244.121268 319.502501 
L 243.184044 319.97285 
L 237.560697 319.97285 
L 236.623473 319.270144 
L 231.000126 319.270144 
L 230.062902 320.029898 
L 224.439555 320.029898 
L 223.50233 318.879545 
L 217.878984 318.879545 
L 216.941759 320.305798 
L 213.192862 320.305798 
L 212.255637 319.504378 
L 211.318413 319.504378 
L 210.381188 319.133082 
L 208.506739 319.133082 
L 207.569515 318.911232 
L 206.632291 318.241653 
L 205.695066 317.989284 
L 204.757842 317.989284 
L 203.820617 315.322927 
L 201.946168 315.322927 
L 201.008944 315.544778 
L 200.07172 313.880281 
L 199.134495 314.934069 
L 198.197271 314.934069 
L 197.260046 318.188789 
L 194.448373 318.188789 
L 193.511148 320.522866 
L 192.573924 318.197029 
L 191.6367 318.197029 
L 190.699475 315.620982 
L 188.825026 315.620982 
L 187.887802 313.223106 
L 186.950577 313.223106 
L 186.013353 313.350094 
L 185.076128 313.350094 
L 184.138904 314.707181 
L 182.264455 314.707181 
L 181.327231 317.105057 
L 180.390006 315.092443 
L 179.452782 317.291291 
L 178.515557 317.291291 
L 177.578333 317.038325 
L 174.76666 317.038325 
L 173.829435 318.653419 
L 171.954986 318.653419 
L 171.017762 317.177484 
L 168.206089 317.177484 
L 167.268864 315.684282 
L 165.394415 315.684282 
L 164.457191 315.14646 
L 161.645518 315.14646 
L 160.708293 313.02631 
L 158.833844 313.02631 
L 157.89662 294.281817 
L 155.084946 294.281817 
L 154.147722 298.292689 
L 153.210498 298.292689 
L 152.273273 277.050476 
L 151.336049 299.280652 
L 146.649927 299.280652 
L 145.712702 300.958888 
L 141.963804 300.958888 
L 141.02658 249.500384 
L 140.089355 249.500384 
L 139.152131 269.064362 
L 138.214907 238.567864 
L 135.403233 238.567864 
L 134.466009 257.95907 
L 133.528784 238.844934 
L 132.59156 164.149133 
L 131.654336 194.645631 
L 128.842662 194.645631 
L 127.905438 226.712929 
L 126.968213 245.827064 
L 126.030989 320.522866 
L 125.093764 320.522866 
L 124.15654 115.797134 
L 122.282091 115.797134 
L 121.344867 369.36 
L 120.407642 115.797134 
L 118.533193 115.797134 
L 117.595969 320.522866 
L 115.72152 320.522866 
L 114.784296 66.96 
L 113.847071 320.522866 
L 99.788705 320.522866 
L 99.788705 320.522866 
" style="fill:none;stroke:#ff7f0e;stroke-linecap:square;stroke-width:1.5;"/>
   </g>
   <g id="patch_3">
    <path d="M 72 384.48 
L 72 51.84 
" style="fill:none;stroke:#000000;stroke-linecap:square;stroke-linejoin:miter;stroke-width:0.8;"/>
   </g>
   <g id="patch_4">
    <path d="M 518.4 384.48 
L 518.4 51.84 
" style="fill:none;stroke:#000000;stroke-linecap:square;stroke-linejoin:miter;stroke-width:0.8;"/>
   </g>
   <g id="patch_5">
    <path d="M 72 384.48 
L 518.4 384.48 
" style="fill:none;stroke:#000000;stroke-linecap:square;stroke-linejoin:miter;stroke-width:0.8;"/>
   </g>
   <g id="patch_6">
    <path d="M 72 51.84 
L 518.4 51.84 
" style="fill:none;stroke:#000000;stroke-linecap:square;stroke-linejoin:miter;stroke-width:0.8;"/>
   </g>
   <g id="text_18">
    <!-- Growth Rate -->
    <defs>
     <path d="M 59.515625 10.40625 
L 59.515625 29.984375 
L 43.40625 29.984375 
L 43.40625 38.09375 
L 69.28125 38.09375 
L 69.28125 6.78125 
Q 63.578125 2.734375 56.6875 0.65625 
Q 49.8125 -1.421875 42 -1.421875 
Q 24.90625 -1.421875 15.25 8.5625 
Q 5.609375 18.5625 5.609375 36.375 
Q 5.609375 54.25 15.25 64.234375 
Q 24.90625 74.21875 42 74.21875 
Q 49.125 74.21875 55.546875 72.453125 
Q 61.96875 70.703125 67.390625 67.28125 
L 67.390625 56.78125 
Q 61.921875 61.421875 55.765625 63.765625 
Q 49.609375 66.109375 42.828125 66.109375 
Q 29.4375 66.109375 22.71875 58.640625 
Q 16.015625 51.171875 16.015625 36.375 
Q 16.015625 21.625 22.71875 14.15625 
Q 29.4375 6.6875 42.828125 6.6875 
Q 48.046875 6.6875 52.140625 7.59375 
Q 56.25 8.5 59.515625 10.40625 
z
" id="DejaVuSans-71"/>
     <path d="M 4.203125 54.6875 
L 13.1875 54.6875 
L 24.421875 12.015625 
L 35.59375 54.6875 
L 46.1875 54.6875 
L 57.421875 12.015625 
L 68.609375 54.6875 
L 77.59375 54.6875 
L 63.28125 0 
L 52.6875 0 
L 40.921875 44.828125 
L 29.109375 0 
L 18.5 0 
z
" id="DejaVuSans-119"/>
     <path d="M 54.890625 33.015625 
L 54.890625 0 
L 45.90625 0 
L 45.90625 32.71875 
Q 45.90625 40.484375 42.875 44.328125 
Q 39.84375 48.1875 33.796875 48.1875 
Q 26.515625 48.1875 22.3125 43.546875 
Q 18.109375 38.921875 18.109375 30.90625 
L 18.109375 0 
L 9.078125 0 
L 9.078125 75.984375 
L 18.109375 75.984375 
L 18.109375 46.1875 
Q 21.34375 51.125 25.703125 53.5625 
Q 30.078125 56 35.796875 56 
Q 45.21875 56 50.046875 50.171875 
Q 54.890625 44.34375 54.890625 33.015625 
z
" id="DejaVuSans-104"/>
    </defs>
    <g transform="translate(257.824687 45.84)scale(0.12 -0.12)">
     <use xlink:href="#DejaVuSans-71"/>
     <use x="77.490234" xlink:href="#DejaVuSans-114"/>
     <use x="116.353516" xlink:href="#DejaVuSans-111"/>
     <use x="177.535156" xlink:href="#DejaVuSans-119"/>
     <use x="259.322266" xlink:href="#DejaVuSans-116"/>
     <use x="298.53125" xlink:href="#DejaVuSans-104"/>
     <use x="361.910156" xlink:href="#DejaVuSans-32"/>
     <use x="393.697266" xlink:href="#DejaVuSans-82"/>
     <use x="460.929688" xlink:href="#DejaVuSans-97"/>
     <use x="522.208984" xlink:href="#DejaVuSans-116"/>
     <use x="561.417969" xlink:href="#DejaVuSans-101"/>
    </g>
   </g>
   <g id="legend_1">
    <g id="patch_7">
     <path d="M 291.595312 89.19625 
L 511.4 89.19625 
Q 513.4 89.19625 513.4 87.19625 
L 513.4 58.84 
Q 513.4 56.84 511.4 56.84 
L 291.595312 56.84 
Q 289.595312 56.84 289.595312 58.84 
L 289.595312 87.19625 
Q 289.595312 89.19625 291.595312 89.19625 
z
" style="fill:#ffffff;opacity:0.8;stroke:#cccccc;stroke-linejoin:miter;"/>
    </g>
    <g id="line2d_18">
     <path d="M 293.595312 64.938437 
L 313.595312 64.938437 
" style="fill:none;stroke:#1f77b4;stroke-linecap:square;stroke-width:1.5;"/>
    </g>
    <g id="line2d_19"/>
    <g id="text_19">
     <!-- Confirmed Growth Rate (over 7 days) -->
     <defs>
      <path d="M 64.40625 67.28125 
L 64.40625 56.890625 
Q 59.421875 61.53125 53.78125 63.8125 
Q 48.140625 66.109375 41.796875 66.109375 
Q 29.296875 66.109375 22.65625 58.46875 
Q 16.015625 50.828125 16.015625 36.375 
Q 16.015625 21.96875 22.65625 14.328125 
Q 29.296875 6.6875 41.796875 6.6875 
Q 48.140625 6.6875 53.78125 8.984375 
Q 59.421875 11.28125 64.40625 15.921875 
L 64.40625 5.609375 
Q 59.234375 2.09375 53.4375 0.328125 
Q 47.65625 -1.421875 41.21875 -1.421875 
Q 24.65625 -1.421875 15.125 8.703125 
Q 5.609375 18.84375 5.609375 36.375 
Q 5.609375 53.953125 15.125 64.078125 
Q 24.65625 74.21875 41.21875 74.21875 
Q 47.75 74.21875 53.53125 72.484375 
Q 59.328125 70.75 64.40625 67.28125 
z
" id="DejaVuSans-67"/>
      <path d="M 37.109375 75.984375 
L 37.109375 68.5 
L 28.515625 68.5 
Q 23.6875 68.5 21.796875 66.546875 
Q 19.921875 64.59375 19.921875 59.515625 
L 19.921875 54.6875 
L 34.71875 54.6875 
L 34.71875 47.703125 
L 19.921875 47.703125 
L 19.921875 0 
L 10.890625 0 
L 10.890625 47.703125 
L 2.296875 47.703125 
L 2.296875 54.6875 
L 10.890625 54.6875 
L 10.890625 58.5 
Q 10.890625 67.625 15.140625 71.796875 
Q 19.390625 75.984375 28.609375 75.984375 
z
" id="DejaVuSans-102"/>
      <path d="M 9.421875 54.6875 
L 18.40625 54.6875 
L 18.40625 0 
L 9.421875 0 
z
M 9.421875 75.984375 
L 18.40625 75.984375 
L 18.40625 64.59375 
L 9.421875 64.59375 
z
" id="DejaVuSans-105"/>
      <path d="M 52 44.1875 
Q 55.375 50.25 60.0625 53.125 
Q 64.75 56 71.09375 56 
Q 79.640625 56 84.28125 50.015625 
Q 88.921875 44.046875 88.921875 33.015625 
L 88.921875 0 
L 79.890625 0 
L 79.890625 32.71875 
Q 79.890625 40.578125 77.09375 44.375 
Q 74.3125 48.1875 68.609375 48.1875 
Q 61.625 48.1875 57.5625 43.546875 
Q 53.515625 38.921875 53.515625 30.90625 
L 53.515625 0 
L 44.484375 0 
L 44.484375 32.71875 
Q 44.484375 40.625 41.703125 44.40625 
Q 38.921875 48.1875 33.109375 48.1875 
Q 26.21875 48.1875 22.15625 43.53125 
Q 18.109375 38.875 18.109375 30.90625 
L 18.109375 0 
L 9.078125 0 
L 9.078125 54.6875 
L 18.109375 54.6875 
L 18.109375 46.1875 
Q 21.1875 51.21875 25.484375 53.609375 
Q 29.78125 56 35.6875 56 
Q 41.65625 56 45.828125 52.96875 
Q 50 49.953125 52 44.1875 
z
" id="DejaVuSans-109"/>
      <path d="M 31 75.875 
Q 24.46875 64.65625 21.28125 53.65625 
Q 18.109375 42.671875 18.109375 31.390625 
Q 18.109375 20.125 21.3125 9.0625 
Q 24.515625 -2 31 -13.1875 
L 23.1875 -13.1875 
Q 15.875 -1.703125 12.234375 9.375 
Q 8.59375 20.453125 8.59375 31.390625 
Q 8.59375 42.28125 12.203125 53.3125 
Q 15.828125 64.359375 23.1875 75.875 
z
" id="DejaVuSans-40"/>
      <path d="M 2.984375 54.6875 
L 12.5 54.6875 
L 29.59375 8.796875 
L 46.6875 54.6875 
L 56.203125 54.6875 
L 35.6875 0 
L 23.484375 0 
z
" id="DejaVuSans-118"/>
      <path d="M 32.171875 -5.078125 
Q 28.375 -14.84375 24.75 -17.8125 
Q 21.140625 -20.796875 15.09375 -20.796875 
L 7.90625 -20.796875 
L 7.90625 -13.28125 
L 13.1875 -13.28125 
Q 16.890625 -13.28125 18.9375 -11.515625 
Q 21 -9.765625 23.484375 -3.21875 
L 25.09375 0.875 
L 2.984375 54.6875 
L 12.5 54.6875 
L 29.59375 11.921875 
L 46.6875 54.6875 
L 56.203125 54.6875 
z
" id="DejaVuSans-121"/>
      <path d="M 44.28125 53.078125 
L 44.28125 44.578125 
Q 40.484375 46.53125 36.375 47.5 
Q 32.28125 48.484375 27.875 48.484375 
Q 21.1875 48.484375 17.84375 46.4375 
Q 14.5 44.390625 14.5 40.28125 
Q 14.5 37.15625 16.890625 35.375 
Q 19.28125 33.59375 26.515625 31.984375 
L 29.59375 31.296875 
Q 39.15625 29.25 43.1875 25.515625 
Q 47.21875 21.78125 47.21875 15.09375 
Q 47.21875 7.46875 41.1875 3.015625 
Q 35.15625 -1.421875 24.609375 -1.421875 
Q 20.21875 -1.421875 15.453125 -0.5625 
Q 10.6875 0.296875 5.421875 2 
L 5.421875 11.28125 
Q 10.40625 8.6875 15.234375 7.390625 
Q 20.0625 6.109375 24.8125 6.109375 
Q 31.15625 6.109375 34.5625 8.28125 
Q 37.984375 10.453125 37.984375 14.40625 
Q 37.984375 18.0625 35.515625 20.015625 
Q 33.0625 21.96875 24.703125 23.78125 
L 21.578125 24.515625 
Q 13.234375 26.265625 9.515625 29.90625 
Q 5.8125 33.546875 5.8125 39.890625 
Q 5.8125 47.609375 11.28125 51.796875 
Q 16.75 56 26.8125 56 
Q 31.78125 56 36.171875 55.265625 
Q 40.578125 54.546875 44.28125 53.078125 
z
" id="DejaVuSans-115"/>
      <path d="M 8.015625 75.875 
L 15.828125 75.875 
Q 23.140625 64.359375 26.78125 53.3125 
Q 30.421875 42.28125 30.421875 31.390625 
Q 30.421875 20.453125 26.78125 9.375 
Q 23.140625 -1.703125 15.828125 -13.1875 
L 8.015625 -13.1875 
Q 14.5 -2 17.703125 9.0625 
Q 20.90625 20.125 20.90625 31.390625 
Q 20.90625 42.671875 17.703125 53.65625 
Q 14.5 64.65625 8.015625 75.875 
z
" id="DejaVuSans-41"/>
     </defs>
     <g transform="translate(321.595312 68.438437)scale(0.1 -0.1)">
      <use xlink:href="#DejaVuSans-67"/>
      <use x="69.824219" xlink:href="#DejaVuSans-111"/>
      <use x="131.005859" xlink:href="#DejaVuSans-110"/>
      <use x="194.384766" xlink:href="#DejaVuSans-102"/>
      <use x="229.589844" xlink:href="#DejaVuSans-105"/>
      <use x="257.373047" xlink:href="#DejaVuSans-114"/>
      <use x="296.736328" xlink:href="#DejaVuSans-109"/>
      <use x="394.148438" xlink:href="#DejaVuSans-101"/>
      <use x="455.671875" xlink:href="#DejaVuSans-100"/>
      <use x="519.148438" xlink:href="#DejaVuSans-32"/>
      <use x="550.935547" xlink:href="#DejaVuSans-71"/>
      <use x="628.425781" xlink:href="#DejaVuSans-114"/>
      <use x="667.289062" xlink:href="#DejaVuSans-111"/>
      <use x="728.470703" xlink:href="#DejaVuSans-119"/>
      <use x="810.257812" xlink:href="#DejaVuSans-116"/>
      <use x="849.466797" xlink:href="#DejaVuSans-104"/>
      <use x="912.845703" xlink:href="#DejaVuSans-32"/>
      <use x="944.632812" xlink:href="#DejaVuSans-82"/>
      <use x="1011.865234" xlink:href="#DejaVuSans-97"/>
      <use x="1073.144531" xlink:href="#DejaVuSans-116"/>
      <use x="1112.353516" xlink:href="#DejaVuSans-101"/>
      <use x="1173.876953" xlink:href="#DejaVuSans-32"/>
      <use x="1205.664062" xlink:href="#DejaVuSans-40"/>
      <use x="1244.677734" xlink:href="#DejaVuSans-111"/>
      <use x="1305.859375" xlink:href="#DejaVuSans-118"/>
      <use x="1365.039062" xlink:href="#DejaVuSans-101"/>
      <use x="1426.5625" xlink:href="#DejaVuSans-114"/>
      <use x="1467.675781" xlink:href="#DejaVuSans-32"/>
      <use x="1499.462891" xlink:href="#DejaVuSans-55"/>
      <use x="1563.085938" xlink:href="#DejaVuSans-32"/>
      <use x="1594.873047" xlink:href="#DejaVuSans-100"/>
      <use x="1658.349609" xlink:href="#DejaVuSans-97"/>
      <use x="1719.628906" xlink:href="#DejaVuSans-121"/>
      <use x="1778.808594" xlink:href="#DejaVuSans-115"/>
      <use x="1830.908203" xlink:href="#DejaVuSans-41"/>
     </g>
    </g>
    <g id="line2d_20">
     <path d="M 293.595312 79.616562 
L 313.595312 79.616562 
" style="fill:none;stroke:#ff7f0e;stroke-linecap:square;stroke-width:1.5;"/>
    </g>
    <g id="line2d_21"/>
    <g id="text_20">
     <!-- Recovered Growth Rate (over 7 days) -->
     <defs>
      <path d="M 48.78125 52.59375 
L 48.78125 44.1875 
Q 44.96875 46.296875 41.140625 47.34375 
Q 37.3125 48.390625 33.40625 48.390625 
Q 24.65625 48.390625 19.8125 42.84375 
Q 14.984375 37.3125 14.984375 27.296875 
Q 14.984375 17.28125 19.8125 11.734375 
Q 24.65625 6.203125 33.40625 6.203125 
Q 37.3125 6.203125 41.140625 7.25 
Q 44.96875 8.296875 48.78125 10.40625 
L 48.78125 2.09375 
Q 45.015625 0.34375 40.984375 -0.53125 
Q 36.96875 -1.421875 32.421875 -1.421875 
Q 20.0625 -1.421875 12.78125 6.34375 
Q 5.515625 14.109375 5.515625 27.296875 
Q 5.515625 40.671875 12.859375 48.328125 
Q 20.21875 56 33.015625 56 
Q 37.15625 56 41.109375 55.140625 
Q 45.0625 54.296875 48.78125 52.59375 
z
" id="DejaVuSans-99"/>
     </defs>
     <g transform="translate(321.595312 83.116562)scale(0.1 -0.1)">
      <use xlink:href="#DejaVuSans-82"/>
      <use x="64.982422" xlink:href="#DejaVuSans-101"/>
      <use x="126.505859" xlink:href="#DejaVuSans-99"/>
      <use x="181.486328" xlink:href="#DejaVuSans-111"/>
      <use x="242.667969" xlink:href="#DejaVuSans-118"/>
      <use x="301.847656" xlink:href="#DejaVuSans-101"/>
      <use x="363.371094" xlink:href="#DejaVuSans-114"/>
      <use x="402.234375" xlink:href="#DejaVuSans-101"/>
      <use x="463.757812" xlink:href="#DejaVuSans-100"/>
      <use x="527.234375" xlink:href="#DejaVuSans-32"/>
      <use x="559.021484" xlink:href="#DejaVuSans-71"/>
      <use x="636.511719" xlink:href="#DejaVuSans-114"/>
      <use x="675.375" xlink:href="#DejaVuSans-111"/>
      <use x="736.556641" xlink:href="#DejaVuSans-119"/>
      <use x="818.34375" xlink:href="#DejaVuSans-116"/>
      <use x="857.552734" xlink:href="#DejaVuSans-104"/>
      <use x="920.931641" xlink:href="#DejaVuSans-32"/>
      <use x="952.71875" xlink:href="#DejaVuSans-82"/>
      <use x="1019.951172" xlink:href="#DejaVuSans-97"/>
      <use x="1081.230469" xlink:href="#DejaVuSans-116"/>
      <use x="1120.439453" xlink:href="#DejaVuSans-101"/>
      <use x="1181.962891" xlink:href="#DejaVuSans-32"/>
      <use x="1213.75" xlink:href="#DejaVuSans-40"/>
      <use x="1252.763672" xlink:href="#DejaVuSans-111"/>
      <use x="1313.945312" xlink:href="#DejaVuSans-118"/>
      <use x="1373.125" xlink:href="#DejaVuSans-101"/>
      <use x="1434.648438" xlink:href="#DejaVuSans-114"/>
      <use x="1475.761719" xlink:href="#DejaVuSans-32"/>
      <use x="1507.548828" xlink:href="#DejaVuSans-55"/>
      <use x="1571.171875" xlink:href="#DejaVuSans-32"/>
      <use x="1602.958984" xlink:href="#DejaVuSans-100"/>
      <use x="1666.435547" xlink:href="#DejaVuSans-97"/>
      <use x="1727.714844" xlink:href="#DejaVuSans-121"/>
      <use x="1786.894531" xlink:href="#DejaVuSans-115"/>
      <use x="1838.994141" xlink:href="#DejaVuSans-41"/>
     </g>
    </g>
   </g>
  </g>
 </g>
 <defs>
  <clipPath id="p578565163c">
   <rect height="332.64" width="446.4" x="72" y="51.84"/>
  </clipPath>
 </defs>
</svg>
