<?xml version="1.0" encoding="utf-8" standalone="no"?>
<!DOCTYPE svg PUBLIC "-//W3C//DTD SVG 1.1//EN"
  "http://www.w3.org/Graphics/SVG/1.1/DTD/svg11.dtd">
<!-- Created with matplotlib (https://matplotlib.org/) -->
<svg height="432pt" version="1.1" viewBox="0 0 576 432" width="576pt" xmlns="http://www.w3.org/2000/svg" xmlns:xlink="http://www.w3.org/1999/xlink">
 <defs>
  <style type="text/css">
*{stroke-linecap:butt;stroke-linejoin:round;}
  </style>
 </defs>
 <g id="figure_1">
  <g id="patch_1">
   <path d="M 0 432 
L 576 432 
L 576 0 
L 0 0 
z
" style="fill:#ffffff;"/>
  </g>
  <g id="axes_1">
   <g id="patch_2">
    <path d="M 72 384.48 
L 518.4 384.48 
L 518.4 51.84 
L 72 51.84 
z
" style="fill:#ffffff;"/>
   </g>
   <g id="matplotlib.axis_1">
    <g id="xtick_1">
     <g id="line2d_1">
      <defs>
       <path d="M 0 0 
L 0 3.5 
" id="m484c7b1b6b" style="stroke:#000000;stroke-width:0.8;"/>
      </defs>
      <g>
       <use style="stroke:#000000;stroke-width:0.8;" x="78.266955" xlink:href="#m484c7b1b6b" y="384.48"/>
      </g>
     </g>
     <g id="text_1">
      <!-- 2020-03 -->
      <defs>
       <path d="M 19.1875 8.296875 
L 53.609375 8.296875 
L 53.609375 0 
L 7.328125 0 
L 7.328125 8.296875 
Q 12.9375 14.109375 22.625 23.890625 
Q 32.328125 33.6875 34.8125 36.53125 
Q 39.546875 41.84375 41.421875 45.53125 
Q 43.3125 49.21875 43.3125 52.78125 
Q 43.3125 58.59375 39.234375 62.25 
Q 35.15625 65.921875 28.609375 65.921875 
Q 23.96875 65.921875 18.8125 64.3125 
Q 13.671875 62.703125 7.8125 59.421875 
L 7.8125 69.390625 
Q 13.765625 71.78125 18.9375 73 
Q 24.125 74.21875 28.421875 74.21875 
Q 39.75 74.21875 46.484375 68.546875 
Q 53.21875 62.890625 53.21875 53.421875 
Q 53.21875 48.921875 51.53125 44.890625 
Q 49.859375 40.875 45.40625 35.40625 
Q 44.1875 33.984375 37.640625 27.21875 
Q 31.109375 20.453125 19.1875 8.296875 
z
" id="DejaVuSans-50"/>
       <path d="M 31.78125 66.40625 
Q 24.171875 66.40625 20.328125 58.90625 
Q 16.5 51.421875 16.5 36.375 
Q 16.5 21.390625 20.328125 13.890625 
Q 24.171875 6.390625 31.78125 6.390625 
Q 39.453125 6.390625 43.28125 13.890625 
Q 47.125 21.390625 47.125 36.375 
Q 47.125 51.421875 43.28125 58.90625 
Q 39.453125 66.40625 31.78125 66.40625 
z
M 31.78125 74.21875 
Q 44.046875 74.21875 50.515625 64.515625 
Q 56.984375 54.828125 56.984375 36.375 
Q 56.984375 17.96875 50.515625 8.265625 
Q 44.046875 -1.421875 31.78125 -1.421875 
Q 19.53125 -1.421875 13.0625 8.265625 
Q 6.59375 17.96875 6.59375 36.375 
Q 6.59375 54.828125 13.0625 64.515625 
Q 19.53125 74.21875 31.78125 74.21875 
z
" id="DejaVuSans-48"/>
       <path d="M 4.890625 31.390625 
L 31.203125 31.390625 
L 31.203125 23.390625 
L 4.890625 23.390625 
z
" id="DejaVuSans-45"/>
       <path d="M 40.578125 39.3125 
Q 47.65625 37.796875 51.625 33 
Q 55.609375 28.21875 55.609375 21.1875 
Q 55.609375 10.40625 48.1875 4.484375 
Q 40.765625 -1.421875 27.09375 -1.421875 
Q 22.515625 -1.421875 17.65625 -0.515625 
Q 12.796875 0.390625 7.625 2.203125 
L 7.625 11.71875 
Q 11.71875 9.328125 16.59375 8.109375 
Q 21.484375 6.890625 26.8125 6.890625 
Q 36.078125 6.890625 40.9375 10.546875 
Q 45.796875 14.203125 45.796875 21.1875 
Q 45.796875 27.640625 41.28125 31.265625 
Q 36.765625 34.90625 28.71875 34.90625 
L 20.21875 34.90625 
L 20.21875 43.015625 
L 29.109375 43.015625 
Q 36.375 43.015625 40.234375 45.921875 
Q 44.09375 48.828125 44.09375 54.296875 
Q 44.09375 59.90625 40.109375 62.90625 
Q 36.140625 65.921875 28.71875 65.921875 
Q 24.65625 65.921875 20.015625 65.03125 
Q 15.375 64.15625 9.8125 62.3125 
L 9.8125 71.09375 
Q 15.4375 72.65625 20.34375 73.4375 
Q 25.25 74.21875 29.59375 74.21875 
Q 40.828125 74.21875 47.359375 69.109375 
Q 53.90625 64.015625 53.90625 55.328125 
Q 53.90625 49.265625 50.4375 45.09375 
Q 46.96875 40.921875 40.578125 39.3125 
z
" id="DejaVuSans-51"/>
      </defs>
      <g transform="translate(57.375548 399.078438)scale(0.1 -0.1)">
       <use xlink:href="#DejaVuSans-50"/>
       <use x="63.623047" xlink:href="#DejaVuSans-48"/>
       <use x="127.246094" xlink:href="#DejaVuSans-50"/>
       <use x="190.869141" xlink:href="#DejaVuSans-48"/>
       <use x="254.492188" xlink:href="#DejaVuSans-45"/>
       <use x="290.576172" xlink:href="#DejaVuSans-48"/>
       <use x="354.199219" xlink:href="#DejaVuSans-51"/>
      </g>
     </g>
    </g>
    <g id="xtick_2">
     <g id="line2d_2">
      <g>
       <use style="stroke:#000000;stroke-width:0.8;" x="131.733281" xlink:href="#m484c7b1b6b" y="384.48"/>
      </g>
     </g>
     <g id="text_2">
      <!-- 2020-05 -->
      <defs>
       <path d="M 10.796875 72.90625 
L 49.515625 72.90625 
L 49.515625 64.59375 
L 19.828125 64.59375 
L 19.828125 46.734375 
Q 21.96875 47.46875 24.109375 47.828125 
Q 26.265625 48.1875 28.421875 48.1875 
Q 40.625 48.1875 47.75 41.5 
Q 54.890625 34.8125 54.890625 23.390625 
Q 54.890625 11.625 47.5625 5.09375 
Q 40.234375 -1.421875 26.90625 -1.421875 
Q 22.3125 -1.421875 17.546875 -0.640625 
Q 12.796875 0.140625 7.71875 1.703125 
L 7.71875 11.625 
Q 12.109375 9.234375 16.796875 8.0625 
Q 21.484375 6.890625 26.703125 6.890625 
Q 35.15625 6.890625 40.078125 11.328125 
Q 45.015625 15.765625 45.015625 23.390625 
Q 45.015625 31 40.078125 35.4375 
Q 35.15625 39.890625 26.703125 39.890625 
Q 22.75 39.890625 18.8125 39.015625 
Q 14.890625 38.140625 10.796875 36.28125 
z
" id="DejaVuSans-53"/>
      </defs>
      <g transform="translate(110.841875 399.078438)scale(0.1 -0.1)">
       <use xlink:href="#DejaVuSans-50"/>
       <use x="63.623047" xlink:href="#DejaVuSans-48"/>
       <use x="127.246094" xlink:href="#DejaVuSans-50"/>
       <use x="190.869141" xlink:href="#DejaVuSans-48"/>
       <use x="254.492188" xlink:href="#DejaVuSans-45"/>
       <use x="290.576172" xlink:href="#DejaVuSans-48"/>
       <use x="354.199219" xlink:href="#DejaVuSans-53"/>
      </g>
     </g>
    </g>
    <g id="xtick_3">
     <g id="line2d_3">
      <g>
       <use style="stroke:#000000;stroke-width:0.8;" x="185.199607" xlink:href="#m484c7b1b6b" y="384.48"/>
      </g>
     </g>
     <g id="text_3">
      <!-- 2020-07 -->
      <defs>
       <path d="M 8.203125 72.90625 
L 55.078125 72.90625 
L 55.078125 68.703125 
L 28.609375 0 
L 18.3125 0 
L 43.21875 64.59375 
L 8.203125 64.59375 
z
" id="DejaVuSans-55"/>
      </defs>
      <g transform="translate(164.308201 399.078438)scale(0.1 -0.1)">
       <use xlink:href="#DejaVuSans-50"/>
       <use x="63.623047" xlink:href="#DejaVuSans-48"/>
       <use x="127.246094" xlink:href="#DejaVuSans-50"/>
       <use x="190.869141" xlink:href="#DejaVuSans-48"/>
       <use x="254.492188" xlink:href="#DejaVuSans-45"/>
       <use x="290.576172" xlink:href="#DejaVuSans-48"/>
       <use x="354.199219" xlink:href="#DejaVuSans-55"/>
      </g>
     </g>
    </g>
    <g id="xtick_4">
     <g id="line2d_4">
      <g>
       <use style="stroke:#000000;stroke-width:0.8;" x="239.542431" xlink:href="#m484c7b1b6b" y="384.48"/>
      </g>
     </g>
     <g id="text_4">
      <!-- 2020-09 -->
      <defs>
       <path d="M 10.984375 1.515625 
L 10.984375 10.5 
Q 14.703125 8.734375 18.5 7.8125 
Q 22.3125 6.890625 25.984375 6.890625 
Q 35.75 6.890625 40.890625 13.453125 
Q 46.046875 20.015625 46.78125 33.40625 
Q 43.953125 29.203125 39.59375 26.953125 
Q 35.25 24.703125 29.984375 24.703125 
Q 19.046875 24.703125 12.671875 31.3125 
Q 6.296875 37.9375 6.296875 49.421875 
Q 6.296875 60.640625 12.9375 67.421875 
Q 19.578125 74.21875 30.609375 74.21875 
Q 43.265625 74.21875 49.921875 64.515625 
Q 56.59375 54.828125 56.59375 36.375 
Q 56.59375 19.140625 48.40625 8.859375 
Q 40.234375 -1.421875 26.421875 -1.421875 
Q 22.703125 -1.421875 18.890625 -0.6875 
Q 15.09375 0.046875 10.984375 1.515625 
z
M 30.609375 32.421875 
Q 37.25 32.421875 41.125 36.953125 
Q 45.015625 41.5 45.015625 49.421875 
Q 45.015625 57.28125 41.125 61.84375 
Q 37.25 66.40625 30.609375 66.40625 
Q 23.96875 66.40625 20.09375 61.84375 
Q 16.21875 57.28125 16.21875 49.421875 
Q 16.21875 41.5 20.09375 36.953125 
Q 23.96875 32.421875 30.609375 32.421875 
z
" id="DejaVuSans-57"/>
      </defs>
      <g transform="translate(218.651025 399.078438)scale(0.1 -0.1)">
       <use xlink:href="#DejaVuSans-50"/>
       <use x="63.623047" xlink:href="#DejaVuSans-48"/>
       <use x="127.246094" xlink:href="#DejaVuSans-50"/>
       <use x="190.869141" xlink:href="#DejaVuSans-48"/>
       <use x="254.492188" xlink:href="#DejaVuSans-45"/>
       <use x="290.576172" xlink:href="#DejaVuSans-48"/>
       <use x="354.199219" xlink:href="#DejaVuSans-57"/>
      </g>
     </g>
    </g>
    <g id="xtick_5">
     <g id="line2d_5">
      <g>
       <use style="stroke:#000000;stroke-width:0.8;" x="293.008757" xlink:href="#m484c7b1b6b" y="384.48"/>
      </g>
     </g>
     <g id="text_5">
      <!-- 2020-11 -->
      <defs>
       <path d="M 12.40625 8.296875 
L 28.515625 8.296875 
L 28.515625 63.921875 
L 10.984375 60.40625 
L 10.984375 69.390625 
L 28.421875 72.90625 
L 38.28125 72.90625 
L 38.28125 8.296875 
L 54.390625 8.296875 
L 54.390625 0 
L 12.40625 0 
z
" id="DejaVuSans-49"/>
      </defs>
      <g transform="translate(272.117351 399.078438)scale(0.1 -0.1)">
       <use xlink:href="#DejaVuSans-50"/>
       <use x="63.623047" xlink:href="#DejaVuSans-48"/>
       <use x="127.246094" xlink:href="#DejaVuSans-50"/>
       <use x="190.869141" xlink:href="#DejaVuSans-48"/>
       <use x="254.492188" xlink:href="#DejaVuSans-45"/>
       <use x="290.576172" xlink:href="#DejaVuSans-49"/>
       <use x="354.199219" xlink:href="#DejaVuSans-49"/>
      </g>
     </g>
    </g>
    <g id="xtick_6">
     <g id="line2d_6">
      <g>
       <use style="stroke:#000000;stroke-width:0.8;" x="346.475083" xlink:href="#m484c7b1b6b" y="384.48"/>
      </g>
     </g>
     <g id="text_6">
      <!-- 2021-01 -->
      <g transform="translate(325.583677 399.078438)scale(0.1 -0.1)">
       <use xlink:href="#DejaVuSans-50"/>
       <use x="63.623047" xlink:href="#DejaVuSans-48"/>
       <use x="127.246094" xlink:href="#DejaVuSans-50"/>
       <use x="190.869141" xlink:href="#DejaVuSans-49"/>
       <use x="254.492188" xlink:href="#DejaVuSans-45"/>
       <use x="290.576172" xlink:href="#DejaVuSans-48"/>
       <use x="354.199219" xlink:href="#DejaVuSans-49"/>
      </g>
     </g>
    </g>
    <g id="xtick_7">
     <g id="line2d_7">
      <g>
       <use style="stroke:#000000;stroke-width:0.8;" x="398.188415" xlink:href="#m484c7b1b6b" y="384.48"/>
      </g>
     </g>
     <g id="text_7">
      <!-- 2021-03 -->
      <g transform="translate(377.297009 399.078438)scale(0.1 -0.1)">
       <use xlink:href="#DejaVuSans-50"/>
       <use x="63.623047" xlink:href="#DejaVuSans-48"/>
       <use x="127.246094" xlink:href="#DejaVuSans-50"/>
       <use x="190.869141" xlink:href="#DejaVuSans-49"/>
       <use x="254.492188" xlink:href="#DejaVuSans-45"/>
       <use x="290.576172" xlink:href="#DejaVuSans-48"/>
       <use x="354.199219" xlink:href="#DejaVuSans-51"/>
      </g>
     </g>
    </g>
    <g id="xtick_8">
     <g id="line2d_8">
      <g>
       <use style="stroke:#000000;stroke-width:0.8;" x="451.654742" xlink:href="#m484c7b1b6b" y="384.48"/>
      </g>
     </g>
     <g id="text_8">
      <!-- 2021-05 -->
      <g transform="translate(430.763336 399.078438)scale(0.1 -0.1)">
       <use xlink:href="#DejaVuSans-50"/>
       <use x="63.623047" xlink:href="#DejaVuSans-48"/>
       <use x="127.246094" xlink:href="#DejaVuSans-50"/>
       <use x="190.869141" xlink:href="#DejaVuSans-49"/>
       <use x="254.492188" xlink:href="#DejaVuSans-45"/>
       <use x="290.576172" xlink:href="#DejaVuSans-48"/>
       <use x="354.199219" xlink:href="#DejaVuSans-53"/>
      </g>
     </g>
    </g>
    <g id="xtick_9">
     <g id="line2d_9">
      <g>
       <use style="stroke:#000000;stroke-width:0.8;" x="505.121068" xlink:href="#m484c7b1b6b" y="384.48"/>
      </g>
     </g>
     <g id="text_9">
      <!-- 2021-07 -->
      <g transform="translate(484.229662 399.078438)scale(0.1 -0.1)">
       <use xlink:href="#DejaVuSans-50"/>
       <use x="63.623047" xlink:href="#DejaVuSans-48"/>
       <use x="127.246094" xlink:href="#DejaVuSans-50"/>
       <use x="190.869141" xlink:href="#DejaVuSans-49"/>
       <use x="254.492188" xlink:href="#DejaVuSans-45"/>
       <use x="290.576172" xlink:href="#DejaVuSans-48"/>
       <use x="354.199219" xlink:href="#DejaVuSans-55"/>
      </g>
     </g>
    </g>
    <g id="text_10">
     <!-- Reported On -->
     <defs>
      <path d="M 44.390625 34.1875 
Q 47.5625 33.109375 50.5625 29.59375 
Q 53.5625 26.078125 56.59375 19.921875 
L 66.609375 0 
L 56 0 
L 46.6875 18.703125 
Q 43.0625 26.03125 39.671875 28.421875 
Q 36.28125 30.8125 30.421875 30.8125 
L 19.671875 30.8125 
L 19.671875 0 
L 9.8125 0 
L 9.8125 72.90625 
L 32.078125 72.90625 
Q 44.578125 72.90625 50.734375 67.671875 
Q 56.890625 62.453125 56.890625 51.90625 
Q 56.890625 45.015625 53.6875 40.46875 
Q 50.484375 35.9375 44.390625 34.1875 
z
M 19.671875 64.796875 
L 19.671875 38.921875 
L 32.078125 38.921875 
Q 39.203125 38.921875 42.84375 42.21875 
Q 46.484375 45.515625 46.484375 51.90625 
Q 46.484375 58.296875 42.84375 61.546875 
Q 39.203125 64.796875 32.078125 64.796875 
z
" id="DejaVuSans-82"/>
      <path d="M 56.203125 29.59375 
L 56.203125 25.203125 
L 14.890625 25.203125 
Q 15.484375 15.921875 20.484375 11.0625 
Q 25.484375 6.203125 34.421875 6.203125 
Q 39.59375 6.203125 44.453125 7.46875 
Q 49.3125 8.734375 54.109375 11.28125 
L 54.109375 2.78125 
Q 49.265625 0.734375 44.1875 -0.34375 
Q 39.109375 -1.421875 33.890625 -1.421875 
Q 20.796875 -1.421875 13.15625 6.1875 
Q 5.515625 13.8125 5.515625 26.8125 
Q 5.515625 40.234375 12.765625 48.109375 
Q 20.015625 56 32.328125 56 
Q 43.359375 56 49.78125 48.890625 
Q 56.203125 41.796875 56.203125 29.59375 
z
M 47.21875 32.234375 
Q 47.125 39.59375 43.09375 43.984375 
Q 39.0625 48.390625 32.421875 48.390625 
Q 24.90625 48.390625 20.390625 44.140625 
Q 15.875 39.890625 15.1875 32.171875 
z
" id="DejaVuSans-101"/>
      <path d="M 18.109375 8.203125 
L 18.109375 -20.796875 
L 9.078125 -20.796875 
L 9.078125 54.6875 
L 18.109375 54.6875 
L 18.109375 46.390625 
Q 20.953125 51.265625 25.265625 53.625 
Q 29.59375 56 35.59375 56 
Q 45.5625 56 51.78125 48.09375 
Q 58.015625 40.1875 58.015625 27.296875 
Q 58.015625 14.40625 51.78125 6.484375 
Q 45.5625 -1.421875 35.59375 -1.421875 
Q 29.59375 -1.421875 25.265625 0.953125 
Q 20.953125 3.328125 18.109375 8.203125 
z
M 48.6875 27.296875 
Q 48.6875 37.203125 44.609375 42.84375 
Q 40.53125 48.484375 33.40625 48.484375 
Q 26.265625 48.484375 22.1875 42.84375 
Q 18.109375 37.203125 18.109375 27.296875 
Q 18.109375 17.390625 22.1875 11.75 
Q 26.265625 6.109375 33.40625 6.109375 
Q 40.53125 6.109375 44.609375 11.75 
Q 48.6875 17.390625 48.6875 27.296875 
z
" id="DejaVuSans-112"/>
      <path d="M 30.609375 48.390625 
Q 23.390625 48.390625 19.1875 42.75 
Q 14.984375 37.109375 14.984375 27.296875 
Q 14.984375 17.484375 19.15625 11.84375 
Q 23.34375 6.203125 30.609375 6.203125 
Q 37.796875 6.203125 41.984375 11.859375 
Q 46.1875 17.53125 46.1875 27.296875 
Q 46.1875 37.015625 41.984375 42.703125 
Q 37.796875 48.390625 30.609375 48.390625 
z
M 30.609375 56 
Q 42.328125 56 49.015625 48.375 
Q 55.71875 40.765625 55.71875 27.296875 
Q 55.71875 13.875 49.015625 6.21875 
Q 42.328125 -1.421875 30.609375 -1.421875 
Q 18.84375 -1.421875 12.171875 6.21875 
Q 5.515625 13.875 5.515625 27.296875 
Q 5.515625 40.765625 12.171875 48.375 
Q 18.84375 56 30.609375 56 
z
" id="DejaVuSans-111"/>
      <path d="M 41.109375 46.296875 
Q 39.59375 47.171875 37.8125 47.578125 
Q 36.03125 48 33.890625 48 
Q 26.265625 48 22.1875 43.046875 
Q 18.109375 38.09375 18.109375 28.8125 
L 18.109375 0 
L 9.078125 0 
L 9.078125 54.6875 
L 18.109375 54.6875 
L 18.109375 46.1875 
Q 20.953125 51.171875 25.484375 53.578125 
Q 30.03125 56 36.53125 56 
Q 37.453125 56 38.578125 55.875 
Q 39.703125 55.765625 41.0625 55.515625 
z
" id="DejaVuSans-114"/>
      <path d="M 18.3125 70.21875 
L 18.3125 54.6875 
L 36.8125 54.6875 
L 36.8125 47.703125 
L 18.3125 47.703125 
L 18.3125 18.015625 
Q 18.3125 11.328125 20.140625 9.421875 
Q 21.96875 7.515625 27.59375 7.515625 
L 36.8125 7.515625 
L 36.8125 0 
L 27.59375 0 
Q 17.1875 0 13.234375 3.875 
Q 9.28125 7.765625 9.28125 18.015625 
L 9.28125 47.703125 
L 2.6875 47.703125 
L 2.6875 54.6875 
L 9.28125 54.6875 
L 9.28125 70.21875 
z
" id="DejaVuSans-116"/>
      <path d="M 45.40625 46.390625 
L 45.40625 75.984375 
L 54.390625 75.984375 
L 54.390625 0 
L 45.40625 0 
L 45.40625 8.203125 
Q 42.578125 3.328125 38.25 0.953125 
Q 33.9375 -1.421875 27.875 -1.421875 
Q 17.96875 -1.421875 11.734375 6.484375 
Q 5.515625 14.40625 5.515625 27.296875 
Q 5.515625 40.1875 11.734375 48.09375 
Q 17.96875 56 27.875 56 
Q 33.9375 56 38.25 53.625 
Q 42.578125 51.265625 45.40625 46.390625 
z
M 14.796875 27.296875 
Q 14.796875 17.390625 18.875 11.75 
Q 22.953125 6.109375 30.078125 6.109375 
Q 37.203125 6.109375 41.296875 11.75 
Q 45.40625 17.390625 45.40625 27.296875 
Q 45.40625 37.203125 41.296875 42.84375 
Q 37.203125 48.484375 30.078125 48.484375 
Q 22.953125 48.484375 18.875 42.84375 
Q 14.796875 37.203125 14.796875 27.296875 
z
" id="DejaVuSans-100"/>
      <path id="DejaVuSans-32"/>
      <path d="M 39.40625 66.21875 
Q 28.65625 66.21875 22.328125 58.203125 
Q 16.015625 50.203125 16.015625 36.375 
Q 16.015625 22.609375 22.328125 14.59375 
Q 28.65625 6.59375 39.40625 6.59375 
Q 50.140625 6.59375 56.421875 14.59375 
Q 62.703125 22.609375 62.703125 36.375 
Q 62.703125 50.203125 56.421875 58.203125 
Q 50.140625 66.21875 39.40625 66.21875 
z
M 39.40625 74.21875 
Q 54.734375 74.21875 63.90625 63.9375 
Q 73.09375 53.65625 73.09375 36.375 
Q 73.09375 19.140625 63.90625 8.859375 
Q 54.734375 -1.421875 39.40625 -1.421875 
Q 24.03125 -1.421875 14.8125 8.828125 
Q 5.609375 19.09375 5.609375 36.375 
Q 5.609375 53.65625 14.8125 63.9375 
Q 24.03125 74.21875 39.40625 74.21875 
z
" id="DejaVuSans-79"/>
      <path d="M 54.890625 33.015625 
L 54.890625 0 
L 45.90625 0 
L 45.90625 32.71875 
Q 45.90625 40.484375 42.875 44.328125 
Q 39.84375 48.1875 33.796875 48.1875 
Q 26.515625 48.1875 22.3125 43.546875 
Q 18.109375 38.921875 18.109375 30.90625 
L 18.109375 0 
L 9.078125 0 
L 9.078125 54.6875 
L 18.109375 54.6875 
L 18.109375 46.1875 
Q 21.34375 51.125 25.703125 53.5625 
Q 30.078125 56 35.796875 56 
Q 45.21875 56 50.046875 50.171875 
Q 54.890625 44.34375 54.890625 33.015625 
z
" id="DejaVuSans-110"/>
     </defs>
     <g transform="translate(263.680469 412.756563)scale(0.1 -0.1)">
      <use xlink:href="#DejaVuSans-82"/>
      <use x="64.982422" xlink:href="#DejaVuSans-101"/>
      <use x="126.505859" xlink:href="#DejaVuSans-112"/>
      <use x="189.982422" xlink:href="#DejaVuSans-111"/>
      <use x="251.164062" xlink:href="#DejaVuSans-114"/>
      <use x="292.277344" xlink:href="#DejaVuSans-116"/>
      <use x="331.486328" xlink:href="#DejaVuSans-101"/>
      <use x="393.009766" xlink:href="#DejaVuSans-100"/>
      <use x="456.486328" xlink:href="#DejaVuSans-32"/>
      <use x="488.273438" xlink:href="#DejaVuSans-79"/>
      <use x="566.984375" xlink:href="#DejaVuSans-110"/>
     </g>
    </g>
   </g>
   <g id="matplotlib.axis_2">
    <g id="ytick_1">
     <g id="line2d_10">
      <defs>
       <path d="M 0 0 
L -3.5 0 
" id="m65369732d4" style="stroke:#000000;stroke-width:0.8;"/>
      </defs>
      <g>
       <use style="stroke:#000000;stroke-width:0.8;" x="72" xlink:href="#m65369732d4" y="369.36"/>
      </g>
     </g>
     <g id="text_11">
      <!-- 0.00 % -->
      <defs>
       <path d="M 10.6875 12.40625 
L 21 12.40625 
L 21 0 
L 10.6875 0 
z
" id="DejaVuSans-46"/>
       <path d="M 72.703125 32.078125 
Q 68.453125 32.078125 66.03125 28.46875 
Q 63.625 24.859375 63.625 18.40625 
Q 63.625 12.0625 66.03125 8.421875 
Q 68.453125 4.78125 72.703125 4.78125 
Q 76.859375 4.78125 79.265625 8.421875 
Q 81.6875 12.0625 81.6875 18.40625 
Q 81.6875 24.8125 79.265625 28.4375 
Q 76.859375 32.078125 72.703125 32.078125 
z
M 72.703125 38.28125 
Q 80.421875 38.28125 84.953125 32.90625 
Q 89.5 27.546875 89.5 18.40625 
Q 89.5 9.28125 84.9375 3.921875 
Q 80.375 -1.421875 72.703125 -1.421875 
Q 64.890625 -1.421875 60.34375 3.921875 
Q 55.8125 9.28125 55.8125 18.40625 
Q 55.8125 27.59375 60.375 32.9375 
Q 64.9375 38.28125 72.703125 38.28125 
z
M 22.3125 68.015625 
Q 18.109375 68.015625 15.6875 64.375 
Q 13.28125 60.75 13.28125 54.390625 
Q 13.28125 47.953125 15.671875 44.328125 
Q 18.0625 40.71875 22.3125 40.71875 
Q 26.5625 40.71875 28.96875 44.328125 
Q 31.390625 47.953125 31.390625 54.390625 
Q 31.390625 60.6875 28.953125 64.34375 
Q 26.515625 68.015625 22.3125 68.015625 
z
M 66.40625 74.21875 
L 74.21875 74.21875 
L 28.609375 -1.421875 
L 20.796875 -1.421875 
z
M 22.3125 74.21875 
Q 30.03125 74.21875 34.609375 68.875 
Q 39.203125 63.53125 39.203125 54.390625 
Q 39.203125 45.171875 34.640625 39.84375 
Q 30.078125 34.515625 22.3125 34.515625 
Q 14.546875 34.515625 10.03125 39.859375 
Q 5.515625 45.21875 5.515625 54.390625 
Q 5.515625 63.484375 10.046875 68.84375 
Q 14.59375 74.21875 22.3125 74.21875 
z
" id="DejaVuSans-37"/>
      </defs>
      <g transform="translate(30.054688 373.159219)scale(0.1 -0.1)">
       <use xlink:href="#DejaVuSans-48"/>
       <use x="63.623047" xlink:href="#DejaVuSans-46"/>
       <use x="95.410156" xlink:href="#DejaVuSans-48"/>
       <use x="159.033203" xlink:href="#DejaVuSans-48"/>
       <use x="222.65625" xlink:href="#DejaVuSans-32"/>
       <use x="254.443359" xlink:href="#DejaVuSans-37"/>
      </g>
     </g>
    </g>
    <g id="ytick_2">
     <g id="line2d_11">
      <g>
       <use style="stroke:#000000;stroke-width:0.8;" x="72" xlink:href="#m65369732d4" y="323.394272"/>
      </g>
     </g>
     <g id="text_12">
      <!-- 5.00 % -->
      <g transform="translate(30.054688 327.193491)scale(0.1 -0.1)">
       <use xlink:href="#DejaVuSans-53"/>
       <use x="63.623047" xlink:href="#DejaVuSans-46"/>
       <use x="95.410156" xlink:href="#DejaVuSans-48"/>
       <use x="159.033203" xlink:href="#DejaVuSans-48"/>
       <use x="222.65625" xlink:href="#DejaVuSans-32"/>
       <use x="254.443359" xlink:href="#DejaVuSans-37"/>
      </g>
     </g>
    </g>
    <g id="ytick_3">
     <g id="line2d_12">
      <g>
       <use style="stroke:#000000;stroke-width:0.8;" x="72" xlink:href="#m65369732d4" y="277.428544"/>
      </g>
     </g>
     <g id="text_13">
      <!-- 10.00 % -->
      <g transform="translate(23.692187 281.227763)scale(0.1 -0.1)">
       <use xlink:href="#DejaVuSans-49"/>
       <use x="63.623047" xlink:href="#DejaVuSans-48"/>
       <use x="127.246094" xlink:href="#DejaVuSans-46"/>
       <use x="159.033203" xlink:href="#DejaVuSans-48"/>
       <use x="222.65625" xlink:href="#DejaVuSans-48"/>
       <use x="286.279297" xlink:href="#DejaVuSans-32"/>
       <use x="318.066406" xlink:href="#DejaVuSans-37"/>
      </g>
     </g>
    </g>
    <g id="ytick_4">
     <g id="line2d_13">
      <g>
       <use style="stroke:#000000;stroke-width:0.8;" x="72" xlink:href="#m65369732d4" y="231.462816"/>
      </g>
     </g>
     <g id="text_14">
      <!-- 15.00 % -->
      <g transform="translate(23.692187 235.262035)scale(0.1 -0.1)">
       <use xlink:href="#DejaVuSans-49"/>
       <use x="63.623047" xlink:href="#DejaVuSans-53"/>
       <use x="127.246094" xlink:href="#DejaVuSans-46"/>
       <use x="159.033203" xlink:href="#DejaVuSans-48"/>
       <use x="222.65625" xlink:href="#DejaVuSans-48"/>
       <use x="286.279297" xlink:href="#DejaVuSans-32"/>
       <use x="318.066406" xlink:href="#DejaVuSans-37"/>
      </g>
     </g>
    </g>
    <g id="ytick_5">
     <g id="line2d_14">
      <g>
       <use style="stroke:#000000;stroke-width:0.8;" x="72" xlink:href="#m65369732d4" y="185.497088"/>
      </g>
     </g>
     <g id="text_15">
      <!-- 20.00 % -->
      <g transform="translate(23.692187 189.296307)scale(0.1 -0.1)">
       <use xlink:href="#DejaVuSans-50"/>
       <use x="63.623047" xlink:href="#DejaVuSans-48"/>
       <use x="127.246094" xlink:href="#DejaVuSans-46"/>
       <use x="159.033203" xlink:href="#DejaVuSans-48"/>
       <use x="222.65625" xlink:href="#DejaVuSans-48"/>
       <use x="286.279297" xlink:href="#DejaVuSans-32"/>
       <use x="318.066406" xlink:href="#DejaVuSans-37"/>
      </g>
     </g>
    </g>
    <g id="ytick_6">
     <g id="line2d_15">
      <g>
       <use style="stroke:#000000;stroke-width:0.8;" x="72" xlink:href="#m65369732d4" y="139.53136"/>
      </g>
     </g>
     <g id="text_16">
      <!-- 25.00 % -->
      <g transform="translate(23.692187 143.330579)scale(0.1 -0.1)">
       <use xlink:href="#DejaVuSans-50"/>
       <use x="63.623047" xlink:href="#DejaVuSans-53"/>
       <use x="127.246094" xlink:href="#DejaVuSans-46"/>
       <use x="159.033203" xlink:href="#DejaVuSans-48"/>
       <use x="222.65625" xlink:href="#DejaVuSans-48"/>
       <use x="286.279297" xlink:href="#DejaVuSans-32"/>
       <use x="318.066406" xlink:href="#DejaVuSans-37"/>
      </g>
     </g>
    </g>
    <g id="ytick_7">
     <g id="line2d_16">
      <g>
       <use style="stroke:#000000;stroke-width:0.8;" x="72" xlink:href="#m65369732d4" y="93.565632"/>
      </g>
     </g>
     <g id="text_17">
      <!-- 30.00 % -->
      <g transform="translate(23.692187 97.364851)scale(0.1 -0.1)">
       <use xlink:href="#DejaVuSans-51"/>
       <use x="63.623047" xlink:href="#DejaVuSans-48"/>
       <use x="127.246094" xlink:href="#DejaVuSans-46"/>
       <use x="159.033203" xlink:href="#DejaVuSans-48"/>
       <use x="222.65625" xlink:href="#DejaVuSans-48"/>
       <use x="286.279297" xlink:href="#DejaVuSans-32"/>
       <use x="318.066406" xlink:href="#DejaVuSans-37"/>
      </g>
     </g>
    </g>
    <g id="text_18">
     <!-- Rate -->
     <defs>
      <path d="M 34.28125 27.484375 
Q 23.390625 27.484375 19.1875 25 
Q 14.984375 22.515625 14.984375 16.5 
Q 14.984375 11.71875 18.140625 8.90625 
Q 21.296875 6.109375 26.703125 6.109375 
Q 34.1875 6.109375 38.703125 11.40625 
Q 43.21875 16.703125 43.21875 25.484375 
L 43.21875 27.484375 
z
M 52.203125 31.203125 
L 52.203125 0 
L 43.21875 0 
L 43.21875 8.296875 
Q 40.140625 3.328125 35.546875 0.953125 
Q 30.953125 -1.421875 24.3125 -1.421875 
Q 15.921875 -1.421875 10.953125 3.296875 
Q 6 8.015625 6 15.921875 
Q 6 25.140625 12.171875 29.828125 
Q 18.359375 34.515625 30.609375 34.515625 
L 43.21875 34.515625 
L 43.21875 35.40625 
Q 43.21875 41.609375 39.140625 45 
Q 35.0625 48.390625 27.6875 48.390625 
Q 23 48.390625 18.546875 47.265625 
Q 14.109375 46.140625 10.015625 43.890625 
L 10.015625 52.203125 
Q 14.9375 54.109375 19.578125 55.046875 
Q 24.21875 56 28.609375 56 
Q 40.484375 56 46.34375 49.84375 
Q 52.203125 43.703125 52.203125 31.203125 
z
" id="DejaVuSans-97"/>
     </defs>
     <g transform="translate(17.6125 229.6225)rotate(-90)scale(0.1 -0.1)">
      <use xlink:href="#DejaVuSans-82"/>
      <use x="67.232422" xlink:href="#DejaVuSans-97"/>
      <use x="128.511719" xlink:href="#DejaVuSans-116"/>
      <use x="167.720703" xlink:href="#DejaVuSans-101"/>
     </g>
    </g>
   </g>
   <g id="line2d_17">
    <path clip-path="url(#p121c90d720)" d="M 498.109091 345.792551 
L 497.232594 347.67784 
L 496.356097 339.898611 
L 495.479599 342.218059 
L 494.603102 341.799111 
L 493.726605 338.575051 
L 492.850108 339.439467 
L 491.097114 342.417818 
L 490.220617 350.197046 
L 489.344119 351.565543 
L 488.467622 350.432702 
L 487.591125 353.656762 
L 486.714628 353.753752 
L 485.838131 351.774842 
L 484.961634 354.295263 
L 484.085136 350.021508 
L 483.208639 350.402313 
L 482.332142 353.316735 
L 481.455645 353.316735 
L 480.579148 354.411906 
L 479.702651 357.28089 
L 478.826154 355.714227 
L 477.949656 358.33643 
L 476.196662 359.360699 
L 475.320165 358.004623 
L 474.443668 358.059227 
L 472.690673 358.509406 
L 471.814176 358.644923 
L 470.937679 359.274914 
L 470.061182 359.411149 
L 469.184685 359.298372 
L 467.431691 359.712744 
L 466.555193 359.422519 
L 465.678696 359.482848 
L 463.925702 358.612834 
L 462.172708 356.768531 
L 461.29621 352.999102 
L 460.419713 354.642846 
L 458.666719 350.510459 
L 457.790222 345.186838 
L 456.913725 347.564089 
L 456.037228 345.335919 
L 455.16073 341.58259 
L 454.284233 336.925029 
L 453.407736 336.019424 
L 451.654742 342.907124 
L 450.778245 337.345275 
L 449.901747 330.148405 
L 449.02525 332.399183 
L 448.148753 337.056744 
L 447.272256 335.382485 
L 446.395759 328.066314 
L 445.519262 326.499717 
L 444.642765 317.40259 
L 443.766267 321.675704 
L 442.88977 328.377908 
L 442.013273 323.02115 
L 441.136776 319.905789 
L 440.260279 314.010056 
L 439.383782 311.735907 
L 438.507285 326.394883 
L 437.630787 327.461195 
L 436.75429 314.501446 
L 435.877793 313.531636 
L 435.001296 322.843814 
L 434.124799 326.337809 
L 433.248302 318.076783 
L 432.371804 318.076783 
L 431.495307 313.827471 
L 430.61881 326.787221 
L 429.742313 327.126602 
L 428.865816 321.130325 
L 427.989319 322.777485 
L 427.112822 322.01628 
L 426.236324 322.01628 
L 425.359827 325.52395 
L 424.48333 316.132283 
L 423.606833 315.611535 
L 422.730336 316.402608 
L 421.853839 319.357543 
L 420.977341 325.863673 
L 420.100844 325.863673 
L 419.224347 329.037554 
L 418.34785 333.838778 
L 417.471353 335.650525 
L 415.718359 337.954813 
L 414.841861 343.964773 
L 413.965364 339.650728 
L 413.088867 337.836609 
L 412.21237 335.698215 
L 411.335873 340.394402 
L 410.459376 340.210294 
L 409.582878 342.823391 
L 408.706381 342.485314 
L 407.829884 344.044789 
L 406.953387 349.633996 
L 406.07689 353.11577 
L 405.200393 351.223613 
L 404.323896 354.008267 
L 403.447398 353.29963 
L 402.570901 355.604279 
L 401.694404 356.493391 
L 400.817907 355.212488 
L 399.94141 357.060418 
L 399.064913 356.777864 
L 398.188415 356.636939 
L 397.311918 357.300288 
L 395.558924 355.858546 
L 394.682427 355.682626 
L 393.80593 354.061333 
L 392.929433 353.629031 
L 392.052935 353.650105 
L 391.176438 353.298837 
L 390.299941 354.233298 
L 389.423444 353.567322 
L 388.546947 352.695526 
L 386.793952 353.985481 
L 385.917455 352.195453 
L 385.040958 351.057319 
L 384.164461 349.62636 
L 383.287964 350.680972 
L 382.411467 349.251597 
L 380.658472 348.802803 
L 379.781975 350.184698 
L 378.905478 351.832285 
L 378.028981 352.480052 
L 377.152484 351.945802 
L 376.275987 353.601658 
L 375.399489 354.826219 
L 374.522992 355.043238 
L 373.646495 356.095183 
L 372.769998 356.356885 
L 371.017004 359.092731 
L 369.264009 360.697697 
L 368.387512 361.319323 
L 367.511015 359.480859 
L 366.634518 359.658092 
L 365.758021 360.166444 
L 364.881524 361.03077 
L 364.005027 360.752057 
L 363.128529 360.35241 
L 362.252032 360.794743 
L 361.375535 362.335296 
L 359.622541 361.511706 
L 358.746044 360.000981 
L 357.869546 360.619601 
L 356.993049 353.223806 
L 356.116552 354.114791 
L 355.240055 355.282182 
L 354.363558 354.323374 
L 353.487061 353.142627 
L 352.610564 352.884928 
L 351.734066 351.755972 
L 350.857569 359.673685 
L 348.228078 353.187496 
L 347.351581 353.696364 
L 346.475083 351.247953 
L 345.598586 352.742707 
L 344.722089 352.546992 
L 343.845592 353.987605 
L 342.969095 348.966179 
L 342.092598 351.575488 
L 341.216101 349.134815 
L 340.339603 352.687369 
L 339.463106 351.875583 
L 338.586609 350.074136 
L 337.710112 350.099968 
L 336.833615 357.194858 
L 335.957118 358.184986 
L 335.08062 361.764891 
L 334.204123 362.717874 
L 332.451129 365.75377 
L 331.574632 365.733854 
L 330.698135 365.139594 
L 329.821638 365.709664 
L 328.94514 360.681242 
L 328.068643 359.738809 
L 327.192146 358.156819 
L 326.315649 357.266288 
L 325.439152 356.872262 
L 324.562655 355.818392 
L 323.686157 354.316466 
L 322.80966 358.899492 
L 321.933163 355.903654 
L 321.056666 353.772894 
L 320.180169 350.972898 
L 319.303672 349.680155 
L 318.427175 346.297995 
L 317.550677 341.540256 
L 316.67418 335.971265 
L 315.797683 333.408948 
L 314.921186 331.933954 
L 314.044689 324.245363 
L 313.168192 312.972748 
L 312.291694 311.940426 
L 310.5387 323.256153 
L 309.662203 326.166845 
L 308.785706 330.23072 
L 307.909209 340.70296 
L 307.032712 346.393315 
L 306.156214 347.695486 
L 305.279717 346.447545 
L 304.40322 345.538273 
L 303.526723 349.273045 
L 301.773729 350.988798 
L 300.897231 358.61854 
L 300.020734 362.773796 
L 299.144237 364.556937 
L 298.26774 365.249744 
L 297.391243 365.249744 
L 296.514746 363.320745 
L 295.638249 364.432154 
L 294.761751 364.804723 
L 293.885254 365.553048 
L 293.008757 365.54198 
L 292.13226 366.287798 
L 291.255763 362.343638 
L 290.379266 364.641026 
L 289.502769 364.641026 
L 286.873277 363.416422 
L 285.99678 362.172943 
L 285.120283 366.117103 
L 283.367288 366.117103 
L 281.614294 366.920351 
L 280.737797 366.90515 
L 279.8613 367.291758 
L 275.478814 367.291758 
L 274.602317 367.697564 
L 273.72582 368.523496 
L 269.343334 368.523496 
L 267.59034 369.36 
L 263.207854 369.36 
L 262.331357 368.939742 
L 261.45486 368.939742 
L 260.578362 368.518134 
L 257.072374 368.518134 
L 256.195877 368.938392 
L 255.31938 368.938392 
L 254.442882 369.36 
L 253.566385 369.36 
L 252.689888 368.937035 
L 247.430905 368.937035 
L 246.554408 367.654383 
L 245.677911 367.654383 
L 244.801414 366.793195 
L 243.924917 365.490732 
L 241.295425 365.490732 
L 240.418928 367.196349 
L 239.542431 366.759308 
L 238.665934 366.742027 
L 237.789436 368.04449 
L 234.283448 368.04449 
L 233.406951 368.481531 
L 232.530454 369.36 
L 229.900962 369.36 
L 229.024465 368.918552 
L 228.147968 368.918552 
L 227.271471 367.13777 
L 223.765482 367.13777 
L 222.888985 367.579218 
L 222.012488 367.579218 
L 221.135991 369.36 
L 218.506499 369.36 
L 217.630002 368.460471 
L 215.000511 368.460471 
L 214.124013 367.554739 
L 213.247516 367.09952 
L 212.371019 367.09952 
L 211.494522 367.999048 
L 210.618025 367.999048 
L 209.741528 367.542246 
L 208.86503 367.542246 
L 207.988533 368.447978 
L 207.112036 368.903197 
L 205.359042 368.903197 
L 204.482545 356.934022 
L 202.72955 356.888604 
L 201.853053 347.503852 
L 200.976556 340.283012 
L 200.100059 340.283012 
L 199.223562 338.558734 
L 198.347065 350.527909 
L 197.470567 351.03013 
L 196.59407 351.03013 
L 195.717573 359.252656 
L 194.841076 363.522121 
L 193.964579 363.522121 
L 193.088082 365.246399 
L 190.45859 365.246399 
L 189.582093 366.408625 
L 188.705596 369.36 
L 187.829099 368.761682 
L 186.076104 368.761682 
L 185.199607 366.950196 
L 184.32311 366.340772 
L 183.446613 366.340772 
L 182.570116 365.113373 
L 181.693619 361.323147 
L 180.817122 360.041862 
L 179.940624 360.041862 
L 179.064127 359.907673 
L 178.18763 357.877197 
L 177.311133 357.877197 
L 176.434636 359.104595 
L 175.558139 363.493139 
L 174.681641 364.774424 
L 172.928647 364.704755 
L 172.05215 367.344656 
L 171.175653 367.344656 
L 170.299156 366.665943 
L 169.422659 366.665943 
L 168.546161 365.297903 
L 167.669664 361.814128 
L 166.793167 363.121488 
L 165.040173 363.121488 
L 164.163676 359.470226 
L 163.287178 359.470226 
L 162.410681 360.838266 
L 160.657687 340.054412 
L 159.78119 333.691129 
L 158.904693 333.691129 
L 158.028196 338.021103 
L 156.275201 338.021103 
L 155.398704 351.004973 
L 154.522207 362.061975 
L 153.64571 368.425258 
L 152.769213 368.425258 
L 151.892715 364.618306 
L 151.016218 363.649072 
L 150.139721 321.582906 
L 149.263224 322.517647 
L 148.386727 211.241467 
L 146.633733 211.241467 
L 145.757235 215.04842 
L 144.880738 216.017654 
L 144.004241 258.08382 
L 143.127744 254.919073 
L 142.251247 366.195253 
L 141.37475 366.195253 
L 139.621755 359.627352 
L 138.745258 359.627352 
L 137.868761 356.215974 
L 136.992264 359.380721 
L 135.23927 359.380721 
L 133.486275 365.948622 
L 132.609778 362.446264 
L 131.733281 365.857642 
L 129.10379 354.752665 
L 127.350795 346.790794 
L 126.474298 346.123575 
L 125.597801 346.123575 
L 124.721304 349.7219 
L 123.844807 349.115291 
L 122.968309 352.922243 
L 122.091812 282.249138 
L 121.215315 278.328529 
L 120.338818 282.498107 
L 118.585824 282.498107 
L 117.709327 286.804415 
L 116.832829 278.328529 
L 115.956332 352.922243 
L 115.079835 351.823235 
L 111.573846 351.823235 
L 110.697349 340.054412 
L 109.820852 340.054412 
L 108.944355 349.115291 
L 108.067858 349.115291 
L 107.191361 337.68803 
L 106.314864 337.68803 
L 105.438366 325.170882 
L 104.561869 345.415591 
L 101.932378 345.415591 
L 101.055881 289.75579 
L 100.179383 289.75579 
L 99.302886 302.272938 
L 98.426389 278.328529 
L 97.549892 66.96 
L 95.796898 66.96 
L 94.920401 134.047062 
L 93.167406 134.047062 
L 92.290909 157.991471 
L 92.290909 157.991471 
" style="fill:none;stroke:#1f77b4;stroke-linecap:square;stroke-width:1.5;"/>
   </g>
   <g id="line2d_18">
    <path clip-path="url(#p121c90d720)" d="M 498.109091 353.931894 
L 497.232594 357.168764 
L 496.356097 353.4809 
L 495.479599 355.858453 
L 494.603102 356.045583 
L 493.726605 355.588788 
L 492.850108 355.561936 
L 491.973611 360.025587 
L 491.097114 360.236567 
L 490.220617 363.924431 
L 489.344119 361.845344 
L 488.467622 362.54633 
L 487.591125 361.070286 
L 486.714628 362.67697 
L 485.838131 360.217801 
L 484.961634 361.279258 
L 484.085136 358.670193 
L 483.208639 359.141058 
L 482.332142 358.442995 
L 481.455645 360.375833 
L 480.579148 358.846488 
L 479.702651 362.080791 
L 478.826154 360.361647 
L 477.949656 361.084635 
L 476.196662 361.169259 
L 475.320165 359.787433 
L 474.443668 359.273129 
L 473.567171 357.263362 
L 471.814176 355.832559 
L 470.937679 351.808786 
L 470.061182 352.869327 
L 469.184685 349.985969 
L 468.308188 347.868179 
L 467.431691 346.43585 
L 465.678696 340.258684 
L 464.802199 339.813365 
L 463.925702 328.682643 
L 463.049205 332.947827 
L 462.172708 330.594926 
L 461.29621 320.204095 
L 460.419713 325.773721 
L 459.543216 324.54092 
L 458.666719 322.919148 
L 457.790222 320.577426 
L 456.913725 320.577426 
L 456.037228 320.322293 
L 455.16073 323.133026 
L 454.284233 319.515077 
L 453.407736 320.825168 
L 452.531239 328.613093 
L 451.654742 330.663015 
L 450.778245 324.929348 
L 449.901747 322.733339 
L 449.02525 329.831221 
L 448.148753 333.449171 
L 447.272256 334.143735 
L 446.395759 329.370574 
L 445.519262 335.219476 
L 444.642765 331.403242 
L 442.88977 339.576281 
L 442.013273 334.735151 
L 441.136776 334.833046 
L 440.260279 329.561545 
L 439.383782 331.094789 
L 438.507285 340.64469 
L 437.630787 340.233299 
L 436.75429 312.733708 
L 435.877793 299.210311 
L 435.001296 303.984125 
L 434.124799 305.893351 
L 433.248302 303.598034 
L 432.371804 303.598034 
L 431.495307 301.158648 
L 430.61881 328.658239 
L 429.742313 343.078607 
L 428.865816 340.789855 
L 427.989319 345.513199 
L 427.112822 338.018333 
L 426.236324 338.018333 
L 425.359827 343.063338 
L 424.48333 339.665284 
L 423.606833 340.420932 
L 422.730336 336.265434 
L 421.853839 334.255176 
L 420.977341 338.550267 
L 420.100844 338.550267 
L 419.224347 338.702525 
L 418.34785 339.109231 
L 417.471353 338.943381 
L 416.594856 343.358665 
L 415.718359 341.061199 
L 414.841861 350.693031 
L 413.965364 350.693031 
L 413.088867 353.265508 
L 412.21237 351.19088 
L 411.335873 354.545242 
L 410.459376 355.063015 
L 409.582878 348.549356 
L 408.706381 348.549356 
L 407.829884 346.46851 
L 406.953387 346.46851 
L 406.07689 350.07434 
L 405.200393 347.048788 
L 404.323896 346.879822 
L 403.447398 359.354251 
L 402.570901 352.554716 
L 401.694404 354.635562 
L 399.94141 350.817224 
L 399.064913 352.140843 
L 397.311918 346.587128 
L 396.435421 347.338615 
L 394.682427 347.404018 
L 393.80593 349.448882 
L 392.929433 349.316046 
L 392.052935 352.374712 
L 391.176438 353.33829 
L 390.299941 357.141315 
L 389.423444 354.857246 
L 388.546947 355.755371 
L 387.67045 355.214856 
L 386.793952 351.071471 
L 385.917455 352.333919 
L 385.040958 351.460883 
L 384.164461 349.7773 
L 383.287964 352.061369 
L 382.411467 351.364838 
L 381.53497 350.166265 
L 380.658472 355.579555 
L 379.781975 352.331941 
L 378.905478 356.913205 
L 378.028981 358.401557 
L 377.152484 357.213932 
L 376.275987 357.145574 
L 375.399489 354.032314 
L 374.522992 353.749881 
L 373.646495 354.313898 
L 372.769998 349.678218 
L 371.893501 349.852139 
L 370.140507 346.759293 
L 369.264009 346.592698 
L 368.387512 345.797552 
L 367.511015 343.558911 
L 366.634518 344.445858 
L 365.758021 343.967457 
L 364.881524 341.361195 
L 364.005027 344.671234 
L 363.128529 350.923337 
L 362.252032 352.565781 
L 361.375535 357.488019 
L 360.499038 359.344976 
L 359.622541 362.089708 
L 358.746044 367.468224 
L 357.869546 367.468224 
L 356.993049 365.697447 
L 355.240055 365.697447 
L 354.363558 366.694799 
L 353.487061 365.341638 
L 352.610564 363.208611 
L 351.734066 360.414236 
L 350.857569 361.08205 
L 349.981072 360.129224 
L 349.104575 346.892892 
L 348.228078 341.652626 
L 347.351581 343.005787 
L 346.475083 345.138814 
L 345.598586 322.091066 
L 344.722089 323.19403 
L 343.845592 314.102464 
L 342.969095 327.338796 
L 342.092598 325.46609 
L 340.339603 325.46609 
L 339.463106 341.674764 
L 338.586609 314.298517 
L 337.710112 324.342909 
L 336.833615 324.342909 
L 335.957118 332.350305 
L 334.204123 332.350305 
L 333.327626 341.983753 
L 332.451129 369.36 
L 328.94514 369.36 
L 328.068643 363.770618 
L 327.192146 362.6956 
L 326.315649 362.6956 
L 325.439152 360.152465 
L 324.562655 360.152465 
L 323.686157 358.676824 
L 322.80966 358.676824 
L 321.933163 361.643253 
L 321.056666 362.718271 
L 320.180169 361.959132 
L 319.303672 363.355267 
L 318.427175 363.355267 
L 317.550677 364.060638 
L 316.67418 362.896696 
L 315.797683 365.519649 
L 314.921186 364.737916 
L 314.044689 363.123545 
L 313.168192 364.270545 
L 312.291694 363.870756 
L 311.415197 364.641026 
L 310.5387 365.804968 
L 309.662203 365.804968 
L 308.785706 362.106771 
L 307.909209 364.480281 
L 307.032712 364.480281 
L 306.156214 364.880071 
L 305.279717 364.880071 
L 304.40322 363.631275 
L 303.526723 363.631275 
L 302.650226 368.111205 
L 300.897231 368.111205 
L 300.020734 367.692287 
L 299.144237 367.692287 
L 298.26774 368.941082 
L 296.514746 368.941082 
L 295.638249 368.520824 
L 294.761751 368.520824 
L 293.885254 368.939742 
L 290.379266 368.939742 
L 289.502769 369.36 
L 286.873277 369.36 
L 285.99678 368.938392 
L 281.614294 368.938392 
L 280.737797 368.515427 
L 279.8613 368.937035 
L 278.984803 368.937035 
L 278.108306 368.086995 
L 276.355311 368.086995 
L 275.478814 367.659903 
L 274.602317 368.082869 
L 272.849323 368.082869 
L 271.972825 368.932908 
L 271.096328 368.932908 
L 270.219831 368.074535 
L 269.343334 368.501627 
L 268.466837 368.501627 
L 267.59034 367.637606 
L 265.837345 367.637606 
L 264.960848 367.203455 
L 264.084351 368.061828 
L 262.331357 368.061828 
L 261.45486 368.925849 
L 257.072374 368.924409 
L 256.195877 368.487368 
L 255.31938 367.608899 
L 253.566385 367.608899 
L 252.689888 368.04449 
L 251.813391 367.160105 
L 250.936894 367.160105 
L 250.060397 367.597146 
L 249.183899 368.475615 
L 246.554408 368.475615 
L 245.677911 369.36 
L 244.801414 368.915564 
L 243.048419 368.915564 
L 242.171922 367.122626 
L 240.418928 367.122626 
L 239.542431 366.216894 
L 238.665934 366.66133 
L 237.789436 366.66133 
L 236.912939 366.206111 
L 236.036442 367.999048 
L 235.159945 365.698978 
L 234.283448 364.767551 
L 233.406951 365.673283 
L 232.530454 364.263639 
L 231.653956 363.315399 
L 230.777459 363.770618 
L 229.900962 361.853348 
L 228.147968 363.628298 
L 227.271471 363.628298 
L 226.394973 362.075472 
L 225.518476 363.023712 
L 224.641979 361.517034 
L 223.765482 363.434304 
L 222.888985 364.890851 
L 222.012488 364.890851 
L 221.135991 356.549594 
L 220.259493 351.751879 
L 219.382996 351.751879 
L 218.506499 353.258557 
L 217.630002 353.258557 
L 216.753505 350.372053 
L 215.877008 350.372053 
L 215.000511 358.71331 
L 214.124013 364.710642 
L 213.247516 362.322746 
L 211.494522 362.322746 
L 210.618025 364.60543 
L 209.741528 362.777132 
L 208.86503 362.161999 
L 207.988533 363.924853 
L 207.112036 366.312748 
L 206.235539 366.312748 
L 205.359042 365.073771 
L 203.606048 366.255112 
L 202.72955 365.60744 
L 201.853053 363.690171 
L 200.100059 362.396262 
L 199.223562 362.328456 
L 198.347065 360.343572 
L 197.470567 361.59435 
L 196.59407 361.517034 
L 195.717573 362.759081 
L 194.841076 359.278532 
L 193.964579 357.814477 
L 193.088082 357.693739 
L 192.211585 356.77617 
L 191.335087 355.300529 
L 190.45859 355.896564 
L 189.582093 355.823463 
L 188.705596 359.949372 
L 187.829099 362.061975 
L 186.952602 363.489496 
L 186.076104 362.584997 
L 185.199607 363.285824 
L 184.32311 363.250496 
L 183.446613 355.939197 
L 182.570116 351.715983 
L 181.693619 339.11297 
L 180.817122 339.11297 
L 179.940624 336.133803 
L 179.064127 331.837306 
L 178.18763 314.932142 
L 177.311133 320.60387 
L 176.434636 310.856077 
L 175.558139 323.45909 
L 174.681641 319.375943 
L 173.805144 326.162061 
L 172.928647 322.665293 
L 172.05215 337.364953 
L 171.175653 320.260753 
L 170.299156 334.231761 
L 169.422659 334.231761 
L 168.546161 329.254029 
L 167.669664 319.521381 
L 166.793167 276.844551 
L 165.91667 279.829467 
L 165.040173 299.321563 
L 163.287178 299.321563 
L 162.410681 305.363214 
L 161.534184 315.095862 
L 160.657687 366.340772 
L 159.78119 346.604112 
L 158.904693 331.578526 
L 158.028196 327.537264 
L 157.151698 319.061378 
L 156.275201 313.019728 
L 155.398704 303.287079 
L 154.522207 303.287079 
L 153.64571 323.023739 
L 152.769213 327.537264 
L 151.892715 314.041761 
L 151.016218 316.110003 
L 150.139721 325.170882 
L 149.263224 297.122056 
L 147.51023 297.122056 
L 146.633733 298.573238 
L 145.757235 316.110003 
L 144.880738 322.517647 
L 144.004241 312.784999 
L 143.127744 350.566473 
L 141.37475 350.566473 
L 140.498253 349.115291 
L 139.621755 325.170882 
L 138.745258 325.170882 
L 137.868761 334.90353 
L 135.23927 334.90353 
L 133.486275 355.522935 
L 130.856784 355.522935 
L 129.980287 340.054412 
L 129.10379 340.054412 
L 128.227292 322.517647 
L 127.350795 336.354712 
L 126.474298 292.165594 
L 124.721304 292.165594 
L 123.844807 307.634117 
L 122.968309 307.634117 
L 122.091812 295.865294 
L 121.215315 295.865294 
L 120.338818 340.054412 
L 116.832829 340.054412 
L 115.956332 278.328529 
L 110.697349 278.328529 
L 109.820852 369.36 
L 109.820852 369.36 
" style="fill:none;stroke:#ff7f0e;stroke-linecap:square;stroke-width:1.5;"/>
   </g>
   <g id="patch_3">
    <path d="M 72 384.48 
L 72 51.84 
" style="fill:none;stroke:#000000;stroke-linecap:square;stroke-linejoin:miter;stroke-width:0.8;"/>
   </g>
   <g id="patch_4">
    <path d="M 518.4 384.48 
L 518.4 51.84 
" style="fill:none;stroke:#000000;stroke-linecap:square;stroke-linejoin:miter;stroke-width:0.8;"/>
   </g>
   <g id="patch_5">
    <path d="M 72 384.48 
L 518.4 384.48 
" style="fill:none;stroke:#000000;stroke-linecap:square;stroke-linejoin:miter;stroke-width:0.8;"/>
   </g>
   <g id="patch_6">
    <path d="M 72 51.84 
L 518.4 51.84 
" style="fill:none;stroke:#000000;stroke-linecap:square;stroke-linejoin:miter;stroke-width:0.8;"/>
   </g>
   <g id="text_19">
    <!-- Growth Rate -->
    <defs>
     <path d="M 59.515625 10.40625 
L 59.515625 29.984375 
L 43.40625 29.984375 
L 43.40625 38.09375 
L 69.28125 38.09375 
L 69.28125 6.78125 
Q 63.578125 2.734375 56.6875 0.65625 
Q 49.8125 -1.421875 42 -1.421875 
Q 24.90625 -1.421875 15.25 8.5625 
Q 5.609375 18.5625 5.609375 36.375 
Q 5.609375 54.25 15.25 64.234375 
Q 24.90625 74.21875 42 74.21875 
Q 49.125 74.21875 55.546875 72.453125 
Q 61.96875 70.703125 67.390625 67.28125 
L 67.390625 56.78125 
Q 61.921875 61.421875 55.765625 63.765625 
Q 49.609375 66.109375 42.828125 66.109375 
Q 29.4375 66.109375 22.71875 58.640625 
Q 16.015625 51.171875 16.015625 36.375 
Q 16.015625 21.625 22.71875 14.15625 
Q 29.4375 6.6875 42.828125 6.6875 
Q 48.046875 6.6875 52.140625 7.59375 
Q 56.25 8.5 59.515625 10.40625 
z
" id="DejaVuSans-71"/>
     <path d="M 4.203125 54.6875 
L 13.1875 54.6875 
L 24.421875 12.015625 
L 35.59375 54.6875 
L 46.1875 54.6875 
L 57.421875 12.015625 
L 68.609375 54.6875 
L 77.59375 54.6875 
L 63.28125 0 
L 52.6875 0 
L 40.921875 44.828125 
L 29.109375 0 
L 18.5 0 
z
" id="DejaVuSans-119"/>
     <path d="M 54.890625 33.015625 
L 54.890625 0 
L 45.90625 0 
L 45.90625 32.71875 
Q 45.90625 40.484375 42.875 44.328125 
Q 39.84375 48.1875 33.796875 48.1875 
Q 26.515625 48.1875 22.3125 43.546875 
Q 18.109375 38.921875 18.109375 30.90625 
L 18.109375 0 
L 9.078125 0 
L 9.078125 75.984375 
L 18.109375 75.984375 
L 18.109375 46.1875 
Q 21.34375 51.125 25.703125 53.5625 
Q 30.078125 56 35.796875 56 
Q 45.21875 56 50.046875 50.171875 
Q 54.890625 44.34375 54.890625 33.015625 
z
" id="DejaVuSans-104"/>
    </defs>
    <g transform="translate(257.824687 45.84)scale(0.12 -0.12)">
     <use xlink:href="#DejaVuSans-71"/>
     <use x="77.490234" xlink:href="#DejaVuSans-114"/>
     <use x="116.353516" xlink:href="#DejaVuSans-111"/>
     <use x="177.535156" xlink:href="#DejaVuSans-119"/>
     <use x="259.322266" xlink:href="#DejaVuSans-116"/>
     <use x="298.53125" xlink:href="#DejaVuSans-104"/>
     <use x="361.910156" xlink:href="#DejaVuSans-32"/>
     <use x="393.697266" xlink:href="#DejaVuSans-82"/>
     <use x="460.929688" xlink:href="#DejaVuSans-97"/>
     <use x="522.208984" xlink:href="#DejaVuSans-116"/>
     <use x="561.417969" xlink:href="#DejaVuSans-101"/>
    </g>
   </g>
   <g id="legend_1">
    <g id="patch_7">
     <path d="M 291.595312 89.19625 
L 511.4 89.19625 
Q 513.4 89.19625 513.4 87.19625 
L 513.4 58.84 
Q 513.4 56.84 511.4 56.84 
L 291.595312 56.84 
Q 289.595312 56.84 289.595312 58.84 
L 289.595312 87.19625 
Q 289.595312 89.19625 291.595312 89.19625 
z
" style="fill:#ffffff;opacity:0.8;stroke:#cccccc;stroke-linejoin:miter;"/>
    </g>
    <g id="line2d_19">
     <path d="M 293.595312 64.938437 
L 313.595312 64.938437 
" style="fill:none;stroke:#1f77b4;stroke-linecap:square;stroke-width:1.5;"/>
    </g>
    <g id="line2d_20"/>
    <g id="text_20">
     <!-- Confirmed Growth Rate (over 7 days) -->
     <defs>
      <path d="M 64.40625 67.28125 
L 64.40625 56.890625 
Q 59.421875 61.53125 53.78125 63.8125 
Q 48.140625 66.109375 41.796875 66.109375 
Q 29.296875 66.109375 22.65625 58.46875 
Q 16.015625 50.828125 16.015625 36.375 
Q 16.015625 21.96875 22.65625 14.328125 
Q 29.296875 6.6875 41.796875 6.6875 
Q 48.140625 6.6875 53.78125 8.984375 
Q 59.421875 11.28125 64.40625 15.921875 
L 64.40625 5.609375 
Q 59.234375 2.09375 53.4375 0.328125 
Q 47.65625 -1.421875 41.21875 -1.421875 
Q 24.65625 -1.421875 15.125 8.703125 
Q 5.609375 18.84375 5.609375 36.375 
Q 5.609375 53.953125 15.125 64.078125 
Q 24.65625 74.21875 41.21875 74.21875 
Q 47.75 74.21875 53.53125 72.484375 
Q 59.328125 70.75 64.40625 67.28125 
z
" id="DejaVuSans-67"/>
      <path d="M 37.109375 75.984375 
L 37.109375 68.5 
L 28.515625 68.5 
Q 23.6875 68.5 21.796875 66.546875 
Q 19.921875 64.59375 19.921875 59.515625 
L 19.921875 54.6875 
L 34.71875 54.6875 
L 34.71875 47.703125 
L 19.921875 47.703125 
L 19.921875 0 
L 10.890625 0 
L 10.890625 47.703125 
L 2.296875 47.703125 
L 2.296875 54.6875 
L 10.890625 54.6875 
L 10.890625 58.5 
Q 10.890625 67.625 15.140625 71.796875 
Q 19.390625 75.984375 28.609375 75.984375 
z
" id="DejaVuSans-102"/>
      <path d="M 9.421875 54.6875 
L 18.40625 54.6875 
L 18.40625 0 
L 9.421875 0 
z
M 9.421875 75.984375 
L 18.40625 75.984375 
L 18.40625 64.59375 
L 9.421875 64.59375 
z
" id="DejaVuSans-105"/>
      <path d="M 52 44.1875 
Q 55.375 50.25 60.0625 53.125 
Q 64.75 56 71.09375 56 
Q 79.640625 56 84.28125 50.015625 
Q 88.921875 44.046875 88.921875 33.015625 
L 88.921875 0 
L 79.890625 0 
L 79.890625 32.71875 
Q 79.890625 40.578125 77.09375 44.375 
Q 74.3125 48.1875 68.609375 48.1875 
Q 61.625 48.1875 57.5625 43.546875 
Q 53.515625 38.921875 53.515625 30.90625 
L 53.515625 0 
L 44.484375 0 
L 44.484375 32.71875 
Q 44.484375 40.625 41.703125 44.40625 
Q 38.921875 48.1875 33.109375 48.1875 
Q 26.21875 48.1875 22.15625 43.53125 
Q 18.109375 38.875 18.109375 30.90625 
L 18.109375 0 
L 9.078125 0 
L 9.078125 54.6875 
L 18.109375 54.6875 
L 18.109375 46.1875 
Q 21.1875 51.21875 25.484375 53.609375 
Q 29.78125 56 35.6875 56 
Q 41.65625 56 45.828125 52.96875 
Q 50 49.953125 52 44.1875 
z
" id="DejaVuSans-109"/>
      <path d="M 31 75.875 
Q 24.46875 64.65625 21.28125 53.65625 
Q 18.109375 42.671875 18.109375 31.390625 
Q 18.109375 20.125 21.3125 9.0625 
Q 24.515625 -2 31 -13.1875 
L 23.1875 -13.1875 
Q 15.875 -1.703125 12.234375 9.375 
Q 8.59375 20.453125 8.59375 31.390625 
Q 8.59375 42.28125 12.203125 53.3125 
Q 15.828125 64.359375 23.1875 75.875 
z
" id="DejaVuSans-40"/>
      <path d="M 2.984375 54.6875 
L 12.5 54.6875 
L 29.59375 8.796875 
L 46.6875 54.6875 
L 56.203125 54.6875 
L 35.6875 0 
L 23.484375 0 
z
" id="DejaVuSans-118"/>
      <path d="M 32.171875 -5.078125 
Q 28.375 -14.84375 24.75 -17.8125 
Q 21.140625 -20.796875 15.09375 -20.796875 
L 7.90625 -20.796875 
L 7.90625 -13.28125 
L 13.1875 -13.28125 
Q 16.890625 -13.28125 18.9375 -11.515625 
Q 21 -9.765625 23.484375 -3.21875 
L 25.09375 0.875 
L 2.984375 54.6875 
L 12.5 54.6875 
L 29.59375 11.921875 
L 46.6875 54.6875 
L 56.203125 54.6875 
z
" id="DejaVuSans-121"/>
      <path d="M 44.28125 53.078125 
L 44.28125 44.578125 
Q 40.484375 46.53125 36.375 47.5 
Q 32.28125 48.484375 27.875 48.484375 
Q 21.1875 48.484375 17.84375 46.4375 
Q 14.5 44.390625 14.5 40.28125 
Q 14.5 37.15625 16.890625 35.375 
Q 19.28125 33.59375 26.515625 31.984375 
L 29.59375 31.296875 
Q 39.15625 29.25 43.1875 25.515625 
Q 47.21875 21.78125 47.21875 15.09375 
Q 47.21875 7.46875 41.1875 3.015625 
Q 35.15625 -1.421875 24.609375 -1.421875 
Q 20.21875 -1.421875 15.453125 -0.5625 
Q 10.6875 0.296875 5.421875 2 
L 5.421875 11.28125 
Q 10.40625 8.6875 15.234375 7.390625 
Q 20.0625 6.109375 24.8125 6.109375 
Q 31.15625 6.109375 34.5625 8.28125 
Q 37.984375 10.453125 37.984375 14.40625 
Q 37.984375 18.0625 35.515625 20.015625 
Q 33.0625 21.96875 24.703125 23.78125 
L 21.578125 24.515625 
Q 13.234375 26.265625 9.515625 29.90625 
Q 5.8125 33.546875 5.8125 39.890625 
Q 5.8125 47.609375 11.28125 51.796875 
Q 16.75 56 26.8125 56 
Q 31.78125 56 36.171875 55.265625 
Q 40.578125 54.546875 44.28125 53.078125 
z
" id="DejaVuSans-115"/>
      <path d="M 8.015625 75.875 
L 15.828125 75.875 
Q 23.140625 64.359375 26.78125 53.3125 
Q 30.421875 42.28125 30.421875 31.390625 
Q 30.421875 20.453125 26.78125 9.375 
Q 23.140625 -1.703125 15.828125 -13.1875 
L 8.015625 -13.1875 
Q 14.5 -2 17.703125 9.0625 
Q 20.90625 20.125 20.90625 31.390625 
Q 20.90625 42.671875 17.703125 53.65625 
Q 14.5 64.65625 8.015625 75.875 
z
" id="DejaVuSans-41"/>
     </defs>
     <g transform="translate(321.595312 68.438437)scale(0.1 -0.1)">
      <use xlink:href="#DejaVuSans-67"/>
      <use x="69.824219" xlink:href="#DejaVuSans-111"/>
      <use x="131.005859" xlink:href="#DejaVuSans-110"/>
      <use x="194.384766" xlink:href="#DejaVuSans-102"/>
      <use x="229.589844" xlink:href="#DejaVuSans-105"/>
      <use x="257.373047" xlink:href="#DejaVuSans-114"/>
      <use x="296.736328" xlink:href="#DejaVuSans-109"/>
      <use x="394.148438" xlink:href="#DejaVuSans-101"/>
      <use x="455.671875" xlink:href="#DejaVuSans-100"/>
      <use x="519.148438" xlink:href="#DejaVuSans-32"/>
      <use x="550.935547" xlink:href="#DejaVuSans-71"/>
      <use x="628.425781" xlink:href="#DejaVuSans-114"/>
      <use x="667.289062" xlink:href="#DejaVuSans-111"/>
      <use x="728.470703" xlink:href="#DejaVuSans-119"/>
      <use x="810.257812" xlink:href="#DejaVuSans-116"/>
      <use x="849.466797" xlink:href="#DejaVuSans-104"/>
      <use x="912.845703" xlink:href="#DejaVuSans-32"/>
      <use x="944.632812" xlink:href="#DejaVuSans-82"/>
      <use x="1011.865234" xlink:href="#DejaVuSans-97"/>
      <use x="1073.144531" xlink:href="#DejaVuSans-116"/>
      <use x="1112.353516" xlink:href="#DejaVuSans-101"/>
      <use x="1173.876953" xlink:href="#DejaVuSans-32"/>
      <use x="1205.664062" xlink:href="#DejaVuSans-40"/>
      <use x="1244.677734" xlink:href="#DejaVuSans-111"/>
      <use x="1305.859375" xlink:href="#DejaVuSans-118"/>
      <use x="1365.039062" xlink:href="#DejaVuSans-101"/>
      <use x="1426.5625" xlink:href="#DejaVuSans-114"/>
      <use x="1467.675781" xlink:href="#DejaVuSans-32"/>
      <use x="1499.462891" xlink:href="#DejaVuSans-55"/>
      <use x="1563.085938" xlink:href="#DejaVuSans-32"/>
      <use x="1594.873047" xlink:href="#DejaVuSans-100"/>
      <use x="1658.349609" xlink:href="#DejaVuSans-97"/>
      <use x="1719.628906" xlink:href="#DejaVuSans-121"/>
      <use x="1778.808594" xlink:href="#DejaVuSans-115"/>
      <use x="1830.908203" xlink:href="#DejaVuSans-41"/>
     </g>
    </g>
    <g id="line2d_21">
     <path d="M 293.595312 79.616562 
L 313.595312 79.616562 
" style="fill:none;stroke:#ff7f0e;stroke-linecap:square;stroke-width:1.5;"/>
    </g>
    <g id="line2d_22"/>
    <g id="text_21">
     <!-- Recovered Growth Rate (over 7 days) -->
     <defs>
      <path d="M 48.78125 52.59375 
L 48.78125 44.1875 
Q 44.96875 46.296875 41.140625 47.34375 
Q 37.3125 48.390625 33.40625 48.390625 
Q 24.65625 48.390625 19.8125 42.84375 
Q 14.984375 37.3125 14.984375 27.296875 
Q 14.984375 17.28125 19.8125 11.734375 
Q 24.65625 6.203125 33.40625 6.203125 
Q 37.3125 6.203125 41.140625 7.25 
Q 44.96875 8.296875 48.78125 10.40625 
L 48.78125 2.09375 
Q 45.015625 0.34375 40.984375 -0.53125 
Q 36.96875 -1.421875 32.421875 -1.421875 
Q 20.0625 -1.421875 12.78125 6.34375 
Q 5.515625 14.109375 5.515625 27.296875 
Q 5.515625 40.671875 12.859375 48.328125 
Q 20.21875 56 33.015625 56 
Q 37.15625 56 41.109375 55.140625 
Q 45.0625 54.296875 48.78125 52.59375 
z
" id="DejaVuSans-99"/>
     </defs>
     <g transform="translate(321.595312 83.116562)scale(0.1 -0.1)">
      <use xlink:href="#DejaVuSans-82"/>
      <use x="64.982422" xlink:href="#DejaVuSans-101"/>
      <use x="126.505859" xlink:href="#DejaVuSans-99"/>
      <use x="181.486328" xlink:href="#DejaVuSans-111"/>
      <use x="242.667969" xlink:href="#DejaVuSans-118"/>
      <use x="301.847656" xlink:href="#DejaVuSans-101"/>
      <use x="363.371094" xlink:href="#DejaVuSans-114"/>
      <use x="402.234375" xlink:href="#DejaVuSans-101"/>
      <use x="463.757812" xlink:href="#DejaVuSans-100"/>
      <use x="527.234375" xlink:href="#DejaVuSans-32"/>
      <use x="559.021484" xlink:href="#DejaVuSans-71"/>
      <use x="636.511719" xlink:href="#DejaVuSans-114"/>
      <use x="675.375" xlink:href="#DejaVuSans-111"/>
      <use x="736.556641" xlink:href="#DejaVuSans-119"/>
      <use x="818.34375" xlink:href="#DejaVuSans-116"/>
      <use x="857.552734" xlink:href="#DejaVuSans-104"/>
      <use x="920.931641" xlink:href="#DejaVuSans-32"/>
      <use x="952.71875" xlink:href="#DejaVuSans-82"/>
      <use x="1019.951172" xlink:href="#DejaVuSans-97"/>
      <use x="1081.230469" xlink:href="#DejaVuSans-116"/>
      <use x="1120.439453" xlink:href="#DejaVuSans-101"/>
      <use x="1181.962891" xlink:href="#DejaVuSans-32"/>
      <use x="1213.75" xlink:href="#DejaVuSans-40"/>
      <use x="1252.763672" xlink:href="#DejaVuSans-111"/>
      <use x="1313.945312" xlink:href="#DejaVuSans-118"/>
      <use x="1373.125" xlink:href="#DejaVuSans-101"/>
      <use x="1434.648438" xlink:href="#DejaVuSans-114"/>
      <use x="1475.761719" xlink:href="#DejaVuSans-32"/>
      <use x="1507.548828" xlink:href="#DejaVuSans-55"/>
      <use x="1571.171875" xlink:href="#DejaVuSans-32"/>
      <use x="1602.958984" xlink:href="#DejaVuSans-100"/>
      <use x="1666.435547" xlink:href="#DejaVuSans-97"/>
      <use x="1727.714844" xlink:href="#DejaVuSans-121"/>
      <use x="1786.894531" xlink:href="#DejaVuSans-115"/>
      <use x="1838.994141" xlink:href="#DejaVuSans-41"/>
     </g>
    </g>
   </g>
  </g>
 </g>
 <defs>
  <clipPath id="p121c90d720">
   <rect height="332.64" width="446.4" x="72" y="51.84"/>
  </clipPath>
 </defs>
</svg>
