<?xml version="1.0" encoding="utf-8" standalone="no"?>
<!DOCTYPE svg PUBLIC "-//W3C//DTD SVG 1.1//EN"
  "http://www.w3.org/Graphics/SVG/1.1/DTD/svg11.dtd">
<!-- Created with matplotlib (https://matplotlib.org/) -->
<svg height="432pt" version="1.1" viewBox="0 0 576 432" width="576pt" xmlns="http://www.w3.org/2000/svg" xmlns:xlink="http://www.w3.org/1999/xlink">
 <defs>
  <style type="text/css">
*{stroke-linecap:butt;stroke-linejoin:round;}
  </style>
 </defs>
 <g id="figure_1">
  <g id="patch_1">
   <path d="M 0 432 
L 576 432 
L 576 0 
L 0 0 
z
" style="fill:#ffffff;"/>
  </g>
  <g id="axes_1">
   <g id="patch_2">
    <path d="M 72 384.48 
L 518.4 384.48 
L 518.4 51.84 
L 72 51.84 
z
" style="fill:#ffffff;"/>
   </g>
   <g id="matplotlib.axis_1">
    <g id="xtick_1">
     <g id="line2d_1">
      <defs>
       <path d="M 0 0 
L 0 3.5 
" id="m62c84c2252" style="stroke:#000000;stroke-width:0.8;"/>
      </defs>
      <g>
       <use style="stroke:#000000;stroke-width:0.8;" x="124.645434" xlink:href="#m62c84c2252" y="384.48"/>
      </g>
     </g>
     <g id="text_1">
      <!-- 2020-05 -->
      <defs>
       <path d="M 19.1875 8.296875 
L 53.609375 8.296875 
L 53.609375 0 
L 7.328125 0 
L 7.328125 8.296875 
Q 12.9375 14.109375 22.625 23.890625 
Q 32.328125 33.6875 34.8125 36.53125 
Q 39.546875 41.84375 41.421875 45.53125 
Q 43.3125 49.21875 43.3125 52.78125 
Q 43.3125 58.59375 39.234375 62.25 
Q 35.15625 65.921875 28.609375 65.921875 
Q 23.96875 65.921875 18.8125 64.3125 
Q 13.671875 62.703125 7.8125 59.421875 
L 7.8125 69.390625 
Q 13.765625 71.78125 18.9375 73 
Q 24.125 74.21875 28.421875 74.21875 
Q 39.75 74.21875 46.484375 68.546875 
Q 53.21875 62.890625 53.21875 53.421875 
Q 53.21875 48.921875 51.53125 44.890625 
Q 49.859375 40.875 45.40625 35.40625 
Q 44.1875 33.984375 37.640625 27.21875 
Q 31.109375 20.453125 19.1875 8.296875 
z
" id="DejaVuSans-50"/>
       <path d="M 31.78125 66.40625 
Q 24.171875 66.40625 20.328125 58.90625 
Q 16.5 51.421875 16.5 36.375 
Q 16.5 21.390625 20.328125 13.890625 
Q 24.171875 6.390625 31.78125 6.390625 
Q 39.453125 6.390625 43.28125 13.890625 
Q 47.125 21.390625 47.125 36.375 
Q 47.125 51.421875 43.28125 58.90625 
Q 39.453125 66.40625 31.78125 66.40625 
z
M 31.78125 74.21875 
Q 44.046875 74.21875 50.515625 64.515625 
Q 56.984375 54.828125 56.984375 36.375 
Q 56.984375 17.96875 50.515625 8.265625 
Q 44.046875 -1.421875 31.78125 -1.421875 
Q 19.53125 -1.421875 13.0625 8.265625 
Q 6.59375 17.96875 6.59375 36.375 
Q 6.59375 54.828125 13.0625 64.515625 
Q 19.53125 74.21875 31.78125 74.21875 
z
" id="DejaVuSans-48"/>
       <path d="M 4.890625 31.390625 
L 31.203125 31.390625 
L 31.203125 23.390625 
L 4.890625 23.390625 
z
" id="DejaVuSans-45"/>
       <path d="M 10.796875 72.90625 
L 49.515625 72.90625 
L 49.515625 64.59375 
L 19.828125 64.59375 
L 19.828125 46.734375 
Q 21.96875 47.46875 24.109375 47.828125 
Q 26.265625 48.1875 28.421875 48.1875 
Q 40.625 48.1875 47.75 41.5 
Q 54.890625 34.8125 54.890625 23.390625 
Q 54.890625 11.625 47.5625 5.09375 
Q 40.234375 -1.421875 26.90625 -1.421875 
Q 22.3125 -1.421875 17.546875 -0.640625 
Q 12.796875 0.140625 7.71875 1.703125 
L 7.71875 11.625 
Q 12.109375 9.234375 16.796875 8.0625 
Q 21.484375 6.890625 26.703125 6.890625 
Q 35.15625 6.890625 40.078125 11.328125 
Q 45.015625 15.765625 45.015625 23.390625 
Q 45.015625 31 40.078125 35.4375 
Q 35.15625 39.890625 26.703125 39.890625 
Q 22.75 39.890625 18.8125 39.015625 
Q 14.890625 38.140625 10.796875 36.28125 
z
" id="DejaVuSans-53"/>
      </defs>
      <g transform="translate(103.754028 399.078438)scale(0.1 -0.1)">
       <use xlink:href="#DejaVuSans-50"/>
       <use x="63.623047" xlink:href="#DejaVuSans-48"/>
       <use x="127.246094" xlink:href="#DejaVuSans-50"/>
       <use x="190.869141" xlink:href="#DejaVuSans-48"/>
       <use x="254.492188" xlink:href="#DejaVuSans-45"/>
       <use x="290.576172" xlink:href="#DejaVuSans-48"/>
       <use x="354.199219" xlink:href="#DejaVuSans-53"/>
      </g>
     </g>
    </g>
    <g id="xtick_2">
     <g id="line2d_2">
      <g>
       <use style="stroke:#000000;stroke-width:0.8;" x="181.034748" xlink:href="#m62c84c2252" y="384.48"/>
      </g>
     </g>
     <g id="text_2">
      <!-- 2020-07 -->
      <defs>
       <path d="M 8.203125 72.90625 
L 55.078125 72.90625 
L 55.078125 68.703125 
L 28.609375 0 
L 18.3125 0 
L 43.21875 64.59375 
L 8.203125 64.59375 
z
" id="DejaVuSans-55"/>
      </defs>
      <g transform="translate(160.143342 399.078438)scale(0.1 -0.1)">
       <use xlink:href="#DejaVuSans-50"/>
       <use x="63.623047" xlink:href="#DejaVuSans-48"/>
       <use x="127.246094" xlink:href="#DejaVuSans-50"/>
       <use x="190.869141" xlink:href="#DejaVuSans-48"/>
       <use x="254.492188" xlink:href="#DejaVuSans-45"/>
       <use x="290.576172" xlink:href="#DejaVuSans-48"/>
       <use x="354.199219" xlink:href="#DejaVuSans-55"/>
      </g>
     </g>
    </g>
    <g id="xtick_3">
     <g id="line2d_3">
      <g>
       <use style="stroke:#000000;stroke-width:0.8;" x="238.348478" xlink:href="#m62c84c2252" y="384.48"/>
      </g>
     </g>
     <g id="text_3">
      <!-- 2020-09 -->
      <defs>
       <path d="M 10.984375 1.515625 
L 10.984375 10.5 
Q 14.703125 8.734375 18.5 7.8125 
Q 22.3125 6.890625 25.984375 6.890625 
Q 35.75 6.890625 40.890625 13.453125 
Q 46.046875 20.015625 46.78125 33.40625 
Q 43.953125 29.203125 39.59375 26.953125 
Q 35.25 24.703125 29.984375 24.703125 
Q 19.046875 24.703125 12.671875 31.3125 
Q 6.296875 37.9375 6.296875 49.421875 
Q 6.296875 60.640625 12.9375 67.421875 
Q 19.578125 74.21875 30.609375 74.21875 
Q 43.265625 74.21875 49.921875 64.515625 
Q 56.59375 54.828125 56.59375 36.375 
Q 56.59375 19.140625 48.40625 8.859375 
Q 40.234375 -1.421875 26.421875 -1.421875 
Q 22.703125 -1.421875 18.890625 -0.6875 
Q 15.09375 0.046875 10.984375 1.515625 
z
M 30.609375 32.421875 
Q 37.25 32.421875 41.125 36.953125 
Q 45.015625 41.5 45.015625 49.421875 
Q 45.015625 57.28125 41.125 61.84375 
Q 37.25 66.40625 30.609375 66.40625 
Q 23.96875 66.40625 20.09375 61.84375 
Q 16.21875 57.28125 16.21875 49.421875 
Q 16.21875 41.5 20.09375 36.953125 
Q 23.96875 32.421875 30.609375 32.421875 
z
" id="DejaVuSans-57"/>
      </defs>
      <g transform="translate(217.457072 399.078438)scale(0.1 -0.1)">
       <use xlink:href="#DejaVuSans-50"/>
       <use x="63.623047" xlink:href="#DejaVuSans-48"/>
       <use x="127.246094" xlink:href="#DejaVuSans-50"/>
       <use x="190.869141" xlink:href="#DejaVuSans-48"/>
       <use x="254.492188" xlink:href="#DejaVuSans-45"/>
       <use x="290.576172" xlink:href="#DejaVuSans-48"/>
       <use x="354.199219" xlink:href="#DejaVuSans-57"/>
      </g>
     </g>
    </g>
    <g id="xtick_4">
     <g id="line2d_4">
      <g>
       <use style="stroke:#000000;stroke-width:0.8;" x="294.737793" xlink:href="#m62c84c2252" y="384.48"/>
      </g>
     </g>
     <g id="text_4">
      <!-- 2020-11 -->
      <defs>
       <path d="M 12.40625 8.296875 
L 28.515625 8.296875 
L 28.515625 63.921875 
L 10.984375 60.40625 
L 10.984375 69.390625 
L 28.421875 72.90625 
L 38.28125 72.90625 
L 38.28125 8.296875 
L 54.390625 8.296875 
L 54.390625 0 
L 12.40625 0 
z
" id="DejaVuSans-49"/>
      </defs>
      <g transform="translate(273.846386 399.078438)scale(0.1 -0.1)">
       <use xlink:href="#DejaVuSans-50"/>
       <use x="63.623047" xlink:href="#DejaVuSans-48"/>
       <use x="127.246094" xlink:href="#DejaVuSans-50"/>
       <use x="190.869141" xlink:href="#DejaVuSans-48"/>
       <use x="254.492188" xlink:href="#DejaVuSans-45"/>
       <use x="290.576172" xlink:href="#DejaVuSans-49"/>
       <use x="354.199219" xlink:href="#DejaVuSans-49"/>
      </g>
     </g>
    </g>
    <g id="xtick_5">
     <g id="line2d_5">
      <g>
       <use style="stroke:#000000;stroke-width:0.8;" x="351.127107" xlink:href="#m62c84c2252" y="384.48"/>
      </g>
     </g>
     <g id="text_5">
      <!-- 2021-01 -->
      <g transform="translate(330.235701 399.078438)scale(0.1 -0.1)">
       <use xlink:href="#DejaVuSans-50"/>
       <use x="63.623047" xlink:href="#DejaVuSans-48"/>
       <use x="127.246094" xlink:href="#DejaVuSans-50"/>
       <use x="190.869141" xlink:href="#DejaVuSans-49"/>
       <use x="254.492188" xlink:href="#DejaVuSans-45"/>
       <use x="290.576172" xlink:href="#DejaVuSans-48"/>
       <use x="354.199219" xlink:href="#DejaVuSans-49"/>
      </g>
     </g>
    </g>
    <g id="xtick_6">
     <g id="line2d_6">
      <g>
       <use style="stroke:#000000;stroke-width:0.8;" x="405.667592" xlink:href="#m62c84c2252" y="384.48"/>
      </g>
     </g>
     <g id="text_6">
      <!-- 2021-03 -->
      <defs>
       <path d="M 40.578125 39.3125 
Q 47.65625 37.796875 51.625 33 
Q 55.609375 28.21875 55.609375 21.1875 
Q 55.609375 10.40625 48.1875 4.484375 
Q 40.765625 -1.421875 27.09375 -1.421875 
Q 22.515625 -1.421875 17.65625 -0.515625 
Q 12.796875 0.390625 7.625 2.203125 
L 7.625 11.71875 
Q 11.71875 9.328125 16.59375 8.109375 
Q 21.484375 6.890625 26.8125 6.890625 
Q 36.078125 6.890625 40.9375 10.546875 
Q 45.796875 14.203125 45.796875 21.1875 
Q 45.796875 27.640625 41.28125 31.265625 
Q 36.765625 34.90625 28.71875 34.90625 
L 20.21875 34.90625 
L 20.21875 43.015625 
L 29.109375 43.015625 
Q 36.375 43.015625 40.234375 45.921875 
Q 44.09375 48.828125 44.09375 54.296875 
Q 44.09375 59.90625 40.109375 62.90625 
Q 36.140625 65.921875 28.71875 65.921875 
Q 24.65625 65.921875 20.015625 65.03125 
Q 15.375 64.15625 9.8125 62.3125 
L 9.8125 71.09375 
Q 15.4375 72.65625 20.34375 73.4375 
Q 25.25 74.21875 29.59375 74.21875 
Q 40.828125 74.21875 47.359375 69.109375 
Q 53.90625 64.015625 53.90625 55.328125 
Q 53.90625 49.265625 50.4375 45.09375 
Q 46.96875 40.921875 40.578125 39.3125 
z
" id="DejaVuSans-51"/>
      </defs>
      <g transform="translate(384.776185 399.078438)scale(0.1 -0.1)">
       <use xlink:href="#DejaVuSans-50"/>
       <use x="63.623047" xlink:href="#DejaVuSans-48"/>
       <use x="127.246094" xlink:href="#DejaVuSans-50"/>
       <use x="190.869141" xlink:href="#DejaVuSans-49"/>
       <use x="254.492188" xlink:href="#DejaVuSans-45"/>
       <use x="290.576172" xlink:href="#DejaVuSans-48"/>
       <use x="354.199219" xlink:href="#DejaVuSans-51"/>
      </g>
     </g>
    </g>
    <g id="xtick_7">
     <g id="line2d_7">
      <g>
       <use style="stroke:#000000;stroke-width:0.8;" x="462.056906" xlink:href="#m62c84c2252" y="384.48"/>
      </g>
     </g>
     <g id="text_7">
      <!-- 2021-05 -->
      <g transform="translate(441.1655 399.078438)scale(0.1 -0.1)">
       <use xlink:href="#DejaVuSans-50"/>
       <use x="63.623047" xlink:href="#DejaVuSans-48"/>
       <use x="127.246094" xlink:href="#DejaVuSans-50"/>
       <use x="190.869141" xlink:href="#DejaVuSans-49"/>
       <use x="254.492188" xlink:href="#DejaVuSans-45"/>
       <use x="290.576172" xlink:href="#DejaVuSans-48"/>
       <use x="354.199219" xlink:href="#DejaVuSans-53"/>
      </g>
     </g>
    </g>
    <g id="text_8">
     <!-- Reported On -->
     <defs>
      <path d="M 44.390625 34.1875 
Q 47.5625 33.109375 50.5625 29.59375 
Q 53.5625 26.078125 56.59375 19.921875 
L 66.609375 0 
L 56 0 
L 46.6875 18.703125 
Q 43.0625 26.03125 39.671875 28.421875 
Q 36.28125 30.8125 30.421875 30.8125 
L 19.671875 30.8125 
L 19.671875 0 
L 9.8125 0 
L 9.8125 72.90625 
L 32.078125 72.90625 
Q 44.578125 72.90625 50.734375 67.671875 
Q 56.890625 62.453125 56.890625 51.90625 
Q 56.890625 45.015625 53.6875 40.46875 
Q 50.484375 35.9375 44.390625 34.1875 
z
M 19.671875 64.796875 
L 19.671875 38.921875 
L 32.078125 38.921875 
Q 39.203125 38.921875 42.84375 42.21875 
Q 46.484375 45.515625 46.484375 51.90625 
Q 46.484375 58.296875 42.84375 61.546875 
Q 39.203125 64.796875 32.078125 64.796875 
z
" id="DejaVuSans-82"/>
      <path d="M 56.203125 29.59375 
L 56.203125 25.203125 
L 14.890625 25.203125 
Q 15.484375 15.921875 20.484375 11.0625 
Q 25.484375 6.203125 34.421875 6.203125 
Q 39.59375 6.203125 44.453125 7.46875 
Q 49.3125 8.734375 54.109375 11.28125 
L 54.109375 2.78125 
Q 49.265625 0.734375 44.1875 -0.34375 
Q 39.109375 -1.421875 33.890625 -1.421875 
Q 20.796875 -1.421875 13.15625 6.1875 
Q 5.515625 13.8125 5.515625 26.8125 
Q 5.515625 40.234375 12.765625 48.109375 
Q 20.015625 56 32.328125 56 
Q 43.359375 56 49.78125 48.890625 
Q 56.203125 41.796875 56.203125 29.59375 
z
M 47.21875 32.234375 
Q 47.125 39.59375 43.09375 43.984375 
Q 39.0625 48.390625 32.421875 48.390625 
Q 24.90625 48.390625 20.390625 44.140625 
Q 15.875 39.890625 15.1875 32.171875 
z
" id="DejaVuSans-101"/>
      <path d="M 18.109375 8.203125 
L 18.109375 -20.796875 
L 9.078125 -20.796875 
L 9.078125 54.6875 
L 18.109375 54.6875 
L 18.109375 46.390625 
Q 20.953125 51.265625 25.265625 53.625 
Q 29.59375 56 35.59375 56 
Q 45.5625 56 51.78125 48.09375 
Q 58.015625 40.1875 58.015625 27.296875 
Q 58.015625 14.40625 51.78125 6.484375 
Q 45.5625 -1.421875 35.59375 -1.421875 
Q 29.59375 -1.421875 25.265625 0.953125 
Q 20.953125 3.328125 18.109375 8.203125 
z
M 48.6875 27.296875 
Q 48.6875 37.203125 44.609375 42.84375 
Q 40.53125 48.484375 33.40625 48.484375 
Q 26.265625 48.484375 22.1875 42.84375 
Q 18.109375 37.203125 18.109375 27.296875 
Q 18.109375 17.390625 22.1875 11.75 
Q 26.265625 6.109375 33.40625 6.109375 
Q 40.53125 6.109375 44.609375 11.75 
Q 48.6875 17.390625 48.6875 27.296875 
z
" id="DejaVuSans-112"/>
      <path d="M 30.609375 48.390625 
Q 23.390625 48.390625 19.1875 42.75 
Q 14.984375 37.109375 14.984375 27.296875 
Q 14.984375 17.484375 19.15625 11.84375 
Q 23.34375 6.203125 30.609375 6.203125 
Q 37.796875 6.203125 41.984375 11.859375 
Q 46.1875 17.53125 46.1875 27.296875 
Q 46.1875 37.015625 41.984375 42.703125 
Q 37.796875 48.390625 30.609375 48.390625 
z
M 30.609375 56 
Q 42.328125 56 49.015625 48.375 
Q 55.71875 40.765625 55.71875 27.296875 
Q 55.71875 13.875 49.015625 6.21875 
Q 42.328125 -1.421875 30.609375 -1.421875 
Q 18.84375 -1.421875 12.171875 6.21875 
Q 5.515625 13.875 5.515625 27.296875 
Q 5.515625 40.765625 12.171875 48.375 
Q 18.84375 56 30.609375 56 
z
" id="DejaVuSans-111"/>
      <path d="M 41.109375 46.296875 
Q 39.59375 47.171875 37.8125 47.578125 
Q 36.03125 48 33.890625 48 
Q 26.265625 48 22.1875 43.046875 
Q 18.109375 38.09375 18.109375 28.8125 
L 18.109375 0 
L 9.078125 0 
L 9.078125 54.6875 
L 18.109375 54.6875 
L 18.109375 46.1875 
Q 20.953125 51.171875 25.484375 53.578125 
Q 30.03125 56 36.53125 56 
Q 37.453125 56 38.578125 55.875 
Q 39.703125 55.765625 41.0625 55.515625 
z
" id="DejaVuSans-114"/>
      <path d="M 18.3125 70.21875 
L 18.3125 54.6875 
L 36.8125 54.6875 
L 36.8125 47.703125 
L 18.3125 47.703125 
L 18.3125 18.015625 
Q 18.3125 11.328125 20.140625 9.421875 
Q 21.96875 7.515625 27.59375 7.515625 
L 36.8125 7.515625 
L 36.8125 0 
L 27.59375 0 
Q 17.1875 0 13.234375 3.875 
Q 9.28125 7.765625 9.28125 18.015625 
L 9.28125 47.703125 
L 2.6875 47.703125 
L 2.6875 54.6875 
L 9.28125 54.6875 
L 9.28125 70.21875 
z
" id="DejaVuSans-116"/>
      <path d="M 45.40625 46.390625 
L 45.40625 75.984375 
L 54.390625 75.984375 
L 54.390625 0 
L 45.40625 0 
L 45.40625 8.203125 
Q 42.578125 3.328125 38.25 0.953125 
Q 33.9375 -1.421875 27.875 -1.421875 
Q 17.96875 -1.421875 11.734375 6.484375 
Q 5.515625 14.40625 5.515625 27.296875 
Q 5.515625 40.1875 11.734375 48.09375 
Q 17.96875 56 27.875 56 
Q 33.9375 56 38.25 53.625 
Q 42.578125 51.265625 45.40625 46.390625 
z
M 14.796875 27.296875 
Q 14.796875 17.390625 18.875 11.75 
Q 22.953125 6.109375 30.078125 6.109375 
Q 37.203125 6.109375 41.296875 11.75 
Q 45.40625 17.390625 45.40625 27.296875 
Q 45.40625 37.203125 41.296875 42.84375 
Q 37.203125 48.484375 30.078125 48.484375 
Q 22.953125 48.484375 18.875 42.84375 
Q 14.796875 37.203125 14.796875 27.296875 
z
" id="DejaVuSans-100"/>
      <path id="DejaVuSans-32"/>
      <path d="M 39.40625 66.21875 
Q 28.65625 66.21875 22.328125 58.203125 
Q 16.015625 50.203125 16.015625 36.375 
Q 16.015625 22.609375 22.328125 14.59375 
Q 28.65625 6.59375 39.40625 6.59375 
Q 50.140625 6.59375 56.421875 14.59375 
Q 62.703125 22.609375 62.703125 36.375 
Q 62.703125 50.203125 56.421875 58.203125 
Q 50.140625 66.21875 39.40625 66.21875 
z
M 39.40625 74.21875 
Q 54.734375 74.21875 63.90625 63.9375 
Q 73.09375 53.65625 73.09375 36.375 
Q 73.09375 19.140625 63.90625 8.859375 
Q 54.734375 -1.421875 39.40625 -1.421875 
Q 24.03125 -1.421875 14.8125 8.828125 
Q 5.609375 19.09375 5.609375 36.375 
Q 5.609375 53.65625 14.8125 63.9375 
Q 24.03125 74.21875 39.40625 74.21875 
z
" id="DejaVuSans-79"/>
      <path d="M 54.890625 33.015625 
L 54.890625 0 
L 45.90625 0 
L 45.90625 32.71875 
Q 45.90625 40.484375 42.875 44.328125 
Q 39.84375 48.1875 33.796875 48.1875 
Q 26.515625 48.1875 22.3125 43.546875 
Q 18.109375 38.921875 18.109375 30.90625 
L 18.109375 0 
L 9.078125 0 
L 9.078125 54.6875 
L 18.109375 54.6875 
L 18.109375 46.1875 
Q 21.34375 51.125 25.703125 53.5625 
Q 30.078125 56 35.796875 56 
Q 45.21875 56 50.046875 50.171875 
Q 54.890625 44.34375 54.890625 33.015625 
z
" id="DejaVuSans-110"/>
     </defs>
     <g transform="translate(263.680469 412.756563)scale(0.1 -0.1)">
      <use xlink:href="#DejaVuSans-82"/>
      <use x="64.982422" xlink:href="#DejaVuSans-101"/>
      <use x="126.505859" xlink:href="#DejaVuSans-112"/>
      <use x="189.982422" xlink:href="#DejaVuSans-111"/>
      <use x="251.164062" xlink:href="#DejaVuSans-114"/>
      <use x="292.277344" xlink:href="#DejaVuSans-116"/>
      <use x="331.486328" xlink:href="#DejaVuSans-101"/>
      <use x="393.009766" xlink:href="#DejaVuSans-100"/>
      <use x="456.486328" xlink:href="#DejaVuSans-32"/>
      <use x="488.273438" xlink:href="#DejaVuSans-79"/>
      <use x="566.984375" xlink:href="#DejaVuSans-110"/>
     </g>
    </g>
   </g>
   <g id="matplotlib.axis_2">
    <g id="ytick_1">
     <g id="line2d_8">
      <defs>
       <path d="M 0 0 
L -3.5 0 
" id="m38fff3cf82" style="stroke:#000000;stroke-width:0.8;"/>
      </defs>
      <g>
       <use style="stroke:#000000;stroke-width:0.8;" x="72" xlink:href="#m38fff3cf82" y="369.471501"/>
      </g>
     </g>
     <g id="text_9">
      <!--   0 -->
      <g transform="translate(52.28125 373.27072)scale(0.1 -0.1)">
       <use xlink:href="#DejaVuSans-32"/>
       <use x="31.787109" xlink:href="#DejaVuSans-32"/>
       <use x="63.574219" xlink:href="#DejaVuSans-48"/>
      </g>
     </g>
    </g>
    <g id="ytick_2">
     <g id="line2d_9">
      <g>
       <use style="stroke:#000000;stroke-width:0.8;" x="72" xlink:href="#m38fff3cf82" y="317.540056"/>
      </g>
     </g>
     <g id="text_10">
      <!-- 1000 -->
      <g transform="translate(39.55 321.339275)scale(0.1 -0.1)">
       <use xlink:href="#DejaVuSans-49"/>
       <use x="63.623047" xlink:href="#DejaVuSans-48"/>
       <use x="127.246094" xlink:href="#DejaVuSans-48"/>
       <use x="190.869141" xlink:href="#DejaVuSans-48"/>
      </g>
     </g>
    </g>
    <g id="ytick_3">
     <g id="line2d_10">
      <g>
       <use style="stroke:#000000;stroke-width:0.8;" x="72" xlink:href="#m38fff3cf82" y="265.60861"/>
      </g>
     </g>
     <g id="text_11">
      <!-- 2000 -->
      <g transform="translate(39.55 269.407829)scale(0.1 -0.1)">
       <use xlink:href="#DejaVuSans-50"/>
       <use x="63.623047" xlink:href="#DejaVuSans-48"/>
       <use x="127.246094" xlink:href="#DejaVuSans-48"/>
       <use x="190.869141" xlink:href="#DejaVuSans-48"/>
      </g>
     </g>
    </g>
    <g id="ytick_4">
     <g id="line2d_11">
      <g>
       <use style="stroke:#000000;stroke-width:0.8;" x="72" xlink:href="#m38fff3cf82" y="213.677165"/>
      </g>
     </g>
     <g id="text_12">
      <!-- 3000 -->
      <g transform="translate(39.55 217.476383)scale(0.1 -0.1)">
       <use xlink:href="#DejaVuSans-51"/>
       <use x="63.623047" xlink:href="#DejaVuSans-48"/>
       <use x="127.246094" xlink:href="#DejaVuSans-48"/>
       <use x="190.869141" xlink:href="#DejaVuSans-48"/>
      </g>
     </g>
    </g>
    <g id="ytick_5">
     <g id="line2d_12">
      <g>
       <use style="stroke:#000000;stroke-width:0.8;" x="72" xlink:href="#m38fff3cf82" y="161.745719"/>
      </g>
     </g>
     <g id="text_13">
      <!-- 4000 -->
      <defs>
       <path d="M 37.796875 64.3125 
L 12.890625 25.390625 
L 37.796875 25.390625 
z
M 35.203125 72.90625 
L 47.609375 72.90625 
L 47.609375 25.390625 
L 58.015625 25.390625 
L 58.015625 17.1875 
L 47.609375 17.1875 
L 47.609375 0 
L 37.796875 0 
L 37.796875 17.1875 
L 4.890625 17.1875 
L 4.890625 26.703125 
z
" id="DejaVuSans-52"/>
      </defs>
      <g transform="translate(39.55 165.544938)scale(0.1 -0.1)">
       <use xlink:href="#DejaVuSans-52"/>
       <use x="63.623047" xlink:href="#DejaVuSans-48"/>
       <use x="127.246094" xlink:href="#DejaVuSans-48"/>
       <use x="190.869141" xlink:href="#DejaVuSans-48"/>
      </g>
     </g>
    </g>
    <g id="ytick_6">
     <g id="line2d_13">
      <g>
       <use style="stroke:#000000;stroke-width:0.8;" x="72" xlink:href="#m38fff3cf82" y="109.814274"/>
      </g>
     </g>
     <g id="text_14">
      <!-- 5000 -->
      <g transform="translate(39.55 113.613492)scale(0.1 -0.1)">
       <use xlink:href="#DejaVuSans-53"/>
       <use x="63.623047" xlink:href="#DejaVuSans-48"/>
       <use x="127.246094" xlink:href="#DejaVuSans-48"/>
       <use x="190.869141" xlink:href="#DejaVuSans-48"/>
      </g>
     </g>
    </g>
    <g id="ytick_7">
     <g id="line2d_14">
      <g>
       <use style="stroke:#000000;stroke-width:0.8;" x="72" xlink:href="#m38fff3cf82" y="57.882828"/>
      </g>
     </g>
     <g id="text_15">
      <!-- 6000 -->
      <defs>
       <path d="M 33.015625 40.375 
Q 26.375 40.375 22.484375 35.828125 
Q 18.609375 31.296875 18.609375 23.390625 
Q 18.609375 15.53125 22.484375 10.953125 
Q 26.375 6.390625 33.015625 6.390625 
Q 39.65625 6.390625 43.53125 10.953125 
Q 47.40625 15.53125 47.40625 23.390625 
Q 47.40625 31.296875 43.53125 35.828125 
Q 39.65625 40.375 33.015625 40.375 
z
M 52.59375 71.296875 
L 52.59375 62.3125 
Q 48.875 64.0625 45.09375 64.984375 
Q 41.3125 65.921875 37.59375 65.921875 
Q 27.828125 65.921875 22.671875 59.328125 
Q 17.53125 52.734375 16.796875 39.40625 
Q 19.671875 43.65625 24.015625 45.921875 
Q 28.375 48.1875 33.59375 48.1875 
Q 44.578125 48.1875 50.953125 41.515625 
Q 57.328125 34.859375 57.328125 23.390625 
Q 57.328125 12.15625 50.6875 5.359375 
Q 44.046875 -1.421875 33.015625 -1.421875 
Q 20.359375 -1.421875 13.671875 8.265625 
Q 6.984375 17.96875 6.984375 36.375 
Q 6.984375 53.65625 15.1875 63.9375 
Q 23.390625 74.21875 37.203125 74.21875 
Q 40.921875 74.21875 44.703125 73.484375 
Q 48.484375 72.75 52.59375 71.296875 
z
" id="DejaVuSans-54"/>
      </defs>
      <g transform="translate(39.55 61.682047)scale(0.1 -0.1)">
       <use xlink:href="#DejaVuSans-54"/>
       <use x="63.623047" xlink:href="#DejaVuSans-48"/>
       <use x="127.246094" xlink:href="#DejaVuSans-48"/>
       <use x="190.869141" xlink:href="#DejaVuSans-48"/>
      </g>
     </g>
    </g>
    <g id="text_16">
     <!-- Duration [days] -->
     <defs>
      <path d="M 19.671875 64.796875 
L 19.671875 8.109375 
L 31.59375 8.109375 
Q 46.6875 8.109375 53.6875 14.9375 
Q 60.6875 21.78125 60.6875 36.53125 
Q 60.6875 51.171875 53.6875 57.984375 
Q 46.6875 64.796875 31.59375 64.796875 
z
M 9.8125 72.90625 
L 30.078125 72.90625 
Q 51.265625 72.90625 61.171875 64.09375 
Q 71.09375 55.28125 71.09375 36.53125 
Q 71.09375 17.671875 61.125 8.828125 
Q 51.171875 0 30.078125 0 
L 9.8125 0 
z
" id="DejaVuSans-68"/>
      <path d="M 8.5 21.578125 
L 8.5 54.6875 
L 17.484375 54.6875 
L 17.484375 21.921875 
Q 17.484375 14.15625 20.5 10.265625 
Q 23.53125 6.390625 29.59375 6.390625 
Q 36.859375 6.390625 41.078125 11.03125 
Q 45.3125 15.671875 45.3125 23.6875 
L 45.3125 54.6875 
L 54.296875 54.6875 
L 54.296875 0 
L 45.3125 0 
L 45.3125 8.40625 
Q 42.046875 3.421875 37.71875 1 
Q 33.40625 -1.421875 27.6875 -1.421875 
Q 18.265625 -1.421875 13.375 4.4375 
Q 8.5 10.296875 8.5 21.578125 
z
M 31.109375 56 
z
" id="DejaVuSans-117"/>
      <path d="M 34.28125 27.484375 
Q 23.390625 27.484375 19.1875 25 
Q 14.984375 22.515625 14.984375 16.5 
Q 14.984375 11.71875 18.140625 8.90625 
Q 21.296875 6.109375 26.703125 6.109375 
Q 34.1875 6.109375 38.703125 11.40625 
Q 43.21875 16.703125 43.21875 25.484375 
L 43.21875 27.484375 
z
M 52.203125 31.203125 
L 52.203125 0 
L 43.21875 0 
L 43.21875 8.296875 
Q 40.140625 3.328125 35.546875 0.953125 
Q 30.953125 -1.421875 24.3125 -1.421875 
Q 15.921875 -1.421875 10.953125 3.296875 
Q 6 8.015625 6 15.921875 
Q 6 25.140625 12.171875 29.828125 
Q 18.359375 34.515625 30.609375 34.515625 
L 43.21875 34.515625 
L 43.21875 35.40625 
Q 43.21875 41.609375 39.140625 45 
Q 35.0625 48.390625 27.6875 48.390625 
Q 23 48.390625 18.546875 47.265625 
Q 14.109375 46.140625 10.015625 43.890625 
L 10.015625 52.203125 
Q 14.9375 54.109375 19.578125 55.046875 
Q 24.21875 56 28.609375 56 
Q 40.484375 56 46.34375 49.84375 
Q 52.203125 43.703125 52.203125 31.203125 
z
" id="DejaVuSans-97"/>
      <path d="M 9.421875 54.6875 
L 18.40625 54.6875 
L 18.40625 0 
L 9.421875 0 
z
M 9.421875 75.984375 
L 18.40625 75.984375 
L 18.40625 64.59375 
L 9.421875 64.59375 
z
" id="DejaVuSans-105"/>
      <path d="M 8.59375 75.984375 
L 29.296875 75.984375 
L 29.296875 69 
L 17.578125 69 
L 17.578125 -6.203125 
L 29.296875 -6.203125 
L 29.296875 -13.1875 
L 8.59375 -13.1875 
z
" id="DejaVuSans-91"/>
      <path d="M 32.171875 -5.078125 
Q 28.375 -14.84375 24.75 -17.8125 
Q 21.140625 -20.796875 15.09375 -20.796875 
L 7.90625 -20.796875 
L 7.90625 -13.28125 
L 13.1875 -13.28125 
Q 16.890625 -13.28125 18.9375 -11.515625 
Q 21 -9.765625 23.484375 -3.21875 
L 25.09375 0.875 
L 2.984375 54.6875 
L 12.5 54.6875 
L 29.59375 11.921875 
L 46.6875 54.6875 
L 56.203125 54.6875 
z
" id="DejaVuSans-121"/>
      <path d="M 44.28125 53.078125 
L 44.28125 44.578125 
Q 40.484375 46.53125 36.375 47.5 
Q 32.28125 48.484375 27.875 48.484375 
Q 21.1875 48.484375 17.84375 46.4375 
Q 14.5 44.390625 14.5 40.28125 
Q 14.5 37.15625 16.890625 35.375 
Q 19.28125 33.59375 26.515625 31.984375 
L 29.59375 31.296875 
Q 39.15625 29.25 43.1875 25.515625 
Q 47.21875 21.78125 47.21875 15.09375 
Q 47.21875 7.46875 41.1875 3.015625 
Q 35.15625 -1.421875 24.609375 -1.421875 
Q 20.21875 -1.421875 15.453125 -0.5625 
Q 10.6875 0.296875 5.421875 2 
L 5.421875 11.28125 
Q 10.40625 8.6875 15.234375 7.390625 
Q 20.0625 6.109375 24.8125 6.109375 
Q 31.15625 6.109375 34.5625 8.28125 
Q 37.984375 10.453125 37.984375 14.40625 
Q 37.984375 18.0625 35.515625 20.015625 
Q 33.0625 21.96875 24.703125 23.78125 
L 21.578125 24.515625 
Q 13.234375 26.265625 9.515625 29.90625 
Q 5.8125 33.546875 5.8125 39.890625 
Q 5.8125 47.609375 11.28125 51.796875 
Q 16.75 56 26.8125 56 
Q 31.78125 56 36.171875 55.265625 
Q 40.578125 54.546875 44.28125 53.078125 
z
" id="DejaVuSans-115"/>
      <path d="M 30.421875 75.984375 
L 30.421875 -13.1875 
L 9.71875 -13.1875 
L 9.71875 -6.203125 
L 21.390625 -6.203125 
L 21.390625 69 
L 9.71875 69 
L 9.71875 75.984375 
z
" id="DejaVuSans-93"/>
     </defs>
     <g transform="translate(33.470312 257.168594)rotate(-90)scale(0.1 -0.1)">
      <use xlink:href="#DejaVuSans-68"/>
      <use x="77.001953" xlink:href="#DejaVuSans-117"/>
      <use x="140.380859" xlink:href="#DejaVuSans-114"/>
      <use x="181.494141" xlink:href="#DejaVuSans-97"/>
      <use x="242.773438" xlink:href="#DejaVuSans-116"/>
      <use x="281.982422" xlink:href="#DejaVuSans-105"/>
      <use x="309.765625" xlink:href="#DejaVuSans-111"/>
      <use x="370.947266" xlink:href="#DejaVuSans-110"/>
      <use x="434.326172" xlink:href="#DejaVuSans-32"/>
      <use x="466.113281" xlink:href="#DejaVuSans-91"/>
      <use x="505.126953" xlink:href="#DejaVuSans-100"/>
      <use x="568.603516" xlink:href="#DejaVuSans-97"/>
      <use x="629.882812" xlink:href="#DejaVuSans-121"/>
      <use x="689.0625" xlink:href="#DejaVuSans-115"/>
      <use x="741.162109" xlink:href="#DejaVuSans-93"/>
     </g>
    </g>
   </g>
   <g id="line2d_15">
    <path clip-path="url(#pf4da07ebfd)" d="M 498.109091 314.750275 
L 497.184676 323.888514 
L 496.260261 322.321644 
L 495.335846 322.321644 
L 494.411431 320.642855 
L 493.487016 314.840986 
L 492.562601 233.110982 
L 491.638186 289.318763 
L 489.789356 319.091685 
L 488.864941 319.091685 
L 487.940526 336.331515 
L 487.016111 337.147139 
L 486.091696 339.309319 
L 485.167281 337.195134 
L 484.242866 336.460575 
L 483.318451 338.753066 
L 482.394036 342.452282 
L 481.469621 334.89137 
L 480.545206 334.011672 
L 479.620791 330.984574 
L 478.696376 326.045192 
L 477.771961 313.431615 
L 476.847546 290.445231 
L 475.923131 273.595852 
L 474.998716 290.578629 
L 474.074301 285.70406 
L 473.149886 336.029454 
L 471.301056 334.276907 
L 470.376641 347.59613 
L 469.452226 349.870293 
L 468.527811 353.642542 
L 467.603396 353.263039 
L 466.678981 347.380918 
L 465.754566 348.097017 
L 464.830151 349.399017 
L 463.905736 346.323062 
L 462.981321 347.527904 
L 462.056906 351.022508 
L 461.132491 354.082023 
L 460.208076 353.714645 
L 459.283661 353.720716 
L 458.359246 353.138586 
L 457.434831 351.617228 
L 456.510416 347.779879 
L 455.586001 338.634987 
L 454.661586 321.583423 
L 453.737171 326.383053 
L 452.812756 347.989859 
L 451.888341 347.628196 
L 450.963926 343.722236 
L 450.039511 346.897743 
L 449.115096 340.282093 
L 448.190681 345.707614 
L 447.266266 346.1554 
L 446.341851 325.432215 
L 445.417436 330.783431 
L 444.493021 337.572796 
L 443.568606 330.83688 
L 442.644191 340.534068 
L 441.719776 338.470224 
L 440.795361 335.134264 
L 439.870946 344.619564 
L 438.946531 342.516724 
L 438.022116 346.057579 
L 437.097701 346.057579 
L 436.173286 346.956159 
L 435.248871 343.760186 
L 434.324456 347.384012 
L 433.400041 349.255294 
L 432.475626 349.255294 
L 431.551211 348.281625 
L 430.626796 351.368352 
L 429.702381 346.379548 
L 428.777966 349.041894 
L 427.853551 348.014333 
L 426.929136 334.02266 
L 426.004721 351.543641 
L 424.155891 348.214176 
L 423.231476 349.264955 
L 422.307062 348.244587 
L 421.382647 346.255585 
L 420.458232 347.514105 
L 419.533817 334.519409 
L 418.609402 336.448616 
L 417.684987 337.353644 
L 416.760572 359.119904 
L 415.836157 358.758537 
L 414.911742 358.758537 
L 413.987327 358.269187 
L 413.062912 356.755818 
L 411.214082 354.762619 
M 404.743177 198.957841 
L 403.818762 198.957841 
L 402.894347 289.956107 
L 401.969932 315.290873 
L 401.045517 321.805533 
L 400.121102 334.451651 
L 399.196687 338.149353 
L 398.272272 338.195769 
L 397.347857 341.845082 
L 396.423442 344.248381 
L 395.499027 347.149385 
L 394.574612 349.443278 
L 393.650197 350.757799 
L 392.725782 354.952988 
L 391.801367 355.326703 
L 390.876952 356.734772 
L 389.952537 356.33575 
L 388.103707 356.687758 
L 387.179292 357.265086 
L 386.254877 355.718371 
L 385.330462 357.347312 
L 384.406047 355.450953 
L 383.481632 358.016923 
L 382.557217 358.166342 
L 381.632802 360.866054 
L 380.708387 361.452697 
L 379.783972 363.367326 
L 378.859557 362.640271 
L 377.935142 363.745 
L 377.010727 363.331164 
L 376.086312 364.134481 
L 375.161897 363.509767 
L 374.237482 363.479048 
L 373.313067 362.218906 
L 372.388652 364.012775 
L 371.464237 363.819733 
L 370.539822 364.233236 
L 369.615407 364.436218 
L 368.690992 365.315324 
L 367.766577 365.422291 
L 366.842162 365.797772 
L 365.917747 365.827575 
L 364.068917 366.692202 
L 363.144502 366.676586 
L 362.220087 366.813985 
L 361.295672 367.449815 
L 360.371257 367.428032 
L 357.598012 366.836952 
L 355.749182 367.432701 
L 354.824767 366.561132 
L 353.900352 366.728247 
L 352.975937 367.122407 
L 351.127107 367.427722 
L 350.202692 367.435225 
L 349.278277 367.147103 
L 348.353862 367.586505 
L 346.505032 367.845293 
L 343.731787 367.852094 
L 342.807372 368.176579 
L 340.958542 367.87551 
L 337.260882 367.921316 
L 336.336467 367.480075 
L 335.412052 367.992519 
L 334.487637 368.216839 
L 333.563222 368.168376 
L 331.714392 368.330231 
L 330.789977 368.482791 
L 325.243487 367.870673 
L 324.319072 367.484588 
L 323.394657 367.712745 
L 322.470242 367.361908 
L 321.545827 367.246281 
L 319.696997 366.770013 
L 318.772582 366.771622 
L 317.848167 366.214518 
L 316.923752 365.517798 
L 315.999337 365.096248 
L 315.074922 364.227067 
L 314.150507 363.929664 
L 313.226092 362.771989 
L 311.377262 363.233492 
L 310.452847 364.648613 
L 309.528432 364.871258 
L 308.604017 364.843569 
L 306.755187 364.024267 
L 305.830772 364.075525 
L 304.906357 363.812066 
L 303.981942 361.205359 
L 303.057527 360.271901 
L 302.133112 356.498311 
L 301.208697 355.343401 
L 300.284282 355.354855 
L 299.359867 338.586992 
L 298.435452 325.448351 
L 297.511037 325.484347 
L 296.586622 292.601825 
L 295.662207 325.592336 
L 294.737793 318.303101 
L 293.813378 308.098179 
L 292.888963 308.098179 
L 291.964548 292.790805 
L 291.040133 292.853798 
L 290.115718 318.429088 
L 289.191303 293.042778 
L 288.266888 308.350152 
L 287.342473 318.555074 
L 286.418058 318.555074 
L 285.493643 331.31124 
L 284.569228 335.591299 
L 281.795983 335.703287 
L 280.871568 331.500221 
L 279.947153 331.500221 
L 279.022738 318.891039 
L 278.098323 308.854099 
L 277.173908 268.538392 
L 276.249493 218.143785 
L 275.325078 66.96 
L 274.400663 66.96 
L 273.476248 268.706374 
L 272.551833 293.924684 
L 271.627418 268.790365 
L 270.703003 293.987678 
L 268.854173 293.987678 
L 267.929758 319.185008 
L 266.080928 269.042338 
L 265.156513 294.176657 
L 264.232098 269.126329 
L 263.307683 326.528238 
L 262.383268 331.909678 
L 261.458853 342.22917 
L 257.761193 342.252077 
L 256.836778 336.291227 
L 255.912363 332.161652 
L 254.987948 309.962782 
L 253.139118 309.962782 
L 252.214703 295.121557 
L 251.290288 295.121557 
L 250.365873 270.470186 
L 249.441458 270.470186 
L 248.517043 72.755378 
L 246.668213 72.755378 
L 245.743798 221.167461 
L 244.819383 221.167461 
L 243.894968 73.007351 
L 242.970553 221.293448 
L 241.121723 221.293448 
L 240.197308 295.436523 
L 239.272893 270.80615 
L 238.348478 270.80615 
L 237.424063 295.499517 
L 236.499648 270.890141 
L 234.650818 270.890141 
L 232.801988 320.318889 
L 231.877573 320.318889 
L 230.953158 310.517123 
L 230.028743 310.517123 
L 228.179913 342.73312 
L 227.255498 332.76009 
L 226.331083 320.570862 
L 225.406668 336.907164 
L 223.557838 336.907164 
L 222.633423 332.886077 
L 221.709008 333.012064 
L 220.784593 333.012064 
L 219.860178 337.075146 
L 218.935763 320.948823 
L 218.011348 320.948823 
L 217.086933 343.053815 
L 216.162518 355.697373 
L 215.238103 354.289066 
L 214.313688 354.289066 
L 213.389273 355.066223 
L 211.540443 355.066223 
L 210.616028 343.30579 
L 209.691613 345.726278 
L 208.767198 341.005947 
L 206.918368 341.056342 
L 205.993953 354.56757 
L 205.069538 359.015808 
L 204.145123 360.635062 
L 203.220708 355.418995 
L 202.296293 356.706386 
L 200.447463 356.729294 
L 199.523048 349.547912 
L 198.598633 323.174589 
L 197.674218 313.943961 
L 196.749803 313.943961 
L 195.825388 277.021486 
L 194.900973 314.04475 
L 193.976558 277.189468 
L 193.052143 314.195934 
L 192.127728 323.426562 
L 191.203313 344.405317 
L 190.278898 353.290514 
L 189.354483 353.290514 
L 188.430068 352.303909 
L 187.505653 357.015636 
L 186.581238 355.071528 
L 185.656823 354.279488 
L 184.732408 349.99787 
L 183.807993 355.948153 
L 182.883578 357.726266 
L 181.959163 358.684681 
L 181.034748 358.293685 
L 180.110333 358.293685 
L 179.185918 360.239699 
L 178.261503 362.45871 
L 177.337088 359.669106 
L 176.412673 362.738259 
L 175.488258 362.189026 
L 174.563843 361.037436 
L 173.639428 362.013828 
L 172.715013 365.587497 
L 171.790598 364.919181 
L 170.866183 364.838987 
L 169.941768 363.461048 
L 169.017353 363.993252 
L 168.092938 363.993252 
L 167.168524 363.485049 
L 166.244109 334.303431 
L 165.319694 334.303431 
L 164.395279 344.886361 
L 163.470864 349.043959 
L 162.546449 347.268674 
L 161.622034 350.701189 
L 159.773204 353.235178 
L 158.848789 353.235178 
L 157.924374 352.121676 
L 156.999959 347.451929 
L 156.075544 339.248425 
L 155.151129 342.67458 
L 154.226714 339.342916 
L 153.302299 335.095349 
L 152.377884 351.011315 
L 151.453469 351.05008 
L 149.604639 361.817804 
L 148.680224 362.084027 
L 147.755809 363.267777 
L 146.831394 363.87507 
L 145.906979 363.772771 
L 144.982564 365.180559 
L 144.058149 365.040354 
L 143.133734 364.730153 
L 142.209319 365.717349 
L 141.284904 365.742556 
L 140.360489 366.606796 
L 139.436074 366.837173 
L 138.511659 366.554271 
L 137.587244 367.104053 
L 136.662829 367.258493 
L 135.738414 367.174116 
L 134.813999 367.217234 
L 133.889584 366.858953 
L 132.965169 366.667768 
L 132.040754 366.982206 
L 131.116339 366.591547 
L 128.343094 366.020778 
L 126.494264 366.081466 
L 125.569849 366.014673 
L 124.645434 365.678019 
L 123.721019 365.806625 
L 122.796604 366.058399 
L 120.947774 366.248475 
L 120.023359 365.927413 
L 119.098944 365.750959 
L 118.174529 366.403601 
L 117.250114 367.639086 
L 116.325699 367.443635 
L 115.401284 367.679701 
L 114.476869 368.211745 
L 113.552454 368.211745 
L 111.703624 368.751246 
L 110.779209 368.741348 
L 109.854794 368.982826 
L 108.005964 369.112191 
L 106.157134 369.248569 
L 92.290909 369.344925 
L 92.290909 369.344925 
" style="fill:none;stroke:#1f77b4;stroke-linecap:square;stroke-width:1.5;"/>
   </g>
   <g id="line2d_16">
    <path clip-path="url(#pf4da07ebfd)" d="M 498.109091 337.23263 
L 497.184676 344.697379 
L 496.260261 343.189386 
L 495.335846 343.189386 
L 494.411431 342.644833 
L 493.487016 335.70255 
L 492.562601 318.21743 
L 491.638186 318.227509 
L 490.713771 334.964012 
L 489.789356 343.441361 
L 488.864941 343.441361 
L 487.940526 343.964132 
L 487.016111 340.539794 
L 486.091696 341.185129 
L 485.167281 348.974869 
L 484.242866 344.649208 
L 483.318451 348.080898 
L 482.394036 353.920185 
L 481.469621 353.727585 
L 480.545206 355.660453 
L 479.620791 355.508588 
L 478.696376 353.606659 
L 477.771961 350.510004 
L 476.847546 351.923947 
L 475.923131 351.226521 
L 474.998716 352.002024 
L 474.074301 348.850777 
L 473.149886 350.735256 
L 472.225471 348.52933 
L 471.301056 348.52933 
L 470.376641 337.895678 
L 469.452226 325.619333 
L 468.527811 324.019167 
L 467.603396 320.434797 
L 466.678981 304.994929 
L 465.754566 316.227059 
L 464.830151 324.131155 
L 463.905736 327.308984 
L 462.981321 316.369479 
L 462.056906 318.607569 
L 461.132491 338.238105 
L 460.208076 338.238105 
L 459.283661 334.684992 
L 458.359246 344.156683 
L 457.434831 348.201829 
L 456.510416 347.433604 
L 455.586001 349.291736 
L 454.661586 340.006653 
L 453.737171 342.635384 
L 452.812756 346.262534 
L 451.888341 335.059353 
L 450.963926 306.201748 
L 450.039511 331.949049 
L 449.115096 319.489476 
L 448.190681 321.493085 
L 447.266266 329.541124 
L 446.341851 335.311327 
L 444.493021 350.234751 
L 443.568606 345.16919 
L 442.644191 354.24503 
L 441.719776 358.190792 
L 440.795361 357.146638 
L 439.870946 360.761058 
L 438.946531 360.075646 
L 438.022116 359.010642 
L 437.097701 359.010642 
L 436.173286 356.651761 
L 435.248871 351.017776 
L 434.324456 353.338069 
L 433.400041 338.321398 
L 432.475626 338.321398 
L 431.551211 343.900858 
L 430.626796 345.5058 
L 429.702381 340.741374 
L 428.777966 341.444752 
L 427.853551 340.798068 
L 426.929136 328.607021 
L 426.004721 338.573372 
L 425.080306 335.926441 
L 424.155891 335.948674 
L 423.231476 336.909563 
L 422.307062 347.164021 
L 421.382647 343.040497 
L 420.458232 345.826019 
L 419.533817 358.31354 
L 417.684987 358.116469 
L 416.760572 365.096008 
L 415.836157 364.791026 
L 414.911742 364.791026 
L 413.987327 364.611076 
L 413.062912 362.838121 
L 412.138497 362.50737 
L 411.214082 362.419349 
M 404.743177 298.187231 
L 403.818762 298.187231 
L 402.894347 333.883474 
L 401.969932 338.982952 
L 401.045517 350.792323 
L 400.121102 357.127776 
L 399.196687 358.3075 
L 398.272272 356.723222 
L 397.347857 357.453742 
L 396.423442 357.07021 
L 394.574612 363.900233 
L 393.650197 363.103702 
L 389.952537 364.734549 
L 389.028122 363.965859 
L 388.103707 363.347932 
L 387.179292 363.157444 
L 385.330462 364.927973 
L 384.406047 365.137467 
L 383.481632 365.171224 
L 382.557217 366.22495 
L 381.632802 365.883154 
L 379.783972 366.731779 
L 378.859557 366.329814 
L 377.010727 366.402788 
L 376.086312 366.13717 
L 375.161897 366.095309 
L 374.237482 366.380558 
L 372.388652 367.504081 
L 370.539822 367.998236 
L 367.766577 368.499796 
L 365.917747 368.419039 
L 364.068917 368.275271 
L 362.220087 368.107013 
L 360.371257 368.134433 
L 359.446842 368.0804 
L 357.598012 368.378897 
L 356.673597 368.257609 
L 355.749182 368.259174 
L 354.824767 367.816404 
L 353.900352 367.580698 
L 352.975937 367.984381 
L 352.051522 367.521079 
L 350.202692 367.713279 
L 349.278277 367.226166 
L 348.353862 367.863825 
L 347.429447 368.144713 
L 346.505032 367.92989 
L 345.580617 368.004371 
L 344.656202 367.678334 
L 343.731787 367.651099 
L 342.807372 367.986326 
L 340.958542 366.966984 
L 340.034127 366.745787 
L 339.109712 366.856384 
L 338.185297 366.368584 
L 337.260882 366.791526 
L 336.336467 365.775593 
L 335.412052 365.860191 
L 334.487637 363.652184 
L 333.563222 363.661348 
L 332.638807 361.336117 
L 331.714392 359.587735 
L 330.789977 355.274679 
L 329.865562 347.244131 
L 328.941147 353.970114 
L 328.016732 358.81467 
L 327.092317 359.190331 
L 326.167902 359.839722 
L 325.243487 362.653827 
L 324.319072 362.709828 
L 323.394657 364.15646 
L 321.545827 362.651027 
L 320.621412 362.162392 
L 319.696997 363.120185 
L 317.848167 359.309952 
L 316.923752 354.063612 
L 315.999337 354.076874 
L 315.074922 351.217257 
L 314.150507 353.257576 
L 313.226092 343.053815 
L 312.301677 343.099629 
L 311.377262 337.299124 
L 310.452847 328.148069 
L 309.528432 321.284787 
L 308.604017 321.284787 
L 307.679602 297.263329 
L 306.755187 297.326322 
L 305.830772 225.325016 
L 304.906357 225.451002 
L 303.981942 225.451002 
L 303.057527 273.493863 
L 301.208697 273.493863 
L 300.284282 321.578756 
L 299.359867 321.578756 
L 298.435452 328.472035 
L 297.511037 340.804368 
L 296.586622 337.635089 
L 295.662207 345.621289 
L 294.737793 347.464264 
L 293.813378 337.747078 
L 292.888963 337.747078 
L 291.964548 328.724009 
L 291.040133 298.271222 
L 290.115718 298.271222 
L 289.191303 85.102053 
L 288.266888 227.466786 
L 286.418058 227.466786 
L 285.493643 298.523195 
L 282.720398 298.523195 
L 281.795983 275.005701 
L 279.947153 275.005701 
L 279.022738 227.970732 
L 278.098323 227.970732 
L 277.173908 338.111041 
L 276.249493 338.111041 
L 275.325078 334.208941 
L 271.627418 334.240437 
L 270.703003 313.389619 
L 269.778588 313.389619 
L 268.854173 334.460915 
L 267.005343 334.460915 
L 266.080928 329.47993 
L 265.156513 329.47993 
L 264.232098 322.964611 
L 263.307683 322.964611 
L 262.383268 276.601531 
L 258.685608 276.601531 
M 254.987948 300.035035 
L 254.063533 300.035035 
L 253.139118 313.943961 
L 251.290288 313.943961 
L 250.365873 348.181426 
L 249.441458 348.181426 
L 248.517043 338.782972 
L 247.592628 338.782972 
L 246.668213 334.964863 
L 245.743798 344.405317 
L 244.819383 344.405317 
L 243.894968 277.945388 
L 242.970553 323.762527 
L 241.121723 323.762527 
L 240.197308 330.307844 
L 239.272893 301.042927 
L 237.424063 301.042927 
L 236.499648 232.884206 
L 234.650818 232.884206 
L 233.726403 233.010193 
L 232.801988 314.951854 
L 231.877573 314.951854 
L 230.953158 324.056496 
L 230.028743 315.002249 
L 229.104328 324.098492 
L 228.179913 335.468811 
L 227.255498 330.631811 
L 226.331083 301.609867 
L 225.406668 350.159855 
L 224.482253 352.603133 
L 223.557838 356.6453 
L 222.633423 356.011148 
L 221.709008 354.531467 
L 219.860178 354.531467 
L 218.935763 359.99609 
L 218.011348 360.660261 
L 217.086933 358.926586 
L 216.162518 360.396106 
L 214.313688 360.396106 
L 213.389273 360.70226 
L 212.464858 343.450103 
L 211.540443 317.572378 
L 210.616028 317.572378 
L 209.691613 283.236823 
L 207.842783 326.40825 
L 206.918368 340.826766 
L 205.993953 340.826766 
L 205.069538 349.6739 
L 204.145123 349.6739 
L 203.220708 346.100424 
L 202.296293 346.123331 
L 201.371878 360.700232 
L 200.447463 359.319684 
L 199.523048 359.714334 
L 198.598633 357.966298 
L 196.749803 357.966298 
L 195.825388 362.287426 
L 194.900973 354.861675 
L 193.976558 354.861675 
L 193.052143 355.693373 
L 192.127728 359.165133 
L 191.203313 360.322408 
L 190.278898 360.960913 
L 189.354483 353.151185 
L 188.430068 355.113655 
L 187.505653 362.127936 
L 185.656823 361.169458 
L 184.732408 360.228002 
L 183.807993 363.358582 
L 182.883578 364.06572 
L 181.959163 363.827067 
L 181.034748 361.659833 
L 180.110333 361.659833 
L 179.185918 360.479991 
L 178.261503 361.130046 
L 177.337088 351.670332 
L 176.412673 356.715295 
L 175.488258 355.138667 
L 173.639428 361.364039 
L 172.715013 361.364039 
L 171.790598 360.751366 
L 170.866183 361.928629 
L 169.941768 358.228589 
L 169.017353 359.709277 
L 168.092938 356.343911 
L 167.168524 353.651542 
L 166.244109 355.642627 
L 165.319694 357.19126 
L 164.395279 353.723535 
L 163.470864 357.247256 
L 162.546449 357.289253 
L 161.622034 357.962681 
L 160.697619 360.037957 
L 159.773204 360.821536 
L 158.848789 361.778031 
L 157.924374 365.122358 
L 156.999959 365.231715 
L 156.075544 365.779262 
L 155.151129 366.041058 
L 154.226714 365.471748 
L 153.302299 365.914374 
L 152.377884 365.805875 
L 151.453469 364.787301 
L 150.529054 365.400127 
L 149.604639 365.534181 
L 148.680224 366.122999 
L 147.755809 366.346219 
L 145.906979 367.260835 
L 144.982564 367.311323 
L 143.133734 367.085247 
L 141.284904 367.431599 
L 140.360489 367.245457 
L 138.511659 367.170613 
L 137.587244 367.530516 
L 134.813999 368.028242 
L 132.965169 368.100163 
L 131.116339 368.345143 
L 130.191924 368.483133 
L 129.267509 368.463053 
L 126.494264 368.810948 
L 120.947774 369.242423 
L 116.325699 369.123522 
L 115.401284 368.721971 
L 114.476869 368.887057 
L 113.552454 368.887057 
L 112.628039 369.20537 
L 108.005964 369.216079 
L 107.081549 369.310397 
L 107.081549 369.310397 
" style="fill:none;stroke:#ff7f0e;stroke-linecap:square;stroke-width:1.5;"/>
   </g>
   <g id="patch_3">
    <path d="M 72 384.48 
L 72 51.84 
" style="fill:none;stroke:#000000;stroke-linecap:square;stroke-linejoin:miter;stroke-width:0.8;"/>
   </g>
   <g id="patch_4">
    <path d="M 518.4 384.48 
L 518.4 51.84 
" style="fill:none;stroke:#000000;stroke-linecap:square;stroke-linejoin:miter;stroke-width:0.8;"/>
   </g>
   <g id="patch_5">
    <path d="M 72 384.48 
L 518.4 384.48 
" style="fill:none;stroke:#000000;stroke-linecap:square;stroke-linejoin:miter;stroke-width:0.8;"/>
   </g>
   <g id="patch_6">
    <path d="M 72 51.84 
L 518.4 51.84 
" style="fill:none;stroke:#000000;stroke-linecap:square;stroke-linejoin:miter;stroke-width:0.8;"/>
   </g>
   <g id="text_17">
    <!-- Doubling Time -->
    <defs>
     <path d="M 48.6875 27.296875 
Q 48.6875 37.203125 44.609375 42.84375 
Q 40.53125 48.484375 33.40625 48.484375 
Q 26.265625 48.484375 22.1875 42.84375 
Q 18.109375 37.203125 18.109375 27.296875 
Q 18.109375 17.390625 22.1875 11.75 
Q 26.265625 6.109375 33.40625 6.109375 
Q 40.53125 6.109375 44.609375 11.75 
Q 48.6875 17.390625 48.6875 27.296875 
z
M 18.109375 46.390625 
Q 20.953125 51.265625 25.265625 53.625 
Q 29.59375 56 35.59375 56 
Q 45.5625 56 51.78125 48.09375 
Q 58.015625 40.1875 58.015625 27.296875 
Q 58.015625 14.40625 51.78125 6.484375 
Q 45.5625 -1.421875 35.59375 -1.421875 
Q 29.59375 -1.421875 25.265625 0.953125 
Q 20.953125 3.328125 18.109375 8.203125 
L 18.109375 0 
L 9.078125 0 
L 9.078125 75.984375 
L 18.109375 75.984375 
z
" id="DejaVuSans-98"/>
     <path d="M 9.421875 75.984375 
L 18.40625 75.984375 
L 18.40625 0 
L 9.421875 0 
z
" id="DejaVuSans-108"/>
     <path d="M 45.40625 27.984375 
Q 45.40625 37.75 41.375 43.109375 
Q 37.359375 48.484375 30.078125 48.484375 
Q 22.859375 48.484375 18.828125 43.109375 
Q 14.796875 37.75 14.796875 27.984375 
Q 14.796875 18.265625 18.828125 12.890625 
Q 22.859375 7.515625 30.078125 7.515625 
Q 37.359375 7.515625 41.375 12.890625 
Q 45.40625 18.265625 45.40625 27.984375 
z
M 54.390625 6.78125 
Q 54.390625 -7.171875 48.1875 -13.984375 
Q 42 -20.796875 29.203125 -20.796875 
Q 24.46875 -20.796875 20.265625 -20.09375 
Q 16.0625 -19.390625 12.109375 -17.921875 
L 12.109375 -9.1875 
Q 16.0625 -11.328125 19.921875 -12.34375 
Q 23.78125 -13.375 27.78125 -13.375 
Q 36.625 -13.375 41.015625 -8.765625 
Q 45.40625 -4.15625 45.40625 5.171875 
L 45.40625 9.625 
Q 42.625 4.78125 38.28125 2.390625 
Q 33.9375 0 27.875 0 
Q 17.828125 0 11.671875 7.65625 
Q 5.515625 15.328125 5.515625 27.984375 
Q 5.515625 40.671875 11.671875 48.328125 
Q 17.828125 56 27.875 56 
Q 33.9375 56 38.28125 53.609375 
Q 42.625 51.21875 45.40625 46.390625 
L 45.40625 54.6875 
L 54.390625 54.6875 
z
" id="DejaVuSans-103"/>
     <path d="M -0.296875 72.90625 
L 61.375 72.90625 
L 61.375 64.59375 
L 35.5 64.59375 
L 35.5 0 
L 25.59375 0 
L 25.59375 64.59375 
L -0.296875 64.59375 
z
" id="DejaVuSans-84"/>
     <path d="M 52 44.1875 
Q 55.375 50.25 60.0625 53.125 
Q 64.75 56 71.09375 56 
Q 79.640625 56 84.28125 50.015625 
Q 88.921875 44.046875 88.921875 33.015625 
L 88.921875 0 
L 79.890625 0 
L 79.890625 32.71875 
Q 79.890625 40.578125 77.09375 44.375 
Q 74.3125 48.1875 68.609375 48.1875 
Q 61.625 48.1875 57.5625 43.546875 
Q 53.515625 38.921875 53.515625 30.90625 
L 53.515625 0 
L 44.484375 0 
L 44.484375 32.71875 
Q 44.484375 40.625 41.703125 44.40625 
Q 38.921875 48.1875 33.109375 48.1875 
Q 26.21875 48.1875 22.15625 43.53125 
Q 18.109375 38.875 18.109375 30.90625 
L 18.109375 0 
L 9.078125 0 
L 9.078125 54.6875 
L 18.109375 54.6875 
L 18.109375 46.1875 
Q 21.1875 51.21875 25.484375 53.609375 
Q 29.78125 56 35.6875 56 
Q 41.65625 56 45.828125 52.96875 
Q 50 49.953125 52 44.1875 
z
" id="DejaVuSans-109"/>
    </defs>
    <g transform="translate(251.764687 45.84)scale(0.12 -0.12)">
     <use xlink:href="#DejaVuSans-68"/>
     <use x="77.001953" xlink:href="#DejaVuSans-111"/>
     <use x="138.183594" xlink:href="#DejaVuSans-117"/>
     <use x="201.5625" xlink:href="#DejaVuSans-98"/>
     <use x="265.039062" xlink:href="#DejaVuSans-108"/>
     <use x="292.822266" xlink:href="#DejaVuSans-105"/>
     <use x="320.605469" xlink:href="#DejaVuSans-110"/>
     <use x="383.984375" xlink:href="#DejaVuSans-103"/>
     <use x="447.460938" xlink:href="#DejaVuSans-32"/>
     <use x="479.248047" xlink:href="#DejaVuSans-84"/>
     <use x="537.207031" xlink:href="#DejaVuSans-105"/>
     <use x="564.990234" xlink:href="#DejaVuSans-109"/>
     <use x="662.402344" xlink:href="#DejaVuSans-101"/>
    </g>
   </g>
   <g id="legend_1">
    <g id="patch_7">
     <path d="M 235.817187 89.19625 
L 511.4 89.19625 
Q 513.4 89.19625 513.4 87.19625 
L 513.4 58.84 
Q 513.4 56.84 511.4 56.84 
L 235.817187 56.84 
Q 233.817187 56.84 233.817187 58.84 
L 233.817187 87.19625 
Q 233.817187 89.19625 235.817187 89.19625 
z
" style="fill:#ffffff;opacity:0.8;stroke:#cccccc;stroke-linejoin:miter;"/>
    </g>
    <g id="line2d_17">
     <path d="M 237.817187 64.938437 
L 257.817187 64.938437 
" style="fill:none;stroke:#1f77b4;stroke-linecap:square;stroke-width:1.5;"/>
    </g>
    <g id="line2d_18"/>
    <g id="text_18">
     <!-- Doubling Time of Confirmed Cases (over 7 days) -->
     <defs>
      <path d="M 37.109375 75.984375 
L 37.109375 68.5 
L 28.515625 68.5 
Q 23.6875 68.5 21.796875 66.546875 
Q 19.921875 64.59375 19.921875 59.515625 
L 19.921875 54.6875 
L 34.71875 54.6875 
L 34.71875 47.703125 
L 19.921875 47.703125 
L 19.921875 0 
L 10.890625 0 
L 10.890625 47.703125 
L 2.296875 47.703125 
L 2.296875 54.6875 
L 10.890625 54.6875 
L 10.890625 58.5 
Q 10.890625 67.625 15.140625 71.796875 
Q 19.390625 75.984375 28.609375 75.984375 
z
" id="DejaVuSans-102"/>
      <path d="M 64.40625 67.28125 
L 64.40625 56.890625 
Q 59.421875 61.53125 53.78125 63.8125 
Q 48.140625 66.109375 41.796875 66.109375 
Q 29.296875 66.109375 22.65625 58.46875 
Q 16.015625 50.828125 16.015625 36.375 
Q 16.015625 21.96875 22.65625 14.328125 
Q 29.296875 6.6875 41.796875 6.6875 
Q 48.140625 6.6875 53.78125 8.984375 
Q 59.421875 11.28125 64.40625 15.921875 
L 64.40625 5.609375 
Q 59.234375 2.09375 53.4375 0.328125 
Q 47.65625 -1.421875 41.21875 -1.421875 
Q 24.65625 -1.421875 15.125 8.703125 
Q 5.609375 18.84375 5.609375 36.375 
Q 5.609375 53.953125 15.125 64.078125 
Q 24.65625 74.21875 41.21875 74.21875 
Q 47.75 74.21875 53.53125 72.484375 
Q 59.328125 70.75 64.40625 67.28125 
z
" id="DejaVuSans-67"/>
      <path d="M 31 75.875 
Q 24.46875 64.65625 21.28125 53.65625 
Q 18.109375 42.671875 18.109375 31.390625 
Q 18.109375 20.125 21.3125 9.0625 
Q 24.515625 -2 31 -13.1875 
L 23.1875 -13.1875 
Q 15.875 -1.703125 12.234375 9.375 
Q 8.59375 20.453125 8.59375 31.390625 
Q 8.59375 42.28125 12.203125 53.3125 
Q 15.828125 64.359375 23.1875 75.875 
z
" id="DejaVuSans-40"/>
      <path d="M 2.984375 54.6875 
L 12.5 54.6875 
L 29.59375 8.796875 
L 46.6875 54.6875 
L 56.203125 54.6875 
L 35.6875 0 
L 23.484375 0 
z
" id="DejaVuSans-118"/>
      <path d="M 8.015625 75.875 
L 15.828125 75.875 
Q 23.140625 64.359375 26.78125 53.3125 
Q 30.421875 42.28125 30.421875 31.390625 
Q 30.421875 20.453125 26.78125 9.375 
Q 23.140625 -1.703125 15.828125 -13.1875 
L 8.015625 -13.1875 
Q 14.5 -2 17.703125 9.0625 
Q 20.90625 20.125 20.90625 31.390625 
Q 20.90625 42.671875 17.703125 53.65625 
Q 14.5 64.65625 8.015625 75.875 
z
" id="DejaVuSans-41"/>
     </defs>
     <g transform="translate(265.817187 68.438437)scale(0.1 -0.1)">
      <use xlink:href="#DejaVuSans-68"/>
      <use x="77.001953" xlink:href="#DejaVuSans-111"/>
      <use x="138.183594" xlink:href="#DejaVuSans-117"/>
      <use x="201.5625" xlink:href="#DejaVuSans-98"/>
      <use x="265.039062" xlink:href="#DejaVuSans-108"/>
      <use x="292.822266" xlink:href="#DejaVuSans-105"/>
      <use x="320.605469" xlink:href="#DejaVuSans-110"/>
      <use x="383.984375" xlink:href="#DejaVuSans-103"/>
      <use x="447.460938" xlink:href="#DejaVuSans-32"/>
      <use x="479.248047" xlink:href="#DejaVuSans-84"/>
      <use x="537.207031" xlink:href="#DejaVuSans-105"/>
      <use x="564.990234" xlink:href="#DejaVuSans-109"/>
      <use x="662.402344" xlink:href="#DejaVuSans-101"/>
      <use x="723.925781" xlink:href="#DejaVuSans-32"/>
      <use x="755.712891" xlink:href="#DejaVuSans-111"/>
      <use x="816.894531" xlink:href="#DejaVuSans-102"/>
      <use x="852.099609" xlink:href="#DejaVuSans-32"/>
      <use x="883.886719" xlink:href="#DejaVuSans-67"/>
      <use x="953.710938" xlink:href="#DejaVuSans-111"/>
      <use x="1014.892578" xlink:href="#DejaVuSans-110"/>
      <use x="1078.271484" xlink:href="#DejaVuSans-102"/>
      <use x="1113.476562" xlink:href="#DejaVuSans-105"/>
      <use x="1141.259766" xlink:href="#DejaVuSans-114"/>
      <use x="1180.623047" xlink:href="#DejaVuSans-109"/>
      <use x="1278.035156" xlink:href="#DejaVuSans-101"/>
      <use x="1339.558594" xlink:href="#DejaVuSans-100"/>
      <use x="1403.035156" xlink:href="#DejaVuSans-32"/>
      <use x="1434.822266" xlink:href="#DejaVuSans-67"/>
      <use x="1504.646484" xlink:href="#DejaVuSans-97"/>
      <use x="1565.925781" xlink:href="#DejaVuSans-115"/>
      <use x="1618.025391" xlink:href="#DejaVuSans-101"/>
      <use x="1679.548828" xlink:href="#DejaVuSans-115"/>
      <use x="1731.648438" xlink:href="#DejaVuSans-32"/>
      <use x="1763.435547" xlink:href="#DejaVuSans-40"/>
      <use x="1802.449219" xlink:href="#DejaVuSans-111"/>
      <use x="1863.630859" xlink:href="#DejaVuSans-118"/>
      <use x="1922.810547" xlink:href="#DejaVuSans-101"/>
      <use x="1984.333984" xlink:href="#DejaVuSans-114"/>
      <use x="2025.447266" xlink:href="#DejaVuSans-32"/>
      <use x="2057.234375" xlink:href="#DejaVuSans-55"/>
      <use x="2120.857422" xlink:href="#DejaVuSans-32"/>
      <use x="2152.644531" xlink:href="#DejaVuSans-100"/>
      <use x="2216.121094" xlink:href="#DejaVuSans-97"/>
      <use x="2277.400391" xlink:href="#DejaVuSans-121"/>
      <use x="2336.580078" xlink:href="#DejaVuSans-115"/>
      <use x="2388.679688" xlink:href="#DejaVuSans-41"/>
     </g>
    </g>
    <g id="line2d_19">
     <path d="M 237.817187 79.616562 
L 257.817187 79.616562 
" style="fill:none;stroke:#ff7f0e;stroke-linecap:square;stroke-width:1.5;"/>
    </g>
    <g id="line2d_20"/>
    <g id="text_19">
     <!-- Doubling Time of Recovered Cases (over 7 days) -->
     <defs>
      <path d="M 48.78125 52.59375 
L 48.78125 44.1875 
Q 44.96875 46.296875 41.140625 47.34375 
Q 37.3125 48.390625 33.40625 48.390625 
Q 24.65625 48.390625 19.8125 42.84375 
Q 14.984375 37.3125 14.984375 27.296875 
Q 14.984375 17.28125 19.8125 11.734375 
Q 24.65625 6.203125 33.40625 6.203125 
Q 37.3125 6.203125 41.140625 7.25 
Q 44.96875 8.296875 48.78125 10.40625 
L 48.78125 2.09375 
Q 45.015625 0.34375 40.984375 -0.53125 
Q 36.96875 -1.421875 32.421875 -1.421875 
Q 20.0625 -1.421875 12.78125 6.34375 
Q 5.515625 14.109375 5.515625 27.296875 
Q 5.515625 40.671875 12.859375 48.328125 
Q 20.21875 56 33.015625 56 
Q 37.15625 56 41.109375 55.140625 
Q 45.0625 54.296875 48.78125 52.59375 
z
" id="DejaVuSans-99"/>
     </defs>
     <g transform="translate(265.817187 83.116562)scale(0.1 -0.1)">
      <use xlink:href="#DejaVuSans-68"/>
      <use x="77.001953" xlink:href="#DejaVuSans-111"/>
      <use x="138.183594" xlink:href="#DejaVuSans-117"/>
      <use x="201.5625" xlink:href="#DejaVuSans-98"/>
      <use x="265.039062" xlink:href="#DejaVuSans-108"/>
      <use x="292.822266" xlink:href="#DejaVuSans-105"/>
      <use x="320.605469" xlink:href="#DejaVuSans-110"/>
      <use x="383.984375" xlink:href="#DejaVuSans-103"/>
      <use x="447.460938" xlink:href="#DejaVuSans-32"/>
      <use x="479.248047" xlink:href="#DejaVuSans-84"/>
      <use x="537.207031" xlink:href="#DejaVuSans-105"/>
      <use x="564.990234" xlink:href="#DejaVuSans-109"/>
      <use x="662.402344" xlink:href="#DejaVuSans-101"/>
      <use x="723.925781" xlink:href="#DejaVuSans-32"/>
      <use x="755.712891" xlink:href="#DejaVuSans-111"/>
      <use x="816.894531" xlink:href="#DejaVuSans-102"/>
      <use x="852.099609" xlink:href="#DejaVuSans-32"/>
      <use x="883.886719" xlink:href="#DejaVuSans-82"/>
      <use x="948.869141" xlink:href="#DejaVuSans-101"/>
      <use x="1010.392578" xlink:href="#DejaVuSans-99"/>
      <use x="1065.373047" xlink:href="#DejaVuSans-111"/>
      <use x="1126.554688" xlink:href="#DejaVuSans-118"/>
      <use x="1185.734375" xlink:href="#DejaVuSans-101"/>
      <use x="1247.257812" xlink:href="#DejaVuSans-114"/>
      <use x="1286.121094" xlink:href="#DejaVuSans-101"/>
      <use x="1347.644531" xlink:href="#DejaVuSans-100"/>
      <use x="1411.121094" xlink:href="#DejaVuSans-32"/>
      <use x="1442.908203" xlink:href="#DejaVuSans-67"/>
      <use x="1512.732422" xlink:href="#DejaVuSans-97"/>
      <use x="1574.011719" xlink:href="#DejaVuSans-115"/>
      <use x="1626.111328" xlink:href="#DejaVuSans-101"/>
      <use x="1687.634766" xlink:href="#DejaVuSans-115"/>
      <use x="1739.734375" xlink:href="#DejaVuSans-32"/>
      <use x="1771.521484" xlink:href="#DejaVuSans-40"/>
      <use x="1810.535156" xlink:href="#DejaVuSans-111"/>
      <use x="1871.716797" xlink:href="#DejaVuSans-118"/>
      <use x="1930.896484" xlink:href="#DejaVuSans-101"/>
      <use x="1992.419922" xlink:href="#DejaVuSans-114"/>
      <use x="2033.533203" xlink:href="#DejaVuSans-32"/>
      <use x="2065.320312" xlink:href="#DejaVuSans-55"/>
      <use x="2128.943359" xlink:href="#DejaVuSans-32"/>
      <use x="2160.730469" xlink:href="#DejaVuSans-100"/>
      <use x="2224.207031" xlink:href="#DejaVuSans-97"/>
      <use x="2285.486328" xlink:href="#DejaVuSans-121"/>
      <use x="2344.666016" xlink:href="#DejaVuSans-115"/>
      <use x="2396.765625" xlink:href="#DejaVuSans-41"/>
     </g>
    </g>
   </g>
  </g>
 </g>
 <defs>
  <clipPath id="pf4da07ebfd">
   <rect height="332.64" width="446.4" x="72" y="51.84"/>
  </clipPath>
 </defs>
</svg>
