<?xml version="1.0" encoding="utf-8" standalone="no"?>
<!DOCTYPE svg PUBLIC "-//W3C//DTD SVG 1.1//EN"
  "http://www.w3.org/Graphics/SVG/1.1/DTD/svg11.dtd">
<!-- Created with matplotlib (https://matplotlib.org/) -->
<svg height="432pt" version="1.1" viewBox="0 0 576 432" width="576pt" xmlns="http://www.w3.org/2000/svg" xmlns:xlink="http://www.w3.org/1999/xlink">
 <defs>
  <style type="text/css">
*{stroke-linecap:butt;stroke-linejoin:round;}
  </style>
 </defs>
 <g id="figure_1">
  <g id="patch_1">
   <path d="M 0 432 
L 576 432 
L 576 0 
L 0 0 
z
" style="fill:#ffffff;"/>
  </g>
  <g id="axes_1">
   <g id="patch_2">
    <path d="M 72 384.48 
L 518.4 384.48 
L 518.4 51.84 
L 72 51.84 
z
" style="fill:#ffffff;"/>
   </g>
   <g id="matplotlib.axis_1">
    <g id="xtick_1">
     <g id="line2d_1">
      <defs>
       <path d="M 0 0 
L 0 3.5 
" id="m5199c01e17" style="stroke:#000000;stroke-width:0.8;"/>
      </defs>
      <g>
       <use style="stroke:#000000;stroke-width:0.8;" x="113.908343" xlink:href="#m5199c01e17" y="384.48"/>
      </g>
     </g>
     <g id="text_1">
      <!-- 2020-03 -->
      <defs>
       <path d="M 19.1875 8.296875 
L 53.609375 8.296875 
L 53.609375 0 
L 7.328125 0 
L 7.328125 8.296875 
Q 12.9375 14.109375 22.625 23.890625 
Q 32.328125 33.6875 34.8125 36.53125 
Q 39.546875 41.84375 41.421875 45.53125 
Q 43.3125 49.21875 43.3125 52.78125 
Q 43.3125 58.59375 39.234375 62.25 
Q 35.15625 65.921875 28.609375 65.921875 
Q 23.96875 65.921875 18.8125 64.3125 
Q 13.671875 62.703125 7.8125 59.421875 
L 7.8125 69.390625 
Q 13.765625 71.78125 18.9375 73 
Q 24.125 74.21875 28.421875 74.21875 
Q 39.75 74.21875 46.484375 68.546875 
Q 53.21875 62.890625 53.21875 53.421875 
Q 53.21875 48.921875 51.53125 44.890625 
Q 49.859375 40.875 45.40625 35.40625 
Q 44.1875 33.984375 37.640625 27.21875 
Q 31.109375 20.453125 19.1875 8.296875 
z
" id="DejaVuSans-50"/>
       <path d="M 31.78125 66.40625 
Q 24.171875 66.40625 20.328125 58.90625 
Q 16.5 51.421875 16.5 36.375 
Q 16.5 21.390625 20.328125 13.890625 
Q 24.171875 6.390625 31.78125 6.390625 
Q 39.453125 6.390625 43.28125 13.890625 
Q 47.125 21.390625 47.125 36.375 
Q 47.125 51.421875 43.28125 58.90625 
Q 39.453125 66.40625 31.78125 66.40625 
z
M 31.78125 74.21875 
Q 44.046875 74.21875 50.515625 64.515625 
Q 56.984375 54.828125 56.984375 36.375 
Q 56.984375 17.96875 50.515625 8.265625 
Q 44.046875 -1.421875 31.78125 -1.421875 
Q 19.53125 -1.421875 13.0625 8.265625 
Q 6.59375 17.96875 6.59375 36.375 
Q 6.59375 54.828125 13.0625 64.515625 
Q 19.53125 74.21875 31.78125 74.21875 
z
" id="DejaVuSans-48"/>
       <path d="M 4.890625 31.390625 
L 31.203125 31.390625 
L 31.203125 23.390625 
L 4.890625 23.390625 
z
" id="DejaVuSans-45"/>
       <path d="M 40.578125 39.3125 
Q 47.65625 37.796875 51.625 33 
Q 55.609375 28.21875 55.609375 21.1875 
Q 55.609375 10.40625 48.1875 4.484375 
Q 40.765625 -1.421875 27.09375 -1.421875 
Q 22.515625 -1.421875 17.65625 -0.515625 
Q 12.796875 0.390625 7.625 2.203125 
L 7.625 11.71875 
Q 11.71875 9.328125 16.59375 8.109375 
Q 21.484375 6.890625 26.8125 6.890625 
Q 36.078125 6.890625 40.9375 10.546875 
Q 45.796875 14.203125 45.796875 21.1875 
Q 45.796875 27.640625 41.28125 31.265625 
Q 36.765625 34.90625 28.71875 34.90625 
L 20.21875 34.90625 
L 20.21875 43.015625 
L 29.109375 43.015625 
Q 36.375 43.015625 40.234375 45.921875 
Q 44.09375 48.828125 44.09375 54.296875 
Q 44.09375 59.90625 40.109375 62.90625 
Q 36.140625 65.921875 28.71875 65.921875 
Q 24.65625 65.921875 20.015625 65.03125 
Q 15.375 64.15625 9.8125 62.3125 
L 9.8125 71.09375 
Q 15.4375 72.65625 20.34375 73.4375 
Q 25.25 74.21875 29.59375 74.21875 
Q 40.828125 74.21875 47.359375 69.109375 
Q 53.90625 64.015625 53.90625 55.328125 
Q 53.90625 49.265625 50.4375 45.09375 
Q 46.96875 40.921875 40.578125 39.3125 
z
" id="DejaVuSans-51"/>
      </defs>
      <g transform="translate(93.016936 399.078438)scale(0.1 -0.1)">
       <use xlink:href="#DejaVuSans-50"/>
       <use x="63.623047" xlink:href="#DejaVuSans-48"/>
       <use x="127.246094" xlink:href="#DejaVuSans-50"/>
       <use x="190.869141" xlink:href="#DejaVuSans-48"/>
       <use x="254.492188" xlink:href="#DejaVuSans-45"/>
       <use x="290.576172" xlink:href="#DejaVuSans-48"/>
       <use x="354.199219" xlink:href="#DejaVuSans-51"/>
      </g>
     </g>
    </g>
    <g id="xtick_2">
     <g id="line2d_2">
      <g>
       <use style="stroke:#000000;stroke-width:0.8;" x="173.84759" xlink:href="#m5199c01e17" y="384.48"/>
      </g>
     </g>
     <g id="text_2">
      <!-- 2020-05 -->
      <defs>
       <path d="M 10.796875 72.90625 
L 49.515625 72.90625 
L 49.515625 64.59375 
L 19.828125 64.59375 
L 19.828125 46.734375 
Q 21.96875 47.46875 24.109375 47.828125 
Q 26.265625 48.1875 28.421875 48.1875 
Q 40.625 48.1875 47.75 41.5 
Q 54.890625 34.8125 54.890625 23.390625 
Q 54.890625 11.625 47.5625 5.09375 
Q 40.234375 -1.421875 26.90625 -1.421875 
Q 22.3125 -1.421875 17.546875 -0.640625 
Q 12.796875 0.140625 7.71875 1.703125 
L 7.71875 11.625 
Q 12.109375 9.234375 16.796875 8.0625 
Q 21.484375 6.890625 26.703125 6.890625 
Q 35.15625 6.890625 40.078125 11.328125 
Q 45.015625 15.765625 45.015625 23.390625 
Q 45.015625 31 40.078125 35.4375 
Q 35.15625 39.890625 26.703125 39.890625 
Q 22.75 39.890625 18.8125 39.015625 
Q 14.890625 38.140625 10.796875 36.28125 
z
" id="DejaVuSans-53"/>
      </defs>
      <g transform="translate(152.956183 399.078438)scale(0.1 -0.1)">
       <use xlink:href="#DejaVuSans-50"/>
       <use x="63.623047" xlink:href="#DejaVuSans-48"/>
       <use x="127.246094" xlink:href="#DejaVuSans-50"/>
       <use x="190.869141" xlink:href="#DejaVuSans-48"/>
       <use x="254.492188" xlink:href="#DejaVuSans-45"/>
       <use x="290.576172" xlink:href="#DejaVuSans-48"/>
       <use x="354.199219" xlink:href="#DejaVuSans-53"/>
      </g>
     </g>
    </g>
    <g id="xtick_3">
     <g id="line2d_3">
      <g>
       <use style="stroke:#000000;stroke-width:0.8;" x="233.786837" xlink:href="#m5199c01e17" y="384.48"/>
      </g>
     </g>
     <g id="text_3">
      <!-- 2020-07 -->
      <defs>
       <path d="M 8.203125 72.90625 
L 55.078125 72.90625 
L 55.078125 68.703125 
L 28.609375 0 
L 18.3125 0 
L 43.21875 64.59375 
L 8.203125 64.59375 
z
" id="DejaVuSans-55"/>
      </defs>
      <g transform="translate(212.895431 399.078438)scale(0.1 -0.1)">
       <use xlink:href="#DejaVuSans-50"/>
       <use x="63.623047" xlink:href="#DejaVuSans-48"/>
       <use x="127.246094" xlink:href="#DejaVuSans-50"/>
       <use x="190.869141" xlink:href="#DejaVuSans-48"/>
       <use x="254.492188" xlink:href="#DejaVuSans-45"/>
       <use x="290.576172" xlink:href="#DejaVuSans-48"/>
       <use x="354.199219" xlink:href="#DejaVuSans-55"/>
      </g>
     </g>
    </g>
    <g id="xtick_4">
     <g id="line2d_4">
      <g>
       <use style="stroke:#000000;stroke-width:0.8;" x="294.708695" xlink:href="#m5199c01e17" y="384.48"/>
      </g>
     </g>
     <g id="text_4">
      <!-- 2020-09 -->
      <defs>
       <path d="M 10.984375 1.515625 
L 10.984375 10.5 
Q 14.703125 8.734375 18.5 7.8125 
Q 22.3125 6.890625 25.984375 6.890625 
Q 35.75 6.890625 40.890625 13.453125 
Q 46.046875 20.015625 46.78125 33.40625 
Q 43.953125 29.203125 39.59375 26.953125 
Q 35.25 24.703125 29.984375 24.703125 
Q 19.046875 24.703125 12.671875 31.3125 
Q 6.296875 37.9375 6.296875 49.421875 
Q 6.296875 60.640625 12.9375 67.421875 
Q 19.578125 74.21875 30.609375 74.21875 
Q 43.265625 74.21875 49.921875 64.515625 
Q 56.59375 54.828125 56.59375 36.375 
Q 56.59375 19.140625 48.40625 8.859375 
Q 40.234375 -1.421875 26.421875 -1.421875 
Q 22.703125 -1.421875 18.890625 -0.6875 
Q 15.09375 0.046875 10.984375 1.515625 
z
M 30.609375 32.421875 
Q 37.25 32.421875 41.125 36.953125 
Q 45.015625 41.5 45.015625 49.421875 
Q 45.015625 57.28125 41.125 61.84375 
Q 37.25 66.40625 30.609375 66.40625 
Q 23.96875 66.40625 20.09375 61.84375 
Q 16.21875 57.28125 16.21875 49.421875 
Q 16.21875 41.5 20.09375 36.953125 
Q 23.96875 32.421875 30.609375 32.421875 
z
" id="DejaVuSans-57"/>
      </defs>
      <g transform="translate(273.817288 399.078438)scale(0.1 -0.1)">
       <use xlink:href="#DejaVuSans-50"/>
       <use x="63.623047" xlink:href="#DejaVuSans-48"/>
       <use x="127.246094" xlink:href="#DejaVuSans-50"/>
       <use x="190.869141" xlink:href="#DejaVuSans-48"/>
       <use x="254.492188" xlink:href="#DejaVuSans-45"/>
       <use x="290.576172" xlink:href="#DejaVuSans-48"/>
       <use x="354.199219" xlink:href="#DejaVuSans-57"/>
      </g>
     </g>
    </g>
    <g id="xtick_5">
     <g id="line2d_5">
      <g>
       <use style="stroke:#000000;stroke-width:0.8;" x="354.647942" xlink:href="#m5199c01e17" y="384.48"/>
      </g>
     </g>
     <g id="text_5">
      <!-- 2020-11 -->
      <defs>
       <path d="M 12.40625 8.296875 
L 28.515625 8.296875 
L 28.515625 63.921875 
L 10.984375 60.40625 
L 10.984375 69.390625 
L 28.421875 72.90625 
L 38.28125 72.90625 
L 38.28125 8.296875 
L 54.390625 8.296875 
L 54.390625 0 
L 12.40625 0 
z
" id="DejaVuSans-49"/>
      </defs>
      <g transform="translate(333.756536 399.078438)scale(0.1 -0.1)">
       <use xlink:href="#DejaVuSans-50"/>
       <use x="63.623047" xlink:href="#DejaVuSans-48"/>
       <use x="127.246094" xlink:href="#DejaVuSans-50"/>
       <use x="190.869141" xlink:href="#DejaVuSans-48"/>
       <use x="254.492188" xlink:href="#DejaVuSans-45"/>
       <use x="290.576172" xlink:href="#DejaVuSans-49"/>
       <use x="354.199219" xlink:href="#DejaVuSans-49"/>
      </g>
     </g>
    </g>
    <g id="xtick_6">
     <g id="line2d_6">
      <g>
       <use style="stroke:#000000;stroke-width:0.8;" x="414.587189" xlink:href="#m5199c01e17" y="384.48"/>
      </g>
     </g>
     <g id="text_6">
      <!-- 2021-01 -->
      <g transform="translate(393.695783 399.078438)scale(0.1 -0.1)">
       <use xlink:href="#DejaVuSans-50"/>
       <use x="63.623047" xlink:href="#DejaVuSans-48"/>
       <use x="127.246094" xlink:href="#DejaVuSans-50"/>
       <use x="190.869141" xlink:href="#DejaVuSans-49"/>
       <use x="254.492188" xlink:href="#DejaVuSans-45"/>
       <use x="290.576172" xlink:href="#DejaVuSans-48"/>
       <use x="354.199219" xlink:href="#DejaVuSans-49"/>
      </g>
     </g>
    </g>
    <g id="xtick_7">
     <g id="line2d_7">
      <g>
       <use style="stroke:#000000;stroke-width:0.8;" x="472.561215" xlink:href="#m5199c01e17" y="384.48"/>
      </g>
     </g>
     <g id="text_7">
      <!-- 2021-03 -->
      <g transform="translate(451.669809 399.078438)scale(0.1 -0.1)">
       <use xlink:href="#DejaVuSans-50"/>
       <use x="63.623047" xlink:href="#DejaVuSans-48"/>
       <use x="127.246094" xlink:href="#DejaVuSans-50"/>
       <use x="190.869141" xlink:href="#DejaVuSans-49"/>
       <use x="254.492188" xlink:href="#DejaVuSans-45"/>
       <use x="290.576172" xlink:href="#DejaVuSans-48"/>
       <use x="354.199219" xlink:href="#DejaVuSans-51"/>
      </g>
     </g>
    </g>
    <g id="text_8">
     <!-- Reported On -->
     <defs>
      <path d="M 44.390625 34.1875 
Q 47.5625 33.109375 50.5625 29.59375 
Q 53.5625 26.078125 56.59375 19.921875 
L 66.609375 0 
L 56 0 
L 46.6875 18.703125 
Q 43.0625 26.03125 39.671875 28.421875 
Q 36.28125 30.8125 30.421875 30.8125 
L 19.671875 30.8125 
L 19.671875 0 
L 9.8125 0 
L 9.8125 72.90625 
L 32.078125 72.90625 
Q 44.578125 72.90625 50.734375 67.671875 
Q 56.890625 62.453125 56.890625 51.90625 
Q 56.890625 45.015625 53.6875 40.46875 
Q 50.484375 35.9375 44.390625 34.1875 
z
M 19.671875 64.796875 
L 19.671875 38.921875 
L 32.078125 38.921875 
Q 39.203125 38.921875 42.84375 42.21875 
Q 46.484375 45.515625 46.484375 51.90625 
Q 46.484375 58.296875 42.84375 61.546875 
Q 39.203125 64.796875 32.078125 64.796875 
z
" id="DejaVuSans-82"/>
      <path d="M 56.203125 29.59375 
L 56.203125 25.203125 
L 14.890625 25.203125 
Q 15.484375 15.921875 20.484375 11.0625 
Q 25.484375 6.203125 34.421875 6.203125 
Q 39.59375 6.203125 44.453125 7.46875 
Q 49.3125 8.734375 54.109375 11.28125 
L 54.109375 2.78125 
Q 49.265625 0.734375 44.1875 -0.34375 
Q 39.109375 -1.421875 33.890625 -1.421875 
Q 20.796875 -1.421875 13.15625 6.1875 
Q 5.515625 13.8125 5.515625 26.8125 
Q 5.515625 40.234375 12.765625 48.109375 
Q 20.015625 56 32.328125 56 
Q 43.359375 56 49.78125 48.890625 
Q 56.203125 41.796875 56.203125 29.59375 
z
M 47.21875 32.234375 
Q 47.125 39.59375 43.09375 43.984375 
Q 39.0625 48.390625 32.421875 48.390625 
Q 24.90625 48.390625 20.390625 44.140625 
Q 15.875 39.890625 15.1875 32.171875 
z
" id="DejaVuSans-101"/>
      <path d="M 18.109375 8.203125 
L 18.109375 -20.796875 
L 9.078125 -20.796875 
L 9.078125 54.6875 
L 18.109375 54.6875 
L 18.109375 46.390625 
Q 20.953125 51.265625 25.265625 53.625 
Q 29.59375 56 35.59375 56 
Q 45.5625 56 51.78125 48.09375 
Q 58.015625 40.1875 58.015625 27.296875 
Q 58.015625 14.40625 51.78125 6.484375 
Q 45.5625 -1.421875 35.59375 -1.421875 
Q 29.59375 -1.421875 25.265625 0.953125 
Q 20.953125 3.328125 18.109375 8.203125 
z
M 48.6875 27.296875 
Q 48.6875 37.203125 44.609375 42.84375 
Q 40.53125 48.484375 33.40625 48.484375 
Q 26.265625 48.484375 22.1875 42.84375 
Q 18.109375 37.203125 18.109375 27.296875 
Q 18.109375 17.390625 22.1875 11.75 
Q 26.265625 6.109375 33.40625 6.109375 
Q 40.53125 6.109375 44.609375 11.75 
Q 48.6875 17.390625 48.6875 27.296875 
z
" id="DejaVuSans-112"/>
      <path d="M 30.609375 48.390625 
Q 23.390625 48.390625 19.1875 42.75 
Q 14.984375 37.109375 14.984375 27.296875 
Q 14.984375 17.484375 19.15625 11.84375 
Q 23.34375 6.203125 30.609375 6.203125 
Q 37.796875 6.203125 41.984375 11.859375 
Q 46.1875 17.53125 46.1875 27.296875 
Q 46.1875 37.015625 41.984375 42.703125 
Q 37.796875 48.390625 30.609375 48.390625 
z
M 30.609375 56 
Q 42.328125 56 49.015625 48.375 
Q 55.71875 40.765625 55.71875 27.296875 
Q 55.71875 13.875 49.015625 6.21875 
Q 42.328125 -1.421875 30.609375 -1.421875 
Q 18.84375 -1.421875 12.171875 6.21875 
Q 5.515625 13.875 5.515625 27.296875 
Q 5.515625 40.765625 12.171875 48.375 
Q 18.84375 56 30.609375 56 
z
" id="DejaVuSans-111"/>
      <path d="M 41.109375 46.296875 
Q 39.59375 47.171875 37.8125 47.578125 
Q 36.03125 48 33.890625 48 
Q 26.265625 48 22.1875 43.046875 
Q 18.109375 38.09375 18.109375 28.8125 
L 18.109375 0 
L 9.078125 0 
L 9.078125 54.6875 
L 18.109375 54.6875 
L 18.109375 46.1875 
Q 20.953125 51.171875 25.484375 53.578125 
Q 30.03125 56 36.53125 56 
Q 37.453125 56 38.578125 55.875 
Q 39.703125 55.765625 41.0625 55.515625 
z
" id="DejaVuSans-114"/>
      <path d="M 18.3125 70.21875 
L 18.3125 54.6875 
L 36.8125 54.6875 
L 36.8125 47.703125 
L 18.3125 47.703125 
L 18.3125 18.015625 
Q 18.3125 11.328125 20.140625 9.421875 
Q 21.96875 7.515625 27.59375 7.515625 
L 36.8125 7.515625 
L 36.8125 0 
L 27.59375 0 
Q 17.1875 0 13.234375 3.875 
Q 9.28125 7.765625 9.28125 18.015625 
L 9.28125 47.703125 
L 2.6875 47.703125 
L 2.6875 54.6875 
L 9.28125 54.6875 
L 9.28125 70.21875 
z
" id="DejaVuSans-116"/>
      <path d="M 45.40625 46.390625 
L 45.40625 75.984375 
L 54.390625 75.984375 
L 54.390625 0 
L 45.40625 0 
L 45.40625 8.203125 
Q 42.578125 3.328125 38.25 0.953125 
Q 33.9375 -1.421875 27.875 -1.421875 
Q 17.96875 -1.421875 11.734375 6.484375 
Q 5.515625 14.40625 5.515625 27.296875 
Q 5.515625 40.1875 11.734375 48.09375 
Q 17.96875 56 27.875 56 
Q 33.9375 56 38.25 53.625 
Q 42.578125 51.265625 45.40625 46.390625 
z
M 14.796875 27.296875 
Q 14.796875 17.390625 18.875 11.75 
Q 22.953125 6.109375 30.078125 6.109375 
Q 37.203125 6.109375 41.296875 11.75 
Q 45.40625 17.390625 45.40625 27.296875 
Q 45.40625 37.203125 41.296875 42.84375 
Q 37.203125 48.484375 30.078125 48.484375 
Q 22.953125 48.484375 18.875 42.84375 
Q 14.796875 37.203125 14.796875 27.296875 
z
" id="DejaVuSans-100"/>
      <path id="DejaVuSans-32"/>
      <path d="M 39.40625 66.21875 
Q 28.65625 66.21875 22.328125 58.203125 
Q 16.015625 50.203125 16.015625 36.375 
Q 16.015625 22.609375 22.328125 14.59375 
Q 28.65625 6.59375 39.40625 6.59375 
Q 50.140625 6.59375 56.421875 14.59375 
Q 62.703125 22.609375 62.703125 36.375 
Q 62.703125 50.203125 56.421875 58.203125 
Q 50.140625 66.21875 39.40625 66.21875 
z
M 39.40625 74.21875 
Q 54.734375 74.21875 63.90625 63.9375 
Q 73.09375 53.65625 73.09375 36.375 
Q 73.09375 19.140625 63.90625 8.859375 
Q 54.734375 -1.421875 39.40625 -1.421875 
Q 24.03125 -1.421875 14.8125 8.828125 
Q 5.609375 19.09375 5.609375 36.375 
Q 5.609375 53.65625 14.8125 63.9375 
Q 24.03125 74.21875 39.40625 74.21875 
z
" id="DejaVuSans-79"/>
      <path d="M 54.890625 33.015625 
L 54.890625 0 
L 45.90625 0 
L 45.90625 32.71875 
Q 45.90625 40.484375 42.875 44.328125 
Q 39.84375 48.1875 33.796875 48.1875 
Q 26.515625 48.1875 22.3125 43.546875 
Q 18.109375 38.921875 18.109375 30.90625 
L 18.109375 0 
L 9.078125 0 
L 9.078125 54.6875 
L 18.109375 54.6875 
L 18.109375 46.1875 
Q 21.34375 51.125 25.703125 53.5625 
Q 30.078125 56 35.796875 56 
Q 45.21875 56 50.046875 50.171875 
Q 54.890625 44.34375 54.890625 33.015625 
z
" id="DejaVuSans-110"/>
     </defs>
     <g transform="translate(263.680469 412.756563)scale(0.1 -0.1)">
      <use xlink:href="#DejaVuSans-82"/>
      <use x="64.982422" xlink:href="#DejaVuSans-101"/>
      <use x="126.505859" xlink:href="#DejaVuSans-112"/>
      <use x="189.982422" xlink:href="#DejaVuSans-111"/>
      <use x="251.164062" xlink:href="#DejaVuSans-114"/>
      <use x="292.277344" xlink:href="#DejaVuSans-116"/>
      <use x="331.486328" xlink:href="#DejaVuSans-101"/>
      <use x="393.009766" xlink:href="#DejaVuSans-100"/>
      <use x="456.486328" xlink:href="#DejaVuSans-32"/>
      <use x="488.273438" xlink:href="#DejaVuSans-79"/>
      <use x="566.984375" xlink:href="#DejaVuSans-110"/>
     </g>
    </g>
   </g>
   <g id="matplotlib.axis_2">
    <g id="ytick_1">
     <g id="line2d_8">
      <defs>
       <path d="M 0 0 
L -3.5 0 
" id="me29c685531" style="stroke:#000000;stroke-width:0.8;"/>
      </defs>
      <g>
       <use style="stroke:#000000;stroke-width:0.8;" x="72" xlink:href="#me29c685531" y="371.443533"/>
      </g>
     </g>
     <g id="text_9">
      <!--   0 -->
      <g transform="translate(52.28125 375.242752)scale(0.1 -0.1)">
       <use xlink:href="#DejaVuSans-32"/>
       <use x="31.787109" xlink:href="#DejaVuSans-32"/>
       <use x="63.574219" xlink:href="#DejaVuSans-48"/>
      </g>
     </g>
    </g>
    <g id="ytick_2">
     <g id="line2d_9">
      <g>
       <use style="stroke:#000000;stroke-width:0.8;" x="72" xlink:href="#me29c685531" y="319.078002"/>
      </g>
     </g>
     <g id="text_10">
      <!--  50 -->
      <g transform="translate(49.096875 322.877221)scale(0.1 -0.1)">
       <use xlink:href="#DejaVuSans-32"/>
       <use x="31.787109" xlink:href="#DejaVuSans-53"/>
       <use x="95.410156" xlink:href="#DejaVuSans-48"/>
      </g>
     </g>
    </g>
    <g id="ytick_3">
     <g id="line2d_10">
      <g>
       <use style="stroke:#000000;stroke-width:0.8;" x="72" xlink:href="#me29c685531" y="266.712471"/>
      </g>
     </g>
     <g id="text_11">
      <!-- 100 -->
      <g transform="translate(45.9125 270.51169)scale(0.1 -0.1)">
       <use xlink:href="#DejaVuSans-49"/>
       <use x="63.623047" xlink:href="#DejaVuSans-48"/>
       <use x="127.246094" xlink:href="#DejaVuSans-48"/>
      </g>
     </g>
    </g>
    <g id="ytick_4">
     <g id="line2d_11">
      <g>
       <use style="stroke:#000000;stroke-width:0.8;" x="72" xlink:href="#me29c685531" y="214.34694"/>
      </g>
     </g>
     <g id="text_12">
      <!-- 150 -->
      <g transform="translate(45.9125 218.146159)scale(0.1 -0.1)">
       <use xlink:href="#DejaVuSans-49"/>
       <use x="63.623047" xlink:href="#DejaVuSans-53"/>
       <use x="127.246094" xlink:href="#DejaVuSans-48"/>
      </g>
     </g>
    </g>
    <g id="ytick_5">
     <g id="line2d_12">
      <g>
       <use style="stroke:#000000;stroke-width:0.8;" x="72" xlink:href="#me29c685531" y="161.981409"/>
      </g>
     </g>
     <g id="text_13">
      <!-- 200 -->
      <g transform="translate(45.9125 165.780628)scale(0.1 -0.1)">
       <use xlink:href="#DejaVuSans-50"/>
       <use x="63.623047" xlink:href="#DejaVuSans-48"/>
       <use x="127.246094" xlink:href="#DejaVuSans-48"/>
      </g>
     </g>
    </g>
    <g id="ytick_6">
     <g id="line2d_13">
      <g>
       <use style="stroke:#000000;stroke-width:0.8;" x="72" xlink:href="#me29c685531" y="109.615879"/>
      </g>
     </g>
     <g id="text_14">
      <!-- 250 -->
      <g transform="translate(45.9125 113.415097)scale(0.1 -0.1)">
       <use xlink:href="#DejaVuSans-50"/>
       <use x="63.623047" xlink:href="#DejaVuSans-53"/>
       <use x="127.246094" xlink:href="#DejaVuSans-48"/>
      </g>
     </g>
    </g>
    <g id="ytick_7">
     <g id="line2d_14">
      <g>
       <use style="stroke:#000000;stroke-width:0.8;" x="72" xlink:href="#me29c685531" y="57.250348"/>
      </g>
     </g>
     <g id="text_15">
      <!-- 300 -->
      <g transform="translate(45.9125 61.049567)scale(0.1 -0.1)">
       <use xlink:href="#DejaVuSans-51"/>
       <use x="63.623047" xlink:href="#DejaVuSans-48"/>
       <use x="127.246094" xlink:href="#DejaVuSans-48"/>
      </g>
     </g>
    </g>
    <g id="text_16">
     <!-- Duration [days] -->
     <defs>
      <path d="M 19.671875 64.796875 
L 19.671875 8.109375 
L 31.59375 8.109375 
Q 46.6875 8.109375 53.6875 14.9375 
Q 60.6875 21.78125 60.6875 36.53125 
Q 60.6875 51.171875 53.6875 57.984375 
Q 46.6875 64.796875 31.59375 64.796875 
z
M 9.8125 72.90625 
L 30.078125 72.90625 
Q 51.265625 72.90625 61.171875 64.09375 
Q 71.09375 55.28125 71.09375 36.53125 
Q 71.09375 17.671875 61.125 8.828125 
Q 51.171875 0 30.078125 0 
L 9.8125 0 
z
" id="DejaVuSans-68"/>
      <path d="M 8.5 21.578125 
L 8.5 54.6875 
L 17.484375 54.6875 
L 17.484375 21.921875 
Q 17.484375 14.15625 20.5 10.265625 
Q 23.53125 6.390625 29.59375 6.390625 
Q 36.859375 6.390625 41.078125 11.03125 
Q 45.3125 15.671875 45.3125 23.6875 
L 45.3125 54.6875 
L 54.296875 54.6875 
L 54.296875 0 
L 45.3125 0 
L 45.3125 8.40625 
Q 42.046875 3.421875 37.71875 1 
Q 33.40625 -1.421875 27.6875 -1.421875 
Q 18.265625 -1.421875 13.375 4.4375 
Q 8.5 10.296875 8.5 21.578125 
z
M 31.109375 56 
z
" id="DejaVuSans-117"/>
      <path d="M 34.28125 27.484375 
Q 23.390625 27.484375 19.1875 25 
Q 14.984375 22.515625 14.984375 16.5 
Q 14.984375 11.71875 18.140625 8.90625 
Q 21.296875 6.109375 26.703125 6.109375 
Q 34.1875 6.109375 38.703125 11.40625 
Q 43.21875 16.703125 43.21875 25.484375 
L 43.21875 27.484375 
z
M 52.203125 31.203125 
L 52.203125 0 
L 43.21875 0 
L 43.21875 8.296875 
Q 40.140625 3.328125 35.546875 0.953125 
Q 30.953125 -1.421875 24.3125 -1.421875 
Q 15.921875 -1.421875 10.953125 3.296875 
Q 6 8.015625 6 15.921875 
Q 6 25.140625 12.171875 29.828125 
Q 18.359375 34.515625 30.609375 34.515625 
L 43.21875 34.515625 
L 43.21875 35.40625 
Q 43.21875 41.609375 39.140625 45 
Q 35.0625 48.390625 27.6875 48.390625 
Q 23 48.390625 18.546875 47.265625 
Q 14.109375 46.140625 10.015625 43.890625 
L 10.015625 52.203125 
Q 14.9375 54.109375 19.578125 55.046875 
Q 24.21875 56 28.609375 56 
Q 40.484375 56 46.34375 49.84375 
Q 52.203125 43.703125 52.203125 31.203125 
z
" id="DejaVuSans-97"/>
      <path d="M 9.421875 54.6875 
L 18.40625 54.6875 
L 18.40625 0 
L 9.421875 0 
z
M 9.421875 75.984375 
L 18.40625 75.984375 
L 18.40625 64.59375 
L 9.421875 64.59375 
z
" id="DejaVuSans-105"/>
      <path d="M 8.59375 75.984375 
L 29.296875 75.984375 
L 29.296875 69 
L 17.578125 69 
L 17.578125 -6.203125 
L 29.296875 -6.203125 
L 29.296875 -13.1875 
L 8.59375 -13.1875 
z
" id="DejaVuSans-91"/>
      <path d="M 32.171875 -5.078125 
Q 28.375 -14.84375 24.75 -17.8125 
Q 21.140625 -20.796875 15.09375 -20.796875 
L 7.90625 -20.796875 
L 7.90625 -13.28125 
L 13.1875 -13.28125 
Q 16.890625 -13.28125 18.9375 -11.515625 
Q 21 -9.765625 23.484375 -3.21875 
L 25.09375 0.875 
L 2.984375 54.6875 
L 12.5 54.6875 
L 29.59375 11.921875 
L 46.6875 54.6875 
L 56.203125 54.6875 
z
" id="DejaVuSans-121"/>
      <path d="M 44.28125 53.078125 
L 44.28125 44.578125 
Q 40.484375 46.53125 36.375 47.5 
Q 32.28125 48.484375 27.875 48.484375 
Q 21.1875 48.484375 17.84375 46.4375 
Q 14.5 44.390625 14.5 40.28125 
Q 14.5 37.15625 16.890625 35.375 
Q 19.28125 33.59375 26.515625 31.984375 
L 29.59375 31.296875 
Q 39.15625 29.25 43.1875 25.515625 
Q 47.21875 21.78125 47.21875 15.09375 
Q 47.21875 7.46875 41.1875 3.015625 
Q 35.15625 -1.421875 24.609375 -1.421875 
Q 20.21875 -1.421875 15.453125 -0.5625 
Q 10.6875 0.296875 5.421875 2 
L 5.421875 11.28125 
Q 10.40625 8.6875 15.234375 7.390625 
Q 20.0625 6.109375 24.8125 6.109375 
Q 31.15625 6.109375 34.5625 8.28125 
Q 37.984375 10.453125 37.984375 14.40625 
Q 37.984375 18.0625 35.515625 20.015625 
Q 33.0625 21.96875 24.703125 23.78125 
L 21.578125 24.515625 
Q 13.234375 26.265625 9.515625 29.90625 
Q 5.8125 33.546875 5.8125 39.890625 
Q 5.8125 47.609375 11.28125 51.796875 
Q 16.75 56 26.8125 56 
Q 31.78125 56 36.171875 55.265625 
Q 40.578125 54.546875 44.28125 53.078125 
z
" id="DejaVuSans-115"/>
      <path d="M 30.421875 75.984375 
L 30.421875 -13.1875 
L 9.71875 -13.1875 
L 9.71875 -6.203125 
L 21.390625 -6.203125 
L 21.390625 69 
L 9.71875 69 
L 9.71875 75.984375 
z
" id="DejaVuSans-93"/>
     </defs>
     <g transform="translate(39.832812 257.168594)rotate(-90)scale(0.1 -0.1)">
      <use xlink:href="#DejaVuSans-68"/>
      <use x="77.001953" xlink:href="#DejaVuSans-117"/>
      <use x="140.380859" xlink:href="#DejaVuSans-114"/>
      <use x="181.494141" xlink:href="#DejaVuSans-97"/>
      <use x="242.773438" xlink:href="#DejaVuSans-116"/>
      <use x="281.982422" xlink:href="#DejaVuSans-105"/>
      <use x="309.765625" xlink:href="#DejaVuSans-111"/>
      <use x="370.947266" xlink:href="#DejaVuSans-110"/>
      <use x="434.326172" xlink:href="#DejaVuSans-32"/>
      <use x="466.113281" xlink:href="#DejaVuSans-91"/>
      <use x="505.126953" xlink:href="#DejaVuSans-100"/>
      <use x="568.603516" xlink:href="#DejaVuSans-97"/>
      <use x="629.882812" xlink:href="#DejaVuSans-121"/>
      <use x="689.0625" xlink:href="#DejaVuSans-115"/>
      <use x="741.162109" xlink:href="#DejaVuSans-93"/>
     </g>
    </g>
   </g>
   <g id="line2d_15">
    <path clip-path="url(#p5678d84e49)" d="M 498.109091 309.450735 
L 497.12648 308.468955 
L 496.14387 306.011792 
L 495.161259 302.121233 
L 494.178648 299.330197 
L 493.196038 297.619107 
L 492.213427 293.899369 
L 491.230817 289.130388 
L 489.265595 277.663796 
L 487.300374 269.79398 
L 486.317764 264.283564 
L 485.335153 257.041864 
L 483.369932 243.673399 
L 480.4221 220.972887 
L 479.439489 216.913783 
L 477.474268 195.792622 
L 476.491657 191.276202 
L 475.509047 187.792727 
L 474.526436 186.414717 
L 473.543826 184.279312 
L 472.561215 176.708634 
L 471.578604 180.734225 
L 470.595994 178.56065 
L 469.613383 170.167046 
L 468.630773 159.842112 
L 467.648162 152.154765 
L 466.665551 146.163942 
L 465.682941 146.317029 
L 464.70033 135.856425 
L 463.71772 137.441249 
L 462.735109 132.880754 
L 461.752498 136.18379 
L 460.769888 136.588415 
L 459.787277 140.143568 
L 458.804667 137.706556 
L 457.822056 138.447637 
L 456.839445 136.633822 
L 455.856835 137.057091 
L 454.874224 135.287191 
L 453.891613 133.114763 
L 452.909003 132.272342 
L 451.926392 139.992049 
L 450.943782 140.104923 
L 449.961171 146.951075 
L 448.97856 150.90531 
L 447.99595 150.778096 
L 447.013339 143.604662 
L 446.030729 161.807907 
L 445.048118 155.370183 
L 444.065507 151.031833 
L 443.082897 148.887643 
L 442.100286 143.750452 
L 441.117676 150.97461 
L 440.135065 162.34473 
L 439.152454 156.536714 
L 438.169844 160.173786 
L 437.187233 173.50998 
L 436.204622 173.436959 
L 435.222012 177.950145 
L 434.239401 176.865883 
L 433.256791 179.43605 
L 432.27418 173.917491 
L 431.291569 177.117704 
L 430.308959 176.24584 
L 429.326348 177.096329 
L 428.343738 176.37237 
L 427.361127 172.915595 
L 426.378516 164.345354 
L 425.395906 157.776204 
L 424.413295 146.876337 
L 423.430685 122.872625 
L 421.465463 67.511306 
L 420.482853 68.136061 
L 419.500242 75.895109 
L 418.517632 75.15936 
L 417.535021 73.682532 
L 416.55241 67.099624 
L 415.5698 67.284485 
L 414.587189 79.442397 
L 413.604578 84.780645 
L 411.639357 98.563585 
L 410.656747 112.104742 
L 409.674136 137.148159 
L 408.691525 156.19815 
L 407.708915 158.380911 
L 406.726304 163.76983 
L 405.743694 159.590818 
L 404.761083 159.361249 
L 403.778472 155.921211 
L 402.795862 148.734138 
L 401.813251 133.994198 
L 400.830641 130.003705 
L 399.84803 114.360786 
L 398.865419 112.762217 
L 397.882809 120.034199 
L 396.900198 128.243952 
L 395.917587 134.903564 
L 394.934977 151.62482 
L 393.952366 161.207494 
L 392.969756 150.065731 
L 391.987145 143.483541 
L 391.004534 145.431425 
L 390.021924 144.026605 
L 389.039313 149.453438 
L 388.056703 156.917831 
L 387.074092 160.979724 
L 386.091481 174.587259 
L 385.108871 180.727709 
L 384.12626 177.261689 
L 383.14365 174.525445 
L 382.161039 175.878708 
L 380.195818 174.17277 
L 379.213207 175.224509 
L 378.230597 174.97498 
L 377.247986 178.884026 
L 376.265375 180.029145 
L 375.282765 179.802382 
L 374.300154 172.180376 
L 373.317543 169.923815 
L 372.334933 175.623277 
L 371.352322 177.573808 
L 370.369712 183.36069 
L 369.387101 186.551527 
L 368.40449 192.52183 
L 367.42188 206.792838 
L 366.439269 214.259764 
L 364.474048 220.022767 
L 363.491437 212.26263 
L 362.508827 218.470473 
L 361.526216 221.978647 
L 360.543606 222.34036 
L 359.560995 219.006258 
L 358.578384 218.794501 
L 357.595774 221.413264 
L 356.613163 233.279816 
L 355.630552 231.411801 
L 354.647942 224.853761 
L 353.665331 223.775226 
L 352.682721 227.026316 
L 351.70011 226.826855 
L 350.717499 226.267865 
L 349.734889 220.336369 
L 348.752278 222.085764 
L 347.769668 233.418965 
L 346.787057 234.990302 
L 345.804446 241.327228 
L 344.821836 251.906597 
L 343.839225 256.446402 
L 342.856615 259.501569 
L 341.874004 262.03218 
L 340.891393 268.752847 
L 339.908783 270.231805 
L 338.926172 268.37496 
L 337.943562 268.351992 
L 336.960951 269.438482 
L 335.97834 275.675258 
L 334.99573 277.153763 
L 334.013119 271.269248 
L 333.030508 276.343019 
L 332.047898 279.616977 
L 331.065287 278.849216 
L 330.082677 280.290037 
L 329.100066 278.903076 
L 328.117455 279.201791 
L 327.134845 283.952764 
L 326.152234 283.865525 
L 325.169624 280.718153 
L 324.187013 281.518273 
L 323.204402 281.036319 
L 322.221792 283.904115 
L 321.239181 282.319067 
L 320.256571 285.221047 
L 319.27396 287.62511 
L 318.291349 296.95686 
L 317.308739 299.969772 
L 316.326128 304.531723 
L 315.343517 307.408403 
L 314.360907 312.979995 
L 313.378296 316.580569 
L 312.395686 317.389024 
L 311.413075 320.188298 
L 310.430464 322.317329 
L 309.447854 323.761775 
L 308.465243 323.74015 
L 307.482633 323.922607 
L 306.500022 318.009253 
L 305.517411 317.40706 
L 304.534801 312.129897 
L 303.55219 312.081226 
L 302.56958 307.050579 
L 301.586969 304.271097 
L 300.604358 305.913752 
L 299.621748 313.256197 
L 298.639137 318.063762 
L 297.656527 321.317582 
L 296.673916 322.810252 
L 295.691305 325.882483 
L 294.708695 331.624725 
L 293.726084 331.439733 
L 292.743473 333.93531 
L 291.760863 331.831865 
L 290.778252 334.503488 
L 289.795642 335.776592 
L 288.813031 337.715732 
L 287.83042 337.842317 
L 286.84781 340.54432 
L 285.865199 339.703944 
L 284.882589 341.25411 
L 283.899978 341.411633 
L 282.917367 344.038474 
L 281.934757 344.292859 
L 280.952146 344.728362 
L 279.969536 343.675965 
L 278.986925 347.568483 
L 278.004314 347.857083 
L 277.021704 348.45341 
L 276.039093 347.001636 
L 275.056483 347.408688 
L 274.073872 347.398366 
L 273.091261 350.820198 
L 272.108651 349.021439 
L 271.12604 351.228858 
L 270.143429 352.522304 
L 269.160819 353.569486 
L 268.178208 354.425774 
L 267.195598 353.965484 
L 266.212987 351.488515 
L 265.230376 350.667538 
L 264.247766 348.53325 
L 263.265155 345.654043 
L 262.282545 343.390829 
L 261.299934 340.8268 
L 260.317323 340.756126 
L 259.334713 341.974543 
L 258.352102 342.231645 
L 257.369492 343.302327 
L 256.386881 344.808289 
L 255.40427 344.901512 
L 254.42166 346.34279 
L 253.439049 346.50787 
L 252.456438 344.26228 
L 251.473828 343.085876 
L 250.491217 343.756898 
L 249.508607 341.958337 
L 248.525996 340.964158 
L 247.543385 338.468862 
L 246.560775 343.467173 
L 244.595554 349.911128 
L 243.612943 351.498515 
L 242.630332 352.360899 
L 241.647722 353.435713 
L 240.665111 352.138209 
L 239.682501 350.242594 
L 238.69989 349.930694 
L 237.717279 348.159546 
L 236.734669 343.451348 
L 235.752058 340.966973 
L 234.769448 339.312668 
L 233.786837 342.214601 
L 232.804226 340.183759 
L 231.821616 341.526951 
L 230.839005 340.346918 
L 229.856394 340.961587 
L 228.873784 342.857485 
L 227.891173 341.80962 
L 226.908563 341.242899 
L 225.925952 341.633736 
L 224.943341 337.103791 
L 223.960731 336.637098 
L 222.97812 336.409565 
L 221.99551 334.297367 
L 221.012899 334.701846 
L 220.030288 334.202212 
L 219.047678 337.770137 
L 218.065067 339.66804 
L 217.082457 341.038766 
L 216.099846 341.852504 
L 215.117235 343.429802 
L 214.134625 341.307158 
L 213.152014 343.430588 
L 212.169403 344.458262 
L 211.186793 343.930654 
L 210.204182 344.493771 
L 209.221572 347.367644 
L 208.238961 347.458511 
L 207.25635 352.132368 
L 206.27374 352.382748 
L 205.291129 351.428191 
L 204.308519 351.806281 
L 203.325908 351.04366 
L 201.360687 345.875968 
L 200.378076 336.911337 
L 199.395466 331.843186 
L 198.412855 330.512897 
L 197.430244 328.223983 
L 196.447634 326.81153 
L 195.465023 326.109723 
L 194.482413 327.792721 
L 192.517191 331.766008 
L 191.534581 332.367842 
L 190.55197 334.080441 
L 189.569359 336.695153 
L 188.586749 336.795167 
L 187.604138 335.943381 
L 186.621528 334.314524 
L 185.638917 337.107367 
L 184.656306 339.070478 
L 183.673696 338.501684 
L 182.691085 338.774825 
L 181.708475 341.641428 
L 180.725864 342.255363 
L 179.743253 345.373094 
L 177.778032 345.195063 
L 176.795422 345.48762 
L 175.812811 345.197934 
L 174.8302 345.943396 
L 172.864979 345.084322 
L 171.882368 345.925628 
L 170.899758 343.945591 
L 169.917147 343.717106 
L 168.934537 344.527216 
L 167.951926 342.991038 
L 166.969315 345.895099 
L 165.986705 346.857605 
L 165.004094 346.584868 
L 163.038873 352.243328 
L 162.056262 354.006918 
L 161.073652 355.113844 
L 160.091041 356.018978 
L 159.108431 355.605229 
L 158.12582 356.264518 
L 157.143209 355.571296 
L 156.160599 354.046885 
L 155.177988 356.929296 
L 154.195378 356.908354 
L 153.212767 355.651826 
L 152.230156 359.455683 
L 151.247546 361.228699 
L 150.264935 362.489997 
L 149.282324 365.191056 
L 148.299714 364.951453 
L 147.317103 366.282171 
L 146.334493 367.252969 
L 143.386661 367.266006 
L 142.40405 366.883097 
L 141.42144 367.232038 
L 140.438829 367.035727 
L 139.456218 367.026129 
L 136.508387 366.394692 
L 135.525776 366.782598 
L 134.543165 365.999557 
L 133.560555 366.093689 
L 132.577944 367.11823 
L 131.595333 367.534888 
L 130.612723 367.504149 
L 129.630112 368.164404 
L 128.647502 368.502963 
L 127.664891 369.174353 
L 126.68228 369.36 
L 125.69967 369.106109 
L 124.717059 369.319835 
L 123.734449 369.281574 
L 122.751838 368.979173 
L 121.769227 368.416479 
L 120.786617 366.869481 
L 119.804006 363.755099 
L 118.821396 361.13704 
M 97.203962 358.551244 
L 93.27352 358.551244 
L 92.290909 366.463923 
L 92.290909 366.463923 
" style="fill:none;stroke:#1f77b4;stroke-linecap:square;stroke-width:1.5;"/>
   </g>
   <g id="line2d_16">
    <path clip-path="url(#p5678d84e49)" d="M 498.109091 215.514905 
L 497.12648 216.568484 
L 496.14387 214.57899 
L 495.161259 213.753193 
L 494.178648 207.795733 
L 493.196038 203.635473 
L 492.213427 203.358097 
L 491.230817 187.035228 
L 490.248206 183.149279 
L 489.265595 181.597058 
L 488.282985 181.057532 
L 487.300374 179.238856 
L 486.317764 179.38675 
L 485.335153 179.329773 
L 484.352542 138.316862 
L 483.369932 136.195536 
L 482.387321 134.851729 
L 481.404711 132.550827 
L 480.4221 134.720564 
L 479.439489 133.677568 
L 478.456879 134.138545 
L 477.474268 114.171116 
L 476.491657 117.658377 
L 475.509047 126.351124 
L 474.526436 136.437843 
L 473.543826 137.914924 
L 471.578604 136.061364 
L 470.595994 146.543439 
L 469.613383 147.589724 
L 468.630773 149.457272 
L 467.648162 138.044402 
L 466.665551 135.194772 
L 465.682941 134.667828 
L 464.70033 134.272968 
L 463.71772 162.313145 
L 462.735109 158.89913 
L 461.752498 153.59436 
L 460.769888 157.918001 
L 459.787277 157.480224 
L 458.804667 156.613699 
L 457.822056 155.928384 
L 456.839445 167.009824 
L 455.856835 168.130173 
L 454.874224 168.724586 
L 453.891613 166.232559 
L 452.909003 164.663658 
L 450.943782 166.253538 
L 449.961171 176.022918 
L 448.97856 175.279001 
L 447.013339 170.134896 
L 446.030729 170.331038 
L 445.048118 169.744204 
L 444.065507 166.116296 
L 443.082897 72.014131 
L 442.100286 73.114212 
L 441.117676 76.032385 
L 440.135065 90.963846 
L 439.152454 110.287573 
L 438.169844 117.546035 
L 437.187233 122.423266 
L 436.204622 66.96 
L 433.256791 93.456465 
L 432.27418 80.291911 
L 431.291569 69.342251 
L 430.308959 69.769812 
L 429.326348 151.32635 
L 428.343738 149.148531 
L 427.361127 144.834288 
L 426.378516 136.429999 
L 425.395906 135.98254 
L 424.413295 139.077405 
L 423.430685 139.388268 
L 422.448074 137.431449 
L 421.465463 131.626538 
L 420.482853 127.098923 
L 419.500242 125.549978 
L 418.517632 130.179812 
L 417.535021 133.81938 
L 416.55241 135.858231 
L 415.5698 122.071524 
L 413.604578 133.478028 
L 412.621968 139.448032 
L 411.639357 141.173245 
L 410.656747 140.715717 
L 409.674136 140.062273 
L 408.691525 153.906148 
L 407.708915 157.42421 
L 406.726304 167.023635 
L 405.743694 169.24137 
L 404.761083 166.834511 
L 403.778472 165.595897 
L 402.795862 164.894571 
L 401.813251 190.008372 
L 400.830641 185.078063 
L 399.84803 176.863314 
L 398.865419 167.576418 
L 397.882809 162.407569 
L 396.900198 161.300157 
L 395.917587 161.994268 
L 394.934977 162.428173 
L 393.952366 165.294763 
L 392.969756 160.063271 
L 391.987145 164.507234 
L 391.004534 166.068092 
L 390.021924 166.856612 
L 389.039313 166.188763 
L 388.056703 197.37453 
L 387.074092 200.618233 
L 386.091481 205.361691 
L 385.108871 205.370957 
L 384.12626 204.623389 
L 383.14365 205.573094 
L 382.161039 206.750479 
L 381.178428 216.054473 
L 380.195818 214.518907 
L 379.213207 213.991927 
L 377.247986 213.171908 
L 376.265375 213.105735 
L 375.282765 212.085389 
L 374.300154 220.721032 
L 373.317543 219.038918 
L 372.334933 221.481137 
L 371.352322 220.700273 
L 370.369712 222.870067 
L 369.387101 222.438237 
L 368.40449 223.751787 
L 367.42188 230.082607 
L 366.439269 231.002513 
L 365.456659 230.584939 
L 364.474048 233.409077 
L 363.491437 231.641936 
L 362.508827 231.716825 
L 361.526216 230.9368 
L 360.543606 280.810433 
L 359.560995 282.524464 
L 358.578384 283.459475 
L 357.595774 284.861291 
L 356.613163 286.571236 
L 355.630552 287.481539 
L 354.647942 288.130893 
L 353.665331 279.843831 
L 352.682721 279.125101 
L 351.70011 277.946959 
L 350.717499 278.649094 
L 349.734889 280.671347 
L 348.752278 280.742833 
L 347.769668 280.405713 
L 346.787057 284.258745 
L 345.804446 284.509207 
L 344.821836 286.307058 
L 343.839225 283.941033 
L 342.856615 282.183449 
L 341.874004 281.707817 
L 340.891393 281.384896 
L 339.908783 295.564653 
L 337.943562 298.32 
L 336.960951 299.496293 
L 334.013119 299.172745 
L 333.030508 306.998707 
L 332.047898 306.038126 
L 331.065287 304.285241 
L 329.100066 305.516554 
L 327.134845 306.190868 
L 326.152234 315.12231 
L 324.187013 315.717285 
L 323.204402 315.414338 
L 322.221792 315.991496 
L 321.239181 316.424618 
L 320.256571 316.998199 
L 319.27396 322.255377 
L 318.291349 323.646249 
L 317.308739 324.215298 
L 316.326128 323.66803 
L 315.343517 323.346119 
L 314.360907 322.192451 
L 313.378296 321.278201 
L 312.395686 326.828844 
L 311.413075 325.843348 
L 310.430464 325.686358 
L 309.447854 326.336883 
L 308.465243 326.151656 
L 307.482633 327.010004 
L 306.500022 327.573557 
L 305.517411 336.320236 
L 303.55219 338.121249 
L 302.56958 338.681764 
L 300.604358 339.327705 
L 299.621748 339.292851 
L 298.639137 342.775942 
L 297.656527 342.409554 
L 296.673916 341.898012 
L 295.691305 341.648591 
L 294.708695 342.35204 
L 293.726084 342.323654 
L 292.743473 342.978254 
L 291.760863 339.671049 
L 290.778252 339.446631 
L 289.795642 339.434237 
L 288.813031 339.746337 
L 287.83042 339.250505 
L 286.84781 338.892952 
L 285.865199 338.143956 
L 284.882589 360.148796 
L 282.917367 360.567848 
L 281.934757 360.871966 
L 278.986925 361.101936 
L 278.004314 301.591672 
L 277.021704 293.95502 
L 276.039093 272.889525 
L 275.056483 245.067465 
L 274.073872 227.710158 
L 273.091261 225.494604 
L 272.108651 211.118089 
L 271.12604 189.475457 
L 270.143429 170.696843 
L 269.160819 182.071916 
L 268.178208 365.429391 
L 264.247766 365.623708 
L 263.265155 365.894532 
L 262.282545 365.911056 
L 261.299934 333.008258 
L 260.317323 333.13468 
L 259.334713 333.849969 
L 258.352102 337.285704 
L 257.369492 338.17626 
L 256.386881 328.462636 
L 255.40427 331.575573 
L 254.42166 328.322391 
L 253.439049 331.755005 
L 252.456438 330.268142 
L 251.473828 355.982069 
L 250.491217 359.851518 
L 249.508607 360.860916 
L 248.525996 361.213834 
L 246.560775 360.959173 
L 245.578164 361.196704 
L 243.612943 346.104622 
L 242.630332 342.530217 
L 240.665111 343.95014 
L 239.682501 344.469941 
L 238.69989 345.929707 
L 237.717279 346.812685 
L 236.734669 344.93642 
L 234.769448 342.935987 
L 233.786837 343.936991 
L 232.804226 344.67045 
L 231.821616 345.802872 
L 229.856394 346.790686 
L 227.891173 348.842551 
L 226.908563 349.766621 
L 225.925952 351.032981 
L 224.943341 351.853123 
L 223.960731 353.057595 
L 222.97812 353.750844 
L 221.99551 354.265224 
L 220.030288 355.761016 
L 219.047678 355.42731 
L 218.065067 354.07838 
L 216.099846 350.808155 
L 215.117235 349.063527 
L 214.134625 345.083735 
L 213.152014 340.168958 
L 212.169403 337.927698 
L 211.186793 337.876957 
L 210.204182 336.616477 
L 209.221572 338.036404 
L 208.238961 337.616021 
L 207.25635 340.482967 
L 206.27374 341.076532 
L 204.308519 342.876554 
L 203.325908 343.604371 
L 202.343297 343.032908 
L 201.360687 343.600092 
L 199.395466 342.660173 
L 198.412855 343.228489 
L 197.430244 345.278596 
L 196.447634 346.822421 
L 195.465023 347.506293 
L 194.482413 348.858881 
L 193.499802 350.735536 
L 192.517191 351.856977 
L 191.534581 354.148411 
L 190.55197 354.758827 
L 189.569359 354.924375 
L 188.586749 355.66339 
L 187.604138 356.553515 
L 186.621528 357.262889 
L 185.638917 358.44059 
L 184.656306 358.462663 
L 183.673696 358.950704 
L 182.691085 360.049148 
L 181.708475 360.797212 
L 180.725864 360.267388 
L 179.743253 359.511247 
L 178.760643 357.943523 
L 177.778032 357.255773 
L 176.795422 356.322543 
L 175.812811 356.243278 
L 174.8302 356.568341 
L 173.84759 356.666332 
L 172.864979 357.268679 
L 171.882368 358.036232 
L 170.899758 358.358651 
L 169.917147 358.955267 
L 168.934537 358.693416 
L 166.969315 359.733448 
L 165.986705 361.055596 
L 165.004094 363.552968 
L 164.021484 364.704238 
L 163.038873 365.620668 
L 162.056262 366.321882 
L 161.073652 366.819319 
L 160.091041 367.01419 
L 159.108431 367.041673 
L 158.12582 367.188332 
L 156.160599 366.85009 
L 155.177988 366.569878 
L 154.195378 366.073331 
L 153.212767 365.95772 
L 152.230156 365.368223 
L 151.247546 363.295999 
L 150.264935 361.657191 
L 149.282324 361.892547 
L 148.299714 359.019946 
L 147.317103 360.66522 
L 146.334493 361.260769 
L 145.351882 362.610878 
L 144.369271 363.315087 
L 143.386661 365.416996 
L 142.40405 365.090075 
L 141.42144 366.153462 
L 140.438829 365.95772 
L 139.456218 367.339755 
L 138.473608 367.034218 
L 137.490997 368.011095 
L 136.508387 367.4259 
L 135.525776 368.784329 
L 133.560555 368.380077 
L 132.577944 367.4259 
L 131.595333 367.4259 
L 130.612723 365.542183 
L 129.630112 365.542183 
L 128.647502 363.755099 
L 122.751838 363.755099 
L 122.751838 363.755099 
" style="fill:none;stroke:#ff7f0e;stroke-linecap:square;stroke-width:1.5;"/>
   </g>
   <g id="patch_3">
    <path d="M 72 384.48 
L 72 51.84 
" style="fill:none;stroke:#000000;stroke-linecap:square;stroke-linejoin:miter;stroke-width:0.8;"/>
   </g>
   <g id="patch_4">
    <path d="M 518.4 384.48 
L 518.4 51.84 
" style="fill:none;stroke:#000000;stroke-linecap:square;stroke-linejoin:miter;stroke-width:0.8;"/>
   </g>
   <g id="patch_5">
    <path d="M 72 384.48 
L 518.4 384.48 
" style="fill:none;stroke:#000000;stroke-linecap:square;stroke-linejoin:miter;stroke-width:0.8;"/>
   </g>
   <g id="patch_6">
    <path d="M 72 51.84 
L 518.4 51.84 
" style="fill:none;stroke:#000000;stroke-linecap:square;stroke-linejoin:miter;stroke-width:0.8;"/>
   </g>
   <g id="text_17">
    <!-- Doubling Time -->
    <defs>
     <path d="M 48.6875 27.296875 
Q 48.6875 37.203125 44.609375 42.84375 
Q 40.53125 48.484375 33.40625 48.484375 
Q 26.265625 48.484375 22.1875 42.84375 
Q 18.109375 37.203125 18.109375 27.296875 
Q 18.109375 17.390625 22.1875 11.75 
Q 26.265625 6.109375 33.40625 6.109375 
Q 40.53125 6.109375 44.609375 11.75 
Q 48.6875 17.390625 48.6875 27.296875 
z
M 18.109375 46.390625 
Q 20.953125 51.265625 25.265625 53.625 
Q 29.59375 56 35.59375 56 
Q 45.5625 56 51.78125 48.09375 
Q 58.015625 40.1875 58.015625 27.296875 
Q 58.015625 14.40625 51.78125 6.484375 
Q 45.5625 -1.421875 35.59375 -1.421875 
Q 29.59375 -1.421875 25.265625 0.953125 
Q 20.953125 3.328125 18.109375 8.203125 
L 18.109375 0 
L 9.078125 0 
L 9.078125 75.984375 
L 18.109375 75.984375 
z
" id="DejaVuSans-98"/>
     <path d="M 9.421875 75.984375 
L 18.40625 75.984375 
L 18.40625 0 
L 9.421875 0 
z
" id="DejaVuSans-108"/>
     <path d="M 45.40625 27.984375 
Q 45.40625 37.75 41.375 43.109375 
Q 37.359375 48.484375 30.078125 48.484375 
Q 22.859375 48.484375 18.828125 43.109375 
Q 14.796875 37.75 14.796875 27.984375 
Q 14.796875 18.265625 18.828125 12.890625 
Q 22.859375 7.515625 30.078125 7.515625 
Q 37.359375 7.515625 41.375 12.890625 
Q 45.40625 18.265625 45.40625 27.984375 
z
M 54.390625 6.78125 
Q 54.390625 -7.171875 48.1875 -13.984375 
Q 42 -20.796875 29.203125 -20.796875 
Q 24.46875 -20.796875 20.265625 -20.09375 
Q 16.0625 -19.390625 12.109375 -17.921875 
L 12.109375 -9.1875 
Q 16.0625 -11.328125 19.921875 -12.34375 
Q 23.78125 -13.375 27.78125 -13.375 
Q 36.625 -13.375 41.015625 -8.765625 
Q 45.40625 -4.15625 45.40625 5.171875 
L 45.40625 9.625 
Q 42.625 4.78125 38.28125 2.390625 
Q 33.9375 0 27.875 0 
Q 17.828125 0 11.671875 7.65625 
Q 5.515625 15.328125 5.515625 27.984375 
Q 5.515625 40.671875 11.671875 48.328125 
Q 17.828125 56 27.875 56 
Q 33.9375 56 38.28125 53.609375 
Q 42.625 51.21875 45.40625 46.390625 
L 45.40625 54.6875 
L 54.390625 54.6875 
z
" id="DejaVuSans-103"/>
     <path d="M -0.296875 72.90625 
L 61.375 72.90625 
L 61.375 64.59375 
L 35.5 64.59375 
L 35.5 0 
L 25.59375 0 
L 25.59375 64.59375 
L -0.296875 64.59375 
z
" id="DejaVuSans-84"/>
     <path d="M 52 44.1875 
Q 55.375 50.25 60.0625 53.125 
Q 64.75 56 71.09375 56 
Q 79.640625 56 84.28125 50.015625 
Q 88.921875 44.046875 88.921875 33.015625 
L 88.921875 0 
L 79.890625 0 
L 79.890625 32.71875 
Q 79.890625 40.578125 77.09375 44.375 
Q 74.3125 48.1875 68.609375 48.1875 
Q 61.625 48.1875 57.5625 43.546875 
Q 53.515625 38.921875 53.515625 30.90625 
L 53.515625 0 
L 44.484375 0 
L 44.484375 32.71875 
Q 44.484375 40.625 41.703125 44.40625 
Q 38.921875 48.1875 33.109375 48.1875 
Q 26.21875 48.1875 22.15625 43.53125 
Q 18.109375 38.875 18.109375 30.90625 
L 18.109375 0 
L 9.078125 0 
L 9.078125 54.6875 
L 18.109375 54.6875 
L 18.109375 46.1875 
Q 21.1875 51.21875 25.484375 53.609375 
Q 29.78125 56 35.6875 56 
Q 41.65625 56 45.828125 52.96875 
Q 50 49.953125 52 44.1875 
z
" id="DejaVuSans-109"/>
    </defs>
    <g transform="translate(251.764687 45.84)scale(0.12 -0.12)">
     <use xlink:href="#DejaVuSans-68"/>
     <use x="77.001953" xlink:href="#DejaVuSans-111"/>
     <use x="138.183594" xlink:href="#DejaVuSans-117"/>
     <use x="201.5625" xlink:href="#DejaVuSans-98"/>
     <use x="265.039062" xlink:href="#DejaVuSans-108"/>
     <use x="292.822266" xlink:href="#DejaVuSans-105"/>
     <use x="320.605469" xlink:href="#DejaVuSans-110"/>
     <use x="383.984375" xlink:href="#DejaVuSans-103"/>
     <use x="447.460938" xlink:href="#DejaVuSans-32"/>
     <use x="479.248047" xlink:href="#DejaVuSans-84"/>
     <use x="537.207031" xlink:href="#DejaVuSans-105"/>
     <use x="564.990234" xlink:href="#DejaVuSans-109"/>
     <use x="662.402344" xlink:href="#DejaVuSans-101"/>
    </g>
   </g>
   <g id="legend_1">
    <g id="patch_7">
     <path d="M 79 89.19625 
L 354.582813 89.19625 
Q 356.582813 89.19625 356.582813 87.19625 
L 356.582813 58.84 
Q 356.582813 56.84 354.582813 56.84 
L 79 56.84 
Q 77 56.84 77 58.84 
L 77 87.19625 
Q 77 89.19625 79 89.19625 
z
" style="fill:#ffffff;opacity:0.8;stroke:#cccccc;stroke-linejoin:miter;"/>
    </g>
    <g id="line2d_17">
     <path d="M 81 64.938437 
L 101 64.938437 
" style="fill:none;stroke:#1f77b4;stroke-linecap:square;stroke-width:1.5;"/>
    </g>
    <g id="line2d_18"/>
    <g id="text_18">
     <!-- Doubling Time of Confirmed Cases (over 7 days) -->
     <defs>
      <path d="M 37.109375 75.984375 
L 37.109375 68.5 
L 28.515625 68.5 
Q 23.6875 68.5 21.796875 66.546875 
Q 19.921875 64.59375 19.921875 59.515625 
L 19.921875 54.6875 
L 34.71875 54.6875 
L 34.71875 47.703125 
L 19.921875 47.703125 
L 19.921875 0 
L 10.890625 0 
L 10.890625 47.703125 
L 2.296875 47.703125 
L 2.296875 54.6875 
L 10.890625 54.6875 
L 10.890625 58.5 
Q 10.890625 67.625 15.140625 71.796875 
Q 19.390625 75.984375 28.609375 75.984375 
z
" id="DejaVuSans-102"/>
      <path d="M 64.40625 67.28125 
L 64.40625 56.890625 
Q 59.421875 61.53125 53.78125 63.8125 
Q 48.140625 66.109375 41.796875 66.109375 
Q 29.296875 66.109375 22.65625 58.46875 
Q 16.015625 50.828125 16.015625 36.375 
Q 16.015625 21.96875 22.65625 14.328125 
Q 29.296875 6.6875 41.796875 6.6875 
Q 48.140625 6.6875 53.78125 8.984375 
Q 59.421875 11.28125 64.40625 15.921875 
L 64.40625 5.609375 
Q 59.234375 2.09375 53.4375 0.328125 
Q 47.65625 -1.421875 41.21875 -1.421875 
Q 24.65625 -1.421875 15.125 8.703125 
Q 5.609375 18.84375 5.609375 36.375 
Q 5.609375 53.953125 15.125 64.078125 
Q 24.65625 74.21875 41.21875 74.21875 
Q 47.75 74.21875 53.53125 72.484375 
Q 59.328125 70.75 64.40625 67.28125 
z
" id="DejaVuSans-67"/>
      <path d="M 31 75.875 
Q 24.46875 64.65625 21.28125 53.65625 
Q 18.109375 42.671875 18.109375 31.390625 
Q 18.109375 20.125 21.3125 9.0625 
Q 24.515625 -2 31 -13.1875 
L 23.1875 -13.1875 
Q 15.875 -1.703125 12.234375 9.375 
Q 8.59375 20.453125 8.59375 31.390625 
Q 8.59375 42.28125 12.203125 53.3125 
Q 15.828125 64.359375 23.1875 75.875 
z
" id="DejaVuSans-40"/>
      <path d="M 2.984375 54.6875 
L 12.5 54.6875 
L 29.59375 8.796875 
L 46.6875 54.6875 
L 56.203125 54.6875 
L 35.6875 0 
L 23.484375 0 
z
" id="DejaVuSans-118"/>
      <path d="M 8.015625 75.875 
L 15.828125 75.875 
Q 23.140625 64.359375 26.78125 53.3125 
Q 30.421875 42.28125 30.421875 31.390625 
Q 30.421875 20.453125 26.78125 9.375 
Q 23.140625 -1.703125 15.828125 -13.1875 
L 8.015625 -13.1875 
Q 14.5 -2 17.703125 9.0625 
Q 20.90625 20.125 20.90625 31.390625 
Q 20.90625 42.671875 17.703125 53.65625 
Q 14.5 64.65625 8.015625 75.875 
z
" id="DejaVuSans-41"/>
     </defs>
     <g transform="translate(109 68.438437)scale(0.1 -0.1)">
      <use xlink:href="#DejaVuSans-68"/>
      <use x="77.001953" xlink:href="#DejaVuSans-111"/>
      <use x="138.183594" xlink:href="#DejaVuSans-117"/>
      <use x="201.5625" xlink:href="#DejaVuSans-98"/>
      <use x="265.039062" xlink:href="#DejaVuSans-108"/>
      <use x="292.822266" xlink:href="#DejaVuSans-105"/>
      <use x="320.605469" xlink:href="#DejaVuSans-110"/>
      <use x="383.984375" xlink:href="#DejaVuSans-103"/>
      <use x="447.460938" xlink:href="#DejaVuSans-32"/>
      <use x="479.248047" xlink:href="#DejaVuSans-84"/>
      <use x="537.207031" xlink:href="#DejaVuSans-105"/>
      <use x="564.990234" xlink:href="#DejaVuSans-109"/>
      <use x="662.402344" xlink:href="#DejaVuSans-101"/>
      <use x="723.925781" xlink:href="#DejaVuSans-32"/>
      <use x="755.712891" xlink:href="#DejaVuSans-111"/>
      <use x="816.894531" xlink:href="#DejaVuSans-102"/>
      <use x="852.099609" xlink:href="#DejaVuSans-32"/>
      <use x="883.886719" xlink:href="#DejaVuSans-67"/>
      <use x="953.710938" xlink:href="#DejaVuSans-111"/>
      <use x="1014.892578" xlink:href="#DejaVuSans-110"/>
      <use x="1078.271484" xlink:href="#DejaVuSans-102"/>
      <use x="1113.476562" xlink:href="#DejaVuSans-105"/>
      <use x="1141.259766" xlink:href="#DejaVuSans-114"/>
      <use x="1180.623047" xlink:href="#DejaVuSans-109"/>
      <use x="1278.035156" xlink:href="#DejaVuSans-101"/>
      <use x="1339.558594" xlink:href="#DejaVuSans-100"/>
      <use x="1403.035156" xlink:href="#DejaVuSans-32"/>
      <use x="1434.822266" xlink:href="#DejaVuSans-67"/>
      <use x="1504.646484" xlink:href="#DejaVuSans-97"/>
      <use x="1565.925781" xlink:href="#DejaVuSans-115"/>
      <use x="1618.025391" xlink:href="#DejaVuSans-101"/>
      <use x="1679.548828" xlink:href="#DejaVuSans-115"/>
      <use x="1731.648438" xlink:href="#DejaVuSans-32"/>
      <use x="1763.435547" xlink:href="#DejaVuSans-40"/>
      <use x="1802.449219" xlink:href="#DejaVuSans-111"/>
      <use x="1863.630859" xlink:href="#DejaVuSans-118"/>
      <use x="1922.810547" xlink:href="#DejaVuSans-101"/>
      <use x="1984.333984" xlink:href="#DejaVuSans-114"/>
      <use x="2025.447266" xlink:href="#DejaVuSans-32"/>
      <use x="2057.234375" xlink:href="#DejaVuSans-55"/>
      <use x="2120.857422" xlink:href="#DejaVuSans-32"/>
      <use x="2152.644531" xlink:href="#DejaVuSans-100"/>
      <use x="2216.121094" xlink:href="#DejaVuSans-97"/>
      <use x="2277.400391" xlink:href="#DejaVuSans-121"/>
      <use x="2336.580078" xlink:href="#DejaVuSans-115"/>
      <use x="2388.679688" xlink:href="#DejaVuSans-41"/>
     </g>
    </g>
    <g id="line2d_19">
     <path d="M 81 79.616562 
L 101 79.616562 
" style="fill:none;stroke:#ff7f0e;stroke-linecap:square;stroke-width:1.5;"/>
    </g>
    <g id="line2d_20"/>
    <g id="text_19">
     <!-- Doubling Time of Recovered Cases (over 7 days) -->
     <defs>
      <path d="M 48.78125 52.59375 
L 48.78125 44.1875 
Q 44.96875 46.296875 41.140625 47.34375 
Q 37.3125 48.390625 33.40625 48.390625 
Q 24.65625 48.390625 19.8125 42.84375 
Q 14.984375 37.3125 14.984375 27.296875 
Q 14.984375 17.28125 19.8125 11.734375 
Q 24.65625 6.203125 33.40625 6.203125 
Q 37.3125 6.203125 41.140625 7.25 
Q 44.96875 8.296875 48.78125 10.40625 
L 48.78125 2.09375 
Q 45.015625 0.34375 40.984375 -0.53125 
Q 36.96875 -1.421875 32.421875 -1.421875 
Q 20.0625 -1.421875 12.78125 6.34375 
Q 5.515625 14.109375 5.515625 27.296875 
Q 5.515625 40.671875 12.859375 48.328125 
Q 20.21875 56 33.015625 56 
Q 37.15625 56 41.109375 55.140625 
Q 45.0625 54.296875 48.78125 52.59375 
z
" id="DejaVuSans-99"/>
     </defs>
     <g transform="translate(109 83.116562)scale(0.1 -0.1)">
      <use xlink:href="#DejaVuSans-68"/>
      <use x="77.001953" xlink:href="#DejaVuSans-111"/>
      <use x="138.183594" xlink:href="#DejaVuSans-117"/>
      <use x="201.5625" xlink:href="#DejaVuSans-98"/>
      <use x="265.039062" xlink:href="#DejaVuSans-108"/>
      <use x="292.822266" xlink:href="#DejaVuSans-105"/>
      <use x="320.605469" xlink:href="#DejaVuSans-110"/>
      <use x="383.984375" xlink:href="#DejaVuSans-103"/>
      <use x="447.460938" xlink:href="#DejaVuSans-32"/>
      <use x="479.248047" xlink:href="#DejaVuSans-84"/>
      <use x="537.207031" xlink:href="#DejaVuSans-105"/>
      <use x="564.990234" xlink:href="#DejaVuSans-109"/>
      <use x="662.402344" xlink:href="#DejaVuSans-101"/>
      <use x="723.925781" xlink:href="#DejaVuSans-32"/>
      <use x="755.712891" xlink:href="#DejaVuSans-111"/>
      <use x="816.894531" xlink:href="#DejaVuSans-102"/>
      <use x="852.099609" xlink:href="#DejaVuSans-32"/>
      <use x="883.886719" xlink:href="#DejaVuSans-82"/>
      <use x="948.869141" xlink:href="#DejaVuSans-101"/>
      <use x="1010.392578" xlink:href="#DejaVuSans-99"/>
      <use x="1065.373047" xlink:href="#DejaVuSans-111"/>
      <use x="1126.554688" xlink:href="#DejaVuSans-118"/>
      <use x="1185.734375" xlink:href="#DejaVuSans-101"/>
      <use x="1247.257812" xlink:href="#DejaVuSans-114"/>
      <use x="1286.121094" xlink:href="#DejaVuSans-101"/>
      <use x="1347.644531" xlink:href="#DejaVuSans-100"/>
      <use x="1411.121094" xlink:href="#DejaVuSans-32"/>
      <use x="1442.908203" xlink:href="#DejaVuSans-67"/>
      <use x="1512.732422" xlink:href="#DejaVuSans-97"/>
      <use x="1574.011719" xlink:href="#DejaVuSans-115"/>
      <use x="1626.111328" xlink:href="#DejaVuSans-101"/>
      <use x="1687.634766" xlink:href="#DejaVuSans-115"/>
      <use x="1739.734375" xlink:href="#DejaVuSans-32"/>
      <use x="1771.521484" xlink:href="#DejaVuSans-40"/>
      <use x="1810.535156" xlink:href="#DejaVuSans-111"/>
      <use x="1871.716797" xlink:href="#DejaVuSans-118"/>
      <use x="1930.896484" xlink:href="#DejaVuSans-101"/>
      <use x="1992.419922" xlink:href="#DejaVuSans-114"/>
      <use x="2033.533203" xlink:href="#DejaVuSans-32"/>
      <use x="2065.320312" xlink:href="#DejaVuSans-55"/>
      <use x="2128.943359" xlink:href="#DejaVuSans-32"/>
      <use x="2160.730469" xlink:href="#DejaVuSans-100"/>
      <use x="2224.207031" xlink:href="#DejaVuSans-97"/>
      <use x="2285.486328" xlink:href="#DejaVuSans-121"/>
      <use x="2344.666016" xlink:href="#DejaVuSans-115"/>
      <use x="2396.765625" xlink:href="#DejaVuSans-41"/>
     </g>
    </g>
   </g>
  </g>
 </g>
 <defs>
  <clipPath id="p5678d84e49">
   <rect height="332.64" width="446.4" x="72" y="51.84"/>
  </clipPath>
 </defs>
</svg>
