<?xml version="1.0" encoding="utf-8" standalone="no"?>
<!DOCTYPE svg PUBLIC "-//W3C//DTD SVG 1.1//EN"
  "http://www.w3.org/Graphics/SVG/1.1/DTD/svg11.dtd">
<!-- Created with matplotlib (https://matplotlib.org/) -->
<svg height="432pt" version="1.1" viewBox="0 0 576 432" width="576pt" xmlns="http://www.w3.org/2000/svg" xmlns:xlink="http://www.w3.org/1999/xlink">
 <defs>
  <style type="text/css">
*{stroke-linecap:butt;stroke-linejoin:round;}
  </style>
 </defs>
 <g id="figure_1">
  <g id="patch_1">
   <path d="M 0 432 
L 576 432 
L 576 0 
L 0 0 
z
" style="fill:#ffffff;"/>
  </g>
  <g id="axes_1">
   <g id="patch_2">
    <path d="M 72 384.48 
L 518.4 384.48 
L 518.4 51.84 
L 72 51.84 
z
" style="fill:#ffffff;"/>
   </g>
   <g id="matplotlib.axis_1">
    <g id="xtick_1">
     <g id="line2d_1">
      <defs>
       <path d="M 0 0 
L 0 3.5 
" id="m5f4f76821e" style="stroke:#000000;stroke-width:0.8;"/>
      </defs>
      <g>
       <use style="stroke:#000000;stroke-width:0.8;" x="91.498295" xlink:href="#m5f4f76821e" y="384.48"/>
      </g>
     </g>
     <g id="text_1">
      <!-- 2020-03 -->
      <defs>
       <path d="M 19.1875 8.296875 
L 53.609375 8.296875 
L 53.609375 0 
L 7.328125 0 
L 7.328125 8.296875 
Q 12.9375 14.109375 22.625 23.890625 
Q 32.328125 33.6875 34.8125 36.53125 
Q 39.546875 41.84375 41.421875 45.53125 
Q 43.3125 49.21875 43.3125 52.78125 
Q 43.3125 58.59375 39.234375 62.25 
Q 35.15625 65.921875 28.609375 65.921875 
Q 23.96875 65.921875 18.8125 64.3125 
Q 13.671875 62.703125 7.8125 59.421875 
L 7.8125 69.390625 
Q 13.765625 71.78125 18.9375 73 
Q 24.125 74.21875 28.421875 74.21875 
Q 39.75 74.21875 46.484375 68.546875 
Q 53.21875 62.890625 53.21875 53.421875 
Q 53.21875 48.921875 51.53125 44.890625 
Q 49.859375 40.875 45.40625 35.40625 
Q 44.1875 33.984375 37.640625 27.21875 
Q 31.109375 20.453125 19.1875 8.296875 
z
" id="DejaVuSans-50"/>
       <path d="M 31.78125 66.40625 
Q 24.171875 66.40625 20.328125 58.90625 
Q 16.5 51.421875 16.5 36.375 
Q 16.5 21.390625 20.328125 13.890625 
Q 24.171875 6.390625 31.78125 6.390625 
Q 39.453125 6.390625 43.28125 13.890625 
Q 47.125 21.390625 47.125 36.375 
Q 47.125 51.421875 43.28125 58.90625 
Q 39.453125 66.40625 31.78125 66.40625 
z
M 31.78125 74.21875 
Q 44.046875 74.21875 50.515625 64.515625 
Q 56.984375 54.828125 56.984375 36.375 
Q 56.984375 17.96875 50.515625 8.265625 
Q 44.046875 -1.421875 31.78125 -1.421875 
Q 19.53125 -1.421875 13.0625 8.265625 
Q 6.59375 17.96875 6.59375 36.375 
Q 6.59375 54.828125 13.0625 64.515625 
Q 19.53125 74.21875 31.78125 74.21875 
z
" id="DejaVuSans-48"/>
       <path d="M 4.890625 31.390625 
L 31.203125 31.390625 
L 31.203125 23.390625 
L 4.890625 23.390625 
z
" id="DejaVuSans-45"/>
       <path d="M 40.578125 39.3125 
Q 47.65625 37.796875 51.625 33 
Q 55.609375 28.21875 55.609375 21.1875 
Q 55.609375 10.40625 48.1875 4.484375 
Q 40.765625 -1.421875 27.09375 -1.421875 
Q 22.515625 -1.421875 17.65625 -0.515625 
Q 12.796875 0.390625 7.625 2.203125 
L 7.625 11.71875 
Q 11.71875 9.328125 16.59375 8.109375 
Q 21.484375 6.890625 26.8125 6.890625 
Q 36.078125 6.890625 40.9375 10.546875 
Q 45.796875 14.203125 45.796875 21.1875 
Q 45.796875 27.640625 41.28125 31.265625 
Q 36.765625 34.90625 28.71875 34.90625 
L 20.21875 34.90625 
L 20.21875 43.015625 
L 29.109375 43.015625 
Q 36.375 43.015625 40.234375 45.921875 
Q 44.09375 48.828125 44.09375 54.296875 
Q 44.09375 59.90625 40.109375 62.90625 
Q 36.140625 65.921875 28.71875 65.921875 
Q 24.65625 65.921875 20.015625 65.03125 
Q 15.375 64.15625 9.8125 62.3125 
L 9.8125 71.09375 
Q 15.4375 72.65625 20.34375 73.4375 
Q 25.25 74.21875 29.59375 74.21875 
Q 40.828125 74.21875 47.359375 69.109375 
Q 53.90625 64.015625 53.90625 55.328125 
Q 53.90625 49.265625 50.4375 45.09375 
Q 46.96875 40.921875 40.578125 39.3125 
z
" id="DejaVuSans-51"/>
      </defs>
      <g transform="translate(70.606889 399.078438)scale(0.1 -0.1)">
       <use xlink:href="#DejaVuSans-50"/>
       <use x="63.623047" xlink:href="#DejaVuSans-48"/>
       <use x="127.246094" xlink:href="#DejaVuSans-50"/>
       <use x="190.869141" xlink:href="#DejaVuSans-48"/>
       <use x="254.492188" xlink:href="#DejaVuSans-45"/>
       <use x="290.576172" xlink:href="#DejaVuSans-48"/>
       <use x="354.199219" xlink:href="#DejaVuSans-51"/>
      </g>
     </g>
    </g>
    <g id="xtick_2">
     <g id="line2d_2">
      <g>
       <use style="stroke:#000000;stroke-width:0.8;" x="139.847727" xlink:href="#m5f4f76821e" y="384.48"/>
      </g>
     </g>
     <g id="text_2">
      <!-- 2020-05 -->
      <defs>
       <path d="M 10.796875 72.90625 
L 49.515625 72.90625 
L 49.515625 64.59375 
L 19.828125 64.59375 
L 19.828125 46.734375 
Q 21.96875 47.46875 24.109375 47.828125 
Q 26.265625 48.1875 28.421875 48.1875 
Q 40.625 48.1875 47.75 41.5 
Q 54.890625 34.8125 54.890625 23.390625 
Q 54.890625 11.625 47.5625 5.09375 
Q 40.234375 -1.421875 26.90625 -1.421875 
Q 22.3125 -1.421875 17.546875 -0.640625 
Q 12.796875 0.140625 7.71875 1.703125 
L 7.71875 11.625 
Q 12.109375 9.234375 16.796875 8.0625 
Q 21.484375 6.890625 26.703125 6.890625 
Q 35.15625 6.890625 40.078125 11.328125 
Q 45.015625 15.765625 45.015625 23.390625 
Q 45.015625 31 40.078125 35.4375 
Q 35.15625 39.890625 26.703125 39.890625 
Q 22.75 39.890625 18.8125 39.015625 
Q 14.890625 38.140625 10.796875 36.28125 
z
" id="DejaVuSans-53"/>
      </defs>
      <g transform="translate(118.956321 399.078438)scale(0.1 -0.1)">
       <use xlink:href="#DejaVuSans-50"/>
       <use x="63.623047" xlink:href="#DejaVuSans-48"/>
       <use x="127.246094" xlink:href="#DejaVuSans-50"/>
       <use x="190.869141" xlink:href="#DejaVuSans-48"/>
       <use x="254.492188" xlink:href="#DejaVuSans-45"/>
       <use x="290.576172" xlink:href="#DejaVuSans-48"/>
       <use x="354.199219" xlink:href="#DejaVuSans-53"/>
      </g>
     </g>
    </g>
    <g id="xtick_3">
     <g id="line2d_3">
      <g>
       <use style="stroke:#000000;stroke-width:0.8;" x="188.197159" xlink:href="#m5f4f76821e" y="384.48"/>
      </g>
     </g>
     <g id="text_3">
      <!-- 2020-07 -->
      <defs>
       <path d="M 8.203125 72.90625 
L 55.078125 72.90625 
L 55.078125 68.703125 
L 28.609375 0 
L 18.3125 0 
L 43.21875 64.59375 
L 8.203125 64.59375 
z
" id="DejaVuSans-55"/>
      </defs>
      <g transform="translate(167.305753 399.078438)scale(0.1 -0.1)">
       <use xlink:href="#DejaVuSans-50"/>
       <use x="63.623047" xlink:href="#DejaVuSans-48"/>
       <use x="127.246094" xlink:href="#DejaVuSans-50"/>
       <use x="190.869141" xlink:href="#DejaVuSans-48"/>
       <use x="254.492188" xlink:href="#DejaVuSans-45"/>
       <use x="290.576172" xlink:href="#DejaVuSans-48"/>
       <use x="354.199219" xlink:href="#DejaVuSans-55"/>
      </g>
     </g>
    </g>
    <g id="xtick_4">
     <g id="line2d_4">
      <g>
       <use style="stroke:#000000;stroke-width:0.8;" x="237.339205" xlink:href="#m5f4f76821e" y="384.48"/>
      </g>
     </g>
     <g id="text_4">
      <!-- 2020-09 -->
      <defs>
       <path d="M 10.984375 1.515625 
L 10.984375 10.5 
Q 14.703125 8.734375 18.5 7.8125 
Q 22.3125 6.890625 25.984375 6.890625 
Q 35.75 6.890625 40.890625 13.453125 
Q 46.046875 20.015625 46.78125 33.40625 
Q 43.953125 29.203125 39.59375 26.953125 
Q 35.25 24.703125 29.984375 24.703125 
Q 19.046875 24.703125 12.671875 31.3125 
Q 6.296875 37.9375 6.296875 49.421875 
Q 6.296875 60.640625 12.9375 67.421875 
Q 19.578125 74.21875 30.609375 74.21875 
Q 43.265625 74.21875 49.921875 64.515625 
Q 56.59375 54.828125 56.59375 36.375 
Q 56.59375 19.140625 48.40625 8.859375 
Q 40.234375 -1.421875 26.421875 -1.421875 
Q 22.703125 -1.421875 18.890625 -0.6875 
Q 15.09375 0.046875 10.984375 1.515625 
z
M 30.609375 32.421875 
Q 37.25 32.421875 41.125 36.953125 
Q 45.015625 41.5 45.015625 49.421875 
Q 45.015625 57.28125 41.125 61.84375 
Q 37.25 66.40625 30.609375 66.40625 
Q 23.96875 66.40625 20.09375 61.84375 
Q 16.21875 57.28125 16.21875 49.421875 
Q 16.21875 41.5 20.09375 36.953125 
Q 23.96875 32.421875 30.609375 32.421875 
z
" id="DejaVuSans-57"/>
      </defs>
      <g transform="translate(216.447798 399.078438)scale(0.1 -0.1)">
       <use xlink:href="#DejaVuSans-50"/>
       <use x="63.623047" xlink:href="#DejaVuSans-48"/>
       <use x="127.246094" xlink:href="#DejaVuSans-50"/>
       <use x="190.869141" xlink:href="#DejaVuSans-48"/>
       <use x="254.492188" xlink:href="#DejaVuSans-45"/>
       <use x="290.576172" xlink:href="#DejaVuSans-48"/>
       <use x="354.199219" xlink:href="#DejaVuSans-57"/>
      </g>
     </g>
    </g>
    <g id="xtick_5">
     <g id="line2d_5">
      <g>
       <use style="stroke:#000000;stroke-width:0.8;" x="285.688636" xlink:href="#m5f4f76821e" y="384.48"/>
      </g>
     </g>
     <g id="text_5">
      <!-- 2020-11 -->
      <defs>
       <path d="M 12.40625 8.296875 
L 28.515625 8.296875 
L 28.515625 63.921875 
L 10.984375 60.40625 
L 10.984375 69.390625 
L 28.421875 72.90625 
L 38.28125 72.90625 
L 38.28125 8.296875 
L 54.390625 8.296875 
L 54.390625 0 
L 12.40625 0 
z
" id="DejaVuSans-49"/>
      </defs>
      <g transform="translate(264.79723 399.078438)scale(0.1 -0.1)">
       <use xlink:href="#DejaVuSans-50"/>
       <use x="63.623047" xlink:href="#DejaVuSans-48"/>
       <use x="127.246094" xlink:href="#DejaVuSans-50"/>
       <use x="190.869141" xlink:href="#DejaVuSans-48"/>
       <use x="254.492188" xlink:href="#DejaVuSans-45"/>
       <use x="290.576172" xlink:href="#DejaVuSans-49"/>
       <use x="354.199219" xlink:href="#DejaVuSans-49"/>
      </g>
     </g>
    </g>
    <g id="xtick_6">
     <g id="line2d_6">
      <g>
       <use style="stroke:#000000;stroke-width:0.8;" x="334.038068" xlink:href="#m5f4f76821e" y="384.48"/>
      </g>
     </g>
     <g id="text_6">
      <!-- 2021-01 -->
      <g transform="translate(313.146662 399.078438)scale(0.1 -0.1)">
       <use xlink:href="#DejaVuSans-50"/>
       <use x="63.623047" xlink:href="#DejaVuSans-48"/>
       <use x="127.246094" xlink:href="#DejaVuSans-50"/>
       <use x="190.869141" xlink:href="#DejaVuSans-49"/>
       <use x="254.492188" xlink:href="#DejaVuSans-45"/>
       <use x="290.576172" xlink:href="#DejaVuSans-48"/>
       <use x="354.199219" xlink:href="#DejaVuSans-49"/>
      </g>
     </g>
    </g>
    <g id="xtick_7">
     <g id="line2d_7">
      <g>
       <use style="stroke:#000000;stroke-width:0.8;" x="380.802273" xlink:href="#m5f4f76821e" y="384.48"/>
      </g>
     </g>
     <g id="text_7">
      <!-- 2021-03 -->
      <g transform="translate(359.910866 399.078438)scale(0.1 -0.1)">
       <use xlink:href="#DejaVuSans-50"/>
       <use x="63.623047" xlink:href="#DejaVuSans-48"/>
       <use x="127.246094" xlink:href="#DejaVuSans-50"/>
       <use x="190.869141" xlink:href="#DejaVuSans-49"/>
       <use x="254.492188" xlink:href="#DejaVuSans-45"/>
       <use x="290.576172" xlink:href="#DejaVuSans-48"/>
       <use x="354.199219" xlink:href="#DejaVuSans-51"/>
      </g>
     </g>
    </g>
    <g id="xtick_8">
     <g id="line2d_8">
      <g>
       <use style="stroke:#000000;stroke-width:0.8;" x="429.151705" xlink:href="#m5f4f76821e" y="384.48"/>
      </g>
     </g>
     <g id="text_8">
      <!-- 2021-05 -->
      <g transform="translate(408.260298 399.078438)scale(0.1 -0.1)">
       <use xlink:href="#DejaVuSans-50"/>
       <use x="63.623047" xlink:href="#DejaVuSans-48"/>
       <use x="127.246094" xlink:href="#DejaVuSans-50"/>
       <use x="190.869141" xlink:href="#DejaVuSans-49"/>
       <use x="254.492188" xlink:href="#DejaVuSans-45"/>
       <use x="290.576172" xlink:href="#DejaVuSans-48"/>
       <use x="354.199219" xlink:href="#DejaVuSans-53"/>
      </g>
     </g>
    </g>
    <g id="xtick_9">
     <g id="line2d_9">
      <g>
       <use style="stroke:#000000;stroke-width:0.8;" x="477.501136" xlink:href="#m5f4f76821e" y="384.48"/>
      </g>
     </g>
     <g id="text_9">
      <!-- 2021-07 -->
      <g transform="translate(456.60973 399.078438)scale(0.1 -0.1)">
       <use xlink:href="#DejaVuSans-50"/>
       <use x="63.623047" xlink:href="#DejaVuSans-48"/>
       <use x="127.246094" xlink:href="#DejaVuSans-50"/>
       <use x="190.869141" xlink:href="#DejaVuSans-49"/>
       <use x="254.492188" xlink:href="#DejaVuSans-45"/>
       <use x="290.576172" xlink:href="#DejaVuSans-48"/>
       <use x="354.199219" xlink:href="#DejaVuSans-55"/>
      </g>
     </g>
    </g>
    <g id="text_10">
     <!-- Reported On -->
     <defs>
      <path d="M 44.390625 34.1875 
Q 47.5625 33.109375 50.5625 29.59375 
Q 53.5625 26.078125 56.59375 19.921875 
L 66.609375 0 
L 56 0 
L 46.6875 18.703125 
Q 43.0625 26.03125 39.671875 28.421875 
Q 36.28125 30.8125 30.421875 30.8125 
L 19.671875 30.8125 
L 19.671875 0 
L 9.8125 0 
L 9.8125 72.90625 
L 32.078125 72.90625 
Q 44.578125 72.90625 50.734375 67.671875 
Q 56.890625 62.453125 56.890625 51.90625 
Q 56.890625 45.015625 53.6875 40.46875 
Q 50.484375 35.9375 44.390625 34.1875 
z
M 19.671875 64.796875 
L 19.671875 38.921875 
L 32.078125 38.921875 
Q 39.203125 38.921875 42.84375 42.21875 
Q 46.484375 45.515625 46.484375 51.90625 
Q 46.484375 58.296875 42.84375 61.546875 
Q 39.203125 64.796875 32.078125 64.796875 
z
" id="DejaVuSans-82"/>
      <path d="M 56.203125 29.59375 
L 56.203125 25.203125 
L 14.890625 25.203125 
Q 15.484375 15.921875 20.484375 11.0625 
Q 25.484375 6.203125 34.421875 6.203125 
Q 39.59375 6.203125 44.453125 7.46875 
Q 49.3125 8.734375 54.109375 11.28125 
L 54.109375 2.78125 
Q 49.265625 0.734375 44.1875 -0.34375 
Q 39.109375 -1.421875 33.890625 -1.421875 
Q 20.796875 -1.421875 13.15625 6.1875 
Q 5.515625 13.8125 5.515625 26.8125 
Q 5.515625 40.234375 12.765625 48.109375 
Q 20.015625 56 32.328125 56 
Q 43.359375 56 49.78125 48.890625 
Q 56.203125 41.796875 56.203125 29.59375 
z
M 47.21875 32.234375 
Q 47.125 39.59375 43.09375 43.984375 
Q 39.0625 48.390625 32.421875 48.390625 
Q 24.90625 48.390625 20.390625 44.140625 
Q 15.875 39.890625 15.1875 32.171875 
z
" id="DejaVuSans-101"/>
      <path d="M 18.109375 8.203125 
L 18.109375 -20.796875 
L 9.078125 -20.796875 
L 9.078125 54.6875 
L 18.109375 54.6875 
L 18.109375 46.390625 
Q 20.953125 51.265625 25.265625 53.625 
Q 29.59375 56 35.59375 56 
Q 45.5625 56 51.78125 48.09375 
Q 58.015625 40.1875 58.015625 27.296875 
Q 58.015625 14.40625 51.78125 6.484375 
Q 45.5625 -1.421875 35.59375 -1.421875 
Q 29.59375 -1.421875 25.265625 0.953125 
Q 20.953125 3.328125 18.109375 8.203125 
z
M 48.6875 27.296875 
Q 48.6875 37.203125 44.609375 42.84375 
Q 40.53125 48.484375 33.40625 48.484375 
Q 26.265625 48.484375 22.1875 42.84375 
Q 18.109375 37.203125 18.109375 27.296875 
Q 18.109375 17.390625 22.1875 11.75 
Q 26.265625 6.109375 33.40625 6.109375 
Q 40.53125 6.109375 44.609375 11.75 
Q 48.6875 17.390625 48.6875 27.296875 
z
" id="DejaVuSans-112"/>
      <path d="M 30.609375 48.390625 
Q 23.390625 48.390625 19.1875 42.75 
Q 14.984375 37.109375 14.984375 27.296875 
Q 14.984375 17.484375 19.15625 11.84375 
Q 23.34375 6.203125 30.609375 6.203125 
Q 37.796875 6.203125 41.984375 11.859375 
Q 46.1875 17.53125 46.1875 27.296875 
Q 46.1875 37.015625 41.984375 42.703125 
Q 37.796875 48.390625 30.609375 48.390625 
z
M 30.609375 56 
Q 42.328125 56 49.015625 48.375 
Q 55.71875 40.765625 55.71875 27.296875 
Q 55.71875 13.875 49.015625 6.21875 
Q 42.328125 -1.421875 30.609375 -1.421875 
Q 18.84375 -1.421875 12.171875 6.21875 
Q 5.515625 13.875 5.515625 27.296875 
Q 5.515625 40.765625 12.171875 48.375 
Q 18.84375 56 30.609375 56 
z
" id="DejaVuSans-111"/>
      <path d="M 41.109375 46.296875 
Q 39.59375 47.171875 37.8125 47.578125 
Q 36.03125 48 33.890625 48 
Q 26.265625 48 22.1875 43.046875 
Q 18.109375 38.09375 18.109375 28.8125 
L 18.109375 0 
L 9.078125 0 
L 9.078125 54.6875 
L 18.109375 54.6875 
L 18.109375 46.1875 
Q 20.953125 51.171875 25.484375 53.578125 
Q 30.03125 56 36.53125 56 
Q 37.453125 56 38.578125 55.875 
Q 39.703125 55.765625 41.0625 55.515625 
z
" id="DejaVuSans-114"/>
      <path d="M 18.3125 70.21875 
L 18.3125 54.6875 
L 36.8125 54.6875 
L 36.8125 47.703125 
L 18.3125 47.703125 
L 18.3125 18.015625 
Q 18.3125 11.328125 20.140625 9.421875 
Q 21.96875 7.515625 27.59375 7.515625 
L 36.8125 7.515625 
L 36.8125 0 
L 27.59375 0 
Q 17.1875 0 13.234375 3.875 
Q 9.28125 7.765625 9.28125 18.015625 
L 9.28125 47.703125 
L 2.6875 47.703125 
L 2.6875 54.6875 
L 9.28125 54.6875 
L 9.28125 70.21875 
z
" id="DejaVuSans-116"/>
      <path d="M 45.40625 46.390625 
L 45.40625 75.984375 
L 54.390625 75.984375 
L 54.390625 0 
L 45.40625 0 
L 45.40625 8.203125 
Q 42.578125 3.328125 38.25 0.953125 
Q 33.9375 -1.421875 27.875 -1.421875 
Q 17.96875 -1.421875 11.734375 6.484375 
Q 5.515625 14.40625 5.515625 27.296875 
Q 5.515625 40.1875 11.734375 48.09375 
Q 17.96875 56 27.875 56 
Q 33.9375 56 38.25 53.625 
Q 42.578125 51.265625 45.40625 46.390625 
z
M 14.796875 27.296875 
Q 14.796875 17.390625 18.875 11.75 
Q 22.953125 6.109375 30.078125 6.109375 
Q 37.203125 6.109375 41.296875 11.75 
Q 45.40625 17.390625 45.40625 27.296875 
Q 45.40625 37.203125 41.296875 42.84375 
Q 37.203125 48.484375 30.078125 48.484375 
Q 22.953125 48.484375 18.875 42.84375 
Q 14.796875 37.203125 14.796875 27.296875 
z
" id="DejaVuSans-100"/>
      <path id="DejaVuSans-32"/>
      <path d="M 39.40625 66.21875 
Q 28.65625 66.21875 22.328125 58.203125 
Q 16.015625 50.203125 16.015625 36.375 
Q 16.015625 22.609375 22.328125 14.59375 
Q 28.65625 6.59375 39.40625 6.59375 
Q 50.140625 6.59375 56.421875 14.59375 
Q 62.703125 22.609375 62.703125 36.375 
Q 62.703125 50.203125 56.421875 58.203125 
Q 50.140625 66.21875 39.40625 66.21875 
z
M 39.40625 74.21875 
Q 54.734375 74.21875 63.90625 63.9375 
Q 73.09375 53.65625 73.09375 36.375 
Q 73.09375 19.140625 63.90625 8.859375 
Q 54.734375 -1.421875 39.40625 -1.421875 
Q 24.03125 -1.421875 14.8125 8.828125 
Q 5.609375 19.09375 5.609375 36.375 
Q 5.609375 53.65625 14.8125 63.9375 
Q 24.03125 74.21875 39.40625 74.21875 
z
" id="DejaVuSans-79"/>
      <path d="M 54.890625 33.015625 
L 54.890625 0 
L 45.90625 0 
L 45.90625 32.71875 
Q 45.90625 40.484375 42.875 44.328125 
Q 39.84375 48.1875 33.796875 48.1875 
Q 26.515625 48.1875 22.3125 43.546875 
Q 18.109375 38.921875 18.109375 30.90625 
L 18.109375 0 
L 9.078125 0 
L 9.078125 54.6875 
L 18.109375 54.6875 
L 18.109375 46.1875 
Q 21.34375 51.125 25.703125 53.5625 
Q 30.078125 56 35.796875 56 
Q 45.21875 56 50.046875 50.171875 
Q 54.890625 44.34375 54.890625 33.015625 
z
" id="DejaVuSans-110"/>
     </defs>
     <g transform="translate(263.680469 412.756563)scale(0.1 -0.1)">
      <use xlink:href="#DejaVuSans-82"/>
      <use x="64.982422" xlink:href="#DejaVuSans-101"/>
      <use x="126.505859" xlink:href="#DejaVuSans-112"/>
      <use x="189.982422" xlink:href="#DejaVuSans-111"/>
      <use x="251.164062" xlink:href="#DejaVuSans-114"/>
      <use x="292.277344" xlink:href="#DejaVuSans-116"/>
      <use x="331.486328" xlink:href="#DejaVuSans-101"/>
      <use x="393.009766" xlink:href="#DejaVuSans-100"/>
      <use x="456.486328" xlink:href="#DejaVuSans-32"/>
      <use x="488.273438" xlink:href="#DejaVuSans-79"/>
      <use x="566.984375" xlink:href="#DejaVuSans-110"/>
     </g>
    </g>
   </g>
   <g id="matplotlib.axis_2">
    <g id="ytick_1">
     <g id="line2d_10">
      <defs>
       <path d="M 0 0 
L -3.5 0 
" id="m0c09918458" style="stroke:#000000;stroke-width:0.8;"/>
      </defs>
      <g>
       <use style="stroke:#000000;stroke-width:0.8;" x="72" xlink:href="#m0c09918458" y="371.052199"/>
      </g>
     </g>
     <g id="text_11">
      <!--   0 -->
      <g transform="translate(52.28125 374.851418)scale(0.1 -0.1)">
       <use xlink:href="#DejaVuSans-32"/>
       <use x="31.787109" xlink:href="#DejaVuSans-32"/>
       <use x="63.574219" xlink:href="#DejaVuSans-48"/>
      </g>
     </g>
    </g>
    <g id="ytick_2">
     <g id="line2d_11">
      <g>
       <use style="stroke:#000000;stroke-width:0.8;" x="72" xlink:href="#m0c09918458" y="298.210561"/>
      </g>
     </g>
     <g id="text_12">
      <!-- 100 -->
      <g transform="translate(45.9125 302.00978)scale(0.1 -0.1)">
       <use xlink:href="#DejaVuSans-49"/>
       <use x="63.623047" xlink:href="#DejaVuSans-48"/>
       <use x="127.246094" xlink:href="#DejaVuSans-48"/>
      </g>
     </g>
    </g>
    <g id="ytick_3">
     <g id="line2d_12">
      <g>
       <use style="stroke:#000000;stroke-width:0.8;" x="72" xlink:href="#m0c09918458" y="225.368924"/>
      </g>
     </g>
     <g id="text_13">
      <!-- 200 -->
      <g transform="translate(45.9125 229.168142)scale(0.1 -0.1)">
       <use xlink:href="#DejaVuSans-50"/>
       <use x="63.623047" xlink:href="#DejaVuSans-48"/>
       <use x="127.246094" xlink:href="#DejaVuSans-48"/>
      </g>
     </g>
    </g>
    <g id="ytick_4">
     <g id="line2d_13">
      <g>
       <use style="stroke:#000000;stroke-width:0.8;" x="72" xlink:href="#m0c09918458" y="152.527286"/>
      </g>
     </g>
     <g id="text_14">
      <!-- 300 -->
      <g transform="translate(45.9125 156.326505)scale(0.1 -0.1)">
       <use xlink:href="#DejaVuSans-51"/>
       <use x="63.623047" xlink:href="#DejaVuSans-48"/>
       <use x="127.246094" xlink:href="#DejaVuSans-48"/>
      </g>
     </g>
    </g>
    <g id="ytick_5">
     <g id="line2d_14">
      <g>
       <use style="stroke:#000000;stroke-width:0.8;" x="72" xlink:href="#m0c09918458" y="79.685648"/>
      </g>
     </g>
     <g id="text_15">
      <!-- 400 -->
      <defs>
       <path d="M 37.796875 64.3125 
L 12.890625 25.390625 
L 37.796875 25.390625 
z
M 35.203125 72.90625 
L 47.609375 72.90625 
L 47.609375 25.390625 
L 58.015625 25.390625 
L 58.015625 17.1875 
L 47.609375 17.1875 
L 47.609375 0 
L 37.796875 0 
L 37.796875 17.1875 
L 4.890625 17.1875 
L 4.890625 26.703125 
z
" id="DejaVuSans-52"/>
      </defs>
      <g transform="translate(45.9125 83.484867)scale(0.1 -0.1)">
       <use xlink:href="#DejaVuSans-52"/>
       <use x="63.623047" xlink:href="#DejaVuSans-48"/>
       <use x="127.246094" xlink:href="#DejaVuSans-48"/>
      </g>
     </g>
    </g>
    <g id="text_16">
     <!-- Duration [days] -->
     <defs>
      <path d="M 19.671875 64.796875 
L 19.671875 8.109375 
L 31.59375 8.109375 
Q 46.6875 8.109375 53.6875 14.9375 
Q 60.6875 21.78125 60.6875 36.53125 
Q 60.6875 51.171875 53.6875 57.984375 
Q 46.6875 64.796875 31.59375 64.796875 
z
M 9.8125 72.90625 
L 30.078125 72.90625 
Q 51.265625 72.90625 61.171875 64.09375 
Q 71.09375 55.28125 71.09375 36.53125 
Q 71.09375 17.671875 61.125 8.828125 
Q 51.171875 0 30.078125 0 
L 9.8125 0 
z
" id="DejaVuSans-68"/>
      <path d="M 8.5 21.578125 
L 8.5 54.6875 
L 17.484375 54.6875 
L 17.484375 21.921875 
Q 17.484375 14.15625 20.5 10.265625 
Q 23.53125 6.390625 29.59375 6.390625 
Q 36.859375 6.390625 41.078125 11.03125 
Q 45.3125 15.671875 45.3125 23.6875 
L 45.3125 54.6875 
L 54.296875 54.6875 
L 54.296875 0 
L 45.3125 0 
L 45.3125 8.40625 
Q 42.046875 3.421875 37.71875 1 
Q 33.40625 -1.421875 27.6875 -1.421875 
Q 18.265625 -1.421875 13.375 4.4375 
Q 8.5 10.296875 8.5 21.578125 
z
M 31.109375 56 
z
" id="DejaVuSans-117"/>
      <path d="M 34.28125 27.484375 
Q 23.390625 27.484375 19.1875 25 
Q 14.984375 22.515625 14.984375 16.5 
Q 14.984375 11.71875 18.140625 8.90625 
Q 21.296875 6.109375 26.703125 6.109375 
Q 34.1875 6.109375 38.703125 11.40625 
Q 43.21875 16.703125 43.21875 25.484375 
L 43.21875 27.484375 
z
M 52.203125 31.203125 
L 52.203125 0 
L 43.21875 0 
L 43.21875 8.296875 
Q 40.140625 3.328125 35.546875 0.953125 
Q 30.953125 -1.421875 24.3125 -1.421875 
Q 15.921875 -1.421875 10.953125 3.296875 
Q 6 8.015625 6 15.921875 
Q 6 25.140625 12.171875 29.828125 
Q 18.359375 34.515625 30.609375 34.515625 
L 43.21875 34.515625 
L 43.21875 35.40625 
Q 43.21875 41.609375 39.140625 45 
Q 35.0625 48.390625 27.6875 48.390625 
Q 23 48.390625 18.546875 47.265625 
Q 14.109375 46.140625 10.015625 43.890625 
L 10.015625 52.203125 
Q 14.9375 54.109375 19.578125 55.046875 
Q 24.21875 56 28.609375 56 
Q 40.484375 56 46.34375 49.84375 
Q 52.203125 43.703125 52.203125 31.203125 
z
" id="DejaVuSans-97"/>
      <path d="M 9.421875 54.6875 
L 18.40625 54.6875 
L 18.40625 0 
L 9.421875 0 
z
M 9.421875 75.984375 
L 18.40625 75.984375 
L 18.40625 64.59375 
L 9.421875 64.59375 
z
" id="DejaVuSans-105"/>
      <path d="M 8.59375 75.984375 
L 29.296875 75.984375 
L 29.296875 69 
L 17.578125 69 
L 17.578125 -6.203125 
L 29.296875 -6.203125 
L 29.296875 -13.1875 
L 8.59375 -13.1875 
z
" id="DejaVuSans-91"/>
      <path d="M 32.171875 -5.078125 
Q 28.375 -14.84375 24.75 -17.8125 
Q 21.140625 -20.796875 15.09375 -20.796875 
L 7.90625 -20.796875 
L 7.90625 -13.28125 
L 13.1875 -13.28125 
Q 16.890625 -13.28125 18.9375 -11.515625 
Q 21 -9.765625 23.484375 -3.21875 
L 25.09375 0.875 
L 2.984375 54.6875 
L 12.5 54.6875 
L 29.59375 11.921875 
L 46.6875 54.6875 
L 56.203125 54.6875 
z
" id="DejaVuSans-121"/>
      <path d="M 44.28125 53.078125 
L 44.28125 44.578125 
Q 40.484375 46.53125 36.375 47.5 
Q 32.28125 48.484375 27.875 48.484375 
Q 21.1875 48.484375 17.84375 46.4375 
Q 14.5 44.390625 14.5 40.28125 
Q 14.5 37.15625 16.890625 35.375 
Q 19.28125 33.59375 26.515625 31.984375 
L 29.59375 31.296875 
Q 39.15625 29.25 43.1875 25.515625 
Q 47.21875 21.78125 47.21875 15.09375 
Q 47.21875 7.46875 41.1875 3.015625 
Q 35.15625 -1.421875 24.609375 -1.421875 
Q 20.21875 -1.421875 15.453125 -0.5625 
Q 10.6875 0.296875 5.421875 2 
L 5.421875 11.28125 
Q 10.40625 8.6875 15.234375 7.390625 
Q 20.0625 6.109375 24.8125 6.109375 
Q 31.15625 6.109375 34.5625 8.28125 
Q 37.984375 10.453125 37.984375 14.40625 
Q 37.984375 18.0625 35.515625 20.015625 
Q 33.0625 21.96875 24.703125 23.78125 
L 21.578125 24.515625 
Q 13.234375 26.265625 9.515625 29.90625 
Q 5.8125 33.546875 5.8125 39.890625 
Q 5.8125 47.609375 11.28125 51.796875 
Q 16.75 56 26.8125 56 
Q 31.78125 56 36.171875 55.265625 
Q 40.578125 54.546875 44.28125 53.078125 
z
" id="DejaVuSans-115"/>
      <path d="M 30.421875 75.984375 
L 30.421875 -13.1875 
L 9.71875 -13.1875 
L 9.71875 -6.203125 
L 21.390625 -6.203125 
L 21.390625 69 
L 9.71875 69 
L 9.71875 75.984375 
z
" id="DejaVuSans-93"/>
     </defs>
     <g transform="translate(39.832812 257.168594)rotate(-90)scale(0.1 -0.1)">
      <use xlink:href="#DejaVuSans-68"/>
      <use x="77.001953" xlink:href="#DejaVuSans-117"/>
      <use x="140.380859" xlink:href="#DejaVuSans-114"/>
      <use x="181.494141" xlink:href="#DejaVuSans-97"/>
      <use x="242.773438" xlink:href="#DejaVuSans-116"/>
      <use x="281.982422" xlink:href="#DejaVuSans-105"/>
      <use x="309.765625" xlink:href="#DejaVuSans-111"/>
      <use x="370.947266" xlink:href="#DejaVuSans-110"/>
      <use x="434.326172" xlink:href="#DejaVuSans-32"/>
      <use x="466.113281" xlink:href="#DejaVuSans-91"/>
      <use x="505.126953" xlink:href="#DejaVuSans-100"/>
      <use x="568.603516" xlink:href="#DejaVuSans-97"/>
      <use x="629.882812" xlink:href="#DejaVuSans-121"/>
      <use x="689.0625" xlink:href="#DejaVuSans-115"/>
      <use x="741.162109" xlink:href="#DejaVuSans-93"/>
     </g>
    </g>
   </g>
   <g id="line2d_15">
    <path clip-path="url(#p1e17f4c68f)" d="M 498.109091 239.987618 
L 497.316477 241.082328 
L 496.523864 242.703543 
L 494.938636 245.378285 
L 494.146023 247.307763 
L 493.353409 248.438549 
L 492.560795 249.043135 
L 491.768182 250.231374 
L 490.975568 251.122467 
L 488.597727 252.789525 
L 487.805114 252.999352 
L 487.0125 253.606142 
L 486.219886 253.209944 
L 485.427273 253.192886 
L 484.634659 253.810414 
L 483.842045 253.900731 
L 483.049432 252.647628 
L 482.256818 252.273098 
L 479.878977 247.546717 
L 479.086364 244.403526 
L 477.501136 240.799837 
L 475.915909 235.711337 
L 475.123295 232.443544 
L 474.330682 228.621131 
L 473.538068 226.056129 
L 472.745455 222.424447 
L 471.952841 219.317104 
L 471.160227 212.027477 
L 470.367614 206.738508 
L 469.575 203.602006 
L 468.782386 198.525423 
L 467.989773 194.415939 
L 467.197159 187.316829 
L 466.404545 178.796165 
L 465.611932 174.518328 
L 464.819318 168.549306 
L 463.234091 148.625101 
L 461.648864 118.988977 
L 460.85625 106.39428 
L 460.063636 95.761187 
L 459.271023 89.493666 
L 458.478409 87.916795 
L 457.685795 84.062202 
L 456.893182 87.027869 
L 456.100568 88.190648 
L 455.307955 90.065023 
L 454.515341 91.023004 
L 453.722727 89.470545 
L 452.930114 82.566542 
L 452.1375 82.773932 
L 451.344886 79.821522 
L 450.552273 77.569934 
L 449.759659 76.548968 
L 448.967045 78.075048 
L 448.174432 76.33815 
L 447.381818 78.268795 
L 446.589205 83.241563 
L 445.796591 81.827675 
L 445.003977 82.729592 
L 444.211364 85.763918 
L 443.41875 82.208364 
L 442.626136 84.103597 
L 441.833523 84.251319 
L 441.040909 80.577717 
L 440.248295 80.409327 
L 439.455682 78.590889 
L 438.663068 73.652506 
L 437.870455 70.260184 
L 437.077841 69.487142 
L 436.285227 68.175526 
L 435.492614 68.863055 
L 434.7 70.910824 
L 433.907386 76.405141 
L 433.114773 78.716742 
L 432.322159 87.296048 
L 431.529545 87.148419 
L 429.944318 90.913887 
L 429.151705 91.786355 
L 428.359091 90.209878 
L 427.566477 91.213877 
L 426.773864 90.397907 
L 425.98125 92.8265 
L 425.188636 93.823666 
L 424.396023 93.328187 
L 423.603409 93.161469 
L 422.810795 96.018436 
L 422.018182 97.244128 
L 421.225568 97.509648 
L 420.432955 98.244887 
L 419.640341 98.717866 
L 418.847727 97.963817 
L 418.055114 98.78204 
L 417.2625 96.462561 
L 416.469886 97.710149 
L 415.677273 96.968627 
L 414.884659 97.32833 
L 414.092045 98.55972 
L 413.299432 100.579925 
L 412.506818 101.637962 
L 411.714205 103.612832 
L 410.921591 102.593541 
L 410.128977 105.389224 
L 408.54375 106.075893 
L 407.751136 106.85908 
L 406.958523 108.6048 
L 406.165909 108.588388 
L 405.373295 110.790794 
L 404.580682 111.62203 
L 403.788068 114.692642 
L 402.995455 116.025583 
L 402.202841 119.008531 
L 401.410227 120.47301 
L 400.617614 124.010313 
L 399.032386 129.345783 
L 398.239773 130.357032 
L 397.447159 134.270066 
L 396.654545 135.316844 
L 395.861932 138.557716 
L 395.069318 139.976297 
L 394.276705 140.774316 
L 393.484091 139.381403 
L 391.898864 140.714298 
L 391.10625 143.963227 
L 390.313636 146.152175 
L 388.728409 154.624697 
L 387.935795 161.417731 
L 387.143182 165.988911 
L 385.557955 173.443318 
L 384.765341 175.891523 
L 383.972727 177.666701 
L 383.180114 178.289975 
L 382.3875 178.312418 
L 380.802273 185.188445 
L 380.009659 188.033883 
L 378.424432 194.992311 
L 376.839205 204.931747 
L 376.046591 207.325132 
L 373.66875 216.363011 
L 372.083523 222.97417 
L 367.327841 240.055475 
L 363.364773 252.114374 
L 360.194318 263.199428 
L 359.401705 264.733757 
L 357.816477 268.319062 
L 357.023864 270.95312 
L 355.438636 274.963943 
L 353.853409 280.017333 
L 352.268182 285.229736 
L 351.475568 287.089437 
L 349.890341 291.392631 
L 349.097727 293.266461 
L 348.305114 294.57201 
L 347.5125 295.617609 
L 346.719886 296.343184 
L 345.134659 296.754492 
L 343.549432 296.856728 
L 341.964205 299.071488 
L 341.171591 299.569419 
L 340.378977 300.63458 
L 338.79375 304.216381 
L 338.001136 306.296621 
L 336.415909 309.022978 
L 334.830682 312.733194 
L 334.038068 314.123186 
L 332.452841 316.34846 
L 331.660227 317.027145 
L 330.075 318.910508 
L 329.282386 319.581963 
L 328.489773 319.81217 
L 327.697159 320.195136 
L 326.904545 320.269365 
L 326.111932 320.556177 
L 324.526705 320.50158 
L 323.734091 320.795672 
L 320.563636 322.723622 
L 319.771023 323.078392 
L 317.393182 325.278318 
L 316.600568 325.520732 
L 315.807955 326.095503 
L 315.015341 326.38076 
L 314.222727 326.947999 
L 313.430114 327.044631 
L 312.6375 327.024187 
L 311.844886 327.16335 
L 311.052273 327.725834 
L 310.259659 327.617391 
L 307.089205 327.92504 
L 306.296591 327.886513 
L 305.503977 327.610367 
L 304.711364 327.642839 
L 303.91875 327.416072 
L 302.333523 327.308961 
L 300.748295 327.232053 
L 299.163068 327.038712 
L 296.785227 327.503056 
L 295.2 327.227122 
L 294.407386 327.335237 
L 293.614773 327.159246 
L 292.822159 327.615993 
L 292.029545 327.389189 
L 291.236932 326.765296 
L 290.444318 326.660731 
L 288.859091 326.112708 
L 288.066477 326.023614 
L 287.273864 325.227399 
L 286.48125 324.949899 
L 285.688636 325.134116 
L 284.896023 324.886727 
L 284.103409 324.784027 
L 283.310795 324.956337 
L 282.518182 324.781317 
L 280.932955 325.496502 
L 280.140341 325.488953 
L 278.555114 325.190377 
L 276.969886 324.360771 
L 276.177273 324.234915 
L 274.592045 323.005341 
L 273.799432 322.849693 
L 273.006818 322.33762 
L 272.214205 321.298608 
L 271.421591 320.575173 
L 270.628977 319.322924 
L 269.836364 318.510418 
L 269.04375 317.350014 
L 265.873295 311.14373 
L 265.080682 309.377749 
L 263.495455 304.502994 
L 259.532386 292.450023 
L 256.361932 281.998059 
L 255.569318 279.815951 
L 253.984091 277.452797 
L 250.813636 273.305912 
L 249.228409 272.441107 
L 247.643182 271.185758 
L 246.057955 270.640588 
L 245.265341 270.430997 
L 243.680114 269.460864 
L 242.8875 269.163511 
L 242.094886 268.635212 
L 240.509659 268.553779 
L 237.339205 267.123335 
L 236.546591 267.519831 
L 235.753977 267.272301 
L 234.961364 267.477423 
L 234.16875 268.049286 
L 232.583523 269.593719 
L 231.790909 270.541954 
L 230.998295 271.27299 
L 227.827841 275.085988 
L 226.242614 277.511842 
L 225.45 278.467579 
L 223.864773 280.743292 
L 222.279545 282.593469 
L 221.486932 283.647009 
L 220.694318 284.47101 
L 217.523864 288.774364 
L 215.146023 291.983711 
L 212.768182 295.228418 
L 211.182955 297.617804 
L 209.597727 299.983063 
L 208.805114 301.256907 
L 207.219886 303.358638 
L 206.427273 304.491249 
L 204.049432 308.681777 
L 203.256818 309.756751 
L 201.671591 312.249877 
L 200.878977 313.233988 
L 200.086364 314.038023 
L 196.915909 316.502095 
L 195.330682 317.722779 
L 194.538068 318.335519 
L 193.745455 319.137666 
L 192.952841 319.655273 
L 192.160227 320.501588 
L 188.989773 323.028707 
L 188.197159 323.900999 
L 186.611932 326.20338 
L 183.441477 331.572371 
L 180.271023 335.489825 
L 178.685795 337.687118 
L 177.100568 339.794083 
L 174.722727 342.093488 
L 173.1375 343.25528 
L 172.344886 343.656403 
L 166.796591 347.289743 
L 165.211364 348.031547 
L 161.248295 350.835593 
L 158.870455 352.719033 
L 158.077841 353.218389 
L 157.285227 354.034858 
L 156.492614 354.492432 
L 155.7 355.451084 
L 153.322159 357.831362 
L 152.529545 358.837304 
L 150.944318 360.278755 
L 150.151705 360.799493 
L 148.566477 362.009762 
L 145.396023 363.672996 
L 144.603409 363.858095 
L 143.810795 363.905425 
L 143.018182 363.83482 
L 141.432955 363.860922 
L 139.847727 363.891134 
L 137.469886 364.632536 
L 136.677273 365.05532 
L 135.884659 365.246716 
L 135.092045 365.802467 
L 133.506818 366.438527 
L 131.921591 366.948382 
L 129.54375 367.258332 
L 128.751136 367.22815 
L 127.165909 367.401197 
L 125.580682 367.474829 
L 123.995455 367.454832 
L 122.410227 367.43711 
L 121.617614 367.702364 
L 119.239773 367.993838 
L 116.861932 368.354502 
L 116.069318 368.353107 
L 115.276705 368.531012 
L 114.484091 368.341434 
L 111.313636 368.353408 
L 110.521023 368.449778 
L 109.728409 368.400785 
L 108.143182 368.803602 
L 107.350568 368.661486 
L 106.557955 368.762199 
L 105.765341 369.007929 
L 104.972727 369.038443 
L 104.180114 369.36 
L 102.594886 368.108863 
L 101.802273 368.471385 
L 101.009659 367.960308 
L 100.217045 368.993789 
L 99.424432 368.946849 
L 98.631818 367.870894 
L 97.839205 368.771528 
L 97.046591 369.159469 
L 96.253977 368.921531 
L 95.461364 368.921531 
L 93.876136 362.085466 
L 92.290909 362.085466 
L 92.290909 362.085466 
" style="fill:none;stroke:#1f77b4;stroke-linecap:square;stroke-width:1.5;"/>
   </g>
   <g id="line2d_16">
    <path clip-path="url(#p1e17f4c68f)" d="M 498.109091 236.555719 
L 496.523864 241.980389 
L 495.73125 242.51634 
L 494.146023 242.846834 
L 493.353409 242.30887 
L 492.560795 241.365689 
L 490.975568 237.713013 
L 490.182955 236.720907 
L 489.390341 233.593161 
L 487.805114 234.585591 
L 487.0125 234.33018 
L 486.219886 233.698859 
L 484.634659 230.65772 
L 483.842045 231.413054 
L 483.049432 228.039138 
L 480.671591 214.89083 
L 479.878977 212.674249 
L 479.086364 209.116532 
L 478.29375 204.233216 
L 475.123295 179.567952 
L 471.952841 143.338242 
L 471.160227 137.140424 
L 469.575 121.114683 
L 468.782386 121.356448 
L 467.989773 123.811155 
L 466.404545 119.583823 
L 465.611932 115.848434 
L 464.819318 115.163587 
L 464.026705 116.530033 
L 463.234091 110.870345 
L 462.441477 103.875032 
L 461.648864 98.523972 
L 460.85625 91.79165 
L 460.063636 89.075676 
L 459.271023 85.758245 
L 458.478409 86.640037 
L 457.685795 86.795213 
L 456.893182 87.486523 
L 455.307955 95.66646 
L 454.515341 97.715617 
L 453.722727 98.781364 
L 452.1375 97.253016 
L 451.344886 97.319206 
L 450.552273 97.734713 
L 449.759659 97.623606 
L 448.967045 98.669936 
L 448.174432 100.704137 
L 447.381818 102.180883 
L 446.589205 105.763446 
L 445.796591 111.697765 
L 445.003977 115.122022 
L 444.211364 117.574139 
L 443.41875 116.170612 
L 442.626136 112.736393 
L 441.833523 105.299195 
L 441.040909 103.830729 
L 440.248295 99.189427 
L 437.870455 75.287048 
L 437.077841 70.236469 
L 436.285227 69.049034 
L 435.492614 67.257911 
L 434.7 66.96 
L 433.114773 72.727891 
L 432.322159 77.006933 
L 431.529545 82.243589 
L 430.736932 89.202761 
L 429.151705 92.57619 
L 428.359091 96.428821 
L 427.566477 101.789728 
L 426.773864 104.635393 
L 425.98125 110.870153 
L 425.188636 118.074034 
L 424.396023 119.2177 
L 423.603409 119.065295 
L 422.810795 117.798059 
L 422.018182 117.114302 
L 421.225568 123.093379 
L 420.432955 122.973261 
L 419.640341 123.552306 
L 418.055114 123.029506 
L 417.2625 126.652965 
L 416.469886 129.470686 
L 415.677273 127.435959 
L 414.884659 127.779894 
L 414.092045 125.510206 
L 413.299432 127.516354 
L 412.506818 131.740548 
L 411.714205 132.453447 
L 410.921591 133.418957 
L 408.54375 142.332533 
L 407.751136 143.506261 
L 406.958523 145.408826 
L 406.165909 148.303513 
L 405.373295 152.553049 
L 404.580682 155.326413 
L 403.788068 155.865926 
L 402.995455 159.694409 
L 402.202841 161.611409 
L 401.410227 162.400037 
L 400.617614 165.604527 
L 399.825 170.521907 
L 399.032386 174.419249 
L 398.239773 176.597199 
L 397.447159 177.14709 
L 396.654545 179.283044 
L 395.861932 180.89126 
L 395.069318 185.321321 
L 394.276705 188.216605 
L 393.484091 192.954037 
L 392.691477 198.874667 
L 391.898864 197.94268 
L 391.10625 202.307401 
L 389.521023 212.278868 
L 387.143182 225.038699 
L 386.350568 232.701977 
L 383.972727 237.407496 
L 383.180114 238.12465 
L 382.3875 238.428429 
L 381.594886 234.50592 
L 380.802273 232.293836 
L 380.009659 235.162709 
L 379.217045 240.450938 
L 378.424432 243.007315 
L 376.839205 250.914634 
L 376.046591 257.237072 
L 375.253977 261.986759 
L 374.461364 263.293696 
L 373.66875 263.131722 
L 372.876136 264.790001 
L 372.083523 267.103997 
L 371.290909 270.239747 
L 369.705682 277.803538 
L 368.913068 279.55044 
L 368.120455 283.061772 
L 367.327841 286.006727 
L 365.742614 290.122586 
L 364.95 291.844071 
L 364.157386 292.482814 
L 363.364773 293.986192 
L 362.572159 294.426403 
L 361.779545 295.774224 
L 359.401705 301.102461 
L 358.609091 302.364672 
L 357.816477 303.120265 
L 357.023864 304.570308 
L 356.23125 306.333001 
L 355.438636 307.301458 
L 354.646023 307.898288 
L 353.853409 307.467621 
L 353.060795 307.744698 
L 352.268182 307.880434 
L 351.475568 308.728256 
L 350.682955 309.107341 
L 349.890341 309.805642 
L 349.097727 310.683174 
L 348.305114 312.359183 
L 347.5125 313.290543 
L 346.719886 314.798044 
L 345.927273 315.41172 
L 345.134659 314.813987 
L 344.342045 313.424498 
L 343.549432 312.543343 
L 342.756818 311.161593 
L 341.964205 310.917726 
L 341.171591 311.131905 
L 340.378977 310.038146 
L 339.586364 308.676446 
L 338.001136 313.327174 
L 337.208523 315.953719 
L 336.415909 317.129219 
L 335.623295 317.349714 
L 334.830682 319.159151 
L 334.038068 322.136938 
L 333.245455 322.963366 
L 332.452841 322.989413 
L 331.660227 322.255713 
L 330.075 322.814609 
L 329.282386 322.371654 
L 328.489773 322.391721 
L 327.697159 322.605366 
L 326.904545 323.021787 
L 326.111932 324.111263 
L 325.319318 324.78835 
L 324.526705 324.873829 
L 323.734091 325.146215 
L 321.35625 326.727531 
L 318.978409 328.198253 
L 318.185795 328.915234 
L 317.393182 329.856662 
L 315.807955 332.471885 
L 315.015341 333.136295 
L 314.222727 333.627907 
L 313.430114 333.685227 
L 311.844886 334.697603 
L 311.052273 334.754073 
L 310.259659 334.357586 
L 309.467045 334.642482 
L 307.881818 334.850529 
L 307.089205 334.389952 
L 306.296591 334.686147 
L 305.503977 334.828548 
L 304.711364 335.489655 
L 303.91875 335.959088 
L 303.126136 336.221091 
L 302.333523 336.084007 
L 301.540909 335.647178 
L 298.370455 330.558856 
L 297.577841 328.925393 
L 295.992614 327.369708 
L 294.407386 327.107892 
L 293.614773 324.929359 
L 292.822159 324.124949 
L 292.029545 324.575217 
L 291.236932 324.794998 
L 290.444318 324.643414 
L 289.651705 324.276408 
L 288.859091 323.687273 
L 288.066477 325.386056 
L 287.273864 324.361195 
L 286.48125 323.560465 
L 284.103409 319.930475 
L 282.518182 316.685624 
L 281.725568 316.298532 
L 280.140341 312.991662 
L 279.347727 311.288835 
L 277.7625 306.684725 
L 275.384659 298.388666 
L 274.592045 296.478365 
L 273.799432 295.105279 
L 273.006818 292.777495 
L 271.421591 289.17445 
L 269.836364 285.289126 
L 269.04375 284.193869 
L 268.251136 282.407078 
L 267.458523 280.241443 
L 265.873295 276.563791 
L 265.080682 275.309552 
L 264.288068 276.479143 
L 263.495455 275.643666 
L 262.702841 275.421904 
L 261.910227 277.057218 
L 261.117614 272.903501 
L 260.325 273.867693 
L 259.532386 274.110498 
L 258.739773 273.405454 
L 257.947159 273.385171 
L 257.154545 273.249224 
L 256.361932 271.447339 
L 255.569318 274.866189 
L 254.776705 274.412822 
L 253.984091 275.268031 
L 253.191477 274.848179 
L 252.398864 274.749222 
L 251.60625 274.455398 
L 250.813636 275.69382 
L 250.021023 277.452889 
L 249.228409 278.636354 
L 248.435795 280.783661 
L 247.643182 284.495503 
L 246.850568 284.3647 
L 245.265341 285.450243 
L 244.472727 286.180032 
L 243.680114 286.399655 
L 242.8875 284.825181 
L 242.094886 284.269283 
L 241.302273 284.724075 
L 240.509659 284.442218 
L 239.717045 286.33196 
L 238.924432 287.230039 
L 238.131818 289.316333 
L 237.339205 291.904892 
L 236.546591 293.280481 
L 235.753977 293.632372 
L 234.961364 295.123413 
L 234.16875 296.207346 
L 233.376136 296.568074 
L 232.583523 296.587546 
L 231.790909 298.098432 
L 230.998295 298.46768 
L 230.205682 300.040581 
L 228.620455 302.237295 
L 227.827841 304.149217 
L 227.035227 304.644148 
L 226.242614 305.853548 
L 224.657386 306.945818 
L 223.864773 306.685308 
L 223.072159 307.526895 
L 222.279545 309.200469 
L 221.486932 311.670608 
L 220.694318 312.90534 
L 219.901705 315.362684 
L 219.109091 315.833169 
L 218.316477 316.6696 
L 215.938636 323.992966 
L 215.146023 325.090488 
L 214.353409 326.590535 
L 213.560795 326.524046 
L 212.768182 326.283207 
L 211.975568 327.083805 
L 211.182955 327.43224 
L 210.390341 327.145234 
L 209.597727 329.145306 
L 208.805114 329.683187 
L 208.0125 330.057006 
L 207.219886 330.590157 
L 205.634659 330.373482 
L 204.842045 331.128869 
L 204.049432 332.461412 
L 203.256818 333.117174 
L 202.464205 333.112825 
L 201.671591 333.471239 
L 200.878977 334.710808 
L 200.086364 335.305601 
L 199.29375 336.151859 
L 198.501136 335.560652 
L 197.708523 336.742884 
L 196.915909 337.39098 
L 196.123295 337.82169 
L 195.330682 338.817827 
L 194.538068 340.079933 
L 193.745455 338.907971 
L 192.952841 340.59062 
L 192.160227 341.041471 
L 191.367614 341.756919 
L 190.575 343.091402 
L 188.989773 344.429881 
L 188.197159 344.979398 
L 186.611932 348.458403 
L 185.819318 348.86598 
L 185.026705 348.962588 
L 183.441477 350.971372 
L 182.648864 352.423373 
L 181.063636 352.311089 
L 180.271023 352.515736 
L 179.478409 352.916397 
L 178.685795 351.807959 
L 177.893182 351.627542 
L 177.100568 351.775778 
L 176.307955 352.60505 
L 175.515341 353.969938 
L 174.722727 354.081934 
L 173.930114 354.417798 
L 173.1375 355.856631 
L 172.344886 356.321671 
L 171.552273 356.926945 
L 170.759659 357.187756 
L 169.967045 357.776126 
L 168.381818 358.045419 
L 167.589205 358.494716 
L 166.003977 359.707409 
L 164.41875 361.74656 
L 163.626136 362.322248 
L 161.248295 363.561209 
L 159.663068 364.302908 
L 158.870455 364.082935 
L 158.077841 364.003237 
L 157.285227 364.206209 
L 155.7 364.3643 
L 154.907386 364.667023 
L 154.114773 364.485031 
L 153.322159 364.576117 
L 152.529545 365.567035 
L 151.736932 365.626409 
L 150.944318 366.291111 
L 150.151705 366.443345 
L 149.359091 366.447967 
L 148.566477 366.296627 
L 147.773864 366.320546 
L 146.98125 365.919365 
L 146.188636 366.117842 
L 145.396023 365.751012 
L 143.810795 365.957036 
L 143.018182 366.666472 
L 142.225568 366.884292 
L 140.640341 366.771666 
L 138.2625 366.620177 
L 137.469886 366.27796 
L 135.092045 365.861786 
L 134.299432 366.186398 
L 133.506818 366.108864 
L 132.714205 366.386523 
L 131.128977 366.656108 
L 128.751136 367.813854 
L 126.373295 367.938547 
L 124.788068 368.069339 
L 123.202841 367.40717 
L 121.617614 367.639048 
L 120.032386 368.863997 
L 119.239773 368.746014 
L 118.447159 368.965607 
L 116.861932 368.869683 
L 116.069318 368.92953 
L 115.276705 368.735704 
L 114.484091 368.201631 
L 112.898864 368.295357 
L 112.10625 368.612467 
L 110.521023 368.06252 
L 109.728409 367.311659 
L 108.935795 366.115234 
L 108.143182 365.704806 
L 107.350568 362.085466 
L 106.557955 367.588824 
L 105.765341 367.588824 
L 104.972727 367.201887 
L 102.594886 367.201887 
L 101.802273 368.25789 
L 101.009659 362.085466 
L 97.839205 362.085466 
L 97.839205 362.085466 
" style="fill:none;stroke:#ff7f0e;stroke-linecap:square;stroke-width:1.5;"/>
   </g>
   <g id="patch_3">
    <path d="M 72 384.48 
L 72 51.84 
" style="fill:none;stroke:#000000;stroke-linecap:square;stroke-linejoin:miter;stroke-width:0.8;"/>
   </g>
   <g id="patch_4">
    <path d="M 518.4 384.48 
L 518.4 51.84 
" style="fill:none;stroke:#000000;stroke-linecap:square;stroke-linejoin:miter;stroke-width:0.8;"/>
   </g>
   <g id="patch_5">
    <path d="M 72 384.48 
L 518.4 384.48 
" style="fill:none;stroke:#000000;stroke-linecap:square;stroke-linejoin:miter;stroke-width:0.8;"/>
   </g>
   <g id="patch_6">
    <path d="M 72 51.84 
L 518.4 51.84 
" style="fill:none;stroke:#000000;stroke-linecap:square;stroke-linejoin:miter;stroke-width:0.8;"/>
   </g>
   <g id="text_17">
    <!-- Doubling Time -->
    <defs>
     <path d="M 48.6875 27.296875 
Q 48.6875 37.203125 44.609375 42.84375 
Q 40.53125 48.484375 33.40625 48.484375 
Q 26.265625 48.484375 22.1875 42.84375 
Q 18.109375 37.203125 18.109375 27.296875 
Q 18.109375 17.390625 22.1875 11.75 
Q 26.265625 6.109375 33.40625 6.109375 
Q 40.53125 6.109375 44.609375 11.75 
Q 48.6875 17.390625 48.6875 27.296875 
z
M 18.109375 46.390625 
Q 20.953125 51.265625 25.265625 53.625 
Q 29.59375 56 35.59375 56 
Q 45.5625 56 51.78125 48.09375 
Q 58.015625 40.1875 58.015625 27.296875 
Q 58.015625 14.40625 51.78125 6.484375 
Q 45.5625 -1.421875 35.59375 -1.421875 
Q 29.59375 -1.421875 25.265625 0.953125 
Q 20.953125 3.328125 18.109375 8.203125 
L 18.109375 0 
L 9.078125 0 
L 9.078125 75.984375 
L 18.109375 75.984375 
z
" id="DejaVuSans-98"/>
     <path d="M 9.421875 75.984375 
L 18.40625 75.984375 
L 18.40625 0 
L 9.421875 0 
z
" id="DejaVuSans-108"/>
     <path d="M 45.40625 27.984375 
Q 45.40625 37.75 41.375 43.109375 
Q 37.359375 48.484375 30.078125 48.484375 
Q 22.859375 48.484375 18.828125 43.109375 
Q 14.796875 37.75 14.796875 27.984375 
Q 14.796875 18.265625 18.828125 12.890625 
Q 22.859375 7.515625 30.078125 7.515625 
Q 37.359375 7.515625 41.375 12.890625 
Q 45.40625 18.265625 45.40625 27.984375 
z
M 54.390625 6.78125 
Q 54.390625 -7.171875 48.1875 -13.984375 
Q 42 -20.796875 29.203125 -20.796875 
Q 24.46875 -20.796875 20.265625 -20.09375 
Q 16.0625 -19.390625 12.109375 -17.921875 
L 12.109375 -9.1875 
Q 16.0625 -11.328125 19.921875 -12.34375 
Q 23.78125 -13.375 27.78125 -13.375 
Q 36.625 -13.375 41.015625 -8.765625 
Q 45.40625 -4.15625 45.40625 5.171875 
L 45.40625 9.625 
Q 42.625 4.78125 38.28125 2.390625 
Q 33.9375 0 27.875 0 
Q 17.828125 0 11.671875 7.65625 
Q 5.515625 15.328125 5.515625 27.984375 
Q 5.515625 40.671875 11.671875 48.328125 
Q 17.828125 56 27.875 56 
Q 33.9375 56 38.28125 53.609375 
Q 42.625 51.21875 45.40625 46.390625 
L 45.40625 54.6875 
L 54.390625 54.6875 
z
" id="DejaVuSans-103"/>
     <path d="M -0.296875 72.90625 
L 61.375 72.90625 
L 61.375 64.59375 
L 35.5 64.59375 
L 35.5 0 
L 25.59375 0 
L 25.59375 64.59375 
L -0.296875 64.59375 
z
" id="DejaVuSans-84"/>
     <path d="M 52 44.1875 
Q 55.375 50.25 60.0625 53.125 
Q 64.75 56 71.09375 56 
Q 79.640625 56 84.28125 50.015625 
Q 88.921875 44.046875 88.921875 33.015625 
L 88.921875 0 
L 79.890625 0 
L 79.890625 32.71875 
Q 79.890625 40.578125 77.09375 44.375 
Q 74.3125 48.1875 68.609375 48.1875 
Q 61.625 48.1875 57.5625 43.546875 
Q 53.515625 38.921875 53.515625 30.90625 
L 53.515625 0 
L 44.484375 0 
L 44.484375 32.71875 
Q 44.484375 40.625 41.703125 44.40625 
Q 38.921875 48.1875 33.109375 48.1875 
Q 26.21875 48.1875 22.15625 43.53125 
Q 18.109375 38.875 18.109375 30.90625 
L 18.109375 0 
L 9.078125 0 
L 9.078125 54.6875 
L 18.109375 54.6875 
L 18.109375 46.1875 
Q 21.1875 51.21875 25.484375 53.609375 
Q 29.78125 56 35.6875 56 
Q 41.65625 56 45.828125 52.96875 
Q 50 49.953125 52 44.1875 
z
" id="DejaVuSans-109"/>
    </defs>
    <g transform="translate(251.764687 45.84)scale(0.12 -0.12)">
     <use xlink:href="#DejaVuSans-68"/>
     <use x="77.001953" xlink:href="#DejaVuSans-111"/>
     <use x="138.183594" xlink:href="#DejaVuSans-117"/>
     <use x="201.5625" xlink:href="#DejaVuSans-98"/>
     <use x="265.039062" xlink:href="#DejaVuSans-108"/>
     <use x="292.822266" xlink:href="#DejaVuSans-105"/>
     <use x="320.605469" xlink:href="#DejaVuSans-110"/>
     <use x="383.984375" xlink:href="#DejaVuSans-103"/>
     <use x="447.460938" xlink:href="#DejaVuSans-32"/>
     <use x="479.248047" xlink:href="#DejaVuSans-84"/>
     <use x="537.207031" xlink:href="#DejaVuSans-105"/>
     <use x="564.990234" xlink:href="#DejaVuSans-109"/>
     <use x="662.402344" xlink:href="#DejaVuSans-101"/>
    </g>
   </g>
   <g id="legend_1">
    <g id="patch_7">
     <path d="M 79 89.19625 
L 354.582813 89.19625 
Q 356.582813 89.19625 356.582813 87.19625 
L 356.582813 58.84 
Q 356.582813 56.84 354.582813 56.84 
L 79 56.84 
Q 77 56.84 77 58.84 
L 77 87.19625 
Q 77 89.19625 79 89.19625 
z
" style="fill:#ffffff;opacity:0.8;stroke:#cccccc;stroke-linejoin:miter;"/>
    </g>
    <g id="line2d_17">
     <path d="M 81 64.938437 
L 101 64.938437 
" style="fill:none;stroke:#1f77b4;stroke-linecap:square;stroke-width:1.5;"/>
    </g>
    <g id="line2d_18"/>
    <g id="text_18">
     <!-- Doubling Time of Confirmed Cases (over 7 days) -->
     <defs>
      <path d="M 37.109375 75.984375 
L 37.109375 68.5 
L 28.515625 68.5 
Q 23.6875 68.5 21.796875 66.546875 
Q 19.921875 64.59375 19.921875 59.515625 
L 19.921875 54.6875 
L 34.71875 54.6875 
L 34.71875 47.703125 
L 19.921875 47.703125 
L 19.921875 0 
L 10.890625 0 
L 10.890625 47.703125 
L 2.296875 47.703125 
L 2.296875 54.6875 
L 10.890625 54.6875 
L 10.890625 58.5 
Q 10.890625 67.625 15.140625 71.796875 
Q 19.390625 75.984375 28.609375 75.984375 
z
" id="DejaVuSans-102"/>
      <path d="M 64.40625 67.28125 
L 64.40625 56.890625 
Q 59.421875 61.53125 53.78125 63.8125 
Q 48.140625 66.109375 41.796875 66.109375 
Q 29.296875 66.109375 22.65625 58.46875 
Q 16.015625 50.828125 16.015625 36.375 
Q 16.015625 21.96875 22.65625 14.328125 
Q 29.296875 6.6875 41.796875 6.6875 
Q 48.140625 6.6875 53.78125 8.984375 
Q 59.421875 11.28125 64.40625 15.921875 
L 64.40625 5.609375 
Q 59.234375 2.09375 53.4375 0.328125 
Q 47.65625 -1.421875 41.21875 -1.421875 
Q 24.65625 -1.421875 15.125 8.703125 
Q 5.609375 18.84375 5.609375 36.375 
Q 5.609375 53.953125 15.125 64.078125 
Q 24.65625 74.21875 41.21875 74.21875 
Q 47.75 74.21875 53.53125 72.484375 
Q 59.328125 70.75 64.40625 67.28125 
z
" id="DejaVuSans-67"/>
      <path d="M 31 75.875 
Q 24.46875 64.65625 21.28125 53.65625 
Q 18.109375 42.671875 18.109375 31.390625 
Q 18.109375 20.125 21.3125 9.0625 
Q 24.515625 -2 31 -13.1875 
L 23.1875 -13.1875 
Q 15.875 -1.703125 12.234375 9.375 
Q 8.59375 20.453125 8.59375 31.390625 
Q 8.59375 42.28125 12.203125 53.3125 
Q 15.828125 64.359375 23.1875 75.875 
z
" id="DejaVuSans-40"/>
      <path d="M 2.984375 54.6875 
L 12.5 54.6875 
L 29.59375 8.796875 
L 46.6875 54.6875 
L 56.203125 54.6875 
L 35.6875 0 
L 23.484375 0 
z
" id="DejaVuSans-118"/>
      <path d="M 8.015625 75.875 
L 15.828125 75.875 
Q 23.140625 64.359375 26.78125 53.3125 
Q 30.421875 42.28125 30.421875 31.390625 
Q 30.421875 20.453125 26.78125 9.375 
Q 23.140625 -1.703125 15.828125 -13.1875 
L 8.015625 -13.1875 
Q 14.5 -2 17.703125 9.0625 
Q 20.90625 20.125 20.90625 31.390625 
Q 20.90625 42.671875 17.703125 53.65625 
Q 14.5 64.65625 8.015625 75.875 
z
" id="DejaVuSans-41"/>
     </defs>
     <g transform="translate(109 68.438437)scale(0.1 -0.1)">
      <use xlink:href="#DejaVuSans-68"/>
      <use x="77.001953" xlink:href="#DejaVuSans-111"/>
      <use x="138.183594" xlink:href="#DejaVuSans-117"/>
      <use x="201.5625" xlink:href="#DejaVuSans-98"/>
      <use x="265.039062" xlink:href="#DejaVuSans-108"/>
      <use x="292.822266" xlink:href="#DejaVuSans-105"/>
      <use x="320.605469" xlink:href="#DejaVuSans-110"/>
      <use x="383.984375" xlink:href="#DejaVuSans-103"/>
      <use x="447.460938" xlink:href="#DejaVuSans-32"/>
      <use x="479.248047" xlink:href="#DejaVuSans-84"/>
      <use x="537.207031" xlink:href="#DejaVuSans-105"/>
      <use x="564.990234" xlink:href="#DejaVuSans-109"/>
      <use x="662.402344" xlink:href="#DejaVuSans-101"/>
      <use x="723.925781" xlink:href="#DejaVuSans-32"/>
      <use x="755.712891" xlink:href="#DejaVuSans-111"/>
      <use x="816.894531" xlink:href="#DejaVuSans-102"/>
      <use x="852.099609" xlink:href="#DejaVuSans-32"/>
      <use x="883.886719" xlink:href="#DejaVuSans-67"/>
      <use x="953.710938" xlink:href="#DejaVuSans-111"/>
      <use x="1014.892578" xlink:href="#DejaVuSans-110"/>
      <use x="1078.271484" xlink:href="#DejaVuSans-102"/>
      <use x="1113.476562" xlink:href="#DejaVuSans-105"/>
      <use x="1141.259766" xlink:href="#DejaVuSans-114"/>
      <use x="1180.623047" xlink:href="#DejaVuSans-109"/>
      <use x="1278.035156" xlink:href="#DejaVuSans-101"/>
      <use x="1339.558594" xlink:href="#DejaVuSans-100"/>
      <use x="1403.035156" xlink:href="#DejaVuSans-32"/>
      <use x="1434.822266" xlink:href="#DejaVuSans-67"/>
      <use x="1504.646484" xlink:href="#DejaVuSans-97"/>
      <use x="1565.925781" xlink:href="#DejaVuSans-115"/>
      <use x="1618.025391" xlink:href="#DejaVuSans-101"/>
      <use x="1679.548828" xlink:href="#DejaVuSans-115"/>
      <use x="1731.648438" xlink:href="#DejaVuSans-32"/>
      <use x="1763.435547" xlink:href="#DejaVuSans-40"/>
      <use x="1802.449219" xlink:href="#DejaVuSans-111"/>
      <use x="1863.630859" xlink:href="#DejaVuSans-118"/>
      <use x="1922.810547" xlink:href="#DejaVuSans-101"/>
      <use x="1984.333984" xlink:href="#DejaVuSans-114"/>
      <use x="2025.447266" xlink:href="#DejaVuSans-32"/>
      <use x="2057.234375" xlink:href="#DejaVuSans-55"/>
      <use x="2120.857422" xlink:href="#DejaVuSans-32"/>
      <use x="2152.644531" xlink:href="#DejaVuSans-100"/>
      <use x="2216.121094" xlink:href="#DejaVuSans-97"/>
      <use x="2277.400391" xlink:href="#DejaVuSans-121"/>
      <use x="2336.580078" xlink:href="#DejaVuSans-115"/>
      <use x="2388.679688" xlink:href="#DejaVuSans-41"/>
     </g>
    </g>
    <g id="line2d_19">
     <path d="M 81 79.616562 
L 101 79.616562 
" style="fill:none;stroke:#ff7f0e;stroke-linecap:square;stroke-width:1.5;"/>
    </g>
    <g id="line2d_20"/>
    <g id="text_19">
     <!-- Doubling Time of Recovered Cases (over 7 days) -->
     <defs>
      <path d="M 48.78125 52.59375 
L 48.78125 44.1875 
Q 44.96875 46.296875 41.140625 47.34375 
Q 37.3125 48.390625 33.40625 48.390625 
Q 24.65625 48.390625 19.8125 42.84375 
Q 14.984375 37.3125 14.984375 27.296875 
Q 14.984375 17.28125 19.8125 11.734375 
Q 24.65625 6.203125 33.40625 6.203125 
Q 37.3125 6.203125 41.140625 7.25 
Q 44.96875 8.296875 48.78125 10.40625 
L 48.78125 2.09375 
Q 45.015625 0.34375 40.984375 -0.53125 
Q 36.96875 -1.421875 32.421875 -1.421875 
Q 20.0625 -1.421875 12.78125 6.34375 
Q 5.515625 14.109375 5.515625 27.296875 
Q 5.515625 40.671875 12.859375 48.328125 
Q 20.21875 56 33.015625 56 
Q 37.15625 56 41.109375 55.140625 
Q 45.0625 54.296875 48.78125 52.59375 
z
" id="DejaVuSans-99"/>
     </defs>
     <g transform="translate(109 83.116562)scale(0.1 -0.1)">
      <use xlink:href="#DejaVuSans-68"/>
      <use x="77.001953" xlink:href="#DejaVuSans-111"/>
      <use x="138.183594" xlink:href="#DejaVuSans-117"/>
      <use x="201.5625" xlink:href="#DejaVuSans-98"/>
      <use x="265.039062" xlink:href="#DejaVuSans-108"/>
      <use x="292.822266" xlink:href="#DejaVuSans-105"/>
      <use x="320.605469" xlink:href="#DejaVuSans-110"/>
      <use x="383.984375" xlink:href="#DejaVuSans-103"/>
      <use x="447.460938" xlink:href="#DejaVuSans-32"/>
      <use x="479.248047" xlink:href="#DejaVuSans-84"/>
      <use x="537.207031" xlink:href="#DejaVuSans-105"/>
      <use x="564.990234" xlink:href="#DejaVuSans-109"/>
      <use x="662.402344" xlink:href="#DejaVuSans-101"/>
      <use x="723.925781" xlink:href="#DejaVuSans-32"/>
      <use x="755.712891" xlink:href="#DejaVuSans-111"/>
      <use x="816.894531" xlink:href="#DejaVuSans-102"/>
      <use x="852.099609" xlink:href="#DejaVuSans-32"/>
      <use x="883.886719" xlink:href="#DejaVuSans-82"/>
      <use x="948.869141" xlink:href="#DejaVuSans-101"/>
      <use x="1010.392578" xlink:href="#DejaVuSans-99"/>
      <use x="1065.373047" xlink:href="#DejaVuSans-111"/>
      <use x="1126.554688" xlink:href="#DejaVuSans-118"/>
      <use x="1185.734375" xlink:href="#DejaVuSans-101"/>
      <use x="1247.257812" xlink:href="#DejaVuSans-114"/>
      <use x="1286.121094" xlink:href="#DejaVuSans-101"/>
      <use x="1347.644531" xlink:href="#DejaVuSans-100"/>
      <use x="1411.121094" xlink:href="#DejaVuSans-32"/>
      <use x="1442.908203" xlink:href="#DejaVuSans-67"/>
      <use x="1512.732422" xlink:href="#DejaVuSans-97"/>
      <use x="1574.011719" xlink:href="#DejaVuSans-115"/>
      <use x="1626.111328" xlink:href="#DejaVuSans-101"/>
      <use x="1687.634766" xlink:href="#DejaVuSans-115"/>
      <use x="1739.734375" xlink:href="#DejaVuSans-32"/>
      <use x="1771.521484" xlink:href="#DejaVuSans-40"/>
      <use x="1810.535156" xlink:href="#DejaVuSans-111"/>
      <use x="1871.716797" xlink:href="#DejaVuSans-118"/>
      <use x="1930.896484" xlink:href="#DejaVuSans-101"/>
      <use x="1992.419922" xlink:href="#DejaVuSans-114"/>
      <use x="2033.533203" xlink:href="#DejaVuSans-32"/>
      <use x="2065.320312" xlink:href="#DejaVuSans-55"/>
      <use x="2128.943359" xlink:href="#DejaVuSans-32"/>
      <use x="2160.730469" xlink:href="#DejaVuSans-100"/>
      <use x="2224.207031" xlink:href="#DejaVuSans-97"/>
      <use x="2285.486328" xlink:href="#DejaVuSans-121"/>
      <use x="2344.666016" xlink:href="#DejaVuSans-115"/>
      <use x="2396.765625" xlink:href="#DejaVuSans-41"/>
     </g>
    </g>
   </g>
  </g>
 </g>
 <defs>
  <clipPath id="p1e17f4c68f">
   <rect height="332.64" width="446.4" x="72" y="51.84"/>
  </clipPath>
 </defs>
</svg>
