<?xml version="1.0" encoding="utf-8" standalone="no"?>
<!DOCTYPE svg PUBLIC "-//W3C//DTD SVG 1.1//EN"
  "http://www.w3.org/Graphics/SVG/1.1/DTD/svg11.dtd">
<!-- Created with matplotlib (https://matplotlib.org/) -->
<svg height="432pt" version="1.1" viewBox="0 0 576 432" width="576pt" xmlns="http://www.w3.org/2000/svg" xmlns:xlink="http://www.w3.org/1999/xlink">
 <defs>
  <style type="text/css">
*{stroke-linecap:butt;stroke-linejoin:round;}
  </style>
 </defs>
 <g id="figure_1">
  <g id="patch_1">
   <path d="M 0 432 
L 576 432 
L 576 0 
L 0 0 
z
" style="fill:#ffffff;"/>
  </g>
  <g id="axes_1">
   <g id="patch_2">
    <path d="M 60.32 363.654503 
L 565.2 363.654503 
L 565.2 26.88 
L 60.32 26.88 
z
" style="fill:#ffffff;"/>
   </g>
   <g id="matplotlib.axis_1">
    <g id="xtick_1">
     <g id="line2d_1">
      <defs>
       <path d="M 0 0 
L 0 3.5 
" id="m665d06eb6e" style="stroke:#000000;stroke-width:0.8;"/>
      </defs>
      <g>
       <use style="stroke:#000000;stroke-width:0.8;" x="66.578843" xlink:href="#m665d06eb6e" y="363.654503"/>
      </g>
     </g>
     <g id="text_1">
      <!-- 2020-03 -->
      <defs>
       <path d="M 19.1875 8.296875 
L 53.609375 8.296875 
L 53.609375 0 
L 7.328125 0 
L 7.328125 8.296875 
Q 12.9375 14.109375 22.625 23.890625 
Q 32.328125 33.6875 34.8125 36.53125 
Q 39.546875 41.84375 41.421875 45.53125 
Q 43.3125 49.21875 43.3125 52.78125 
Q 43.3125 58.59375 39.234375 62.25 
Q 35.15625 65.921875 28.609375 65.921875 
Q 23.96875 65.921875 18.8125 64.3125 
Q 13.671875 62.703125 7.8125 59.421875 
L 7.8125 69.390625 
Q 13.765625 71.78125 18.9375 73 
Q 24.125 74.21875 28.421875 74.21875 
Q 39.75 74.21875 46.484375 68.546875 
Q 53.21875 62.890625 53.21875 53.421875 
Q 53.21875 48.921875 51.53125 44.890625 
Q 49.859375 40.875 45.40625 35.40625 
Q 44.1875 33.984375 37.640625 27.21875 
Q 31.109375 20.453125 19.1875 8.296875 
z
" id="DejaVuSans-50"/>
       <path d="M 31.78125 66.40625 
Q 24.171875 66.40625 20.328125 58.90625 
Q 16.5 51.421875 16.5 36.375 
Q 16.5 21.390625 20.328125 13.890625 
Q 24.171875 6.390625 31.78125 6.390625 
Q 39.453125 6.390625 43.28125 13.890625 
Q 47.125 21.390625 47.125 36.375 
Q 47.125 51.421875 43.28125 58.90625 
Q 39.453125 66.40625 31.78125 66.40625 
z
M 31.78125 74.21875 
Q 44.046875 74.21875 50.515625 64.515625 
Q 56.984375 54.828125 56.984375 36.375 
Q 56.984375 17.96875 50.515625 8.265625 
Q 44.046875 -1.421875 31.78125 -1.421875 
Q 19.53125 -1.421875 13.0625 8.265625 
Q 6.59375 17.96875 6.59375 36.375 
Q 6.59375 54.828125 13.0625 64.515625 
Q 19.53125 74.21875 31.78125 74.21875 
z
" id="DejaVuSans-48"/>
       <path d="M 4.890625 31.390625 
L 31.203125 31.390625 
L 31.203125 23.390625 
L 4.890625 23.390625 
z
" id="DejaVuSans-45"/>
       <path d="M 40.578125 39.3125 
Q 47.65625 37.796875 51.625 33 
Q 55.609375 28.21875 55.609375 21.1875 
Q 55.609375 10.40625 48.1875 4.484375 
Q 40.765625 -1.421875 27.09375 -1.421875 
Q 22.515625 -1.421875 17.65625 -0.515625 
Q 12.796875 0.390625 7.625 2.203125 
L 7.625 11.71875 
Q 11.71875 9.328125 16.59375 8.109375 
Q 21.484375 6.890625 26.8125 6.890625 
Q 36.078125 6.890625 40.9375 10.546875 
Q 45.796875 14.203125 45.796875 21.1875 
Q 45.796875 27.640625 41.28125 31.265625 
Q 36.765625 34.90625 28.71875 34.90625 
L 20.21875 34.90625 
L 20.21875 43.015625 
L 29.109375 43.015625 
Q 36.375 43.015625 40.234375 45.921875 
Q 44.09375 48.828125 44.09375 54.296875 
Q 44.09375 59.90625 40.109375 62.90625 
Q 36.140625 65.921875 28.71875 65.921875 
Q 24.65625 65.921875 20.015625 65.03125 
Q 15.375 64.15625 9.8125 62.3125 
L 9.8125 71.09375 
Q 15.4375 72.65625 20.34375 73.4375 
Q 25.25 74.21875 29.59375 74.21875 
Q 40.828125 74.21875 47.359375 69.109375 
Q 53.90625 64.015625 53.90625 55.328125 
Q 53.90625 49.265625 50.4375 45.09375 
Q 46.96875 40.921875 40.578125 39.3125 
z
" id="DejaVuSans-51"/>
      </defs>
      <g transform="translate(35.563372 405.57232)rotate(-45)scale(0.1 -0.1)">
       <use xlink:href="#DejaVuSans-50"/>
       <use x="63.623047" xlink:href="#DejaVuSans-48"/>
       <use x="127.246094" xlink:href="#DejaVuSans-50"/>
       <use x="190.869141" xlink:href="#DejaVuSans-48"/>
       <use x="254.492188" xlink:href="#DejaVuSans-45"/>
       <use x="290.576172" xlink:href="#DejaVuSans-48"/>
       <use x="354.199219" xlink:href="#DejaVuSans-51"/>
      </g>
     </g>
    </g>
    <g id="xtick_2">
     <g id="line2d_2">
      <g>
       <use style="stroke:#000000;stroke-width:0.8;" x="117.484099" xlink:href="#m665d06eb6e" y="363.654503"/>
      </g>
     </g>
     <g id="text_2">
      <!-- 2020-05 -->
      <defs>
       <path d="M 10.796875 72.90625 
L 49.515625 72.90625 
L 49.515625 64.59375 
L 19.828125 64.59375 
L 19.828125 46.734375 
Q 21.96875 47.46875 24.109375 47.828125 
Q 26.265625 48.1875 28.421875 48.1875 
Q 40.625 48.1875 47.75 41.5 
Q 54.890625 34.8125 54.890625 23.390625 
Q 54.890625 11.625 47.5625 5.09375 
Q 40.234375 -1.421875 26.90625 -1.421875 
Q 22.3125 -1.421875 17.546875 -0.640625 
Q 12.796875 0.140625 7.71875 1.703125 
L 7.71875 11.625 
Q 12.109375 9.234375 16.796875 8.0625 
Q 21.484375 6.890625 26.703125 6.890625 
Q 35.15625 6.890625 40.078125 11.328125 
Q 45.015625 15.765625 45.015625 23.390625 
Q 45.015625 31 40.078125 35.4375 
Q 35.15625 39.890625 26.703125 39.890625 
Q 22.75 39.890625 18.8125 39.015625 
Q 14.890625 38.140625 10.796875 36.28125 
z
" id="DejaVuSans-53"/>
      </defs>
      <g transform="translate(86.468628 405.57232)rotate(-45)scale(0.1 -0.1)">
       <use xlink:href="#DejaVuSans-50"/>
       <use x="63.623047" xlink:href="#DejaVuSans-48"/>
       <use x="127.246094" xlink:href="#DejaVuSans-50"/>
       <use x="190.869141" xlink:href="#DejaVuSans-48"/>
       <use x="254.492188" xlink:href="#DejaVuSans-45"/>
       <use x="290.576172" xlink:href="#DejaVuSans-48"/>
       <use x="354.199219" xlink:href="#DejaVuSans-53"/>
      </g>
     </g>
    </g>
    <g id="xtick_3">
     <g id="line2d_3">
      <g>
       <use style="stroke:#000000;stroke-width:0.8;" x="168.389355" xlink:href="#m665d06eb6e" y="363.654503"/>
      </g>
     </g>
     <g id="text_3">
      <!-- 2020-07 -->
      <defs>
       <path d="M 8.203125 72.90625 
L 55.078125 72.90625 
L 55.078125 68.703125 
L 28.609375 0 
L 18.3125 0 
L 43.21875 64.59375 
L 8.203125 64.59375 
z
" id="DejaVuSans-55"/>
      </defs>
      <g transform="translate(137.373884 405.57232)rotate(-45)scale(0.1 -0.1)">
       <use xlink:href="#DejaVuSans-50"/>
       <use x="63.623047" xlink:href="#DejaVuSans-48"/>
       <use x="127.246094" xlink:href="#DejaVuSans-50"/>
       <use x="190.869141" xlink:href="#DejaVuSans-48"/>
       <use x="254.492188" xlink:href="#DejaVuSans-45"/>
       <use x="290.576172" xlink:href="#DejaVuSans-48"/>
       <use x="354.199219" xlink:href="#DejaVuSans-55"/>
      </g>
     </g>
    </g>
    <g id="xtick_4">
     <g id="line2d_4">
      <g>
       <use style="stroke:#000000;stroke-width:0.8;" x="220.129124" xlink:href="#m665d06eb6e" y="363.654503"/>
      </g>
     </g>
     <g id="text_4">
      <!-- 2020-09 -->
      <defs>
       <path d="M 10.984375 1.515625 
L 10.984375 10.5 
Q 14.703125 8.734375 18.5 7.8125 
Q 22.3125 6.890625 25.984375 6.890625 
Q 35.75 6.890625 40.890625 13.453125 
Q 46.046875 20.015625 46.78125 33.40625 
Q 43.953125 29.203125 39.59375 26.953125 
Q 35.25 24.703125 29.984375 24.703125 
Q 19.046875 24.703125 12.671875 31.3125 
Q 6.296875 37.9375 6.296875 49.421875 
Q 6.296875 60.640625 12.9375 67.421875 
Q 19.578125 74.21875 30.609375 74.21875 
Q 43.265625 74.21875 49.921875 64.515625 
Q 56.59375 54.828125 56.59375 36.375 
Q 56.59375 19.140625 48.40625 8.859375 
Q 40.234375 -1.421875 26.421875 -1.421875 
Q 22.703125 -1.421875 18.890625 -0.6875 
Q 15.09375 0.046875 10.984375 1.515625 
z
M 30.609375 32.421875 
Q 37.25 32.421875 41.125 36.953125 
Q 45.015625 41.5 45.015625 49.421875 
Q 45.015625 57.28125 41.125 61.84375 
Q 37.25 66.40625 30.609375 66.40625 
Q 23.96875 66.40625 20.09375 61.84375 
Q 16.21875 57.28125 16.21875 49.421875 
Q 16.21875 41.5 20.09375 36.953125 
Q 23.96875 32.421875 30.609375 32.421875 
z
" id="DejaVuSans-57"/>
      </defs>
      <g transform="translate(189.113653 405.57232)rotate(-45)scale(0.1 -0.1)">
       <use xlink:href="#DejaVuSans-50"/>
       <use x="63.623047" xlink:href="#DejaVuSans-48"/>
       <use x="127.246094" xlink:href="#DejaVuSans-50"/>
       <use x="190.869141" xlink:href="#DejaVuSans-48"/>
       <use x="254.492188" xlink:href="#DejaVuSans-45"/>
       <use x="290.576172" xlink:href="#DejaVuSans-48"/>
       <use x="354.199219" xlink:href="#DejaVuSans-57"/>
      </g>
     </g>
    </g>
    <g id="xtick_5">
     <g id="line2d_5">
      <g>
       <use style="stroke:#000000;stroke-width:0.8;" x="271.03438" xlink:href="#m665d06eb6e" y="363.654503"/>
      </g>
     </g>
     <g id="text_5">
      <!-- 2020-11 -->
      <defs>
       <path d="M 12.40625 8.296875 
L 28.515625 8.296875 
L 28.515625 63.921875 
L 10.984375 60.40625 
L 10.984375 69.390625 
L 28.421875 72.90625 
L 38.28125 72.90625 
L 38.28125 8.296875 
L 54.390625 8.296875 
L 54.390625 0 
L 12.40625 0 
z
" id="DejaVuSans-49"/>
      </defs>
      <g transform="translate(240.018909 405.57232)rotate(-45)scale(0.1 -0.1)">
       <use xlink:href="#DejaVuSans-50"/>
       <use x="63.623047" xlink:href="#DejaVuSans-48"/>
       <use x="127.246094" xlink:href="#DejaVuSans-50"/>
       <use x="190.869141" xlink:href="#DejaVuSans-48"/>
       <use x="254.492188" xlink:href="#DejaVuSans-45"/>
       <use x="290.576172" xlink:href="#DejaVuSans-49"/>
       <use x="354.199219" xlink:href="#DejaVuSans-49"/>
      </g>
     </g>
    </g>
    <g id="xtick_6">
     <g id="line2d_6">
      <g>
       <use style="stroke:#000000;stroke-width:0.8;" x="321.939636" xlink:href="#m665d06eb6e" y="363.654503"/>
      </g>
     </g>
     <g id="text_6">
      <!-- 2021-01 -->
      <g transform="translate(290.924165 405.57232)rotate(-45)scale(0.1 -0.1)">
       <use xlink:href="#DejaVuSans-50"/>
       <use x="63.623047" xlink:href="#DejaVuSans-48"/>
       <use x="127.246094" xlink:href="#DejaVuSans-50"/>
       <use x="190.869141" xlink:href="#DejaVuSans-49"/>
       <use x="254.492188" xlink:href="#DejaVuSans-45"/>
       <use x="290.576172" xlink:href="#DejaVuSans-48"/>
       <use x="354.199219" xlink:href="#DejaVuSans-49"/>
      </g>
     </g>
    </g>
    <g id="xtick_7">
     <g id="line2d_7">
      <g>
       <use style="stroke:#000000;stroke-width:0.8;" x="371.175868" xlink:href="#m665d06eb6e" y="363.654503"/>
      </g>
     </g>
     <g id="text_7">
      <!-- 2021-03 -->
      <g transform="translate(340.160397 405.57232)rotate(-45)scale(0.1 -0.1)">
       <use xlink:href="#DejaVuSans-50"/>
       <use x="63.623047" xlink:href="#DejaVuSans-48"/>
       <use x="127.246094" xlink:href="#DejaVuSans-50"/>
       <use x="190.869141" xlink:href="#DejaVuSans-49"/>
       <use x="254.492188" xlink:href="#DejaVuSans-45"/>
       <use x="290.576172" xlink:href="#DejaVuSans-48"/>
       <use x="354.199219" xlink:href="#DejaVuSans-51"/>
      </g>
     </g>
    </g>
    <g id="xtick_8">
     <g id="line2d_8">
      <g>
       <use style="stroke:#000000;stroke-width:0.8;" x="422.081124" xlink:href="#m665d06eb6e" y="363.654503"/>
      </g>
     </g>
     <g id="text_8">
      <!-- 2021-05 -->
      <g transform="translate(391.065653 405.57232)rotate(-45)scale(0.1 -0.1)">
       <use xlink:href="#DejaVuSans-50"/>
       <use x="63.623047" xlink:href="#DejaVuSans-48"/>
       <use x="127.246094" xlink:href="#DejaVuSans-50"/>
       <use x="190.869141" xlink:href="#DejaVuSans-49"/>
       <use x="254.492188" xlink:href="#DejaVuSans-45"/>
       <use x="290.576172" xlink:href="#DejaVuSans-48"/>
       <use x="354.199219" xlink:href="#DejaVuSans-53"/>
      </g>
     </g>
    </g>
    <g id="xtick_9">
     <g id="line2d_9">
      <g>
       <use style="stroke:#000000;stroke-width:0.8;" x="472.98638" xlink:href="#m665d06eb6e" y="363.654503"/>
      </g>
     </g>
     <g id="text_9">
      <!-- 2021-07 -->
      <g transform="translate(441.970909 405.57232)rotate(-45)scale(0.1 -0.1)">
       <use xlink:href="#DejaVuSans-50"/>
       <use x="63.623047" xlink:href="#DejaVuSans-48"/>
       <use x="127.246094" xlink:href="#DejaVuSans-50"/>
       <use x="190.869141" xlink:href="#DejaVuSans-49"/>
       <use x="254.492188" xlink:href="#DejaVuSans-45"/>
       <use x="290.576172" xlink:href="#DejaVuSans-48"/>
       <use x="354.199219" xlink:href="#DejaVuSans-55"/>
      </g>
     </g>
    </g>
    <g id="xtick_10">
     <g id="line2d_10">
      <g>
       <use style="stroke:#000000;stroke-width:0.8;" x="524.726149" xlink:href="#m665d06eb6e" y="363.654503"/>
      </g>
     </g>
     <g id="text_10">
      <!-- 2021-09 -->
      <g transform="translate(493.710678 405.57232)rotate(-45)scale(0.1 -0.1)">
       <use xlink:href="#DejaVuSans-50"/>
       <use x="63.623047" xlink:href="#DejaVuSans-48"/>
       <use x="127.246094" xlink:href="#DejaVuSans-50"/>
       <use x="190.869141" xlink:href="#DejaVuSans-49"/>
       <use x="254.492188" xlink:href="#DejaVuSans-45"/>
       <use x="290.576172" xlink:href="#DejaVuSans-48"/>
       <use x="354.199219" xlink:href="#DejaVuSans-57"/>
      </g>
     </g>
    </g>
    <g id="text_11">
     <!-- Reported On -->
     <defs>
      <path d="M 44.390625 34.1875 
Q 47.5625 33.109375 50.5625 29.59375 
Q 53.5625 26.078125 56.59375 19.921875 
L 66.609375 0 
L 56 0 
L 46.6875 18.703125 
Q 43.0625 26.03125 39.671875 28.421875 
Q 36.28125 30.8125 30.421875 30.8125 
L 19.671875 30.8125 
L 19.671875 0 
L 9.8125 0 
L 9.8125 72.90625 
L 32.078125 72.90625 
Q 44.578125 72.90625 50.734375 67.671875 
Q 56.890625 62.453125 56.890625 51.90625 
Q 56.890625 45.015625 53.6875 40.46875 
Q 50.484375 35.9375 44.390625 34.1875 
z
M 19.671875 64.796875 
L 19.671875 38.921875 
L 32.078125 38.921875 
Q 39.203125 38.921875 42.84375 42.21875 
Q 46.484375 45.515625 46.484375 51.90625 
Q 46.484375 58.296875 42.84375 61.546875 
Q 39.203125 64.796875 32.078125 64.796875 
z
" id="DejaVuSans-82"/>
      <path d="M 56.203125 29.59375 
L 56.203125 25.203125 
L 14.890625 25.203125 
Q 15.484375 15.921875 20.484375 11.0625 
Q 25.484375 6.203125 34.421875 6.203125 
Q 39.59375 6.203125 44.453125 7.46875 
Q 49.3125 8.734375 54.109375 11.28125 
L 54.109375 2.78125 
Q 49.265625 0.734375 44.1875 -0.34375 
Q 39.109375 -1.421875 33.890625 -1.421875 
Q 20.796875 -1.421875 13.15625 6.1875 
Q 5.515625 13.8125 5.515625 26.8125 
Q 5.515625 40.234375 12.765625 48.109375 
Q 20.015625 56 32.328125 56 
Q 43.359375 56 49.78125 48.890625 
Q 56.203125 41.796875 56.203125 29.59375 
z
M 47.21875 32.234375 
Q 47.125 39.59375 43.09375 43.984375 
Q 39.0625 48.390625 32.421875 48.390625 
Q 24.90625 48.390625 20.390625 44.140625 
Q 15.875 39.890625 15.1875 32.171875 
z
" id="DejaVuSans-101"/>
      <path d="M 18.109375 8.203125 
L 18.109375 -20.796875 
L 9.078125 -20.796875 
L 9.078125 54.6875 
L 18.109375 54.6875 
L 18.109375 46.390625 
Q 20.953125 51.265625 25.265625 53.625 
Q 29.59375 56 35.59375 56 
Q 45.5625 56 51.78125 48.09375 
Q 58.015625 40.1875 58.015625 27.296875 
Q 58.015625 14.40625 51.78125 6.484375 
Q 45.5625 -1.421875 35.59375 -1.421875 
Q 29.59375 -1.421875 25.265625 0.953125 
Q 20.953125 3.328125 18.109375 8.203125 
z
M 48.6875 27.296875 
Q 48.6875 37.203125 44.609375 42.84375 
Q 40.53125 48.484375 33.40625 48.484375 
Q 26.265625 48.484375 22.1875 42.84375 
Q 18.109375 37.203125 18.109375 27.296875 
Q 18.109375 17.390625 22.1875 11.75 
Q 26.265625 6.109375 33.40625 6.109375 
Q 40.53125 6.109375 44.609375 11.75 
Q 48.6875 17.390625 48.6875 27.296875 
z
" id="DejaVuSans-112"/>
      <path d="M 30.609375 48.390625 
Q 23.390625 48.390625 19.1875 42.75 
Q 14.984375 37.109375 14.984375 27.296875 
Q 14.984375 17.484375 19.15625 11.84375 
Q 23.34375 6.203125 30.609375 6.203125 
Q 37.796875 6.203125 41.984375 11.859375 
Q 46.1875 17.53125 46.1875 27.296875 
Q 46.1875 37.015625 41.984375 42.703125 
Q 37.796875 48.390625 30.609375 48.390625 
z
M 30.609375 56 
Q 42.328125 56 49.015625 48.375 
Q 55.71875 40.765625 55.71875 27.296875 
Q 55.71875 13.875 49.015625 6.21875 
Q 42.328125 -1.421875 30.609375 -1.421875 
Q 18.84375 -1.421875 12.171875 6.21875 
Q 5.515625 13.875 5.515625 27.296875 
Q 5.515625 40.765625 12.171875 48.375 
Q 18.84375 56 30.609375 56 
z
" id="DejaVuSans-111"/>
      <path d="M 41.109375 46.296875 
Q 39.59375 47.171875 37.8125 47.578125 
Q 36.03125 48 33.890625 48 
Q 26.265625 48 22.1875 43.046875 
Q 18.109375 38.09375 18.109375 28.8125 
L 18.109375 0 
L 9.078125 0 
L 9.078125 54.6875 
L 18.109375 54.6875 
L 18.109375 46.1875 
Q 20.953125 51.171875 25.484375 53.578125 
Q 30.03125 56 36.53125 56 
Q 37.453125 56 38.578125 55.875 
Q 39.703125 55.765625 41.0625 55.515625 
z
" id="DejaVuSans-114"/>
      <path d="M 18.3125 70.21875 
L 18.3125 54.6875 
L 36.8125 54.6875 
L 36.8125 47.703125 
L 18.3125 47.703125 
L 18.3125 18.015625 
Q 18.3125 11.328125 20.140625 9.421875 
Q 21.96875 7.515625 27.59375 7.515625 
L 36.8125 7.515625 
L 36.8125 0 
L 27.59375 0 
Q 17.1875 0 13.234375 3.875 
Q 9.28125 7.765625 9.28125 18.015625 
L 9.28125 47.703125 
L 2.6875 47.703125 
L 2.6875 54.6875 
L 9.28125 54.6875 
L 9.28125 70.21875 
z
" id="DejaVuSans-116"/>
      <path d="M 45.40625 46.390625 
L 45.40625 75.984375 
L 54.390625 75.984375 
L 54.390625 0 
L 45.40625 0 
L 45.40625 8.203125 
Q 42.578125 3.328125 38.25 0.953125 
Q 33.9375 -1.421875 27.875 -1.421875 
Q 17.96875 -1.421875 11.734375 6.484375 
Q 5.515625 14.40625 5.515625 27.296875 
Q 5.515625 40.1875 11.734375 48.09375 
Q 17.96875 56 27.875 56 
Q 33.9375 56 38.25 53.625 
Q 42.578125 51.265625 45.40625 46.390625 
z
M 14.796875 27.296875 
Q 14.796875 17.390625 18.875 11.75 
Q 22.953125 6.109375 30.078125 6.109375 
Q 37.203125 6.109375 41.296875 11.75 
Q 45.40625 17.390625 45.40625 27.296875 
Q 45.40625 37.203125 41.296875 42.84375 
Q 37.203125 48.484375 30.078125 48.484375 
Q 22.953125 48.484375 18.875 42.84375 
Q 14.796875 37.203125 14.796875 27.296875 
z
" id="DejaVuSans-100"/>
      <path id="DejaVuSans-32"/>
      <path d="M 39.40625 66.21875 
Q 28.65625 66.21875 22.328125 58.203125 
Q 16.015625 50.203125 16.015625 36.375 
Q 16.015625 22.609375 22.328125 14.59375 
Q 28.65625 6.59375 39.40625 6.59375 
Q 50.140625 6.59375 56.421875 14.59375 
Q 62.703125 22.609375 62.703125 36.375 
Q 62.703125 50.203125 56.421875 58.203125 
Q 50.140625 66.21875 39.40625 66.21875 
z
M 39.40625 74.21875 
Q 54.734375 74.21875 63.90625 63.9375 
Q 73.09375 53.65625 73.09375 36.375 
Q 73.09375 19.140625 63.90625 8.859375 
Q 54.734375 -1.421875 39.40625 -1.421875 
Q 24.03125 -1.421875 14.8125 8.828125 
Q 5.609375 19.09375 5.609375 36.375 
Q 5.609375 53.65625 14.8125 63.9375 
Q 24.03125 74.21875 39.40625 74.21875 
z
" id="DejaVuSans-79"/>
      <path d="M 54.890625 33.015625 
L 54.890625 0 
L 45.90625 0 
L 45.90625 32.71875 
Q 45.90625 40.484375 42.875 44.328125 
Q 39.84375 48.1875 33.796875 48.1875 
Q 26.515625 48.1875 22.3125 43.546875 
Q 18.109375 38.921875 18.109375 30.90625 
L 18.109375 0 
L 9.078125 0 
L 9.078125 54.6875 
L 18.109375 54.6875 
L 18.109375 46.1875 
Q 21.34375 51.125 25.703125 53.5625 
Q 30.078125 56 35.796875 56 
Q 45.21875 56 50.046875 50.171875 
Q 54.890625 44.34375 54.890625 33.015625 
z
" id="DejaVuSans-110"/>
     </defs>
     <g transform="translate(281.240469 418.641319)scale(0.1 -0.1)">
      <use xlink:href="#DejaVuSans-82"/>
      <use x="64.982422" xlink:href="#DejaVuSans-101"/>
      <use x="126.505859" xlink:href="#DejaVuSans-112"/>
      <use x="189.982422" xlink:href="#DejaVuSans-111"/>
      <use x="251.164062" xlink:href="#DejaVuSans-114"/>
      <use x="292.277344" xlink:href="#DejaVuSans-116"/>
      <use x="331.486328" xlink:href="#DejaVuSans-101"/>
      <use x="393.009766" xlink:href="#DejaVuSans-100"/>
      <use x="456.486328" xlink:href="#DejaVuSans-32"/>
      <use x="488.273438" xlink:href="#DejaVuSans-79"/>
      <use x="566.984375" xlink:href="#DejaVuSans-110"/>
     </g>
    </g>
   </g>
   <g id="matplotlib.axis_2">
    <g id="ytick_1">
     <g id="line2d_11">
      <defs>
       <path d="M 0 0 
L -3.5 0 
" id="me33a7bd75b" style="stroke:#000000;stroke-width:0.8;"/>
      </defs>
      <g>
       <use style="stroke:#000000;stroke-width:0.8;" x="60.32" xlink:href="#me33a7bd75b" y="352.569449"/>
      </g>
     </g>
     <g id="text_12">
      <!-- 0.00 -->
      <defs>
       <path d="M 10.6875 12.40625 
L 21 12.40625 
L 21 0 
L 10.6875 0 
z
" id="DejaVuSans-46"/>
      </defs>
      <g transform="translate(31.054375 356.368668)scale(0.1 -0.1)">
       <use xlink:href="#DejaVuSans-48"/>
       <use x="63.623047" xlink:href="#DejaVuSans-46"/>
       <use x="95.410156" xlink:href="#DejaVuSans-48"/>
       <use x="159.033203" xlink:href="#DejaVuSans-48"/>
      </g>
     </g>
    </g>
    <g id="ytick_2">
     <g id="line2d_12">
      <g>
       <use style="stroke:#000000;stroke-width:0.8;" x="60.32" xlink:href="#me33a7bd75b" y="293.44916"/>
      </g>
     </g>
     <g id="text_13">
      <!-- 2.00 -->
      <g transform="translate(31.054375 297.248379)scale(0.1 -0.1)">
       <use xlink:href="#DejaVuSans-50"/>
       <use x="63.623047" xlink:href="#DejaVuSans-46"/>
       <use x="95.410156" xlink:href="#DejaVuSans-48"/>
       <use x="159.033203" xlink:href="#DejaVuSans-48"/>
      </g>
     </g>
    </g>
    <g id="ytick_3">
     <g id="line2d_13">
      <g>
       <use style="stroke:#000000;stroke-width:0.8;" x="60.32" xlink:href="#me33a7bd75b" y="234.328871"/>
      </g>
     </g>
     <g id="text_14">
      <!-- 4.00 -->
      <defs>
       <path d="M 37.796875 64.3125 
L 12.890625 25.390625 
L 37.796875 25.390625 
z
M 35.203125 72.90625 
L 47.609375 72.90625 
L 47.609375 25.390625 
L 58.015625 25.390625 
L 58.015625 17.1875 
L 47.609375 17.1875 
L 47.609375 0 
L 37.796875 0 
L 37.796875 17.1875 
L 4.890625 17.1875 
L 4.890625 26.703125 
z
" id="DejaVuSans-52"/>
      </defs>
      <g transform="translate(31.054375 238.12809)scale(0.1 -0.1)">
       <use xlink:href="#DejaVuSans-52"/>
       <use x="63.623047" xlink:href="#DejaVuSans-46"/>
       <use x="95.410156" xlink:href="#DejaVuSans-48"/>
       <use x="159.033203" xlink:href="#DejaVuSans-48"/>
      </g>
     </g>
    </g>
    <g id="ytick_4">
     <g id="line2d_14">
      <g>
       <use style="stroke:#000000;stroke-width:0.8;" x="60.32" xlink:href="#me33a7bd75b" y="175.208582"/>
      </g>
     </g>
     <g id="text_15">
      <!-- 6.00 -->
      <defs>
       <path d="M 33.015625 40.375 
Q 26.375 40.375 22.484375 35.828125 
Q 18.609375 31.296875 18.609375 23.390625 
Q 18.609375 15.53125 22.484375 10.953125 
Q 26.375 6.390625 33.015625 6.390625 
Q 39.65625 6.390625 43.53125 10.953125 
Q 47.40625 15.53125 47.40625 23.390625 
Q 47.40625 31.296875 43.53125 35.828125 
Q 39.65625 40.375 33.015625 40.375 
z
M 52.59375 71.296875 
L 52.59375 62.3125 
Q 48.875 64.0625 45.09375 64.984375 
Q 41.3125 65.921875 37.59375 65.921875 
Q 27.828125 65.921875 22.671875 59.328125 
Q 17.53125 52.734375 16.796875 39.40625 
Q 19.671875 43.65625 24.015625 45.921875 
Q 28.375 48.1875 33.59375 48.1875 
Q 44.578125 48.1875 50.953125 41.515625 
Q 57.328125 34.859375 57.328125 23.390625 
Q 57.328125 12.15625 50.6875 5.359375 
Q 44.046875 -1.421875 33.015625 -1.421875 
Q 20.359375 -1.421875 13.671875 8.265625 
Q 6.984375 17.96875 6.984375 36.375 
Q 6.984375 53.65625 15.1875 63.9375 
Q 23.390625 74.21875 37.203125 74.21875 
Q 40.921875 74.21875 44.703125 73.484375 
Q 48.484375 72.75 52.59375 71.296875 
z
" id="DejaVuSans-54"/>
      </defs>
      <g transform="translate(31.054375 179.007801)scale(0.1 -0.1)">
       <use xlink:href="#DejaVuSans-54"/>
       <use x="63.623047" xlink:href="#DejaVuSans-46"/>
       <use x="95.410156" xlink:href="#DejaVuSans-48"/>
       <use x="159.033203" xlink:href="#DejaVuSans-48"/>
      </g>
     </g>
    </g>
    <g id="ytick_5">
     <g id="line2d_15">
      <g>
       <use style="stroke:#000000;stroke-width:0.8;" x="60.32" xlink:href="#me33a7bd75b" y="116.088293"/>
      </g>
     </g>
     <g id="text_16">
      <!-- 8.00 -->
      <defs>
       <path d="M 31.78125 34.625 
Q 24.75 34.625 20.71875 30.859375 
Q 16.703125 27.09375 16.703125 20.515625 
Q 16.703125 13.921875 20.71875 10.15625 
Q 24.75 6.390625 31.78125 6.390625 
Q 38.8125 6.390625 42.859375 10.171875 
Q 46.921875 13.96875 46.921875 20.515625 
Q 46.921875 27.09375 42.890625 30.859375 
Q 38.875 34.625 31.78125 34.625 
z
M 21.921875 38.8125 
Q 15.578125 40.375 12.03125 44.71875 
Q 8.5 49.078125 8.5 55.328125 
Q 8.5 64.0625 14.71875 69.140625 
Q 20.953125 74.21875 31.78125 74.21875 
Q 42.671875 74.21875 48.875 69.140625 
Q 55.078125 64.0625 55.078125 55.328125 
Q 55.078125 49.078125 51.53125 44.71875 
Q 48 40.375 41.703125 38.8125 
Q 48.828125 37.15625 52.796875 32.3125 
Q 56.78125 27.484375 56.78125 20.515625 
Q 56.78125 9.90625 50.3125 4.234375 
Q 43.84375 -1.421875 31.78125 -1.421875 
Q 19.734375 -1.421875 13.25 4.234375 
Q 6.78125 9.90625 6.78125 20.515625 
Q 6.78125 27.484375 10.78125 32.3125 
Q 14.796875 37.15625 21.921875 38.8125 
z
M 18.3125 54.390625 
Q 18.3125 48.734375 21.84375 45.5625 
Q 25.390625 42.390625 31.78125 42.390625 
Q 38.140625 42.390625 41.71875 45.5625 
Q 45.3125 48.734375 45.3125 54.390625 
Q 45.3125 60.0625 41.71875 63.234375 
Q 38.140625 66.40625 31.78125 66.40625 
Q 25.390625 66.40625 21.84375 63.234375 
Q 18.3125 60.0625 18.3125 54.390625 
z
" id="DejaVuSans-56"/>
      </defs>
      <g transform="translate(31.054375 119.887512)scale(0.1 -0.1)">
       <use xlink:href="#DejaVuSans-56"/>
       <use x="63.623047" xlink:href="#DejaVuSans-46"/>
       <use x="95.410156" xlink:href="#DejaVuSans-48"/>
       <use x="159.033203" xlink:href="#DejaVuSans-48"/>
      </g>
     </g>
    </g>
    <g id="ytick_6">
     <g id="line2d_16">
      <g>
       <use style="stroke:#000000;stroke-width:0.8;" x="60.32" xlink:href="#me33a7bd75b" y="56.968004"/>
      </g>
     </g>
     <g id="text_17">
      <!-- 10.00 -->
      <g transform="translate(24.691875 60.767223)scale(0.1 -0.1)">
       <use xlink:href="#DejaVuSans-49"/>
       <use x="63.623047" xlink:href="#DejaVuSans-48"/>
       <use x="127.246094" xlink:href="#DejaVuSans-46"/>
       <use x="159.033203" xlink:href="#DejaVuSans-48"/>
       <use x="222.65625" xlink:href="#DejaVuSans-48"/>
      </g>
     </g>
    </g>
    <g id="text_18">
     <!-- R0 -->
     <g transform="translate(18.612188 201.92272)rotate(-90)scale(0.1 -0.1)">
      <use xlink:href="#DejaVuSans-82"/>
      <use x="69.482422" xlink:href="#DejaVuSans-48"/>
     </g>
    </g>
   </g>
   <g id="line2d_17">
    <path clip-path="url(#pc82eb14e40)" d="M 83.269091 263.889016 
L 84.103603 303.302542 
L 84.938116 306.117793 
L 85.772628 234.328871 
L 86.60714 295.912506 
L 87.441653 281.625102 
L 88.276165 269.263587 
L 89.110678 333.566499 
L 89.94519 326.864976 
L 90.779702 316.850941 
L 91.614215 333.498388 
L 92.448727 318.082614 
L 93.28324 320.05329 
L 94.117752 338.299035 
L 94.952264 324.487312 
L 95.786777 314.563549 
L 96.621289 323.009305 
L 97.455802 308.229232 
L 98.290314 327.676696 
L 99.124826 343.810888 
L 99.959339 344.507592 
L 101.628364 324.856814 
L 102.462876 293.44916 
L 103.297388 268.815706 
L 104.131901 316.187733 
L 104.966413 321.038628 
L 105.800926 330.399341 
L 106.635438 324.748137 
L 107.46995 334.094359 
L 109.138975 330.399341 
L 109.973488 339.636886 
L 110.808 325.965319 
L 111.642512 333.758448 
L 112.477025 257.320095 
L 113.311537 213.214482 
L 114.14605 227.75995 
L 114.980562 128.756927 
L 115.815074 315.874097 
L 116.649587 314.947447 
L 117.484099 312.118725 
L 118.318612 329.144429 
L 119.153124 317.261499 
L 119.987636 328.639808 
L 120.822149 342.337091 
L 121.656661 344.123694 
L 122.491174 343.632661 
L 123.325686 342.136457 
L 124.160198 332.862686 
L 124.994711 305.765887 
L 125.829223 316.187733 
L 126.663736 318.082614 
L 127.498248 320.545959 
L 128.33276 341.67887 
L 129.167273 347.026922 
L 130.001785 348.346571 
L 130.836298 345.747877 
L 131.67081 331.45506 
L 132.505322 254.035634 
L 133.339835 42.187932 
L 134.174347 106.234912 
L 135.00886 187.03264 
L 135.843372 281.625102 
L 136.677884 328.639808 
L 137.512397 337.198174 
L 138.346909 335.677938 
L 139.181421 330.399341 
L 140.850446 302.544589 
L 141.684959 317.466778 
L 142.519471 319.724844 
L 143.353983 318.786427 
L 144.188496 314.947447 
L 145.023008 307.451334 
L 145.857521 296.405175 
L 146.692033 303.302542 
L 147.526545 307.173513 
L 148.361058 304.661629 
L 149.19557 319.89771 
L 150.030083 322.270301 
L 150.864595 323.009305 
L 151.699107 324.267183 
L 152.53362 313.859736 
L 153.368132 310.03168 
L 154.202645 298.948722 
L 155.037157 282.938887 
L 155.871669 289.149503 
L 156.706182 289.441005 
L 157.540694 315.42978 
L 158.375207 334.721815 
L 159.209719 340.294474 
L 160.044231 337.085564 
L 160.878744 325.724012 
L 161.713256 287.444756 
L 162.547769 269.921698 
L 163.382281 295.240684 
L 164.216793 312.048802 
L 165.051306 337.684554 
L 165.885818 335.308051 
L 166.720331 336.403745 
L 167.554843 315.982713 
L 168.389355 283.040659 
L 169.223868 291.971153 
L 170.05838 283.736541 
L 170.892893 336.908445 
L 171.727405 340.70999 
L 172.561917 341.214028 
L 173.39643 343.50192 
L 174.230942 318.944785 
L 175.065455 307.567438 
L 175.899967 303.302542 
L 176.734479 270.392247 
L 177.568992 311.315182 
L 178.403504 311.127286 
L 179.238017 305.273218 
L 180.072529 317.692732 
L 181.741554 324.456305 
L 182.576066 333.742452 
L 183.410579 330.399341 
L 184.245091 320.618411 
L 185.079603 318.662225 
L 185.914116 305.604734 
L 187.58314 326.830004 
L 188.417653 333.620639 
L 189.252165 335.702778 
L 190.086678 326.556522 
L 190.92119 313.540821 
L 191.755702 294.335964 
L 192.590215 288.268516 
L 193.424727 313.827745 
L 194.25924 327.557019 
L 195.093752 335.163476 
L 195.928264 338.699997 
L 196.762777 335.824396 
L 197.597289 336.652448 
L 198.431802 336.770062 
L 199.266314 337.938671 
L 200.100826 341.710621 
L 200.935339 339.13302 
L 201.769851 335.405494 
L 202.604364 327.835451 
L 204.273388 306.117793 
L 205.107901 303.302542 
L 205.942413 250.911391 
L 206.776926 228.141864 
L 207.611438 210.680756 
L 208.44595 185.061964 
L 209.280463 293.029867 
L 210.114975 304.88126 
L 210.949488 323.009305 
L 211.784 331.703465 
L 213.453025 307.520599 
L 214.287537 286.618975 
L 215.12205 259.331827 
L 215.956562 282.837826 
L 216.791074 313.842338 
L 217.625587 330.687916 
L 218.460099 340.620434 
L 220.129124 332.744378 
L 220.963636 325.45005 
L 221.798149 316.343782 
L 222.632661 334.983034 
L 223.467174 334.349514 
L 225.136198 340.272429 
L 225.970711 333.19812 
L 226.805223 336.010862 
L 227.639736 336.718357 
L 230.143273 324.979981 
L 230.977785 317.683152 
L 231.812298 317.941851 
L 232.64681 331.286145 
L 233.481322 336.381751 
L 234.315835 338.579152 
L 235.150347 335.986929 
L 235.98486 331.220456 
L 236.819372 319.582041 
L 237.653884 319.671869 
L 238.488397 323.86612 
L 239.322909 311.640018 
L 240.157421 322.625407 
L 240.991934 320.010449 
L 241.826446 320.362128 
L 242.660959 339.103161 
L 243.495471 336.273472 
L 244.329983 337.789377 
L 245.164496 340.826378 
L 245.999008 335.986929 
L 246.833521 342.257771 
L 247.668033 340.123072 
L 248.502545 326.067251 
L 249.337058 321.724081 
L 250.17157 301.331865 
L 251.006083 295.296669 
L 251.840595 330.967805 
L 252.675107 324.240977 
L 253.50962 330.967805 
L 254.344132 340.173259 
L 255.178645 321.453508 
L 256.013157 329.435423 
L 257.682182 222.959585 
L 258.516694 263.889016 
L 259.351207 249.108943 
L 260.185719 331.631013 
L 261.020231 332.344087 
L 261.854744 337.296708 
L 262.689256 333.331895 
L 263.523769 315.18456 
L 264.358281 307.092304 
L 265.192793 291.542054 
L 266.027306 313.636576 
L 266.861818 314.072517 
L 267.696331 336.804039 
L 268.530843 320.699918 
L 269.365355 316.987794 
L 270.199868 320.370006 
L 271.03438 303.61046 
L 271.868893 345.286515 
L 272.703405 341.654934 
L 273.537917 339.000858 
L 274.37243 331.933122 
L 275.206942 272.583176 
L 276.041455 287.290797 
L 276.875967 298.727757 
L 277.710479 314.221154 
L 278.544992 320.438857 
L 279.379504 322.451566 
L 280.214017 295.187992 
L 281.048529 292.833324 
L 281.883041 281.625102 
L 282.717554 280.311318 
L 283.552066 309.871463 
L 284.386579 300.153523 
L 285.221091 316.850941 
L 286.055603 319.202316 
L 286.890116 328.383876 
L 287.724628 336.242625 
L 288.55914 329.532923 
L 289.393653 328.365841 
L 290.228165 313.661225 
L 291.062678 301.539305 
L 291.89719 310.975971 
L 292.731702 307.502344 
L 293.566215 324.544897 
L 294.400727 327.154935 
L 295.23524 326.541649 
L 296.069752 339.378632 
L 296.904264 337.181977 
L 297.738777 330.975868 
L 298.573289 333.144211 
L 299.407802 313.7495 
L 300.242314 299.672348 
L 301.076826 313.82557 
L 301.911339 294.734384 
L 302.745851 299.957816 
L 303.580364 310.402772 
L 304.414876 304.397362 
L 305.249388 313.648592 
L 306.083901 308.229232 
L 306.918413 294.515763 
L 307.752926 299.09246 
L 308.587438 302.180004 
L 309.42195 309.295836 
L 310.256463 323.62999 
L 311.090975 325.980173 
L 311.925488 323.301979 
L 312.76 329.046236 
L 313.594512 323.247054 
L 314.429025 319.045933 
L 315.263537 325.521917 
L 316.09805 319.695778 
L 317.767074 330.290128 
L 318.601587 322.524712 
L 319.436099 325.047935 
L 320.270612 319.195092 
L 321.105124 310.740879 
L 321.939636 319.751332 
L 322.774149 315.598214 
L 323.608661 318.863206 
L 324.443174 323.487182 
L 325.277686 319.287446 
L 326.112198 319.238534 
L 326.946711 319.507875 
L 327.781223 314.474333 
L 328.615736 319.512943 
L 329.450248 322.352413 
L 330.28476 318.132784 
L 331.119273 322.470868 
L 331.953785 319.484826 
L 332.788298 313.95432 
L 333.62281 317.117947 
L 334.457322 310.846812 
L 335.291835 306.857885 
L 336.126347 311.87394 
L 336.96086 311.935023 
L 337.795372 316.040753 
L 338.629884 319.396398 
L 339.464397 315.603027 
L 340.298909 315.454697 
L 341.133421 319.249861 
L 341.967934 319.93622 
L 342.802446 322.931378 
L 343.636959 316.567989 
L 344.471471 311.712434 
L 345.305983 311.370826 
L 346.140496 314.408106 
L 346.975008 327.293681 
L 347.809521 330.423666 
L 348.644033 334.879015 
L 349.478545 334.427989 
L 350.313058 335.403948 
L 351.14757 334.802192 
L 351.982083 329.46168 
L 352.816595 331.34762 
L 353.651107 327.096531 
L 354.48562 325.21335 
L 355.320132 327.15667 
L 356.989157 323.009305 
L 357.823669 325.531023 
L 358.658182 331.002368 
L 359.492694 332.895313 
L 361.161719 332.454256 
L 361.996231 323.463079 
L 362.830744 316.391362 
L 363.665256 320.948621 
L 364.499769 323.009305 
L 365.334281 330.382882 
L 366.168793 330.699749 
L 367.003306 326.264242 
L 367.837818 318.432734 
L 368.672331 308.711668 
L 369.506843 312.776947 
L 370.341355 317.858673 
L 371.175868 326.127737 
L 372.01038 326.970364 
L 372.844893 327.111529 
L 373.679405 326.632806 
L 374.513917 317.416845 
L 375.34843 322.531427 
L 377.017455 326.994128 
L 377.851967 332.720179 
L 378.686479 328.854151 
L 379.520992 327.53988 
L 380.355504 319.575973 
L 381.190017 316.369641 
L 382.024529 322.088167 
L 382.859041 322.746158 
L 383.693554 325.785257 
L 384.528066 326.202989 
L 385.362579 325.201953 
L 386.197091 320.835765 
L 387.031603 321.187671 
L 387.866116 323.508913 
L 388.700628 322.044433 
L 389.53514 324.629039 
L 390.369653 329.638888 
L 391.204165 323.348103 
L 392.87319 317.182957 
L 393.707702 312.854289 
L 394.542215 325.751115 
L 395.376727 330.902327 
L 396.21124 328.520518 
L 397.045752 321.66226 
L 397.880264 305.443212 
L 398.714777 281.097243 
L 399.549289 299.95943 
L 400.383802 302.539083 
L 401.218314 307.192554 
L 402.052826 322.223363 
L 402.887339 313.122969 
L 403.721851 324.235691 
L 404.556364 330.341455 
L 405.390876 332.111277 
L 406.225388 338.307976 
L 407.059901 335.671635 
L 407.894413 334.966794 
L 408.728926 332.350556 
L 409.563438 328.153538 
L 410.39795 331.190441 
L 411.232463 329.903799 
L 412.066975 333.162181 
L 412.901488 334.907728 
L 413.736 331.973392 
L 414.570512 324.920036 
L 415.405025 301.386606 
L 416.239537 270.890102 
L 417.07405 271.393923 
L 418.743074 319.768754 
L 419.577587 332.581161 
L 420.412099 332.881277 
L 421.246612 327.864297 
L 422.081124 321.299802 
L 422.915636 318.346296 
L 423.750149 322.004427 
L 425.419174 336.745682 
L 426.253686 338.472641 
L 427.088198 333.699549 
L 427.922711 331.241244 
L 428.757223 323.009305 
L 429.591736 317.730707 
L 430.426248 323.643642 
L 431.26076 322.231406 
L 432.095273 319.864608 
L 432.929785 316.483039 
L 433.764298 311.211177 
L 434.59881 311.387367 
L 435.433322 319.030054 
L 436.267835 323.114128 
L 437.102347 323.750625 
L 437.93686 323.09998 
L 438.771372 313.690344 
L 439.605884 311.963699 
L 440.440397 322.724159 
L 441.274909 328.557516 
L 442.109421 337.256075 
L 442.943934 338.861506 
L 443.778446 337.601096 
L 444.612959 335.214061 
L 445.447471 330.803771 
L 446.281983 334.073716 
L 447.116496 333.79225 
L 447.951008 329.684176 
L 448.785521 323.608497 
L 449.620033 307.173513 
L 450.454545 293.741835 
L 452.12357 314.243193 
L 452.958083 321.462553 
L 453.792595 324.921155 
L 455.46162 299.581318 
L 456.296132 284.793427 
L 457.130645 265.304129 
L 457.965157 275.191424 
L 459.634182 284.616731 
L 461.303207 309.848398 
L 462.137719 308.712944 
L 462.972231 308.136276 
L 463.806744 307.384657 
L 464.641256 305.514525 
L 465.475769 308.180931 
L 466.310281 306.229697 
L 467.144793 302.050149 
L 467.979306 292.47465 
L 468.813818 294.944858 
L 470.482843 316.284722 
L 471.317355 323.799351 
L 472.151868 326.334099 
L 472.98638 326.541701 
L 473.820893 323.711654 
L 474.655405 321.431426 
L 475.489917 320.05329 
L 476.32443 319.483783 
L 477.158942 321.255661 
L 477.993455 322.429185 
L 478.827967 324.319145 
L 479.662479 324.454727 
L 480.496992 323.357371 
L 482.166017 324.229556 
L 483.835041 327.046872 
L 484.669554 325.740215 
L 485.504066 321.386033 
L 486.338579 318.477906 
L 487.173091 305.398582 
L 488.007603 289.315546 
L 488.842116 294.778099 
L 489.676628 297.486929 
L 490.51114 318.170943 
L 491.345653 334.361658 
L 492.180165 334.265414 
L 493.014678 338.271653 
L 493.84919 337.138379 
L 494.683702 318.706199 
L 495.518215 318.921584 
L 496.352727 300.869341 
L 497.18724 291.796666 
L 498.021752 328.24902 
L 498.856264 329.024118 
L 499.690777 334.305162 
L 500.525289 336.598684 
L 501.359802 329.331461 
L 502.194314 329.373777 
L 503.028826 326.665699 
L 503.863339 325.522702 
L 504.697851 324.987856 
L 505.532364 327.38445 
L 506.366876 330.325881 
L 507.201388 329.927207 
L 508.035901 329.244153 
L 508.870413 326.214334 
L 509.704926 324.154744 
L 510.539438 325.553956 
L 511.37395 327.862463 
L 512.208463 328.060722 
L 513.042975 327.166412 
L 514.712 318.450516 
L 515.546512 319.076548 
L 516.381025 322.063884 
L 517.215537 328.345954 
L 518.05005 329.231764 
L 519.719074 322.016841 
L 520.553587 314.337861 
L 521.388099 313.881469 
L 522.222612 319.870858 
L 523.891636 326.375198 
L 524.726149 327.032918 
L 525.560661 325.245533 
L 526.395174 321.71176 
L 527.229686 321.309213 
L 528.064198 323.117982 
L 528.898711 328.815492 
L 529.733223 331.667327 
L 530.567736 331.916453 
L 531.402248 328.30738 
L 532.23676 318.94502 
L 533.071273 314.583754 
L 533.905785 322.988575 
L 534.740298 323.35104 
L 535.57481 327.35979 
L 536.409322 328.323841 
L 537.243835 310.518227 
L 538.078347 316.882153 
L 538.91286 317.384343 
L 539.747372 322.855945 
L 540.581884 335.066349 
L 541.416397 336.26205 
L 542.250909 338.32713 
L 542.250909 338.32713 
" style="fill:none;stroke:#1f77b4;stroke-linecap:square;stroke-width:1.5;"/>
   </g>
   <g id="patch_3">
    <path d="M 60.32 363.654503 
L 60.32 26.88 
" style="fill:none;stroke:#000000;stroke-linecap:square;stroke-linejoin:miter;stroke-width:0.8;"/>
   </g>
   <g id="patch_4">
    <path d="M 565.2 363.654503 
L 565.2 26.88 
" style="fill:none;stroke:#000000;stroke-linecap:square;stroke-linejoin:miter;stroke-width:0.8;"/>
   </g>
   <g id="patch_5">
    <path d="M 60.32 363.654503 
L 565.2 363.654503 
" style="fill:none;stroke:#000000;stroke-linecap:square;stroke-linejoin:miter;stroke-width:0.8;"/>
   </g>
   <g id="patch_6">
    <path d="M 60.32 26.88 
L 565.2 26.88 
" style="fill:none;stroke:#000000;stroke-linecap:square;stroke-linejoin:miter;stroke-width:0.8;"/>
   </g>
   <g id="text_19">
    <!-- Estimation of Basic Reproduction Number -->
    <defs>
     <path d="M 9.8125 72.90625 
L 55.90625 72.90625 
L 55.90625 64.59375 
L 19.671875 64.59375 
L 19.671875 43.015625 
L 54.390625 43.015625 
L 54.390625 34.71875 
L 19.671875 34.71875 
L 19.671875 8.296875 
L 56.78125 8.296875 
L 56.78125 0 
L 9.8125 0 
z
" id="DejaVuSans-69"/>
     <path d="M 44.28125 53.078125 
L 44.28125 44.578125 
Q 40.484375 46.53125 36.375 47.5 
Q 32.28125 48.484375 27.875 48.484375 
Q 21.1875 48.484375 17.84375 46.4375 
Q 14.5 44.390625 14.5 40.28125 
Q 14.5 37.15625 16.890625 35.375 
Q 19.28125 33.59375 26.515625 31.984375 
L 29.59375 31.296875 
Q 39.15625 29.25 43.1875 25.515625 
Q 47.21875 21.78125 47.21875 15.09375 
Q 47.21875 7.46875 41.1875 3.015625 
Q 35.15625 -1.421875 24.609375 -1.421875 
Q 20.21875 -1.421875 15.453125 -0.5625 
Q 10.6875 0.296875 5.421875 2 
L 5.421875 11.28125 
Q 10.40625 8.6875 15.234375 7.390625 
Q 20.0625 6.109375 24.8125 6.109375 
Q 31.15625 6.109375 34.5625 8.28125 
Q 37.984375 10.453125 37.984375 14.40625 
Q 37.984375 18.0625 35.515625 20.015625 
Q 33.0625 21.96875 24.703125 23.78125 
L 21.578125 24.515625 
Q 13.234375 26.265625 9.515625 29.90625 
Q 5.8125 33.546875 5.8125 39.890625 
Q 5.8125 47.609375 11.28125 51.796875 
Q 16.75 56 26.8125 56 
Q 31.78125 56 36.171875 55.265625 
Q 40.578125 54.546875 44.28125 53.078125 
z
" id="DejaVuSans-115"/>
     <path d="M 9.421875 54.6875 
L 18.40625 54.6875 
L 18.40625 0 
L 9.421875 0 
z
M 9.421875 75.984375 
L 18.40625 75.984375 
L 18.40625 64.59375 
L 9.421875 64.59375 
z
" id="DejaVuSans-105"/>
     <path d="M 52 44.1875 
Q 55.375 50.25 60.0625 53.125 
Q 64.75 56 71.09375 56 
Q 79.640625 56 84.28125 50.015625 
Q 88.921875 44.046875 88.921875 33.015625 
L 88.921875 0 
L 79.890625 0 
L 79.890625 32.71875 
Q 79.890625 40.578125 77.09375 44.375 
Q 74.3125 48.1875 68.609375 48.1875 
Q 61.625 48.1875 57.5625 43.546875 
Q 53.515625 38.921875 53.515625 30.90625 
L 53.515625 0 
L 44.484375 0 
L 44.484375 32.71875 
Q 44.484375 40.625 41.703125 44.40625 
Q 38.921875 48.1875 33.109375 48.1875 
Q 26.21875 48.1875 22.15625 43.53125 
Q 18.109375 38.875 18.109375 30.90625 
L 18.109375 0 
L 9.078125 0 
L 9.078125 54.6875 
L 18.109375 54.6875 
L 18.109375 46.1875 
Q 21.1875 51.21875 25.484375 53.609375 
Q 29.78125 56 35.6875 56 
Q 41.65625 56 45.828125 52.96875 
Q 50 49.953125 52 44.1875 
z
" id="DejaVuSans-109"/>
     <path d="M 34.28125 27.484375 
Q 23.390625 27.484375 19.1875 25 
Q 14.984375 22.515625 14.984375 16.5 
Q 14.984375 11.71875 18.140625 8.90625 
Q 21.296875 6.109375 26.703125 6.109375 
Q 34.1875 6.109375 38.703125 11.40625 
Q 43.21875 16.703125 43.21875 25.484375 
L 43.21875 27.484375 
z
M 52.203125 31.203125 
L 52.203125 0 
L 43.21875 0 
L 43.21875 8.296875 
Q 40.140625 3.328125 35.546875 0.953125 
Q 30.953125 -1.421875 24.3125 -1.421875 
Q 15.921875 -1.421875 10.953125 3.296875 
Q 6 8.015625 6 15.921875 
Q 6 25.140625 12.171875 29.828125 
Q 18.359375 34.515625 30.609375 34.515625 
L 43.21875 34.515625 
L 43.21875 35.40625 
Q 43.21875 41.609375 39.140625 45 
Q 35.0625 48.390625 27.6875 48.390625 
Q 23 48.390625 18.546875 47.265625 
Q 14.109375 46.140625 10.015625 43.890625 
L 10.015625 52.203125 
Q 14.9375 54.109375 19.578125 55.046875 
Q 24.21875 56 28.609375 56 
Q 40.484375 56 46.34375 49.84375 
Q 52.203125 43.703125 52.203125 31.203125 
z
" id="DejaVuSans-97"/>
     <path d="M 37.109375 75.984375 
L 37.109375 68.5 
L 28.515625 68.5 
Q 23.6875 68.5 21.796875 66.546875 
Q 19.921875 64.59375 19.921875 59.515625 
L 19.921875 54.6875 
L 34.71875 54.6875 
L 34.71875 47.703125 
L 19.921875 47.703125 
L 19.921875 0 
L 10.890625 0 
L 10.890625 47.703125 
L 2.296875 47.703125 
L 2.296875 54.6875 
L 10.890625 54.6875 
L 10.890625 58.5 
Q 10.890625 67.625 15.140625 71.796875 
Q 19.390625 75.984375 28.609375 75.984375 
z
" id="DejaVuSans-102"/>
     <path d="M 19.671875 34.8125 
L 19.671875 8.109375 
L 35.5 8.109375 
Q 43.453125 8.109375 47.28125 11.40625 
Q 51.125 14.703125 51.125 21.484375 
Q 51.125 28.328125 47.28125 31.5625 
Q 43.453125 34.8125 35.5 34.8125 
z
M 19.671875 64.796875 
L 19.671875 42.828125 
L 34.28125 42.828125 
Q 41.5 42.828125 45.03125 45.53125 
Q 48.578125 48.25 48.578125 53.8125 
Q 48.578125 59.328125 45.03125 62.0625 
Q 41.5 64.796875 34.28125 64.796875 
z
M 9.8125 72.90625 
L 35.015625 72.90625 
Q 46.296875 72.90625 52.390625 68.21875 
Q 58.5 63.53125 58.5 54.890625 
Q 58.5 48.1875 55.375 44.234375 
Q 52.25 40.28125 46.1875 39.3125 
Q 53.46875 37.75 57.5 32.78125 
Q 61.53125 27.828125 61.53125 20.40625 
Q 61.53125 10.640625 54.890625 5.3125 
Q 48.25 0 35.984375 0 
L 9.8125 0 
z
" id="DejaVuSans-66"/>
     <path d="M 48.78125 52.59375 
L 48.78125 44.1875 
Q 44.96875 46.296875 41.140625 47.34375 
Q 37.3125 48.390625 33.40625 48.390625 
Q 24.65625 48.390625 19.8125 42.84375 
Q 14.984375 37.3125 14.984375 27.296875 
Q 14.984375 17.28125 19.8125 11.734375 
Q 24.65625 6.203125 33.40625 6.203125 
Q 37.3125 6.203125 41.140625 7.25 
Q 44.96875 8.296875 48.78125 10.40625 
L 48.78125 2.09375 
Q 45.015625 0.34375 40.984375 -0.53125 
Q 36.96875 -1.421875 32.421875 -1.421875 
Q 20.0625 -1.421875 12.78125 6.34375 
Q 5.515625 14.109375 5.515625 27.296875 
Q 5.515625 40.671875 12.859375 48.328125 
Q 20.21875 56 33.015625 56 
Q 37.15625 56 41.109375 55.140625 
Q 45.0625 54.296875 48.78125 52.59375 
z
" id="DejaVuSans-99"/>
     <path d="M 8.5 21.578125 
L 8.5 54.6875 
L 17.484375 54.6875 
L 17.484375 21.921875 
Q 17.484375 14.15625 20.5 10.265625 
Q 23.53125 6.390625 29.59375 6.390625 
Q 36.859375 6.390625 41.078125 11.03125 
Q 45.3125 15.671875 45.3125 23.6875 
L 45.3125 54.6875 
L 54.296875 54.6875 
L 54.296875 0 
L 45.3125 0 
L 45.3125 8.40625 
Q 42.046875 3.421875 37.71875 1 
Q 33.40625 -1.421875 27.6875 -1.421875 
Q 18.265625 -1.421875 13.375 4.4375 
Q 8.5 10.296875 8.5 21.578125 
z
M 31.109375 56 
z
" id="DejaVuSans-117"/>
     <path d="M 9.8125 72.90625 
L 23.09375 72.90625 
L 55.421875 11.921875 
L 55.421875 72.90625 
L 64.984375 72.90625 
L 64.984375 0 
L 51.703125 0 
L 19.390625 60.984375 
L 19.390625 0 
L 9.8125 0 
z
" id="DejaVuSans-78"/>
     <path d="M 48.6875 27.296875 
Q 48.6875 37.203125 44.609375 42.84375 
Q 40.53125 48.484375 33.40625 48.484375 
Q 26.265625 48.484375 22.1875 42.84375 
Q 18.109375 37.203125 18.109375 27.296875 
Q 18.109375 17.390625 22.1875 11.75 
Q 26.265625 6.109375 33.40625 6.109375 
Q 40.53125 6.109375 44.609375 11.75 
Q 48.6875 17.390625 48.6875 27.296875 
z
M 18.109375 46.390625 
Q 20.953125 51.265625 25.265625 53.625 
Q 29.59375 56 35.59375 56 
Q 45.5625 56 51.78125 48.09375 
Q 58.015625 40.1875 58.015625 27.296875 
Q 58.015625 14.40625 51.78125 6.484375 
Q 45.5625 -1.421875 35.59375 -1.421875 
Q 29.59375 -1.421875 25.265625 0.953125 
Q 20.953125 3.328125 18.109375 8.203125 
L 18.109375 0 
L 9.078125 0 
L 9.078125 75.984375 
L 18.109375 75.984375 
z
" id="DejaVuSans-98"/>
    </defs>
    <g transform="translate(187.604688 20.88)scale(0.12 -0.12)">
     <use xlink:href="#DejaVuSans-69"/>
     <use x="63.183594" xlink:href="#DejaVuSans-115"/>
     <use x="115.283203" xlink:href="#DejaVuSans-116"/>
     <use x="154.492188" xlink:href="#DejaVuSans-105"/>
     <use x="182.275391" xlink:href="#DejaVuSans-109"/>
     <use x="279.6875" xlink:href="#DejaVuSans-97"/>
     <use x="340.966797" xlink:href="#DejaVuSans-116"/>
     <use x="380.175781" xlink:href="#DejaVuSans-105"/>
     <use x="407.958984" xlink:href="#DejaVuSans-111"/>
     <use x="469.140625" xlink:href="#DejaVuSans-110"/>
     <use x="532.519531" xlink:href="#DejaVuSans-32"/>
     <use x="564.306641" xlink:href="#DejaVuSans-111"/>
     <use x="625.488281" xlink:href="#DejaVuSans-102"/>
     <use x="660.693359" xlink:href="#DejaVuSans-32"/>
     <use x="692.480469" xlink:href="#DejaVuSans-66"/>
     <use x="761.083984" xlink:href="#DejaVuSans-97"/>
     <use x="822.363281" xlink:href="#DejaVuSans-115"/>
     <use x="874.462891" xlink:href="#DejaVuSans-105"/>
     <use x="902.246094" xlink:href="#DejaVuSans-99"/>
     <use x="957.226562" xlink:href="#DejaVuSans-32"/>
     <use x="989.013672" xlink:href="#DejaVuSans-82"/>
     <use x="1053.996094" xlink:href="#DejaVuSans-101"/>
     <use x="1115.519531" xlink:href="#DejaVuSans-112"/>
     <use x="1178.996094" xlink:href="#DejaVuSans-114"/>
     <use x="1217.859375" xlink:href="#DejaVuSans-111"/>
     <use x="1279.041016" xlink:href="#DejaVuSans-100"/>
     <use x="1342.517578" xlink:href="#DejaVuSans-117"/>
     <use x="1405.896484" xlink:href="#DejaVuSans-99"/>
     <use x="1460.876953" xlink:href="#DejaVuSans-116"/>
     <use x="1500.085938" xlink:href="#DejaVuSans-105"/>
     <use x="1527.869141" xlink:href="#DejaVuSans-111"/>
     <use x="1589.050781" xlink:href="#DejaVuSans-110"/>
     <use x="1652.429688" xlink:href="#DejaVuSans-32"/>
     <use x="1684.216797" xlink:href="#DejaVuSans-78"/>
     <use x="1759.021484" xlink:href="#DejaVuSans-117"/>
     <use x="1822.400391" xlink:href="#DejaVuSans-109"/>
     <use x="1919.8125" xlink:href="#DejaVuSans-98"/>
     <use x="1983.289062" xlink:href="#DejaVuSans-101"/>
     <use x="2044.8125" xlink:href="#DejaVuSans-114"/>
    </g>
   </g>
  </g>
 </g>
 <defs>
  <clipPath id="pc82eb14e40">
   <rect height="336.774503" width="504.88" x="60.32" y="26.88"/>
  </clipPath>
 </defs>
</svg>
