<?xml version="1.0" encoding="utf-8" standalone="no"?>
<!DOCTYPE svg PUBLIC "-//W3C//DTD SVG 1.1//EN"
  "http://www.w3.org/Graphics/SVG/1.1/DTD/svg11.dtd">
<!-- Created with matplotlib (https://matplotlib.org/) -->
<svg height="432pt" version="1.1" viewBox="0 0 576 432" width="576pt" xmlns="http://www.w3.org/2000/svg" xmlns:xlink="http://www.w3.org/1999/xlink">
 <defs>
  <style type="text/css">
*{stroke-linecap:butt;stroke-linejoin:round;}
  </style>
 </defs>
 <g id="figure_1">
  <g id="patch_1">
   <path d="M 0 432 
L 576 432 
L 576 0 
L 0 0 
z
" style="fill:#ffffff;"/>
  </g>
  <g id="axes_1">
   <g id="patch_2">
    <path d="M 72 384.48 
L 518.4 384.48 
L 518.4 51.84 
L 72 51.84 
z
" style="fill:#ffffff;"/>
   </g>
   <g id="matplotlib.axis_1">
    <g id="xtick_1">
     <g id="line2d_1">
      <defs>
       <path d="M 0 0 
L 0 3.5 
" id="m41eb5ffdcc" style="stroke:#000000;stroke-width:0.8;"/>
      </defs>
      <g>
       <use style="stroke:#000000;stroke-width:0.8;" x="141.084298" xlink:href="#m41eb5ffdcc" y="384.48"/>
      </g>
     </g>
     <g id="text_1">
      <!-- 2020-05 -->
      <defs>
       <path d="M 19.1875 8.296875 
L 53.609375 8.296875 
L 53.609375 0 
L 7.328125 0 
L 7.328125 8.296875 
Q 12.9375 14.109375 22.625 23.890625 
Q 32.328125 33.6875 34.8125 36.53125 
Q 39.546875 41.84375 41.421875 45.53125 
Q 43.3125 49.21875 43.3125 52.78125 
Q 43.3125 58.59375 39.234375 62.25 
Q 35.15625 65.921875 28.609375 65.921875 
Q 23.96875 65.921875 18.8125 64.3125 
Q 13.671875 62.703125 7.8125 59.421875 
L 7.8125 69.390625 
Q 13.765625 71.78125 18.9375 73 
Q 24.125 74.21875 28.421875 74.21875 
Q 39.75 74.21875 46.484375 68.546875 
Q 53.21875 62.890625 53.21875 53.421875 
Q 53.21875 48.921875 51.53125 44.890625 
Q 49.859375 40.875 45.40625 35.40625 
Q 44.1875 33.984375 37.640625 27.21875 
Q 31.109375 20.453125 19.1875 8.296875 
z
" id="DejaVuSans-50"/>
       <path d="M 31.78125 66.40625 
Q 24.171875 66.40625 20.328125 58.90625 
Q 16.5 51.421875 16.5 36.375 
Q 16.5 21.390625 20.328125 13.890625 
Q 24.171875 6.390625 31.78125 6.390625 
Q 39.453125 6.390625 43.28125 13.890625 
Q 47.125 21.390625 47.125 36.375 
Q 47.125 51.421875 43.28125 58.90625 
Q 39.453125 66.40625 31.78125 66.40625 
z
M 31.78125 74.21875 
Q 44.046875 74.21875 50.515625 64.515625 
Q 56.984375 54.828125 56.984375 36.375 
Q 56.984375 17.96875 50.515625 8.265625 
Q 44.046875 -1.421875 31.78125 -1.421875 
Q 19.53125 -1.421875 13.0625 8.265625 
Q 6.59375 17.96875 6.59375 36.375 
Q 6.59375 54.828125 13.0625 64.515625 
Q 19.53125 74.21875 31.78125 74.21875 
z
" id="DejaVuSans-48"/>
       <path d="M 4.890625 31.390625 
L 31.203125 31.390625 
L 31.203125 23.390625 
L 4.890625 23.390625 
z
" id="DejaVuSans-45"/>
       <path d="M 10.796875 72.90625 
L 49.515625 72.90625 
L 49.515625 64.59375 
L 19.828125 64.59375 
L 19.828125 46.734375 
Q 21.96875 47.46875 24.109375 47.828125 
Q 26.265625 48.1875 28.421875 48.1875 
Q 40.625 48.1875 47.75 41.5 
Q 54.890625 34.8125 54.890625 23.390625 
Q 54.890625 11.625 47.5625 5.09375 
Q 40.234375 -1.421875 26.90625 -1.421875 
Q 22.3125 -1.421875 17.546875 -0.640625 
Q 12.796875 0.140625 7.71875 1.703125 
L 7.71875 11.625 
Q 12.109375 9.234375 16.796875 8.0625 
Q 21.484375 6.890625 26.703125 6.890625 
Q 35.15625 6.890625 40.078125 11.328125 
Q 45.015625 15.765625 45.015625 23.390625 
Q 45.015625 31 40.078125 35.4375 
Q 35.15625 39.890625 26.703125 39.890625 
Q 22.75 39.890625 18.8125 39.015625 
Q 14.890625 38.140625 10.796875 36.28125 
z
" id="DejaVuSans-53"/>
      </defs>
      <g transform="translate(120.192891 399.078438)scale(0.1 -0.1)">
       <use xlink:href="#DejaVuSans-50"/>
       <use x="63.623047" xlink:href="#DejaVuSans-48"/>
       <use x="127.246094" xlink:href="#DejaVuSans-50"/>
       <use x="190.869141" xlink:href="#DejaVuSans-48"/>
       <use x="254.492188" xlink:href="#DejaVuSans-45"/>
       <use x="290.576172" xlink:href="#DejaVuSans-48"/>
       <use x="354.199219" xlink:href="#DejaVuSans-53"/>
      </g>
     </g>
    </g>
    <g id="xtick_2">
     <g id="line2d_2">
      <g>
       <use style="stroke:#000000;stroke-width:0.8;" x="213.679339" xlink:href="#m41eb5ffdcc" y="384.48"/>
      </g>
     </g>
     <g id="text_2">
      <!-- 2020-07 -->
      <defs>
       <path d="M 8.203125 72.90625 
L 55.078125 72.90625 
L 55.078125 68.703125 
L 28.609375 0 
L 18.3125 0 
L 43.21875 64.59375 
L 8.203125 64.59375 
z
" id="DejaVuSans-55"/>
      </defs>
      <g transform="translate(192.787933 399.078438)scale(0.1 -0.1)">
       <use xlink:href="#DejaVuSans-50"/>
       <use x="63.623047" xlink:href="#DejaVuSans-48"/>
       <use x="127.246094" xlink:href="#DejaVuSans-50"/>
       <use x="190.869141" xlink:href="#DejaVuSans-48"/>
       <use x="254.492188" xlink:href="#DejaVuSans-45"/>
       <use x="290.576172" xlink:href="#DejaVuSans-48"/>
       <use x="354.199219" xlink:href="#DejaVuSans-55"/>
      </g>
     </g>
    </g>
    <g id="xtick_3">
     <g id="line2d_3">
      <g>
       <use style="stroke:#000000;stroke-width:0.8;" x="287.464463" xlink:href="#m41eb5ffdcc" y="384.48"/>
      </g>
     </g>
     <g id="text_3">
      <!-- 2020-09 -->
      <defs>
       <path d="M 10.984375 1.515625 
L 10.984375 10.5 
Q 14.703125 8.734375 18.5 7.8125 
Q 22.3125 6.890625 25.984375 6.890625 
Q 35.75 6.890625 40.890625 13.453125 
Q 46.046875 20.015625 46.78125 33.40625 
Q 43.953125 29.203125 39.59375 26.953125 
Q 35.25 24.703125 29.984375 24.703125 
Q 19.046875 24.703125 12.671875 31.3125 
Q 6.296875 37.9375 6.296875 49.421875 
Q 6.296875 60.640625 12.9375 67.421875 
Q 19.578125 74.21875 30.609375 74.21875 
Q 43.265625 74.21875 49.921875 64.515625 
Q 56.59375 54.828125 56.59375 36.375 
Q 56.59375 19.140625 48.40625 8.859375 
Q 40.234375 -1.421875 26.421875 -1.421875 
Q 22.703125 -1.421875 18.890625 -0.6875 
Q 15.09375 0.046875 10.984375 1.515625 
z
M 30.609375 32.421875 
Q 37.25 32.421875 41.125 36.953125 
Q 45.015625 41.5 45.015625 49.421875 
Q 45.015625 57.28125 41.125 61.84375 
Q 37.25 66.40625 30.609375 66.40625 
Q 23.96875 66.40625 20.09375 61.84375 
Q 16.21875 57.28125 16.21875 49.421875 
Q 16.21875 41.5 20.09375 36.953125 
Q 23.96875 32.421875 30.609375 32.421875 
z
" id="DejaVuSans-57"/>
      </defs>
      <g transform="translate(266.573057 399.078438)scale(0.1 -0.1)">
       <use xlink:href="#DejaVuSans-50"/>
       <use x="63.623047" xlink:href="#DejaVuSans-48"/>
       <use x="127.246094" xlink:href="#DejaVuSans-50"/>
       <use x="190.869141" xlink:href="#DejaVuSans-48"/>
       <use x="254.492188" xlink:href="#DejaVuSans-45"/>
       <use x="290.576172" xlink:href="#DejaVuSans-48"/>
       <use x="354.199219" xlink:href="#DejaVuSans-57"/>
      </g>
     </g>
    </g>
    <g id="xtick_4">
     <g id="line2d_4">
      <g>
       <use style="stroke:#000000;stroke-width:0.8;" x="360.059504" xlink:href="#m41eb5ffdcc" y="384.48"/>
      </g>
     </g>
     <g id="text_4">
      <!-- 2020-11 -->
      <defs>
       <path d="M 12.40625 8.296875 
L 28.515625 8.296875 
L 28.515625 63.921875 
L 10.984375 60.40625 
L 10.984375 69.390625 
L 28.421875 72.90625 
L 38.28125 72.90625 
L 38.28125 8.296875 
L 54.390625 8.296875 
L 54.390625 0 
L 12.40625 0 
z
" id="DejaVuSans-49"/>
      </defs>
      <g transform="translate(339.168098 399.078438)scale(0.1 -0.1)">
       <use xlink:href="#DejaVuSans-50"/>
       <use x="63.623047" xlink:href="#DejaVuSans-48"/>
       <use x="127.246094" xlink:href="#DejaVuSans-50"/>
       <use x="190.869141" xlink:href="#DejaVuSans-48"/>
       <use x="254.492188" xlink:href="#DejaVuSans-45"/>
       <use x="290.576172" xlink:href="#DejaVuSans-49"/>
       <use x="354.199219" xlink:href="#DejaVuSans-49"/>
      </g>
     </g>
    </g>
    <g id="xtick_5">
     <g id="line2d_5">
      <g>
       <use style="stroke:#000000;stroke-width:0.8;" x="432.654545" xlink:href="#m41eb5ffdcc" y="384.48"/>
      </g>
     </g>
     <g id="text_5">
      <!-- 2021-01 -->
      <g transform="translate(411.763139 399.078438)scale(0.1 -0.1)">
       <use xlink:href="#DejaVuSans-50"/>
       <use x="63.623047" xlink:href="#DejaVuSans-48"/>
       <use x="127.246094" xlink:href="#DejaVuSans-50"/>
       <use x="190.869141" xlink:href="#DejaVuSans-49"/>
       <use x="254.492188" xlink:href="#DejaVuSans-45"/>
       <use x="290.576172" xlink:href="#DejaVuSans-48"/>
       <use x="354.199219" xlink:href="#DejaVuSans-49"/>
      </g>
     </g>
    </g>
    <g id="xtick_6">
     <g id="line2d_6">
      <g>
       <use style="stroke:#000000;stroke-width:0.8;" x="502.869421" xlink:href="#m41eb5ffdcc" y="384.48"/>
      </g>
     </g>
     <g id="text_6">
      <!-- 2021-03 -->
      <defs>
       <path d="M 40.578125 39.3125 
Q 47.65625 37.796875 51.625 33 
Q 55.609375 28.21875 55.609375 21.1875 
Q 55.609375 10.40625 48.1875 4.484375 
Q 40.765625 -1.421875 27.09375 -1.421875 
Q 22.515625 -1.421875 17.65625 -0.515625 
Q 12.796875 0.390625 7.625 2.203125 
L 7.625 11.71875 
Q 11.71875 9.328125 16.59375 8.109375 
Q 21.484375 6.890625 26.8125 6.890625 
Q 36.078125 6.890625 40.9375 10.546875 
Q 45.796875 14.203125 45.796875 21.1875 
Q 45.796875 27.640625 41.28125 31.265625 
Q 36.765625 34.90625 28.71875 34.90625 
L 20.21875 34.90625 
L 20.21875 43.015625 
L 29.109375 43.015625 
Q 36.375 43.015625 40.234375 45.921875 
Q 44.09375 48.828125 44.09375 54.296875 
Q 44.09375 59.90625 40.109375 62.90625 
Q 36.140625 65.921875 28.71875 65.921875 
Q 24.65625 65.921875 20.015625 65.03125 
Q 15.375 64.15625 9.8125 62.3125 
L 9.8125 71.09375 
Q 15.4375 72.65625 20.34375 73.4375 
Q 25.25 74.21875 29.59375 74.21875 
Q 40.828125 74.21875 47.359375 69.109375 
Q 53.90625 64.015625 53.90625 55.328125 
Q 53.90625 49.265625 50.4375 45.09375 
Q 46.96875 40.921875 40.578125 39.3125 
z
" id="DejaVuSans-51"/>
      </defs>
      <g transform="translate(481.978015 399.078438)scale(0.1 -0.1)">
       <use xlink:href="#DejaVuSans-50"/>
       <use x="63.623047" xlink:href="#DejaVuSans-48"/>
       <use x="127.246094" xlink:href="#DejaVuSans-50"/>
       <use x="190.869141" xlink:href="#DejaVuSans-49"/>
       <use x="254.492188" xlink:href="#DejaVuSans-45"/>
       <use x="290.576172" xlink:href="#DejaVuSans-48"/>
       <use x="354.199219" xlink:href="#DejaVuSans-51"/>
      </g>
     </g>
    </g>
    <g id="text_7">
     <!-- Reported On -->
     <defs>
      <path d="M 44.390625 34.1875 
Q 47.5625 33.109375 50.5625 29.59375 
Q 53.5625 26.078125 56.59375 19.921875 
L 66.609375 0 
L 56 0 
L 46.6875 18.703125 
Q 43.0625 26.03125 39.671875 28.421875 
Q 36.28125 30.8125 30.421875 30.8125 
L 19.671875 30.8125 
L 19.671875 0 
L 9.8125 0 
L 9.8125 72.90625 
L 32.078125 72.90625 
Q 44.578125 72.90625 50.734375 67.671875 
Q 56.890625 62.453125 56.890625 51.90625 
Q 56.890625 45.015625 53.6875 40.46875 
Q 50.484375 35.9375 44.390625 34.1875 
z
M 19.671875 64.796875 
L 19.671875 38.921875 
L 32.078125 38.921875 
Q 39.203125 38.921875 42.84375 42.21875 
Q 46.484375 45.515625 46.484375 51.90625 
Q 46.484375 58.296875 42.84375 61.546875 
Q 39.203125 64.796875 32.078125 64.796875 
z
" id="DejaVuSans-82"/>
      <path d="M 56.203125 29.59375 
L 56.203125 25.203125 
L 14.890625 25.203125 
Q 15.484375 15.921875 20.484375 11.0625 
Q 25.484375 6.203125 34.421875 6.203125 
Q 39.59375 6.203125 44.453125 7.46875 
Q 49.3125 8.734375 54.109375 11.28125 
L 54.109375 2.78125 
Q 49.265625 0.734375 44.1875 -0.34375 
Q 39.109375 -1.421875 33.890625 -1.421875 
Q 20.796875 -1.421875 13.15625 6.1875 
Q 5.515625 13.8125 5.515625 26.8125 
Q 5.515625 40.234375 12.765625 48.109375 
Q 20.015625 56 32.328125 56 
Q 43.359375 56 49.78125 48.890625 
Q 56.203125 41.796875 56.203125 29.59375 
z
M 47.21875 32.234375 
Q 47.125 39.59375 43.09375 43.984375 
Q 39.0625 48.390625 32.421875 48.390625 
Q 24.90625 48.390625 20.390625 44.140625 
Q 15.875 39.890625 15.1875 32.171875 
z
" id="DejaVuSans-101"/>
      <path d="M 18.109375 8.203125 
L 18.109375 -20.796875 
L 9.078125 -20.796875 
L 9.078125 54.6875 
L 18.109375 54.6875 
L 18.109375 46.390625 
Q 20.953125 51.265625 25.265625 53.625 
Q 29.59375 56 35.59375 56 
Q 45.5625 56 51.78125 48.09375 
Q 58.015625 40.1875 58.015625 27.296875 
Q 58.015625 14.40625 51.78125 6.484375 
Q 45.5625 -1.421875 35.59375 -1.421875 
Q 29.59375 -1.421875 25.265625 0.953125 
Q 20.953125 3.328125 18.109375 8.203125 
z
M 48.6875 27.296875 
Q 48.6875 37.203125 44.609375 42.84375 
Q 40.53125 48.484375 33.40625 48.484375 
Q 26.265625 48.484375 22.1875 42.84375 
Q 18.109375 37.203125 18.109375 27.296875 
Q 18.109375 17.390625 22.1875 11.75 
Q 26.265625 6.109375 33.40625 6.109375 
Q 40.53125 6.109375 44.609375 11.75 
Q 48.6875 17.390625 48.6875 27.296875 
z
" id="DejaVuSans-112"/>
      <path d="M 30.609375 48.390625 
Q 23.390625 48.390625 19.1875 42.75 
Q 14.984375 37.109375 14.984375 27.296875 
Q 14.984375 17.484375 19.15625 11.84375 
Q 23.34375 6.203125 30.609375 6.203125 
Q 37.796875 6.203125 41.984375 11.859375 
Q 46.1875 17.53125 46.1875 27.296875 
Q 46.1875 37.015625 41.984375 42.703125 
Q 37.796875 48.390625 30.609375 48.390625 
z
M 30.609375 56 
Q 42.328125 56 49.015625 48.375 
Q 55.71875 40.765625 55.71875 27.296875 
Q 55.71875 13.875 49.015625 6.21875 
Q 42.328125 -1.421875 30.609375 -1.421875 
Q 18.84375 -1.421875 12.171875 6.21875 
Q 5.515625 13.875 5.515625 27.296875 
Q 5.515625 40.765625 12.171875 48.375 
Q 18.84375 56 30.609375 56 
z
" id="DejaVuSans-111"/>
      <path d="M 41.109375 46.296875 
Q 39.59375 47.171875 37.8125 47.578125 
Q 36.03125 48 33.890625 48 
Q 26.265625 48 22.1875 43.046875 
Q 18.109375 38.09375 18.109375 28.8125 
L 18.109375 0 
L 9.078125 0 
L 9.078125 54.6875 
L 18.109375 54.6875 
L 18.109375 46.1875 
Q 20.953125 51.171875 25.484375 53.578125 
Q 30.03125 56 36.53125 56 
Q 37.453125 56 38.578125 55.875 
Q 39.703125 55.765625 41.0625 55.515625 
z
" id="DejaVuSans-114"/>
      <path d="M 18.3125 70.21875 
L 18.3125 54.6875 
L 36.8125 54.6875 
L 36.8125 47.703125 
L 18.3125 47.703125 
L 18.3125 18.015625 
Q 18.3125 11.328125 20.140625 9.421875 
Q 21.96875 7.515625 27.59375 7.515625 
L 36.8125 7.515625 
L 36.8125 0 
L 27.59375 0 
Q 17.1875 0 13.234375 3.875 
Q 9.28125 7.765625 9.28125 18.015625 
L 9.28125 47.703125 
L 2.6875 47.703125 
L 2.6875 54.6875 
L 9.28125 54.6875 
L 9.28125 70.21875 
z
" id="DejaVuSans-116"/>
      <path d="M 45.40625 46.390625 
L 45.40625 75.984375 
L 54.390625 75.984375 
L 54.390625 0 
L 45.40625 0 
L 45.40625 8.203125 
Q 42.578125 3.328125 38.25 0.953125 
Q 33.9375 -1.421875 27.875 -1.421875 
Q 17.96875 -1.421875 11.734375 6.484375 
Q 5.515625 14.40625 5.515625 27.296875 
Q 5.515625 40.1875 11.734375 48.09375 
Q 17.96875 56 27.875 56 
Q 33.9375 56 38.25 53.625 
Q 42.578125 51.265625 45.40625 46.390625 
z
M 14.796875 27.296875 
Q 14.796875 17.390625 18.875 11.75 
Q 22.953125 6.109375 30.078125 6.109375 
Q 37.203125 6.109375 41.296875 11.75 
Q 45.40625 17.390625 45.40625 27.296875 
Q 45.40625 37.203125 41.296875 42.84375 
Q 37.203125 48.484375 30.078125 48.484375 
Q 22.953125 48.484375 18.875 42.84375 
Q 14.796875 37.203125 14.796875 27.296875 
z
" id="DejaVuSans-100"/>
      <path id="DejaVuSans-32"/>
      <path d="M 39.40625 66.21875 
Q 28.65625 66.21875 22.328125 58.203125 
Q 16.015625 50.203125 16.015625 36.375 
Q 16.015625 22.609375 22.328125 14.59375 
Q 28.65625 6.59375 39.40625 6.59375 
Q 50.140625 6.59375 56.421875 14.59375 
Q 62.703125 22.609375 62.703125 36.375 
Q 62.703125 50.203125 56.421875 58.203125 
Q 50.140625 66.21875 39.40625 66.21875 
z
M 39.40625 74.21875 
Q 54.734375 74.21875 63.90625 63.9375 
Q 73.09375 53.65625 73.09375 36.375 
Q 73.09375 19.140625 63.90625 8.859375 
Q 54.734375 -1.421875 39.40625 -1.421875 
Q 24.03125 -1.421875 14.8125 8.828125 
Q 5.609375 19.09375 5.609375 36.375 
Q 5.609375 53.65625 14.8125 63.9375 
Q 24.03125 74.21875 39.40625 74.21875 
z
" id="DejaVuSans-79"/>
      <path d="M 54.890625 33.015625 
L 54.890625 0 
L 45.90625 0 
L 45.90625 32.71875 
Q 45.90625 40.484375 42.875 44.328125 
Q 39.84375 48.1875 33.796875 48.1875 
Q 26.515625 48.1875 22.3125 43.546875 
Q 18.109375 38.921875 18.109375 30.90625 
L 18.109375 0 
L 9.078125 0 
L 9.078125 54.6875 
L 18.109375 54.6875 
L 18.109375 46.1875 
Q 21.34375 51.125 25.703125 53.5625 
Q 30.078125 56 35.796875 56 
Q 45.21875 56 50.046875 50.171875 
Q 54.890625 44.34375 54.890625 33.015625 
z
" id="DejaVuSans-110"/>
     </defs>
     <g transform="translate(263.680469 412.756563)scale(0.1 -0.1)">
      <use xlink:href="#DejaVuSans-82"/>
      <use x="64.982422" xlink:href="#DejaVuSans-101"/>
      <use x="126.505859" xlink:href="#DejaVuSans-112"/>
      <use x="189.982422" xlink:href="#DejaVuSans-111"/>
      <use x="251.164062" xlink:href="#DejaVuSans-114"/>
      <use x="292.277344" xlink:href="#DejaVuSans-116"/>
      <use x="331.486328" xlink:href="#DejaVuSans-101"/>
      <use x="393.009766" xlink:href="#DejaVuSans-100"/>
      <use x="456.486328" xlink:href="#DejaVuSans-32"/>
      <use x="488.273438" xlink:href="#DejaVuSans-79"/>
      <use x="566.984375" xlink:href="#DejaVuSans-110"/>
     </g>
    </g>
   </g>
   <g id="matplotlib.axis_2">
    <g id="ytick_1">
     <g id="line2d_7">
      <defs>
       <path d="M 0 0 
L -3.5 0 
" id="m9306382261" style="stroke:#000000;stroke-width:0.8;"/>
      </defs>
      <g>
       <use style="stroke:#000000;stroke-width:0.8;" x="72" xlink:href="#m9306382261" y="369.862757"/>
      </g>
     </g>
     <g id="text_8">
      <!-- 0.00 % -->
      <defs>
       <path d="M 10.6875 12.40625 
L 21 12.40625 
L 21 0 
L 10.6875 0 
z
" id="DejaVuSans-46"/>
       <path d="M 72.703125 32.078125 
Q 68.453125 32.078125 66.03125 28.46875 
Q 63.625 24.859375 63.625 18.40625 
Q 63.625 12.0625 66.03125 8.421875 
Q 68.453125 4.78125 72.703125 4.78125 
Q 76.859375 4.78125 79.265625 8.421875 
Q 81.6875 12.0625 81.6875 18.40625 
Q 81.6875 24.8125 79.265625 28.4375 
Q 76.859375 32.078125 72.703125 32.078125 
z
M 72.703125 38.28125 
Q 80.421875 38.28125 84.953125 32.90625 
Q 89.5 27.546875 89.5 18.40625 
Q 89.5 9.28125 84.9375 3.921875 
Q 80.375 -1.421875 72.703125 -1.421875 
Q 64.890625 -1.421875 60.34375 3.921875 
Q 55.8125 9.28125 55.8125 18.40625 
Q 55.8125 27.59375 60.375 32.9375 
Q 64.9375 38.28125 72.703125 38.28125 
z
M 22.3125 68.015625 
Q 18.109375 68.015625 15.6875 64.375 
Q 13.28125 60.75 13.28125 54.390625 
Q 13.28125 47.953125 15.671875 44.328125 
Q 18.0625 40.71875 22.3125 40.71875 
Q 26.5625 40.71875 28.96875 44.328125 
Q 31.390625 47.953125 31.390625 54.390625 
Q 31.390625 60.6875 28.953125 64.34375 
Q 26.515625 68.015625 22.3125 68.015625 
z
M 66.40625 74.21875 
L 74.21875 74.21875 
L 28.609375 -1.421875 
L 20.796875 -1.421875 
z
M 22.3125 74.21875 
Q 30.03125 74.21875 34.609375 68.875 
Q 39.203125 63.53125 39.203125 54.390625 
Q 39.203125 45.171875 34.640625 39.84375 
Q 30.078125 34.515625 22.3125 34.515625 
Q 14.546875 34.515625 10.03125 39.859375 
Q 5.515625 45.21875 5.515625 54.390625 
Q 5.515625 63.484375 10.046875 68.84375 
Q 14.59375 74.21875 22.3125 74.21875 
z
" id="DejaVuSans-37"/>
      </defs>
      <g transform="translate(30.054688 373.661976)scale(0.1 -0.1)">
       <use xlink:href="#DejaVuSans-48"/>
       <use x="63.623047" xlink:href="#DejaVuSans-46"/>
       <use x="95.410156" xlink:href="#DejaVuSans-48"/>
       <use x="159.033203" xlink:href="#DejaVuSans-48"/>
       <use x="222.65625" xlink:href="#DejaVuSans-32"/>
       <use x="254.443359" xlink:href="#DejaVuSans-37"/>
      </g>
     </g>
    </g>
    <g id="ytick_2">
     <g id="line2d_8">
      <g>
       <use style="stroke:#000000;stroke-width:0.8;" x="72" xlink:href="#m9306382261" y="297.85178"/>
      </g>
     </g>
     <g id="text_9">
      <!-- 10.00 % -->
      <g transform="translate(23.692187 301.650998)scale(0.1 -0.1)">
       <use xlink:href="#DejaVuSans-49"/>
       <use x="63.623047" xlink:href="#DejaVuSans-48"/>
       <use x="127.246094" xlink:href="#DejaVuSans-46"/>
       <use x="159.033203" xlink:href="#DejaVuSans-48"/>
       <use x="222.65625" xlink:href="#DejaVuSans-48"/>
       <use x="286.279297" xlink:href="#DejaVuSans-32"/>
       <use x="318.066406" xlink:href="#DejaVuSans-37"/>
      </g>
     </g>
    </g>
    <g id="ytick_3">
     <g id="line2d_9">
      <g>
       <use style="stroke:#000000;stroke-width:0.8;" x="72" xlink:href="#m9306382261" y="225.840802"/>
      </g>
     </g>
     <g id="text_10">
      <!-- 20.00 % -->
      <g transform="translate(23.692187 229.64002)scale(0.1 -0.1)">
       <use xlink:href="#DejaVuSans-50"/>
       <use x="63.623047" xlink:href="#DejaVuSans-48"/>
       <use x="127.246094" xlink:href="#DejaVuSans-46"/>
       <use x="159.033203" xlink:href="#DejaVuSans-48"/>
       <use x="222.65625" xlink:href="#DejaVuSans-48"/>
       <use x="286.279297" xlink:href="#DejaVuSans-32"/>
       <use x="318.066406" xlink:href="#DejaVuSans-37"/>
      </g>
     </g>
    </g>
    <g id="ytick_4">
     <g id="line2d_10">
      <g>
       <use style="stroke:#000000;stroke-width:0.8;" x="72" xlink:href="#m9306382261" y="153.829824"/>
      </g>
     </g>
     <g id="text_11">
      <!-- 30.00 % -->
      <g transform="translate(23.692187 157.629043)scale(0.1 -0.1)">
       <use xlink:href="#DejaVuSans-51"/>
       <use x="63.623047" xlink:href="#DejaVuSans-48"/>
       <use x="127.246094" xlink:href="#DejaVuSans-46"/>
       <use x="159.033203" xlink:href="#DejaVuSans-48"/>
       <use x="222.65625" xlink:href="#DejaVuSans-48"/>
       <use x="286.279297" xlink:href="#DejaVuSans-32"/>
       <use x="318.066406" xlink:href="#DejaVuSans-37"/>
      </g>
     </g>
    </g>
    <g id="ytick_5">
     <g id="line2d_11">
      <g>
       <use style="stroke:#000000;stroke-width:0.8;" x="72" xlink:href="#m9306382261" y="81.818846"/>
      </g>
     </g>
     <g id="text_12">
      <!-- 40.00 % -->
      <defs>
       <path d="M 37.796875 64.3125 
L 12.890625 25.390625 
L 37.796875 25.390625 
z
M 35.203125 72.90625 
L 47.609375 72.90625 
L 47.609375 25.390625 
L 58.015625 25.390625 
L 58.015625 17.1875 
L 47.609375 17.1875 
L 47.609375 0 
L 37.796875 0 
L 37.796875 17.1875 
L 4.890625 17.1875 
L 4.890625 26.703125 
z
" id="DejaVuSans-52"/>
      </defs>
      <g transform="translate(23.692187 85.618065)scale(0.1 -0.1)">
       <use xlink:href="#DejaVuSans-52"/>
       <use x="63.623047" xlink:href="#DejaVuSans-48"/>
       <use x="127.246094" xlink:href="#DejaVuSans-46"/>
       <use x="159.033203" xlink:href="#DejaVuSans-48"/>
       <use x="222.65625" xlink:href="#DejaVuSans-48"/>
       <use x="286.279297" xlink:href="#DejaVuSans-32"/>
       <use x="318.066406" xlink:href="#DejaVuSans-37"/>
      </g>
     </g>
    </g>
    <g id="text_13">
     <!-- Rate -->
     <defs>
      <path d="M 34.28125 27.484375 
Q 23.390625 27.484375 19.1875 25 
Q 14.984375 22.515625 14.984375 16.5 
Q 14.984375 11.71875 18.140625 8.90625 
Q 21.296875 6.109375 26.703125 6.109375 
Q 34.1875 6.109375 38.703125 11.40625 
Q 43.21875 16.703125 43.21875 25.484375 
L 43.21875 27.484375 
z
M 52.203125 31.203125 
L 52.203125 0 
L 43.21875 0 
L 43.21875 8.296875 
Q 40.140625 3.328125 35.546875 0.953125 
Q 30.953125 -1.421875 24.3125 -1.421875 
Q 15.921875 -1.421875 10.953125 3.296875 
Q 6 8.015625 6 15.921875 
Q 6 25.140625 12.171875 29.828125 
Q 18.359375 34.515625 30.609375 34.515625 
L 43.21875 34.515625 
L 43.21875 35.40625 
Q 43.21875 41.609375 39.140625 45 
Q 35.0625 48.390625 27.6875 48.390625 
Q 23 48.390625 18.546875 47.265625 
Q 14.109375 46.140625 10.015625 43.890625 
L 10.015625 52.203125 
Q 14.9375 54.109375 19.578125 55.046875 
Q 24.21875 56 28.609375 56 
Q 40.484375 56 46.34375 49.84375 
Q 52.203125 43.703125 52.203125 31.203125 
z
" id="DejaVuSans-97"/>
     </defs>
     <g transform="translate(17.6125 229.6225)rotate(-90)scale(0.1 -0.1)">
      <use xlink:href="#DejaVuSans-82"/>
      <use x="67.232422" xlink:href="#DejaVuSans-97"/>
      <use x="128.511719" xlink:href="#DejaVuSans-116"/>
      <use x="167.720703" xlink:href="#DejaVuSans-101"/>
     </g>
    </g>
   </g>
   <g id="line2d_12">
    <path clip-path="url(#pd73f4ade5e)" d="M 498.109091 365.802503 
L 495.728926 365.674978 
L 493.34876 365.7352 
L 490.968595 365.592493 
L 489.778512 365.34073 
L 487.398347 365.179523 
L 486.208264 364.655415 
L 483.828099 364.167235 
L 481.447934 363.138277 
L 477.877686 362.406988 
L 476.687603 362.427929 
L 475.497521 361.885341 
L 474.307438 360.54236 
L 473.117355 360.018673 
L 471.927273 358.411489 
L 470.73719 357.303326 
L 469.547107 354.472921 
L 468.357025 352.879503 
L 467.166942 351.50345 
L 465.97686 352.128789 
L 464.786777 351.636496 
L 463.596694 351.585 
L 462.406612 350.903619 
L 461.216529 352.639485 
L 460.026446 353.174286 
L 458.836364 354.096987 
L 457.646281 353.109441 
L 456.456198 352.860161 
L 455.266116 353.561517 
L 452.88595 355.417416 
L 451.695868 355.8806 
L 450.505785 355.770518 
L 449.315702 357.414739 
L 448.12562 358.363746 
L 446.935537 358.4374 
L 444.555372 359.518179 
L 443.365289 359.130793 
L 442.175207 359.651552 
L 440.985124 359.374826 
L 439.795041 360.016661 
L 438.604959 360.25082 
L 437.414876 359.894674 
L 436.224793 359.768018 
L 435.034711 361.131313 
L 433.844628 360.437882 
L 432.654545 360.752344 
L 431.464463 360.718471 
L 430.27438 361.393428 
L 429.084298 361.741331 
L 427.894215 361.600746 
L 426.704132 360.730787 
L 425.51405 361.860771 
L 424.323967 361.016677 
L 421.943802 360.751515 
L 420.753719 360.115438 
L 418.373554 360.50692 
L 417.183471 359.327036 
L 415.993388 359.561555 
L 414.803306 359.351846 
L 413.613223 359.342409 
L 412.42314 360.489175 
L 411.233058 361.015557 
L 410.042975 361.33072 
L 408.852893 362.616576 
L 407.66281 363.509036 
L 406.472727 364.234976 
L 405.282645 365.100518 
L 404.092562 364.982031 
L 402.902479 365.501145 
L 401.712397 366.27619 
L 398.142149 367.087399 
L 396.952066 366.104987 
L 395.761983 366.37998 
L 394.571901 366.19212 
L 393.381818 365.350691 
L 391.001653 364.72613 
L 389.81157 364.836542 
L 388.621488 365.573497 
L 387.431405 365.420725 
L 386.241322 365.551685 
L 385.05124 365.976811 
L 383.861157 365.6404 
L 382.671074 365.65254 
L 381.480992 365.082387 
L 380.290909 365.483723 
L 379.100826 365.181136 
L 377.910744 365.088709 
L 376.720661 365.372137 
L 375.530579 366.351531 
L 373.150413 367.376698 
L 371.960331 367.154905 
L 370.770248 367.888928 
L 368.390083 368.354564 
L 366.009917 368.390563 
L 363.629752 368.964125 
L 362.439669 368.296442 
L 361.249587 368.213216 
L 358.869421 368.309093 
L 357.679339 368.206415 
L 356.489256 367.551367 
L 355.299174 367.488898 
L 354.109091 368.06652 
L 352.919008 368.206944 
L 351.728926 367.977386 
L 349.34876 368.075763 
L 348.158678 368.542005 
L 346.968595 368.374218 
L 345.778512 368.034598 
L 344.58843 368.054095 
L 343.398347 368.23677 
L 341.018182 368.296931 
L 338.638017 368.668862 
L 337.447934 369.126521 
L 336.257851 369.062678 
L 335.067769 369.23047 
L 333.877686 369.018148 
L 331.497521 368.974459 
L 330.307438 368.952841 
L 327.927273 369.120296 
L 326.73719 368.885639 
L 325.547107 368.989776 
L 321.97686 368.55798 
L 320.786777 367.75666 
L 319.596694 367.4938 
L 318.406612 367.509672 
L 317.216529 367.220405 
L 314.836364 366.899048 
L 313.646281 366.693154 
L 312.456198 367.357292 
L 311.266116 367.214662 
L 308.88595 367.105681 
L 307.695868 366.800374 
L 306.505785 365.942031 
L 305.315702 365.925644 
L 302.935537 365.455368 
L 301.745455 364.881661 
L 300.555372 364.876246 
L 299.365289 364.507226 
L 298.175207 364.584862 
L 296.985124 364.123721 
L 294.604959 361.455343 
L 293.414876 361.1807 
L 292.224793 357.138148 
L 291.034711 355.468319 
L 289.844628 354.703594 
L 288.654545 354.276825 
L 287.464463 353.619153 
L 286.27438 348.652169 
L 285.084298 342.762507 
L 283.894215 340.508728 
L 282.704132 339.292112 
L 281.51405 338.876625 
L 280.323967 337.400068 
L 279.133884 337.287771 
L 277.943802 342.748061 
L 276.753719 346.146904 
L 275.563636 348.707538 
L 274.373554 350.050488 
L 273.183471 348.14929 
L 271.993388 350.435419 
L 270.803306 352.226442 
L 269.613223 352.809895 
L 268.42314 355.820006 
L 267.233058 359.856536 
L 266.042975 362.180376 
L 264.852893 365.614563 
L 263.66281 365.788528 
L 261.282645 366.953813 
L 260.092562 366.043147 
L 256.522314 363.997042 
L 255.332231 362.726842 
L 254.142149 361.014076 
L 252.952066 358.816188 
L 251.761983 357.076634 
L 250.571901 354.105549 
L 249.381818 353.758643 
L 247.001653 354.397137 
L 245.81157 354.262679 
L 244.621488 355.175255 
L 243.431405 355.388969 
L 242.241322 356.527853 
L 241.05124 354.212875 
L 239.861157 354.514931 
L 238.671074 353.097389 
L 237.480992 353.818196 
L 236.290909 352.648723 
L 232.720661 352.305195 
L 231.530579 349.62965 
L 230.340496 350.948988 
L 229.150413 350.407006 
L 227.960331 347.891786 
L 226.770248 350.256949 
L 225.580165 352.005695 
L 224.390083 354.755293 
L 223.2 356.538128 
L 222.009917 355.854866 
L 220.819835 356.075836 
L 219.629752 358.95211 
L 218.439669 348.752652 
L 216.059504 346.095255 
L 214.869421 346.85895 
L 213.679339 346.462119 
L 212.489256 344.109647 
L 211.299174 345.119114 
L 210.109091 348.044078 
L 208.919008 346.848749 
L 207.728926 343.028354 
L 206.538843 341.630664 
L 205.34876 342.959328 
L 204.158678 346.519881 
L 202.968595 343.990657 
L 201.778512 346.836671 
L 200.58843 343.062933 
L 199.398347 343.183398 
L 198.208264 342.265683 
L 197.018182 339.568089 
L 195.828099 337.203566 
L 194.638017 338.45929 
L 193.447934 340.8556 
L 192.257851 346.478613 
L 191.067769 349.88938 
L 189.877686 350.689489 
L 188.687603 351.193235 
L 187.497521 350.616846 
L 185.117355 352.271874 
L 183.927273 351.059076 
L 182.73719 352.566037 
L 181.547107 353.291464 
L 180.357025 355.718 
L 179.166942 357.040437 
L 177.97686 358.018595 
L 176.786777 357.153557 
L 175.596694 359.627199 
L 174.406612 359.505864 
L 173.216529 360.938444 
L 172.026446 359.879383 
L 170.836364 359.99722 
L 169.646281 357.170409 
L 168.456198 358.216898 
L 167.266116 357.785643 
L 166.076033 358.345228 
L 164.88595 358.666205 
L 163.695868 360.613382 
L 162.505785 362.239061 
L 161.315702 365.619978 
L 160.12562 367.004995 
L 158.935537 366.608161 
L 157.745455 364.718044 
L 156.555372 363.961623 
L 155.365289 362.816459 
L 154.175207 360.452836 
L 152.985124 360.813161 
L 151.795041 360.38342 
L 150.604959 360.241468 
L 149.414876 360.396513 
L 148.224793 358.643717 
L 147.034711 351.871681 
L 145.844628 348.471986 
L 144.654545 346.01667 
L 143.464463 338.532362 
L 142.27438 335.73188 
L 141.084298 334.169086 
L 139.894215 322.941552 
L 138.704132 330.188568 
L 137.51405 334.273803 
L 136.323967 334.650808 
L 135.133884 342.92645 
L 133.943802 345.206934 
L 132.753719 348.502309 
L 131.563636 358.57772 
L 130.373554 357.746084 
L 129.183471 358.259166 
L 127.993388 354.81807 
L 126.803306 354.004841 
L 125.613223 351.106824 
L 124.42314 350.094715 
L 123.233058 346.533945 
L 122.042975 348.035765 
L 120.852893 344.774189 
L 119.66281 350.293596 
L 118.472727 350.122387 
L 117.282645 353.143976 
L 116.092562 340.847656 
L 114.902479 342.121704 
L 113.712397 339.642721 
L 112.522314 335.248908 
L 111.332231 328.151416 
L 110.142149 329.135853 
L 108.952066 315.27553 
L 107.761983 318.462111 
L 106.571901 316.492974 
L 105.381818 298.556748 
L 104.191736 305.196008 
L 103.001653 301.454766 
L 101.81157 235.710805 
L 100.621488 240.126626 
L 99.431405 250.96536 
L 98.241322 181.339924 
L 97.05124 201.755133 
L 95.861157 190.55858 
L 94.671074 166.783464 
L 93.480992 66.96 
L 92.290909 78.402095 
L 92.290909 78.402095 
" style="fill:none;stroke:#1f77b4;stroke-linecap:square;stroke-width:1.5;"/>
   </g>
   <g id="line2d_13">
    <path clip-path="url(#pd73f4ade5e)" d="M 498.109091 362.994226 
L 496.919008 361.512275 
L 495.728926 358.686212 
L 494.538843 357.889015 
L 493.34876 356.749461 
L 492.158678 355.804078 
L 490.968595 353.203412 
L 488.58843 352.064003 
L 487.398347 351.839442 
L 486.208264 351.309309 
L 485.018182 351.234709 
L 483.828099 350.960337 
L 482.638017 351.131917 
L 481.447934 350.687801 
L 480.257851 349.297707 
L 479.067769 350.359579 
L 477.877686 348.611905 
L 476.687603 349.107073 
L 475.497521 348.668363 
L 474.307438 349.372575 
L 473.117355 348.619353 
L 471.927273 350.044762 
L 470.73719 350.030841 
L 469.547107 352.550802 
L 468.357025 351.280053 
L 467.166942 352.966059 
L 465.97686 354.317771 
L 464.786777 354.757787 
L 463.596694 354.820757 
L 462.406612 353.799533 
L 461.216529 353.605104 
L 460.026446 356.063153 
L 458.836364 354.901579 
L 457.646281 354.197401 
L 455.266116 358.189565 
L 454.076033 361.290956 
L 452.88595 363.596634 
L 451.695868 364.278974 
L 449.315702 368.566519 
L 448.12562 369.36 
L 446.935537 369.36 
L 439.795041 363.787207 
L 438.604959 361.030168 
L 437.414876 361.467627 
L 436.224793 362.399153 
L 435.034711 362.555013 
L 433.844628 362.561715 
L 431.464463 364.388906 
L 430.27438 366.480422 
L 429.084298 366.966131 
L 427.894215 365.909123 
L 426.704132 366.571876 
L 425.51405 367.557294 
L 424.323967 367.954551 
L 423.133884 367.954551 
L 421.943802 368.078012 
L 420.753719 367.720726 
L 419.563636 368.093737 
L 418.373554 367.539779 
L 415.993388 365.320592 
L 413.613223 363.883755 
L 411.233058 364.582459 
L 410.042975 365.288308 
L 408.852893 366.382433 
L 407.66281 367.106911 
L 406.472727 366.374596 
L 405.282645 367.311308 
L 404.092562 366.737683 
L 402.902479 366.559386 
L 401.712397 365.885789 
L 400.522314 365.885789 
L 399.332231 364.750128 
L 398.142149 365.141871 
L 396.952066 364.988326 
L 395.761983 364.080899 
L 394.571901 363.734477 
L 392.191736 363.732844 
L 391.001653 365.223143 
L 389.81157 365.779499 
L 388.621488 365.313621 
L 387.431405 365.184545 
L 386.241322 365.969644 
L 385.05124 366.439761 
L 381.480992 366.545633 
L 380.290909 367.55183 
L 379.100826 369.017081 
L 376.720661 369.139389 
L 375.530579 369.014701 
L 373.150413 369.157151 
L 371.960331 368.948696 
L 370.770248 369.093572 
L 369.580165 368.926503 
L 368.390083 369.050681 
L 367.2 368.314195 
L 366.009917 368.293108 
L 364.819835 367.992482 
L 363.629752 368.200938 
L 361.249587 368.304367 
L 360.059504 367.942606 
L 358.869421 368.311935 
L 357.679339 368.333022 
L 356.489256 368.839775 
L 354.109091 368.711184 
L 351.728926 368.856815 
L 350.538843 369.046132 
L 349.34876 366.777428 
L 348.158678 365.442615 
L 346.968595 360.907753 
L 344.58843 347.958143 
L 343.398347 340.80439 
L 342.208264 339.980011 
L 341.018182 341.930894 
L 339.828099 342.953064 
L 338.638017 343.627689 
L 337.447934 345.085432 
L 336.257851 350.95281 
L 335.067769 358.087854 
L 333.877686 359.075296 
L 331.497521 358.804348 
L 330.307438 361.894833 
L 329.117355 365.954702 
L 327.927273 366.326815 
L 326.73719 366.050406 
L 325.547107 365.944563 
L 324.357025 366.027322 
L 323.166942 365.536541 
L 321.97686 364.541428 
L 320.786777 365.354201 
L 319.596694 364.996929 
L 318.406612 365.17665 
L 317.216529 363.655248 
L 316.026446 361.698098 
L 314.836364 361.687546 
L 313.646281 362.531924 
L 312.456198 361.854717 
L 311.266116 361.316644 
L 310.076033 354.731861 
L 308.88595 356.035062 
L 307.695868 354.485837 
L 306.505785 351.303835 
L 305.315702 351.143702 
L 304.12562 351.15886 
L 302.935537 350.699943 
L 301.745455 356.056987 
L 300.555372 354.870593 
L 299.365289 358.36878 
L 298.175207 361.245113 
L 296.985124 357.961559 
L 295.795041 357.411102 
L 294.604959 357.4569 
L 293.414876 354.12751 
L 292.224793 355.044361 
L 291.034711 353.345398 
L 289.844628 354.503016 
L 288.654545 356.0053 
L 287.464463 357.127696 
L 286.27438 357.496648 
L 285.084298 360.726198 
L 283.894215 361.421215 
L 282.704132 361.001825 
L 281.51405 360.745861 
L 280.323967 363.291678 
L 279.133884 362.606464 
L 277.943802 362.45606 
L 276.753719 363.391396 
L 275.563636 362.38333 
L 274.373554 363.159382 
L 273.183471 360.587521 
L 271.993388 358.740906 
L 270.803306 356.500802 
L 269.613223 351.687365 
L 267.233058 346.528211 
L 266.042975 348.007775 
L 264.852893 347.860339 
L 263.66281 348.398408 
L 262.472727 350.296247 
L 261.282645 351.901895 
L 258.902479 354.439154 
L 257.712397 353.474705 
L 256.522314 354.643425 
L 255.332231 351.621147 
L 254.142149 349.750984 
L 252.952066 351.194787 
L 251.761983 347.221603 
L 250.571901 348.2545 
L 249.381818 348.659596 
L 248.191736 349.366578 
L 247.001653 351.54281 
L 245.81157 352.388554 
L 244.621488 354.285819 
L 243.431405 359.990671 
L 242.241322 359.363725 
L 241.05124 359.150949 
L 239.861157 355.079241 
L 237.480992 355.430446 
L 236.290909 352.811265 
L 235.100826 349.465598 
L 233.910744 348.124794 
L 232.720661 344.695635 
L 231.530579 348.069767 
L 230.340496 348.333803 
L 229.150413 347.845248 
L 227.960331 348.1674 
L 226.770248 350.563958 
L 225.580165 345.461989 
L 224.390083 347.7142 
L 223.2 345.786674 
L 222.009917 345.206934 
L 220.819835 340.44084 
L 219.629752 343.033497 
L 218.439669 344.474821 
L 217.249587 345.570999 
L 216.059504 343.951909 
L 214.869421 344.425822 
L 213.679339 344.741526 
L 212.489256 350.691734 
L 211.299174 351.338781 
L 210.109091 348.234015 
L 208.919008 354.872972 
L 207.728926 356.935163 
L 206.538843 360.05793 
L 205.34876 361.605736 
L 204.158678 360.279519 
L 202.968595 360.557179 
L 201.778512 361.819397 
L 200.58843 362.394107 
L 199.398347 360.671574 
L 198.208264 358.36878 
L 197.018182 357.263199 
L 195.828099 357.593792 
L 194.638017 356.559886 
L 193.447934 355.948792 
L 192.257851 353.435194 
L 191.067769 356.537223 
L 189.877686 358.401327 
L 188.687603 357.03154 
L 187.497521 358.642306 
L 186.307438 356.963777 
L 183.927273 357.107969 
L 182.73719 356.230181 
L 181.547107 356.126006 
L 180.357025 359.486941 
L 179.166942 359.828217 
L 177.97686 359.979371 
L 176.786777 361.929482 
L 175.596694 359.934408 
L 174.406612 358.8851 
L 173.216529 357.378023 
L 172.026446 356.902859 
L 170.836364 353.934549 
L 169.646281 353.499323 
L 168.456198 350.846056 
L 167.266116 344.847536 
L 166.076033 346.559218 
L 164.88595 343.534168 
L 163.695868 341.530349 
L 162.505785 337.777101 
L 161.315702 338.736456 
L 160.12562 334.725381 
L 158.935537 345.158761 
L 157.745455 342.756298 
L 156.555372 345.830138 
L 155.365289 345.96211 
L 154.175207 352.310028 
L 152.985124 353.54661 
L 151.795041 357.378023 
L 150.604959 354.004841 
L 149.414876 347.096281 
L 148.224793 344.560339 
L 147.034711 340.794295 
L 145.844628 338.390307 
L 144.654545 337.002011 
L 143.464463 339.15594 
L 142.27438 337.956244 
L 141.084298 346.671132 
L 139.894215 351.501729 
L 138.704132 354.004841 
L 137.51405 357.203218 
L 136.323967 349.096216 
L 135.133884 350.208365 
L 132.753719 339.873184 
L 131.563636 331.638964 
L 130.373554 324.410174 
L 129.183471 314.414664 
L 127.993388 308.852617 
L 126.803306 255.482833 
L 125.613223 231.628967 
L 124.42314 140.613019 
L 123.233058 148.847239 
L 120.852893 169.681482 
L 119.66281 127.970141 
L 118.472727 181.339924 
L 118.472727 181.339924 
" style="fill:none;stroke:#ff7f0e;stroke-linecap:square;stroke-width:1.5;"/>
   </g>
   <g id="patch_3">
    <path d="M 72 384.48 
L 72 51.84 
" style="fill:none;stroke:#000000;stroke-linecap:square;stroke-linejoin:miter;stroke-width:0.8;"/>
   </g>
   <g id="patch_4">
    <path d="M 518.4 384.48 
L 518.4 51.84 
" style="fill:none;stroke:#000000;stroke-linecap:square;stroke-linejoin:miter;stroke-width:0.8;"/>
   </g>
   <g id="patch_5">
    <path d="M 72 384.48 
L 518.4 384.48 
" style="fill:none;stroke:#000000;stroke-linecap:square;stroke-linejoin:miter;stroke-width:0.8;"/>
   </g>
   <g id="patch_6">
    <path d="M 72 51.84 
L 518.4 51.84 
" style="fill:none;stroke:#000000;stroke-linecap:square;stroke-linejoin:miter;stroke-width:0.8;"/>
   </g>
   <g id="text_14">
    <!-- Growth Rate -->
    <defs>
     <path d="M 59.515625 10.40625 
L 59.515625 29.984375 
L 43.40625 29.984375 
L 43.40625 38.09375 
L 69.28125 38.09375 
L 69.28125 6.78125 
Q 63.578125 2.734375 56.6875 0.65625 
Q 49.8125 -1.421875 42 -1.421875 
Q 24.90625 -1.421875 15.25 8.5625 
Q 5.609375 18.5625 5.609375 36.375 
Q 5.609375 54.25 15.25 64.234375 
Q 24.90625 74.21875 42 74.21875 
Q 49.125 74.21875 55.546875 72.453125 
Q 61.96875 70.703125 67.390625 67.28125 
L 67.390625 56.78125 
Q 61.921875 61.421875 55.765625 63.765625 
Q 49.609375 66.109375 42.828125 66.109375 
Q 29.4375 66.109375 22.71875 58.640625 
Q 16.015625 51.171875 16.015625 36.375 
Q 16.015625 21.625 22.71875 14.15625 
Q 29.4375 6.6875 42.828125 6.6875 
Q 48.046875 6.6875 52.140625 7.59375 
Q 56.25 8.5 59.515625 10.40625 
z
" id="DejaVuSans-71"/>
     <path d="M 4.203125 54.6875 
L 13.1875 54.6875 
L 24.421875 12.015625 
L 35.59375 54.6875 
L 46.1875 54.6875 
L 57.421875 12.015625 
L 68.609375 54.6875 
L 77.59375 54.6875 
L 63.28125 0 
L 52.6875 0 
L 40.921875 44.828125 
L 29.109375 0 
L 18.5 0 
z
" id="DejaVuSans-119"/>
     <path d="M 54.890625 33.015625 
L 54.890625 0 
L 45.90625 0 
L 45.90625 32.71875 
Q 45.90625 40.484375 42.875 44.328125 
Q 39.84375 48.1875 33.796875 48.1875 
Q 26.515625 48.1875 22.3125 43.546875 
Q 18.109375 38.921875 18.109375 30.90625 
L 18.109375 0 
L 9.078125 0 
L 9.078125 75.984375 
L 18.109375 75.984375 
L 18.109375 46.1875 
Q 21.34375 51.125 25.703125 53.5625 
Q 30.078125 56 35.796875 56 
Q 45.21875 56 50.046875 50.171875 
Q 54.890625 44.34375 54.890625 33.015625 
z
" id="DejaVuSans-104"/>
    </defs>
    <g transform="translate(257.824687 45.84)scale(0.12 -0.12)">
     <use xlink:href="#DejaVuSans-71"/>
     <use x="77.490234" xlink:href="#DejaVuSans-114"/>
     <use x="116.353516" xlink:href="#DejaVuSans-111"/>
     <use x="177.535156" xlink:href="#DejaVuSans-119"/>
     <use x="259.322266" xlink:href="#DejaVuSans-116"/>
     <use x="298.53125" xlink:href="#DejaVuSans-104"/>
     <use x="361.910156" xlink:href="#DejaVuSans-32"/>
     <use x="393.697266" xlink:href="#DejaVuSans-82"/>
     <use x="460.929688" xlink:href="#DejaVuSans-97"/>
     <use x="522.208984" xlink:href="#DejaVuSans-116"/>
     <use x="561.417969" xlink:href="#DejaVuSans-101"/>
    </g>
   </g>
   <g id="legend_1">
    <g id="patch_7">
     <path d="M 291.595312 89.19625 
L 511.4 89.19625 
Q 513.4 89.19625 513.4 87.19625 
L 513.4 58.84 
Q 513.4 56.84 511.4 56.84 
L 291.595312 56.84 
Q 289.595312 56.84 289.595312 58.84 
L 289.595312 87.19625 
Q 289.595312 89.19625 291.595312 89.19625 
z
" style="fill:#ffffff;opacity:0.8;stroke:#cccccc;stroke-linejoin:miter;"/>
    </g>
    <g id="line2d_14">
     <path d="M 293.595312 64.938437 
L 313.595312 64.938437 
" style="fill:none;stroke:#1f77b4;stroke-linecap:square;stroke-width:1.5;"/>
    </g>
    <g id="line2d_15"/>
    <g id="text_15">
     <!-- Confirmed Growth Rate (over 7 days) -->
     <defs>
      <path d="M 64.40625 67.28125 
L 64.40625 56.890625 
Q 59.421875 61.53125 53.78125 63.8125 
Q 48.140625 66.109375 41.796875 66.109375 
Q 29.296875 66.109375 22.65625 58.46875 
Q 16.015625 50.828125 16.015625 36.375 
Q 16.015625 21.96875 22.65625 14.328125 
Q 29.296875 6.6875 41.796875 6.6875 
Q 48.140625 6.6875 53.78125 8.984375 
Q 59.421875 11.28125 64.40625 15.921875 
L 64.40625 5.609375 
Q 59.234375 2.09375 53.4375 0.328125 
Q 47.65625 -1.421875 41.21875 -1.421875 
Q 24.65625 -1.421875 15.125 8.703125 
Q 5.609375 18.84375 5.609375 36.375 
Q 5.609375 53.953125 15.125 64.078125 
Q 24.65625 74.21875 41.21875 74.21875 
Q 47.75 74.21875 53.53125 72.484375 
Q 59.328125 70.75 64.40625 67.28125 
z
" id="DejaVuSans-67"/>
      <path d="M 37.109375 75.984375 
L 37.109375 68.5 
L 28.515625 68.5 
Q 23.6875 68.5 21.796875 66.546875 
Q 19.921875 64.59375 19.921875 59.515625 
L 19.921875 54.6875 
L 34.71875 54.6875 
L 34.71875 47.703125 
L 19.921875 47.703125 
L 19.921875 0 
L 10.890625 0 
L 10.890625 47.703125 
L 2.296875 47.703125 
L 2.296875 54.6875 
L 10.890625 54.6875 
L 10.890625 58.5 
Q 10.890625 67.625 15.140625 71.796875 
Q 19.390625 75.984375 28.609375 75.984375 
z
" id="DejaVuSans-102"/>
      <path d="M 9.421875 54.6875 
L 18.40625 54.6875 
L 18.40625 0 
L 9.421875 0 
z
M 9.421875 75.984375 
L 18.40625 75.984375 
L 18.40625 64.59375 
L 9.421875 64.59375 
z
" id="DejaVuSans-105"/>
      <path d="M 52 44.1875 
Q 55.375 50.25 60.0625 53.125 
Q 64.75 56 71.09375 56 
Q 79.640625 56 84.28125 50.015625 
Q 88.921875 44.046875 88.921875 33.015625 
L 88.921875 0 
L 79.890625 0 
L 79.890625 32.71875 
Q 79.890625 40.578125 77.09375 44.375 
Q 74.3125 48.1875 68.609375 48.1875 
Q 61.625 48.1875 57.5625 43.546875 
Q 53.515625 38.921875 53.515625 30.90625 
L 53.515625 0 
L 44.484375 0 
L 44.484375 32.71875 
Q 44.484375 40.625 41.703125 44.40625 
Q 38.921875 48.1875 33.109375 48.1875 
Q 26.21875 48.1875 22.15625 43.53125 
Q 18.109375 38.875 18.109375 30.90625 
L 18.109375 0 
L 9.078125 0 
L 9.078125 54.6875 
L 18.109375 54.6875 
L 18.109375 46.1875 
Q 21.1875 51.21875 25.484375 53.609375 
Q 29.78125 56 35.6875 56 
Q 41.65625 56 45.828125 52.96875 
Q 50 49.953125 52 44.1875 
z
" id="DejaVuSans-109"/>
      <path d="M 31 75.875 
Q 24.46875 64.65625 21.28125 53.65625 
Q 18.109375 42.671875 18.109375 31.390625 
Q 18.109375 20.125 21.3125 9.0625 
Q 24.515625 -2 31 -13.1875 
L 23.1875 -13.1875 
Q 15.875 -1.703125 12.234375 9.375 
Q 8.59375 20.453125 8.59375 31.390625 
Q 8.59375 42.28125 12.203125 53.3125 
Q 15.828125 64.359375 23.1875 75.875 
z
" id="DejaVuSans-40"/>
      <path d="M 2.984375 54.6875 
L 12.5 54.6875 
L 29.59375 8.796875 
L 46.6875 54.6875 
L 56.203125 54.6875 
L 35.6875 0 
L 23.484375 0 
z
" id="DejaVuSans-118"/>
      <path d="M 32.171875 -5.078125 
Q 28.375 -14.84375 24.75 -17.8125 
Q 21.140625 -20.796875 15.09375 -20.796875 
L 7.90625 -20.796875 
L 7.90625 -13.28125 
L 13.1875 -13.28125 
Q 16.890625 -13.28125 18.9375 -11.515625 
Q 21 -9.765625 23.484375 -3.21875 
L 25.09375 0.875 
L 2.984375 54.6875 
L 12.5 54.6875 
L 29.59375 11.921875 
L 46.6875 54.6875 
L 56.203125 54.6875 
z
" id="DejaVuSans-121"/>
      <path d="M 44.28125 53.078125 
L 44.28125 44.578125 
Q 40.484375 46.53125 36.375 47.5 
Q 32.28125 48.484375 27.875 48.484375 
Q 21.1875 48.484375 17.84375 46.4375 
Q 14.5 44.390625 14.5 40.28125 
Q 14.5 37.15625 16.890625 35.375 
Q 19.28125 33.59375 26.515625 31.984375 
L 29.59375 31.296875 
Q 39.15625 29.25 43.1875 25.515625 
Q 47.21875 21.78125 47.21875 15.09375 
Q 47.21875 7.46875 41.1875 3.015625 
Q 35.15625 -1.421875 24.609375 -1.421875 
Q 20.21875 -1.421875 15.453125 -0.5625 
Q 10.6875 0.296875 5.421875 2 
L 5.421875 11.28125 
Q 10.40625 8.6875 15.234375 7.390625 
Q 20.0625 6.109375 24.8125 6.109375 
Q 31.15625 6.109375 34.5625 8.28125 
Q 37.984375 10.453125 37.984375 14.40625 
Q 37.984375 18.0625 35.515625 20.015625 
Q 33.0625 21.96875 24.703125 23.78125 
L 21.578125 24.515625 
Q 13.234375 26.265625 9.515625 29.90625 
Q 5.8125 33.546875 5.8125 39.890625 
Q 5.8125 47.609375 11.28125 51.796875 
Q 16.75 56 26.8125 56 
Q 31.78125 56 36.171875 55.265625 
Q 40.578125 54.546875 44.28125 53.078125 
z
" id="DejaVuSans-115"/>
      <path d="M 8.015625 75.875 
L 15.828125 75.875 
Q 23.140625 64.359375 26.78125 53.3125 
Q 30.421875 42.28125 30.421875 31.390625 
Q 30.421875 20.453125 26.78125 9.375 
Q 23.140625 -1.703125 15.828125 -13.1875 
L 8.015625 -13.1875 
Q 14.5 -2 17.703125 9.0625 
Q 20.90625 20.125 20.90625 31.390625 
Q 20.90625 42.671875 17.703125 53.65625 
Q 14.5 64.65625 8.015625 75.875 
z
" id="DejaVuSans-41"/>
     </defs>
     <g transform="translate(321.595312 68.438437)scale(0.1 -0.1)">
      <use xlink:href="#DejaVuSans-67"/>
      <use x="69.824219" xlink:href="#DejaVuSans-111"/>
      <use x="131.005859" xlink:href="#DejaVuSans-110"/>
      <use x="194.384766" xlink:href="#DejaVuSans-102"/>
      <use x="229.589844" xlink:href="#DejaVuSans-105"/>
      <use x="257.373047" xlink:href="#DejaVuSans-114"/>
      <use x="296.736328" xlink:href="#DejaVuSans-109"/>
      <use x="394.148438" xlink:href="#DejaVuSans-101"/>
      <use x="455.671875" xlink:href="#DejaVuSans-100"/>
      <use x="519.148438" xlink:href="#DejaVuSans-32"/>
      <use x="550.935547" xlink:href="#DejaVuSans-71"/>
      <use x="628.425781" xlink:href="#DejaVuSans-114"/>
      <use x="667.289062" xlink:href="#DejaVuSans-111"/>
      <use x="728.470703" xlink:href="#DejaVuSans-119"/>
      <use x="810.257812" xlink:href="#DejaVuSans-116"/>
      <use x="849.466797" xlink:href="#DejaVuSans-104"/>
      <use x="912.845703" xlink:href="#DejaVuSans-32"/>
      <use x="944.632812" xlink:href="#DejaVuSans-82"/>
      <use x="1011.865234" xlink:href="#DejaVuSans-97"/>
      <use x="1073.144531" xlink:href="#DejaVuSans-116"/>
      <use x="1112.353516" xlink:href="#DejaVuSans-101"/>
      <use x="1173.876953" xlink:href="#DejaVuSans-32"/>
      <use x="1205.664062" xlink:href="#DejaVuSans-40"/>
      <use x="1244.677734" xlink:href="#DejaVuSans-111"/>
      <use x="1305.859375" xlink:href="#DejaVuSans-118"/>
      <use x="1365.039062" xlink:href="#DejaVuSans-101"/>
      <use x="1426.5625" xlink:href="#DejaVuSans-114"/>
      <use x="1467.675781" xlink:href="#DejaVuSans-32"/>
      <use x="1499.462891" xlink:href="#DejaVuSans-55"/>
      <use x="1563.085938" xlink:href="#DejaVuSans-32"/>
      <use x="1594.873047" xlink:href="#DejaVuSans-100"/>
      <use x="1658.349609" xlink:href="#DejaVuSans-97"/>
      <use x="1719.628906" xlink:href="#DejaVuSans-121"/>
      <use x="1778.808594" xlink:href="#DejaVuSans-115"/>
      <use x="1830.908203" xlink:href="#DejaVuSans-41"/>
     </g>
    </g>
    <g id="line2d_16">
     <path d="M 293.595312 79.616562 
L 313.595312 79.616562 
" style="fill:none;stroke:#ff7f0e;stroke-linecap:square;stroke-width:1.5;"/>
    </g>
    <g id="line2d_17"/>
    <g id="text_16">
     <!-- Recovered Growth Rate (over 7 days) -->
     <defs>
      <path d="M 48.78125 52.59375 
L 48.78125 44.1875 
Q 44.96875 46.296875 41.140625 47.34375 
Q 37.3125 48.390625 33.40625 48.390625 
Q 24.65625 48.390625 19.8125 42.84375 
Q 14.984375 37.3125 14.984375 27.296875 
Q 14.984375 17.28125 19.8125 11.734375 
Q 24.65625 6.203125 33.40625 6.203125 
Q 37.3125 6.203125 41.140625 7.25 
Q 44.96875 8.296875 48.78125 10.40625 
L 48.78125 2.09375 
Q 45.015625 0.34375 40.984375 -0.53125 
Q 36.96875 -1.421875 32.421875 -1.421875 
Q 20.0625 -1.421875 12.78125 6.34375 
Q 5.515625 14.109375 5.515625 27.296875 
Q 5.515625 40.671875 12.859375 48.328125 
Q 20.21875 56 33.015625 56 
Q 37.15625 56 41.109375 55.140625 
Q 45.0625 54.296875 48.78125 52.59375 
z
" id="DejaVuSans-99"/>
     </defs>
     <g transform="translate(321.595312 83.116562)scale(0.1 -0.1)">
      <use xlink:href="#DejaVuSans-82"/>
      <use x="64.982422" xlink:href="#DejaVuSans-101"/>
      <use x="126.505859" xlink:href="#DejaVuSans-99"/>
      <use x="181.486328" xlink:href="#DejaVuSans-111"/>
      <use x="242.667969" xlink:href="#DejaVuSans-118"/>
      <use x="301.847656" xlink:href="#DejaVuSans-101"/>
      <use x="363.371094" xlink:href="#DejaVuSans-114"/>
      <use x="402.234375" xlink:href="#DejaVuSans-101"/>
      <use x="463.757812" xlink:href="#DejaVuSans-100"/>
      <use x="527.234375" xlink:href="#DejaVuSans-32"/>
      <use x="559.021484" xlink:href="#DejaVuSans-71"/>
      <use x="636.511719" xlink:href="#DejaVuSans-114"/>
      <use x="675.375" xlink:href="#DejaVuSans-111"/>
      <use x="736.556641" xlink:href="#DejaVuSans-119"/>
      <use x="818.34375" xlink:href="#DejaVuSans-116"/>
      <use x="857.552734" xlink:href="#DejaVuSans-104"/>
      <use x="920.931641" xlink:href="#DejaVuSans-32"/>
      <use x="952.71875" xlink:href="#DejaVuSans-82"/>
      <use x="1019.951172" xlink:href="#DejaVuSans-97"/>
      <use x="1081.230469" xlink:href="#DejaVuSans-116"/>
      <use x="1120.439453" xlink:href="#DejaVuSans-101"/>
      <use x="1181.962891" xlink:href="#DejaVuSans-32"/>
      <use x="1213.75" xlink:href="#DejaVuSans-40"/>
      <use x="1252.763672" xlink:href="#DejaVuSans-111"/>
      <use x="1313.945312" xlink:href="#DejaVuSans-118"/>
      <use x="1373.125" xlink:href="#DejaVuSans-101"/>
      <use x="1434.648438" xlink:href="#DejaVuSans-114"/>
      <use x="1475.761719" xlink:href="#DejaVuSans-32"/>
      <use x="1507.548828" xlink:href="#DejaVuSans-55"/>
      <use x="1571.171875" xlink:href="#DejaVuSans-32"/>
      <use x="1602.958984" xlink:href="#DejaVuSans-100"/>
      <use x="1666.435547" xlink:href="#DejaVuSans-97"/>
      <use x="1727.714844" xlink:href="#DejaVuSans-121"/>
      <use x="1786.894531" xlink:href="#DejaVuSans-115"/>
      <use x="1838.994141" xlink:href="#DejaVuSans-41"/>
     </g>
    </g>
   </g>
  </g>
 </g>
 <defs>
  <clipPath id="pd73f4ade5e">
   <rect height="332.64" width="446.4" x="72" y="51.84"/>
  </clipPath>
 </defs>
</svg>
