<?xml version="1.0" encoding="utf-8" standalone="no"?>
<!DOCTYPE svg PUBLIC "-//W3C//DTD SVG 1.1//EN"
  "http://www.w3.org/Graphics/SVG/1.1/DTD/svg11.dtd">
<!-- Created with matplotlib (https://matplotlib.org/) -->
<svg height="432pt" version="1.1" viewBox="0 0 576 432" width="576pt" xmlns="http://www.w3.org/2000/svg" xmlns:xlink="http://www.w3.org/1999/xlink">
 <defs>
  <style type="text/css">
*{stroke-linecap:butt;stroke-linejoin:round;}
  </style>
 </defs>
 <g id="figure_1">
  <g id="patch_1">
   <path d="M 0 432 
L 576 432 
L 576 0 
L 0 0 
z
" style="fill:#ffffff;"/>
  </g>
  <g id="axes_1">
   <g id="patch_2">
    <path d="M 72 384.48 
L 518.4 384.48 
L 518.4 51.84 
L 72 51.84 
z
" style="fill:#ffffff;"/>
   </g>
   <g id="matplotlib.axis_1">
    <g id="xtick_1">
     <g id="line2d_1">
      <defs>
       <path d="M 0 0 
L 0 3.5 
" id="mc31f6bb79e" style="stroke:#000000;stroke-width:0.8;"/>
      </defs>
      <g>
       <use style="stroke:#000000;stroke-width:0.8;" x="84.561039" xlink:href="#mc31f6bb79e" y="384.48"/>
      </g>
     </g>
     <g id="text_1">
      <!-- 2020-04 -->
      <defs>
       <path d="M 19.1875 8.296875 
L 53.609375 8.296875 
L 53.609375 0 
L 7.328125 0 
L 7.328125 8.296875 
Q 12.9375 14.109375 22.625 23.890625 
Q 32.328125 33.6875 34.8125 36.53125 
Q 39.546875 41.84375 41.421875 45.53125 
Q 43.3125 49.21875 43.3125 52.78125 
Q 43.3125 58.59375 39.234375 62.25 
Q 35.15625 65.921875 28.609375 65.921875 
Q 23.96875 65.921875 18.8125 64.3125 
Q 13.671875 62.703125 7.8125 59.421875 
L 7.8125 69.390625 
Q 13.765625 71.78125 18.9375 73 
Q 24.125 74.21875 28.421875 74.21875 
Q 39.75 74.21875 46.484375 68.546875 
Q 53.21875 62.890625 53.21875 53.421875 
Q 53.21875 48.921875 51.53125 44.890625 
Q 49.859375 40.875 45.40625 35.40625 
Q 44.1875 33.984375 37.640625 27.21875 
Q 31.109375 20.453125 19.1875 8.296875 
z
" id="DejaVuSans-50"/>
       <path d="M 31.78125 66.40625 
Q 24.171875 66.40625 20.328125 58.90625 
Q 16.5 51.421875 16.5 36.375 
Q 16.5 21.390625 20.328125 13.890625 
Q 24.171875 6.390625 31.78125 6.390625 
Q 39.453125 6.390625 43.28125 13.890625 
Q 47.125 21.390625 47.125 36.375 
Q 47.125 51.421875 43.28125 58.90625 
Q 39.453125 66.40625 31.78125 66.40625 
z
M 31.78125 74.21875 
Q 44.046875 74.21875 50.515625 64.515625 
Q 56.984375 54.828125 56.984375 36.375 
Q 56.984375 17.96875 50.515625 8.265625 
Q 44.046875 -1.421875 31.78125 -1.421875 
Q 19.53125 -1.421875 13.0625 8.265625 
Q 6.59375 17.96875 6.59375 36.375 
Q 6.59375 54.828125 13.0625 64.515625 
Q 19.53125 74.21875 31.78125 74.21875 
z
" id="DejaVuSans-48"/>
       <path d="M 4.890625 31.390625 
L 31.203125 31.390625 
L 31.203125 23.390625 
L 4.890625 23.390625 
z
" id="DejaVuSans-45"/>
       <path d="M 37.796875 64.3125 
L 12.890625 25.390625 
L 37.796875 25.390625 
z
M 35.203125 72.90625 
L 47.609375 72.90625 
L 47.609375 25.390625 
L 58.015625 25.390625 
L 58.015625 17.1875 
L 47.609375 17.1875 
L 47.609375 0 
L 37.796875 0 
L 37.796875 17.1875 
L 4.890625 17.1875 
L 4.890625 26.703125 
z
" id="DejaVuSans-52"/>
      </defs>
      <g transform="translate(63.669633 399.078438)scale(0.1 -0.1)">
       <use xlink:href="#DejaVuSans-50"/>
       <use x="63.623047" xlink:href="#DejaVuSans-48"/>
       <use x="127.246094" xlink:href="#DejaVuSans-50"/>
       <use x="190.869141" xlink:href="#DejaVuSans-48"/>
       <use x="254.492188" xlink:href="#DejaVuSans-45"/>
       <use x="290.576172" xlink:href="#DejaVuSans-48"/>
       <use x="354.199219" xlink:href="#DejaVuSans-52"/>
      </g>
     </g>
    </g>
    <g id="xtick_2">
     <g id="line2d_2">
      <g>
       <use style="stroke:#000000;stroke-width:0.8;" x="123.21039" xlink:href="#mc31f6bb79e" y="384.48"/>
      </g>
     </g>
     <g id="text_2">
      <!-- 2020-05 -->
      <defs>
       <path d="M 10.796875 72.90625 
L 49.515625 72.90625 
L 49.515625 64.59375 
L 19.828125 64.59375 
L 19.828125 46.734375 
Q 21.96875 47.46875 24.109375 47.828125 
Q 26.265625 48.1875 28.421875 48.1875 
Q 40.625 48.1875 47.75 41.5 
Q 54.890625 34.8125 54.890625 23.390625 
Q 54.890625 11.625 47.5625 5.09375 
Q 40.234375 -1.421875 26.90625 -1.421875 
Q 22.3125 -1.421875 17.546875 -0.640625 
Q 12.796875 0.140625 7.71875 1.703125 
L 7.71875 11.625 
Q 12.109375 9.234375 16.796875 8.0625 
Q 21.484375 6.890625 26.703125 6.890625 
Q 35.15625 6.890625 40.078125 11.328125 
Q 45.015625 15.765625 45.015625 23.390625 
Q 45.015625 31 40.078125 35.4375 
Q 35.15625 39.890625 26.703125 39.890625 
Q 22.75 39.890625 18.8125 39.015625 
Q 14.890625 38.140625 10.796875 36.28125 
z
" id="DejaVuSans-53"/>
      </defs>
      <g transform="translate(102.318983 399.078438)scale(0.1 -0.1)">
       <use xlink:href="#DejaVuSans-50"/>
       <use x="63.623047" xlink:href="#DejaVuSans-48"/>
       <use x="127.246094" xlink:href="#DejaVuSans-50"/>
       <use x="190.869141" xlink:href="#DejaVuSans-48"/>
       <use x="254.492188" xlink:href="#DejaVuSans-45"/>
       <use x="290.576172" xlink:href="#DejaVuSans-48"/>
       <use x="354.199219" xlink:href="#DejaVuSans-53"/>
      </g>
     </g>
    </g>
    <g id="xtick_3">
     <g id="line2d_3">
      <g>
       <use style="stroke:#000000;stroke-width:0.8;" x="163.148052" xlink:href="#mc31f6bb79e" y="384.48"/>
      </g>
     </g>
     <g id="text_3">
      <!-- 2020-06 -->
      <defs>
       <path d="M 33.015625 40.375 
Q 26.375 40.375 22.484375 35.828125 
Q 18.609375 31.296875 18.609375 23.390625 
Q 18.609375 15.53125 22.484375 10.953125 
Q 26.375 6.390625 33.015625 6.390625 
Q 39.65625 6.390625 43.53125 10.953125 
Q 47.40625 15.53125 47.40625 23.390625 
Q 47.40625 31.296875 43.53125 35.828125 
Q 39.65625 40.375 33.015625 40.375 
z
M 52.59375 71.296875 
L 52.59375 62.3125 
Q 48.875 64.0625 45.09375 64.984375 
Q 41.3125 65.921875 37.59375 65.921875 
Q 27.828125 65.921875 22.671875 59.328125 
Q 17.53125 52.734375 16.796875 39.40625 
Q 19.671875 43.65625 24.015625 45.921875 
Q 28.375 48.1875 33.59375 48.1875 
Q 44.578125 48.1875 50.953125 41.515625 
Q 57.328125 34.859375 57.328125 23.390625 
Q 57.328125 12.15625 50.6875 5.359375 
Q 44.046875 -1.421875 33.015625 -1.421875 
Q 20.359375 -1.421875 13.671875 8.265625 
Q 6.984375 17.96875 6.984375 36.375 
Q 6.984375 53.65625 15.1875 63.9375 
Q 23.390625 74.21875 37.203125 74.21875 
Q 40.921875 74.21875 44.703125 73.484375 
Q 48.484375 72.75 52.59375 71.296875 
z
" id="DejaVuSans-54"/>
      </defs>
      <g transform="translate(142.256646 399.078438)scale(0.1 -0.1)">
       <use xlink:href="#DejaVuSans-50"/>
       <use x="63.623047" xlink:href="#DejaVuSans-48"/>
       <use x="127.246094" xlink:href="#DejaVuSans-50"/>
       <use x="190.869141" xlink:href="#DejaVuSans-48"/>
       <use x="254.492188" xlink:href="#DejaVuSans-45"/>
       <use x="290.576172" xlink:href="#DejaVuSans-48"/>
       <use x="354.199219" xlink:href="#DejaVuSans-54"/>
      </g>
     </g>
    </g>
    <g id="xtick_4">
     <g id="line2d_4">
      <g>
       <use style="stroke:#000000;stroke-width:0.8;" x="201.797403" xlink:href="#mc31f6bb79e" y="384.48"/>
      </g>
     </g>
     <g id="text_4">
      <!-- 2020-07 -->
      <defs>
       <path d="M 8.203125 72.90625 
L 55.078125 72.90625 
L 55.078125 68.703125 
L 28.609375 0 
L 18.3125 0 
L 43.21875 64.59375 
L 8.203125 64.59375 
z
" id="DejaVuSans-55"/>
      </defs>
      <g transform="translate(180.905996 399.078438)scale(0.1 -0.1)">
       <use xlink:href="#DejaVuSans-50"/>
       <use x="63.623047" xlink:href="#DejaVuSans-48"/>
       <use x="127.246094" xlink:href="#DejaVuSans-50"/>
       <use x="190.869141" xlink:href="#DejaVuSans-48"/>
       <use x="254.492188" xlink:href="#DejaVuSans-45"/>
       <use x="290.576172" xlink:href="#DejaVuSans-48"/>
       <use x="354.199219" xlink:href="#DejaVuSans-55"/>
      </g>
     </g>
    </g>
    <g id="xtick_5">
     <g id="line2d_5">
      <g>
       <use style="stroke:#000000;stroke-width:0.8;" x="241.735065" xlink:href="#mc31f6bb79e" y="384.48"/>
      </g>
     </g>
     <g id="text_5">
      <!-- 2020-08 -->
      <defs>
       <path d="M 31.78125 34.625 
Q 24.75 34.625 20.71875 30.859375 
Q 16.703125 27.09375 16.703125 20.515625 
Q 16.703125 13.921875 20.71875 10.15625 
Q 24.75 6.390625 31.78125 6.390625 
Q 38.8125 6.390625 42.859375 10.171875 
Q 46.921875 13.96875 46.921875 20.515625 
Q 46.921875 27.09375 42.890625 30.859375 
Q 38.875 34.625 31.78125 34.625 
z
M 21.921875 38.8125 
Q 15.578125 40.375 12.03125 44.71875 
Q 8.5 49.078125 8.5 55.328125 
Q 8.5 64.0625 14.71875 69.140625 
Q 20.953125 74.21875 31.78125 74.21875 
Q 42.671875 74.21875 48.875 69.140625 
Q 55.078125 64.0625 55.078125 55.328125 
Q 55.078125 49.078125 51.53125 44.71875 
Q 48 40.375 41.703125 38.8125 
Q 48.828125 37.15625 52.796875 32.3125 
Q 56.78125 27.484375 56.78125 20.515625 
Q 56.78125 9.90625 50.3125 4.234375 
Q 43.84375 -1.421875 31.78125 -1.421875 
Q 19.734375 -1.421875 13.25 4.234375 
Q 6.78125 9.90625 6.78125 20.515625 
Q 6.78125 27.484375 10.78125 32.3125 
Q 14.796875 37.15625 21.921875 38.8125 
z
M 18.3125 54.390625 
Q 18.3125 48.734375 21.84375 45.5625 
Q 25.390625 42.390625 31.78125 42.390625 
Q 38.140625 42.390625 41.71875 45.5625 
Q 45.3125 48.734375 45.3125 54.390625 
Q 45.3125 60.0625 41.71875 63.234375 
Q 38.140625 66.40625 31.78125 66.40625 
Q 25.390625 66.40625 21.84375 63.234375 
Q 18.3125 60.0625 18.3125 54.390625 
z
" id="DejaVuSans-56"/>
      </defs>
      <g transform="translate(220.843659 399.078438)scale(0.1 -0.1)">
       <use xlink:href="#DejaVuSans-50"/>
       <use x="63.623047" xlink:href="#DejaVuSans-48"/>
       <use x="127.246094" xlink:href="#DejaVuSans-50"/>
       <use x="190.869141" xlink:href="#DejaVuSans-48"/>
       <use x="254.492188" xlink:href="#DejaVuSans-45"/>
       <use x="290.576172" xlink:href="#DejaVuSans-48"/>
       <use x="354.199219" xlink:href="#DejaVuSans-56"/>
      </g>
     </g>
    </g>
    <g id="xtick_6">
     <g id="line2d_6">
      <g>
       <use style="stroke:#000000;stroke-width:0.8;" x="281.672727" xlink:href="#mc31f6bb79e" y="384.48"/>
      </g>
     </g>
     <g id="text_6">
      <!-- 2020-09 -->
      <defs>
       <path d="M 10.984375 1.515625 
L 10.984375 10.5 
Q 14.703125 8.734375 18.5 7.8125 
Q 22.3125 6.890625 25.984375 6.890625 
Q 35.75 6.890625 40.890625 13.453125 
Q 46.046875 20.015625 46.78125 33.40625 
Q 43.953125 29.203125 39.59375 26.953125 
Q 35.25 24.703125 29.984375 24.703125 
Q 19.046875 24.703125 12.671875 31.3125 
Q 6.296875 37.9375 6.296875 49.421875 
Q 6.296875 60.640625 12.9375 67.421875 
Q 19.578125 74.21875 30.609375 74.21875 
Q 43.265625 74.21875 49.921875 64.515625 
Q 56.59375 54.828125 56.59375 36.375 
Q 56.59375 19.140625 48.40625 8.859375 
Q 40.234375 -1.421875 26.421875 -1.421875 
Q 22.703125 -1.421875 18.890625 -0.6875 
Q 15.09375 0.046875 10.984375 1.515625 
z
M 30.609375 32.421875 
Q 37.25 32.421875 41.125 36.953125 
Q 45.015625 41.5 45.015625 49.421875 
Q 45.015625 57.28125 41.125 61.84375 
Q 37.25 66.40625 30.609375 66.40625 
Q 23.96875 66.40625 20.09375 61.84375 
Q 16.21875 57.28125 16.21875 49.421875 
Q 16.21875 41.5 20.09375 36.953125 
Q 23.96875 32.421875 30.609375 32.421875 
z
" id="DejaVuSans-57"/>
      </defs>
      <g transform="translate(260.781321 399.078438)scale(0.1 -0.1)">
       <use xlink:href="#DejaVuSans-50"/>
       <use x="63.623047" xlink:href="#DejaVuSans-48"/>
       <use x="127.246094" xlink:href="#DejaVuSans-50"/>
       <use x="190.869141" xlink:href="#DejaVuSans-48"/>
       <use x="254.492188" xlink:href="#DejaVuSans-45"/>
       <use x="290.576172" xlink:href="#DejaVuSans-48"/>
       <use x="354.199219" xlink:href="#DejaVuSans-57"/>
      </g>
     </g>
    </g>
    <g id="xtick_7">
     <g id="line2d_7">
      <g>
       <use style="stroke:#000000;stroke-width:0.8;" x="320.322078" xlink:href="#mc31f6bb79e" y="384.48"/>
      </g>
     </g>
     <g id="text_7">
      <!-- 2020-10 -->
      <defs>
       <path d="M 12.40625 8.296875 
L 28.515625 8.296875 
L 28.515625 63.921875 
L 10.984375 60.40625 
L 10.984375 69.390625 
L 28.421875 72.90625 
L 38.28125 72.90625 
L 38.28125 8.296875 
L 54.390625 8.296875 
L 54.390625 0 
L 12.40625 0 
z
" id="DejaVuSans-49"/>
      </defs>
      <g transform="translate(299.430672 399.078438)scale(0.1 -0.1)">
       <use xlink:href="#DejaVuSans-50"/>
       <use x="63.623047" xlink:href="#DejaVuSans-48"/>
       <use x="127.246094" xlink:href="#DejaVuSans-50"/>
       <use x="190.869141" xlink:href="#DejaVuSans-48"/>
       <use x="254.492188" xlink:href="#DejaVuSans-45"/>
       <use x="290.576172" xlink:href="#DejaVuSans-49"/>
       <use x="354.199219" xlink:href="#DejaVuSans-48"/>
      </g>
     </g>
    </g>
    <g id="xtick_8">
     <g id="line2d_8">
      <g>
       <use style="stroke:#000000;stroke-width:0.8;" x="360.25974" xlink:href="#mc31f6bb79e" y="384.48"/>
      </g>
     </g>
     <g id="text_8">
      <!-- 2020-11 -->
      <g transform="translate(339.368334 399.078438)scale(0.1 -0.1)">
       <use xlink:href="#DejaVuSans-50"/>
       <use x="63.623047" xlink:href="#DejaVuSans-48"/>
       <use x="127.246094" xlink:href="#DejaVuSans-50"/>
       <use x="190.869141" xlink:href="#DejaVuSans-48"/>
       <use x="254.492188" xlink:href="#DejaVuSans-45"/>
       <use x="290.576172" xlink:href="#DejaVuSans-49"/>
       <use x="354.199219" xlink:href="#DejaVuSans-49"/>
      </g>
     </g>
    </g>
    <g id="xtick_9">
     <g id="line2d_9">
      <g>
       <use style="stroke:#000000;stroke-width:0.8;" x="398.909091" xlink:href="#mc31f6bb79e" y="384.48"/>
      </g>
     </g>
     <g id="text_9">
      <!-- 2020-12 -->
      <g transform="translate(378.017685 399.078438)scale(0.1 -0.1)">
       <use xlink:href="#DejaVuSans-50"/>
       <use x="63.623047" xlink:href="#DejaVuSans-48"/>
       <use x="127.246094" xlink:href="#DejaVuSans-50"/>
       <use x="190.869141" xlink:href="#DejaVuSans-48"/>
       <use x="254.492188" xlink:href="#DejaVuSans-45"/>
       <use x="290.576172" xlink:href="#DejaVuSans-49"/>
       <use x="354.199219" xlink:href="#DejaVuSans-50"/>
      </g>
     </g>
    </g>
    <g id="xtick_10">
     <g id="line2d_10">
      <g>
       <use style="stroke:#000000;stroke-width:0.8;" x="438.846753" xlink:href="#mc31f6bb79e" y="384.48"/>
      </g>
     </g>
     <g id="text_10">
      <!-- 2021-01 -->
      <g transform="translate(417.955347 399.078438)scale(0.1 -0.1)">
       <use xlink:href="#DejaVuSans-50"/>
       <use x="63.623047" xlink:href="#DejaVuSans-48"/>
       <use x="127.246094" xlink:href="#DejaVuSans-50"/>
       <use x="190.869141" xlink:href="#DejaVuSans-49"/>
       <use x="254.492188" xlink:href="#DejaVuSans-45"/>
       <use x="290.576172" xlink:href="#DejaVuSans-48"/>
       <use x="354.199219" xlink:href="#DejaVuSans-49"/>
      </g>
     </g>
    </g>
    <g id="xtick_11">
     <g id="line2d_11">
      <g>
       <use style="stroke:#000000;stroke-width:0.8;" x="478.784416" xlink:href="#mc31f6bb79e" y="384.48"/>
      </g>
     </g>
     <g id="text_11">
      <!-- 2021-02 -->
      <g transform="translate(457.893009 399.078438)scale(0.1 -0.1)">
       <use xlink:href="#DejaVuSans-50"/>
       <use x="63.623047" xlink:href="#DejaVuSans-48"/>
       <use x="127.246094" xlink:href="#DejaVuSans-50"/>
       <use x="190.869141" xlink:href="#DejaVuSans-49"/>
       <use x="254.492188" xlink:href="#DejaVuSans-45"/>
       <use x="290.576172" xlink:href="#DejaVuSans-48"/>
       <use x="354.199219" xlink:href="#DejaVuSans-50"/>
      </g>
     </g>
    </g>
    <g id="xtick_12">
     <g id="line2d_12">
      <g>
       <use style="stroke:#000000;stroke-width:0.8;" x="514.857143" xlink:href="#mc31f6bb79e" y="384.48"/>
      </g>
     </g>
     <g id="text_12">
      <!-- 2021-03 -->
      <defs>
       <path d="M 40.578125 39.3125 
Q 47.65625 37.796875 51.625 33 
Q 55.609375 28.21875 55.609375 21.1875 
Q 55.609375 10.40625 48.1875 4.484375 
Q 40.765625 -1.421875 27.09375 -1.421875 
Q 22.515625 -1.421875 17.65625 -0.515625 
Q 12.796875 0.390625 7.625 2.203125 
L 7.625 11.71875 
Q 11.71875 9.328125 16.59375 8.109375 
Q 21.484375 6.890625 26.8125 6.890625 
Q 36.078125 6.890625 40.9375 10.546875 
Q 45.796875 14.203125 45.796875 21.1875 
Q 45.796875 27.640625 41.28125 31.265625 
Q 36.765625 34.90625 28.71875 34.90625 
L 20.21875 34.90625 
L 20.21875 43.015625 
L 29.109375 43.015625 
Q 36.375 43.015625 40.234375 45.921875 
Q 44.09375 48.828125 44.09375 54.296875 
Q 44.09375 59.90625 40.109375 62.90625 
Q 36.140625 65.921875 28.71875 65.921875 
Q 24.65625 65.921875 20.015625 65.03125 
Q 15.375 64.15625 9.8125 62.3125 
L 9.8125 71.09375 
Q 15.4375 72.65625 20.34375 73.4375 
Q 25.25 74.21875 29.59375 74.21875 
Q 40.828125 74.21875 47.359375 69.109375 
Q 53.90625 64.015625 53.90625 55.328125 
Q 53.90625 49.265625 50.4375 45.09375 
Q 46.96875 40.921875 40.578125 39.3125 
z
" id="DejaVuSans-51"/>
      </defs>
      <g transform="translate(493.965737 399.078438)scale(0.1 -0.1)">
       <use xlink:href="#DejaVuSans-50"/>
       <use x="63.623047" xlink:href="#DejaVuSans-48"/>
       <use x="127.246094" xlink:href="#DejaVuSans-50"/>
       <use x="190.869141" xlink:href="#DejaVuSans-49"/>
       <use x="254.492188" xlink:href="#DejaVuSans-45"/>
       <use x="290.576172" xlink:href="#DejaVuSans-48"/>
       <use x="354.199219" xlink:href="#DejaVuSans-51"/>
      </g>
     </g>
    </g>
    <g id="text_13">
     <!-- Reported On -->
     <defs>
      <path d="M 44.390625 34.1875 
Q 47.5625 33.109375 50.5625 29.59375 
Q 53.5625 26.078125 56.59375 19.921875 
L 66.609375 0 
L 56 0 
L 46.6875 18.703125 
Q 43.0625 26.03125 39.671875 28.421875 
Q 36.28125 30.8125 30.421875 30.8125 
L 19.671875 30.8125 
L 19.671875 0 
L 9.8125 0 
L 9.8125 72.90625 
L 32.078125 72.90625 
Q 44.578125 72.90625 50.734375 67.671875 
Q 56.890625 62.453125 56.890625 51.90625 
Q 56.890625 45.015625 53.6875 40.46875 
Q 50.484375 35.9375 44.390625 34.1875 
z
M 19.671875 64.796875 
L 19.671875 38.921875 
L 32.078125 38.921875 
Q 39.203125 38.921875 42.84375 42.21875 
Q 46.484375 45.515625 46.484375 51.90625 
Q 46.484375 58.296875 42.84375 61.546875 
Q 39.203125 64.796875 32.078125 64.796875 
z
" id="DejaVuSans-82"/>
      <path d="M 56.203125 29.59375 
L 56.203125 25.203125 
L 14.890625 25.203125 
Q 15.484375 15.921875 20.484375 11.0625 
Q 25.484375 6.203125 34.421875 6.203125 
Q 39.59375 6.203125 44.453125 7.46875 
Q 49.3125 8.734375 54.109375 11.28125 
L 54.109375 2.78125 
Q 49.265625 0.734375 44.1875 -0.34375 
Q 39.109375 -1.421875 33.890625 -1.421875 
Q 20.796875 -1.421875 13.15625 6.1875 
Q 5.515625 13.8125 5.515625 26.8125 
Q 5.515625 40.234375 12.765625 48.109375 
Q 20.015625 56 32.328125 56 
Q 43.359375 56 49.78125 48.890625 
Q 56.203125 41.796875 56.203125 29.59375 
z
M 47.21875 32.234375 
Q 47.125 39.59375 43.09375 43.984375 
Q 39.0625 48.390625 32.421875 48.390625 
Q 24.90625 48.390625 20.390625 44.140625 
Q 15.875 39.890625 15.1875 32.171875 
z
" id="DejaVuSans-101"/>
      <path d="M 18.109375 8.203125 
L 18.109375 -20.796875 
L 9.078125 -20.796875 
L 9.078125 54.6875 
L 18.109375 54.6875 
L 18.109375 46.390625 
Q 20.953125 51.265625 25.265625 53.625 
Q 29.59375 56 35.59375 56 
Q 45.5625 56 51.78125 48.09375 
Q 58.015625 40.1875 58.015625 27.296875 
Q 58.015625 14.40625 51.78125 6.484375 
Q 45.5625 -1.421875 35.59375 -1.421875 
Q 29.59375 -1.421875 25.265625 0.953125 
Q 20.953125 3.328125 18.109375 8.203125 
z
M 48.6875 27.296875 
Q 48.6875 37.203125 44.609375 42.84375 
Q 40.53125 48.484375 33.40625 48.484375 
Q 26.265625 48.484375 22.1875 42.84375 
Q 18.109375 37.203125 18.109375 27.296875 
Q 18.109375 17.390625 22.1875 11.75 
Q 26.265625 6.109375 33.40625 6.109375 
Q 40.53125 6.109375 44.609375 11.75 
Q 48.6875 17.390625 48.6875 27.296875 
z
" id="DejaVuSans-112"/>
      <path d="M 30.609375 48.390625 
Q 23.390625 48.390625 19.1875 42.75 
Q 14.984375 37.109375 14.984375 27.296875 
Q 14.984375 17.484375 19.15625 11.84375 
Q 23.34375 6.203125 30.609375 6.203125 
Q 37.796875 6.203125 41.984375 11.859375 
Q 46.1875 17.53125 46.1875 27.296875 
Q 46.1875 37.015625 41.984375 42.703125 
Q 37.796875 48.390625 30.609375 48.390625 
z
M 30.609375 56 
Q 42.328125 56 49.015625 48.375 
Q 55.71875 40.765625 55.71875 27.296875 
Q 55.71875 13.875 49.015625 6.21875 
Q 42.328125 -1.421875 30.609375 -1.421875 
Q 18.84375 -1.421875 12.171875 6.21875 
Q 5.515625 13.875 5.515625 27.296875 
Q 5.515625 40.765625 12.171875 48.375 
Q 18.84375 56 30.609375 56 
z
" id="DejaVuSans-111"/>
      <path d="M 41.109375 46.296875 
Q 39.59375 47.171875 37.8125 47.578125 
Q 36.03125 48 33.890625 48 
Q 26.265625 48 22.1875 43.046875 
Q 18.109375 38.09375 18.109375 28.8125 
L 18.109375 0 
L 9.078125 0 
L 9.078125 54.6875 
L 18.109375 54.6875 
L 18.109375 46.1875 
Q 20.953125 51.171875 25.484375 53.578125 
Q 30.03125 56 36.53125 56 
Q 37.453125 56 38.578125 55.875 
Q 39.703125 55.765625 41.0625 55.515625 
z
" id="DejaVuSans-114"/>
      <path d="M 18.3125 70.21875 
L 18.3125 54.6875 
L 36.8125 54.6875 
L 36.8125 47.703125 
L 18.3125 47.703125 
L 18.3125 18.015625 
Q 18.3125 11.328125 20.140625 9.421875 
Q 21.96875 7.515625 27.59375 7.515625 
L 36.8125 7.515625 
L 36.8125 0 
L 27.59375 0 
Q 17.1875 0 13.234375 3.875 
Q 9.28125 7.765625 9.28125 18.015625 
L 9.28125 47.703125 
L 2.6875 47.703125 
L 2.6875 54.6875 
L 9.28125 54.6875 
L 9.28125 70.21875 
z
" id="DejaVuSans-116"/>
      <path d="M 45.40625 46.390625 
L 45.40625 75.984375 
L 54.390625 75.984375 
L 54.390625 0 
L 45.40625 0 
L 45.40625 8.203125 
Q 42.578125 3.328125 38.25 0.953125 
Q 33.9375 -1.421875 27.875 -1.421875 
Q 17.96875 -1.421875 11.734375 6.484375 
Q 5.515625 14.40625 5.515625 27.296875 
Q 5.515625 40.1875 11.734375 48.09375 
Q 17.96875 56 27.875 56 
Q 33.9375 56 38.25 53.625 
Q 42.578125 51.265625 45.40625 46.390625 
z
M 14.796875 27.296875 
Q 14.796875 17.390625 18.875 11.75 
Q 22.953125 6.109375 30.078125 6.109375 
Q 37.203125 6.109375 41.296875 11.75 
Q 45.40625 17.390625 45.40625 27.296875 
Q 45.40625 37.203125 41.296875 42.84375 
Q 37.203125 48.484375 30.078125 48.484375 
Q 22.953125 48.484375 18.875 42.84375 
Q 14.796875 37.203125 14.796875 27.296875 
z
" id="DejaVuSans-100"/>
      <path id="DejaVuSans-32"/>
      <path d="M 39.40625 66.21875 
Q 28.65625 66.21875 22.328125 58.203125 
Q 16.015625 50.203125 16.015625 36.375 
Q 16.015625 22.609375 22.328125 14.59375 
Q 28.65625 6.59375 39.40625 6.59375 
Q 50.140625 6.59375 56.421875 14.59375 
Q 62.703125 22.609375 62.703125 36.375 
Q 62.703125 50.203125 56.421875 58.203125 
Q 50.140625 66.21875 39.40625 66.21875 
z
M 39.40625 74.21875 
Q 54.734375 74.21875 63.90625 63.9375 
Q 73.09375 53.65625 73.09375 36.375 
Q 73.09375 19.140625 63.90625 8.859375 
Q 54.734375 -1.421875 39.40625 -1.421875 
Q 24.03125 -1.421875 14.8125 8.828125 
Q 5.609375 19.09375 5.609375 36.375 
Q 5.609375 53.65625 14.8125 63.9375 
Q 24.03125 74.21875 39.40625 74.21875 
z
" id="DejaVuSans-79"/>
      <path d="M 54.890625 33.015625 
L 54.890625 0 
L 45.90625 0 
L 45.90625 32.71875 
Q 45.90625 40.484375 42.875 44.328125 
Q 39.84375 48.1875 33.796875 48.1875 
Q 26.515625 48.1875 22.3125 43.546875 
Q 18.109375 38.921875 18.109375 30.90625 
L 18.109375 0 
L 9.078125 0 
L 9.078125 54.6875 
L 18.109375 54.6875 
L 18.109375 46.1875 
Q 21.34375 51.125 25.703125 53.5625 
Q 30.078125 56 35.796875 56 
Q 45.21875 56 50.046875 50.171875 
Q 54.890625 44.34375 54.890625 33.015625 
z
" id="DejaVuSans-110"/>
     </defs>
     <g transform="translate(263.680469 412.756563)scale(0.1 -0.1)">
      <use xlink:href="#DejaVuSans-82"/>
      <use x="64.982422" xlink:href="#DejaVuSans-101"/>
      <use x="126.505859" xlink:href="#DejaVuSans-112"/>
      <use x="189.982422" xlink:href="#DejaVuSans-111"/>
      <use x="251.164062" xlink:href="#DejaVuSans-114"/>
      <use x="292.277344" xlink:href="#DejaVuSans-116"/>
      <use x="331.486328" xlink:href="#DejaVuSans-101"/>
      <use x="393.009766" xlink:href="#DejaVuSans-100"/>
      <use x="456.486328" xlink:href="#DejaVuSans-32"/>
      <use x="488.273438" xlink:href="#DejaVuSans-79"/>
      <use x="566.984375" xlink:href="#DejaVuSans-110"/>
     </g>
    </g>
   </g>
   <g id="matplotlib.axis_2">
    <g id="ytick_1">
     <g id="line2d_13">
      <defs>
       <path d="M 0 0 
L -3.5 0 
" id="made9fe9ed6" style="stroke:#000000;stroke-width:0.8;"/>
      </defs>
      <g>
       <use style="stroke:#000000;stroke-width:0.8;" x="72" xlink:href="#made9fe9ed6" y="369.754126"/>
      </g>
     </g>
     <g id="text_14">
      <!--   0 -->
      <g transform="translate(52.28125 373.553345)scale(0.1 -0.1)">
       <use xlink:href="#DejaVuSans-32"/>
       <use x="31.787109" xlink:href="#DejaVuSans-32"/>
       <use x="63.574219" xlink:href="#DejaVuSans-48"/>
      </g>
     </g>
    </g>
    <g id="ytick_2">
     <g id="line2d_14">
      <g>
       <use style="stroke:#000000;stroke-width:0.8;" x="72" xlink:href="#made9fe9ed6" y="304.960335"/>
      </g>
     </g>
     <g id="text_15">
      <!-- 500 -->
      <g transform="translate(45.9125 308.759553)scale(0.1 -0.1)">
       <use xlink:href="#DejaVuSans-53"/>
       <use x="63.623047" xlink:href="#DejaVuSans-48"/>
       <use x="127.246094" xlink:href="#DejaVuSans-48"/>
      </g>
     </g>
    </g>
    <g id="ytick_3">
     <g id="line2d_15">
      <g>
       <use style="stroke:#000000;stroke-width:0.8;" x="72" xlink:href="#made9fe9ed6" y="240.166543"/>
      </g>
     </g>
     <g id="text_16">
      <!-- 1000 -->
      <g transform="translate(39.55 243.965761)scale(0.1 -0.1)">
       <use xlink:href="#DejaVuSans-49"/>
       <use x="63.623047" xlink:href="#DejaVuSans-48"/>
       <use x="127.246094" xlink:href="#DejaVuSans-48"/>
       <use x="190.869141" xlink:href="#DejaVuSans-48"/>
      </g>
     </g>
    </g>
    <g id="ytick_4">
     <g id="line2d_16">
      <g>
       <use style="stroke:#000000;stroke-width:0.8;" x="72" xlink:href="#made9fe9ed6" y="175.372751"/>
      </g>
     </g>
     <g id="text_17">
      <!-- 1500 -->
      <g transform="translate(39.55 179.17197)scale(0.1 -0.1)">
       <use xlink:href="#DejaVuSans-49"/>
       <use x="63.623047" xlink:href="#DejaVuSans-53"/>
       <use x="127.246094" xlink:href="#DejaVuSans-48"/>
       <use x="190.869141" xlink:href="#DejaVuSans-48"/>
      </g>
     </g>
    </g>
    <g id="ytick_5">
     <g id="line2d_17">
      <g>
       <use style="stroke:#000000;stroke-width:0.8;" x="72" xlink:href="#made9fe9ed6" y="110.578959"/>
      </g>
     </g>
     <g id="text_18">
      <!-- 2000 -->
      <g transform="translate(39.55 114.378178)scale(0.1 -0.1)">
       <use xlink:href="#DejaVuSans-50"/>
       <use x="63.623047" xlink:href="#DejaVuSans-48"/>
       <use x="127.246094" xlink:href="#DejaVuSans-48"/>
       <use x="190.869141" xlink:href="#DejaVuSans-48"/>
      </g>
     </g>
    </g>
    <g id="text_19">
     <!-- Duration [days] -->
     <defs>
      <path d="M 19.671875 64.796875 
L 19.671875 8.109375 
L 31.59375 8.109375 
Q 46.6875 8.109375 53.6875 14.9375 
Q 60.6875 21.78125 60.6875 36.53125 
Q 60.6875 51.171875 53.6875 57.984375 
Q 46.6875 64.796875 31.59375 64.796875 
z
M 9.8125 72.90625 
L 30.078125 72.90625 
Q 51.265625 72.90625 61.171875 64.09375 
Q 71.09375 55.28125 71.09375 36.53125 
Q 71.09375 17.671875 61.125 8.828125 
Q 51.171875 0 30.078125 0 
L 9.8125 0 
z
" id="DejaVuSans-68"/>
      <path d="M 8.5 21.578125 
L 8.5 54.6875 
L 17.484375 54.6875 
L 17.484375 21.921875 
Q 17.484375 14.15625 20.5 10.265625 
Q 23.53125 6.390625 29.59375 6.390625 
Q 36.859375 6.390625 41.078125 11.03125 
Q 45.3125 15.671875 45.3125 23.6875 
L 45.3125 54.6875 
L 54.296875 54.6875 
L 54.296875 0 
L 45.3125 0 
L 45.3125 8.40625 
Q 42.046875 3.421875 37.71875 1 
Q 33.40625 -1.421875 27.6875 -1.421875 
Q 18.265625 -1.421875 13.375 4.4375 
Q 8.5 10.296875 8.5 21.578125 
z
M 31.109375 56 
z
" id="DejaVuSans-117"/>
      <path d="M 34.28125 27.484375 
Q 23.390625 27.484375 19.1875 25 
Q 14.984375 22.515625 14.984375 16.5 
Q 14.984375 11.71875 18.140625 8.90625 
Q 21.296875 6.109375 26.703125 6.109375 
Q 34.1875 6.109375 38.703125 11.40625 
Q 43.21875 16.703125 43.21875 25.484375 
L 43.21875 27.484375 
z
M 52.203125 31.203125 
L 52.203125 0 
L 43.21875 0 
L 43.21875 8.296875 
Q 40.140625 3.328125 35.546875 0.953125 
Q 30.953125 -1.421875 24.3125 -1.421875 
Q 15.921875 -1.421875 10.953125 3.296875 
Q 6 8.015625 6 15.921875 
Q 6 25.140625 12.171875 29.828125 
Q 18.359375 34.515625 30.609375 34.515625 
L 43.21875 34.515625 
L 43.21875 35.40625 
Q 43.21875 41.609375 39.140625 45 
Q 35.0625 48.390625 27.6875 48.390625 
Q 23 48.390625 18.546875 47.265625 
Q 14.109375 46.140625 10.015625 43.890625 
L 10.015625 52.203125 
Q 14.9375 54.109375 19.578125 55.046875 
Q 24.21875 56 28.609375 56 
Q 40.484375 56 46.34375 49.84375 
Q 52.203125 43.703125 52.203125 31.203125 
z
" id="DejaVuSans-97"/>
      <path d="M 9.421875 54.6875 
L 18.40625 54.6875 
L 18.40625 0 
L 9.421875 0 
z
M 9.421875 75.984375 
L 18.40625 75.984375 
L 18.40625 64.59375 
L 9.421875 64.59375 
z
" id="DejaVuSans-105"/>
      <path d="M 8.59375 75.984375 
L 29.296875 75.984375 
L 29.296875 69 
L 17.578125 69 
L 17.578125 -6.203125 
L 29.296875 -6.203125 
L 29.296875 -13.1875 
L 8.59375 -13.1875 
z
" id="DejaVuSans-91"/>
      <path d="M 32.171875 -5.078125 
Q 28.375 -14.84375 24.75 -17.8125 
Q 21.140625 -20.796875 15.09375 -20.796875 
L 7.90625 -20.796875 
L 7.90625 -13.28125 
L 13.1875 -13.28125 
Q 16.890625 -13.28125 18.9375 -11.515625 
Q 21 -9.765625 23.484375 -3.21875 
L 25.09375 0.875 
L 2.984375 54.6875 
L 12.5 54.6875 
L 29.59375 11.921875 
L 46.6875 54.6875 
L 56.203125 54.6875 
z
" id="DejaVuSans-121"/>
      <path d="M 44.28125 53.078125 
L 44.28125 44.578125 
Q 40.484375 46.53125 36.375 47.5 
Q 32.28125 48.484375 27.875 48.484375 
Q 21.1875 48.484375 17.84375 46.4375 
Q 14.5 44.390625 14.5 40.28125 
Q 14.5 37.15625 16.890625 35.375 
Q 19.28125 33.59375 26.515625 31.984375 
L 29.59375 31.296875 
Q 39.15625 29.25 43.1875 25.515625 
Q 47.21875 21.78125 47.21875 15.09375 
Q 47.21875 7.46875 41.1875 3.015625 
Q 35.15625 -1.421875 24.609375 -1.421875 
Q 20.21875 -1.421875 15.453125 -0.5625 
Q 10.6875 0.296875 5.421875 2 
L 5.421875 11.28125 
Q 10.40625 8.6875 15.234375 7.390625 
Q 20.0625 6.109375 24.8125 6.109375 
Q 31.15625 6.109375 34.5625 8.28125 
Q 37.984375 10.453125 37.984375 14.40625 
Q 37.984375 18.0625 35.515625 20.015625 
Q 33.0625 21.96875 24.703125 23.78125 
L 21.578125 24.515625 
Q 13.234375 26.265625 9.515625 29.90625 
Q 5.8125 33.546875 5.8125 39.890625 
Q 5.8125 47.609375 11.28125 51.796875 
Q 16.75 56 26.8125 56 
Q 31.78125 56 36.171875 55.265625 
Q 40.578125 54.546875 44.28125 53.078125 
z
" id="DejaVuSans-115"/>
      <path d="M 30.421875 75.984375 
L 30.421875 -13.1875 
L 9.71875 -13.1875 
L 9.71875 -6.203125 
L 21.390625 -6.203125 
L 21.390625 69 
L 9.71875 69 
L 9.71875 75.984375 
z
" id="DejaVuSans-93"/>
     </defs>
     <g transform="translate(33.470312 257.168594)rotate(-90)scale(0.1 -0.1)">
      <use xlink:href="#DejaVuSans-68"/>
      <use x="77.001953" xlink:href="#DejaVuSans-117"/>
      <use x="140.380859" xlink:href="#DejaVuSans-114"/>
      <use x="181.494141" xlink:href="#DejaVuSans-97"/>
      <use x="242.773438" xlink:href="#DejaVuSans-116"/>
      <use x="281.982422" xlink:href="#DejaVuSans-105"/>
      <use x="309.765625" xlink:href="#DejaVuSans-111"/>
      <use x="370.947266" xlink:href="#DejaVuSans-110"/>
      <use x="434.326172" xlink:href="#DejaVuSans-32"/>
      <use x="466.113281" xlink:href="#DejaVuSans-91"/>
      <use x="505.126953" xlink:href="#DejaVuSans-100"/>
      <use x="568.603516" xlink:href="#DejaVuSans-97"/>
      <use x="629.882812" xlink:href="#DejaVuSans-121"/>
      <use x="689.0625" xlink:href="#DejaVuSans-115"/>
      <use x="741.162109" xlink:href="#DejaVuSans-93"/>
     </g>
    </g>
   </g>
   <g id="line2d_18">
    <path clip-path="url(#p801b929148)" d="M 498.109091 269.814849 
L 496.820779 299.325236 
L 495.532468 303.287909 
L 494.244156 320.993614 
L 492.955844 328.645313 
L 491.667532 341.819239 
L 490.379221 347.032913 
L 489.090909 353.075775 
L 487.802597 354.655619 
L 486.514286 357.631236 
L 485.225974 360.307116 
L 483.937662 363.759962 
L 482.649351 364.774738 
L 481.361039 365.00743 
L 478.784416 365.074394 
L 477.496104 365.054725 
L 476.207792 364.593215 
L 474.919481 362.670322 
L 473.631169 359.760309 
L 472.342857 360.150041 
L 471.054545 357.780874 
L 469.766234 357.478768 
L 468.477922 355.186161 
L 467.18961 356.947962 
L 465.901299 355.512803 
L 464.612987 356.936914 
L 463.324675 356.703443 
L 462.036364 358.549792 
L 459.45974 359.038018 
L 458.171429 358.8445 
L 456.883117 359.515541 
L 455.594805 359.548714 
L 454.306494 357.761285 
L 453.018182 357.163584 
L 451.72987 359.683254 
L 450.441558 358.958934 
L 449.153247 358.801058 
L 447.864935 358.127054 
L 446.576623 358.153222 
L 445.288312 358.987106 
L 444 358.976728 
L 442.711688 355.152603 
L 441.423377 355.152603 
L 438.846753 350.760368 
L 437.558442 349.504011 
L 436.27013 342.497806 
L 434.981818 338.352279 
L 432.405195 338.463241 
L 431.116883 339.203226 
L 429.828571 344.584989 
L 428.54026 346.272809 
L 427.251948 345.228133 
L 425.963636 346.394815 
L 424.675325 345.375508 
L 423.387013 347.161811 
L 420.81039 337.459961 
L 419.522078 316.601066 
L 418.233766 310.533523 
L 416.945455 303.019848 
L 415.657143 279.593073 
L 414.368831 260.439517 
L 413.080519 293.314965 
L 411.792208 284.861554 
L 410.503896 289.443088 
L 409.215584 285.001279 
L 407.927273 268.248176 
L 406.638961 274.609183 
L 405.350649 268.332012 
L 404.062338 217.863201 
L 402.774026 217.863201 
L 401.485714 153.010735 
L 400.197403 180.137384 
L 398.909091 153.280205 
L 397.620779 117.261052 
L 396.332468 117.365846 
L 395.044156 66.96 
L 393.755844 232.26761 
L 392.467532 243.799715 
L 391.179221 232.381931 
L 389.890909 261.966516 
L 388.602597 269.170365 
L 387.314286 262.011428 
L 386.025974 262.011428 
L 384.737662 219.183605 
L 383.449351 219.309358 
L 382.161039 233.010695 
L 380.872727 119.35693 
L 379.584416 119.461724 
L 378.296104 219.686616 
L 377.007792 219.686616 
L 375.719481 276.141798 
L 374.431169 276.220394 
L 373.142857 281.775259 
L 371.854545 286.677988 
L 370.566234 291.097736 
L 369.277922 270.218307 
L 367.98961 270.218307 
L 366.701299 183.516988 
L 365.412987 204.379712 
L 364.124675 270.721319 
L 362.836364 287.306754 
L 361.548052 295.641402 
L 360.25974 295.641402 
L 357.683117 302.432087 
L 356.394805 302.517828 
L 353.818182 264.481575 
L 352.52987 271.685425 
L 351.241558 277.831605 
L 349.953247 288.110178 
L 348.664935 288.180041 
L 347.376623 283.476625 
L 346.088312 303.232336 
L 344.8 315.624585 
L 343.511688 311.398322 
L 342.223377 308.981754 
L 340.935065 315.834175 
L 339.646753 321.295168 
L 338.358442 321.337086 
L 337.07013 318.03903 
L 334.493506 330.837239 
L 333.205195 330.837239 
L 331.916883 334.752494 
L 330.628571 336.466217 
L 329.34026 343.811198 
L 328.051948 344.346695 
L 325.475325 343.605199 
L 324.187013 343.605199 
L 322.898701 342.17432 
L 321.61039 343.308379 
L 320.322078 341.881378 
L 319.033766 340.800384 
L 317.745455 340.918282 
L 316.457143 340.39262 
L 315.168831 340.39262 
L 313.880519 341.691971 
L 312.592208 339.967127 
L 311.303896 345.011627 
L 310.015584 342.573048 
L 308.727273 341.547071 
L 307.438961 346.109969 
L 306.150649 346.9207 
L 304.862338 348.477575 
L 303.574026 349.514254 
L 302.285714 349.069737 
L 300.997403 349.704804 
L 299.709091 348.464697 
L 298.420779 346.322919 
L 297.132468 345.914811 
L 295.844156 346.063436 
L 294.555844 341.498089 
L 293.267532 331.762412 
L 291.979221 335.823197 
L 290.690909 333.975465 
L 289.402597 330.869683 
L 288.114286 329.665718 
L 286.825974 311.692129 
L 285.537662 324.192012 
L 284.249351 311.863611 
L 282.961039 320.956598 
L 281.672727 322.797234 
L 280.384416 319.16992 
L 279.096104 327.645777 
L 277.807792 337.474069 
L 276.519481 339.153973 
L 275.231169 341.258876 
L 273.942857 340.038728 
L 272.654545 340.06867 
L 271.366234 339.399352 
L 270.077922 335.233025 
L 268.78961 322.141591 
L 267.501299 320.427463 
L 266.212987 327.333558 
L 264.924675 318.649088 
L 263.636364 324.404098 
L 262.348052 338.489796 
L 261.05974 339.278196 
L 259.771429 349.201461 
L 258.483117 349.621914 
L 257.194805 350.663457 
L 255.906494 354.208704 
L 254.618182 354.249538 
L 253.32987 352.556883 
L 252.041558 353.522801 
L 250.753247 353.476977 
L 249.464935 351.48676 
L 248.176623 350.022119 
L 246.888312 349.507735 
L 245.6 353.121925 
L 244.311688 352.149298 
L 241.735065 349.184603 
L 240.446753 350.262657 
L 239.158442 352.706014 
L 237.87013 354.280505 
L 236.581818 350.991994 
L 235.293506 354.455186 
L 234.005195 354.455186 
L 232.716883 353.433829 
L 231.428571 355.613429 
L 230.14026 355.139517 
L 228.851948 352.74957 
L 227.563636 355.738193 
L 226.275325 354.4343 
L 224.987013 355.870587 
L 223.698701 357.140419 
L 222.41039 355.874669 
L 221.122078 356.837906 
L 219.833766 357.540924 
L 218.545455 356.885869 
L 217.257143 359.159112 
L 215.968831 358.97267 
L 214.680519 358.057795 
L 213.392208 358.631186 
L 212.103896 357.466803 
L 210.815584 358.445646 
L 209.527273 361.041881 
L 208.238961 359.999262 
L 206.950649 361.596849 
L 205.662338 362.191534 
L 204.374026 362.657327 
L 203.085714 364.209816 
L 201.797403 363.488118 
L 200.509091 362.034486 
L 199.220779 361.739576 
L 197.932468 361.055034 
L 196.644156 361.249791 
L 195.355844 360.89725 
L 194.067532 359.644681 
L 192.779221 361.919864 
L 191.490909 363.08651 
L 190.202597 364.89312 
L 188.914286 364.749559 
L 187.625974 365.381356 
L 186.337662 365.846991 
L 185.049351 365.75516 
L 183.761039 365.832664 
L 182.472727 366.181947 
L 181.184416 365.806919 
L 179.896104 366.358501 
L 177.319481 366.04699 
L 176.031169 366.04324 
L 174.742857 365.667554 
L 173.454545 365.0348 
L 172.166234 365.40352 
L 170.877922 364.388512 
L 169.58961 363.701427 
L 168.301299 364.188476 
L 167.012987 364.395712 
L 165.724675 365.53128 
L 164.436364 366.06541 
L 163.148052 365.848606 
L 161.85974 366.518767 
L 160.571429 367.721397 
L 156.706494 367.721164 
L 155.418182 367.887055 
L 152.841558 367.840874 
L 151.553247 367.583646 
L 150.264935 367.643419 
L 148.976623 367.964698 
L 147.688312 368.085796 
L 146.4 368.334892 
L 145.111688 368.243527 
L 143.823377 368.446419 
L 142.535065 368.349446 
L 141.246753 368.573772 
L 138.67013 368.550388 
L 137.381818 368.522836 
L 136.093506 368.729363 
L 133.516883 368.711662 
L 130.94026 368.6992 
L 129.651948 368.895231 
L 128.363636 368.740932 
L 127.075325 368.741335 
L 125.787013 368.624592 
L 124.498701 368.722341 
L 123.21039 368.466965 
L 121.922078 368.759234 
L 120.633766 368.53124 
L 119.345455 368.851425 
L 118.057143 368.894903 
L 116.768831 369.066793 
L 114.192208 369.162946 
L 111.615584 369.303985 
L 105.174026 369.176921 
L 102.597403 368.694141 
L 101.309091 368.672506 
L 100.020779 368.478866 
L 98.732468 368.478866 
L 97.444156 368.802808 
L 96.155844 369.25701 
L 93.579221 369.208546 
L 92.290909 369.36 
L 92.290909 369.36 
" style="fill:none;stroke:#1f77b4;stroke-linecap:square;stroke-width:1.5;"/>
   </g>
   <g id="line2d_19">
    <path clip-path="url(#p801b929148)" d="M 498.109091 351.777218 
L 496.820779 354.288391 
L 495.532468 352.724455 
L 494.244156 354.988457 
L 492.955844 356.743573 
L 491.667532 357.043843 
L 490.379221 357.988775 
L 489.090909 359.844311 
L 487.802597 359.368024 
L 486.514286 361.600952 
L 485.225974 361.167033 
L 483.937662 359.697278 
L 482.649351 359.025687 
L 481.361039 359.351346 
L 480.072727 356.402927 
L 478.784416 356.340234 
L 477.496104 350.09702 
L 476.207792 354.285975 
L 473.631169 357.881104 
L 472.342857 359.038132 
L 471.054545 358.616881 
L 469.766234 357.877645 
L 468.477922 359.170802 
L 467.18961 361.539411 
L 465.901299 360.368327 
L 464.612987 358.607651 
L 463.324675 356.212952 
L 462.036364 357.151895 
L 460.748052 358.506567 
L 459.45974 356.803127 
L 458.171429 342.345589 
L 456.883117 344.040317 
L 455.594805 345.53951 
L 454.306494 354.958022 
L 453.018182 354.644141 
L 451.72987 354.751506 
L 450.441558 352.945645 
L 449.153247 351.991845 
L 447.864935 352.276447 
L 446.576623 354.710416 
L 445.288312 338.106671 
L 444 345.336409 
L 442.711688 338.421063 
L 441.423377 338.421063 
L 440.135065 340.0013 
L 438.846753 340.064179 
L 437.558442 324.269745 
L 436.27013 322.464684 
L 434.981818 291.428666 
L 433.693506 296.458798 
L 431.116883 296.537394 
L 429.828571 272.251314 
L 427.251948 272.251314 
L 424.675325 136.62696 
L 423.387013 175.526452 
L 422.098701 78.592118 
L 420.81039 78.592118 
L 419.522078 203.491459 
L 418.233766 203.491459 
L 416.945455 175.840834 
L 415.657143 137.255723 
L 414.368831 79.220881 
L 413.080519 203.850753 
L 411.792208 224.622412 
L 410.503896 204.120223 
L 409.215584 240.987742 
L 407.927273 240.987742 
L 406.638961 253.954259 
L 405.350649 253.954259 
L 404.062338 241.267193 
L 401.485714 241.476781 
L 400.197403 241.616506 
L 398.909091 241.616506 
L 397.620779 225.722749 
L 396.332468 225.722749 
L 395.044156 205.287927 
L 393.755844 177.936712 
L 392.467532 226.115727 
L 391.179221 178.355888 
L 388.602597 178.460682 
L 387.314286 226.351513 
L 386.025974 265.592121 
L 384.737662 265.592121 
L 383.449351 206.275984 
L 382.161039 255.400418 
L 380.872727 255.400418 
L 379.584416 242.734309 
L 378.296104 226.980277 
L 377.007792 84.565367 
L 375.719481 243.153486 
L 374.431169 266.220886 
L 373.142857 227.530445 
L 371.854545 256.029182 
L 370.566234 266.392367 
L 369.277922 256.092059 
L 367.98961 275.080757 
L 366.701299 243.78225 
L 365.412987 256.532194 
L 364.124675 282.722675 
L 362.836364 282.819409 
L 361.548052 294.488663 
L 360.25974 294.488663 
L 358.971429 299.28825 
L 357.683117 299.366846 
L 356.394805 307.322504 
L 353.818182 325.004926 
L 352.52987 328.409623 
L 351.241558 328.409623 
L 349.953247 333.840244 
L 348.664935 335.010332 
L 347.376623 333.982226 
L 346.088312 330.255196 
L 344.8 328.921958 
L 343.511688 323.915053 
L 342.223377 323.915053 
L 340.935065 330.65941 
L 339.646753 329.271278 
L 338.358442 326.111568 
L 337.07013 329.434294 
L 335.781818 330.996255 
L 334.493506 333.640116 
L 333.205195 333.640116 
L 331.916883 318.375872 
L 330.628571 328.356777 
L 329.34026 328.405144 
L 328.051948 332.81909 
L 326.763636 327.017003 
L 324.187013 327.117607 
L 322.898701 327.167909 
L 321.61039 313.865745 
L 320.322078 333.274413 
L 319.033766 321.809617 
L 317.745455 337.91964 
L 316.457143 335.929417 
L 315.168831 335.929417 
L 313.880519 333.621325 
L 312.592208 333.643007 
L 311.303896 317.648294 
L 310.015584 314.924726 
L 308.727273 283.464296 
L 307.438961 295.919855 
L 306.150649 295.919855 
L 304.862338 305.182945 
L 303.574026 331.623368 
L 302.285714 326.901727 
L 300.997403 326.901727 
L 299.709091 331.832961 
L 298.420779 328.878177 
L 297.132468 328.878177 
L 295.844156 337.918449 
L 294.555844 319.03159 
L 293.267532 323.667354 
L 291.979221 323.667354 
L 290.690909 316.645571 
L 289.402597 310.439634 
L 288.114286 310.439634 
L 286.825974 278.453225 
L 285.537662 322.058676 
L 284.249351 317.075782 
L 282.961039 326.284344 
L 281.672727 329.93452 
L 280.384416 342.937067 
L 279.096104 347.246728 
L 277.807792 348.27817 
L 276.519481 344.535852 
L 275.231169 347.934604 
L 273.942857 348.469547 
L 272.654545 345.361753 
L 271.366234 350.829616 
L 270.077922 347.875534 
L 268.78961 345.739032 
L 266.212987 345.880512 
L 264.924675 349.970383 
L 263.636364 351.174852 
L 262.348052 353.976294 
L 259.771429 355.005436 
L 258.483117 355.930486 
L 257.194805 356.393812 
L 255.906494 358.65523 
L 254.618182 358.553627 
L 253.32987 357.389937 
L 252.041558 357.046789 
L 250.753247 358.693197 
L 249.464935 357.66646 
L 248.176623 356.222325 
L 246.888312 350.875451 
L 245.6 355.626282 
L 244.311688 355.119884 
L 243.023377 356.081725 
L 241.735065 356.85121 
L 240.446753 356.85121 
L 239.158442 357.792488 
L 237.87013 357.310282 
L 236.581818 356.692413 
L 235.293506 355.238764 
L 234.005195 359.164078 
L 232.716883 356.434371 
L 231.428571 359.571714 
L 230.14026 359.74391 
L 228.851948 360.824577 
L 227.563636 360.383645 
L 226.275325 360.807954 
L 224.987013 360.65647 
L 223.698701 361.926043 
L 222.41039 361.115159 
L 221.122078 361.553391 
L 219.833766 360.353914 
L 218.545455 362.692819 
L 217.257143 361.726724 
L 215.968831 362.141164 
L 214.680519 362.056672 
L 213.392208 362.199628 
L 212.103896 363.942348 
L 210.815584 364.294258 
L 209.527273 364.028687 
L 208.238961 364.56744 
L 205.662338 364.23298 
L 204.374026 364.912078 
L 203.085714 365.443326 
L 200.509091 364.969404 
L 199.220779 366.541475 
L 197.932468 366.207877 
L 196.644156 366.951211 
L 195.355844 366.877822 
L 194.067532 366.597944 
L 191.490909 366.823648 
L 190.202597 365.312522 
L 188.914286 365.443833 
L 187.625974 363.857535 
L 186.337662 364.550891 
L 185.049351 363.463953 
L 183.761039 363.678664 
L 182.472727 363.39305 
L 181.184416 364.065036 
L 177.319481 364.037781 
L 176.031169 367.364627 
L 172.166234 367.21223 
L 168.301299 368.16549 
L 167.012987 367.665219 
L 165.724675 368.458992 
L 163.148052 368.408311 
L 161.85974 368.717028 
L 159.283117 368.495354 
L 157.994805 368.598649 
L 156.706494 368.013552 
L 155.418182 368.617708 
L 154.12987 368.789268 
L 152.841558 368.536783 
L 151.553247 368.944529 
L 150.264935 368.981818 
L 148.976623 368.869719 
L 143.823377 368.864936 
L 142.535065 368.667102 
L 137.381818 368.489952 
L 134.805195 368.959206 
L 133.516883 369.091319 
L 130.94026 369.044425 
L 129.651948 369.292632 
L 125.787013 369.119726 
L 124.498701 368.862508 
L 119.345455 368.802808 
L 118.057143 368.478866 
L 116.768831 368.478866 
L 116.768831 368.478866 
" style="fill:none;stroke:#ff7f0e;stroke-linecap:square;stroke-width:1.5;"/>
   </g>
   <g id="patch_3">
    <path d="M 72 384.48 
L 72 51.84 
" style="fill:none;stroke:#000000;stroke-linecap:square;stroke-linejoin:miter;stroke-width:0.8;"/>
   </g>
   <g id="patch_4">
    <path d="M 518.4 384.48 
L 518.4 51.84 
" style="fill:none;stroke:#000000;stroke-linecap:square;stroke-linejoin:miter;stroke-width:0.8;"/>
   </g>
   <g id="patch_5">
    <path d="M 72 384.48 
L 518.4 384.48 
" style="fill:none;stroke:#000000;stroke-linecap:square;stroke-linejoin:miter;stroke-width:0.8;"/>
   </g>
   <g id="patch_6">
    <path d="M 72 51.84 
L 518.4 51.84 
" style="fill:none;stroke:#000000;stroke-linecap:square;stroke-linejoin:miter;stroke-width:0.8;"/>
   </g>
   <g id="text_20">
    <!-- Doubling Time -->
    <defs>
     <path d="M 48.6875 27.296875 
Q 48.6875 37.203125 44.609375 42.84375 
Q 40.53125 48.484375 33.40625 48.484375 
Q 26.265625 48.484375 22.1875 42.84375 
Q 18.109375 37.203125 18.109375 27.296875 
Q 18.109375 17.390625 22.1875 11.75 
Q 26.265625 6.109375 33.40625 6.109375 
Q 40.53125 6.109375 44.609375 11.75 
Q 48.6875 17.390625 48.6875 27.296875 
z
M 18.109375 46.390625 
Q 20.953125 51.265625 25.265625 53.625 
Q 29.59375 56 35.59375 56 
Q 45.5625 56 51.78125 48.09375 
Q 58.015625 40.1875 58.015625 27.296875 
Q 58.015625 14.40625 51.78125 6.484375 
Q 45.5625 -1.421875 35.59375 -1.421875 
Q 29.59375 -1.421875 25.265625 0.953125 
Q 20.953125 3.328125 18.109375 8.203125 
L 18.109375 0 
L 9.078125 0 
L 9.078125 75.984375 
L 18.109375 75.984375 
z
" id="DejaVuSans-98"/>
     <path d="M 9.421875 75.984375 
L 18.40625 75.984375 
L 18.40625 0 
L 9.421875 0 
z
" id="DejaVuSans-108"/>
     <path d="M 45.40625 27.984375 
Q 45.40625 37.75 41.375 43.109375 
Q 37.359375 48.484375 30.078125 48.484375 
Q 22.859375 48.484375 18.828125 43.109375 
Q 14.796875 37.75 14.796875 27.984375 
Q 14.796875 18.265625 18.828125 12.890625 
Q 22.859375 7.515625 30.078125 7.515625 
Q 37.359375 7.515625 41.375 12.890625 
Q 45.40625 18.265625 45.40625 27.984375 
z
M 54.390625 6.78125 
Q 54.390625 -7.171875 48.1875 -13.984375 
Q 42 -20.796875 29.203125 -20.796875 
Q 24.46875 -20.796875 20.265625 -20.09375 
Q 16.0625 -19.390625 12.109375 -17.921875 
L 12.109375 -9.1875 
Q 16.0625 -11.328125 19.921875 -12.34375 
Q 23.78125 -13.375 27.78125 -13.375 
Q 36.625 -13.375 41.015625 -8.765625 
Q 45.40625 -4.15625 45.40625 5.171875 
L 45.40625 9.625 
Q 42.625 4.78125 38.28125 2.390625 
Q 33.9375 0 27.875 0 
Q 17.828125 0 11.671875 7.65625 
Q 5.515625 15.328125 5.515625 27.984375 
Q 5.515625 40.671875 11.671875 48.328125 
Q 17.828125 56 27.875 56 
Q 33.9375 56 38.28125 53.609375 
Q 42.625 51.21875 45.40625 46.390625 
L 45.40625 54.6875 
L 54.390625 54.6875 
z
" id="DejaVuSans-103"/>
     <path d="M -0.296875 72.90625 
L 61.375 72.90625 
L 61.375 64.59375 
L 35.5 64.59375 
L 35.5 0 
L 25.59375 0 
L 25.59375 64.59375 
L -0.296875 64.59375 
z
" id="DejaVuSans-84"/>
     <path d="M 52 44.1875 
Q 55.375 50.25 60.0625 53.125 
Q 64.75 56 71.09375 56 
Q 79.640625 56 84.28125 50.015625 
Q 88.921875 44.046875 88.921875 33.015625 
L 88.921875 0 
L 79.890625 0 
L 79.890625 32.71875 
Q 79.890625 40.578125 77.09375 44.375 
Q 74.3125 48.1875 68.609375 48.1875 
Q 61.625 48.1875 57.5625 43.546875 
Q 53.515625 38.921875 53.515625 30.90625 
L 53.515625 0 
L 44.484375 0 
L 44.484375 32.71875 
Q 44.484375 40.625 41.703125 44.40625 
Q 38.921875 48.1875 33.109375 48.1875 
Q 26.21875 48.1875 22.15625 43.53125 
Q 18.109375 38.875 18.109375 30.90625 
L 18.109375 0 
L 9.078125 0 
L 9.078125 54.6875 
L 18.109375 54.6875 
L 18.109375 46.1875 
Q 21.1875 51.21875 25.484375 53.609375 
Q 29.78125 56 35.6875 56 
Q 41.65625 56 45.828125 52.96875 
Q 50 49.953125 52 44.1875 
z
" id="DejaVuSans-109"/>
    </defs>
    <g transform="translate(251.764687 45.84)scale(0.12 -0.12)">
     <use xlink:href="#DejaVuSans-68"/>
     <use x="77.001953" xlink:href="#DejaVuSans-111"/>
     <use x="138.183594" xlink:href="#DejaVuSans-117"/>
     <use x="201.5625" xlink:href="#DejaVuSans-98"/>
     <use x="265.039062" xlink:href="#DejaVuSans-108"/>
     <use x="292.822266" xlink:href="#DejaVuSans-105"/>
     <use x="320.605469" xlink:href="#DejaVuSans-110"/>
     <use x="383.984375" xlink:href="#DejaVuSans-103"/>
     <use x="447.460938" xlink:href="#DejaVuSans-32"/>
     <use x="479.248047" xlink:href="#DejaVuSans-84"/>
     <use x="537.207031" xlink:href="#DejaVuSans-105"/>
     <use x="564.990234" xlink:href="#DejaVuSans-109"/>
     <use x="662.402344" xlink:href="#DejaVuSans-101"/>
    </g>
   </g>
   <g id="legend_1">
    <g id="patch_7">
     <path d="M 79 89.19625 
L 354.582813 89.19625 
Q 356.582813 89.19625 356.582813 87.19625 
L 356.582813 58.84 
Q 356.582813 56.84 354.582813 56.84 
L 79 56.84 
Q 77 56.84 77 58.84 
L 77 87.19625 
Q 77 89.19625 79 89.19625 
z
" style="fill:#ffffff;opacity:0.8;stroke:#cccccc;stroke-linejoin:miter;"/>
    </g>
    <g id="line2d_20">
     <path d="M 81 64.938437 
L 101 64.938437 
" style="fill:none;stroke:#1f77b4;stroke-linecap:square;stroke-width:1.5;"/>
    </g>
    <g id="line2d_21"/>
    <g id="text_21">
     <!-- Doubling Time of Confirmed Cases (over 7 days) -->
     <defs>
      <path d="M 37.109375 75.984375 
L 37.109375 68.5 
L 28.515625 68.5 
Q 23.6875 68.5 21.796875 66.546875 
Q 19.921875 64.59375 19.921875 59.515625 
L 19.921875 54.6875 
L 34.71875 54.6875 
L 34.71875 47.703125 
L 19.921875 47.703125 
L 19.921875 0 
L 10.890625 0 
L 10.890625 47.703125 
L 2.296875 47.703125 
L 2.296875 54.6875 
L 10.890625 54.6875 
L 10.890625 58.5 
Q 10.890625 67.625 15.140625 71.796875 
Q 19.390625 75.984375 28.609375 75.984375 
z
" id="DejaVuSans-102"/>
      <path d="M 64.40625 67.28125 
L 64.40625 56.890625 
Q 59.421875 61.53125 53.78125 63.8125 
Q 48.140625 66.109375 41.796875 66.109375 
Q 29.296875 66.109375 22.65625 58.46875 
Q 16.015625 50.828125 16.015625 36.375 
Q 16.015625 21.96875 22.65625 14.328125 
Q 29.296875 6.6875 41.796875 6.6875 
Q 48.140625 6.6875 53.78125 8.984375 
Q 59.421875 11.28125 64.40625 15.921875 
L 64.40625 5.609375 
Q 59.234375 2.09375 53.4375 0.328125 
Q 47.65625 -1.421875 41.21875 -1.421875 
Q 24.65625 -1.421875 15.125 8.703125 
Q 5.609375 18.84375 5.609375 36.375 
Q 5.609375 53.953125 15.125 64.078125 
Q 24.65625 74.21875 41.21875 74.21875 
Q 47.75 74.21875 53.53125 72.484375 
Q 59.328125 70.75 64.40625 67.28125 
z
" id="DejaVuSans-67"/>
      <path d="M 31 75.875 
Q 24.46875 64.65625 21.28125 53.65625 
Q 18.109375 42.671875 18.109375 31.390625 
Q 18.109375 20.125 21.3125 9.0625 
Q 24.515625 -2 31 -13.1875 
L 23.1875 -13.1875 
Q 15.875 -1.703125 12.234375 9.375 
Q 8.59375 20.453125 8.59375 31.390625 
Q 8.59375 42.28125 12.203125 53.3125 
Q 15.828125 64.359375 23.1875 75.875 
z
" id="DejaVuSans-40"/>
      <path d="M 2.984375 54.6875 
L 12.5 54.6875 
L 29.59375 8.796875 
L 46.6875 54.6875 
L 56.203125 54.6875 
L 35.6875 0 
L 23.484375 0 
z
" id="DejaVuSans-118"/>
      <path d="M 8.015625 75.875 
L 15.828125 75.875 
Q 23.140625 64.359375 26.78125 53.3125 
Q 30.421875 42.28125 30.421875 31.390625 
Q 30.421875 20.453125 26.78125 9.375 
Q 23.140625 -1.703125 15.828125 -13.1875 
L 8.015625 -13.1875 
Q 14.5 -2 17.703125 9.0625 
Q 20.90625 20.125 20.90625 31.390625 
Q 20.90625 42.671875 17.703125 53.65625 
Q 14.5 64.65625 8.015625 75.875 
z
" id="DejaVuSans-41"/>
     </defs>
     <g transform="translate(109 68.438437)scale(0.1 -0.1)">
      <use xlink:href="#DejaVuSans-68"/>
      <use x="77.001953" xlink:href="#DejaVuSans-111"/>
      <use x="138.183594" xlink:href="#DejaVuSans-117"/>
      <use x="201.5625" xlink:href="#DejaVuSans-98"/>
      <use x="265.039062" xlink:href="#DejaVuSans-108"/>
      <use x="292.822266" xlink:href="#DejaVuSans-105"/>
      <use x="320.605469" xlink:href="#DejaVuSans-110"/>
      <use x="383.984375" xlink:href="#DejaVuSans-103"/>
      <use x="447.460938" xlink:href="#DejaVuSans-32"/>
      <use x="479.248047" xlink:href="#DejaVuSans-84"/>
      <use x="537.207031" xlink:href="#DejaVuSans-105"/>
      <use x="564.990234" xlink:href="#DejaVuSans-109"/>
      <use x="662.402344" xlink:href="#DejaVuSans-101"/>
      <use x="723.925781" xlink:href="#DejaVuSans-32"/>
      <use x="755.712891" xlink:href="#DejaVuSans-111"/>
      <use x="816.894531" xlink:href="#DejaVuSans-102"/>
      <use x="852.099609" xlink:href="#DejaVuSans-32"/>
      <use x="883.886719" xlink:href="#DejaVuSans-67"/>
      <use x="953.710938" xlink:href="#DejaVuSans-111"/>
      <use x="1014.892578" xlink:href="#DejaVuSans-110"/>
      <use x="1078.271484" xlink:href="#DejaVuSans-102"/>
      <use x="1113.476562" xlink:href="#DejaVuSans-105"/>
      <use x="1141.259766" xlink:href="#DejaVuSans-114"/>
      <use x="1180.623047" xlink:href="#DejaVuSans-109"/>
      <use x="1278.035156" xlink:href="#DejaVuSans-101"/>
      <use x="1339.558594" xlink:href="#DejaVuSans-100"/>
      <use x="1403.035156" xlink:href="#DejaVuSans-32"/>
      <use x="1434.822266" xlink:href="#DejaVuSans-67"/>
      <use x="1504.646484" xlink:href="#DejaVuSans-97"/>
      <use x="1565.925781" xlink:href="#DejaVuSans-115"/>
      <use x="1618.025391" xlink:href="#DejaVuSans-101"/>
      <use x="1679.548828" xlink:href="#DejaVuSans-115"/>
      <use x="1731.648438" xlink:href="#DejaVuSans-32"/>
      <use x="1763.435547" xlink:href="#DejaVuSans-40"/>
      <use x="1802.449219" xlink:href="#DejaVuSans-111"/>
      <use x="1863.630859" xlink:href="#DejaVuSans-118"/>
      <use x="1922.810547" xlink:href="#DejaVuSans-101"/>
      <use x="1984.333984" xlink:href="#DejaVuSans-114"/>
      <use x="2025.447266" xlink:href="#DejaVuSans-32"/>
      <use x="2057.234375" xlink:href="#DejaVuSans-55"/>
      <use x="2120.857422" xlink:href="#DejaVuSans-32"/>
      <use x="2152.644531" xlink:href="#DejaVuSans-100"/>
      <use x="2216.121094" xlink:href="#DejaVuSans-97"/>
      <use x="2277.400391" xlink:href="#DejaVuSans-121"/>
      <use x="2336.580078" xlink:href="#DejaVuSans-115"/>
      <use x="2388.679688" xlink:href="#DejaVuSans-41"/>
     </g>
    </g>
    <g id="line2d_22">
     <path d="M 81 79.616562 
L 101 79.616562 
" style="fill:none;stroke:#ff7f0e;stroke-linecap:square;stroke-width:1.5;"/>
    </g>
    <g id="line2d_23"/>
    <g id="text_22">
     <!-- Doubling Time of Recovered Cases (over 7 days) -->
     <defs>
      <path d="M 48.78125 52.59375 
L 48.78125 44.1875 
Q 44.96875 46.296875 41.140625 47.34375 
Q 37.3125 48.390625 33.40625 48.390625 
Q 24.65625 48.390625 19.8125 42.84375 
Q 14.984375 37.3125 14.984375 27.296875 
Q 14.984375 17.28125 19.8125 11.734375 
Q 24.65625 6.203125 33.40625 6.203125 
Q 37.3125 6.203125 41.140625 7.25 
Q 44.96875 8.296875 48.78125 10.40625 
L 48.78125 2.09375 
Q 45.015625 0.34375 40.984375 -0.53125 
Q 36.96875 -1.421875 32.421875 -1.421875 
Q 20.0625 -1.421875 12.78125 6.34375 
Q 5.515625 14.109375 5.515625 27.296875 
Q 5.515625 40.671875 12.859375 48.328125 
Q 20.21875 56 33.015625 56 
Q 37.15625 56 41.109375 55.140625 
Q 45.0625 54.296875 48.78125 52.59375 
z
" id="DejaVuSans-99"/>
     </defs>
     <g transform="translate(109 83.116562)scale(0.1 -0.1)">
      <use xlink:href="#DejaVuSans-68"/>
      <use x="77.001953" xlink:href="#DejaVuSans-111"/>
      <use x="138.183594" xlink:href="#DejaVuSans-117"/>
      <use x="201.5625" xlink:href="#DejaVuSans-98"/>
      <use x="265.039062" xlink:href="#DejaVuSans-108"/>
      <use x="292.822266" xlink:href="#DejaVuSans-105"/>
      <use x="320.605469" xlink:href="#DejaVuSans-110"/>
      <use x="383.984375" xlink:href="#DejaVuSans-103"/>
      <use x="447.460938" xlink:href="#DejaVuSans-32"/>
      <use x="479.248047" xlink:href="#DejaVuSans-84"/>
      <use x="537.207031" xlink:href="#DejaVuSans-105"/>
      <use x="564.990234" xlink:href="#DejaVuSans-109"/>
      <use x="662.402344" xlink:href="#DejaVuSans-101"/>
      <use x="723.925781" xlink:href="#DejaVuSans-32"/>
      <use x="755.712891" xlink:href="#DejaVuSans-111"/>
      <use x="816.894531" xlink:href="#DejaVuSans-102"/>
      <use x="852.099609" xlink:href="#DejaVuSans-32"/>
      <use x="883.886719" xlink:href="#DejaVuSans-82"/>
      <use x="948.869141" xlink:href="#DejaVuSans-101"/>
      <use x="1010.392578" xlink:href="#DejaVuSans-99"/>
      <use x="1065.373047" xlink:href="#DejaVuSans-111"/>
      <use x="1126.554688" xlink:href="#DejaVuSans-118"/>
      <use x="1185.734375" xlink:href="#DejaVuSans-101"/>
      <use x="1247.257812" xlink:href="#DejaVuSans-114"/>
      <use x="1286.121094" xlink:href="#DejaVuSans-101"/>
      <use x="1347.644531" xlink:href="#DejaVuSans-100"/>
      <use x="1411.121094" xlink:href="#DejaVuSans-32"/>
      <use x="1442.908203" xlink:href="#DejaVuSans-67"/>
      <use x="1512.732422" xlink:href="#DejaVuSans-97"/>
      <use x="1574.011719" xlink:href="#DejaVuSans-115"/>
      <use x="1626.111328" xlink:href="#DejaVuSans-101"/>
      <use x="1687.634766" xlink:href="#DejaVuSans-115"/>
      <use x="1739.734375" xlink:href="#DejaVuSans-32"/>
      <use x="1771.521484" xlink:href="#DejaVuSans-40"/>
      <use x="1810.535156" xlink:href="#DejaVuSans-111"/>
      <use x="1871.716797" xlink:href="#DejaVuSans-118"/>
      <use x="1930.896484" xlink:href="#DejaVuSans-101"/>
      <use x="1992.419922" xlink:href="#DejaVuSans-114"/>
      <use x="2033.533203" xlink:href="#DejaVuSans-32"/>
      <use x="2065.320312" xlink:href="#DejaVuSans-55"/>
      <use x="2128.943359" xlink:href="#DejaVuSans-32"/>
      <use x="2160.730469" xlink:href="#DejaVuSans-100"/>
      <use x="2224.207031" xlink:href="#DejaVuSans-97"/>
      <use x="2285.486328" xlink:href="#DejaVuSans-121"/>
      <use x="2344.666016" xlink:href="#DejaVuSans-115"/>
      <use x="2396.765625" xlink:href="#DejaVuSans-41"/>
     </g>
    </g>
   </g>
  </g>
 </g>
 <defs>
  <clipPath id="p801b929148">
   <rect height="332.64" width="446.4" x="72" y="51.84"/>
  </clipPath>
 </defs>
</svg>
