<?xml version="1.0" encoding="utf-8" standalone="no"?>
<!DOCTYPE svg PUBLIC "-//W3C//DTD SVG 1.1//EN"
  "http://www.w3.org/Graphics/SVG/1.1/DTD/svg11.dtd">
<!-- Created with matplotlib (https://matplotlib.org/) -->
<svg height="432pt" version="1.1" viewBox="0 0 576 432" width="576pt" xmlns="http://www.w3.org/2000/svg" xmlns:xlink="http://www.w3.org/1999/xlink">
 <defs>
  <style type="text/css">
*{stroke-linecap:butt;stroke-linejoin:round;}
  </style>
 </defs>
 <g id="figure_1">
  <g id="patch_1">
   <path d="M 0 432 
L 576 432 
L 576 0 
L 0 0 
z
" style="fill:#ffffff;"/>
  </g>
  <g id="axes_1">
   <g id="patch_2">
    <path d="M 72 384.48 
L 518.4 384.48 
L 518.4 51.84 
L 72 51.84 
z
" style="fill:#ffffff;"/>
   </g>
   <g id="matplotlib.axis_1">
    <g id="xtick_1">
     <g id="line2d_1">
      <defs>
       <path d="M 0 0 
L 0 3.5 
" id="m07ed1e1681" style="stroke:#000000;stroke-width:0.8;"/>
      </defs>
      <g>
       <use style="stroke:#000000;stroke-width:0.8;" x="138.767293" xlink:href="#m07ed1e1681" y="384.48"/>
      </g>
     </g>
     <g id="text_1">
      <!-- 2020-05 -->
      <defs>
       <path d="M 19.1875 8.296875 
L 53.609375 8.296875 
L 53.609375 0 
L 7.328125 0 
L 7.328125 8.296875 
Q 12.9375 14.109375 22.625 23.890625 
Q 32.328125 33.6875 34.8125 36.53125 
Q 39.546875 41.84375 41.421875 45.53125 
Q 43.3125 49.21875 43.3125 52.78125 
Q 43.3125 58.59375 39.234375 62.25 
Q 35.15625 65.921875 28.609375 65.921875 
Q 23.96875 65.921875 18.8125 64.3125 
Q 13.671875 62.703125 7.8125 59.421875 
L 7.8125 69.390625 
Q 13.765625 71.78125 18.9375 73 
Q 24.125 74.21875 28.421875 74.21875 
Q 39.75 74.21875 46.484375 68.546875 
Q 53.21875 62.890625 53.21875 53.421875 
Q 53.21875 48.921875 51.53125 44.890625 
Q 49.859375 40.875 45.40625 35.40625 
Q 44.1875 33.984375 37.640625 27.21875 
Q 31.109375 20.453125 19.1875 8.296875 
z
" id="DejaVuSans-50"/>
       <path d="M 31.78125 66.40625 
Q 24.171875 66.40625 20.328125 58.90625 
Q 16.5 51.421875 16.5 36.375 
Q 16.5 21.390625 20.328125 13.890625 
Q 24.171875 6.390625 31.78125 6.390625 
Q 39.453125 6.390625 43.28125 13.890625 
Q 47.125 21.390625 47.125 36.375 
Q 47.125 51.421875 43.28125 58.90625 
Q 39.453125 66.40625 31.78125 66.40625 
z
M 31.78125 74.21875 
Q 44.046875 74.21875 50.515625 64.515625 
Q 56.984375 54.828125 56.984375 36.375 
Q 56.984375 17.96875 50.515625 8.265625 
Q 44.046875 -1.421875 31.78125 -1.421875 
Q 19.53125 -1.421875 13.0625 8.265625 
Q 6.59375 17.96875 6.59375 36.375 
Q 6.59375 54.828125 13.0625 64.515625 
Q 19.53125 74.21875 31.78125 74.21875 
z
" id="DejaVuSans-48"/>
       <path d="M 4.890625 31.390625 
L 31.203125 31.390625 
L 31.203125 23.390625 
L 4.890625 23.390625 
z
" id="DejaVuSans-45"/>
       <path d="M 10.796875 72.90625 
L 49.515625 72.90625 
L 49.515625 64.59375 
L 19.828125 64.59375 
L 19.828125 46.734375 
Q 21.96875 47.46875 24.109375 47.828125 
Q 26.265625 48.1875 28.421875 48.1875 
Q 40.625 48.1875 47.75 41.5 
Q 54.890625 34.8125 54.890625 23.390625 
Q 54.890625 11.625 47.5625 5.09375 
Q 40.234375 -1.421875 26.90625 -1.421875 
Q 22.3125 -1.421875 17.546875 -0.640625 
Q 12.796875 0.140625 7.71875 1.703125 
L 7.71875 11.625 
Q 12.109375 9.234375 16.796875 8.0625 
Q 21.484375 6.890625 26.703125 6.890625 
Q 35.15625 6.890625 40.078125 11.328125 
Q 45.015625 15.765625 45.015625 23.390625 
Q 45.015625 31 40.078125 35.4375 
Q 35.15625 39.890625 26.703125 39.890625 
Q 22.75 39.890625 18.8125 39.015625 
Q 14.890625 38.140625 10.796875 36.28125 
z
" id="DejaVuSans-53"/>
      </defs>
      <g transform="translate(117.875887 399.078438)scale(0.1 -0.1)">
       <use xlink:href="#DejaVuSans-50"/>
       <use x="63.623047" xlink:href="#DejaVuSans-48"/>
       <use x="127.246094" xlink:href="#DejaVuSans-50"/>
       <use x="190.869141" xlink:href="#DejaVuSans-48"/>
       <use x="254.492188" xlink:href="#DejaVuSans-45"/>
       <use x="290.576172" xlink:href="#DejaVuSans-48"/>
       <use x="354.199219" xlink:href="#DejaVuSans-53"/>
      </g>
     </g>
    </g>
    <g id="xtick_2">
     <g id="line2d_2">
      <g>
       <use style="stroke:#000000;stroke-width:0.8;" x="207.915084" xlink:href="#m07ed1e1681" y="384.48"/>
      </g>
     </g>
     <g id="text_2">
      <!-- 2020-07 -->
      <defs>
       <path d="M 8.203125 72.90625 
L 55.078125 72.90625 
L 55.078125 68.703125 
L 28.609375 0 
L 18.3125 0 
L 43.21875 64.59375 
L 8.203125 64.59375 
z
" id="DejaVuSans-55"/>
      </defs>
      <g transform="translate(187.023678 399.078438)scale(0.1 -0.1)">
       <use xlink:href="#DejaVuSans-50"/>
       <use x="63.623047" xlink:href="#DejaVuSans-48"/>
       <use x="127.246094" xlink:href="#DejaVuSans-50"/>
       <use x="190.869141" xlink:href="#DejaVuSans-48"/>
       <use x="254.492188" xlink:href="#DejaVuSans-45"/>
       <use x="290.576172" xlink:href="#DejaVuSans-48"/>
       <use x="354.199219" xlink:href="#DejaVuSans-55"/>
      </g>
     </g>
    </g>
    <g id="xtick_3">
     <g id="line2d_3">
      <g>
       <use style="stroke:#000000;stroke-width:0.8;" x="278.196445" xlink:href="#m07ed1e1681" y="384.48"/>
      </g>
     </g>
     <g id="text_3">
      <!-- 2020-09 -->
      <defs>
       <path d="M 10.984375 1.515625 
L 10.984375 10.5 
Q 14.703125 8.734375 18.5 7.8125 
Q 22.3125 6.890625 25.984375 6.890625 
Q 35.75 6.890625 40.890625 13.453125 
Q 46.046875 20.015625 46.78125 33.40625 
Q 43.953125 29.203125 39.59375 26.953125 
Q 35.25 24.703125 29.984375 24.703125 
Q 19.046875 24.703125 12.671875 31.3125 
Q 6.296875 37.9375 6.296875 49.421875 
Q 6.296875 60.640625 12.9375 67.421875 
Q 19.578125 74.21875 30.609375 74.21875 
Q 43.265625 74.21875 49.921875 64.515625 
Q 56.59375 54.828125 56.59375 36.375 
Q 56.59375 19.140625 48.40625 8.859375 
Q 40.234375 -1.421875 26.421875 -1.421875 
Q 22.703125 -1.421875 18.890625 -0.6875 
Q 15.09375 0.046875 10.984375 1.515625 
z
M 30.609375 32.421875 
Q 37.25 32.421875 41.125 36.953125 
Q 45.015625 41.5 45.015625 49.421875 
Q 45.015625 57.28125 41.125 61.84375 
Q 37.25 66.40625 30.609375 66.40625 
Q 23.96875 66.40625 20.09375 61.84375 
Q 16.21875 57.28125 16.21875 49.421875 
Q 16.21875 41.5 20.09375 36.953125 
Q 23.96875 32.421875 30.609375 32.421875 
z
" id="DejaVuSans-57"/>
      </defs>
      <g transform="translate(257.305039 399.078438)scale(0.1 -0.1)">
       <use xlink:href="#DejaVuSans-50"/>
       <use x="63.623047" xlink:href="#DejaVuSans-48"/>
       <use x="127.246094" xlink:href="#DejaVuSans-50"/>
       <use x="190.869141" xlink:href="#DejaVuSans-48"/>
       <use x="254.492188" xlink:href="#DejaVuSans-45"/>
       <use x="290.576172" xlink:href="#DejaVuSans-48"/>
       <use x="354.199219" xlink:href="#DejaVuSans-57"/>
      </g>
     </g>
    </g>
    <g id="xtick_4">
     <g id="line2d_4">
      <g>
       <use style="stroke:#000000;stroke-width:0.8;" x="347.344236" xlink:href="#m07ed1e1681" y="384.48"/>
      </g>
     </g>
     <g id="text_4">
      <!-- 2020-11 -->
      <defs>
       <path d="M 12.40625 8.296875 
L 28.515625 8.296875 
L 28.515625 63.921875 
L 10.984375 60.40625 
L 10.984375 69.390625 
L 28.421875 72.90625 
L 38.28125 72.90625 
L 38.28125 8.296875 
L 54.390625 8.296875 
L 54.390625 0 
L 12.40625 0 
z
" id="DejaVuSans-49"/>
      </defs>
      <g transform="translate(326.452829 399.078438)scale(0.1 -0.1)">
       <use xlink:href="#DejaVuSans-50"/>
       <use x="63.623047" xlink:href="#DejaVuSans-48"/>
       <use x="127.246094" xlink:href="#DejaVuSans-50"/>
       <use x="190.869141" xlink:href="#DejaVuSans-48"/>
       <use x="254.492188" xlink:href="#DejaVuSans-45"/>
       <use x="290.576172" xlink:href="#DejaVuSans-49"/>
       <use x="354.199219" xlink:href="#DejaVuSans-49"/>
      </g>
     </g>
    </g>
    <g id="xtick_5">
     <g id="line2d_5">
      <g>
       <use style="stroke:#000000;stroke-width:0.8;" x="416.492026" xlink:href="#m07ed1e1681" y="384.48"/>
      </g>
     </g>
     <g id="text_5">
      <!-- 2021-01 -->
      <g transform="translate(395.60062 399.078438)scale(0.1 -0.1)">
       <use xlink:href="#DejaVuSans-50"/>
       <use x="63.623047" xlink:href="#DejaVuSans-48"/>
       <use x="127.246094" xlink:href="#DejaVuSans-50"/>
       <use x="190.869141" xlink:href="#DejaVuSans-49"/>
       <use x="254.492188" xlink:href="#DejaVuSans-45"/>
       <use x="290.576172" xlink:href="#DejaVuSans-48"/>
       <use x="354.199219" xlink:href="#DejaVuSans-49"/>
      </g>
     </g>
    </g>
    <g id="xtick_6">
     <g id="line2d_6">
      <g>
       <use style="stroke:#000000;stroke-width:0.8;" x="483.372676" xlink:href="#m07ed1e1681" y="384.48"/>
      </g>
     </g>
     <g id="text_6">
      <!-- 2021-03 -->
      <defs>
       <path d="M 40.578125 39.3125 
Q 47.65625 37.796875 51.625 33 
Q 55.609375 28.21875 55.609375 21.1875 
Q 55.609375 10.40625 48.1875 4.484375 
Q 40.765625 -1.421875 27.09375 -1.421875 
Q 22.515625 -1.421875 17.65625 -0.515625 
Q 12.796875 0.390625 7.625 2.203125 
L 7.625 11.71875 
Q 11.71875 9.328125 16.59375 8.109375 
Q 21.484375 6.890625 26.8125 6.890625 
Q 36.078125 6.890625 40.9375 10.546875 
Q 45.796875 14.203125 45.796875 21.1875 
Q 45.796875 27.640625 41.28125 31.265625 
Q 36.765625 34.90625 28.71875 34.90625 
L 20.21875 34.90625 
L 20.21875 43.015625 
L 29.109375 43.015625 
Q 36.375 43.015625 40.234375 45.921875 
Q 44.09375 48.828125 44.09375 54.296875 
Q 44.09375 59.90625 40.109375 62.90625 
Q 36.140625 65.921875 28.71875 65.921875 
Q 24.65625 65.921875 20.015625 65.03125 
Q 15.375 64.15625 9.8125 62.3125 
L 9.8125 71.09375 
Q 15.4375 72.65625 20.34375 73.4375 
Q 25.25 74.21875 29.59375 74.21875 
Q 40.828125 74.21875 47.359375 69.109375 
Q 53.90625 64.015625 53.90625 55.328125 
Q 53.90625 49.265625 50.4375 45.09375 
Q 46.96875 40.921875 40.578125 39.3125 
z
" id="DejaVuSans-51"/>
      </defs>
      <g transform="translate(462.48127 399.078438)scale(0.1 -0.1)">
       <use xlink:href="#DejaVuSans-50"/>
       <use x="63.623047" xlink:href="#DejaVuSans-48"/>
       <use x="127.246094" xlink:href="#DejaVuSans-50"/>
       <use x="190.869141" xlink:href="#DejaVuSans-49"/>
       <use x="254.492188" xlink:href="#DejaVuSans-45"/>
       <use x="290.576172" xlink:href="#DejaVuSans-48"/>
       <use x="354.199219" xlink:href="#DejaVuSans-51"/>
      </g>
     </g>
    </g>
    <g id="text_7">
     <!-- Reported On -->
     <defs>
      <path d="M 44.390625 34.1875 
Q 47.5625 33.109375 50.5625 29.59375 
Q 53.5625 26.078125 56.59375 19.921875 
L 66.609375 0 
L 56 0 
L 46.6875 18.703125 
Q 43.0625 26.03125 39.671875 28.421875 
Q 36.28125 30.8125 30.421875 30.8125 
L 19.671875 30.8125 
L 19.671875 0 
L 9.8125 0 
L 9.8125 72.90625 
L 32.078125 72.90625 
Q 44.578125 72.90625 50.734375 67.671875 
Q 56.890625 62.453125 56.890625 51.90625 
Q 56.890625 45.015625 53.6875 40.46875 
Q 50.484375 35.9375 44.390625 34.1875 
z
M 19.671875 64.796875 
L 19.671875 38.921875 
L 32.078125 38.921875 
Q 39.203125 38.921875 42.84375 42.21875 
Q 46.484375 45.515625 46.484375 51.90625 
Q 46.484375 58.296875 42.84375 61.546875 
Q 39.203125 64.796875 32.078125 64.796875 
z
" id="DejaVuSans-82"/>
      <path d="M 56.203125 29.59375 
L 56.203125 25.203125 
L 14.890625 25.203125 
Q 15.484375 15.921875 20.484375 11.0625 
Q 25.484375 6.203125 34.421875 6.203125 
Q 39.59375 6.203125 44.453125 7.46875 
Q 49.3125 8.734375 54.109375 11.28125 
L 54.109375 2.78125 
Q 49.265625 0.734375 44.1875 -0.34375 
Q 39.109375 -1.421875 33.890625 -1.421875 
Q 20.796875 -1.421875 13.15625 6.1875 
Q 5.515625 13.8125 5.515625 26.8125 
Q 5.515625 40.234375 12.765625 48.109375 
Q 20.015625 56 32.328125 56 
Q 43.359375 56 49.78125 48.890625 
Q 56.203125 41.796875 56.203125 29.59375 
z
M 47.21875 32.234375 
Q 47.125 39.59375 43.09375 43.984375 
Q 39.0625 48.390625 32.421875 48.390625 
Q 24.90625 48.390625 20.390625 44.140625 
Q 15.875 39.890625 15.1875 32.171875 
z
" id="DejaVuSans-101"/>
      <path d="M 18.109375 8.203125 
L 18.109375 -20.796875 
L 9.078125 -20.796875 
L 9.078125 54.6875 
L 18.109375 54.6875 
L 18.109375 46.390625 
Q 20.953125 51.265625 25.265625 53.625 
Q 29.59375 56 35.59375 56 
Q 45.5625 56 51.78125 48.09375 
Q 58.015625 40.1875 58.015625 27.296875 
Q 58.015625 14.40625 51.78125 6.484375 
Q 45.5625 -1.421875 35.59375 -1.421875 
Q 29.59375 -1.421875 25.265625 0.953125 
Q 20.953125 3.328125 18.109375 8.203125 
z
M 48.6875 27.296875 
Q 48.6875 37.203125 44.609375 42.84375 
Q 40.53125 48.484375 33.40625 48.484375 
Q 26.265625 48.484375 22.1875 42.84375 
Q 18.109375 37.203125 18.109375 27.296875 
Q 18.109375 17.390625 22.1875 11.75 
Q 26.265625 6.109375 33.40625 6.109375 
Q 40.53125 6.109375 44.609375 11.75 
Q 48.6875 17.390625 48.6875 27.296875 
z
" id="DejaVuSans-112"/>
      <path d="M 30.609375 48.390625 
Q 23.390625 48.390625 19.1875 42.75 
Q 14.984375 37.109375 14.984375 27.296875 
Q 14.984375 17.484375 19.15625 11.84375 
Q 23.34375 6.203125 30.609375 6.203125 
Q 37.796875 6.203125 41.984375 11.859375 
Q 46.1875 17.53125 46.1875 27.296875 
Q 46.1875 37.015625 41.984375 42.703125 
Q 37.796875 48.390625 30.609375 48.390625 
z
M 30.609375 56 
Q 42.328125 56 49.015625 48.375 
Q 55.71875 40.765625 55.71875 27.296875 
Q 55.71875 13.875 49.015625 6.21875 
Q 42.328125 -1.421875 30.609375 -1.421875 
Q 18.84375 -1.421875 12.171875 6.21875 
Q 5.515625 13.875 5.515625 27.296875 
Q 5.515625 40.765625 12.171875 48.375 
Q 18.84375 56 30.609375 56 
z
" id="DejaVuSans-111"/>
      <path d="M 41.109375 46.296875 
Q 39.59375 47.171875 37.8125 47.578125 
Q 36.03125 48 33.890625 48 
Q 26.265625 48 22.1875 43.046875 
Q 18.109375 38.09375 18.109375 28.8125 
L 18.109375 0 
L 9.078125 0 
L 9.078125 54.6875 
L 18.109375 54.6875 
L 18.109375 46.1875 
Q 20.953125 51.171875 25.484375 53.578125 
Q 30.03125 56 36.53125 56 
Q 37.453125 56 38.578125 55.875 
Q 39.703125 55.765625 41.0625 55.515625 
z
" id="DejaVuSans-114"/>
      <path d="M 18.3125 70.21875 
L 18.3125 54.6875 
L 36.8125 54.6875 
L 36.8125 47.703125 
L 18.3125 47.703125 
L 18.3125 18.015625 
Q 18.3125 11.328125 20.140625 9.421875 
Q 21.96875 7.515625 27.59375 7.515625 
L 36.8125 7.515625 
L 36.8125 0 
L 27.59375 0 
Q 17.1875 0 13.234375 3.875 
Q 9.28125 7.765625 9.28125 18.015625 
L 9.28125 47.703125 
L 2.6875 47.703125 
L 2.6875 54.6875 
L 9.28125 54.6875 
L 9.28125 70.21875 
z
" id="DejaVuSans-116"/>
      <path d="M 45.40625 46.390625 
L 45.40625 75.984375 
L 54.390625 75.984375 
L 54.390625 0 
L 45.40625 0 
L 45.40625 8.203125 
Q 42.578125 3.328125 38.25 0.953125 
Q 33.9375 -1.421875 27.875 -1.421875 
Q 17.96875 -1.421875 11.734375 6.484375 
Q 5.515625 14.40625 5.515625 27.296875 
Q 5.515625 40.1875 11.734375 48.09375 
Q 17.96875 56 27.875 56 
Q 33.9375 56 38.25 53.625 
Q 42.578125 51.265625 45.40625 46.390625 
z
M 14.796875 27.296875 
Q 14.796875 17.390625 18.875 11.75 
Q 22.953125 6.109375 30.078125 6.109375 
Q 37.203125 6.109375 41.296875 11.75 
Q 45.40625 17.390625 45.40625 27.296875 
Q 45.40625 37.203125 41.296875 42.84375 
Q 37.203125 48.484375 30.078125 48.484375 
Q 22.953125 48.484375 18.875 42.84375 
Q 14.796875 37.203125 14.796875 27.296875 
z
" id="DejaVuSans-100"/>
      <path id="DejaVuSans-32"/>
      <path d="M 39.40625 66.21875 
Q 28.65625 66.21875 22.328125 58.203125 
Q 16.015625 50.203125 16.015625 36.375 
Q 16.015625 22.609375 22.328125 14.59375 
Q 28.65625 6.59375 39.40625 6.59375 
Q 50.140625 6.59375 56.421875 14.59375 
Q 62.703125 22.609375 62.703125 36.375 
Q 62.703125 50.203125 56.421875 58.203125 
Q 50.140625 66.21875 39.40625 66.21875 
z
M 39.40625 74.21875 
Q 54.734375 74.21875 63.90625 63.9375 
Q 73.09375 53.65625 73.09375 36.375 
Q 73.09375 19.140625 63.90625 8.859375 
Q 54.734375 -1.421875 39.40625 -1.421875 
Q 24.03125 -1.421875 14.8125 8.828125 
Q 5.609375 19.09375 5.609375 36.375 
Q 5.609375 53.65625 14.8125 63.9375 
Q 24.03125 74.21875 39.40625 74.21875 
z
" id="DejaVuSans-79"/>
      <path d="M 54.890625 33.015625 
L 54.890625 0 
L 45.90625 0 
L 45.90625 32.71875 
Q 45.90625 40.484375 42.875 44.328125 
Q 39.84375 48.1875 33.796875 48.1875 
Q 26.515625 48.1875 22.3125 43.546875 
Q 18.109375 38.921875 18.109375 30.90625 
L 18.109375 0 
L 9.078125 0 
L 9.078125 54.6875 
L 18.109375 54.6875 
L 18.109375 46.1875 
Q 21.34375 51.125 25.703125 53.5625 
Q 30.078125 56 35.796875 56 
Q 45.21875 56 50.046875 50.171875 
Q 54.890625 44.34375 54.890625 33.015625 
z
" id="DejaVuSans-110"/>
     </defs>
     <g transform="translate(263.680469 412.756563)scale(0.1 -0.1)">
      <use xlink:href="#DejaVuSans-82"/>
      <use x="64.982422" xlink:href="#DejaVuSans-101"/>
      <use x="126.505859" xlink:href="#DejaVuSans-112"/>
      <use x="189.982422" xlink:href="#DejaVuSans-111"/>
      <use x="251.164062" xlink:href="#DejaVuSans-114"/>
      <use x="292.277344" xlink:href="#DejaVuSans-116"/>
      <use x="331.486328" xlink:href="#DejaVuSans-101"/>
      <use x="393.009766" xlink:href="#DejaVuSans-100"/>
      <use x="456.486328" xlink:href="#DejaVuSans-32"/>
      <use x="488.273438" xlink:href="#DejaVuSans-79"/>
      <use x="566.984375" xlink:href="#DejaVuSans-110"/>
     </g>
    </g>
   </g>
   <g id="matplotlib.axis_2">
    <g id="ytick_1">
     <g id="line2d_7">
      <defs>
       <path d="M 0 0 
L -3.5 0 
" id="m4118ee537e" style="stroke:#000000;stroke-width:0.8;"/>
      </defs>
      <g>
       <use style="stroke:#000000;stroke-width:0.8;" x="72" xlink:href="#m4118ee537e" y="369.562811"/>
      </g>
     </g>
     <g id="text_8">
      <!-- 0.00 % -->
      <defs>
       <path d="M 10.6875 12.40625 
L 21 12.40625 
L 21 0 
L 10.6875 0 
z
" id="DejaVuSans-46"/>
       <path d="M 72.703125 32.078125 
Q 68.453125 32.078125 66.03125 28.46875 
Q 63.625 24.859375 63.625 18.40625 
Q 63.625 12.0625 66.03125 8.421875 
Q 68.453125 4.78125 72.703125 4.78125 
Q 76.859375 4.78125 79.265625 8.421875 
Q 81.6875 12.0625 81.6875 18.40625 
Q 81.6875 24.8125 79.265625 28.4375 
Q 76.859375 32.078125 72.703125 32.078125 
z
M 72.703125 38.28125 
Q 80.421875 38.28125 84.953125 32.90625 
Q 89.5 27.546875 89.5 18.40625 
Q 89.5 9.28125 84.9375 3.921875 
Q 80.375 -1.421875 72.703125 -1.421875 
Q 64.890625 -1.421875 60.34375 3.921875 
Q 55.8125 9.28125 55.8125 18.40625 
Q 55.8125 27.59375 60.375 32.9375 
Q 64.9375 38.28125 72.703125 38.28125 
z
M 22.3125 68.015625 
Q 18.109375 68.015625 15.6875 64.375 
Q 13.28125 60.75 13.28125 54.390625 
Q 13.28125 47.953125 15.671875 44.328125 
Q 18.0625 40.71875 22.3125 40.71875 
Q 26.5625 40.71875 28.96875 44.328125 
Q 31.390625 47.953125 31.390625 54.390625 
Q 31.390625 60.6875 28.953125 64.34375 
Q 26.515625 68.015625 22.3125 68.015625 
z
M 66.40625 74.21875 
L 74.21875 74.21875 
L 28.609375 -1.421875 
L 20.796875 -1.421875 
z
M 22.3125 74.21875 
Q 30.03125 74.21875 34.609375 68.875 
Q 39.203125 63.53125 39.203125 54.390625 
Q 39.203125 45.171875 34.640625 39.84375 
Q 30.078125 34.515625 22.3125 34.515625 
Q 14.546875 34.515625 10.03125 39.859375 
Q 5.515625 45.21875 5.515625 54.390625 
Q 5.515625 63.484375 10.046875 68.84375 
Q 14.59375 74.21875 22.3125 74.21875 
z
" id="DejaVuSans-37"/>
      </defs>
      <g transform="translate(30.054688 373.362029)scale(0.1 -0.1)">
       <use xlink:href="#DejaVuSans-48"/>
       <use x="63.623047" xlink:href="#DejaVuSans-46"/>
       <use x="95.410156" xlink:href="#DejaVuSans-48"/>
       <use x="159.033203" xlink:href="#DejaVuSans-48"/>
       <use x="222.65625" xlink:href="#DejaVuSans-32"/>
       <use x="254.443359" xlink:href="#DejaVuSans-37"/>
      </g>
     </g>
    </g>
    <g id="ytick_2">
     <g id="line2d_8">
      <g>
       <use style="stroke:#000000;stroke-width:0.8;" x="72" xlink:href="#m4118ee537e" y="309.36868"/>
      </g>
     </g>
     <g id="text_9">
      <!-- 10.00 % -->
      <g transform="translate(23.692187 313.167899)scale(0.1 -0.1)">
       <use xlink:href="#DejaVuSans-49"/>
       <use x="63.623047" xlink:href="#DejaVuSans-48"/>
       <use x="127.246094" xlink:href="#DejaVuSans-46"/>
       <use x="159.033203" xlink:href="#DejaVuSans-48"/>
       <use x="222.65625" xlink:href="#DejaVuSans-48"/>
       <use x="286.279297" xlink:href="#DejaVuSans-32"/>
       <use x="318.066406" xlink:href="#DejaVuSans-37"/>
      </g>
     </g>
    </g>
    <g id="ytick_3">
     <g id="line2d_9">
      <g>
       <use style="stroke:#000000;stroke-width:0.8;" x="72" xlink:href="#m4118ee537e" y="249.174549"/>
      </g>
     </g>
     <g id="text_10">
      <!-- 20.00 % -->
      <g transform="translate(23.692187 252.973768)scale(0.1 -0.1)">
       <use xlink:href="#DejaVuSans-50"/>
       <use x="63.623047" xlink:href="#DejaVuSans-48"/>
       <use x="127.246094" xlink:href="#DejaVuSans-46"/>
       <use x="159.033203" xlink:href="#DejaVuSans-48"/>
       <use x="222.65625" xlink:href="#DejaVuSans-48"/>
       <use x="286.279297" xlink:href="#DejaVuSans-32"/>
       <use x="318.066406" xlink:href="#DejaVuSans-37"/>
      </g>
     </g>
    </g>
    <g id="ytick_4">
     <g id="line2d_10">
      <g>
       <use style="stroke:#000000;stroke-width:0.8;" x="72" xlink:href="#m4118ee537e" y="188.980418"/>
      </g>
     </g>
     <g id="text_11">
      <!-- 30.00 % -->
      <g transform="translate(23.692187 192.779637)scale(0.1 -0.1)">
       <use xlink:href="#DejaVuSans-51"/>
       <use x="63.623047" xlink:href="#DejaVuSans-48"/>
       <use x="127.246094" xlink:href="#DejaVuSans-46"/>
       <use x="159.033203" xlink:href="#DejaVuSans-48"/>
       <use x="222.65625" xlink:href="#DejaVuSans-48"/>
       <use x="286.279297" xlink:href="#DejaVuSans-32"/>
       <use x="318.066406" xlink:href="#DejaVuSans-37"/>
      </g>
     </g>
    </g>
    <g id="ytick_5">
     <g id="line2d_11">
      <g>
       <use style="stroke:#000000;stroke-width:0.8;" x="72" xlink:href="#m4118ee537e" y="128.786287"/>
      </g>
     </g>
     <g id="text_12">
      <!-- 40.00 % -->
      <defs>
       <path d="M 37.796875 64.3125 
L 12.890625 25.390625 
L 37.796875 25.390625 
z
M 35.203125 72.90625 
L 47.609375 72.90625 
L 47.609375 25.390625 
L 58.015625 25.390625 
L 58.015625 17.1875 
L 47.609375 17.1875 
L 47.609375 0 
L 37.796875 0 
L 37.796875 17.1875 
L 4.890625 17.1875 
L 4.890625 26.703125 
z
" id="DejaVuSans-52"/>
      </defs>
      <g transform="translate(23.692187 132.585506)scale(0.1 -0.1)">
       <use xlink:href="#DejaVuSans-52"/>
       <use x="63.623047" xlink:href="#DejaVuSans-48"/>
       <use x="127.246094" xlink:href="#DejaVuSans-46"/>
       <use x="159.033203" xlink:href="#DejaVuSans-48"/>
       <use x="222.65625" xlink:href="#DejaVuSans-48"/>
       <use x="286.279297" xlink:href="#DejaVuSans-32"/>
       <use x="318.066406" xlink:href="#DejaVuSans-37"/>
      </g>
     </g>
    </g>
    <g id="ytick_6">
     <g id="line2d_12">
      <g>
       <use style="stroke:#000000;stroke-width:0.8;" x="72" xlink:href="#m4118ee537e" y="68.592157"/>
      </g>
     </g>
     <g id="text_13">
      <!-- 50.00 % -->
      <g transform="translate(23.692187 72.391375)scale(0.1 -0.1)">
       <use xlink:href="#DejaVuSans-53"/>
       <use x="63.623047" xlink:href="#DejaVuSans-48"/>
       <use x="127.246094" xlink:href="#DejaVuSans-46"/>
       <use x="159.033203" xlink:href="#DejaVuSans-48"/>
       <use x="222.65625" xlink:href="#DejaVuSans-48"/>
       <use x="286.279297" xlink:href="#DejaVuSans-32"/>
       <use x="318.066406" xlink:href="#DejaVuSans-37"/>
      </g>
     </g>
    </g>
    <g id="text_14">
     <!-- Rate -->
     <defs>
      <path d="M 34.28125 27.484375 
Q 23.390625 27.484375 19.1875 25 
Q 14.984375 22.515625 14.984375 16.5 
Q 14.984375 11.71875 18.140625 8.90625 
Q 21.296875 6.109375 26.703125 6.109375 
Q 34.1875 6.109375 38.703125 11.40625 
Q 43.21875 16.703125 43.21875 25.484375 
L 43.21875 27.484375 
z
M 52.203125 31.203125 
L 52.203125 0 
L 43.21875 0 
L 43.21875 8.296875 
Q 40.140625 3.328125 35.546875 0.953125 
Q 30.953125 -1.421875 24.3125 -1.421875 
Q 15.921875 -1.421875 10.953125 3.296875 
Q 6 8.015625 6 15.921875 
Q 6 25.140625 12.171875 29.828125 
Q 18.359375 34.515625 30.609375 34.515625 
L 43.21875 34.515625 
L 43.21875 35.40625 
Q 43.21875 41.609375 39.140625 45 
Q 35.0625 48.390625 27.6875 48.390625 
Q 23 48.390625 18.546875 47.265625 
Q 14.109375 46.140625 10.015625 43.890625 
L 10.015625 52.203125 
Q 14.9375 54.109375 19.578125 55.046875 
Q 24.21875 56 28.609375 56 
Q 40.484375 56 46.34375 49.84375 
Q 52.203125 43.703125 52.203125 31.203125 
z
" id="DejaVuSans-97"/>
     </defs>
     <g transform="translate(17.6125 229.6225)rotate(-90)scale(0.1 -0.1)">
      <use xlink:href="#DejaVuSans-82"/>
      <use x="67.232422" xlink:href="#DejaVuSans-97"/>
      <use x="128.511719" xlink:href="#DejaVuSans-116"/>
      <use x="167.720703" xlink:href="#DejaVuSans-101"/>
     </g>
    </g>
   </g>
   <g id="line2d_13">
    <path clip-path="url(#p361d10ae2b)" d="M 498.109091 359.585009 
L 496.975521 360.353109 
L 495.84195 360.173401 
L 493.57481 360.844621 
L 492.441239 360.789025 
L 487.906958 361.737157 
L 486.773388 361.816562 
L 484.506247 361.656085 
L 483.372676 361.443221 
L 482.239106 361.518784 
L 479.971965 361.325405 
L 477.704825 361.921142 
L 476.571254 362.513554 
L 475.437684 362.942871 
L 474.304114 362.955747 
L 472.036973 363.407586 
L 469.769832 363.477926 
L 467.502692 362.843703 
L 466.369121 362.992054 
L 465.235551 362.834644 
L 462.96841 363.0436 
L 461.83484 362.750095 
L 460.70127 362.809358 
L 457.300559 362.296607 
L 455.033418 361.507573 
L 453.899848 361.458021 
L 451.632707 360.787531 
L 450.499137 360.660042 
L 449.365566 360.279898 
L 448.231996 359.778021 
L 447.098426 358.303843 
L 445.964855 357.784855 
L 444.831285 357.060449 
L 443.697715 356.980765 
L 441.430574 356.260996 
L 440.297004 356.149297 
L 439.163433 356.295266 
L 438.029863 353.573194 
L 436.896293 353.80546 
L 435.762722 352.34867 
L 434.629152 351.310724 
L 433.495582 349.139544 
L 432.362011 348.910742 
L 431.228441 349.711561 
L 430.09487 351.380097 
L 428.9613 349.704703 
L 427.82773 349.994703 
L 426.694159 349.85639 
L 425.560589 351.638143 
L 424.427019 351.609943 
L 423.293448 350.705103 
L 422.159878 350.568128 
L 421.026308 351.719535 
L 418.759167 350.732867 
L 417.625597 350.363732 
L 416.492026 350.622119 
L 415.358456 351.279219 
L 414.224886 349.942832 
L 413.091315 348.139749 
L 411.957745 348.058996 
L 410.824175 348.198271 
L 409.690604 347.562418 
L 408.557034 345.286343 
L 407.423464 343.653907 
L 406.289893 343.730314 
L 405.156323 344.144233 
L 402.889182 344.136416 
L 401.755612 342.625845 
L 400.622042 343.728623 
L 398.354901 344.129706 
L 397.221331 344.741983 
L 396.08776 344.632858 
L 394.95419 345.084002 
L 393.82062 345.81798 
L 392.687049 346.037161 
L 391.553479 346.028577 
L 390.419909 346.87957 
L 389.286338 347.278842 
L 388.152768 348.242743 
L 387.019198 348.493492 
L 385.885627 349.427744 
L 384.752057 349.058022 
L 383.618487 349.588102 
L 382.484916 350.512364 
L 381.351346 351.276044 
L 380.217776 351.783201 
L 379.084205 352.715373 
L 377.950635 353.349378 
L 376.817064 355.002752 
L 375.683494 356.13051 
L 374.549924 356.719905 
L 373.416353 356.99888 
L 372.282783 356.757316 
L 371.149213 356.355931 
L 370.015642 357.290666 
L 367.748502 357.2936 
L 366.614931 356.719831 
L 365.481361 356.619916 
L 364.347791 357.334668 
L 363.21422 357.78098 
L 360.94708 357.378202 
L 358.679939 358.279208 
L 356.412798 359.449553 
L 355.279228 360.132106 
L 354.145658 361.251902 
L 351.878517 362.384782 
L 350.744947 362.26586 
L 348.477806 361.209206 
L 347.344236 361.013943 
L 346.210665 360.361885 
L 345.077095 360.042641 
L 343.943525 359.282481 
L 341.676384 360.456805 
L 340.542814 359.673655 
L 339.409243 359.325051 
L 338.275673 359.637173 
L 337.142103 359.348703 
L 336.008532 360.009574 
L 334.874962 360.189973 
L 333.741392 359.635023 
L 332.607821 360.83794 
L 331.474251 361.108333 
L 330.340681 361.153496 
L 329.20711 362.278163 
L 326.93997 362.745802 
L 325.806399 363.464262 
L 324.672829 363.478503 
L 323.539259 363.787831 
L 322.405688 363.840985 
L 321.272118 363.468859 
L 320.138547 362.94017 
L 319.004977 363.088136 
L 317.871407 363.677953 
L 316.737836 363.572978 
L 315.604266 363.887334 
L 314.470696 364.385052 
L 313.337125 364.059501 
L 312.203555 365.19812 
L 309.936414 365.269925 
L 308.802844 365.936515 
L 307.669274 365.574714 
L 306.535703 365.418897 
L 305.402133 366.128932 
L 303.134992 365.490905 
L 302.001422 364.668587 
L 300.867852 364.271473 
L 299.734281 364.528844 
L 298.600711 363.771828 
L 297.467141 364.067619 
L 294.06643 363.972238 
L 292.932859 363.721477 
L 291.799289 363.197463 
L 290.665719 364.02592 
L 289.532148 363.536414 
L 288.398578 363.329173 
L 287.265008 363.686432 
L 286.131437 364.333903 
L 283.864297 364.608492 
L 282.730726 364.304507 
L 281.597156 364.362606 
L 280.463586 364.974783 
L 279.330015 365.057328 
L 278.196445 365.463292 
L 277.062875 366.153489 
L 275.929304 366.357096 
L 273.662164 367.323319 
L 271.395023 366.730156 
L 270.261453 366.659143 
L 269.127882 365.190389 
L 267.994312 364.518378 
L 266.860741 364.497881 
L 265.727171 363.997911 
L 262.32646 363.567937 
L 260.059319 364.203919 
L 258.925749 363.411276 
L 257.792179 363.547835 
L 256.658608 363.821598 
L 255.525038 364.214458 
L 254.391468 364.116456 
L 253.257897 364.832889 
L 252.124327 365.195492 
L 250.990757 365.810572 
L 249.857186 365.509926 
L 248.723616 364.524766 
L 247.590046 364.697887 
L 246.456475 363.960105 
L 245.322905 363.420406 
L 244.189335 363.035698 
L 243.055764 362.263874 
L 241.922194 362.623097 
L 240.788624 362.199973 
L 239.655053 360.788005 
L 238.521483 360.486999 
L 237.387913 359.076009 
L 236.254342 358.982392 
L 235.120772 359.471073 
L 233.987202 359.480538 
L 232.853631 360.427291 
L 231.720061 360.8186 
L 230.586491 361.421838 
L 229.45292 363.277138 
L 226.052209 365.138923 
L 224.918639 365.354693 
L 223.785069 366.526987 
L 221.517928 367.00361 
L 220.384358 366.818635 
L 219.250787 366.815807 
L 218.117217 366.632508 
L 216.983647 366.880942 
L 215.850076 366.78141 
L 213.582936 367.017418 
L 212.449365 367.099222 
L 211.315795 366.72515 
L 210.182224 366.52912 
L 209.048654 365.851701 
L 207.915084 365.740332 
L 206.781513 364.744887 
L 205.647943 364.821168 
L 204.514373 364.511435 
L 203.380802 363.290311 
L 202.247232 363.15415 
L 201.113662 363.98143 
L 199.980091 364.35556 
L 198.846521 365.991711 
L 197.712951 366.182358 
L 196.57938 366.769334 
L 195.44581 368.353061 
L 194.31224 368.955808 
L 193.178669 369.258774 
L 192.045099 369.36 
L 189.777958 369.258055 
L 187.510818 369.359521 
L 186.377247 368.232753 
L 185.243677 368.02629 
L 184.110107 367.611872 
L 179.575825 367.08509 
L 178.442255 367.686555 
L 177.308685 367.364488 
L 176.175114 366.926442 
L 175.041544 365.621948 
L 173.907974 365.507864 
L 172.774403 363.72697 
L 171.640833 363.375256 
L 170.507263 362.653459 
L 169.373692 362.723977 
L 167.106552 363.816636 
L 165.972981 363.91829 
L 164.839411 365.557154 
L 163.705841 366.000858 
L 162.57227 367.130562 
L 161.4387 366.643602 
L 160.30513 366.392795 
L 159.171559 367.080406 
L 158.037989 366.474382 
L 156.904418 366.339986 
L 155.770848 365.846915 
L 154.637278 364.978722 
L 153.503707 364.675608 
L 152.370137 363.877386 
L 151.236567 363.73274 
L 150.102996 362.770469 
L 147.835856 363.20899 
L 146.702285 363.665397 
L 145.568715 364.247394 
L 143.301574 363.584152 
L 142.168004 364.578346 
L 141.034434 362.876511 
L 139.900863 361.840429 
L 138.767293 357.471438 
L 137.633723 357.216179 
L 136.500152 356.783554 
L 135.366582 356.192413 
L 134.233012 356.883112 
L 133.099441 355.904151 
L 131.965871 355.824857 
L 130.832301 359.701334 
L 129.69873 360.622682 
L 128.56516 361.081406 
L 127.43159 360.77016 
L 126.298019 360.234385 
L 125.164449 363.177351 
L 124.030879 367.159695 
L 122.897308 364.445903 
L 121.763738 361.298388 
L 120.630168 356.771965 
L 119.496597 358.359548 
L 118.363027 355.164981 
L 117.229457 353.884685 
L 116.095886 351.412477 
L 114.962316 348.2112 
L 113.828746 346.812898 
L 112.695175 350.069581 
L 111.561605 350.069581 
L 110.428035 346.363918 
L 109.294464 345.963543 
L 108.160894 337.029049 
L 107.027324 331.853254 
L 105.893753 328.45574 
L 104.760183 319.575981 
L 103.626612 306.320315 
L 102.493042 311.606417 
L 101.359472 299.758865 
L 100.225901 291.082757 
L 99.092331 289.678673 
L 97.958761 282.672626 
L 96.82519 255.217695 
L 95.69162 221.631391 
L 94.55805 113.036623 
L 93.424479 66.96 
L 92.290909 84.570602 
L 92.290909 84.570602 
" style="fill:none;stroke:#1f77b4;stroke-linecap:square;stroke-width:1.5;"/>
   </g>
   <g id="line2d_14">
    <path clip-path="url(#p361d10ae2b)" d="M 498.109091 361.125175 
L 496.975521 361.444169 
L 495.84195 361.563109 
L 491.307669 361.441707 
L 490.174099 361.651581 
L 489.040528 361.74325 
L 486.773388 362.557683 
L 485.639817 362.778877 
L 483.372676 362.891453 
L 482.239106 362.819609 
L 481.105536 363.093276 
L 479.971965 362.976101 
L 478.838395 363.083144 
L 477.704825 362.952826 
L 475.437684 363.164584 
L 472.036973 362.803157 
L 468.636262 361.832517 
L 467.502692 361.680185 
L 465.235551 360.983514 
L 464.101981 360.951403 
L 462.96841 360.796488 
L 461.83484 360.801915 
L 460.70127 360.344059 
L 459.567699 360.08193 
L 458.434129 359.527897 
L 456.166988 357.885552 
L 455.033418 356.946825 
L 451.632707 355.411566 
L 450.499137 354.97119 
L 449.365566 354.748514 
L 448.231996 354.17476 
L 447.098426 353.901719 
L 445.964855 353.184065 
L 444.831285 352.850301 
L 443.697715 352.151672 
L 442.564144 352.169603 
L 441.430574 351.49064 
L 440.297004 351.342343 
L 439.163433 350.944876 
L 438.029863 349.70751 
L 436.896293 349.400121 
L 435.762722 349.76351 
L 434.629152 349.855783 
L 433.495582 349.736405 
L 432.362011 349.112039 
L 431.228441 349.126105 
L 430.09487 350.13344 
L 428.9613 349.513289 
L 427.82773 349.795229 
L 426.694159 349.890169 
L 425.560589 349.754269 
L 422.159878 348.826786 
L 421.026308 348.812618 
L 419.892737 347.094603 
L 418.759167 344.993066 
L 417.625597 344.058997 
L 416.492026 344.713853 
L 415.358456 344.303686 
L 414.224886 343.284587 
L 413.091315 342.477905 
L 411.957745 342.034613 
L 410.824175 342.808824 
L 409.690604 343.404416 
L 408.557034 343.053074 
L 407.423464 343.396712 
L 405.156323 345.447275 
L 404.022753 345.834776 
L 401.755612 346.99631 
L 400.622042 347.272668 
L 399.488471 347.754262 
L 398.354901 348.092804 
L 397.221331 348.785204 
L 396.08776 349.811656 
L 394.95419 349.960833 
L 391.553479 352.396544 
L 389.286338 353.320678 
L 388.152768 353.694111 
L 387.019198 354.871086 
L 385.885627 355.195979 
L 384.752057 355.690202 
L 383.618487 356.0174 
L 382.484916 356.172599 
L 381.351346 355.957969 
L 380.217776 356.982106 
L 379.084205 356.812831 
L 377.950635 357.114968 
L 376.817064 356.957243 
L 374.549924 357.360131 
L 373.416353 358.064179 
L 372.282783 357.831832 
L 371.149213 358.450073 
L 370.015642 358.259849 
L 367.748502 359.727476 
L 366.614931 360.905934 
L 365.481361 361.094247 
L 364.347791 361.583996 
L 363.21422 361.48123 
L 362.08065 361.861148 
L 359.813509 361.156062 
L 358.679939 360.496481 
L 357.546369 360.389244 
L 356.412798 359.355411 
L 355.279228 358.939967 
L 354.145658 358.750446 
L 353.012087 359.298716 
L 351.878517 359.526084 
L 348.477806 361.175845 
L 347.344236 360.872909 
L 346.210665 360.390648 
L 345.077095 359.064326 
L 342.809954 358.124782 
L 341.676384 357.83469 
L 340.542814 358.542648 
L 339.409243 360.058561 
L 338.275673 359.714287 
L 337.142103 361.566237 
L 336.008532 362.27896 
L 334.874962 362.768842 
L 333.741392 363.103636 
L 332.607821 362.334501 
L 331.474251 362.632136 
L 330.340681 364.291961 
L 329.20711 364.13087 
L 326.93997 364.397789 
L 325.806399 364.711285 
L 324.672829 365.591873 
L 323.539259 365.110058 
L 322.405688 365.034687 
L 321.272118 365.286484 
L 319.004977 364.936229 
L 317.871407 364.518282 
L 316.737836 364.473627 
L 315.604266 363.975724 
L 313.337125 364.013039 
L 312.203555 363.149915 
L 311.069985 363.082973 
L 308.802844 363.419753 
L 307.669274 364.066104 
L 306.535703 364.186584 
L 305.402133 364.006334 
L 304.268563 364.445578 
L 303.134992 364.113071 
L 302.001422 364.16972 
L 300.867852 363.795241 
L 297.467141 363.276759 
L 294.06643 365.63401 
L 291.799289 366.437603 
L 290.665719 367.065074 
L 287.265008 366.903978 
L 286.131437 366.176175 
L 284.997867 366.152609 
L 283.864297 364.651133 
L 282.730726 363.77302 
L 281.597156 363.782786 
L 280.463586 363.102642 
L 279.330015 362.629787 
L 278.196445 362.624241 
L 277.062875 362.307738 
L 275.929304 362.949798 
L 274.795734 363.015386 
L 273.662164 362.748685 
L 272.528593 363.482424 
L 271.395023 363.220163 
L 270.261453 363.437401 
L 269.127882 363.368737 
L 267.994312 364.282183 
L 266.860741 364.663672 
L 265.727171 364.821636 
L 264.593601 365.159305 
L 263.46003 364.886246 
L 261.19289 365.245864 
L 260.059319 364.013039 
L 257.792179 362.988446 
L 256.658608 361.868302 
L 255.525038 361.993134 
L 254.391468 361.05421 
L 253.257897 359.799483 
L 252.124327 360.3752 
L 249.857186 361.241192 
L 248.723616 361.111529 
L 247.590046 361.261904 
L 246.456475 361.84153 
L 245.322905 363.287082 
L 244.189335 364.030048 
L 243.055764 364.536755 
L 240.788624 366.15498 
L 237.387913 367.364822 
L 236.254342 367.171446 
L 235.120772 367.168885 
L 233.987202 366.885453 
L 232.853631 367.338765 
L 231.720061 367.229742 
L 229.45292 367.307163 
L 228.31935 367.103037 
L 227.18578 367.196354 
L 224.918639 365.919365 
L 223.785069 365.8907 
L 222.651498 365.675522 
L 221.517928 365.167052 
L 220.384358 364.929477 
L 219.250787 364.013039 
L 218.117217 364.6705 
L 216.983647 364.520826 
L 214.716506 365.387146 
L 212.449365 366.364193 
L 211.315795 367.280631 
L 210.182224 367.588294 
L 209.048654 368.517942 
L 206.781513 368.618415 
L 203.380802 369.246858 
L 199.980091 369.03363 
L 197.712951 367.101152 
L 196.57938 366.771327 
L 195.44581 366.228134 
L 194.31224 365.893854 
L 193.178669 365.007335 
L 192.045099 363.857193 
L 190.911529 364.36302 
L 189.777958 363.490292 
L 188.644388 362.988446 
L 187.510818 362.95358 
L 186.377247 362.799159 
L 185.243677 362.242428 
L 184.110107 362.471574 
L 182.976536 362.059823 
L 181.842966 363.654967 
L 180.709396 364.091534 
L 179.575825 364.186584 
L 178.442255 364.528316 
L 177.308685 362.619144 
L 176.175114 363.436188 
L 175.041544 362.700547 
L 172.774403 360.711661 
L 171.640833 360.810352 
L 170.507263 359.228716 
L 169.373692 361.288007 
L 168.240122 360.942545 
L 167.106552 361.218545 
L 165.972981 360.94208 
L 164.839411 361.700235 
L 163.705841 361.059272 
L 162.57227 362.119445 
L 161.4387 362.474477 
L 160.30513 363.032508 
L 159.171559 362.282847 
L 158.037989 362.313806 
L 156.904418 362.080562 
L 155.770848 362.332367 
L 154.637278 361.924921 
L 153.503707 360.450272 
L 152.370137 359.710135 
L 151.236567 358.540819 
L 150.102996 356.06016 
L 148.969426 356.085087 
L 146.702285 356.561683 
L 145.568715 355.340443 
L 144.435145 355.358262 
L 143.301574 354.762158 
L 142.168004 356.946015 
L 141.034434 355.427177 
L 139.900863 354.662895 
L 138.767293 355.412943 
L 137.633723 355.478303 
L 136.500152 348.900759 
L 135.366582 349.772036 
L 134.233012 351.536029 
L 133.099441 349.799139 
L 131.965871 349.79134 
L 130.832301 347.651731 
L 129.69873 351.22036 
L 128.56516 350.639334 
L 127.43159 349.54616 
L 126.298019 343.439806 
L 125.164449 347.662829 
L 124.030879 342.251551 
L 122.897308 341.347616 
L 121.763738 335.295458 
L 120.630168 322.263437 
L 119.496597 326.326789 
L 118.363027 300.939196 
L 117.229457 291.326072 
L 116.095886 297.899417 
L 114.962316 274.252416 
L 113.828746 272.361243 
L 112.695175 258.026248 
L 111.561605 258.026248 
L 111.561605 258.026248 
" style="fill:none;stroke:#ff7f0e;stroke-linecap:square;stroke-width:1.5;"/>
   </g>
   <g id="patch_3">
    <path d="M 72 384.48 
L 72 51.84 
" style="fill:none;stroke:#000000;stroke-linecap:square;stroke-linejoin:miter;stroke-width:0.8;"/>
   </g>
   <g id="patch_4">
    <path d="M 518.4 384.48 
L 518.4 51.84 
" style="fill:none;stroke:#000000;stroke-linecap:square;stroke-linejoin:miter;stroke-width:0.8;"/>
   </g>
   <g id="patch_5">
    <path d="M 72 384.48 
L 518.4 384.48 
" style="fill:none;stroke:#000000;stroke-linecap:square;stroke-linejoin:miter;stroke-width:0.8;"/>
   </g>
   <g id="patch_6">
    <path d="M 72 51.84 
L 518.4 51.84 
" style="fill:none;stroke:#000000;stroke-linecap:square;stroke-linejoin:miter;stroke-width:0.8;"/>
   </g>
   <g id="text_15">
    <!-- Growth Rate -->
    <defs>
     <path d="M 59.515625 10.40625 
L 59.515625 29.984375 
L 43.40625 29.984375 
L 43.40625 38.09375 
L 69.28125 38.09375 
L 69.28125 6.78125 
Q 63.578125 2.734375 56.6875 0.65625 
Q 49.8125 -1.421875 42 -1.421875 
Q 24.90625 -1.421875 15.25 8.5625 
Q 5.609375 18.5625 5.609375 36.375 
Q 5.609375 54.25 15.25 64.234375 
Q 24.90625 74.21875 42 74.21875 
Q 49.125 74.21875 55.546875 72.453125 
Q 61.96875 70.703125 67.390625 67.28125 
L 67.390625 56.78125 
Q 61.921875 61.421875 55.765625 63.765625 
Q 49.609375 66.109375 42.828125 66.109375 
Q 29.4375 66.109375 22.71875 58.640625 
Q 16.015625 51.171875 16.015625 36.375 
Q 16.015625 21.625 22.71875 14.15625 
Q 29.4375 6.6875 42.828125 6.6875 
Q 48.046875 6.6875 52.140625 7.59375 
Q 56.25 8.5 59.515625 10.40625 
z
" id="DejaVuSans-71"/>
     <path d="M 4.203125 54.6875 
L 13.1875 54.6875 
L 24.421875 12.015625 
L 35.59375 54.6875 
L 46.1875 54.6875 
L 57.421875 12.015625 
L 68.609375 54.6875 
L 77.59375 54.6875 
L 63.28125 0 
L 52.6875 0 
L 40.921875 44.828125 
L 29.109375 0 
L 18.5 0 
z
" id="DejaVuSans-119"/>
     <path d="M 54.890625 33.015625 
L 54.890625 0 
L 45.90625 0 
L 45.90625 32.71875 
Q 45.90625 40.484375 42.875 44.328125 
Q 39.84375 48.1875 33.796875 48.1875 
Q 26.515625 48.1875 22.3125 43.546875 
Q 18.109375 38.921875 18.109375 30.90625 
L 18.109375 0 
L 9.078125 0 
L 9.078125 75.984375 
L 18.109375 75.984375 
L 18.109375 46.1875 
Q 21.34375 51.125 25.703125 53.5625 
Q 30.078125 56 35.796875 56 
Q 45.21875 56 50.046875 50.171875 
Q 54.890625 44.34375 54.890625 33.015625 
z
" id="DejaVuSans-104"/>
    </defs>
    <g transform="translate(257.824687 45.84)scale(0.12 -0.12)">
     <use xlink:href="#DejaVuSans-71"/>
     <use x="77.490234" xlink:href="#DejaVuSans-114"/>
     <use x="116.353516" xlink:href="#DejaVuSans-111"/>
     <use x="177.535156" xlink:href="#DejaVuSans-119"/>
     <use x="259.322266" xlink:href="#DejaVuSans-116"/>
     <use x="298.53125" xlink:href="#DejaVuSans-104"/>
     <use x="361.910156" xlink:href="#DejaVuSans-32"/>
     <use x="393.697266" xlink:href="#DejaVuSans-82"/>
     <use x="460.929688" xlink:href="#DejaVuSans-97"/>
     <use x="522.208984" xlink:href="#DejaVuSans-116"/>
     <use x="561.417969" xlink:href="#DejaVuSans-101"/>
    </g>
   </g>
   <g id="legend_1">
    <g id="patch_7">
     <path d="M 291.595312 89.19625 
L 511.4 89.19625 
Q 513.4 89.19625 513.4 87.19625 
L 513.4 58.84 
Q 513.4 56.84 511.4 56.84 
L 291.595312 56.84 
Q 289.595312 56.84 289.595312 58.84 
L 289.595312 87.19625 
Q 289.595312 89.19625 291.595312 89.19625 
z
" style="fill:#ffffff;opacity:0.8;stroke:#cccccc;stroke-linejoin:miter;"/>
    </g>
    <g id="line2d_15">
     <path d="M 293.595312 64.938437 
L 313.595312 64.938437 
" style="fill:none;stroke:#1f77b4;stroke-linecap:square;stroke-width:1.5;"/>
    </g>
    <g id="line2d_16"/>
    <g id="text_16">
     <!-- Confirmed Growth Rate (over 7 days) -->
     <defs>
      <path d="M 64.40625 67.28125 
L 64.40625 56.890625 
Q 59.421875 61.53125 53.78125 63.8125 
Q 48.140625 66.109375 41.796875 66.109375 
Q 29.296875 66.109375 22.65625 58.46875 
Q 16.015625 50.828125 16.015625 36.375 
Q 16.015625 21.96875 22.65625 14.328125 
Q 29.296875 6.6875 41.796875 6.6875 
Q 48.140625 6.6875 53.78125 8.984375 
Q 59.421875 11.28125 64.40625 15.921875 
L 64.40625 5.609375 
Q 59.234375 2.09375 53.4375 0.328125 
Q 47.65625 -1.421875 41.21875 -1.421875 
Q 24.65625 -1.421875 15.125 8.703125 
Q 5.609375 18.84375 5.609375 36.375 
Q 5.609375 53.953125 15.125 64.078125 
Q 24.65625 74.21875 41.21875 74.21875 
Q 47.75 74.21875 53.53125 72.484375 
Q 59.328125 70.75 64.40625 67.28125 
z
" id="DejaVuSans-67"/>
      <path d="M 37.109375 75.984375 
L 37.109375 68.5 
L 28.515625 68.5 
Q 23.6875 68.5 21.796875 66.546875 
Q 19.921875 64.59375 19.921875 59.515625 
L 19.921875 54.6875 
L 34.71875 54.6875 
L 34.71875 47.703125 
L 19.921875 47.703125 
L 19.921875 0 
L 10.890625 0 
L 10.890625 47.703125 
L 2.296875 47.703125 
L 2.296875 54.6875 
L 10.890625 54.6875 
L 10.890625 58.5 
Q 10.890625 67.625 15.140625 71.796875 
Q 19.390625 75.984375 28.609375 75.984375 
z
" id="DejaVuSans-102"/>
      <path d="M 9.421875 54.6875 
L 18.40625 54.6875 
L 18.40625 0 
L 9.421875 0 
z
M 9.421875 75.984375 
L 18.40625 75.984375 
L 18.40625 64.59375 
L 9.421875 64.59375 
z
" id="DejaVuSans-105"/>
      <path d="M 52 44.1875 
Q 55.375 50.25 60.0625 53.125 
Q 64.75 56 71.09375 56 
Q 79.640625 56 84.28125 50.015625 
Q 88.921875 44.046875 88.921875 33.015625 
L 88.921875 0 
L 79.890625 0 
L 79.890625 32.71875 
Q 79.890625 40.578125 77.09375 44.375 
Q 74.3125 48.1875 68.609375 48.1875 
Q 61.625 48.1875 57.5625 43.546875 
Q 53.515625 38.921875 53.515625 30.90625 
L 53.515625 0 
L 44.484375 0 
L 44.484375 32.71875 
Q 44.484375 40.625 41.703125 44.40625 
Q 38.921875 48.1875 33.109375 48.1875 
Q 26.21875 48.1875 22.15625 43.53125 
Q 18.109375 38.875 18.109375 30.90625 
L 18.109375 0 
L 9.078125 0 
L 9.078125 54.6875 
L 18.109375 54.6875 
L 18.109375 46.1875 
Q 21.1875 51.21875 25.484375 53.609375 
Q 29.78125 56 35.6875 56 
Q 41.65625 56 45.828125 52.96875 
Q 50 49.953125 52 44.1875 
z
" id="DejaVuSans-109"/>
      <path d="M 31 75.875 
Q 24.46875 64.65625 21.28125 53.65625 
Q 18.109375 42.671875 18.109375 31.390625 
Q 18.109375 20.125 21.3125 9.0625 
Q 24.515625 -2 31 -13.1875 
L 23.1875 -13.1875 
Q 15.875 -1.703125 12.234375 9.375 
Q 8.59375 20.453125 8.59375 31.390625 
Q 8.59375 42.28125 12.203125 53.3125 
Q 15.828125 64.359375 23.1875 75.875 
z
" id="DejaVuSans-40"/>
      <path d="M 2.984375 54.6875 
L 12.5 54.6875 
L 29.59375 8.796875 
L 46.6875 54.6875 
L 56.203125 54.6875 
L 35.6875 0 
L 23.484375 0 
z
" id="DejaVuSans-118"/>
      <path d="M 32.171875 -5.078125 
Q 28.375 -14.84375 24.75 -17.8125 
Q 21.140625 -20.796875 15.09375 -20.796875 
L 7.90625 -20.796875 
L 7.90625 -13.28125 
L 13.1875 -13.28125 
Q 16.890625 -13.28125 18.9375 -11.515625 
Q 21 -9.765625 23.484375 -3.21875 
L 25.09375 0.875 
L 2.984375 54.6875 
L 12.5 54.6875 
L 29.59375 11.921875 
L 46.6875 54.6875 
L 56.203125 54.6875 
z
" id="DejaVuSans-121"/>
      <path d="M 44.28125 53.078125 
L 44.28125 44.578125 
Q 40.484375 46.53125 36.375 47.5 
Q 32.28125 48.484375 27.875 48.484375 
Q 21.1875 48.484375 17.84375 46.4375 
Q 14.5 44.390625 14.5 40.28125 
Q 14.5 37.15625 16.890625 35.375 
Q 19.28125 33.59375 26.515625 31.984375 
L 29.59375 31.296875 
Q 39.15625 29.25 43.1875 25.515625 
Q 47.21875 21.78125 47.21875 15.09375 
Q 47.21875 7.46875 41.1875 3.015625 
Q 35.15625 -1.421875 24.609375 -1.421875 
Q 20.21875 -1.421875 15.453125 -0.5625 
Q 10.6875 0.296875 5.421875 2 
L 5.421875 11.28125 
Q 10.40625 8.6875 15.234375 7.390625 
Q 20.0625 6.109375 24.8125 6.109375 
Q 31.15625 6.109375 34.5625 8.28125 
Q 37.984375 10.453125 37.984375 14.40625 
Q 37.984375 18.0625 35.515625 20.015625 
Q 33.0625 21.96875 24.703125 23.78125 
L 21.578125 24.515625 
Q 13.234375 26.265625 9.515625 29.90625 
Q 5.8125 33.546875 5.8125 39.890625 
Q 5.8125 47.609375 11.28125 51.796875 
Q 16.75 56 26.8125 56 
Q 31.78125 56 36.171875 55.265625 
Q 40.578125 54.546875 44.28125 53.078125 
z
" id="DejaVuSans-115"/>
      <path d="M 8.015625 75.875 
L 15.828125 75.875 
Q 23.140625 64.359375 26.78125 53.3125 
Q 30.421875 42.28125 30.421875 31.390625 
Q 30.421875 20.453125 26.78125 9.375 
Q 23.140625 -1.703125 15.828125 -13.1875 
L 8.015625 -13.1875 
Q 14.5 -2 17.703125 9.0625 
Q 20.90625 20.125 20.90625 31.390625 
Q 20.90625 42.671875 17.703125 53.65625 
Q 14.5 64.65625 8.015625 75.875 
z
" id="DejaVuSans-41"/>
     </defs>
     <g transform="translate(321.595312 68.438437)scale(0.1 -0.1)">
      <use xlink:href="#DejaVuSans-67"/>
      <use x="69.824219" xlink:href="#DejaVuSans-111"/>
      <use x="131.005859" xlink:href="#DejaVuSans-110"/>
      <use x="194.384766" xlink:href="#DejaVuSans-102"/>
      <use x="229.589844" xlink:href="#DejaVuSans-105"/>
      <use x="257.373047" xlink:href="#DejaVuSans-114"/>
      <use x="296.736328" xlink:href="#DejaVuSans-109"/>
      <use x="394.148438" xlink:href="#DejaVuSans-101"/>
      <use x="455.671875" xlink:href="#DejaVuSans-100"/>
      <use x="519.148438" xlink:href="#DejaVuSans-32"/>
      <use x="550.935547" xlink:href="#DejaVuSans-71"/>
      <use x="628.425781" xlink:href="#DejaVuSans-114"/>
      <use x="667.289062" xlink:href="#DejaVuSans-111"/>
      <use x="728.470703" xlink:href="#DejaVuSans-119"/>
      <use x="810.257812" xlink:href="#DejaVuSans-116"/>
      <use x="849.466797" xlink:href="#DejaVuSans-104"/>
      <use x="912.845703" xlink:href="#DejaVuSans-32"/>
      <use x="944.632812" xlink:href="#DejaVuSans-82"/>
      <use x="1011.865234" xlink:href="#DejaVuSans-97"/>
      <use x="1073.144531" xlink:href="#DejaVuSans-116"/>
      <use x="1112.353516" xlink:href="#DejaVuSans-101"/>
      <use x="1173.876953" xlink:href="#DejaVuSans-32"/>
      <use x="1205.664062" xlink:href="#DejaVuSans-40"/>
      <use x="1244.677734" xlink:href="#DejaVuSans-111"/>
      <use x="1305.859375" xlink:href="#DejaVuSans-118"/>
      <use x="1365.039062" xlink:href="#DejaVuSans-101"/>
      <use x="1426.5625" xlink:href="#DejaVuSans-114"/>
      <use x="1467.675781" xlink:href="#DejaVuSans-32"/>
      <use x="1499.462891" xlink:href="#DejaVuSans-55"/>
      <use x="1563.085938" xlink:href="#DejaVuSans-32"/>
      <use x="1594.873047" xlink:href="#DejaVuSans-100"/>
      <use x="1658.349609" xlink:href="#DejaVuSans-97"/>
      <use x="1719.628906" xlink:href="#DejaVuSans-121"/>
      <use x="1778.808594" xlink:href="#DejaVuSans-115"/>
      <use x="1830.908203" xlink:href="#DejaVuSans-41"/>
     </g>
    </g>
    <g id="line2d_17">
     <path d="M 293.595312 79.616562 
L 313.595312 79.616562 
" style="fill:none;stroke:#ff7f0e;stroke-linecap:square;stroke-width:1.5;"/>
    </g>
    <g id="line2d_18"/>
    <g id="text_17">
     <!-- Recovered Growth Rate (over 7 days) -->
     <defs>
      <path d="M 48.78125 52.59375 
L 48.78125 44.1875 
Q 44.96875 46.296875 41.140625 47.34375 
Q 37.3125 48.390625 33.40625 48.390625 
Q 24.65625 48.390625 19.8125 42.84375 
Q 14.984375 37.3125 14.984375 27.296875 
Q 14.984375 17.28125 19.8125 11.734375 
Q 24.65625 6.203125 33.40625 6.203125 
Q 37.3125 6.203125 41.140625 7.25 
Q 44.96875 8.296875 48.78125 10.40625 
L 48.78125 2.09375 
Q 45.015625 0.34375 40.984375 -0.53125 
Q 36.96875 -1.421875 32.421875 -1.421875 
Q 20.0625 -1.421875 12.78125 6.34375 
Q 5.515625 14.109375 5.515625 27.296875 
Q 5.515625 40.671875 12.859375 48.328125 
Q 20.21875 56 33.015625 56 
Q 37.15625 56 41.109375 55.140625 
Q 45.0625 54.296875 48.78125 52.59375 
z
" id="DejaVuSans-99"/>
     </defs>
     <g transform="translate(321.595312 83.116562)scale(0.1 -0.1)">
      <use xlink:href="#DejaVuSans-82"/>
      <use x="64.982422" xlink:href="#DejaVuSans-101"/>
      <use x="126.505859" xlink:href="#DejaVuSans-99"/>
      <use x="181.486328" xlink:href="#DejaVuSans-111"/>
      <use x="242.667969" xlink:href="#DejaVuSans-118"/>
      <use x="301.847656" xlink:href="#DejaVuSans-101"/>
      <use x="363.371094" xlink:href="#DejaVuSans-114"/>
      <use x="402.234375" xlink:href="#DejaVuSans-101"/>
      <use x="463.757812" xlink:href="#DejaVuSans-100"/>
      <use x="527.234375" xlink:href="#DejaVuSans-32"/>
      <use x="559.021484" xlink:href="#DejaVuSans-71"/>
      <use x="636.511719" xlink:href="#DejaVuSans-114"/>
      <use x="675.375" xlink:href="#DejaVuSans-111"/>
      <use x="736.556641" xlink:href="#DejaVuSans-119"/>
      <use x="818.34375" xlink:href="#DejaVuSans-116"/>
      <use x="857.552734" xlink:href="#DejaVuSans-104"/>
      <use x="920.931641" xlink:href="#DejaVuSans-32"/>
      <use x="952.71875" xlink:href="#DejaVuSans-82"/>
      <use x="1019.951172" xlink:href="#DejaVuSans-97"/>
      <use x="1081.230469" xlink:href="#DejaVuSans-116"/>
      <use x="1120.439453" xlink:href="#DejaVuSans-101"/>
      <use x="1181.962891" xlink:href="#DejaVuSans-32"/>
      <use x="1213.75" xlink:href="#DejaVuSans-40"/>
      <use x="1252.763672" xlink:href="#DejaVuSans-111"/>
      <use x="1313.945312" xlink:href="#DejaVuSans-118"/>
      <use x="1373.125" xlink:href="#DejaVuSans-101"/>
      <use x="1434.648438" xlink:href="#DejaVuSans-114"/>
      <use x="1475.761719" xlink:href="#DejaVuSans-32"/>
      <use x="1507.548828" xlink:href="#DejaVuSans-55"/>
      <use x="1571.171875" xlink:href="#DejaVuSans-32"/>
      <use x="1602.958984" xlink:href="#DejaVuSans-100"/>
      <use x="1666.435547" xlink:href="#DejaVuSans-97"/>
      <use x="1727.714844" xlink:href="#DejaVuSans-121"/>
      <use x="1786.894531" xlink:href="#DejaVuSans-115"/>
      <use x="1838.994141" xlink:href="#DejaVuSans-41"/>
     </g>
    </g>
   </g>
  </g>
 </g>
 <defs>
  <clipPath id="p361d10ae2b">
   <rect height="332.64" width="446.4" x="72" y="51.84"/>
  </clipPath>
 </defs>
</svg>
