<?xml version="1.0" encoding="utf-8" standalone="no"?>
<!DOCTYPE svg PUBLIC "-//W3C//DTD SVG 1.1//EN"
  "http://www.w3.org/Graphics/SVG/1.1/DTD/svg11.dtd">
<!-- Created with matplotlib (https://matplotlib.org/) -->
<svg height="432pt" version="1.1" viewBox="0 0 576 432" width="576pt" xmlns="http://www.w3.org/2000/svg" xmlns:xlink="http://www.w3.org/1999/xlink">
 <defs>
  <style type="text/css">
*{stroke-linecap:butt;stroke-linejoin:round;}
  </style>
 </defs>
 <g id="figure_1">
  <g id="patch_1">
   <path d="M 0 432 
L 576 432 
L 576 0 
L 0 0 
z
" style="fill:#ffffff;"/>
  </g>
  <g id="axes_1">
   <g id="patch_2">
    <path d="M 72 384.48 
L 518.4 384.48 
L 518.4 51.84 
L 72 51.84 
z
" style="fill:#ffffff;"/>
   </g>
   <g id="matplotlib.axis_1">
    <g id="xtick_1">
     <g id="line2d_1">
      <defs>
       <path d="M 0 0 
L 0 3.5 
" id="mb58c1d0378" style="stroke:#000000;stroke-width:0.8;"/>
      </defs>
      <g>
       <use style="stroke:#000000;stroke-width:0.8;" x="111.246323" xlink:href="#mb58c1d0378" y="384.48"/>
      </g>
     </g>
     <g id="text_1">
      <!-- 2020-03 -->
      <defs>
       <path d="M 19.1875 8.296875 
L 53.609375 8.296875 
L 53.609375 0 
L 7.328125 0 
L 7.328125 8.296875 
Q 12.9375 14.109375 22.625 23.890625 
Q 32.328125 33.6875 34.8125 36.53125 
Q 39.546875 41.84375 41.421875 45.53125 
Q 43.3125 49.21875 43.3125 52.78125 
Q 43.3125 58.59375 39.234375 62.25 
Q 35.15625 65.921875 28.609375 65.921875 
Q 23.96875 65.921875 18.8125 64.3125 
Q 13.671875 62.703125 7.8125 59.421875 
L 7.8125 69.390625 
Q 13.765625 71.78125 18.9375 73 
Q 24.125 74.21875 28.421875 74.21875 
Q 39.75 74.21875 46.484375 68.546875 
Q 53.21875 62.890625 53.21875 53.421875 
Q 53.21875 48.921875 51.53125 44.890625 
Q 49.859375 40.875 45.40625 35.40625 
Q 44.1875 33.984375 37.640625 27.21875 
Q 31.109375 20.453125 19.1875 8.296875 
z
" id="DejaVuSans-50"/>
       <path d="M 31.78125 66.40625 
Q 24.171875 66.40625 20.328125 58.90625 
Q 16.5 51.421875 16.5 36.375 
Q 16.5 21.390625 20.328125 13.890625 
Q 24.171875 6.390625 31.78125 6.390625 
Q 39.453125 6.390625 43.28125 13.890625 
Q 47.125 21.390625 47.125 36.375 
Q 47.125 51.421875 43.28125 58.90625 
Q 39.453125 66.40625 31.78125 66.40625 
z
M 31.78125 74.21875 
Q 44.046875 74.21875 50.515625 64.515625 
Q 56.984375 54.828125 56.984375 36.375 
Q 56.984375 17.96875 50.515625 8.265625 
Q 44.046875 -1.421875 31.78125 -1.421875 
Q 19.53125 -1.421875 13.0625 8.265625 
Q 6.59375 17.96875 6.59375 36.375 
Q 6.59375 54.828125 13.0625 64.515625 
Q 19.53125 74.21875 31.78125 74.21875 
z
" id="DejaVuSans-48"/>
       <path d="M 4.890625 31.390625 
L 31.203125 31.390625 
L 31.203125 23.390625 
L 4.890625 23.390625 
z
" id="DejaVuSans-45"/>
       <path d="M 40.578125 39.3125 
Q 47.65625 37.796875 51.625 33 
Q 55.609375 28.21875 55.609375 21.1875 
Q 55.609375 10.40625 48.1875 4.484375 
Q 40.765625 -1.421875 27.09375 -1.421875 
Q 22.515625 -1.421875 17.65625 -0.515625 
Q 12.796875 0.390625 7.625 2.203125 
L 7.625 11.71875 
Q 11.71875 9.328125 16.59375 8.109375 
Q 21.484375 6.890625 26.8125 6.890625 
Q 36.078125 6.890625 40.9375 10.546875 
Q 45.796875 14.203125 45.796875 21.1875 
Q 45.796875 27.640625 41.28125 31.265625 
Q 36.765625 34.90625 28.71875 34.90625 
L 20.21875 34.90625 
L 20.21875 43.015625 
L 29.109375 43.015625 
Q 36.375 43.015625 40.234375 45.921875 
Q 44.09375 48.828125 44.09375 54.296875 
Q 44.09375 59.90625 40.109375 62.90625 
Q 36.140625 65.921875 28.71875 65.921875 
Q 24.65625 65.921875 20.015625 65.03125 
Q 15.375 64.15625 9.8125 62.3125 
L 9.8125 71.09375 
Q 15.4375 72.65625 20.34375 73.4375 
Q 25.25 74.21875 29.59375 74.21875 
Q 40.828125 74.21875 47.359375 69.109375 
Q 53.90625 64.015625 53.90625 55.328125 
Q 53.90625 49.265625 50.4375 45.09375 
Q 46.96875 40.921875 40.578125 39.3125 
z
" id="DejaVuSans-51"/>
      </defs>
      <g transform="translate(90.354917 399.078438)scale(0.1 -0.1)">
       <use xlink:href="#DejaVuSans-50"/>
       <use x="63.623047" xlink:href="#DejaVuSans-48"/>
       <use x="127.246094" xlink:href="#DejaVuSans-50"/>
       <use x="190.869141" xlink:href="#DejaVuSans-48"/>
       <use x="254.492188" xlink:href="#DejaVuSans-45"/>
       <use x="290.576172" xlink:href="#DejaVuSans-48"/>
       <use x="354.199219" xlink:href="#DejaVuSans-51"/>
      </g>
     </g>
    </g>
    <g id="xtick_2">
     <g id="line2d_2">
      <g>
       <use style="stroke:#000000;stroke-width:0.8;" x="163.804517" xlink:href="#mb58c1d0378" y="384.48"/>
      </g>
     </g>
     <g id="text_2">
      <!-- 2020-05 -->
      <defs>
       <path d="M 10.796875 72.90625 
L 49.515625 72.90625 
L 49.515625 64.59375 
L 19.828125 64.59375 
L 19.828125 46.734375 
Q 21.96875 47.46875 24.109375 47.828125 
Q 26.265625 48.1875 28.421875 48.1875 
Q 40.625 48.1875 47.75 41.5 
Q 54.890625 34.8125 54.890625 23.390625 
Q 54.890625 11.625 47.5625 5.09375 
Q 40.234375 -1.421875 26.90625 -1.421875 
Q 22.3125 -1.421875 17.546875 -0.640625 
Q 12.796875 0.140625 7.71875 1.703125 
L 7.71875 11.625 
Q 12.109375 9.234375 16.796875 8.0625 
Q 21.484375 6.890625 26.703125 6.890625 
Q 35.15625 6.890625 40.078125 11.328125 
Q 45.015625 15.765625 45.015625 23.390625 
Q 45.015625 31 40.078125 35.4375 
Q 35.15625 39.890625 26.703125 39.890625 
Q 22.75 39.890625 18.8125 39.015625 
Q 14.890625 38.140625 10.796875 36.28125 
z
" id="DejaVuSans-53"/>
      </defs>
      <g transform="translate(142.91311 399.078438)scale(0.1 -0.1)">
       <use xlink:href="#DejaVuSans-50"/>
       <use x="63.623047" xlink:href="#DejaVuSans-48"/>
       <use x="127.246094" xlink:href="#DejaVuSans-50"/>
       <use x="190.869141" xlink:href="#DejaVuSans-48"/>
       <use x="254.492188" xlink:href="#DejaVuSans-45"/>
       <use x="290.576172" xlink:href="#DejaVuSans-48"/>
       <use x="354.199219" xlink:href="#DejaVuSans-53"/>
      </g>
     </g>
    </g>
    <g id="xtick_3">
     <g id="line2d_3">
      <g>
       <use style="stroke:#000000;stroke-width:0.8;" x="216.36271" xlink:href="#mb58c1d0378" y="384.48"/>
      </g>
     </g>
     <g id="text_3">
      <!-- 2020-07 -->
      <defs>
       <path d="M 8.203125 72.90625 
L 55.078125 72.90625 
L 55.078125 68.703125 
L 28.609375 0 
L 18.3125 0 
L 43.21875 64.59375 
L 8.203125 64.59375 
z
" id="DejaVuSans-55"/>
      </defs>
      <g transform="translate(195.471304 399.078438)scale(0.1 -0.1)">
       <use xlink:href="#DejaVuSans-50"/>
       <use x="63.623047" xlink:href="#DejaVuSans-48"/>
       <use x="127.246094" xlink:href="#DejaVuSans-50"/>
       <use x="190.869141" xlink:href="#DejaVuSans-48"/>
       <use x="254.492188" xlink:href="#DejaVuSans-45"/>
       <use x="290.576172" xlink:href="#DejaVuSans-48"/>
       <use x="354.199219" xlink:href="#DejaVuSans-55"/>
      </g>
     </g>
    </g>
    <g id="xtick_4">
     <g id="line2d_4">
      <g>
       <use style="stroke:#000000;stroke-width:0.8;" x="269.782513" xlink:href="#mb58c1d0378" y="384.48"/>
      </g>
     </g>
     <g id="text_4">
      <!-- 2020-09 -->
      <defs>
       <path d="M 10.984375 1.515625 
L 10.984375 10.5 
Q 14.703125 8.734375 18.5 7.8125 
Q 22.3125 6.890625 25.984375 6.890625 
Q 35.75 6.890625 40.890625 13.453125 
Q 46.046875 20.015625 46.78125 33.40625 
Q 43.953125 29.203125 39.59375 26.953125 
Q 35.25 24.703125 29.984375 24.703125 
Q 19.046875 24.703125 12.671875 31.3125 
Q 6.296875 37.9375 6.296875 49.421875 
Q 6.296875 60.640625 12.9375 67.421875 
Q 19.578125 74.21875 30.609375 74.21875 
Q 43.265625 74.21875 49.921875 64.515625 
Q 56.59375 54.828125 56.59375 36.375 
Q 56.59375 19.140625 48.40625 8.859375 
Q 40.234375 -1.421875 26.421875 -1.421875 
Q 22.703125 -1.421875 18.890625 -0.6875 
Q 15.09375 0.046875 10.984375 1.515625 
z
M 30.609375 32.421875 
Q 37.25 32.421875 41.125 36.953125 
Q 45.015625 41.5 45.015625 49.421875 
Q 45.015625 57.28125 41.125 61.84375 
Q 37.25 66.40625 30.609375 66.40625 
Q 23.96875 66.40625 20.09375 61.84375 
Q 16.21875 57.28125 16.21875 49.421875 
Q 16.21875 41.5 20.09375 36.953125 
Q 23.96875 32.421875 30.609375 32.421875 
z
" id="DejaVuSans-57"/>
      </defs>
      <g transform="translate(248.891107 399.078438)scale(0.1 -0.1)">
       <use xlink:href="#DejaVuSans-50"/>
       <use x="63.623047" xlink:href="#DejaVuSans-48"/>
       <use x="127.246094" xlink:href="#DejaVuSans-50"/>
       <use x="190.869141" xlink:href="#DejaVuSans-48"/>
       <use x="254.492188" xlink:href="#DejaVuSans-45"/>
       <use x="290.576172" xlink:href="#DejaVuSans-48"/>
       <use x="354.199219" xlink:href="#DejaVuSans-57"/>
      </g>
     </g>
    </g>
    <g id="xtick_5">
     <g id="line2d_5">
      <g>
       <use style="stroke:#000000;stroke-width:0.8;" x="322.340706" xlink:href="#mb58c1d0378" y="384.48"/>
      </g>
     </g>
     <g id="text_5">
      <!-- 2020-11 -->
      <defs>
       <path d="M 12.40625 8.296875 
L 28.515625 8.296875 
L 28.515625 63.921875 
L 10.984375 60.40625 
L 10.984375 69.390625 
L 28.421875 72.90625 
L 38.28125 72.90625 
L 38.28125 8.296875 
L 54.390625 8.296875 
L 54.390625 0 
L 12.40625 0 
z
" id="DejaVuSans-49"/>
      </defs>
      <g transform="translate(301.4493 399.078438)scale(0.1 -0.1)">
       <use xlink:href="#DejaVuSans-50"/>
       <use x="63.623047" xlink:href="#DejaVuSans-48"/>
       <use x="127.246094" xlink:href="#DejaVuSans-50"/>
       <use x="190.869141" xlink:href="#DejaVuSans-48"/>
       <use x="254.492188" xlink:href="#DejaVuSans-45"/>
       <use x="290.576172" xlink:href="#DejaVuSans-49"/>
       <use x="354.199219" xlink:href="#DejaVuSans-49"/>
      </g>
     </g>
    </g>
    <g id="xtick_6">
     <g id="line2d_6">
      <g>
       <use style="stroke:#000000;stroke-width:0.8;" x="374.8989" xlink:href="#mb58c1d0378" y="384.48"/>
      </g>
     </g>
     <g id="text_6">
      <!-- 2021-01 -->
      <g transform="translate(354.007494 399.078438)scale(0.1 -0.1)">
       <use xlink:href="#DejaVuSans-50"/>
       <use x="63.623047" xlink:href="#DejaVuSans-48"/>
       <use x="127.246094" xlink:href="#DejaVuSans-50"/>
       <use x="190.869141" xlink:href="#DejaVuSans-49"/>
       <use x="254.492188" xlink:href="#DejaVuSans-45"/>
       <use x="290.576172" xlink:href="#DejaVuSans-48"/>
       <use x="354.199219" xlink:href="#DejaVuSans-49"/>
      </g>
     </g>
    </g>
    <g id="xtick_7">
     <g id="line2d_7">
      <g>
       <use style="stroke:#000000;stroke-width:0.8;" x="425.733874" xlink:href="#mb58c1d0378" y="384.48"/>
      </g>
     </g>
     <g id="text_7">
      <!-- 2021-03 -->
      <g transform="translate(404.842468 399.078438)scale(0.1 -0.1)">
       <use xlink:href="#DejaVuSans-50"/>
       <use x="63.623047" xlink:href="#DejaVuSans-48"/>
       <use x="127.246094" xlink:href="#DejaVuSans-50"/>
       <use x="190.869141" xlink:href="#DejaVuSans-49"/>
       <use x="254.492188" xlink:href="#DejaVuSans-45"/>
       <use x="290.576172" xlink:href="#DejaVuSans-48"/>
       <use x="354.199219" xlink:href="#DejaVuSans-51"/>
      </g>
     </g>
    </g>
    <g id="xtick_8">
     <g id="line2d_8">
      <g>
       <use style="stroke:#000000;stroke-width:0.8;" x="478.292067" xlink:href="#mb58c1d0378" y="384.48"/>
      </g>
     </g>
     <g id="text_8">
      <!-- 2021-05 -->
      <g transform="translate(457.400661 399.078438)scale(0.1 -0.1)">
       <use xlink:href="#DejaVuSans-50"/>
       <use x="63.623047" xlink:href="#DejaVuSans-48"/>
       <use x="127.246094" xlink:href="#DejaVuSans-50"/>
       <use x="190.869141" xlink:href="#DejaVuSans-49"/>
       <use x="254.492188" xlink:href="#DejaVuSans-45"/>
       <use x="290.576172" xlink:href="#DejaVuSans-48"/>
       <use x="354.199219" xlink:href="#DejaVuSans-53"/>
      </g>
     </g>
    </g>
    <g id="text_9">
     <!-- Reported On -->
     <defs>
      <path d="M 44.390625 34.1875 
Q 47.5625 33.109375 50.5625 29.59375 
Q 53.5625 26.078125 56.59375 19.921875 
L 66.609375 0 
L 56 0 
L 46.6875 18.703125 
Q 43.0625 26.03125 39.671875 28.421875 
Q 36.28125 30.8125 30.421875 30.8125 
L 19.671875 30.8125 
L 19.671875 0 
L 9.8125 0 
L 9.8125 72.90625 
L 32.078125 72.90625 
Q 44.578125 72.90625 50.734375 67.671875 
Q 56.890625 62.453125 56.890625 51.90625 
Q 56.890625 45.015625 53.6875 40.46875 
Q 50.484375 35.9375 44.390625 34.1875 
z
M 19.671875 64.796875 
L 19.671875 38.921875 
L 32.078125 38.921875 
Q 39.203125 38.921875 42.84375 42.21875 
Q 46.484375 45.515625 46.484375 51.90625 
Q 46.484375 58.296875 42.84375 61.546875 
Q 39.203125 64.796875 32.078125 64.796875 
z
" id="DejaVuSans-82"/>
      <path d="M 56.203125 29.59375 
L 56.203125 25.203125 
L 14.890625 25.203125 
Q 15.484375 15.921875 20.484375 11.0625 
Q 25.484375 6.203125 34.421875 6.203125 
Q 39.59375 6.203125 44.453125 7.46875 
Q 49.3125 8.734375 54.109375 11.28125 
L 54.109375 2.78125 
Q 49.265625 0.734375 44.1875 -0.34375 
Q 39.109375 -1.421875 33.890625 -1.421875 
Q 20.796875 -1.421875 13.15625 6.1875 
Q 5.515625 13.8125 5.515625 26.8125 
Q 5.515625 40.234375 12.765625 48.109375 
Q 20.015625 56 32.328125 56 
Q 43.359375 56 49.78125 48.890625 
Q 56.203125 41.796875 56.203125 29.59375 
z
M 47.21875 32.234375 
Q 47.125 39.59375 43.09375 43.984375 
Q 39.0625 48.390625 32.421875 48.390625 
Q 24.90625 48.390625 20.390625 44.140625 
Q 15.875 39.890625 15.1875 32.171875 
z
" id="DejaVuSans-101"/>
      <path d="M 18.109375 8.203125 
L 18.109375 -20.796875 
L 9.078125 -20.796875 
L 9.078125 54.6875 
L 18.109375 54.6875 
L 18.109375 46.390625 
Q 20.953125 51.265625 25.265625 53.625 
Q 29.59375 56 35.59375 56 
Q 45.5625 56 51.78125 48.09375 
Q 58.015625 40.1875 58.015625 27.296875 
Q 58.015625 14.40625 51.78125 6.484375 
Q 45.5625 -1.421875 35.59375 -1.421875 
Q 29.59375 -1.421875 25.265625 0.953125 
Q 20.953125 3.328125 18.109375 8.203125 
z
M 48.6875 27.296875 
Q 48.6875 37.203125 44.609375 42.84375 
Q 40.53125 48.484375 33.40625 48.484375 
Q 26.265625 48.484375 22.1875 42.84375 
Q 18.109375 37.203125 18.109375 27.296875 
Q 18.109375 17.390625 22.1875 11.75 
Q 26.265625 6.109375 33.40625 6.109375 
Q 40.53125 6.109375 44.609375 11.75 
Q 48.6875 17.390625 48.6875 27.296875 
z
" id="DejaVuSans-112"/>
      <path d="M 30.609375 48.390625 
Q 23.390625 48.390625 19.1875 42.75 
Q 14.984375 37.109375 14.984375 27.296875 
Q 14.984375 17.484375 19.15625 11.84375 
Q 23.34375 6.203125 30.609375 6.203125 
Q 37.796875 6.203125 41.984375 11.859375 
Q 46.1875 17.53125 46.1875 27.296875 
Q 46.1875 37.015625 41.984375 42.703125 
Q 37.796875 48.390625 30.609375 48.390625 
z
M 30.609375 56 
Q 42.328125 56 49.015625 48.375 
Q 55.71875 40.765625 55.71875 27.296875 
Q 55.71875 13.875 49.015625 6.21875 
Q 42.328125 -1.421875 30.609375 -1.421875 
Q 18.84375 -1.421875 12.171875 6.21875 
Q 5.515625 13.875 5.515625 27.296875 
Q 5.515625 40.765625 12.171875 48.375 
Q 18.84375 56 30.609375 56 
z
" id="DejaVuSans-111"/>
      <path d="M 41.109375 46.296875 
Q 39.59375 47.171875 37.8125 47.578125 
Q 36.03125 48 33.890625 48 
Q 26.265625 48 22.1875 43.046875 
Q 18.109375 38.09375 18.109375 28.8125 
L 18.109375 0 
L 9.078125 0 
L 9.078125 54.6875 
L 18.109375 54.6875 
L 18.109375 46.1875 
Q 20.953125 51.171875 25.484375 53.578125 
Q 30.03125 56 36.53125 56 
Q 37.453125 56 38.578125 55.875 
Q 39.703125 55.765625 41.0625 55.515625 
z
" id="DejaVuSans-114"/>
      <path d="M 18.3125 70.21875 
L 18.3125 54.6875 
L 36.8125 54.6875 
L 36.8125 47.703125 
L 18.3125 47.703125 
L 18.3125 18.015625 
Q 18.3125 11.328125 20.140625 9.421875 
Q 21.96875 7.515625 27.59375 7.515625 
L 36.8125 7.515625 
L 36.8125 0 
L 27.59375 0 
Q 17.1875 0 13.234375 3.875 
Q 9.28125 7.765625 9.28125 18.015625 
L 9.28125 47.703125 
L 2.6875 47.703125 
L 2.6875 54.6875 
L 9.28125 54.6875 
L 9.28125 70.21875 
z
" id="DejaVuSans-116"/>
      <path d="M 45.40625 46.390625 
L 45.40625 75.984375 
L 54.390625 75.984375 
L 54.390625 0 
L 45.40625 0 
L 45.40625 8.203125 
Q 42.578125 3.328125 38.25 0.953125 
Q 33.9375 -1.421875 27.875 -1.421875 
Q 17.96875 -1.421875 11.734375 6.484375 
Q 5.515625 14.40625 5.515625 27.296875 
Q 5.515625 40.1875 11.734375 48.09375 
Q 17.96875 56 27.875 56 
Q 33.9375 56 38.25 53.625 
Q 42.578125 51.265625 45.40625 46.390625 
z
M 14.796875 27.296875 
Q 14.796875 17.390625 18.875 11.75 
Q 22.953125 6.109375 30.078125 6.109375 
Q 37.203125 6.109375 41.296875 11.75 
Q 45.40625 17.390625 45.40625 27.296875 
Q 45.40625 37.203125 41.296875 42.84375 
Q 37.203125 48.484375 30.078125 48.484375 
Q 22.953125 48.484375 18.875 42.84375 
Q 14.796875 37.203125 14.796875 27.296875 
z
" id="DejaVuSans-100"/>
      <path id="DejaVuSans-32"/>
      <path d="M 39.40625 66.21875 
Q 28.65625 66.21875 22.328125 58.203125 
Q 16.015625 50.203125 16.015625 36.375 
Q 16.015625 22.609375 22.328125 14.59375 
Q 28.65625 6.59375 39.40625 6.59375 
Q 50.140625 6.59375 56.421875 14.59375 
Q 62.703125 22.609375 62.703125 36.375 
Q 62.703125 50.203125 56.421875 58.203125 
Q 50.140625 66.21875 39.40625 66.21875 
z
M 39.40625 74.21875 
Q 54.734375 74.21875 63.90625 63.9375 
Q 73.09375 53.65625 73.09375 36.375 
Q 73.09375 19.140625 63.90625 8.859375 
Q 54.734375 -1.421875 39.40625 -1.421875 
Q 24.03125 -1.421875 14.8125 8.828125 
Q 5.609375 19.09375 5.609375 36.375 
Q 5.609375 53.65625 14.8125 63.9375 
Q 24.03125 74.21875 39.40625 74.21875 
z
" id="DejaVuSans-79"/>
      <path d="M 54.890625 33.015625 
L 54.890625 0 
L 45.90625 0 
L 45.90625 32.71875 
Q 45.90625 40.484375 42.875 44.328125 
Q 39.84375 48.1875 33.796875 48.1875 
Q 26.515625 48.1875 22.3125 43.546875 
Q 18.109375 38.921875 18.109375 30.90625 
L 18.109375 0 
L 9.078125 0 
L 9.078125 54.6875 
L 18.109375 54.6875 
L 18.109375 46.1875 
Q 21.34375 51.125 25.703125 53.5625 
Q 30.078125 56 35.796875 56 
Q 45.21875 56 50.046875 50.171875 
Q 54.890625 44.34375 54.890625 33.015625 
z
" id="DejaVuSans-110"/>
     </defs>
     <g transform="translate(263.680469 412.756563)scale(0.1 -0.1)">
      <use xlink:href="#DejaVuSans-82"/>
      <use x="64.982422" xlink:href="#DejaVuSans-101"/>
      <use x="126.505859" xlink:href="#DejaVuSans-112"/>
      <use x="189.982422" xlink:href="#DejaVuSans-111"/>
      <use x="251.164062" xlink:href="#DejaVuSans-114"/>
      <use x="292.277344" xlink:href="#DejaVuSans-116"/>
      <use x="331.486328" xlink:href="#DejaVuSans-101"/>
      <use x="393.009766" xlink:href="#DejaVuSans-100"/>
      <use x="456.486328" xlink:href="#DejaVuSans-32"/>
      <use x="488.273438" xlink:href="#DejaVuSans-79"/>
      <use x="566.984375" xlink:href="#DejaVuSans-110"/>
     </g>
    </g>
   </g>
   <g id="matplotlib.axis_2">
    <g id="ytick_1">
     <g id="line2d_9">
      <defs>
       <path d="M 0 0 
L -3.5 0 
" id="m18b3717ead" style="stroke:#000000;stroke-width:0.8;"/>
      </defs>
      <g>
       <use style="stroke:#000000;stroke-width:0.8;" x="72" xlink:href="#m18b3717ead" y="365.535166"/>
      </g>
     </g>
     <g id="text_10">
      <!-- -1000 -->
      <g transform="translate(35.942188 369.334385)scale(0.1 -0.1)">
       <use xlink:href="#DejaVuSans-45"/>
       <use x="36.083984" xlink:href="#DejaVuSans-49"/>
       <use x="99.707031" xlink:href="#DejaVuSans-48"/>
       <use x="163.330078" xlink:href="#DejaVuSans-48"/>
       <use x="226.953125" xlink:href="#DejaVuSans-48"/>
      </g>
     </g>
    </g>
    <g id="ytick_2">
     <g id="line2d_10">
      <g>
       <use style="stroke:#000000;stroke-width:0.8;" x="72" xlink:href="#m18b3717ead" y="317.259064"/>
      </g>
     </g>
     <g id="text_11">
      <!--   0 -->
      <g transform="translate(52.28125 321.058283)scale(0.1 -0.1)">
       <use xlink:href="#DejaVuSans-32"/>
       <use x="31.787109" xlink:href="#DejaVuSans-32"/>
       <use x="63.574219" xlink:href="#DejaVuSans-48"/>
      </g>
     </g>
    </g>
    <g id="ytick_3">
     <g id="line2d_11">
      <g>
       <use style="stroke:#000000;stroke-width:0.8;" x="72" xlink:href="#m18b3717ead" y="268.982962"/>
      </g>
     </g>
     <g id="text_12">
      <!-- 1000 -->
      <g transform="translate(39.55 272.78218)scale(0.1 -0.1)">
       <use xlink:href="#DejaVuSans-49"/>
       <use x="63.623047" xlink:href="#DejaVuSans-48"/>
       <use x="127.246094" xlink:href="#DejaVuSans-48"/>
       <use x="190.869141" xlink:href="#DejaVuSans-48"/>
      </g>
     </g>
    </g>
    <g id="ytick_4">
     <g id="line2d_12">
      <g>
       <use style="stroke:#000000;stroke-width:0.8;" x="72" xlink:href="#m18b3717ead" y="220.706859"/>
      </g>
     </g>
     <g id="text_13">
      <!-- 2000 -->
      <g transform="translate(39.55 224.506078)scale(0.1 -0.1)">
       <use xlink:href="#DejaVuSans-50"/>
       <use x="63.623047" xlink:href="#DejaVuSans-48"/>
       <use x="127.246094" xlink:href="#DejaVuSans-48"/>
       <use x="190.869141" xlink:href="#DejaVuSans-48"/>
      </g>
     </g>
    </g>
    <g id="ytick_5">
     <g id="line2d_13">
      <g>
       <use style="stroke:#000000;stroke-width:0.8;" x="72" xlink:href="#m18b3717ead" y="172.430757"/>
      </g>
     </g>
     <g id="text_14">
      <!-- 3000 -->
      <g transform="translate(39.55 176.229976)scale(0.1 -0.1)">
       <use xlink:href="#DejaVuSans-51"/>
       <use x="63.623047" xlink:href="#DejaVuSans-48"/>
       <use x="127.246094" xlink:href="#DejaVuSans-48"/>
       <use x="190.869141" xlink:href="#DejaVuSans-48"/>
      </g>
     </g>
    </g>
    <g id="ytick_6">
     <g id="line2d_14">
      <g>
       <use style="stroke:#000000;stroke-width:0.8;" x="72" xlink:href="#m18b3717ead" y="124.154655"/>
      </g>
     </g>
     <g id="text_15">
      <!-- 4000 -->
      <defs>
       <path d="M 37.796875 64.3125 
L 12.890625 25.390625 
L 37.796875 25.390625 
z
M 35.203125 72.90625 
L 47.609375 72.90625 
L 47.609375 25.390625 
L 58.015625 25.390625 
L 58.015625 17.1875 
L 47.609375 17.1875 
L 47.609375 0 
L 37.796875 0 
L 37.796875 17.1875 
L 4.890625 17.1875 
L 4.890625 26.703125 
z
" id="DejaVuSans-52"/>
      </defs>
      <g transform="translate(39.55 127.953873)scale(0.1 -0.1)">
       <use xlink:href="#DejaVuSans-52"/>
       <use x="63.623047" xlink:href="#DejaVuSans-48"/>
       <use x="127.246094" xlink:href="#DejaVuSans-48"/>
       <use x="190.869141" xlink:href="#DejaVuSans-48"/>
      </g>
     </g>
    </g>
    <g id="ytick_7">
     <g id="line2d_15">
      <g>
       <use style="stroke:#000000;stroke-width:0.8;" x="72" xlink:href="#m18b3717ead" y="75.878552"/>
      </g>
     </g>
     <g id="text_16">
      <!-- 5000 -->
      <g transform="translate(39.55 79.677771)scale(0.1 -0.1)">
       <use xlink:href="#DejaVuSans-53"/>
       <use x="63.623047" xlink:href="#DejaVuSans-48"/>
       <use x="127.246094" xlink:href="#DejaVuSans-48"/>
       <use x="190.869141" xlink:href="#DejaVuSans-48"/>
      </g>
     </g>
    </g>
    <g id="text_17">
     <!-- Duration [days] -->
     <defs>
      <path d="M 19.671875 64.796875 
L 19.671875 8.109375 
L 31.59375 8.109375 
Q 46.6875 8.109375 53.6875 14.9375 
Q 60.6875 21.78125 60.6875 36.53125 
Q 60.6875 51.171875 53.6875 57.984375 
Q 46.6875 64.796875 31.59375 64.796875 
z
M 9.8125 72.90625 
L 30.078125 72.90625 
Q 51.265625 72.90625 61.171875 64.09375 
Q 71.09375 55.28125 71.09375 36.53125 
Q 71.09375 17.671875 61.125 8.828125 
Q 51.171875 0 30.078125 0 
L 9.8125 0 
z
" id="DejaVuSans-68"/>
      <path d="M 8.5 21.578125 
L 8.5 54.6875 
L 17.484375 54.6875 
L 17.484375 21.921875 
Q 17.484375 14.15625 20.5 10.265625 
Q 23.53125 6.390625 29.59375 6.390625 
Q 36.859375 6.390625 41.078125 11.03125 
Q 45.3125 15.671875 45.3125 23.6875 
L 45.3125 54.6875 
L 54.296875 54.6875 
L 54.296875 0 
L 45.3125 0 
L 45.3125 8.40625 
Q 42.046875 3.421875 37.71875 1 
Q 33.40625 -1.421875 27.6875 -1.421875 
Q 18.265625 -1.421875 13.375 4.4375 
Q 8.5 10.296875 8.5 21.578125 
z
M 31.109375 56 
z
" id="DejaVuSans-117"/>
      <path d="M 34.28125 27.484375 
Q 23.390625 27.484375 19.1875 25 
Q 14.984375 22.515625 14.984375 16.5 
Q 14.984375 11.71875 18.140625 8.90625 
Q 21.296875 6.109375 26.703125 6.109375 
Q 34.1875 6.109375 38.703125 11.40625 
Q 43.21875 16.703125 43.21875 25.484375 
L 43.21875 27.484375 
z
M 52.203125 31.203125 
L 52.203125 0 
L 43.21875 0 
L 43.21875 8.296875 
Q 40.140625 3.328125 35.546875 0.953125 
Q 30.953125 -1.421875 24.3125 -1.421875 
Q 15.921875 -1.421875 10.953125 3.296875 
Q 6 8.015625 6 15.921875 
Q 6 25.140625 12.171875 29.828125 
Q 18.359375 34.515625 30.609375 34.515625 
L 43.21875 34.515625 
L 43.21875 35.40625 
Q 43.21875 41.609375 39.140625 45 
Q 35.0625 48.390625 27.6875 48.390625 
Q 23 48.390625 18.546875 47.265625 
Q 14.109375 46.140625 10.015625 43.890625 
L 10.015625 52.203125 
Q 14.9375 54.109375 19.578125 55.046875 
Q 24.21875 56 28.609375 56 
Q 40.484375 56 46.34375 49.84375 
Q 52.203125 43.703125 52.203125 31.203125 
z
" id="DejaVuSans-97"/>
      <path d="M 9.421875 54.6875 
L 18.40625 54.6875 
L 18.40625 0 
L 9.421875 0 
z
M 9.421875 75.984375 
L 18.40625 75.984375 
L 18.40625 64.59375 
L 9.421875 64.59375 
z
" id="DejaVuSans-105"/>
      <path d="M 8.59375 75.984375 
L 29.296875 75.984375 
L 29.296875 69 
L 17.578125 69 
L 17.578125 -6.203125 
L 29.296875 -6.203125 
L 29.296875 -13.1875 
L 8.59375 -13.1875 
z
" id="DejaVuSans-91"/>
      <path d="M 32.171875 -5.078125 
Q 28.375 -14.84375 24.75 -17.8125 
Q 21.140625 -20.796875 15.09375 -20.796875 
L 7.90625 -20.796875 
L 7.90625 -13.28125 
L 13.1875 -13.28125 
Q 16.890625 -13.28125 18.9375 -11.515625 
Q 21 -9.765625 23.484375 -3.21875 
L 25.09375 0.875 
L 2.984375 54.6875 
L 12.5 54.6875 
L 29.59375 11.921875 
L 46.6875 54.6875 
L 56.203125 54.6875 
z
" id="DejaVuSans-121"/>
      <path d="M 44.28125 53.078125 
L 44.28125 44.578125 
Q 40.484375 46.53125 36.375 47.5 
Q 32.28125 48.484375 27.875 48.484375 
Q 21.1875 48.484375 17.84375 46.4375 
Q 14.5 44.390625 14.5 40.28125 
Q 14.5 37.15625 16.890625 35.375 
Q 19.28125 33.59375 26.515625 31.984375 
L 29.59375 31.296875 
Q 39.15625 29.25 43.1875 25.515625 
Q 47.21875 21.78125 47.21875 15.09375 
Q 47.21875 7.46875 41.1875 3.015625 
Q 35.15625 -1.421875 24.609375 -1.421875 
Q 20.21875 -1.421875 15.453125 -0.5625 
Q 10.6875 0.296875 5.421875 2 
L 5.421875 11.28125 
Q 10.40625 8.6875 15.234375 7.390625 
Q 20.0625 6.109375 24.8125 6.109375 
Q 31.15625 6.109375 34.5625 8.28125 
Q 37.984375 10.453125 37.984375 14.40625 
Q 37.984375 18.0625 35.515625 20.015625 
Q 33.0625 21.96875 24.703125 23.78125 
L 21.578125 24.515625 
Q 13.234375 26.265625 9.515625 29.90625 
Q 5.8125 33.546875 5.8125 39.890625 
Q 5.8125 47.609375 11.28125 51.796875 
Q 16.75 56 26.8125 56 
Q 31.78125 56 36.171875 55.265625 
Q 40.578125 54.546875 44.28125 53.078125 
z
" id="DejaVuSans-115"/>
      <path d="M 30.421875 75.984375 
L 30.421875 -13.1875 
L 9.71875 -13.1875 
L 9.71875 -6.203125 
L 21.390625 -6.203125 
L 21.390625 69 
L 9.71875 69 
L 9.71875 75.984375 
z
" id="DejaVuSans-93"/>
     </defs>
     <g transform="translate(29.8625 257.168594)rotate(-90)scale(0.1 -0.1)">
      <use xlink:href="#DejaVuSans-68"/>
      <use x="77.001953" xlink:href="#DejaVuSans-117"/>
      <use x="140.380859" xlink:href="#DejaVuSans-114"/>
      <use x="181.494141" xlink:href="#DejaVuSans-97"/>
      <use x="242.773438" xlink:href="#DejaVuSans-116"/>
      <use x="281.982422" xlink:href="#DejaVuSans-105"/>
      <use x="309.765625" xlink:href="#DejaVuSans-111"/>
      <use x="370.947266" xlink:href="#DejaVuSans-110"/>
      <use x="434.326172" xlink:href="#DejaVuSans-32"/>
      <use x="466.113281" xlink:href="#DejaVuSans-91"/>
      <use x="505.126953" xlink:href="#DejaVuSans-100"/>
      <use x="568.603516" xlink:href="#DejaVuSans-97"/>
      <use x="629.882812" xlink:href="#DejaVuSans-121"/>
      <use x="689.0625" xlink:href="#DejaVuSans-115"/>
      <use x="741.162109" xlink:href="#DejaVuSans-93"/>
     </g>
    </g>
   </g>
   <g id="line2d_16">
    <path clip-path="url(#p2c51b84f7a)" d="M 498.109091 316.152419 
L 493.801042 316.323467 
L 491.216213 316.130384 
L 490.354603 316.253224 
L 489.492994 316.046931 
L 486.908164 315.910763 
L 485.184945 315.586229 
L 484.323335 314.852824 
L 483.461726 313.845026 
L 482.600116 313.339576 
L 481.738506 313.059121 
L 480.876896 312.276767 
L 480.015287 312.103233 
L 477.430457 310.361698 
L 476.568848 309.434119 
L 475.707238 304.697761 
L 473.984019 306.408337 
L 473.122409 305.878205 
L 472.260799 304.598402 
L 470.53758 307.337413 
L 469.67597 309.022364 
L 468.81436 309.733748 
L 467.95275 309.758263 
L 467.091141 310.269356 
L 466.229531 310.040847 
L 464.506312 310.182046 
L 463.644702 308.709052 
L 462.783092 307.727828 
L 461.921482 308.042144 
L 461.059873 307.185713 
L 460.198263 307.805911 
L 459.336653 307.384398 
L 458.475043 305.10602 
L 457.613434 306.237795 
L 456.751824 305.873568 
L 455.890214 302.995052 
L 455.028605 301.952811 
L 454.166995 301.982091 
L 453.305385 299.309675 
L 452.443775 301.228203 
L 451.582166 294.777466 
L 450.720556 285.380068 
L 448.997336 285.417053 
L 448.135727 274.092619 
L 447.274117 276.977089 
L 446.412507 250.237576 
L 445.550898 250.315655 
L 444.689288 277.148864 
L 443.827678 283.850671 
L 442.966068 283.889711 
L 442.104459 285.651291 
L 441.242849 288.6823 
L 440.381239 301.089757 
L 439.519629 301.536415 
L 438.65802 299.723041 
L 437.79641 299.209883 
L 436.9348 303.115934 
L 436.073191 305.85972 
L 435.211581 306.693739 
L 434.349971 304.174862 
L 433.488361 304.755875 
L 432.626752 305.758231 
L 431.765142 309.580922 
L 430.903532 308.166159 
L 430.041922 308.869762 
L 428.318703 308.661757 
L 427.457093 309.054642 
L 426.595483 309.308139 
L 425.733874 307.120404 
L 424.872264 308.538257 
L 423.149045 308.480933 
L 422.287435 309.696718 
L 421.425825 310.553162 
L 420.564215 311.242057 
L 419.702606 312.805257 
L 418.840996 313.759584 
L 417.979386 314.154757 
L 417.117776 314.846543 
L 416.256167 314.705471 
L 415.394557 315.06942 
L 414.532947 315.170115 
L 413.671338 314.934605 
L 412.809728 315.062559 
L 411.948118 314.913118 
L 411.086508 314.338552 
L 410.224899 314.622065 
L 409.363289 313.935759 
L 408.501679 314.704886 
L 407.640069 314.960565 
L 406.77846 314.814043 
L 405.91685 315.22892 
L 405.05524 315.912007 
L 404.193631 315.86479 
L 403.332021 316.208785 
L 399.885582 315.472145 
L 399.023972 313.799972 
L 398.162362 313.67766 
L 397.300753 276.940652 
L 396.439143 284.332161 
L 395.577533 281.076252 
L 394.715924 284.396044 
L 393.854314 284.396044 
L 392.992704 287.143019 
L 392.131094 293.217607 
L 391.269485 301.635311 
L 390.407875 299.323454 
L 389.546265 302.33931 
L 388.684655 301.706602 
L 387.823046 302.35883 
L 386.961436 302.36859 
L 386.099826 301.058966 
L 385.238217 295.092497 
L 384.376607 295.107137 
L 383.514997 297.644733 
L 382.653387 299.627967 
L 381.791778 305.927581 
L 380.930168 308.039787 
L 380.068558 309.326772 
L 379.206948 310.165685 
L 378.345339 310.314272 
L 377.483729 309.737183 
L 376.622119 310.757336 
L 374.8989 307.495201 
L 374.03729 306.961197 
L 373.17568 307.615672 
L 372.314071 307.342841 
L 371.452461 308.174073 
L 370.590851 305.304997 
L 369.729241 305.728772 
L 368.867632 305.73685 
L 368.006022 303.9427 
L 367.144412 296.556494 
L 366.282803 295.185216 
L 365.421193 289.758682 
L 364.559583 296.673613 
L 363.697973 296.702893 
L 362.836364 299.976862 
L 361.974754 302.379237 
L 361.113144 303.647164 
L 360.251534 305.606169 
L 359.389925 307.977085 
L 358.528315 306.804116 
L 357.666705 306.467859 
L 356.805096 306.499092 
L 355.943486 303.842366 
L 355.081876 303.295375 
L 354.220266 304.954273 
L 353.358657 301.349638 
L 352.497047 303.448142 
L 351.635437 304.037569 
L 350.773827 302.869016 
L 349.912218 306.733338 
L 349.050608 308.762866 
L 348.188998 308.318422 
L 347.327389 308.345193 
L 346.465779 308.621647 
L 344.742559 308.135155 
L 343.88095 305.812837 
L 343.01934 302.625141 
L 342.15773 306.350735 
L 341.29612 306.762687 
L 340.434511 305.584932 
L 339.572901 309.898778 
L 338.711291 311.121858 
L 337.849682 311.371124 
L 336.988072 311.016279 
L 336.126462 312.494347 
L 335.264852 312.941033 
L 334.403243 312.947924 
L 333.541633 311.662019 
L 332.680023 310.673757 
L 330.956804 311.375249 
L 330.095194 305.394233 
L 329.233584 304.986002 
L 328.371975 308.750012 
L 327.510365 308.750012 
L 326.648755 309.248738 
L 325.787145 307.935813 
L 324.063926 307.974854 
L 323.202316 305.220247 
L 322.340706 294.326339 
L 321.479097 303.539802 
L 320.617487 307.853152 
L 318.894268 307.885463 
L 318.032658 308.504311 
L 317.171048 307.917773 
L 316.309438 309.313306 
L 315.447829 309.368425 
L 314.586219 306.15553 
L 313.724609 306.15553 
L 312.862999 305.179508 
L 312.00139 307.814784 
L 311.13978 308.458972 
L 310.27817 306.7349 
L 309.416561 303.478159 
L 308.554951 303.502817 
L 307.693341 306.389777 
L 306.831731 305.933167 
L 305.970122 299.979328 
L 305.108512 297.35944 
L 304.246902 297.377459 
L 303.385292 293.786879 
L 302.523683 288.600502 
L 301.662073 265.827378 
L 300.800463 265.874225 
L 299.938854 253.061437 
L 299.077244 304.511912 
L 298.215634 305.690588 
L 297.354024 307.851657 
L 296.492415 307.851657 
L 294.769195 307.109696 
L 293.907585 307.503953 
L 293.045976 289.329244 
L 292.184366 275.43112 
L 291.322756 66.96 
L 290.461146 66.96 
L 289.599537 233.893017 
L 288.737927 275.626318 
L 287.876317 267.326498 
L 286.153098 267.326498 
L 285.291488 286.088947 
L 284.429878 286.088947 
L 283.568269 281.688617 
L 282.706659 255.111015 
L 281.845049 289.693615 
L 280.983439 299.574426 
L 280.12183 299.574426 
L 279.26022 294.787719 
L 278.39861 294.787719 
L 277.537001 298.278382 
L 276.675391 298.278382 
L 275.813781 292.67105 
L 274.952171 268.216601 
L 274.090562 290.057986 
L 273.228952 290.057986 
L 272.367342 295.021959 
L 271.505732 292.858441 
L 269.782513 301.056837 
L 268.920903 306.24426 
L 268.059294 307.209642 
L 267.197684 307.990471 
L 266.336074 308.975943 
L 265.474464 308.992098 
L 264.612855 311.305208 
L 263.751245 311.334491 
L 262.889635 311.222013 
L 262.028025 312.783865 
L 260.304806 314.369363 
L 259.443196 314.904397 
L 258.581587 315.264226 
L 256.858367 315.669363 
L 255.996757 315.526359 
L 255.135148 315.76001 
L 254.273538 315.817756 
L 253.411928 316.037918 
L 252.550318 316.117623 
L 251.688709 316.318881 
L 249.10388 316.50904 
L 245.657441 316.671097 
L 243.934221 316.643529 
L 242.211002 316.451322 
L 241.349392 316.134517 
L 240.487782 315.253662 
L 239.626173 315.040019 
L 238.764563 315.213746 
L 237.902953 314.70238 
L 235.318124 314.247922 
L 234.456514 313.821232 
L 233.594904 314.006283 
L 232.733295 309.183026 
L 231.871685 309.204321 
L 231.010075 309.903539 
L 228.425246 309.92306 
L 227.563636 295.517056 
L 226.702027 295.517056 
L 225.840417 312.234724 
L 224.978807 311.582427 
L 224.117197 311.582427 
L 223.255588 311.186401 
L 220.670759 311.186401 
M 218.085929 275.782477 
L 217.22432 289.641562 
L 216.36271 289.641562 
L 215.5011 303.500762 
L 212.916271 303.500762 
L 212.054661 296.688253 
L 211.193052 309.114879 
L 210.331442 312.510351 
L 209.469832 311.910409 
L 206.885003 311.910409 
L 206.023393 312.251089 
L 205.161783 309.349133 
L 204.300174 291.203153 
L 203.438564 278.241974 
L 202.576954 278.241974 
L 201.715345 291.281233 
L 200.853735 301.712713 
L 199.992125 301.759561 
L 199.130515 297.918013 
L 196.545686 297.918013 
L 195.684076 291.515472 
L 194.822467 240.295503 
M 193.099247 240.52974 
L 191.376028 240.52974 
L 190.514418 278.944687 
L 189.652808 291.74971 
L 188.791199 291.74971 
L 187.929589 298.152253 
L 187.067979 291.82779 
L 185.34476 291.82779 
L 184.48315 279.178925 
L 183.62154 302.134348 
L 182.759931 306.484591 
L 181.898321 309.770793 
L 181.036711 311.035801 
L 180.175101 315.253662 
L 178.451882 315.253662 
L 175.005443 314.315963 
L 174.143833 313.392411 
L 171.559004 313.392411 
L 170.697394 313.612943 
L 168.974175 313.612943 
L 168.112565 253.881268 
L 165.527736 253.881268 
M 162.942907 285.73759 
L 157.773248 285.73759 
M 156.050029 254.58398 
L 155.188419 285.971828 
L 153.4652 306.897311 
L 152.60359 311.082654 
L 151.74198 311.653418 
L 150.018761 313.45185 
L 149.157151 313.695645 
L 148.295541 314.257372 
L 147.433932 314.438728 
L 146.572322 314.003493 
L 144.849102 314.646227 
L 143.987493 315.580636 
L 139.679444 316.616694 
L 137.094615 316.731907 
L 132.786566 316.84405 
L 129.340127 316.908945 
L 128.478518 316.833763 
L 125.893688 316.898075 
L 124.170469 316.91254 
L 123.308859 316.867284 
L 122.44725 317.02583 
L 119.86242 316.971862 
L 118.139201 316.869945 
L 117.277591 316.869945 
L 116.415981 315.253662 
M 101.768616 313.612943 
L 100.907006 313.612943 
L 100.045397 315.488213 
L 99.183787 316.114318 
L 98.322177 316.114318 
L 97.460567 316.744141 
L 96.598958 316.744141 
L 95.737348 316.869945 
L 92.290909 316.939676 
L 92.290909 316.939676 
" style="fill:none;stroke:#1f77b4;stroke-linecap:square;stroke-width:1.5;"/>
   </g>
   <g id="line2d_17">
    <path clip-path="url(#p2c51b84f7a)" d="M 498.109091 312.166255 
L 497.247481 305.334198 
L 496.385871 305.334198 
L 495.524262 297.676453 
L 494.662652 296.379838 
L 493.801042 305.018752 
L 492.939433 308.238301 
L 492.077823 304.860936 
L 491.216213 307.891092 
L 490.354603 307.891092 
L 489.492994 310.944027 
L 488.631384 310.944027 
L 487.769774 309.235705 
L 486.908164 306.786919 
L 486.046555 306.786919 
L 485.184945 305.860145 
L 484.323335 306.07311 
L 483.461726 303.731456 
L 480.015287 303.731456 
L 479.153677 299.266669 
L 478.292067 307.069631 
L 477.430457 294.692713 
L 474.845628 294.692713 
L 473.984019 302.985618 
L 473.122409 302.985618 
L 472.260799 278.476211 
L 471.399189 304.398694 
L 468.81436 304.398694 
L 467.95275 298.035133 
L 467.091141 304.75685 
L 466.229531 304.75685 
L 465.367921 281.565224 
L 463.644702 281.565224 
L 462.783092 292.459216 
L 461.921482 297.611077 
L 461.059873 304.991094 
L 459.336653 304.991094 
L 458.475043 309.232006 
L 457.613434 309.232006 
L 456.751824 308.354861 
L 455.890214 312.120391 
L 455.028605 309.917594 
L 454.166995 309.917594 
L 453.305385 312.630064 
L 452.443775 311.481906 
L 451.582166 311.481906 
L 450.720556 312.47047 
L 449.858946 310.151853 
L 448.997336 312.445703 
L 448.135727 312.445703 
L 447.274117 309.441437 
L 445.550898 309.441437 
L 444.689288 311.381877 
L 443.827678 312.927893 
L 442.966068 312.76359 
L 441.242849 312.76359 
L 440.381239 313.928504 
L 439.519629 314.707409 
L 438.65802 314.078564 
L 437.79641 314.820806 
L 436.9348 314.417617 
L 435.211581 314.417617 
L 433.488361 312.932126 
L 432.626752 312.932126 
L 431.765142 307.138657 
L 430.903532 307.138657 
L 430.041922 311.442687 
L 429.180313 311.808023 
L 428.318703 313.483664 
L 427.457093 312.630867 
L 426.595483 314.139346 
L 425.733874 314.597512 
L 424.872264 314.835936 
L 424.010654 315.371468 
L 422.287435 315.238343 
L 421.425825 315.524933 
L 420.564215 315.157103 
L 418.840996 315.01642 
L 417.979386 313.471874 
L 417.117776 313.471874 
L 416.256167 312.477956 
L 415.394557 313.438452 
L 414.532947 313.712704 
L 413.671338 312.129068 
L 412.809728 311.379393 
L 411.948118 311.488975 
L 411.086508 311.764232 
L 410.224899 311.67911 
L 409.363289 299.113871 
L 408.501679 288.626529 
L 407.640069 288.626529 
L 406.77846 294.373187 
L 405.91685 288.704608 
L 405.05524 297.173956 
L 404.193631 307.555437 
L 403.332021 306.32051 
L 402.470411 305.960325 
L 401.608801 307.588901 
L 400.747192 309.940884 
L 399.885582 309.781205 
L 399.023972 308.193066 
L 398.162362 299.730293 
L 397.300753 303.403161 
L 396.439143 305.397021 
L 395.577533 302.847259 
L 394.715924 306.698327 
L 392.992704 306.698327 
L 392.131094 309.490802 
L 391.269485 308.458972 
L 390.407875 309.350276 
L 389.546265 309.350276 
L 388.684655 300.346716 
L 387.823046 300.346716 
L 386.961436 303.305559 
L 386.099826 297.317773 
L 385.238217 297.317773 
L 384.376607 302.869016 
L 382.653387 302.869016 
L 381.791778 304.07661 
L 380.930168 307.426809 
L 380.068558 306.041196 
L 379.206948 306.795804 
L 378.345339 301.677577 
L 377.483729 308.647675 
L 376.622119 308.647675 
L 375.76051 308.148934 
L 374.8989 303.252322 
L 374.03729 310.306393 
L 373.17568 309.981625 
L 371.452461 308.383185 
L 369.729241 308.383185 
L 368.867632 309.11108 
L 368.006022 300.689859 
L 367.144412 307.013089 
L 366.282803 307.013089 
L 365.421193 304.436038 
L 364.559583 306.743935 
L 363.697973 307.771334 
L 362.836364 306.769033 
L 361.974754 309.574758 
L 361.113144 306.498224 
L 360.251534 306.886157 
L 359.389925 304.093468 
L 358.528315 303.517493 
L 357.666705 301.249435 
L 356.805096 301.249435 
L 355.943486 299.425934 
L 355.081876 305.403993 
L 354.220266 307.473507 
L 353.358657 310.988948 
L 352.497047 310.39015 
L 351.635437 310.39015 
L 350.773827 311.644899 
L 349.912218 310.774297 
L 349.050608 311.499456 
L 348.188998 310.69556 
L 347.327389 307.496875 
L 346.465779 309.896152 
L 345.604169 309.896152 
L 344.742559 307.572169 
L 343.88095 305.979846 
L 343.01934 308.047014 
L 342.15773 308.047014 
L 341.29612 307.374483 
L 340.434511 310.5012 
L 339.572901 310.5012 
L 338.711291 310.835819 
L 337.849682 311.901166 
L 336.988072 310.244374 
L 335.264852 310.244374 
L 334.403243 309.530858 
L 333.541633 309.530858 
L 332.680023 309.040825 
L 331.818413 306.692345 
L 330.956804 303.214465 
L 330.095194 303.214465 
L 329.233584 305.786416 
L 328.371975 281.554767 
L 327.510365 286.030387 
L 326.648755 286.030387 
L 325.787145 281.588229 
L 324.063926 281.588229 
L 323.202316 254.993896 
L 321.479097 294.74513 
L 320.617487 298.224327 
L 319.755877 298.224327 
L 318.894268 301.812265 
L 318.032658 301.812265 
L 317.171048 300.791363 
L 316.309438 307.837308 
L 315.447829 305.050674 
L 314.586219 303.708978 
L 313.724609 304.427461 
L 312.862999 302.947306 
L 312.00139 305.692616 
L 311.13978 305.692616 
L 310.27817 282.859807 
L 307.693341 282.89327 
L 306.831731 277.187903 
L 305.970122 197.312972 
L 305.108512 237.328497 
L 304.246902 257.394829 
L 302.523683 257.394829 
L 301.662073 298.927047 
L 300.800463 298.927047 
L 299.938854 302.38323 
L 299.077244 306.95163 
L 298.215634 305.982635 
L 296.492415 305.982635 
L 295.630805 304.908278 
L 294.769195 304.908278 
L 293.907585 312.64293 
L 293.045976 312.860461 
L 292.184366 313.255308 
L 290.461146 313.32611 
L 289.599537 312.808955 
L 288.737927 313.140062 
L 287.876317 308.738272 
L 287.014708 306.79692 
L 286.153098 308.166159 
L 285.291488 310.464785 
L 284.429878 311.708573 
L 283.568269 312.675731 
L 282.706659 312.594239 
L 281.845049 313.899343 
L 280.983439 314.389805 
L 280.12183 315.274154 
L 279.26022 315.331837 
L 278.39861 315.737304 
L 276.675391 315.915249 
L 275.813781 315.834056 
L 274.952171 315.994665 
L 274.090562 315.771761 
L 273.228952 315.889766 
L 272.367342 315.703481 
L 271.505732 315.864113 
L 270.644123 315.829937 
L 269.782513 316.15981 
L 268.920903 315.983106 
L 268.059294 316.081618 
L 267.197684 315.972081 
L 266.336074 316.047257 
L 265.474464 315.792045 
L 264.612855 315.86751 
L 263.751245 315.260769 
L 262.889635 316.218191 
L 260.304806 316.181815 
L 258.581587 316.357876 
L 257.719977 315.719731 
L 256.858367 315.753926 
L 255.996757 315.611292 
L 255.135148 315.348375 
L 254.273538 314.924282 
L 253.411928 314.344371 
L 252.550318 313.939329 
L 251.688709 315.915829 
L 250.827099 313.622316 
L 249.965489 313.154972 
L 248.24227 313.154972 
L 247.38066 312.527759 
L 245.657441 307.521973 
L 244.795831 307.626083 
L 243.934221 306.438578 
L 241.349392 306.438578 
L 240.487782 295.751295 
L 239.626173 295.751295 
L 238.764563 300.260417 
L 237.902953 306.672825 
L 237.041343 306.672825 
L 236.179734 307.860332 
L 235.318124 307.860332 
L 234.456514 310.235405 
L 233.594904 310.783516 
L 232.733295 306.819229 
L 231.871685 305.413753 
L 231.010075 305.413753 
L 230.148466 303.461721 
L 229.286856 308.094582 
L 228.425246 303.578843 
L 227.563636 309.114879 
L 226.702027 309.864496 
L 225.840417 309.16173 
L 224.117197 309.16173 
L 223.255588 305.748389 
L 222.393978 309.970977 
L 221.532368 305.915707 
L 220.670759 304.047329 
L 219.809149 309.395984 
L 218.085929 309.395984 
L 217.22432 310.12005 
L 216.36271 306.116489 
L 215.5011 304.281573 
L 214.63949 306.149953 
L 213.777881 291.593551 
L 212.916271 291.593551 
L 212.054661 298.035133 
L 210.331442 298.093693 
L 209.469832 298.093693 
L 208.608222 301.993803 
L 207.746613 298.210813 
L 206.885003 298.210813 
L 206.023393 291.90587 
L 205.161783 298.327933 
L 204.300174 302.134348 
L 203.438564 308.901448 
L 202.576954 306.551518 
L 201.715345 312.631801 
L 199.992125 312.631801 
L 199.130515 313.403292 
L 198.268906 313.196389 
L 197.407296 313.248457 
L 196.545686 314.142742 
L 195.684076 314.793113 
L 193.960857 314.793113 
L 193.099247 314.413617 
L 192.237638 314.413617 
L 191.376028 314.676551 
L 190.514418 314.092767 
L 189.652808 311.914314 
L 187.067979 311.933837 
L 186.206369 313.019361 
L 185.34476 310.280955 
L 184.48315 310.280955 
L 183.62154 308.425508 
L 181.898321 308.425508 
L 181.036711 306.975394 
L 180.175101 311.759906 
L 179.313492 311.759906 
L 177.590272 314.155613 
L 175.867053 314.155613 
L 175.005443 315.106018 
L 174.143833 314.40971 
L 173.282224 314.40971 
L 172.420614 315.417839 
L 171.559004 314.795396 
L 169.835785 314.795396 
L 168.112565 311.926028 
L 167.250955 311.926028 
L 166.389346 325.908567 
L 164.666126 325.908567 
L 163.804517 368.657287 
L 162.942907 327.618587 
L 162.081297 369.36 
L 161.219687 308.693224 
L 160.358078 312.569236 
L 159.496468 315.070148 
L 158.634858 315.165724 
L 157.773248 315.019178 
L 156.911639 316.247772 
L 156.050029 316.360215 
L 155.188419 316.287838 
L 154.326809 316.629887 
L 152.60359 316.540085 
L 149.157151 316.5052 
L 148.295541 316.697419 
L 143.125883 316.931024 
L 142.264273 316.813963 
L 141.402664 317.059937 
L 137.956225 317.063993 
L 136.233005 317.043265 
L 134.509786 316.133911 
L 132.786566 316.192705 
L 131.924957 313.378628 
L 128.478518 313.378628 
M 121.58564 315.488213 
L 119.000811 315.488213 
L 118.139201 316.959297 
L 103.491836 316.904663 
M 101.768616 315.72286 
L 100.907006 315.72286 
L 100.045397 317.122642 
L 94.875738 317.112237 
L 94.875738 317.112237 
" style="fill:none;stroke:#ff7f0e;stroke-linecap:square;stroke-width:1.5;"/>
   </g>
   <g id="patch_3">
    <path d="M 72 384.48 
L 72 51.84 
" style="fill:none;stroke:#000000;stroke-linecap:square;stroke-linejoin:miter;stroke-width:0.8;"/>
   </g>
   <g id="patch_4">
    <path d="M 518.4 384.48 
L 518.4 51.84 
" style="fill:none;stroke:#000000;stroke-linecap:square;stroke-linejoin:miter;stroke-width:0.8;"/>
   </g>
   <g id="patch_5">
    <path d="M 72 384.48 
L 518.4 384.48 
" style="fill:none;stroke:#000000;stroke-linecap:square;stroke-linejoin:miter;stroke-width:0.8;"/>
   </g>
   <g id="patch_6">
    <path d="M 72 51.84 
L 518.4 51.84 
" style="fill:none;stroke:#000000;stroke-linecap:square;stroke-linejoin:miter;stroke-width:0.8;"/>
   </g>
   <g id="text_18">
    <!-- Doubling Time -->
    <defs>
     <path d="M 48.6875 27.296875 
Q 48.6875 37.203125 44.609375 42.84375 
Q 40.53125 48.484375 33.40625 48.484375 
Q 26.265625 48.484375 22.1875 42.84375 
Q 18.109375 37.203125 18.109375 27.296875 
Q 18.109375 17.390625 22.1875 11.75 
Q 26.265625 6.109375 33.40625 6.109375 
Q 40.53125 6.109375 44.609375 11.75 
Q 48.6875 17.390625 48.6875 27.296875 
z
M 18.109375 46.390625 
Q 20.953125 51.265625 25.265625 53.625 
Q 29.59375 56 35.59375 56 
Q 45.5625 56 51.78125 48.09375 
Q 58.015625 40.1875 58.015625 27.296875 
Q 58.015625 14.40625 51.78125 6.484375 
Q 45.5625 -1.421875 35.59375 -1.421875 
Q 29.59375 -1.421875 25.265625 0.953125 
Q 20.953125 3.328125 18.109375 8.203125 
L 18.109375 0 
L 9.078125 0 
L 9.078125 75.984375 
L 18.109375 75.984375 
z
" id="DejaVuSans-98"/>
     <path d="M 9.421875 75.984375 
L 18.40625 75.984375 
L 18.40625 0 
L 9.421875 0 
z
" id="DejaVuSans-108"/>
     <path d="M 45.40625 27.984375 
Q 45.40625 37.75 41.375 43.109375 
Q 37.359375 48.484375 30.078125 48.484375 
Q 22.859375 48.484375 18.828125 43.109375 
Q 14.796875 37.75 14.796875 27.984375 
Q 14.796875 18.265625 18.828125 12.890625 
Q 22.859375 7.515625 30.078125 7.515625 
Q 37.359375 7.515625 41.375 12.890625 
Q 45.40625 18.265625 45.40625 27.984375 
z
M 54.390625 6.78125 
Q 54.390625 -7.171875 48.1875 -13.984375 
Q 42 -20.796875 29.203125 -20.796875 
Q 24.46875 -20.796875 20.265625 -20.09375 
Q 16.0625 -19.390625 12.109375 -17.921875 
L 12.109375 -9.1875 
Q 16.0625 -11.328125 19.921875 -12.34375 
Q 23.78125 -13.375 27.78125 -13.375 
Q 36.625 -13.375 41.015625 -8.765625 
Q 45.40625 -4.15625 45.40625 5.171875 
L 45.40625 9.625 
Q 42.625 4.78125 38.28125 2.390625 
Q 33.9375 0 27.875 0 
Q 17.828125 0 11.671875 7.65625 
Q 5.515625 15.328125 5.515625 27.984375 
Q 5.515625 40.671875 11.671875 48.328125 
Q 17.828125 56 27.875 56 
Q 33.9375 56 38.28125 53.609375 
Q 42.625 51.21875 45.40625 46.390625 
L 45.40625 54.6875 
L 54.390625 54.6875 
z
" id="DejaVuSans-103"/>
     <path d="M -0.296875 72.90625 
L 61.375 72.90625 
L 61.375 64.59375 
L 35.5 64.59375 
L 35.5 0 
L 25.59375 0 
L 25.59375 64.59375 
L -0.296875 64.59375 
z
" id="DejaVuSans-84"/>
     <path d="M 52 44.1875 
Q 55.375 50.25 60.0625 53.125 
Q 64.75 56 71.09375 56 
Q 79.640625 56 84.28125 50.015625 
Q 88.921875 44.046875 88.921875 33.015625 
L 88.921875 0 
L 79.890625 0 
L 79.890625 32.71875 
Q 79.890625 40.578125 77.09375 44.375 
Q 74.3125 48.1875 68.609375 48.1875 
Q 61.625 48.1875 57.5625 43.546875 
Q 53.515625 38.921875 53.515625 30.90625 
L 53.515625 0 
L 44.484375 0 
L 44.484375 32.71875 
Q 44.484375 40.625 41.703125 44.40625 
Q 38.921875 48.1875 33.109375 48.1875 
Q 26.21875 48.1875 22.15625 43.53125 
Q 18.109375 38.875 18.109375 30.90625 
L 18.109375 0 
L 9.078125 0 
L 9.078125 54.6875 
L 18.109375 54.6875 
L 18.109375 46.1875 
Q 21.1875 51.21875 25.484375 53.609375 
Q 29.78125 56 35.6875 56 
Q 41.65625 56 45.828125 52.96875 
Q 50 49.953125 52 44.1875 
z
" id="DejaVuSans-109"/>
    </defs>
    <g transform="translate(251.764687 45.84)scale(0.12 -0.12)">
     <use xlink:href="#DejaVuSans-68"/>
     <use x="77.001953" xlink:href="#DejaVuSans-111"/>
     <use x="138.183594" xlink:href="#DejaVuSans-117"/>
     <use x="201.5625" xlink:href="#DejaVuSans-98"/>
     <use x="265.039062" xlink:href="#DejaVuSans-108"/>
     <use x="292.822266" xlink:href="#DejaVuSans-105"/>
     <use x="320.605469" xlink:href="#DejaVuSans-110"/>
     <use x="383.984375" xlink:href="#DejaVuSans-103"/>
     <use x="447.460938" xlink:href="#DejaVuSans-32"/>
     <use x="479.248047" xlink:href="#DejaVuSans-84"/>
     <use x="537.207031" xlink:href="#DejaVuSans-105"/>
     <use x="564.990234" xlink:href="#DejaVuSans-109"/>
     <use x="662.402344" xlink:href="#DejaVuSans-101"/>
    </g>
   </g>
   <g id="legend_1">
    <g id="patch_7">
     <path d="M 235.817187 379.48 
L 511.4 379.48 
Q 513.4 379.48 513.4 377.48 
L 513.4 349.12375 
Q 513.4 347.12375 511.4 347.12375 
L 235.817187 347.12375 
Q 233.817187 347.12375 233.817187 349.12375 
L 233.817187 377.48 
Q 233.817187 379.48 235.817187 379.48 
z
" style="fill:#ffffff;opacity:0.8;stroke:#cccccc;stroke-linejoin:miter;"/>
    </g>
    <g id="line2d_18">
     <path d="M 237.817187 355.222188 
L 257.817187 355.222188 
" style="fill:none;stroke:#1f77b4;stroke-linecap:square;stroke-width:1.5;"/>
    </g>
    <g id="line2d_19"/>
    <g id="text_19">
     <!-- Doubling Time of Confirmed Cases (over 7 days) -->
     <defs>
      <path d="M 37.109375 75.984375 
L 37.109375 68.5 
L 28.515625 68.5 
Q 23.6875 68.5 21.796875 66.546875 
Q 19.921875 64.59375 19.921875 59.515625 
L 19.921875 54.6875 
L 34.71875 54.6875 
L 34.71875 47.703125 
L 19.921875 47.703125 
L 19.921875 0 
L 10.890625 0 
L 10.890625 47.703125 
L 2.296875 47.703125 
L 2.296875 54.6875 
L 10.890625 54.6875 
L 10.890625 58.5 
Q 10.890625 67.625 15.140625 71.796875 
Q 19.390625 75.984375 28.609375 75.984375 
z
" id="DejaVuSans-102"/>
      <path d="M 64.40625 67.28125 
L 64.40625 56.890625 
Q 59.421875 61.53125 53.78125 63.8125 
Q 48.140625 66.109375 41.796875 66.109375 
Q 29.296875 66.109375 22.65625 58.46875 
Q 16.015625 50.828125 16.015625 36.375 
Q 16.015625 21.96875 22.65625 14.328125 
Q 29.296875 6.6875 41.796875 6.6875 
Q 48.140625 6.6875 53.78125 8.984375 
Q 59.421875 11.28125 64.40625 15.921875 
L 64.40625 5.609375 
Q 59.234375 2.09375 53.4375 0.328125 
Q 47.65625 -1.421875 41.21875 -1.421875 
Q 24.65625 -1.421875 15.125 8.703125 
Q 5.609375 18.84375 5.609375 36.375 
Q 5.609375 53.953125 15.125 64.078125 
Q 24.65625 74.21875 41.21875 74.21875 
Q 47.75 74.21875 53.53125 72.484375 
Q 59.328125 70.75 64.40625 67.28125 
z
" id="DejaVuSans-67"/>
      <path d="M 31 75.875 
Q 24.46875 64.65625 21.28125 53.65625 
Q 18.109375 42.671875 18.109375 31.390625 
Q 18.109375 20.125 21.3125 9.0625 
Q 24.515625 -2 31 -13.1875 
L 23.1875 -13.1875 
Q 15.875 -1.703125 12.234375 9.375 
Q 8.59375 20.453125 8.59375 31.390625 
Q 8.59375 42.28125 12.203125 53.3125 
Q 15.828125 64.359375 23.1875 75.875 
z
" id="DejaVuSans-40"/>
      <path d="M 2.984375 54.6875 
L 12.5 54.6875 
L 29.59375 8.796875 
L 46.6875 54.6875 
L 56.203125 54.6875 
L 35.6875 0 
L 23.484375 0 
z
" id="DejaVuSans-118"/>
      <path d="M 8.015625 75.875 
L 15.828125 75.875 
Q 23.140625 64.359375 26.78125 53.3125 
Q 30.421875 42.28125 30.421875 31.390625 
Q 30.421875 20.453125 26.78125 9.375 
Q 23.140625 -1.703125 15.828125 -13.1875 
L 8.015625 -13.1875 
Q 14.5 -2 17.703125 9.0625 
Q 20.90625 20.125 20.90625 31.390625 
Q 20.90625 42.671875 17.703125 53.65625 
Q 14.5 64.65625 8.015625 75.875 
z
" id="DejaVuSans-41"/>
     </defs>
     <g transform="translate(265.817187 358.722188)scale(0.1 -0.1)">
      <use xlink:href="#DejaVuSans-68"/>
      <use x="77.001953" xlink:href="#DejaVuSans-111"/>
      <use x="138.183594" xlink:href="#DejaVuSans-117"/>
      <use x="201.5625" xlink:href="#DejaVuSans-98"/>
      <use x="265.039062" xlink:href="#DejaVuSans-108"/>
      <use x="292.822266" xlink:href="#DejaVuSans-105"/>
      <use x="320.605469" xlink:href="#DejaVuSans-110"/>
      <use x="383.984375" xlink:href="#DejaVuSans-103"/>
      <use x="447.460938" xlink:href="#DejaVuSans-32"/>
      <use x="479.248047" xlink:href="#DejaVuSans-84"/>
      <use x="537.207031" xlink:href="#DejaVuSans-105"/>
      <use x="564.990234" xlink:href="#DejaVuSans-109"/>
      <use x="662.402344" xlink:href="#DejaVuSans-101"/>
      <use x="723.925781" xlink:href="#DejaVuSans-32"/>
      <use x="755.712891" xlink:href="#DejaVuSans-111"/>
      <use x="816.894531" xlink:href="#DejaVuSans-102"/>
      <use x="852.099609" xlink:href="#DejaVuSans-32"/>
      <use x="883.886719" xlink:href="#DejaVuSans-67"/>
      <use x="953.710938" xlink:href="#DejaVuSans-111"/>
      <use x="1014.892578" xlink:href="#DejaVuSans-110"/>
      <use x="1078.271484" xlink:href="#DejaVuSans-102"/>
      <use x="1113.476562" xlink:href="#DejaVuSans-105"/>
      <use x="1141.259766" xlink:href="#DejaVuSans-114"/>
      <use x="1180.623047" xlink:href="#DejaVuSans-109"/>
      <use x="1278.035156" xlink:href="#DejaVuSans-101"/>
      <use x="1339.558594" xlink:href="#DejaVuSans-100"/>
      <use x="1403.035156" xlink:href="#DejaVuSans-32"/>
      <use x="1434.822266" xlink:href="#DejaVuSans-67"/>
      <use x="1504.646484" xlink:href="#DejaVuSans-97"/>
      <use x="1565.925781" xlink:href="#DejaVuSans-115"/>
      <use x="1618.025391" xlink:href="#DejaVuSans-101"/>
      <use x="1679.548828" xlink:href="#DejaVuSans-115"/>
      <use x="1731.648438" xlink:href="#DejaVuSans-32"/>
      <use x="1763.435547" xlink:href="#DejaVuSans-40"/>
      <use x="1802.449219" xlink:href="#DejaVuSans-111"/>
      <use x="1863.630859" xlink:href="#DejaVuSans-118"/>
      <use x="1922.810547" xlink:href="#DejaVuSans-101"/>
      <use x="1984.333984" xlink:href="#DejaVuSans-114"/>
      <use x="2025.447266" xlink:href="#DejaVuSans-32"/>
      <use x="2057.234375" xlink:href="#DejaVuSans-55"/>
      <use x="2120.857422" xlink:href="#DejaVuSans-32"/>
      <use x="2152.644531" xlink:href="#DejaVuSans-100"/>
      <use x="2216.121094" xlink:href="#DejaVuSans-97"/>
      <use x="2277.400391" xlink:href="#DejaVuSans-121"/>
      <use x="2336.580078" xlink:href="#DejaVuSans-115"/>
      <use x="2388.679688" xlink:href="#DejaVuSans-41"/>
     </g>
    </g>
    <g id="line2d_20">
     <path d="M 237.817187 369.900312 
L 257.817187 369.900312 
" style="fill:none;stroke:#ff7f0e;stroke-linecap:square;stroke-width:1.5;"/>
    </g>
    <g id="line2d_21"/>
    <g id="text_20">
     <!-- Doubling Time of Recovered Cases (over 7 days) -->
     <defs>
      <path d="M 48.78125 52.59375 
L 48.78125 44.1875 
Q 44.96875 46.296875 41.140625 47.34375 
Q 37.3125 48.390625 33.40625 48.390625 
Q 24.65625 48.390625 19.8125 42.84375 
Q 14.984375 37.3125 14.984375 27.296875 
Q 14.984375 17.28125 19.8125 11.734375 
Q 24.65625 6.203125 33.40625 6.203125 
Q 37.3125 6.203125 41.140625 7.25 
Q 44.96875 8.296875 48.78125 10.40625 
L 48.78125 2.09375 
Q 45.015625 0.34375 40.984375 -0.53125 
Q 36.96875 -1.421875 32.421875 -1.421875 
Q 20.0625 -1.421875 12.78125 6.34375 
Q 5.515625 14.109375 5.515625 27.296875 
Q 5.515625 40.671875 12.859375 48.328125 
Q 20.21875 56 33.015625 56 
Q 37.15625 56 41.109375 55.140625 
Q 45.0625 54.296875 48.78125 52.59375 
z
" id="DejaVuSans-99"/>
     </defs>
     <g transform="translate(265.817187 373.400312)scale(0.1 -0.1)">
      <use xlink:href="#DejaVuSans-68"/>
      <use x="77.001953" xlink:href="#DejaVuSans-111"/>
      <use x="138.183594" xlink:href="#DejaVuSans-117"/>
      <use x="201.5625" xlink:href="#DejaVuSans-98"/>
      <use x="265.039062" xlink:href="#DejaVuSans-108"/>
      <use x="292.822266" xlink:href="#DejaVuSans-105"/>
      <use x="320.605469" xlink:href="#DejaVuSans-110"/>
      <use x="383.984375" xlink:href="#DejaVuSans-103"/>
      <use x="447.460938" xlink:href="#DejaVuSans-32"/>
      <use x="479.248047" xlink:href="#DejaVuSans-84"/>
      <use x="537.207031" xlink:href="#DejaVuSans-105"/>
      <use x="564.990234" xlink:href="#DejaVuSans-109"/>
      <use x="662.402344" xlink:href="#DejaVuSans-101"/>
      <use x="723.925781" xlink:href="#DejaVuSans-32"/>
      <use x="755.712891" xlink:href="#DejaVuSans-111"/>
      <use x="816.894531" xlink:href="#DejaVuSans-102"/>
      <use x="852.099609" xlink:href="#DejaVuSans-32"/>
      <use x="883.886719" xlink:href="#DejaVuSans-82"/>
      <use x="948.869141" xlink:href="#DejaVuSans-101"/>
      <use x="1010.392578" xlink:href="#DejaVuSans-99"/>
      <use x="1065.373047" xlink:href="#DejaVuSans-111"/>
      <use x="1126.554688" xlink:href="#DejaVuSans-118"/>
      <use x="1185.734375" xlink:href="#DejaVuSans-101"/>
      <use x="1247.257812" xlink:href="#DejaVuSans-114"/>
      <use x="1286.121094" xlink:href="#DejaVuSans-101"/>
      <use x="1347.644531" xlink:href="#DejaVuSans-100"/>
      <use x="1411.121094" xlink:href="#DejaVuSans-32"/>
      <use x="1442.908203" xlink:href="#DejaVuSans-67"/>
      <use x="1512.732422" xlink:href="#DejaVuSans-97"/>
      <use x="1574.011719" xlink:href="#DejaVuSans-115"/>
      <use x="1626.111328" xlink:href="#DejaVuSans-101"/>
      <use x="1687.634766" xlink:href="#DejaVuSans-115"/>
      <use x="1739.734375" xlink:href="#DejaVuSans-32"/>
      <use x="1771.521484" xlink:href="#DejaVuSans-40"/>
      <use x="1810.535156" xlink:href="#DejaVuSans-111"/>
      <use x="1871.716797" xlink:href="#DejaVuSans-118"/>
      <use x="1930.896484" xlink:href="#DejaVuSans-101"/>
      <use x="1992.419922" xlink:href="#DejaVuSans-114"/>
      <use x="2033.533203" xlink:href="#DejaVuSans-32"/>
      <use x="2065.320312" xlink:href="#DejaVuSans-55"/>
      <use x="2128.943359" xlink:href="#DejaVuSans-32"/>
      <use x="2160.730469" xlink:href="#DejaVuSans-100"/>
      <use x="2224.207031" xlink:href="#DejaVuSans-97"/>
      <use x="2285.486328" xlink:href="#DejaVuSans-121"/>
      <use x="2344.666016" xlink:href="#DejaVuSans-115"/>
      <use x="2396.765625" xlink:href="#DejaVuSans-41"/>
     </g>
    </g>
   </g>
  </g>
 </g>
 <defs>
  <clipPath id="p2c51b84f7a">
   <rect height="332.64" width="446.4" x="72" y="51.84"/>
  </clipPath>
 </defs>
</svg>
