<?xml version="1.0" encoding="utf-8" standalone="no"?>
<!DOCTYPE svg PUBLIC "-//W3C//DTD SVG 1.1//EN"
  "http://www.w3.org/Graphics/SVG/1.1/DTD/svg11.dtd">
<!-- Created with matplotlib (https://matplotlib.org/) -->
<svg height="432pt" version="1.1" viewBox="0 0 576 432" width="576pt" xmlns="http://www.w3.org/2000/svg" xmlns:xlink="http://www.w3.org/1999/xlink">
 <defs>
  <style type="text/css">
*{stroke-linecap:butt;stroke-linejoin:round;}
  </style>
 </defs>
 <g id="figure_1">
  <g id="patch_1">
   <path d="M 0 432 
L 576 432 
L 576 0 
L 0 0 
z
" style="fill:#ffffff;"/>
  </g>
  <g id="axes_1">
   <g id="patch_2">
    <path d="M 72 384.48 
L 518.4 384.48 
L 518.4 51.84 
L 72 51.84 
z
" style="fill:#ffffff;"/>
   </g>
   <g id="matplotlib.axis_1">
    <g id="xtick_1">
     <g id="line2d_1">
      <defs>
       <path d="M 0 0 
L 0 3.5 
" id="m99124c33c8" style="stroke:#000000;stroke-width:0.8;"/>
      </defs>
      <g>
       <use style="stroke:#000000;stroke-width:0.8;" x="80.605045" xlink:href="#m99124c33c8" y="384.48"/>
      </g>
     </g>
     <g id="text_1">
      <!-- 2020-03 -->
      <defs>
       <path d="M 19.1875 8.296875 
L 53.609375 8.296875 
L 53.609375 0 
L 7.328125 0 
L 7.328125 8.296875 
Q 12.9375 14.109375 22.625 23.890625 
Q 32.328125 33.6875 34.8125 36.53125 
Q 39.546875 41.84375 41.421875 45.53125 
Q 43.3125 49.21875 43.3125 52.78125 
Q 43.3125 58.59375 39.234375 62.25 
Q 35.15625 65.921875 28.609375 65.921875 
Q 23.96875 65.921875 18.8125 64.3125 
Q 13.671875 62.703125 7.8125 59.421875 
L 7.8125 69.390625 
Q 13.765625 71.78125 18.9375 73 
Q 24.125 74.21875 28.421875 74.21875 
Q 39.75 74.21875 46.484375 68.546875 
Q 53.21875 62.890625 53.21875 53.421875 
Q 53.21875 48.921875 51.53125 44.890625 
Q 49.859375 40.875 45.40625 35.40625 
Q 44.1875 33.984375 37.640625 27.21875 
Q 31.109375 20.453125 19.1875 8.296875 
z
" id="DejaVuSans-50"/>
       <path d="M 31.78125 66.40625 
Q 24.171875 66.40625 20.328125 58.90625 
Q 16.5 51.421875 16.5 36.375 
Q 16.5 21.390625 20.328125 13.890625 
Q 24.171875 6.390625 31.78125 6.390625 
Q 39.453125 6.390625 43.28125 13.890625 
Q 47.125 21.390625 47.125 36.375 
Q 47.125 51.421875 43.28125 58.90625 
Q 39.453125 66.40625 31.78125 66.40625 
z
M 31.78125 74.21875 
Q 44.046875 74.21875 50.515625 64.515625 
Q 56.984375 54.828125 56.984375 36.375 
Q 56.984375 17.96875 50.515625 8.265625 
Q 44.046875 -1.421875 31.78125 -1.421875 
Q 19.53125 -1.421875 13.0625 8.265625 
Q 6.59375 17.96875 6.59375 36.375 
Q 6.59375 54.828125 13.0625 64.515625 
Q 19.53125 74.21875 31.78125 74.21875 
z
" id="DejaVuSans-48"/>
       <path d="M 4.890625 31.390625 
L 31.203125 31.390625 
L 31.203125 23.390625 
L 4.890625 23.390625 
z
" id="DejaVuSans-45"/>
       <path d="M 40.578125 39.3125 
Q 47.65625 37.796875 51.625 33 
Q 55.609375 28.21875 55.609375 21.1875 
Q 55.609375 10.40625 48.1875 4.484375 
Q 40.765625 -1.421875 27.09375 -1.421875 
Q 22.515625 -1.421875 17.65625 -0.515625 
Q 12.796875 0.390625 7.625 2.203125 
L 7.625 11.71875 
Q 11.71875 9.328125 16.59375 8.109375 
Q 21.484375 6.890625 26.8125 6.890625 
Q 36.078125 6.890625 40.9375 10.546875 
Q 45.796875 14.203125 45.796875 21.1875 
Q 45.796875 27.640625 41.28125 31.265625 
Q 36.765625 34.90625 28.71875 34.90625 
L 20.21875 34.90625 
L 20.21875 43.015625 
L 29.109375 43.015625 
Q 36.375 43.015625 40.234375 45.921875 
Q 44.09375 48.828125 44.09375 54.296875 
Q 44.09375 59.90625 40.109375 62.90625 
Q 36.140625 65.921875 28.71875 65.921875 
Q 24.65625 65.921875 20.015625 65.03125 
Q 15.375 64.15625 9.8125 62.3125 
L 9.8125 71.09375 
Q 15.4375 72.65625 20.34375 73.4375 
Q 25.25 74.21875 29.59375 74.21875 
Q 40.828125 74.21875 47.359375 69.109375 
Q 53.90625 64.015625 53.90625 55.328125 
Q 53.90625 49.265625 50.4375 45.09375 
Q 46.96875 40.921875 40.578125 39.3125 
z
" id="DejaVuSans-51"/>
      </defs>
      <g transform="translate(59.713639 399.078438)scale(0.1 -0.1)">
       <use xlink:href="#DejaVuSans-50"/>
       <use x="63.623047" xlink:href="#DejaVuSans-48"/>
       <use x="127.246094" xlink:href="#DejaVuSans-50"/>
       <use x="190.869141" xlink:href="#DejaVuSans-48"/>
       <use x="254.492188" xlink:href="#DejaVuSans-45"/>
       <use x="290.576172" xlink:href="#DejaVuSans-48"/>
       <use x="354.199219" xlink:href="#DejaVuSans-51"/>
      </g>
     </g>
    </g>
    <g id="xtick_2">
     <g id="line2d_2">
      <g>
       <use style="stroke:#000000;stroke-width:0.8;" x="145.408472" xlink:href="#m99124c33c8" y="384.48"/>
      </g>
     </g>
     <g id="text_2">
      <!-- 2020-05 -->
      <defs>
       <path d="M 10.796875 72.90625 
L 49.515625 72.90625 
L 49.515625 64.59375 
L 19.828125 64.59375 
L 19.828125 46.734375 
Q 21.96875 47.46875 24.109375 47.828125 
Q 26.265625 48.1875 28.421875 48.1875 
Q 40.625 48.1875 47.75 41.5 
Q 54.890625 34.8125 54.890625 23.390625 
Q 54.890625 11.625 47.5625 5.09375 
Q 40.234375 -1.421875 26.90625 -1.421875 
Q 22.3125 -1.421875 17.546875 -0.640625 
Q 12.796875 0.140625 7.71875 1.703125 
L 7.71875 11.625 
Q 12.109375 9.234375 16.796875 8.0625 
Q 21.484375 6.890625 26.703125 6.890625 
Q 35.15625 6.890625 40.078125 11.328125 
Q 45.015625 15.765625 45.015625 23.390625 
Q 45.015625 31 40.078125 35.4375 
Q 35.15625 39.890625 26.703125 39.890625 
Q 22.75 39.890625 18.8125 39.015625 
Q 14.890625 38.140625 10.796875 36.28125 
z
" id="DejaVuSans-53"/>
      </defs>
      <g transform="translate(124.517066 399.078438)scale(0.1 -0.1)">
       <use xlink:href="#DejaVuSans-50"/>
       <use x="63.623047" xlink:href="#DejaVuSans-48"/>
       <use x="127.246094" xlink:href="#DejaVuSans-50"/>
       <use x="190.869141" xlink:href="#DejaVuSans-48"/>
       <use x="254.492188" xlink:href="#DejaVuSans-45"/>
       <use x="290.576172" xlink:href="#DejaVuSans-48"/>
       <use x="354.199219" xlink:href="#DejaVuSans-53"/>
      </g>
     </g>
    </g>
    <g id="xtick_3">
     <g id="line2d_3">
      <g>
       <use style="stroke:#000000;stroke-width:0.8;" x="210.211899" xlink:href="#m99124c33c8" y="384.48"/>
      </g>
     </g>
     <g id="text_3">
      <!-- 2020-07 -->
      <defs>
       <path d="M 8.203125 72.90625 
L 55.078125 72.90625 
L 55.078125 68.703125 
L 28.609375 0 
L 18.3125 0 
L 43.21875 64.59375 
L 8.203125 64.59375 
z
" id="DejaVuSans-55"/>
      </defs>
      <g transform="translate(189.320493 399.078438)scale(0.1 -0.1)">
       <use xlink:href="#DejaVuSans-50"/>
       <use x="63.623047" xlink:href="#DejaVuSans-48"/>
       <use x="127.246094" xlink:href="#DejaVuSans-50"/>
       <use x="190.869141" xlink:href="#DejaVuSans-48"/>
       <use x="254.492188" xlink:href="#DejaVuSans-45"/>
       <use x="290.576172" xlink:href="#DejaVuSans-48"/>
       <use x="354.199219" xlink:href="#DejaVuSans-55"/>
      </g>
     </g>
    </g>
    <g id="xtick_4">
     <g id="line2d_4">
      <g>
       <use style="stroke:#000000;stroke-width:0.8;" x="276.077677" xlink:href="#m99124c33c8" y="384.48"/>
      </g>
     </g>
     <g id="text_4">
      <!-- 2020-09 -->
      <defs>
       <path d="M 10.984375 1.515625 
L 10.984375 10.5 
Q 14.703125 8.734375 18.5 7.8125 
Q 22.3125 6.890625 25.984375 6.890625 
Q 35.75 6.890625 40.890625 13.453125 
Q 46.046875 20.015625 46.78125 33.40625 
Q 43.953125 29.203125 39.59375 26.953125 
Q 35.25 24.703125 29.984375 24.703125 
Q 19.046875 24.703125 12.671875 31.3125 
Q 6.296875 37.9375 6.296875 49.421875 
Q 6.296875 60.640625 12.9375 67.421875 
Q 19.578125 74.21875 30.609375 74.21875 
Q 43.265625 74.21875 49.921875 64.515625 
Q 56.59375 54.828125 56.59375 36.375 
Q 56.59375 19.140625 48.40625 8.859375 
Q 40.234375 -1.421875 26.421875 -1.421875 
Q 22.703125 -1.421875 18.890625 -0.6875 
Q 15.09375 0.046875 10.984375 1.515625 
z
M 30.609375 32.421875 
Q 37.25 32.421875 41.125 36.953125 
Q 45.015625 41.5 45.015625 49.421875 
Q 45.015625 57.28125 41.125 61.84375 
Q 37.25 66.40625 30.609375 66.40625 
Q 23.96875 66.40625 20.09375 61.84375 
Q 16.21875 57.28125 16.21875 49.421875 
Q 16.21875 41.5 20.09375 36.953125 
Q 23.96875 32.421875 30.609375 32.421875 
z
" id="DejaVuSans-57"/>
      </defs>
      <g transform="translate(255.186271 399.078438)scale(0.1 -0.1)">
       <use xlink:href="#DejaVuSans-50"/>
       <use x="63.623047" xlink:href="#DejaVuSans-48"/>
       <use x="127.246094" xlink:href="#DejaVuSans-50"/>
       <use x="190.869141" xlink:href="#DejaVuSans-48"/>
       <use x="254.492188" xlink:href="#DejaVuSans-45"/>
       <use x="290.576172" xlink:href="#DejaVuSans-48"/>
       <use x="354.199219" xlink:href="#DejaVuSans-57"/>
      </g>
     </g>
    </g>
    <g id="xtick_5">
     <g id="line2d_5">
      <g>
       <use style="stroke:#000000;stroke-width:0.8;" x="340.881104" xlink:href="#m99124c33c8" y="384.48"/>
      </g>
     </g>
     <g id="text_5">
      <!-- 2020-11 -->
      <defs>
       <path d="M 12.40625 8.296875 
L 28.515625 8.296875 
L 28.515625 63.921875 
L 10.984375 60.40625 
L 10.984375 69.390625 
L 28.421875 72.90625 
L 38.28125 72.90625 
L 38.28125 8.296875 
L 54.390625 8.296875 
L 54.390625 0 
L 12.40625 0 
z
" id="DejaVuSans-49"/>
      </defs>
      <g transform="translate(319.989698 399.078438)scale(0.1 -0.1)">
       <use xlink:href="#DejaVuSans-50"/>
       <use x="63.623047" xlink:href="#DejaVuSans-48"/>
       <use x="127.246094" xlink:href="#DejaVuSans-50"/>
       <use x="190.869141" xlink:href="#DejaVuSans-48"/>
       <use x="254.492188" xlink:href="#DejaVuSans-45"/>
       <use x="290.576172" xlink:href="#DejaVuSans-49"/>
       <use x="354.199219" xlink:href="#DejaVuSans-49"/>
      </g>
     </g>
    </g>
    <g id="xtick_6">
     <g id="line2d_6">
      <g>
       <use style="stroke:#000000;stroke-width:0.8;" x="405.684531" xlink:href="#m99124c33c8" y="384.48"/>
      </g>
     </g>
     <g id="text_6">
      <!-- 2021-01 -->
      <g transform="translate(384.793125 399.078438)scale(0.1 -0.1)">
       <use xlink:href="#DejaVuSans-50"/>
       <use x="63.623047" xlink:href="#DejaVuSans-48"/>
       <use x="127.246094" xlink:href="#DejaVuSans-50"/>
       <use x="190.869141" xlink:href="#DejaVuSans-49"/>
       <use x="254.492188" xlink:href="#DejaVuSans-45"/>
       <use x="290.576172" xlink:href="#DejaVuSans-48"/>
       <use x="354.199219" xlink:href="#DejaVuSans-49"/>
      </g>
     </g>
    </g>
    <g id="xtick_7">
     <g id="line2d_7">
      <g>
       <use style="stroke:#000000;stroke-width:0.8;" x="468.363256" xlink:href="#m99124c33c8" y="384.48"/>
      </g>
     </g>
     <g id="text_7">
      <!-- 2021-03 -->
      <g transform="translate(447.471849 399.078438)scale(0.1 -0.1)">
       <use xlink:href="#DejaVuSans-50"/>
       <use x="63.623047" xlink:href="#DejaVuSans-48"/>
       <use x="127.246094" xlink:href="#DejaVuSans-50"/>
       <use x="190.869141" xlink:href="#DejaVuSans-49"/>
       <use x="254.492188" xlink:href="#DejaVuSans-45"/>
       <use x="290.576172" xlink:href="#DejaVuSans-48"/>
       <use x="354.199219" xlink:href="#DejaVuSans-51"/>
      </g>
     </g>
    </g>
    <g id="text_8">
     <!-- Reported On -->
     <defs>
      <path d="M 44.390625 34.1875 
Q 47.5625 33.109375 50.5625 29.59375 
Q 53.5625 26.078125 56.59375 19.921875 
L 66.609375 0 
L 56 0 
L 46.6875 18.703125 
Q 43.0625 26.03125 39.671875 28.421875 
Q 36.28125 30.8125 30.421875 30.8125 
L 19.671875 30.8125 
L 19.671875 0 
L 9.8125 0 
L 9.8125 72.90625 
L 32.078125 72.90625 
Q 44.578125 72.90625 50.734375 67.671875 
Q 56.890625 62.453125 56.890625 51.90625 
Q 56.890625 45.015625 53.6875 40.46875 
Q 50.484375 35.9375 44.390625 34.1875 
z
M 19.671875 64.796875 
L 19.671875 38.921875 
L 32.078125 38.921875 
Q 39.203125 38.921875 42.84375 42.21875 
Q 46.484375 45.515625 46.484375 51.90625 
Q 46.484375 58.296875 42.84375 61.546875 
Q 39.203125 64.796875 32.078125 64.796875 
z
" id="DejaVuSans-82"/>
      <path d="M 56.203125 29.59375 
L 56.203125 25.203125 
L 14.890625 25.203125 
Q 15.484375 15.921875 20.484375 11.0625 
Q 25.484375 6.203125 34.421875 6.203125 
Q 39.59375 6.203125 44.453125 7.46875 
Q 49.3125 8.734375 54.109375 11.28125 
L 54.109375 2.78125 
Q 49.265625 0.734375 44.1875 -0.34375 
Q 39.109375 -1.421875 33.890625 -1.421875 
Q 20.796875 -1.421875 13.15625 6.1875 
Q 5.515625 13.8125 5.515625 26.8125 
Q 5.515625 40.234375 12.765625 48.109375 
Q 20.015625 56 32.328125 56 
Q 43.359375 56 49.78125 48.890625 
Q 56.203125 41.796875 56.203125 29.59375 
z
M 47.21875 32.234375 
Q 47.125 39.59375 43.09375 43.984375 
Q 39.0625 48.390625 32.421875 48.390625 
Q 24.90625 48.390625 20.390625 44.140625 
Q 15.875 39.890625 15.1875 32.171875 
z
" id="DejaVuSans-101"/>
      <path d="M 18.109375 8.203125 
L 18.109375 -20.796875 
L 9.078125 -20.796875 
L 9.078125 54.6875 
L 18.109375 54.6875 
L 18.109375 46.390625 
Q 20.953125 51.265625 25.265625 53.625 
Q 29.59375 56 35.59375 56 
Q 45.5625 56 51.78125 48.09375 
Q 58.015625 40.1875 58.015625 27.296875 
Q 58.015625 14.40625 51.78125 6.484375 
Q 45.5625 -1.421875 35.59375 -1.421875 
Q 29.59375 -1.421875 25.265625 0.953125 
Q 20.953125 3.328125 18.109375 8.203125 
z
M 48.6875 27.296875 
Q 48.6875 37.203125 44.609375 42.84375 
Q 40.53125 48.484375 33.40625 48.484375 
Q 26.265625 48.484375 22.1875 42.84375 
Q 18.109375 37.203125 18.109375 27.296875 
Q 18.109375 17.390625 22.1875 11.75 
Q 26.265625 6.109375 33.40625 6.109375 
Q 40.53125 6.109375 44.609375 11.75 
Q 48.6875 17.390625 48.6875 27.296875 
z
" id="DejaVuSans-112"/>
      <path d="M 30.609375 48.390625 
Q 23.390625 48.390625 19.1875 42.75 
Q 14.984375 37.109375 14.984375 27.296875 
Q 14.984375 17.484375 19.15625 11.84375 
Q 23.34375 6.203125 30.609375 6.203125 
Q 37.796875 6.203125 41.984375 11.859375 
Q 46.1875 17.53125 46.1875 27.296875 
Q 46.1875 37.015625 41.984375 42.703125 
Q 37.796875 48.390625 30.609375 48.390625 
z
M 30.609375 56 
Q 42.328125 56 49.015625 48.375 
Q 55.71875 40.765625 55.71875 27.296875 
Q 55.71875 13.875 49.015625 6.21875 
Q 42.328125 -1.421875 30.609375 -1.421875 
Q 18.84375 -1.421875 12.171875 6.21875 
Q 5.515625 13.875 5.515625 27.296875 
Q 5.515625 40.765625 12.171875 48.375 
Q 18.84375 56 30.609375 56 
z
" id="DejaVuSans-111"/>
      <path d="M 41.109375 46.296875 
Q 39.59375 47.171875 37.8125 47.578125 
Q 36.03125 48 33.890625 48 
Q 26.265625 48 22.1875 43.046875 
Q 18.109375 38.09375 18.109375 28.8125 
L 18.109375 0 
L 9.078125 0 
L 9.078125 54.6875 
L 18.109375 54.6875 
L 18.109375 46.1875 
Q 20.953125 51.171875 25.484375 53.578125 
Q 30.03125 56 36.53125 56 
Q 37.453125 56 38.578125 55.875 
Q 39.703125 55.765625 41.0625 55.515625 
z
" id="DejaVuSans-114"/>
      <path d="M 18.3125 70.21875 
L 18.3125 54.6875 
L 36.8125 54.6875 
L 36.8125 47.703125 
L 18.3125 47.703125 
L 18.3125 18.015625 
Q 18.3125 11.328125 20.140625 9.421875 
Q 21.96875 7.515625 27.59375 7.515625 
L 36.8125 7.515625 
L 36.8125 0 
L 27.59375 0 
Q 17.1875 0 13.234375 3.875 
Q 9.28125 7.765625 9.28125 18.015625 
L 9.28125 47.703125 
L 2.6875 47.703125 
L 2.6875 54.6875 
L 9.28125 54.6875 
L 9.28125 70.21875 
z
" id="DejaVuSans-116"/>
      <path d="M 45.40625 46.390625 
L 45.40625 75.984375 
L 54.390625 75.984375 
L 54.390625 0 
L 45.40625 0 
L 45.40625 8.203125 
Q 42.578125 3.328125 38.25 0.953125 
Q 33.9375 -1.421875 27.875 -1.421875 
Q 17.96875 -1.421875 11.734375 6.484375 
Q 5.515625 14.40625 5.515625 27.296875 
Q 5.515625 40.1875 11.734375 48.09375 
Q 17.96875 56 27.875 56 
Q 33.9375 56 38.25 53.625 
Q 42.578125 51.265625 45.40625 46.390625 
z
M 14.796875 27.296875 
Q 14.796875 17.390625 18.875 11.75 
Q 22.953125 6.109375 30.078125 6.109375 
Q 37.203125 6.109375 41.296875 11.75 
Q 45.40625 17.390625 45.40625 27.296875 
Q 45.40625 37.203125 41.296875 42.84375 
Q 37.203125 48.484375 30.078125 48.484375 
Q 22.953125 48.484375 18.875 42.84375 
Q 14.796875 37.203125 14.796875 27.296875 
z
" id="DejaVuSans-100"/>
      <path id="DejaVuSans-32"/>
      <path d="M 39.40625 66.21875 
Q 28.65625 66.21875 22.328125 58.203125 
Q 16.015625 50.203125 16.015625 36.375 
Q 16.015625 22.609375 22.328125 14.59375 
Q 28.65625 6.59375 39.40625 6.59375 
Q 50.140625 6.59375 56.421875 14.59375 
Q 62.703125 22.609375 62.703125 36.375 
Q 62.703125 50.203125 56.421875 58.203125 
Q 50.140625 66.21875 39.40625 66.21875 
z
M 39.40625 74.21875 
Q 54.734375 74.21875 63.90625 63.9375 
Q 73.09375 53.65625 73.09375 36.375 
Q 73.09375 19.140625 63.90625 8.859375 
Q 54.734375 -1.421875 39.40625 -1.421875 
Q 24.03125 -1.421875 14.8125 8.828125 
Q 5.609375 19.09375 5.609375 36.375 
Q 5.609375 53.65625 14.8125 63.9375 
Q 24.03125 74.21875 39.40625 74.21875 
z
" id="DejaVuSans-79"/>
      <path d="M 54.890625 33.015625 
L 54.890625 0 
L 45.90625 0 
L 45.90625 32.71875 
Q 45.90625 40.484375 42.875 44.328125 
Q 39.84375 48.1875 33.796875 48.1875 
Q 26.515625 48.1875 22.3125 43.546875 
Q 18.109375 38.921875 18.109375 30.90625 
L 18.109375 0 
L 9.078125 0 
L 9.078125 54.6875 
L 18.109375 54.6875 
L 18.109375 46.1875 
Q 21.34375 51.125 25.703125 53.5625 
Q 30.078125 56 35.796875 56 
Q 45.21875 56 50.046875 50.171875 
Q 54.890625 44.34375 54.890625 33.015625 
z
" id="DejaVuSans-110"/>
     </defs>
     <g transform="translate(263.680469 412.756563)scale(0.1 -0.1)">
      <use xlink:href="#DejaVuSans-82"/>
      <use x="64.982422" xlink:href="#DejaVuSans-101"/>
      <use x="126.505859" xlink:href="#DejaVuSans-112"/>
      <use x="189.982422" xlink:href="#DejaVuSans-111"/>
      <use x="251.164062" xlink:href="#DejaVuSans-114"/>
      <use x="292.277344" xlink:href="#DejaVuSans-116"/>
      <use x="331.486328" xlink:href="#DejaVuSans-101"/>
      <use x="393.009766" xlink:href="#DejaVuSans-100"/>
      <use x="456.486328" xlink:href="#DejaVuSans-32"/>
      <use x="488.273438" xlink:href="#DejaVuSans-79"/>
      <use x="566.984375" xlink:href="#DejaVuSans-110"/>
     </g>
    </g>
   </g>
   <g id="matplotlib.axis_2">
    <g id="ytick_1">
     <g id="line2d_8">
      <defs>
       <path d="M 0 0 
L -3.5 0 
" id="m4ebc40bcc2" style="stroke:#000000;stroke-width:0.8;"/>
      </defs>
      <g>
       <use style="stroke:#000000;stroke-width:0.8;" x="72" xlink:href="#m4ebc40bcc2" y="369.766338"/>
      </g>
     </g>
     <g id="text_9">
      <!-- 0.00 % -->
      <defs>
       <path d="M 10.6875 12.40625 
L 21 12.40625 
L 21 0 
L 10.6875 0 
z
" id="DejaVuSans-46"/>
       <path d="M 72.703125 32.078125 
Q 68.453125 32.078125 66.03125 28.46875 
Q 63.625 24.859375 63.625 18.40625 
Q 63.625 12.0625 66.03125 8.421875 
Q 68.453125 4.78125 72.703125 4.78125 
Q 76.859375 4.78125 79.265625 8.421875 
Q 81.6875 12.0625 81.6875 18.40625 
Q 81.6875 24.8125 79.265625 28.4375 
Q 76.859375 32.078125 72.703125 32.078125 
z
M 72.703125 38.28125 
Q 80.421875 38.28125 84.953125 32.90625 
Q 89.5 27.546875 89.5 18.40625 
Q 89.5 9.28125 84.9375 3.921875 
Q 80.375 -1.421875 72.703125 -1.421875 
Q 64.890625 -1.421875 60.34375 3.921875 
Q 55.8125 9.28125 55.8125 18.40625 
Q 55.8125 27.59375 60.375 32.9375 
Q 64.9375 38.28125 72.703125 38.28125 
z
M 22.3125 68.015625 
Q 18.109375 68.015625 15.6875 64.375 
Q 13.28125 60.75 13.28125 54.390625 
Q 13.28125 47.953125 15.671875 44.328125 
Q 18.0625 40.71875 22.3125 40.71875 
Q 26.5625 40.71875 28.96875 44.328125 
Q 31.390625 47.953125 31.390625 54.390625 
Q 31.390625 60.6875 28.953125 64.34375 
Q 26.515625 68.015625 22.3125 68.015625 
z
M 66.40625 74.21875 
L 74.21875 74.21875 
L 28.609375 -1.421875 
L 20.796875 -1.421875 
z
M 22.3125 74.21875 
Q 30.03125 74.21875 34.609375 68.875 
Q 39.203125 63.53125 39.203125 54.390625 
Q 39.203125 45.171875 34.640625 39.84375 
Q 30.078125 34.515625 22.3125 34.515625 
Q 14.546875 34.515625 10.03125 39.859375 
Q 5.515625 45.21875 5.515625 54.390625 
Q 5.515625 63.484375 10.046875 68.84375 
Q 14.59375 74.21875 22.3125 74.21875 
z
" id="DejaVuSans-37"/>
      </defs>
      <g transform="translate(30.054688 373.565557)scale(0.1 -0.1)">
       <use xlink:href="#DejaVuSans-48"/>
       <use x="63.623047" xlink:href="#DejaVuSans-46"/>
       <use x="95.410156" xlink:href="#DejaVuSans-48"/>
       <use x="159.033203" xlink:href="#DejaVuSans-48"/>
       <use x="222.65625" xlink:href="#DejaVuSans-32"/>
       <use x="254.443359" xlink:href="#DejaVuSans-37"/>
      </g>
     </g>
    </g>
    <g id="ytick_2">
     <g id="line2d_9">
      <g>
       <use style="stroke:#000000;stroke-width:0.8;" x="72" xlink:href="#m4ebc40bcc2" y="311.495708"/>
      </g>
     </g>
     <g id="text_10">
      <!-- 10.00 % -->
      <g transform="translate(23.692187 315.294927)scale(0.1 -0.1)">
       <use xlink:href="#DejaVuSans-49"/>
       <use x="63.623047" xlink:href="#DejaVuSans-48"/>
       <use x="127.246094" xlink:href="#DejaVuSans-46"/>
       <use x="159.033203" xlink:href="#DejaVuSans-48"/>
       <use x="222.65625" xlink:href="#DejaVuSans-48"/>
       <use x="286.279297" xlink:href="#DejaVuSans-32"/>
       <use x="318.066406" xlink:href="#DejaVuSans-37"/>
      </g>
     </g>
    </g>
    <g id="ytick_3">
     <g id="line2d_10">
      <g>
       <use style="stroke:#000000;stroke-width:0.8;" x="72" xlink:href="#m4ebc40bcc2" y="253.225078"/>
      </g>
     </g>
     <g id="text_11">
      <!-- 20.00 % -->
      <g transform="translate(23.692187 257.024297)scale(0.1 -0.1)">
       <use xlink:href="#DejaVuSans-50"/>
       <use x="63.623047" xlink:href="#DejaVuSans-48"/>
       <use x="127.246094" xlink:href="#DejaVuSans-46"/>
       <use x="159.033203" xlink:href="#DejaVuSans-48"/>
       <use x="222.65625" xlink:href="#DejaVuSans-48"/>
       <use x="286.279297" xlink:href="#DejaVuSans-32"/>
       <use x="318.066406" xlink:href="#DejaVuSans-37"/>
      </g>
     </g>
    </g>
    <g id="ytick_4">
     <g id="line2d_11">
      <g>
       <use style="stroke:#000000;stroke-width:0.8;" x="72" xlink:href="#m4ebc40bcc2" y="194.954448"/>
      </g>
     </g>
     <g id="text_12">
      <!-- 30.00 % -->
      <g transform="translate(23.692187 198.753667)scale(0.1 -0.1)">
       <use xlink:href="#DejaVuSans-51"/>
       <use x="63.623047" xlink:href="#DejaVuSans-48"/>
       <use x="127.246094" xlink:href="#DejaVuSans-46"/>
       <use x="159.033203" xlink:href="#DejaVuSans-48"/>
       <use x="222.65625" xlink:href="#DejaVuSans-48"/>
       <use x="286.279297" xlink:href="#DejaVuSans-32"/>
       <use x="318.066406" xlink:href="#DejaVuSans-37"/>
      </g>
     </g>
    </g>
    <g id="ytick_5">
     <g id="line2d_12">
      <g>
       <use style="stroke:#000000;stroke-width:0.8;" x="72" xlink:href="#m4ebc40bcc2" y="136.683819"/>
      </g>
     </g>
     <g id="text_13">
      <!-- 40.00 % -->
      <defs>
       <path d="M 37.796875 64.3125 
L 12.890625 25.390625 
L 37.796875 25.390625 
z
M 35.203125 72.90625 
L 47.609375 72.90625 
L 47.609375 25.390625 
L 58.015625 25.390625 
L 58.015625 17.1875 
L 47.609375 17.1875 
L 47.609375 0 
L 37.796875 0 
L 37.796875 17.1875 
L 4.890625 17.1875 
L 4.890625 26.703125 
z
" id="DejaVuSans-52"/>
      </defs>
      <g transform="translate(23.692187 140.483037)scale(0.1 -0.1)">
       <use xlink:href="#DejaVuSans-52"/>
       <use x="63.623047" xlink:href="#DejaVuSans-48"/>
       <use x="127.246094" xlink:href="#DejaVuSans-46"/>
       <use x="159.033203" xlink:href="#DejaVuSans-48"/>
       <use x="222.65625" xlink:href="#DejaVuSans-48"/>
       <use x="286.279297" xlink:href="#DejaVuSans-32"/>
       <use x="318.066406" xlink:href="#DejaVuSans-37"/>
      </g>
     </g>
    </g>
    <g id="ytick_6">
     <g id="line2d_13">
      <g>
       <use style="stroke:#000000;stroke-width:0.8;" x="72" xlink:href="#m4ebc40bcc2" y="78.413189"/>
      </g>
     </g>
     <g id="text_14">
      <!-- 50.00 % -->
      <g transform="translate(23.692187 82.212408)scale(0.1 -0.1)">
       <use xlink:href="#DejaVuSans-53"/>
       <use x="63.623047" xlink:href="#DejaVuSans-48"/>
       <use x="127.246094" xlink:href="#DejaVuSans-46"/>
       <use x="159.033203" xlink:href="#DejaVuSans-48"/>
       <use x="222.65625" xlink:href="#DejaVuSans-48"/>
       <use x="286.279297" xlink:href="#DejaVuSans-32"/>
       <use x="318.066406" xlink:href="#DejaVuSans-37"/>
      </g>
     </g>
    </g>
    <g id="text_15">
     <!-- Rate -->
     <defs>
      <path d="M 34.28125 27.484375 
Q 23.390625 27.484375 19.1875 25 
Q 14.984375 22.515625 14.984375 16.5 
Q 14.984375 11.71875 18.140625 8.90625 
Q 21.296875 6.109375 26.703125 6.109375 
Q 34.1875 6.109375 38.703125 11.40625 
Q 43.21875 16.703125 43.21875 25.484375 
L 43.21875 27.484375 
z
M 52.203125 31.203125 
L 52.203125 0 
L 43.21875 0 
L 43.21875 8.296875 
Q 40.140625 3.328125 35.546875 0.953125 
Q 30.953125 -1.421875 24.3125 -1.421875 
Q 15.921875 -1.421875 10.953125 3.296875 
Q 6 8.015625 6 15.921875 
Q 6 25.140625 12.171875 29.828125 
Q 18.359375 34.515625 30.609375 34.515625 
L 43.21875 34.515625 
L 43.21875 35.40625 
Q 43.21875 41.609375 39.140625 45 
Q 35.0625 48.390625 27.6875 48.390625 
Q 23 48.390625 18.546875 47.265625 
Q 14.109375 46.140625 10.015625 43.890625 
L 10.015625 52.203125 
Q 14.9375 54.109375 19.578125 55.046875 
Q 24.21875 56 28.609375 56 
Q 40.484375 56 46.34375 49.84375 
Q 52.203125 43.703125 52.203125 31.203125 
z
" id="DejaVuSans-97"/>
     </defs>
     <g transform="translate(17.6125 229.6225)rotate(-90)scale(0.1 -0.1)">
      <use xlink:href="#DejaVuSans-82"/>
      <use x="67.232422" xlink:href="#DejaVuSans-97"/>
      <use x="128.511719" xlink:href="#DejaVuSans-116"/>
      <use x="167.720703" xlink:href="#DejaVuSans-101"/>
     </g>
    </g>
   </g>
   <g id="line2d_14">
    <path clip-path="url(#p4c355e5184)" d="M 498.109091 369.36 
L 463.051499 369.156172 
L 449.240933 368.743541 
L 442.866825 368.248091 
L 439.679772 367.722782 
L 436.492718 367.176307 
L 434.368015 366.399572 
L 426.931556 364.541644 
L 424.806854 363.593366 
L 423.744503 363.325099 
L 421.6198 362.45387 
L 419.495098 361.242475 
L 416.308044 360.352988 
L 415.245693 360.416253 
L 412.058639 361.282061 
L 409.933936 361.524514 
L 407.809234 362.14232 
L 403.559829 362.671068 
L 402.497477 362.867589 
L 401.435126 362.80653 
L 399.310424 362.566551 
L 398.248072 362.53478 
L 396.12337 363.370624 
L 395.061019 363.656883 
L 393.998667 363.779675 
L 392.936316 364.071805 
L 391.873965 364.152016 
L 390.811614 364.383185 
L 388.686911 364.408119 
L 382.312803 366.116853 
L 381.250452 366.474618 
L 379.12575 366.879846 
L 375.938696 367.263927 
L 372.751642 367.632973 
L 369.564588 367.647748 
L 348.317563 368.577447 
L 337.69405 368.45804 
L 327.070538 368.350352 
L 324.945835 368.423559 
L 323.883484 368.34537 
L 321.758782 368.409529 
L 317.509376 368.408279 
L 316.447025 368.484435 
L 313.259971 368.456085 
L 309.010566 368.615812 
L 305.823513 368.608506 
L 298.387054 368.277056 
L 296.262351 368.316302 
L 282.451785 368.146508 
L 279.264731 367.783849 
L 277.140029 367.776615 
L 271.828272 367.480898 
L 268.641218 366.882539 
L 264.391813 366.358894 
L 263.329462 365.922177 
L 262.267111 365.886907 
L 261.20476 366.023431 
L 260.142408 365.971416 
L 259.080057 365.77668 
L 256.955355 364.781249 
L 255.893003 364.5678 
L 254.830652 363.848276 
L 253.768301 362.904853 
L 250.581247 361.897192 
L 249.518896 361.377156 
L 247.394193 359.983057 
L 245.269491 358.701239 
L 244.207139 358.256106 
L 238.895383 354.298389 
L 237.833032 353.817567 
L 236.770681 353.034985 
L 235.708329 352.030105 
L 234.645978 351.19034 
L 233.583627 350.622835 
L 231.458924 349.220214 
L 229.334222 346.726358 
L 228.271871 346.142125 
L 227.209519 344.989762 
L 226.147168 344.149624 
L 225.084817 342.68381 
L 224.022465 342.839814 
L 222.960114 341.818827 
L 221.897763 341.518118 
L 220.835412 341.436305 
L 219.77306 340.851195 
L 218.710709 340.683714 
L 217.648358 341.162613 
L 216.586007 340.13623 
L 214.461304 340.322217 
L 213.398953 340.211974 
L 212.336602 340.479377 
L 211.27425 340.591944 
L 210.211899 340.271362 
L 209.149548 340.280938 
L 208.087197 340.572765 
L 207.024845 340.597335 
L 205.962494 340.454369 
L 204.900143 340.553155 
L 203.837792 341.101256 
L 202.77544 342.336491 
L 201.713089 342.350923 
L 200.650738 342.861055 
L 199.588386 342.397323 
L 198.526035 341.170711 
L 197.463684 340.786135 
L 195.338981 338.782609 
L 194.27663 339.382669 
L 192.151928 338.80657 
L 191.089576 339.998999 
L 190.027225 340.238635 
L 188.964874 339.656864 
L 187.902523 337.305334 
L 185.77782 337.081136 
L 184.715469 337.279139 
L 183.653118 336.874053 
L 182.590766 336.826375 
L 181.528415 336.649184 
L 180.466064 339.02135 
L 179.403713 337.360437 
L 178.341361 338.556282 
L 177.27901 338.994646 
L 175.154307 338.668567 
L 174.091956 339.879426 
L 173.029605 339.371369 
L 171.967254 341.123461 
L 170.904902 339.582934 
L 169.842551 338.517455 
L 168.7802 336.749741 
L 167.717849 336.677199 
L 166.655497 335.889835 
L 165.593146 336.511786 
L 163.468444 333.67652 
L 162.406092 333.328603 
L 161.343741 334.698804 
L 160.28139 334.889155 
L 159.219039 333.418854 
L 158.156687 333.479924 
L 157.094336 336.072552 
L 156.031985 337.393447 
L 154.969634 337.329202 
L 153.907282 336.75291 
L 152.844931 336.308171 
L 151.78258 338.391386 
L 150.720228 338.295845 
L 149.657877 335.151949 
L 148.595526 335.661501 
L 147.533175 336.454537 
L 146.470823 338.670943 
L 145.408472 341.153449 
L 144.346121 340.077481 
L 143.28377 337.59367 
L 142.221418 339.305369 
L 141.159067 338.696933 
L 140.096716 339.439904 
L 139.034365 339.563879 
L 137.972013 335.111492 
L 136.909662 335.050186 
L 135.847311 338.806215 
L 134.78496 339.714231 
L 133.722608 338.694609 
L 132.660257 338.647306 
L 131.597906 336.233106 
L 130.535554 342.388846 
L 129.473203 344.972828 
L 128.410852 344.276385 
L 127.348501 342.907316 
L 125.223798 347.098422 
L 124.161447 349.249609 
L 123.099096 345.970847 
L 122.036744 346.47598 
L 120.974393 345.592702 
L 119.912042 348.396013 
L 118.849691 349.771856 
L 117.787339 348.377609 
L 116.724988 345.695965 
L 115.662637 348.806463 
L 113.537934 314.32739 
L 112.475583 295.436744 
L 111.413232 270.417404 
L 110.350881 241.447148 
L 109.288529 236.697407 
L 108.226178 223.549401 
L 107.163827 218.152962 
L 106.101475 219.07305 
L 105.039124 187.459988 
L 103.976773 214.157309 
L 102.914422 229.808403 
L 101.85207 216.343702 
L 100.789719 192.439333 
L 99.727368 188.509554 
L 98.665017 187.575652 
L 97.602665 188.193038 
L 96.540314 117.660781 
L 95.477963 133.919015 
L 94.415612 66.96 
L 93.35326 105.213197 
L 92.290909 133.919015 
L 92.290909 133.919015 
" style="fill:none;stroke:#1f77b4;stroke-linecap:square;stroke-width:1.5;"/>
   </g>
   <g id="line2d_15">
    <path clip-path="url(#p4c355e5184)" d="M 498.109091 369.273552 
L 492.797335 369.337321 
L 490.672632 369.274278 
L 488.54793 369.245359 
L 486.423227 369.056782 
L 482.173822 368.99484 
L 480.049119 369.039411 
L 476.862066 369.132114 
L 471.550309 369.090643 
L 469.425607 368.957407 
L 468.363256 368.7264 
L 464.113851 368.518842 
L 461.989148 368.435786 
L 457.739743 368.377325 
L 454.552689 367.977198 
L 453.490338 368.122137 
L 452.427987 368.063136 
L 451.365635 366.98778 
L 449.240933 366.63989 
L 447.11623 366.744467 
L 446.053879 366.153823 
L 444.991528 365.973521 
L 443.929177 366.758205 
L 441.804474 366.24383 
L 439.679772 365.635618 
L 438.61742 365.54345 
L 437.555069 365.218309 
L 436.492718 364.762473 
L 435.430366 364.172583 
L 434.368015 363.746371 
L 433.305664 362.682998 
L 432.243313 362.141539 
L 431.180961 361.008629 
L 430.11861 360.31443 
L 429.056259 360.097126 
L 427.993908 359.561689 
L 425.869205 359.917452 
L 424.806854 360.081985 
L 423.744503 358.266215 
L 422.682151 359.102607 
L 421.6198 359.369985 
L 420.557449 360.252438 
L 419.495098 360.416599 
L 418.432746 361.121422 
L 417.370395 361.327994 
L 416.308044 364.315144 
L 415.245693 364.183137 
L 414.183341 364.466873 
L 413.12099 364.30271 
L 412.058639 364.402757 
L 410.996287 364.052599 
L 409.933936 363.92319 
L 408.871585 363.942112 
L 407.809234 364.16514 
L 403.559829 364.18895 
L 402.497477 364.748808 
L 401.435126 364.341176 
L 400.372775 364.587547 
L 399.310424 364.503625 
L 396.12337 365.903891 
L 395.061019 365.186723 
L 393.998667 366.177809 
L 392.936316 366.242852 
L 391.873965 366.790563 
L 389.749262 367.205213 
L 388.686911 367.596778 
L 387.62456 368.460666 
L 386.562208 367.890468 
L 384.437506 368.015539 
L 383.375155 367.775377 
L 382.312803 367.840566 
L 381.250452 367.490437 
L 380.188101 367.464217 
L 379.12575 368.130934 
L 378.063398 368.169923 
L 377.001047 367.389525 
L 375.938696 367.766789 
L 374.876345 367.144632 
L 373.813993 367.716511 
L 372.751642 367.917862 
L 371.689291 367.452344 
L 370.62694 367.393318 
L 369.564588 367.955779 
L 368.502237 367.92245 
L 367.439886 368.135422 
L 366.377535 368.015662 
L 365.315183 367.454412 
L 364.252832 367.908221 
L 363.190481 367.793399 
L 362.128129 368.040494 
L 361.065778 367.997779 
L 360.003427 368.375452 
L 358.941076 367.957924 
L 357.878724 368.122418 
L 356.816373 367.979479 
L 355.754022 368.095654 
L 354.691671 368.003954 
L 352.566968 367.404897 
L 351.504617 366.517755 
L 350.442266 366.797667 
L 349.379914 366.876521 
L 348.317563 366.728362 
L 347.255212 366.698839 
L 346.192861 366.941539 
L 345.130509 367.039331 
L 344.068158 368.299529 
L 341.943455 368.390337 
L 340.881104 368.594574 
L 338.756402 368.542739 
L 337.69405 368.816347 
L 336.631699 368.86987 
L 335.569348 368.697488 
L 334.506997 368.277495 
L 333.444645 368.254833 
L 332.382294 367.911506 
L 328.132889 367.92471 
L 327.070538 368.365866 
L 326.008187 368.340259 
L 324.945835 368.665389 
L 322.821133 368.494032 
L 320.69643 368.598228 
L 309.010566 368.129878 
L 307.948215 367.878616 
L 305.823513 367.876271 
L 301.574108 368.038923 
L 300.511756 368.270443 
L 298.387054 368.38206 
L 297.324703 368.070961 
L 293.075297 367.998348 
L 292.012946 367.709175 
L 290.950595 367.53881 
L 289.888244 367.916052 
L 285.638839 367.09201 
L 284.576487 367.323961 
L 283.514136 367.124294 
L 282.451785 365.912383 
L 278.20238 366.156378 
L 277.140029 365.410763 
L 276.077677 365.159269 
L 275.015326 365.919372 
L 273.952975 364.645555 
L 272.890624 364.555289 
L 271.828272 364.317032 
L 268.641218 363.985237 
L 267.578867 363.261549 
L 266.516516 363.965272 
L 265.454165 363.387759 
L 264.391813 363.121562 
L 263.329462 359.145607 
L 261.20476 358.912963 
L 260.142408 358.498755 
L 259.080057 358.276072 
L 258.017706 357.830592 
L 256.955355 356.720916 
L 255.893003 359.602009 
L 254.830652 358.483295 
L 253.768301 356.591918 
L 252.70595 357.035921 
L 251.643598 355.634287 
L 250.581247 355.892763 
L 249.518896 353.878961 
L 248.456545 351.123355 
L 247.394193 350.123494 
L 246.331842 350.129356 
L 245.269491 347.778498 
L 244.207139 347.293987 
L 243.144788 347.806764 
L 242.082437 346.206559 
L 241.020086 347.261265 
L 239.957734 347.915115 
L 238.895383 342.933373 
L 237.833032 341.114559 
L 236.770681 342.509163 
L 235.708329 339.208411 
L 234.645978 342.996053 
L 233.583627 340.180508 
L 232.521276 340.215621 
L 231.458924 340.405067 
L 230.396573 341.188051 
L 229.334222 340.777426 
L 228.271871 340.175812 
L 227.209519 335.622886 
L 226.147168 338.00107 
L 225.084817 335.790848 
L 224.022465 339.99705 
L 222.960114 340.998687 
L 221.897763 339.102656 
L 220.835412 341.75895 
L 219.77306 343.557676 
L 218.710709 343.026741 
L 217.648358 341.439414 
L 216.586007 342.293432 
L 215.523655 342.613321 
L 214.461304 344.54665 
L 213.398953 344.18917 
L 212.336602 345.027087 
L 211.27425 343.728031 
L 210.211899 345.607007 
L 209.149548 345.64902 
L 208.087197 346.575123 
L 207.024845 345.680401 
L 205.962494 345.827699 
L 204.900143 345.370303 
L 203.837792 345.706561 
L 202.77544 349.025815 
L 201.713089 347.375221 
L 200.650738 345.368803 
L 199.588386 345.441381 
L 198.526035 343.82207 
L 197.463684 343.791868 
L 196.401333 344.729262 
L 195.338981 341.335436 
L 194.27663 338.827481 
L 193.214279 334.499961 
L 192.151928 331.611022 
L 191.089576 334.961361 
L 190.027225 335.119747 
L 187.902523 330.604999 
L 186.840171 331.48324 
L 185.77782 335.493979 
L 184.715469 338.866907 
L 183.653118 335.725144 
L 182.590766 334.38092 
L 181.528415 336.961582 
L 180.466064 338.079514 
L 179.403713 339.566664 
L 178.341361 338.781331 
L 177.27901 335.22273 
L 176.216659 330.901394 
L 175.154307 336.360645 
L 174.091956 330.351321 
L 173.029605 335.852838 
L 171.967254 330.608796 
L 170.904902 328.946462 
L 169.842551 331.459377 
L 168.7802 332.762859 
L 167.717849 327.525676 
L 166.655497 331.856567 
L 165.593146 316.943005 
L 164.530795 319.599883 
L 163.468444 326.827827 
L 162.406092 326.635107 
L 161.343741 329.278529 
L 160.28139 315.063235 
L 159.219039 320.827968 
L 158.156687 335.74153 
L 157.094336 331.33782 
L 156.031985 331.33782 
L 154.969634 328.732653 
L 153.907282 332.611804 
L 152.844931 346.42363 
L 151.78258 334.85744 
L 150.720228 334.85744 
L 149.657877 346.362483 
L 148.595526 317.918449 
L 147.533175 324.115463 
L 146.470823 324.115463 
L 145.408472 329.756114 
L 144.346121 341.322304 
L 143.28377 313.538837 
L 142.221418 313.538837 
L 141.159067 341.982871 
L 140.096716 329.032349 
L 136.909662 329.032349 
L 135.847311 291.089426 
L 133.722608 291.089426 
L 132.660257 304.039948 
L 130.535554 304.039948 
L 129.473203 182.314245 
L 128.410852 248.040635 
L 123.099096 248.040635 
L 122.036744 316.336009 
L 120.974393 316.336009 
L 119.912042 276.542513 
L 115.662637 276.542513 
L 114.600286 250.967811 
L 113.537934 250.967811 
L 112.475583 199.308693 
L 111.413232 199.308693 
L 110.350881 141.608517 
L 110.350881 141.608517 
" style="fill:none;stroke:#ff7f0e;stroke-linecap:square;stroke-width:1.5;"/>
   </g>
   <g id="patch_3">
    <path d="M 72 384.48 
L 72 51.84 
" style="fill:none;stroke:#000000;stroke-linecap:square;stroke-linejoin:miter;stroke-width:0.8;"/>
   </g>
   <g id="patch_4">
    <path d="M 518.4 384.48 
L 518.4 51.84 
" style="fill:none;stroke:#000000;stroke-linecap:square;stroke-linejoin:miter;stroke-width:0.8;"/>
   </g>
   <g id="patch_5">
    <path d="M 72 384.48 
L 518.4 384.48 
" style="fill:none;stroke:#000000;stroke-linecap:square;stroke-linejoin:miter;stroke-width:0.8;"/>
   </g>
   <g id="patch_6">
    <path d="M 72 51.84 
L 518.4 51.84 
" style="fill:none;stroke:#000000;stroke-linecap:square;stroke-linejoin:miter;stroke-width:0.8;"/>
   </g>
   <g id="text_16">
    <!-- Growth Rate -->
    <defs>
     <path d="M 59.515625 10.40625 
L 59.515625 29.984375 
L 43.40625 29.984375 
L 43.40625 38.09375 
L 69.28125 38.09375 
L 69.28125 6.78125 
Q 63.578125 2.734375 56.6875 0.65625 
Q 49.8125 -1.421875 42 -1.421875 
Q 24.90625 -1.421875 15.25 8.5625 
Q 5.609375 18.5625 5.609375 36.375 
Q 5.609375 54.25 15.25 64.234375 
Q 24.90625 74.21875 42 74.21875 
Q 49.125 74.21875 55.546875 72.453125 
Q 61.96875 70.703125 67.390625 67.28125 
L 67.390625 56.78125 
Q 61.921875 61.421875 55.765625 63.765625 
Q 49.609375 66.109375 42.828125 66.109375 
Q 29.4375 66.109375 22.71875 58.640625 
Q 16.015625 51.171875 16.015625 36.375 
Q 16.015625 21.625 22.71875 14.15625 
Q 29.4375 6.6875 42.828125 6.6875 
Q 48.046875 6.6875 52.140625 7.59375 
Q 56.25 8.5 59.515625 10.40625 
z
" id="DejaVuSans-71"/>
     <path d="M 4.203125 54.6875 
L 13.1875 54.6875 
L 24.421875 12.015625 
L 35.59375 54.6875 
L 46.1875 54.6875 
L 57.421875 12.015625 
L 68.609375 54.6875 
L 77.59375 54.6875 
L 63.28125 0 
L 52.6875 0 
L 40.921875 44.828125 
L 29.109375 0 
L 18.5 0 
z
" id="DejaVuSans-119"/>
     <path d="M 54.890625 33.015625 
L 54.890625 0 
L 45.90625 0 
L 45.90625 32.71875 
Q 45.90625 40.484375 42.875 44.328125 
Q 39.84375 48.1875 33.796875 48.1875 
Q 26.515625 48.1875 22.3125 43.546875 
Q 18.109375 38.921875 18.109375 30.90625 
L 18.109375 0 
L 9.078125 0 
L 9.078125 75.984375 
L 18.109375 75.984375 
L 18.109375 46.1875 
Q 21.34375 51.125 25.703125 53.5625 
Q 30.078125 56 35.796875 56 
Q 45.21875 56 50.046875 50.171875 
Q 54.890625 44.34375 54.890625 33.015625 
z
" id="DejaVuSans-104"/>
    </defs>
    <g transform="translate(257.824687 45.84)scale(0.12 -0.12)">
     <use xlink:href="#DejaVuSans-71"/>
     <use x="77.490234" xlink:href="#DejaVuSans-114"/>
     <use x="116.353516" xlink:href="#DejaVuSans-111"/>
     <use x="177.535156" xlink:href="#DejaVuSans-119"/>
     <use x="259.322266" xlink:href="#DejaVuSans-116"/>
     <use x="298.53125" xlink:href="#DejaVuSans-104"/>
     <use x="361.910156" xlink:href="#DejaVuSans-32"/>
     <use x="393.697266" xlink:href="#DejaVuSans-82"/>
     <use x="460.929688" xlink:href="#DejaVuSans-97"/>
     <use x="522.208984" xlink:href="#DejaVuSans-116"/>
     <use x="561.417969" xlink:href="#DejaVuSans-101"/>
    </g>
   </g>
   <g id="legend_1">
    <g id="patch_7">
     <path d="M 291.595312 89.19625 
L 511.4 89.19625 
Q 513.4 89.19625 513.4 87.19625 
L 513.4 58.84 
Q 513.4 56.84 511.4 56.84 
L 291.595312 56.84 
Q 289.595312 56.84 289.595312 58.84 
L 289.595312 87.19625 
Q 289.595312 89.19625 291.595312 89.19625 
z
" style="fill:#ffffff;opacity:0.8;stroke:#cccccc;stroke-linejoin:miter;"/>
    </g>
    <g id="line2d_16">
     <path d="M 293.595312 64.938437 
L 313.595312 64.938437 
" style="fill:none;stroke:#1f77b4;stroke-linecap:square;stroke-width:1.5;"/>
    </g>
    <g id="line2d_17"/>
    <g id="text_17">
     <!-- Confirmed Growth Rate (over 7 days) -->
     <defs>
      <path d="M 64.40625 67.28125 
L 64.40625 56.890625 
Q 59.421875 61.53125 53.78125 63.8125 
Q 48.140625 66.109375 41.796875 66.109375 
Q 29.296875 66.109375 22.65625 58.46875 
Q 16.015625 50.828125 16.015625 36.375 
Q 16.015625 21.96875 22.65625 14.328125 
Q 29.296875 6.6875 41.796875 6.6875 
Q 48.140625 6.6875 53.78125 8.984375 
Q 59.421875 11.28125 64.40625 15.921875 
L 64.40625 5.609375 
Q 59.234375 2.09375 53.4375 0.328125 
Q 47.65625 -1.421875 41.21875 -1.421875 
Q 24.65625 -1.421875 15.125 8.703125 
Q 5.609375 18.84375 5.609375 36.375 
Q 5.609375 53.953125 15.125 64.078125 
Q 24.65625 74.21875 41.21875 74.21875 
Q 47.75 74.21875 53.53125 72.484375 
Q 59.328125 70.75 64.40625 67.28125 
z
" id="DejaVuSans-67"/>
      <path d="M 37.109375 75.984375 
L 37.109375 68.5 
L 28.515625 68.5 
Q 23.6875 68.5 21.796875 66.546875 
Q 19.921875 64.59375 19.921875 59.515625 
L 19.921875 54.6875 
L 34.71875 54.6875 
L 34.71875 47.703125 
L 19.921875 47.703125 
L 19.921875 0 
L 10.890625 0 
L 10.890625 47.703125 
L 2.296875 47.703125 
L 2.296875 54.6875 
L 10.890625 54.6875 
L 10.890625 58.5 
Q 10.890625 67.625 15.140625 71.796875 
Q 19.390625 75.984375 28.609375 75.984375 
z
" id="DejaVuSans-102"/>
      <path d="M 9.421875 54.6875 
L 18.40625 54.6875 
L 18.40625 0 
L 9.421875 0 
z
M 9.421875 75.984375 
L 18.40625 75.984375 
L 18.40625 64.59375 
L 9.421875 64.59375 
z
" id="DejaVuSans-105"/>
      <path d="M 52 44.1875 
Q 55.375 50.25 60.0625 53.125 
Q 64.75 56 71.09375 56 
Q 79.640625 56 84.28125 50.015625 
Q 88.921875 44.046875 88.921875 33.015625 
L 88.921875 0 
L 79.890625 0 
L 79.890625 32.71875 
Q 79.890625 40.578125 77.09375 44.375 
Q 74.3125 48.1875 68.609375 48.1875 
Q 61.625 48.1875 57.5625 43.546875 
Q 53.515625 38.921875 53.515625 30.90625 
L 53.515625 0 
L 44.484375 0 
L 44.484375 32.71875 
Q 44.484375 40.625 41.703125 44.40625 
Q 38.921875 48.1875 33.109375 48.1875 
Q 26.21875 48.1875 22.15625 43.53125 
Q 18.109375 38.875 18.109375 30.90625 
L 18.109375 0 
L 9.078125 0 
L 9.078125 54.6875 
L 18.109375 54.6875 
L 18.109375 46.1875 
Q 21.1875 51.21875 25.484375 53.609375 
Q 29.78125 56 35.6875 56 
Q 41.65625 56 45.828125 52.96875 
Q 50 49.953125 52 44.1875 
z
" id="DejaVuSans-109"/>
      <path d="M 31 75.875 
Q 24.46875 64.65625 21.28125 53.65625 
Q 18.109375 42.671875 18.109375 31.390625 
Q 18.109375 20.125 21.3125 9.0625 
Q 24.515625 -2 31 -13.1875 
L 23.1875 -13.1875 
Q 15.875 -1.703125 12.234375 9.375 
Q 8.59375 20.453125 8.59375 31.390625 
Q 8.59375 42.28125 12.203125 53.3125 
Q 15.828125 64.359375 23.1875 75.875 
z
" id="DejaVuSans-40"/>
      <path d="M 2.984375 54.6875 
L 12.5 54.6875 
L 29.59375 8.796875 
L 46.6875 54.6875 
L 56.203125 54.6875 
L 35.6875 0 
L 23.484375 0 
z
" id="DejaVuSans-118"/>
      <path d="M 32.171875 -5.078125 
Q 28.375 -14.84375 24.75 -17.8125 
Q 21.140625 -20.796875 15.09375 -20.796875 
L 7.90625 -20.796875 
L 7.90625 -13.28125 
L 13.1875 -13.28125 
Q 16.890625 -13.28125 18.9375 -11.515625 
Q 21 -9.765625 23.484375 -3.21875 
L 25.09375 0.875 
L 2.984375 54.6875 
L 12.5 54.6875 
L 29.59375 11.921875 
L 46.6875 54.6875 
L 56.203125 54.6875 
z
" id="DejaVuSans-121"/>
      <path d="M 44.28125 53.078125 
L 44.28125 44.578125 
Q 40.484375 46.53125 36.375 47.5 
Q 32.28125 48.484375 27.875 48.484375 
Q 21.1875 48.484375 17.84375 46.4375 
Q 14.5 44.390625 14.5 40.28125 
Q 14.5 37.15625 16.890625 35.375 
Q 19.28125 33.59375 26.515625 31.984375 
L 29.59375 31.296875 
Q 39.15625 29.25 43.1875 25.515625 
Q 47.21875 21.78125 47.21875 15.09375 
Q 47.21875 7.46875 41.1875 3.015625 
Q 35.15625 -1.421875 24.609375 -1.421875 
Q 20.21875 -1.421875 15.453125 -0.5625 
Q 10.6875 0.296875 5.421875 2 
L 5.421875 11.28125 
Q 10.40625 8.6875 15.234375 7.390625 
Q 20.0625 6.109375 24.8125 6.109375 
Q 31.15625 6.109375 34.5625 8.28125 
Q 37.984375 10.453125 37.984375 14.40625 
Q 37.984375 18.0625 35.515625 20.015625 
Q 33.0625 21.96875 24.703125 23.78125 
L 21.578125 24.515625 
Q 13.234375 26.265625 9.515625 29.90625 
Q 5.8125 33.546875 5.8125 39.890625 
Q 5.8125 47.609375 11.28125 51.796875 
Q 16.75 56 26.8125 56 
Q 31.78125 56 36.171875 55.265625 
Q 40.578125 54.546875 44.28125 53.078125 
z
" id="DejaVuSans-115"/>
      <path d="M 8.015625 75.875 
L 15.828125 75.875 
Q 23.140625 64.359375 26.78125 53.3125 
Q 30.421875 42.28125 30.421875 31.390625 
Q 30.421875 20.453125 26.78125 9.375 
Q 23.140625 -1.703125 15.828125 -13.1875 
L 8.015625 -13.1875 
Q 14.5 -2 17.703125 9.0625 
Q 20.90625 20.125 20.90625 31.390625 
Q 20.90625 42.671875 17.703125 53.65625 
Q 14.5 64.65625 8.015625 75.875 
z
" id="DejaVuSans-41"/>
     </defs>
     <g transform="translate(321.595312 68.438437)scale(0.1 -0.1)">
      <use xlink:href="#DejaVuSans-67"/>
      <use x="69.824219" xlink:href="#DejaVuSans-111"/>
      <use x="131.005859" xlink:href="#DejaVuSans-110"/>
      <use x="194.384766" xlink:href="#DejaVuSans-102"/>
      <use x="229.589844" xlink:href="#DejaVuSans-105"/>
      <use x="257.373047" xlink:href="#DejaVuSans-114"/>
      <use x="296.736328" xlink:href="#DejaVuSans-109"/>
      <use x="394.148438" xlink:href="#DejaVuSans-101"/>
      <use x="455.671875" xlink:href="#DejaVuSans-100"/>
      <use x="519.148438" xlink:href="#DejaVuSans-32"/>
      <use x="550.935547" xlink:href="#DejaVuSans-71"/>
      <use x="628.425781" xlink:href="#DejaVuSans-114"/>
      <use x="667.289062" xlink:href="#DejaVuSans-111"/>
      <use x="728.470703" xlink:href="#DejaVuSans-119"/>
      <use x="810.257812" xlink:href="#DejaVuSans-116"/>
      <use x="849.466797" xlink:href="#DejaVuSans-104"/>
      <use x="912.845703" xlink:href="#DejaVuSans-32"/>
      <use x="944.632812" xlink:href="#DejaVuSans-82"/>
      <use x="1011.865234" xlink:href="#DejaVuSans-97"/>
      <use x="1073.144531" xlink:href="#DejaVuSans-116"/>
      <use x="1112.353516" xlink:href="#DejaVuSans-101"/>
      <use x="1173.876953" xlink:href="#DejaVuSans-32"/>
      <use x="1205.664062" xlink:href="#DejaVuSans-40"/>
      <use x="1244.677734" xlink:href="#DejaVuSans-111"/>
      <use x="1305.859375" xlink:href="#DejaVuSans-118"/>
      <use x="1365.039062" xlink:href="#DejaVuSans-101"/>
      <use x="1426.5625" xlink:href="#DejaVuSans-114"/>
      <use x="1467.675781" xlink:href="#DejaVuSans-32"/>
      <use x="1499.462891" xlink:href="#DejaVuSans-55"/>
      <use x="1563.085938" xlink:href="#DejaVuSans-32"/>
      <use x="1594.873047" xlink:href="#DejaVuSans-100"/>
      <use x="1658.349609" xlink:href="#DejaVuSans-97"/>
      <use x="1719.628906" xlink:href="#DejaVuSans-121"/>
      <use x="1778.808594" xlink:href="#DejaVuSans-115"/>
      <use x="1830.908203" xlink:href="#DejaVuSans-41"/>
     </g>
    </g>
    <g id="line2d_18">
     <path d="M 293.595312 79.616562 
L 313.595312 79.616562 
" style="fill:none;stroke:#ff7f0e;stroke-linecap:square;stroke-width:1.5;"/>
    </g>
    <g id="line2d_19"/>
    <g id="text_18">
     <!-- Recovered Growth Rate (over 7 days) -->
     <defs>
      <path d="M 48.78125 52.59375 
L 48.78125 44.1875 
Q 44.96875 46.296875 41.140625 47.34375 
Q 37.3125 48.390625 33.40625 48.390625 
Q 24.65625 48.390625 19.8125 42.84375 
Q 14.984375 37.3125 14.984375 27.296875 
Q 14.984375 17.28125 19.8125 11.734375 
Q 24.65625 6.203125 33.40625 6.203125 
Q 37.3125 6.203125 41.140625 7.25 
Q 44.96875 8.296875 48.78125 10.40625 
L 48.78125 2.09375 
Q 45.015625 0.34375 40.984375 -0.53125 
Q 36.96875 -1.421875 32.421875 -1.421875 
Q 20.0625 -1.421875 12.78125 6.34375 
Q 5.515625 14.109375 5.515625 27.296875 
Q 5.515625 40.671875 12.859375 48.328125 
Q 20.21875 56 33.015625 56 
Q 37.15625 56 41.109375 55.140625 
Q 45.0625 54.296875 48.78125 52.59375 
z
" id="DejaVuSans-99"/>
     </defs>
     <g transform="translate(321.595312 83.116562)scale(0.1 -0.1)">
      <use xlink:href="#DejaVuSans-82"/>
      <use x="64.982422" xlink:href="#DejaVuSans-101"/>
      <use x="126.505859" xlink:href="#DejaVuSans-99"/>
      <use x="181.486328" xlink:href="#DejaVuSans-111"/>
      <use x="242.667969" xlink:href="#DejaVuSans-118"/>
      <use x="301.847656" xlink:href="#DejaVuSans-101"/>
      <use x="363.371094" xlink:href="#DejaVuSans-114"/>
      <use x="402.234375" xlink:href="#DejaVuSans-101"/>
      <use x="463.757812" xlink:href="#DejaVuSans-100"/>
      <use x="527.234375" xlink:href="#DejaVuSans-32"/>
      <use x="559.021484" xlink:href="#DejaVuSans-71"/>
      <use x="636.511719" xlink:href="#DejaVuSans-114"/>
      <use x="675.375" xlink:href="#DejaVuSans-111"/>
      <use x="736.556641" xlink:href="#DejaVuSans-119"/>
      <use x="818.34375" xlink:href="#DejaVuSans-116"/>
      <use x="857.552734" xlink:href="#DejaVuSans-104"/>
      <use x="920.931641" xlink:href="#DejaVuSans-32"/>
      <use x="952.71875" xlink:href="#DejaVuSans-82"/>
      <use x="1019.951172" xlink:href="#DejaVuSans-97"/>
      <use x="1081.230469" xlink:href="#DejaVuSans-116"/>
      <use x="1120.439453" xlink:href="#DejaVuSans-101"/>
      <use x="1181.962891" xlink:href="#DejaVuSans-32"/>
      <use x="1213.75" xlink:href="#DejaVuSans-40"/>
      <use x="1252.763672" xlink:href="#DejaVuSans-111"/>
      <use x="1313.945312" xlink:href="#DejaVuSans-118"/>
      <use x="1373.125" xlink:href="#DejaVuSans-101"/>
      <use x="1434.648438" xlink:href="#DejaVuSans-114"/>
      <use x="1475.761719" xlink:href="#DejaVuSans-32"/>
      <use x="1507.548828" xlink:href="#DejaVuSans-55"/>
      <use x="1571.171875" xlink:href="#DejaVuSans-32"/>
      <use x="1602.958984" xlink:href="#DejaVuSans-100"/>
      <use x="1666.435547" xlink:href="#DejaVuSans-97"/>
      <use x="1727.714844" xlink:href="#DejaVuSans-121"/>
      <use x="1786.894531" xlink:href="#DejaVuSans-115"/>
      <use x="1838.994141" xlink:href="#DejaVuSans-41"/>
     </g>
    </g>
   </g>
  </g>
 </g>
 <defs>
  <clipPath id="p4c355e5184">
   <rect height="332.64" width="446.4" x="72" y="51.84"/>
  </clipPath>
 </defs>
</svg>
