<?xml version="1.0" encoding="utf-8" standalone="no"?>
<!DOCTYPE svg PUBLIC "-//W3C//DTD SVG 1.1//EN"
  "http://www.w3.org/Graphics/SVG/1.1/DTD/svg11.dtd">
<!-- Created with matplotlib (https://matplotlib.org/) -->
<svg height="432pt" version="1.1" viewBox="0 0 576 432" width="576pt" xmlns="http://www.w3.org/2000/svg" xmlns:xlink="http://www.w3.org/1999/xlink">
 <defs>
  <style type="text/css">
*{stroke-linecap:butt;stroke-linejoin:round;}
  </style>
 </defs>
 <g id="figure_1">
  <g id="patch_1">
   <path d="M 0 432 
L 576 432 
L 576 0 
L 0 0 
z
" style="fill:#ffffff;"/>
  </g>
  <g id="axes_1">
   <g id="patch_2">
    <path d="M 72 384.48 
L 518.4 384.48 
L 518.4 51.84 
L 72 51.84 
z
" style="fill:#ffffff;"/>
   </g>
   <g id="matplotlib.axis_1">
    <g id="xtick_1">
     <g id="line2d_1">
      <defs>
       <path d="M 0 0 
L 0 3.5 
" id="m01966f7764" style="stroke:#000000;stroke-width:0.8;"/>
      </defs>
      <g>
       <use style="stroke:#000000;stroke-width:0.8;" x="92.290909" xlink:href="#m01966f7764" y="384.48"/>
      </g>
     </g>
     <g id="text_1">
      <!-- 0 -->
      <defs>
       <path d="M 31.78125 66.40625 
Q 24.171875 66.40625 20.328125 58.90625 
Q 16.5 51.421875 16.5 36.375 
Q 16.5 21.390625 20.328125 13.890625 
Q 24.171875 6.390625 31.78125 6.390625 
Q 39.453125 6.390625 43.28125 13.890625 
Q 47.125 21.390625 47.125 36.375 
Q 47.125 51.421875 43.28125 58.90625 
Q 39.453125 66.40625 31.78125 66.40625 
z
M 31.78125 74.21875 
Q 44.046875 74.21875 50.515625 64.515625 
Q 56.984375 54.828125 56.984375 36.375 
Q 56.984375 17.96875 50.515625 8.265625 
Q 44.046875 -1.421875 31.78125 -1.421875 
Q 19.53125 -1.421875 13.0625 8.265625 
Q 6.59375 17.96875 6.59375 36.375 
Q 6.59375 54.828125 13.0625 64.515625 
Q 19.53125 74.21875 31.78125 74.21875 
z
" id="DejaVuSans-48"/>
      </defs>
      <g transform="translate(89.109659 399.078438)scale(0.1 -0.1)">
       <use xlink:href="#DejaVuSans-48"/>
      </g>
     </g>
    </g>
    <g id="xtick_2">
     <g id="line2d_2">
      <g>
       <use style="stroke:#000000;stroke-width:0.8;" x="149.935537" xlink:href="#m01966f7764" y="384.48"/>
      </g>
     </g>
     <g id="text_2">
      <!-- 50 -->
      <defs>
       <path d="M 10.796875 72.90625 
L 49.515625 72.90625 
L 49.515625 64.59375 
L 19.828125 64.59375 
L 19.828125 46.734375 
Q 21.96875 47.46875 24.109375 47.828125 
Q 26.265625 48.1875 28.421875 48.1875 
Q 40.625 48.1875 47.75 41.5 
Q 54.890625 34.8125 54.890625 23.390625 
Q 54.890625 11.625 47.5625 5.09375 
Q 40.234375 -1.421875 26.90625 -1.421875 
Q 22.3125 -1.421875 17.546875 -0.640625 
Q 12.796875 0.140625 7.71875 1.703125 
L 7.71875 11.625 
Q 12.109375 9.234375 16.796875 8.0625 
Q 21.484375 6.890625 26.703125 6.890625 
Q 35.15625 6.890625 40.078125 11.328125 
Q 45.015625 15.765625 45.015625 23.390625 
Q 45.015625 31 40.078125 35.4375 
Q 35.15625 39.890625 26.703125 39.890625 
Q 22.75 39.890625 18.8125 39.015625 
Q 14.890625 38.140625 10.796875 36.28125 
z
" id="DejaVuSans-53"/>
      </defs>
      <g transform="translate(143.573037 399.078438)scale(0.1 -0.1)">
       <use xlink:href="#DejaVuSans-53"/>
       <use x="63.623047" xlink:href="#DejaVuSans-48"/>
      </g>
     </g>
    </g>
    <g id="xtick_3">
     <g id="line2d_3">
      <g>
       <use style="stroke:#000000;stroke-width:0.8;" x="207.580165" xlink:href="#m01966f7764" y="384.48"/>
      </g>
     </g>
     <g id="text_3">
      <!-- 100 -->
      <defs>
       <path d="M 12.40625 8.296875 
L 28.515625 8.296875 
L 28.515625 63.921875 
L 10.984375 60.40625 
L 10.984375 69.390625 
L 28.421875 72.90625 
L 38.28125 72.90625 
L 38.28125 8.296875 
L 54.390625 8.296875 
L 54.390625 0 
L 12.40625 0 
z
" id="DejaVuSans-49"/>
      </defs>
      <g transform="translate(198.036415 399.078438)scale(0.1 -0.1)">
       <use xlink:href="#DejaVuSans-49"/>
       <use x="63.623047" xlink:href="#DejaVuSans-48"/>
       <use x="127.246094" xlink:href="#DejaVuSans-48"/>
      </g>
     </g>
    </g>
    <g id="xtick_4">
     <g id="line2d_4">
      <g>
       <use style="stroke:#000000;stroke-width:0.8;" x="265.224793" xlink:href="#m01966f7764" y="384.48"/>
      </g>
     </g>
     <g id="text_4">
      <!-- 150 -->
      <g transform="translate(255.681043 399.078438)scale(0.1 -0.1)">
       <use xlink:href="#DejaVuSans-49"/>
       <use x="63.623047" xlink:href="#DejaVuSans-53"/>
       <use x="127.246094" xlink:href="#DejaVuSans-48"/>
      </g>
     </g>
    </g>
    <g id="xtick_5">
     <g id="line2d_5">
      <g>
       <use style="stroke:#000000;stroke-width:0.8;" x="322.869421" xlink:href="#m01966f7764" y="384.48"/>
      </g>
     </g>
     <g id="text_5">
      <!-- 200 -->
      <defs>
       <path d="M 19.1875 8.296875 
L 53.609375 8.296875 
L 53.609375 0 
L 7.328125 0 
L 7.328125 8.296875 
Q 12.9375 14.109375 22.625 23.890625 
Q 32.328125 33.6875 34.8125 36.53125 
Q 39.546875 41.84375 41.421875 45.53125 
Q 43.3125 49.21875 43.3125 52.78125 
Q 43.3125 58.59375 39.234375 62.25 
Q 35.15625 65.921875 28.609375 65.921875 
Q 23.96875 65.921875 18.8125 64.3125 
Q 13.671875 62.703125 7.8125 59.421875 
L 7.8125 69.390625 
Q 13.765625 71.78125 18.9375 73 
Q 24.125 74.21875 28.421875 74.21875 
Q 39.75 74.21875 46.484375 68.546875 
Q 53.21875 62.890625 53.21875 53.421875 
Q 53.21875 48.921875 51.53125 44.890625 
Q 49.859375 40.875 45.40625 35.40625 
Q 44.1875 33.984375 37.640625 27.21875 
Q 31.109375 20.453125 19.1875 8.296875 
z
" id="DejaVuSans-50"/>
      </defs>
      <g transform="translate(313.325671 399.078438)scale(0.1 -0.1)">
       <use xlink:href="#DejaVuSans-50"/>
       <use x="63.623047" xlink:href="#DejaVuSans-48"/>
       <use x="127.246094" xlink:href="#DejaVuSans-48"/>
      </g>
     </g>
    </g>
    <g id="xtick_6">
     <g id="line2d_6">
      <g>
       <use style="stroke:#000000;stroke-width:0.8;" x="380.51405" xlink:href="#m01966f7764" y="384.48"/>
      </g>
     </g>
     <g id="text_6">
      <!-- 250 -->
      <g transform="translate(370.9703 399.078438)scale(0.1 -0.1)">
       <use xlink:href="#DejaVuSans-50"/>
       <use x="63.623047" xlink:href="#DejaVuSans-53"/>
       <use x="127.246094" xlink:href="#DejaVuSans-48"/>
      </g>
     </g>
    </g>
    <g id="xtick_7">
     <g id="line2d_7">
      <g>
       <use style="stroke:#000000;stroke-width:0.8;" x="438.158678" xlink:href="#m01966f7764" y="384.48"/>
      </g>
     </g>
     <g id="text_7">
      <!-- 300 -->
      <defs>
       <path d="M 40.578125 39.3125 
Q 47.65625 37.796875 51.625 33 
Q 55.609375 28.21875 55.609375 21.1875 
Q 55.609375 10.40625 48.1875 4.484375 
Q 40.765625 -1.421875 27.09375 -1.421875 
Q 22.515625 -1.421875 17.65625 -0.515625 
Q 12.796875 0.390625 7.625 2.203125 
L 7.625 11.71875 
Q 11.71875 9.328125 16.59375 8.109375 
Q 21.484375 6.890625 26.8125 6.890625 
Q 36.078125 6.890625 40.9375 10.546875 
Q 45.796875 14.203125 45.796875 21.1875 
Q 45.796875 27.640625 41.28125 31.265625 
Q 36.765625 34.90625 28.71875 34.90625 
L 20.21875 34.90625 
L 20.21875 43.015625 
L 29.109375 43.015625 
Q 36.375 43.015625 40.234375 45.921875 
Q 44.09375 48.828125 44.09375 54.296875 
Q 44.09375 59.90625 40.109375 62.90625 
Q 36.140625 65.921875 28.71875 65.921875 
Q 24.65625 65.921875 20.015625 65.03125 
Q 15.375 64.15625 9.8125 62.3125 
L 9.8125 71.09375 
Q 15.4375 72.65625 20.34375 73.4375 
Q 25.25 74.21875 29.59375 74.21875 
Q 40.828125 74.21875 47.359375 69.109375 
Q 53.90625 64.015625 53.90625 55.328125 
Q 53.90625 49.265625 50.4375 45.09375 
Q 46.96875 40.921875 40.578125 39.3125 
z
" id="DejaVuSans-51"/>
      </defs>
      <g transform="translate(428.614928 399.078438)scale(0.1 -0.1)">
       <use xlink:href="#DejaVuSans-51"/>
       <use x="63.623047" xlink:href="#DejaVuSans-48"/>
       <use x="127.246094" xlink:href="#DejaVuSans-48"/>
      </g>
     </g>
    </g>
    <g id="xtick_8">
     <g id="line2d_8">
      <g>
       <use style="stroke:#000000;stroke-width:0.8;" x="495.803306" xlink:href="#m01966f7764" y="384.48"/>
      </g>
     </g>
     <g id="text_8">
      <!-- 350 -->
      <g transform="translate(486.259556 399.078438)scale(0.1 -0.1)">
       <use xlink:href="#DejaVuSans-51"/>
       <use x="63.623047" xlink:href="#DejaVuSans-53"/>
       <use x="127.246094" xlink:href="#DejaVuSans-48"/>
      </g>
     </g>
    </g>
    <g id="text_9">
     <!-- Days -->
     <defs>
      <path d="M 19.671875 64.796875 
L 19.671875 8.109375 
L 31.59375 8.109375 
Q 46.6875 8.109375 53.6875 14.9375 
Q 60.6875 21.78125 60.6875 36.53125 
Q 60.6875 51.171875 53.6875 57.984375 
Q 46.6875 64.796875 31.59375 64.796875 
z
M 9.8125 72.90625 
L 30.078125 72.90625 
Q 51.265625 72.90625 61.171875 64.09375 
Q 71.09375 55.28125 71.09375 36.53125 
Q 71.09375 17.671875 61.125 8.828125 
Q 51.171875 0 30.078125 0 
L 9.8125 0 
z
" id="DejaVuSans-68"/>
      <path d="M 34.28125 27.484375 
Q 23.390625 27.484375 19.1875 25 
Q 14.984375 22.515625 14.984375 16.5 
Q 14.984375 11.71875 18.140625 8.90625 
Q 21.296875 6.109375 26.703125 6.109375 
Q 34.1875 6.109375 38.703125 11.40625 
Q 43.21875 16.703125 43.21875 25.484375 
L 43.21875 27.484375 
z
M 52.203125 31.203125 
L 52.203125 0 
L 43.21875 0 
L 43.21875 8.296875 
Q 40.140625 3.328125 35.546875 0.953125 
Q 30.953125 -1.421875 24.3125 -1.421875 
Q 15.921875 -1.421875 10.953125 3.296875 
Q 6 8.015625 6 15.921875 
Q 6 25.140625 12.171875 29.828125 
Q 18.359375 34.515625 30.609375 34.515625 
L 43.21875 34.515625 
L 43.21875 35.40625 
Q 43.21875 41.609375 39.140625 45 
Q 35.0625 48.390625 27.6875 48.390625 
Q 23 48.390625 18.546875 47.265625 
Q 14.109375 46.140625 10.015625 43.890625 
L 10.015625 52.203125 
Q 14.9375 54.109375 19.578125 55.046875 
Q 24.21875 56 28.609375 56 
Q 40.484375 56 46.34375 49.84375 
Q 52.203125 43.703125 52.203125 31.203125 
z
" id="DejaVuSans-97"/>
      <path d="M 32.171875 -5.078125 
Q 28.375 -14.84375 24.75 -17.8125 
Q 21.140625 -20.796875 15.09375 -20.796875 
L 7.90625 -20.796875 
L 7.90625 -13.28125 
L 13.1875 -13.28125 
Q 16.890625 -13.28125 18.9375 -11.515625 
Q 21 -9.765625 23.484375 -3.21875 
L 25.09375 0.875 
L 2.984375 54.6875 
L 12.5 54.6875 
L 29.59375 11.921875 
L 46.6875 54.6875 
L 56.203125 54.6875 
z
" id="DejaVuSans-121"/>
      <path d="M 44.28125 53.078125 
L 44.28125 44.578125 
Q 40.484375 46.53125 36.375 47.5 
Q 32.28125 48.484375 27.875 48.484375 
Q 21.1875 48.484375 17.84375 46.4375 
Q 14.5 44.390625 14.5 40.28125 
Q 14.5 37.15625 16.890625 35.375 
Q 19.28125 33.59375 26.515625 31.984375 
L 29.59375 31.296875 
Q 39.15625 29.25 43.1875 25.515625 
Q 47.21875 21.78125 47.21875 15.09375 
Q 47.21875 7.46875 41.1875 3.015625 
Q 35.15625 -1.421875 24.609375 -1.421875 
Q 20.21875 -1.421875 15.453125 -0.5625 
Q 10.6875 0.296875 5.421875 2 
L 5.421875 11.28125 
Q 10.40625 8.6875 15.234375 7.390625 
Q 20.0625 6.109375 24.8125 6.109375 
Q 31.15625 6.109375 34.5625 8.28125 
Q 37.984375 10.453125 37.984375 14.40625 
Q 37.984375 18.0625 35.515625 20.015625 
Q 33.0625 21.96875 24.703125 23.78125 
L 21.578125 24.515625 
Q 13.234375 26.265625 9.515625 29.90625 
Q 5.8125 33.546875 5.8125 39.890625 
Q 5.8125 47.609375 11.28125 51.796875 
Q 16.75 56 26.8125 56 
Q 31.78125 56 36.171875 55.265625 
Q 40.578125 54.546875 44.28125 53.078125 
z
" id="DejaVuSans-115"/>
     </defs>
     <g transform="translate(282.721875 412.756563)scale(0.1 -0.1)">
      <use xlink:href="#DejaVuSans-68"/>
      <use x="77.001953" xlink:href="#DejaVuSans-97"/>
      <use x="138.28125" xlink:href="#DejaVuSans-121"/>
      <use x="197.460938" xlink:href="#DejaVuSans-115"/>
     </g>
    </g>
   </g>
   <g id="matplotlib.axis_2">
    <g id="ytick_1">
     <g id="line2d_9">
      <defs>
       <path d="M 0 0 
L -3.5 0 
" id="m48d25f4bd2" style="stroke:#000000;stroke-width:0.8;"/>
      </defs>
      <g>
       <use style="stroke:#000000;stroke-width:0.8;" x="72" xlink:href="#m48d25f4bd2" y="369.600851"/>
      </g>
     </g>
     <g id="text_10">
      <!-- 100 -->
      <g transform="translate(45.9125 373.40007)scale(0.1 -0.1)">
       <use xlink:href="#DejaVuSans-49"/>
       <use x="63.623047" xlink:href="#DejaVuSans-48"/>
       <use x="127.246094" xlink:href="#DejaVuSans-48"/>
      </g>
     </g>
    </g>
    <g id="ytick_2">
     <g id="line2d_10">
      <g>
       <use style="stroke:#000000;stroke-width:0.8;" x="72" xlink:href="#m48d25f4bd2" y="313.866027"/>
      </g>
     </g>
     <g id="text_11">
      <!-- 1,000 -->
      <defs>
       <path d="M 11.71875 12.40625 
L 22.015625 12.40625 
L 22.015625 4 
L 14.015625 -11.625 
L 7.71875 -11.625 
L 11.71875 4 
z
" id="DejaVuSans-44"/>
      </defs>
      <g transform="translate(36.371875 317.665246)scale(0.1 -0.1)">
       <use xlink:href="#DejaVuSans-49"/>
       <use x="63.623047" xlink:href="#DejaVuSans-44"/>
       <use x="95.410156" xlink:href="#DejaVuSans-48"/>
       <use x="159.033203" xlink:href="#DejaVuSans-48"/>
       <use x="222.65625" xlink:href="#DejaVuSans-48"/>
      </g>
     </g>
    </g>
    <g id="ytick_3">
     <g id="line2d_11">
      <g>
       <use style="stroke:#000000;stroke-width:0.8;" x="72" xlink:href="#m48d25f4bd2" y="258.131204"/>
      </g>
     </g>
     <g id="text_12">
      <!-- 10,000 -->
      <g transform="translate(30.009375 261.930423)scale(0.1 -0.1)">
       <use xlink:href="#DejaVuSans-49"/>
       <use x="63.623047" xlink:href="#DejaVuSans-48"/>
       <use x="127.246094" xlink:href="#DejaVuSans-44"/>
       <use x="159.033203" xlink:href="#DejaVuSans-48"/>
       <use x="222.65625" xlink:href="#DejaVuSans-48"/>
       <use x="286.279297" xlink:href="#DejaVuSans-48"/>
      </g>
     </g>
    </g>
    <g id="ytick_4">
     <g id="line2d_12">
      <g>
       <use style="stroke:#000000;stroke-width:0.8;" x="72" xlink:href="#m48d25f4bd2" y="202.39638"/>
      </g>
     </g>
     <g id="text_13">
      <!-- 100,000 -->
      <g transform="translate(23.646875 206.195599)scale(0.1 -0.1)">
       <use xlink:href="#DejaVuSans-49"/>
       <use x="63.623047" xlink:href="#DejaVuSans-48"/>
       <use x="127.246094" xlink:href="#DejaVuSans-48"/>
       <use x="190.869141" xlink:href="#DejaVuSans-44"/>
       <use x="222.65625" xlink:href="#DejaVuSans-48"/>
       <use x="286.279297" xlink:href="#DejaVuSans-48"/>
       <use x="349.902344" xlink:href="#DejaVuSans-48"/>
      </g>
     </g>
    </g>
    <g id="ytick_5">
     <g id="line2d_13">
      <g>
       <use style="stroke:#000000;stroke-width:0.8;" x="72" xlink:href="#m48d25f4bd2" y="146.661557"/>
      </g>
     </g>
     <g id="text_14">
      <!-- 1,000,000 -->
      <g transform="translate(14.10625 150.460775)scale(0.1 -0.1)">
       <use xlink:href="#DejaVuSans-49"/>
       <use x="63.623047" xlink:href="#DejaVuSans-44"/>
       <use x="95.410156" xlink:href="#DejaVuSans-48"/>
       <use x="159.033203" xlink:href="#DejaVuSans-48"/>
       <use x="222.65625" xlink:href="#DejaVuSans-48"/>
       <use x="286.279297" xlink:href="#DejaVuSans-44"/>
       <use x="318.066406" xlink:href="#DejaVuSans-48"/>
       <use x="381.689453" xlink:href="#DejaVuSans-48"/>
       <use x="445.3125" xlink:href="#DejaVuSans-48"/>
      </g>
     </g>
    </g>
    <g id="ytick_6">
     <g id="line2d_14">
      <g>
       <use style="stroke:#000000;stroke-width:0.8;" x="72" xlink:href="#m48d25f4bd2" y="90.926733"/>
      </g>
     </g>
     <g id="text_15">
      <!-- 10,000,000 -->
      <g transform="translate(7.74375 94.725952)scale(0.1 -0.1)">
       <use xlink:href="#DejaVuSans-49"/>
       <use x="63.623047" xlink:href="#DejaVuSans-48"/>
       <use x="127.246094" xlink:href="#DejaVuSans-44"/>
       <use x="159.033203" xlink:href="#DejaVuSans-48"/>
       <use x="222.65625" xlink:href="#DejaVuSans-48"/>
       <use x="286.279297" xlink:href="#DejaVuSans-48"/>
       <use x="349.902344" xlink:href="#DejaVuSans-44"/>
       <use x="381.689453" xlink:href="#DejaVuSans-48"/>
       <use x="445.3125" xlink:href="#DejaVuSans-48"/>
       <use x="508.935547" xlink:href="#DejaVuSans-48"/>
      </g>
     </g>
    </g>
    <g id="ytick_7">
     <g id="line2d_15">
      <defs>
       <path d="M 0 0 
L -2 0 
" id="me1fb603271" style="stroke:#000000;stroke-width:0.6;"/>
      </defs>
      <g>
       <use style="stroke:#000000;stroke-width:0.6;" x="72" xlink:href="#me1fb603271" y="381.965552"/>
      </g>
     </g>
    </g>
    <g id="ytick_8">
     <g id="line2d_16">
      <g>
       <use style="stroke:#000000;stroke-width:0.6;" x="72" xlink:href="#me1fb603271" y="378.234284"/>
      </g>
     </g>
    </g>
    <g id="ytick_9">
     <g id="line2d_17">
      <g>
       <use style="stroke:#000000;stroke-width:0.6;" x="72" xlink:href="#me1fb603271" y="375.002113"/>
      </g>
     </g>
    </g>
    <g id="ytick_10">
     <g id="line2d_18">
      <g>
       <use style="stroke:#000000;stroke-width:0.6;" x="72" xlink:href="#me1fb603271" y="372.151137"/>
      </g>
     </g>
    </g>
    <g id="ytick_11">
     <g id="line2d_19">
      <g>
       <use style="stroke:#000000;stroke-width:0.6;" x="72" xlink:href="#me1fb603271" y="352.822997"/>
      </g>
     </g>
    </g>
    <g id="ytick_12">
     <g id="line2d_20">
      <g>
       <use style="stroke:#000000;stroke-width:0.6;" x="72" xlink:href="#me1fb603271" y="343.008582"/>
      </g>
     </g>
    </g>
    <g id="ytick_13">
     <g id="line2d_21">
      <g>
       <use style="stroke:#000000;stroke-width:0.6;" x="72" xlink:href="#me1fb603271" y="336.045144"/>
      </g>
     </g>
    </g>
    <g id="ytick_14">
     <g id="line2d_22">
      <g>
       <use style="stroke:#000000;stroke-width:0.6;" x="72" xlink:href="#me1fb603271" y="330.643881"/>
      </g>
     </g>
    </g>
    <g id="ytick_15">
     <g id="line2d_23">
      <g>
       <use style="stroke:#000000;stroke-width:0.6;" x="72" xlink:href="#me1fb603271" y="326.230728"/>
      </g>
     </g>
    </g>
    <g id="ytick_16">
     <g id="line2d_24">
      <g>
       <use style="stroke:#000000;stroke-width:0.6;" x="72" xlink:href="#me1fb603271" y="322.499461"/>
      </g>
     </g>
    </g>
    <g id="ytick_17">
     <g id="line2d_25">
      <g>
       <use style="stroke:#000000;stroke-width:0.6;" x="72" xlink:href="#me1fb603271" y="319.26729"/>
      </g>
     </g>
    </g>
    <g id="ytick_18">
     <g id="line2d_26">
      <g>
       <use style="stroke:#000000;stroke-width:0.6;" x="72" xlink:href="#me1fb603271" y="316.416313"/>
      </g>
     </g>
    </g>
    <g id="ytick_19">
     <g id="line2d_27">
      <g>
       <use style="stroke:#000000;stroke-width:0.6;" x="72" xlink:href="#me1fb603271" y="297.088174"/>
      </g>
     </g>
    </g>
    <g id="ytick_20">
     <g id="line2d_28">
      <g>
       <use style="stroke:#000000;stroke-width:0.6;" x="72" xlink:href="#me1fb603271" y="287.273758"/>
      </g>
     </g>
    </g>
    <g id="ytick_21">
     <g id="line2d_29">
      <g>
       <use style="stroke:#000000;stroke-width:0.6;" x="72" xlink:href="#me1fb603271" y="280.31032"/>
      </g>
     </g>
    </g>
    <g id="ytick_22">
     <g id="line2d_30">
      <g>
       <use style="stroke:#000000;stroke-width:0.6;" x="72" xlink:href="#me1fb603271" y="274.909058"/>
      </g>
     </g>
    </g>
    <g id="ytick_23">
     <g id="line2d_31">
      <g>
       <use style="stroke:#000000;stroke-width:0.6;" x="72" xlink:href="#me1fb603271" y="270.495905"/>
      </g>
     </g>
    </g>
    <g id="ytick_24">
     <g id="line2d_32">
      <g>
       <use style="stroke:#000000;stroke-width:0.6;" x="72" xlink:href="#me1fb603271" y="266.764637"/>
      </g>
     </g>
    </g>
    <g id="ytick_25">
     <g id="line2d_33">
      <g>
       <use style="stroke:#000000;stroke-width:0.6;" x="72" xlink:href="#me1fb603271" y="263.532466"/>
      </g>
     </g>
    </g>
    <g id="ytick_26">
     <g id="line2d_34">
      <g>
       <use style="stroke:#000000;stroke-width:0.6;" x="72" xlink:href="#me1fb603271" y="260.68149"/>
      </g>
     </g>
    </g>
    <g id="ytick_27">
     <g id="line2d_35">
      <g>
       <use style="stroke:#000000;stroke-width:0.6;" x="72" xlink:href="#me1fb603271" y="241.35335"/>
      </g>
     </g>
    </g>
    <g id="ytick_28">
     <g id="line2d_36">
      <g>
       <use style="stroke:#000000;stroke-width:0.6;" x="72" xlink:href="#me1fb603271" y="231.538935"/>
      </g>
     </g>
    </g>
    <g id="ytick_29">
     <g id="line2d_37">
      <g>
       <use style="stroke:#000000;stroke-width:0.6;" x="72" xlink:href="#me1fb603271" y="224.575496"/>
      </g>
     </g>
    </g>
    <g id="ytick_30">
     <g id="line2d_38">
      <g>
       <use style="stroke:#000000;stroke-width:0.6;" x="72" xlink:href="#me1fb603271" y="219.174234"/>
      </g>
     </g>
    </g>
    <g id="ytick_31">
     <g id="line2d_39">
      <g>
       <use style="stroke:#000000;stroke-width:0.6;" x="72" xlink:href="#me1fb603271" y="214.761081"/>
      </g>
     </g>
    </g>
    <g id="ytick_32">
     <g id="line2d_40">
      <g>
       <use style="stroke:#000000;stroke-width:0.6;" x="72" xlink:href="#me1fb603271" y="211.029814"/>
      </g>
     </g>
    </g>
    <g id="ytick_33">
     <g id="line2d_41">
      <g>
       <use style="stroke:#000000;stroke-width:0.6;" x="72" xlink:href="#me1fb603271" y="207.797643"/>
      </g>
     </g>
    </g>
    <g id="ytick_34">
     <g id="line2d_42">
      <g>
       <use style="stroke:#000000;stroke-width:0.6;" x="72" xlink:href="#me1fb603271" y="204.946666"/>
      </g>
     </g>
    </g>
    <g id="ytick_35">
     <g id="line2d_43">
      <g>
       <use style="stroke:#000000;stroke-width:0.6;" x="72" xlink:href="#me1fb603271" y="185.618527"/>
      </g>
     </g>
    </g>
    <g id="ytick_36">
     <g id="line2d_44">
      <g>
       <use style="stroke:#000000;stroke-width:0.6;" x="72" xlink:href="#me1fb603271" y="175.804111"/>
      </g>
     </g>
    </g>
    <g id="ytick_37">
     <g id="line2d_45">
      <g>
       <use style="stroke:#000000;stroke-width:0.6;" x="72" xlink:href="#me1fb603271" y="168.840673"/>
      </g>
     </g>
    </g>
    <g id="ytick_38">
     <g id="line2d_46">
      <g>
       <use style="stroke:#000000;stroke-width:0.6;" x="72" xlink:href="#me1fb603271" y="163.43941"/>
      </g>
     </g>
    </g>
    <g id="ytick_39">
     <g id="line2d_47">
      <g>
       <use style="stroke:#000000;stroke-width:0.6;" x="72" xlink:href="#me1fb603271" y="159.026258"/>
      </g>
     </g>
    </g>
    <g id="ytick_40">
     <g id="line2d_48">
      <g>
       <use style="stroke:#000000;stroke-width:0.6;" x="72" xlink:href="#me1fb603271" y="155.29499"/>
      </g>
     </g>
    </g>
    <g id="ytick_41">
     <g id="line2d_49">
      <g>
       <use style="stroke:#000000;stroke-width:0.6;" x="72" xlink:href="#me1fb603271" y="152.062819"/>
      </g>
     </g>
    </g>
    <g id="ytick_42">
     <g id="line2d_50">
      <g>
       <use style="stroke:#000000;stroke-width:0.6;" x="72" xlink:href="#me1fb603271" y="149.211842"/>
      </g>
     </g>
    </g>
    <g id="ytick_43">
     <g id="line2d_51">
      <g>
       <use style="stroke:#000000;stroke-width:0.6;" x="72" xlink:href="#me1fb603271" y="129.883703"/>
      </g>
     </g>
    </g>
    <g id="ytick_44">
     <g id="line2d_52">
      <g>
       <use style="stroke:#000000;stroke-width:0.6;" x="72" xlink:href="#me1fb603271" y="120.069288"/>
      </g>
     </g>
    </g>
    <g id="ytick_45">
     <g id="line2d_53">
      <g>
       <use style="stroke:#000000;stroke-width:0.6;" x="72" xlink:href="#me1fb603271" y="113.105849"/>
      </g>
     </g>
    </g>
    <g id="ytick_46">
     <g id="line2d_54">
      <g>
       <use style="stroke:#000000;stroke-width:0.6;" x="72" xlink:href="#me1fb603271" y="107.704587"/>
      </g>
     </g>
    </g>
    <g id="ytick_47">
     <g id="line2d_55">
      <g>
       <use style="stroke:#000000;stroke-width:0.6;" x="72" xlink:href="#me1fb603271" y="103.291434"/>
      </g>
     </g>
    </g>
    <g id="ytick_48">
     <g id="line2d_56">
      <g>
       <use style="stroke:#000000;stroke-width:0.6;" x="72" xlink:href="#me1fb603271" y="99.560167"/>
      </g>
     </g>
    </g>
    <g id="ytick_49">
     <g id="line2d_57">
      <g>
       <use style="stroke:#000000;stroke-width:0.6;" x="72" xlink:href="#me1fb603271" y="96.327996"/>
      </g>
     </g>
    </g>
    <g id="ytick_50">
     <g id="line2d_58">
      <g>
       <use style="stroke:#000000;stroke-width:0.6;" x="72" xlink:href="#me1fb603271" y="93.477019"/>
      </g>
     </g>
    </g>
    <g id="ytick_51">
     <g id="line2d_59">
      <g>
       <use style="stroke:#000000;stroke-width:0.6;" x="72" xlink:href="#me1fb603271" y="74.148879"/>
      </g>
     </g>
    </g>
    <g id="ytick_52">
     <g id="line2d_60">
      <g>
       <use style="stroke:#000000;stroke-width:0.6;" x="72" xlink:href="#me1fb603271" y="64.334464"/>
      </g>
     </g>
    </g>
    <g id="ytick_53">
     <g id="line2d_61">
      <g>
       <use style="stroke:#000000;stroke-width:0.6;" x="72" xlink:href="#me1fb603271" y="57.371026"/>
      </g>
     </g>
    </g>
    <g id="ytick_54">
     <g id="line2d_62">
      <g>
       <use style="stroke:#000000;stroke-width:0.6;" x="72" xlink:href="#me1fb603271" y="51.969763"/>
      </g>
     </g>
    </g>
    <g id="text_16">
     <!-- Confirmed Cases -->
     <defs>
      <path d="M 64.40625 67.28125 
L 64.40625 56.890625 
Q 59.421875 61.53125 53.78125 63.8125 
Q 48.140625 66.109375 41.796875 66.109375 
Q 29.296875 66.109375 22.65625 58.46875 
Q 16.015625 50.828125 16.015625 36.375 
Q 16.015625 21.96875 22.65625 14.328125 
Q 29.296875 6.6875 41.796875 6.6875 
Q 48.140625 6.6875 53.78125 8.984375 
Q 59.421875 11.28125 64.40625 15.921875 
L 64.40625 5.609375 
Q 59.234375 2.09375 53.4375 0.328125 
Q 47.65625 -1.421875 41.21875 -1.421875 
Q 24.65625 -1.421875 15.125 8.703125 
Q 5.609375 18.84375 5.609375 36.375 
Q 5.609375 53.953125 15.125 64.078125 
Q 24.65625 74.21875 41.21875 74.21875 
Q 47.75 74.21875 53.53125 72.484375 
Q 59.328125 70.75 64.40625 67.28125 
z
" id="DejaVuSans-67"/>
      <path d="M 30.609375 48.390625 
Q 23.390625 48.390625 19.1875 42.75 
Q 14.984375 37.109375 14.984375 27.296875 
Q 14.984375 17.484375 19.15625 11.84375 
Q 23.34375 6.203125 30.609375 6.203125 
Q 37.796875 6.203125 41.984375 11.859375 
Q 46.1875 17.53125 46.1875 27.296875 
Q 46.1875 37.015625 41.984375 42.703125 
Q 37.796875 48.390625 30.609375 48.390625 
z
M 30.609375 56 
Q 42.328125 56 49.015625 48.375 
Q 55.71875 40.765625 55.71875 27.296875 
Q 55.71875 13.875 49.015625 6.21875 
Q 42.328125 -1.421875 30.609375 -1.421875 
Q 18.84375 -1.421875 12.171875 6.21875 
Q 5.515625 13.875 5.515625 27.296875 
Q 5.515625 40.765625 12.171875 48.375 
Q 18.84375 56 30.609375 56 
z
" id="DejaVuSans-111"/>
      <path d="M 54.890625 33.015625 
L 54.890625 0 
L 45.90625 0 
L 45.90625 32.71875 
Q 45.90625 40.484375 42.875 44.328125 
Q 39.84375 48.1875 33.796875 48.1875 
Q 26.515625 48.1875 22.3125 43.546875 
Q 18.109375 38.921875 18.109375 30.90625 
L 18.109375 0 
L 9.078125 0 
L 9.078125 54.6875 
L 18.109375 54.6875 
L 18.109375 46.1875 
Q 21.34375 51.125 25.703125 53.5625 
Q 30.078125 56 35.796875 56 
Q 45.21875 56 50.046875 50.171875 
Q 54.890625 44.34375 54.890625 33.015625 
z
" id="DejaVuSans-110"/>
      <path d="M 37.109375 75.984375 
L 37.109375 68.5 
L 28.515625 68.5 
Q 23.6875 68.5 21.796875 66.546875 
Q 19.921875 64.59375 19.921875 59.515625 
L 19.921875 54.6875 
L 34.71875 54.6875 
L 34.71875 47.703125 
L 19.921875 47.703125 
L 19.921875 0 
L 10.890625 0 
L 10.890625 47.703125 
L 2.296875 47.703125 
L 2.296875 54.6875 
L 10.890625 54.6875 
L 10.890625 58.5 
Q 10.890625 67.625 15.140625 71.796875 
Q 19.390625 75.984375 28.609375 75.984375 
z
" id="DejaVuSans-102"/>
      <path d="M 9.421875 54.6875 
L 18.40625 54.6875 
L 18.40625 0 
L 9.421875 0 
z
M 9.421875 75.984375 
L 18.40625 75.984375 
L 18.40625 64.59375 
L 9.421875 64.59375 
z
" id="DejaVuSans-105"/>
      <path d="M 41.109375 46.296875 
Q 39.59375 47.171875 37.8125 47.578125 
Q 36.03125 48 33.890625 48 
Q 26.265625 48 22.1875 43.046875 
Q 18.109375 38.09375 18.109375 28.8125 
L 18.109375 0 
L 9.078125 0 
L 9.078125 54.6875 
L 18.109375 54.6875 
L 18.109375 46.1875 
Q 20.953125 51.171875 25.484375 53.578125 
Q 30.03125 56 36.53125 56 
Q 37.453125 56 38.578125 55.875 
Q 39.703125 55.765625 41.0625 55.515625 
z
" id="DejaVuSans-114"/>
      <path d="M 52 44.1875 
Q 55.375 50.25 60.0625 53.125 
Q 64.75 56 71.09375 56 
Q 79.640625 56 84.28125 50.015625 
Q 88.921875 44.046875 88.921875 33.015625 
L 88.921875 0 
L 79.890625 0 
L 79.890625 32.71875 
Q 79.890625 40.578125 77.09375 44.375 
Q 74.3125 48.1875 68.609375 48.1875 
Q 61.625 48.1875 57.5625 43.546875 
Q 53.515625 38.921875 53.515625 30.90625 
L 53.515625 0 
L 44.484375 0 
L 44.484375 32.71875 
Q 44.484375 40.625 41.703125 44.40625 
Q 38.921875 48.1875 33.109375 48.1875 
Q 26.21875 48.1875 22.15625 43.53125 
Q 18.109375 38.875 18.109375 30.90625 
L 18.109375 0 
L 9.078125 0 
L 9.078125 54.6875 
L 18.109375 54.6875 
L 18.109375 46.1875 
Q 21.1875 51.21875 25.484375 53.609375 
Q 29.78125 56 35.6875 56 
Q 41.65625 56 45.828125 52.96875 
Q 50 49.953125 52 44.1875 
z
" id="DejaVuSans-109"/>
      <path d="M 56.203125 29.59375 
L 56.203125 25.203125 
L 14.890625 25.203125 
Q 15.484375 15.921875 20.484375 11.0625 
Q 25.484375 6.203125 34.421875 6.203125 
Q 39.59375 6.203125 44.453125 7.46875 
Q 49.3125 8.734375 54.109375 11.28125 
L 54.109375 2.78125 
Q 49.265625 0.734375 44.1875 -0.34375 
Q 39.109375 -1.421875 33.890625 -1.421875 
Q 20.796875 -1.421875 13.15625 6.1875 
Q 5.515625 13.8125 5.515625 26.8125 
Q 5.515625 40.234375 12.765625 48.109375 
Q 20.015625 56 32.328125 56 
Q 43.359375 56 49.78125 48.890625 
Q 56.203125 41.796875 56.203125 29.59375 
z
M 47.21875 32.234375 
Q 47.125 39.59375 43.09375 43.984375 
Q 39.0625 48.390625 32.421875 48.390625 
Q 24.90625 48.390625 20.390625 44.140625 
Q 15.875 39.890625 15.1875 32.171875 
z
" id="DejaVuSans-101"/>
      <path d="M 45.40625 46.390625 
L 45.40625 75.984375 
L 54.390625 75.984375 
L 54.390625 0 
L 45.40625 0 
L 45.40625 8.203125 
Q 42.578125 3.328125 38.25 0.953125 
Q 33.9375 -1.421875 27.875 -1.421875 
Q 17.96875 -1.421875 11.734375 6.484375 
Q 5.515625 14.40625 5.515625 27.296875 
Q 5.515625 40.1875 11.734375 48.09375 
Q 17.96875 56 27.875 56 
Q 33.9375 56 38.25 53.625 
Q 42.578125 51.265625 45.40625 46.390625 
z
M 14.796875 27.296875 
Q 14.796875 17.390625 18.875 11.75 
Q 22.953125 6.109375 30.078125 6.109375 
Q 37.203125 6.109375 41.296875 11.75 
Q 45.40625 17.390625 45.40625 27.296875 
Q 45.40625 37.203125 41.296875 42.84375 
Q 37.203125 48.484375 30.078125 48.484375 
Q 22.953125 48.484375 18.875 42.84375 
Q 14.796875 37.203125 14.796875 27.296875 
z
" id="DejaVuSans-100"/>
      <path id="DejaVuSans-32"/>
     </defs>
     <g transform="translate(1.664062 260.548281)rotate(-90)scale(0.1 -0.1)">
      <use xlink:href="#DejaVuSans-67"/>
      <use x="69.824219" xlink:href="#DejaVuSans-111"/>
      <use x="131.005859" xlink:href="#DejaVuSans-110"/>
      <use x="194.384766" xlink:href="#DejaVuSans-102"/>
      <use x="229.589844" xlink:href="#DejaVuSans-105"/>
      <use x="257.373047" xlink:href="#DejaVuSans-114"/>
      <use x="296.736328" xlink:href="#DejaVuSans-109"/>
      <use x="394.148438" xlink:href="#DejaVuSans-101"/>
      <use x="455.671875" xlink:href="#DejaVuSans-100"/>
      <use x="519.148438" xlink:href="#DejaVuSans-32"/>
      <use x="550.935547" xlink:href="#DejaVuSans-67"/>
      <use x="620.759766" xlink:href="#DejaVuSans-97"/>
      <use x="682.039062" xlink:href="#DejaVuSans-115"/>
      <use x="734.138672" xlink:href="#DejaVuSans-101"/>
      <use x="795.662109" xlink:href="#DejaVuSans-115"/>
     </g>
    </g>
   </g>
   <g id="line2d_63">
    <path clip-path="url(#p756e173101)" d="M 92.290909 367.963151 
L 93.443802 365.59452 
L 94.596694 360.440674 
L 95.749587 356.055168 
L 96.902479 353.188828 
L 98.055372 348.409845 
L 99.208264 345.114721 
L 100.361157 343.008582 
L 101.51405 340.121772 
L 102.666942 338.063423 
L 103.819835 334.634726 
L 104.972727 333.46462 
L 107.278512 329.142294 
L 108.431405 328.074239 
L 110.73719 323.70466 
L 111.890083 321.986254 
L 113.042975 319.725449 
L 115.34876 316.228778 
L 116.501653 315.518739 
L 117.654545 313.938753 
L 118.807438 313.221151 
L 119.960331 311.71354 
L 121.113223 309.921314 
L 122.266116 308.737394 
L 123.419008 306.944985 
L 124.571901 304.639625 
L 125.724793 303.540663 
L 126.877686 300.965111 
L 128.030579 299.238362 
L 129.183471 297.825449 
L 130.336364 295.597964 
L 132.642149 291.979132 
L 133.795041 289.779261 
L 134.947934 288.136126 
L 136.100826 285.523213 
L 138.406612 283.103877 
L 139.559504 281.673221 
L 140.712397 280.057489 
L 141.865289 277.986808 
L 144.171074 275.064469 
L 145.323967 273.834351 
L 147.629752 270.279031 
L 148.782645 268.922385 
L 149.935537 267.951671 
L 151.08843 266.513517 
L 152.241322 264.60266 
L 155.7 260.099545 
L 156.852893 258.128783 
L 160.31157 254.055229 
L 162.617355 251.708084 
L 163.770248 250.578339 
L 164.92314 249.09069 
L 166.076033 247.983447 
L 167.228926 247.131197 
L 171.840496 242.630618 
L 172.993388 241.899238 
L 174.146281 240.939369 
L 177.604959 238.886231 
L 179.910744 237.398356 
L 182.216529 236.175807 
L 184.522314 234.712163 
L 186.828099 233.613407 
L 187.980992 233.311154 
L 189.133884 232.841733 
L 191.439669 232.237147 
L 196.05124 231.185707 
L 197.204132 231.05486 
L 199.509917 230.567872 
L 207.580165 229.100251 
L 211.038843 228.582045 
L 213.344628 228.257194 
L 216.803306 227.995118 
L 217.956198 227.818735 
L 221.414876 227.615481 
L 223.720661 227.469097 
L 237.555372 226.65964 
L 242.166942 226.580624 
L 246.778512 226.408343 
L 265.224793 225.778243 
L 275.600826 225.634308 
L 283.671074 225.455429 
L 319.410744 224.697435 
L 343.621488 223.683819 
L 349.38595 223.408927 
L 352.844628 223.223951 
L 367.832231 221.88318 
L 371.290909 221.518844 
L 379.361157 220.817618 
L 385.12562 220.407653 
L 389.73719 220.103918 
L 392.042975 219.898038 
L 409.336364 218.562376 
L 416.253719 218.446536 
L 417.406612 217.758793 
L 426.629752 217.498559 
L 428.935537 217.412433 
L 437.005785 217.131394 
L 450.840496 216.814027 
L 455.452066 216.722422 
L 455.452066 216.722422 
" style="fill:none;stroke:#1f77b4;stroke-linecap:square;stroke-width:1.5;"/>
   </g>
   <g id="line2d_64">
    <path clip-path="url(#p756e173101)" d="M 92.290909 364.590005 
L 94.596694 350.737038 
L 95.749587 340.701568 
L 96.902479 334.634726 
L 98.055372 331.531345 
L 101.51405 313.577292 
L 102.666942 308.835511 
L 103.819835 302.91678 
L 106.12562 295.405273 
L 107.278512 292.116718 
L 108.431405 287.696996 
L 109.584298 284.37263 
L 113.042975 276.463489 
L 114.195868 274.918742 
L 116.501653 270.849451 
L 119.960331 264.561583 
L 126.877686 254.291601 
L 129.183471 251.532367 
L 130.336364 250.387745 
L 133.795041 245.776187 
L 134.947934 244.144191 
L 139.559504 238.753253 
L 140.712397 237.071666 
L 141.865289 235.835216 
L 146.47686 229.91783 
L 147.629752 228.788574 
L 148.782645 227.406437 
L 149.935537 226.626027 
L 151.08843 225.63178 
L 152.241322 224.382024 
L 153.394215 222.912926 
L 154.547107 221.936299 
L 158.005785 218.018623 
L 159.158678 216.805685 
L 170.687603 206.507694 
L 174.146281 203.770551 
L 176.452066 201.847857 
L 182.216529 198.145543 
L 191.439669 192.701998 
L 192.592562 192.058853 
L 197.204132 190.18446 
L 204.121488 187.663789 
L 209.88595 185.696472 
L 219.109091 183.18225 
L 221.414876 182.636123 
L 226.026446 181.442432 
L 227.179339 181.219498 
L 229.485124 180.994298 
L 231.790909 180.541453 
L 236.402479 179.492385 
L 243.319835 177.952095 
L 245.62562 177.548219 
L 249.084298 176.795667 
L 259.460331 175.094507 
L 277.906612 172.8221 
L 289.435537 171.703332 
L 324.022314 168.992005 
L 335.55124 168.08721 
L 350.538843 166.839692 
L 371.290909 164.732453 
L 388.584298 163.46072 
L 410.489256 162.494483 
L 433.547107 161.872212 
L 445.076033 161.676709 
L 445.076033 161.676709 
" style="fill:none;stroke:#ff7f0e;stroke-linecap:square;stroke-width:1.5;"/>
   </g>
   <g id="line2d_65">
    <path clip-path="url(#p756e173101)" d="M 92.290909 359.465831 
L 93.443802 359.465831 
L 94.596694 357.774612 
L 95.749587 342.687977 
L 96.902479 339.208255 
L 102.666942 312.318985 
L 103.819835 304.278589 
L 104.972727 297.319224 
L 106.12562 294.496774 
L 107.278512 290.943247 
L 113.042975 276.003298 
L 115.34876 276.003298 
L 116.501653 269.453636 
L 117.654545 267.741943 
L 118.807438 265.811962 
L 121.113223 261.299833 
L 123.419008 257.035668 
L 126.877686 251.445903 
L 130.336364 247.016229 
L 131.489256 245.710895 
L 139.559504 237.998798 
L 143.018182 235.166209 
L 146.47686 232.627267 
L 148.782645 231.081765 
L 152.241322 228.961313 
L 156.852893 226.368559 
L 161.464463 224.117534 
L 166.076033 222.128607 
L 172.993388 219.440499 
L 176.452066 218.310685 
L 183.369421 216.417248 
L 189.133884 215.158469 
L 194.898347 214.323317 
L 199.509917 213.802423 
L 208.733058 213.043959 
L 220.261983 212.419251 
L 265.224793 210.630283 
L 298.658678 208.736321 
L 310.187603 207.587967 
L 315.952066 207.061315 
L 317.104959 206.751317 
L 321.716529 206.122081 
L 333.245455 204.19909 
L 355.150413 199.735054 
L 364.373554 197.496978 
L 374.749587 194.838733 
L 380.51405 193.356033 
L 389.73719 190.975202 
L 402.419008 188.019603 
L 412.795041 185.846522 
L 420.865289 184.395165 
L 433.547107 182.18361 
L 439.31157 181.343435 
L 441.617355 181.091373 
L 447.381818 180.28562 
L 449.687603 180.052744 
L 453.146281 179.552692 
L 453.146281 179.552692 
" style="fill:none;stroke:#2ca02c;stroke-linecap:square;stroke-width:1.5;"/>
   </g>
   <g id="line2d_66">
    <path clip-path="url(#p756e173101)" d="M 92.290909 363.250238 
L 94.596694 353.31201 
L 95.749587 346.286902 
L 96.902479 331.531345 
L 98.055372 323.559718 
L 99.208264 319.297565 
L 100.361157 312.916677 
L 101.51405 309.941888 
L 102.666942 304.755638 
L 103.819835 298.228041 
L 104.972727 296.162109 
L 106.12562 282.361509 
L 109.584298 265.841901 
L 110.73719 259.999978 
L 111.890083 253.067283 
L 113.042975 247.805839 
L 114.195868 241.538013 
L 116.501653 236.075364 
L 117.654545 232.312837 
L 119.960331 226.252192 
L 121.113223 222.302614 
L 122.266116 218.756208 
L 123.419008 215.709302 
L 128.030579 208.450223 
L 129.183471 206.388938 
L 130.336364 204.636945 
L 131.489256 203.361304 
L 132.642149 202.366626 
L 133.795041 201.593168 
L 134.947934 200.609161 
L 136.100826 199.37474 
L 137.253719 198.352949 
L 138.406612 197.549227 
L 141.865289 196.032365 
L 143.018182 195.794042 
L 146.47686 194.011623 
L 149.935537 193.060277 
L 151.08843 192.859327 
L 154.547107 191.788433 
L 156.852893 191.359524 
L 159.158678 191.033106 
L 162.617355 190.410734 
L 174.146281 189.18832 
L 194.898347 187.779034 
L 216.803306 187.0386 
L 219.109091 186.822036 
L 226.026446 186.434409 
L 229.485124 186.26949 
L 256.001653 185.1728 
L 266.377686 184.491202 
L 270.989256 184.195438 
L 274.447934 183.863591 
L 276.753719 183.654679 
L 279.059504 183.476228 
L 282.518182 183.061839 
L 284.823967 182.822693 
L 285.97686 182.766797 
L 291.741322 181.91885 
L 295.2 181.599686 
L 300.964463 180.921124 
L 303.270248 180.725847 
L 314.799174 179.440854 
L 318.257851 179.106742 
L 321.716529 178.636729 
L 325.175207 178.092962 
L 327.480992 177.861009 
L 339.009917 176.166747 
L 341.315702 175.801933 
L 342.468595 175.677526 
L 345.927273 174.921806 
L 348.233058 174.204522 
L 350.538843 173.769356 
L 351.691736 173.288949 
L 352.844628 172.966478 
L 356.303306 171.404275 
L 358.609091 170.814857 
L 360.914876 169.728702 
L 362.067769 168.966747 
L 363.220661 168.607372 
L 364.373554 167.310098 
L 365.526446 166.821537 
L 366.679339 166.660629 
L 368.985124 165.278446 
L 370.138017 164.078467 
L 371.290909 163.519226 
L 372.443802 162.595677 
L 373.596694 161.94738 
L 374.749587 161.041906 
L 375.902479 160.284906 
L 377.055372 159.966886 
L 378.208264 158.68134 
L 380.51405 156.940594 
L 382.819835 155.903419 
L 383.972727 155.673251 
L 385.12562 154.758335 
L 388.584298 152.51811 
L 389.73719 152.070899 
L 390.890083 151.973847 
L 392.042975 151.538266 
L 394.34876 150.102543 
L 396.654545 148.835089 
L 397.807438 148.470525 
L 398.960331 148.356626 
L 401.266116 147.569317 
L 402.419008 146.761513 
L 404.724793 145.743671 
L 405.877686 145.42315 
L 407.030579 145.349736 
L 408.183471 145.025848 
L 411.642149 143.457214 
L 412.795041 143.120932 
L 413.947934 142.580673 
L 416.253719 142.248283 
L 419.712397 140.552485 
L 422.018182 139.647926 
L 423.171074 139.382908 
L 424.323967 139.267587 
L 427.782645 137.600908 
L 428.935537 137.060456 
L 430.08843 136.710076 
L 431.241322 136.606898 
L 432.394215 136.301173 
L 434.7 135.222581 
L 435.852893 134.826469 
L 437.005785 134.794723 
L 441.617355 133.930144 
L 442.770248 133.238553 
L 443.92314 132.970801 
L 445.076033 132.941712 
L 449.687603 132.238915 
L 450.840496 131.885833 
L 451.993388 131.29709 
L 454.299174 130.765367 
L 455.452066 130.753471 
L 456.604959 130.607058 
L 460.063636 129.700018 
L 463.522314 129.284487 
L 465.828099 129.032128 
L 466.980992 128.695599 
L 469.286777 128.413291 
L 472.745455 128.080796 
L 475.05124 127.801308 
L 478.509917 127.304148 
L 480.815702 127.223602 
L 484.27438 126.866165 
L 486.580165 126.659066 
L 486.580165 126.659066 
" style="fill:none;stroke:#d62728;stroke-linecap:square;stroke-width:1.5;"/>
   </g>
   <g id="line2d_67">
    <path clip-path="url(#p756e173101)" d="M 92.290909 369.121522 
L 93.443802 366.642533 
L 94.596694 365.390254 
L 95.749587 361.113087 
L 96.902479 358.837086 
L 99.208264 348.009747 
L 100.361157 340.701568 
L 101.51405 336.288415 
L 102.666942 330.69234 
L 103.819835 328.96098 
L 104.972727 324.033989 
L 106.12562 321.583383 
L 107.278512 316.768495 
L 108.431405 314.18276 
L 109.584298 313.291961 
L 110.73719 308.445408 
L 111.890083 305.773531 
L 113.042975 297.112391 
L 114.195868 291.27412 
L 115.34876 291.046749 
L 116.501653 286.621027 
L 117.654545 282.941425 
L 118.807438 276.008363 
L 121.113223 270.837174 
L 123.419008 264.780408 
L 124.571901 262.219293 
L 125.724793 260.136331 
L 126.877686 257.058813 
L 128.030579 254.775598 
L 129.183471 253.077103 
L 130.336364 250.99291 
L 131.489256 249.385717 
L 132.642149 247.178877 
L 133.795041 244.426978 
L 134.947934 243.189461 
L 136.100826 241.256722 
L 137.253719 239.749607 
L 138.406612 237.889467 
L 139.559504 236.41148 
L 140.712397 234.740695 
L 144.171074 230.493575 
L 146.47686 227.9026 
L 149.935537 223.10521 
L 151.08843 220.963648 
L 152.241322 219.466455 
L 153.394215 217.769754 
L 155.7 214.884439 
L 156.852893 213.653981 
L 158.005785 212.031975 
L 161.464463 208.393407 
L 164.92314 204.773012 
L 166.076033 203.460756 
L 167.228926 202.317117 
L 168.381818 200.877737 
L 171.840496 197.035041 
L 175.299174 193.410911 
L 176.452066 192.454337 
L 182.216529 186.782637 
L 184.522314 184.763505 
L 187.980992 181.593331 
L 190.286777 179.5031 
L 192.592562 177.809589 
L 193.745455 177.771315 
L 194.898347 176.00382 
L 196.05124 176.00382 
L 198.357025 174.172294 
L 199.509917 172.555436 
L 201.815702 170.928379 
L 216.803306 159.618693 
L 220.261983 157.151627 
L 222.567769 155.384612 
L 227.179339 152.25108 
L 237.555372 144.848474 
L 239.861157 143.166478 
L 242.166942 141.47819 
L 245.62562 138.766783 
L 247.931405 137.170856 
L 249.084298 137.120489 
L 250.23719 135.559385 
L 256.001653 131.695737 
L 259.460331 129.558233 
L 262.919008 127.411404 
L 265.224793 126.1908 
L 268.683471 124.232753 
L 270.989256 123.093378 
L 273.295041 122.024041 
L 277.906612 119.709381 
L 282.518182 117.687324 
L 287.129752 115.51371 
L 290.58843 114.009602 
L 302.117355 108.92397 
L 303.270248 108.459701 
L 304.42314 108.459701 
L 305.576033 107.606228 
L 310.187603 105.838945 
L 314.799174 104.395308 
L 319.410744 102.99193 
L 324.022314 101.780272 
L 327.480992 100.897236 
L 330.939669 100.135233 
L 337.857025 98.746222 
L 343.621488 97.728463 
L 366.679339 94.838486 
L 375.902479 93.897172 
L 379.361157 93.588936 
L 390.890083 92.442688 
L 401.266116 91.654602 
L 411.642149 91.032117 
L 433.547107 90.078035 
L 456.604959 89.341487 
L 470.439669 89.004852 
L 470.439669 89.004852 
" style="fill:none;stroke:#9467bd;stroke-linecap:square;stroke-width:1.5;"/>
   </g>
   <g id="line2d_68">
    <path clip-path="url(#p756e173101)" d="M 92.290909 365.800524 
L 93.443802 362.516687 
L 94.596694 356.473715 
L 95.749587 349.757813 
L 96.902479 342.136938 
L 98.055372 337.997737 
L 99.208264 333.194167 
L 100.361157 329.975447 
L 101.51405 327.093096 
L 102.666942 322.988474 
L 103.819835 319.571763 
L 104.972727 316.605313 
L 106.12562 312.777432 
L 109.584298 305.480756 
L 110.73719 303.603945 
L 111.890083 301.351717 
L 113.042975 299.773308 
L 114.195868 297.258207 
L 115.34876 295.999579 
L 117.654545 291.774208 
L 118.807438 289.485752 
L 119.960331 287.631399 
L 121.113223 285.018144 
L 122.266116 283.459643 
L 125.724793 277.154668 
L 128.030579 274.259468 
L 130.336364 270.80855 
L 132.642149 268.280752 
L 133.795041 267.609095 
L 134.947934 266.302265 
L 136.100826 265.360745 
L 137.253719 264.222998 
L 138.406612 262.902325 
L 139.559504 261.762227 
L 140.712397 261.000947 
L 141.865289 260.424667 
L 143.018182 259.344764 
L 144.171074 258.691951 
L 145.323967 257.847253 
L 146.47686 256.832938 
L 148.782645 255.405342 
L 149.935537 254.565791 
L 151.08843 253.575258 
L 153.394215 252.201303 
L 154.547107 251.572946 
L 155.7 250.608477 
L 156.852893 249.93152 
L 158.005785 249.532894 
L 159.158678 248.725251 
L 160.31157 247.620116 
L 161.464463 246.745537 
L 166.076033 243.890192 
L 167.228926 243.245669 
L 168.381818 242.355331 
L 169.534711 241.158077 
L 170.687603 240.408655 
L 171.840496 239.328537 
L 174.146281 238.234908 
L 175.299174 237.79734 
L 178.757851 235.743852 
L 186.828099 231.928532 
L 187.980992 231.12773 
L 190.286777 229.95181 
L 196.05124 226.189366 
L 198.357025 225.006536 
L 204.121488 221.708926 
L 207.580165 220.214845 
L 211.038843 218.493088 
L 213.344628 217.306885 
L 215.650413 216.265234 
L 222.567769 212.839267 
L 223.720661 212.371324 
L 224.873554 211.703362 
L 226.026446 210.776641 
L 229.485124 209.13527 
L 231.790909 208.233611 
L 245.62562 202.693991 
L 247.931405 201.904952 
L 250.23719 200.909357 
L 252.542975 200.103453 
L 256.001653 199.001613 
L 258.307438 198.236077 
L 260.613223 197.286751 
L 270.989256 194.016245 
L 273.295041 193.411746 
L 277.906612 192.018144 
L 280.212397 191.345873 
L 282.518182 190.587374 
L 287.129752 188.87893 
L 289.435537 188.082098 
L 291.741322 187.175926 
L 314.799174 179.080399 
L 317.104959 178.234653 
L 330.939669 174.199311 
L 341.315702 171.541905 
L 349.38595 169.704295 
L 355.150413 168.596946 
L 364.373554 167.11412 
L 367.832231 166.502377 
L 372.443802 165.577169 
L 374.749587 165.086266 
L 379.361157 164.250762 
L 394.34876 161.154059 
L 396.654545 160.537709 
L 407.030579 158.317828 
L 410.489256 157.609979 
L 416.253719 156.291098 
L 425.47686 154.37485 
L 431.241322 153.134594 
L 434.7 152.416304 
L 443.92314 150.043572 
L 447.381818 148.999527 
L 449.687603 148.486442 
L 455.452066 146.922879 
L 458.910744 146.080447 
L 463.522314 144.836506 
L 470.439669 143.341589 
L 470.439669 143.341589 
" style="fill:none;stroke:#8c564b;stroke-linecap:square;stroke-width:1.5;"/>
   </g>
   <g id="line2d_69">
    <path clip-path="url(#p756e173101)" d="M 92.290909 361.629946 
L 93.443802 347.910748 
L 99.208264 293.329259 
L 100.361157 287.911423 
L 101.51405 283.452752 
L 102.666942 276.165921 
L 103.819835 271.220706 
L 104.972727 268.313907 
L 106.12562 266.214221 
L 111.890083 252.290513 
L 113.042975 250.094217 
L 116.501653 244.778548 
L 119.960331 240.626122 
L 121.113223 239.447937 
L 122.266116 237.918854 
L 123.419008 236.135775 
L 126.877686 229.726922 
L 128.030579 227.527134 
L 131.489256 221.937927 
L 133.795041 218.948726 
L 136.100826 216.542417 
L 138.406612 214.560206 
L 140.712397 212.978284 
L 143.018182 211.663218 
L 145.323967 210.453721 
L 149.935537 208.41202 
L 153.394215 207.137746 
L 156.852893 206.048223 
L 168.381818 203.271795 
L 170.687603 202.726114 
L 174.146281 201.649195 
L 185.675207 197.943322 
L 191.439669 195.740112 
L 198.357025 193.59547 
L 200.66281 192.751998 
L 202.968595 191.875103 
L 207.580165 189.960717 
L 212.191736 188.722817 
L 216.803306 187.5115 
L 227.179339 184.724516 
L 241.01405 181.420341 
L 247.931405 179.955332 
L 257.154545 178.210847 
L 261.766116 177.352263 
L 269.836364 175.892298 
L 281.365289 173.889602 
L 287.129752 173.037624 
L 294.047107 172.053556 
L 304.42314 170.73358 
L 325.175207 168.399759 
L 339.009917 166.181515 
L 357.456198 163.036663 
L 362.067769 162.189829 
L 365.526446 161.59134 
L 374.749587 159.48861 
L 382.819835 157.23207 
L 389.73719 155.18156 
L 403.571901 150.47151 
L 418.559504 145.969917 
L 424.323967 144.731032 
L 427.782645 144.173265 
L 437.005785 142.974556 
L 454.299174 141.151711 
L 473.898347 139.20363 
L 491.191736 137.511826 
L 491.191736 137.511826 
" style="fill:none;stroke:#e377c2;stroke-linecap:square;stroke-width:1.5;"/>
   </g>
   <g id="line2d_70">
    <path clip-path="url(#p756e173101)" d="M 92.290909 358.992747 
L 93.443802 349.545484 
L 98.055372 316.741222 
L 99.208264 310.950589 
L 100.361157 301.107579 
L 101.51405 296.656353 
L 103.819835 286.566113 
L 104.972727 281.185232 
L 106.12562 276.738641 
L 108.431405 265.501464 
L 109.584298 260.223264 
L 110.73719 257.773205 
L 111.890083 252.803638 
L 113.042975 252.803638 
L 114.195868 244.365221 
L 115.34876 239.992078 
L 116.501653 236.198293 
L 119.960331 227.319526 
L 123.419008 217.50127 
L 124.571901 215.111353 
L 129.183471 207.620084 
L 131.489256 204.290793 
L 132.642149 202.96233 
L 139.559504 197.066483 
L 140.712397 196.242441 
L 148.782645 191.576356 
L 151.08843 190.646293 
L 152.241322 190.252223 
L 155.7 188.723092 
L 158.005785 188.004239 
L 164.92314 185.901562 
L 170.687603 184.735833 
L 172.993388 184.355042 
L 183.369421 183.178092 
L 191.439669 182.585459 
L 201.815702 182.053949 
L 208.733058 181.83517 
L 220.261983 181.545518 
L 230.638017 181.334814 
L 241.01405 181.128845 
L 282.518182 180.294457 
L 295.2 179.81066 
L 298.658678 179.632043 
L 306.728926 178.903036 
L 312.493388 178.337459 
L 332.092562 176.216513 
L 348.233058 174.248895 
L 355.150413 172.888816 
L 362.067769 170.545337 
L 364.373554 169.353718 
L 367.832231 167.454358 
L 368.985124 166.840974 
L 371.290909 165.158246 
L 374.749587 162.222401 
L 375.902479 161.451849 
L 378.208264 159.442681 
L 380.51405 157.175571 
L 382.819835 154.974328 
L 383.972727 154.226635 
L 386.278512 152.355744 
L 390.890083 148.285674 
L 392.042975 147.640263 
L 397.807438 143.393516 
L 398.960331 142.685419 
L 401.266116 141.49238 
L 405.877686 138.856108 
L 408.183471 137.973565 
L 411.642149 136.688312 
L 413.947934 135.827574 
L 422.018182 133.675687 
L 424.323967 133.219042 
L 430.08843 132.08984 
L 432.394215 131.695841 
L 446.228926 129.419103 
L 450.840496 128.891461 
L 453.146281 128.36647 
L 457.757851 127.779774 
L 463.522314 126.749403 
L 468.133884 126.121897 
L 471.592562 125.660122 
L 475.05124 125.328098 
L 480.815702 124.722074 
L 485.427273 124.202605 
L 494.650413 123.300555 
L 494.650413 123.300555 
" style="fill:none;stroke:#7f7f7f;stroke-linecap:square;stroke-width:1.5;"/>
   </g>
   <g id="line2d_71">
    <path clip-path="url(#p756e173101)" d="M 92.290909 368.651501 
L 93.443802 352.343668 
L 94.596694 334.12631 
L 96.902479 318.288864 
L 98.055372 314.429252 
L 99.208264 308.25269 
L 100.361157 300.100044 
L 102.666942 286.092777 
L 103.819835 281.963032 
L 104.972727 278.363552 
L 106.12562 274.024963 
L 109.584298 268.214577 
L 110.73719 266.623277 
L 111.890083 265.702503 
L 113.042975 265.165749 
L 114.195868 265.052723 
L 115.34876 264.285343 
L 118.807438 263.273648 
L 123.419008 262.314053 
L 124.571901 261.880632 
L 125.724793 261.636004 
L 126.877686 261.228203 
L 129.183471 260.786607 
L 131.489256 260.315807 
L 140.712397 258.189366 
L 145.323967 257.453353 
L 151.08843 256.996371 
L 158.005785 256.640994 
L 166.076033 256.452819 
L 185.675207 255.965432 
L 196.05124 255.557209 
L 202.968595 255.247975 
L 205.27438 254.955376 
L 229.485124 253.108554 
L 231.790909 252.883404 
L 234.096694 252.760944 
L 254.84876 251.095861 
L 269.836364 250.023119 
L 272.142149 249.72882 
L 283.671074 249.210949 
L 294.047107 248.5226 
L 295.2 248.253936 
L 296.352893 247.808999 
L 298.658678 247.118907 
L 303.270248 245.284326 
L 304.42314 244.725625 
L 307.881818 243.549877 
L 310.187603 242.497024 
L 312.493388 241.720409 
L 317.104959 240.586224 
L 320.563636 239.969207 
L 325.175207 239.330763 
L 328.633884 238.853464 
L 342.468595 237.496197 
L 355.150413 236.700345 
L 358.609091 236.464824 
L 373.596694 235.431976 
L 375.902479 235.213118 
L 379.361157 234.962739 
L 393.195868 233.709413 
L 398.960331 233.094227 
L 403.571901 232.361202 
L 412.795041 230.178044 
L 416.253719 228.958411 
L 423.171074 226.903578 
L 431.241322 224.104475 
L 434.7 222.554023 
L 437.005785 221.48793 
L 442.770248 218.889805 
L 445.076033 217.97021 
L 447.381818 216.968654 
L 449.687603 216.057069 
L 451.993388 215.280988 
L 455.452066 214.057746 
L 462.369421 212.203777 
L 466.980992 211.338139 
L 475.05124 210.104082 
L 498.109091 207.52805 
L 498.109091 207.52805 
" style="fill:none;stroke:#bcbd22;stroke-linecap:square;stroke-width:1.5;"/>
   </g>
   <g id="line2d_72">
    <path clip-path="url(#p756e173101)" d="M 92.290909 362.158084 
L 93.443802 348.816666 
L 94.596694 343.089401 
L 95.749587 332.979959 
L 96.902479 330.595519 
L 98.055372 321.483704 
L 99.208264 320.004565 
L 100.361157 317.098198 
L 101.51405 314.553446 
L 102.666942 312.387201 
L 104.972727 306.192984 
L 106.12562 304.132431 
L 108.431405 300.781146 
L 109.584298 297.850416 
L 110.73719 295.700602 
L 111.890083 292.464146 
L 113.042975 289.94988 
L 114.195868 288.788646 
L 115.34876 286.039047 
L 116.501653 281.76944 
L 117.654545 280.099445 
L 119.960331 277.518584 
L 121.113223 276.432536 
L 122.266116 274.855864 
L 123.419008 273.820463 
L 124.571901 272.619654 
L 125.724793 271.16258 
L 128.030579 267.046361 
L 129.183471 266.678344 
L 131.489256 262.501793 
L 132.642149 262.299671 
L 133.795041 259.207723 
L 134.947934 257.947939 
L 136.100826 255.485495 
L 138.406612 252.301925 
L 141.865289 248.95114 
L 143.018182 247.484091 
L 145.323967 243.750819 
L 147.629752 241.251901 
L 148.782645 240.240469 
L 149.935537 238.992484 
L 151.08843 236.866685 
L 152.241322 236.299249 
L 153.394215 234.601114 
L 154.547107 232.580894 
L 156.852893 229.915567 
L 158.005785 228.271289 
L 159.158678 227.602449 
L 160.31157 227.268746 
L 161.464463 225.313395 
L 162.617355 225.313395 
L 163.770248 224.484293 
L 166.076033 222.287194 
L 168.381818 220.116498 
L 169.534711 218.840574 
L 170.687603 218.022316 
L 171.840496 217.043459 
L 172.993388 216.280693 
L 175.299174 215.106033 
L 176.452066 214.271076 
L 177.604959 213.188318 
L 178.757851 212.287041 
L 182.216529 208.912785 
L 187.980992 202.653592 
L 189.133884 200.46257 
L 190.286777 199.288155 
L 191.439669 199.288155 
L 192.592562 196.81512 
L 193.745455 196.81512 
L 194.898347 195.602061 
L 196.05124 193.48986 
L 197.204132 192.756711 
L 199.509917 191.001944 
L 200.66281 190.265857 
L 201.815702 189.316293 
L 204.121488 188.022945 
L 207.580165 186.484657 
L 209.88595 185.754092 
L 212.191736 184.84296 
L 213.344628 184.514085 
L 216.803306 183.1038 
L 217.956198 183.1038 
L 219.109091 182.737124 
L 220.261983 182.044968 
L 229.485124 179.870811 
L 231.790909 179.462898 
L 232.943802 179.462898 
L 234.096694 179.090101 
L 241.01405 178.318564 
L 243.319835 178.076915 
L 245.62562 177.972913 
L 253.695868 177.434287 
L 256.001653 177.3761 
L 273.295041 176.54488 
L 283.671074 176.180429 
L 291.741322 175.96399 
L 295.2 175.83164 
L 305.576033 175.452791 
L 340.16281 174.014644 
L 347.080165 173.713489 
L 359.761983 172.9479 
L 367.832231 172.198762 
L 372.443802 171.600025 
L 379.361157 170.629305 
L 392.042975 168.641138 
L 398.960331 167.47717 
L 409.336364 166.069328 
L 413.947934 165.512055 
L 420.865289 164.868469 
L 435.852893 163.462804 
L 439.31157 163.117165 
L 457.757851 161.604036 
L 469.286777 160.936294 
L 469.286777 160.936294 
" style="fill:none;stroke:#17becf;stroke-linecap:square;stroke-width:1.5;"/>
   </g>
   <g id="line2d_73">
    <path clip-path="url(#p756e173101)" d="M 92.290909 353.811107 
L 95.749587 308.737394 
L 98.055372 298.689109 
L 99.208264 292.344465 
L 100.361157 282.6664 
L 101.51405 271.74597 
L 102.666942 265.41301 
L 103.819835 260.104797 
L 104.972727 256.207899 
L 106.12562 250.811555 
L 109.584298 240.263598 
L 111.890083 234.027441 
L 114.195868 228.431845 
L 115.34876 225.673536 
L 119.960331 216.021344 
L 122.266116 212.782321 
L 125.724793 208.241622 
L 129.183471 204.684521 
L 130.336364 203.487835 
L 133.795041 201.235693 
L 136.100826 200.060777 
L 138.406612 199.086544 
L 140.712397 197.942113 
L 143.018182 197.116448 
L 147.629752 195.723203 
L 151.08843 194.755974 
L 160.31157 192.673311 
L 164.92314 192.016095 
L 172.993388 190.872134 
L 176.452066 190.430658 
L 189.133884 188.986211 
L 192.592562 188.406787 
L 197.204132 187.632728 
L 220.261983 184.560265 
L 234.096694 183.24866 
L 258.307438 181.004799 
L 277.906612 178.898543 
L 314.799174 174.558285 
L 336.704132 172.373606 
L 347.080165 171.12356 
L 366.679339 168.546318 
L 372.443802 167.578394 
L 375.902479 166.795108 
L 379.361157 165.800293 
L 381.666942 165.054315 
L 382.819835 163.259124 
L 383.972727 161.209801 
L 386.278512 158.720467 
L 388.584298 156.392957 
L 392.042975 153.114141 
L 394.34876 151.221499 
L 397.807438 148.539693 
L 398.960331 133.135703 
L 401.266116 132.302441 
L 409.336364 129.831899 
L 415.100826 128.694516 
L 419.712397 127.989759 
L 424.323967 127.348314 
L 440.464463 125.74323 
L 449.687603 125.226424 
L 458.910744 124.701636 
L 465.828099 124.243641 
L 465.828099 124.243641 
" style="fill:none;stroke:#1f77b4;stroke-linecap:square;stroke-width:1.5;"/>
   </g>
   <g id="line2d_74">
    <path clip-path="url(#p756e173101)" d="M 92.290909 369.36 
L 93.443802 364.787601 
L 94.596694 359.307107 
L 95.749587 350.406208 
L 96.902479 344.852093 
L 98.055372 335.037677 
L 99.208264 328.915863 
L 100.361157 326.029853 
L 101.51405 314.879364 
L 102.666942 307.871796 
L 104.972727 295.01332 
L 106.12562 289.592071 
L 107.278512 283.549408 
L 108.431405 276.759535 
L 109.584298 268.854435 
L 110.73719 264.188777 
L 111.890083 250.546469 
L 113.042975 242.466591 
L 115.34876 228.567768 
L 116.501653 222.404192 
L 118.807438 212.468375 
L 119.960331 206.624442 
L 122.266116 197.644316 
L 125.724793 187.062611 
L 130.336364 175.07383 
L 132.642149 170.920332 
L 137.253719 163.586833 
L 139.559504 160.886622 
L 143.018182 157.584766 
L 146.47686 154.191193 
L 149.935537 151.68539 
L 153.394215 149.049513 
L 154.547107 148.184623 
L 155.7 147.490787 
L 159.158678 145.690711 
L 163.770248 143.094682 
L 167.228926 141.656025 
L 170.687603 140.107047 
L 175.299174 138.657397 
L 178.757851 137.350979 
L 183.369421 136.001179 
L 186.828099 134.923285 
L 198.357025 131.982929 
L 200.66281 131.44433 
L 202.968595 130.769258 
L 208.733058 129.5627 
L 212.191736 128.732004 
L 214.497521 128.233474 
L 221.414876 126.305457 
L 226.026446 124.702291 
L 231.790909 122.635904 
L 234.096694 121.683752 
L 237.555372 120.493576 
L 244.472727 117.635258 
L 247.931405 116.251044 
L 250.23719 115.25332 
L 259.460331 111.991252 
L 262.919008 110.974852 
L 266.377686 109.848501 
L 268.683471 109.308874 
L 272.142149 108.498529 
L 276.753719 107.418076 
L 281.365289 106.467739 
L 283.671074 105.953515 
L 307.881818 102.275224 
L 319.410744 100.958703 
L 325.175207 100.182886 
L 328.633884 99.727038 
L 335.55124 98.833513 
L 344.77438 97.651439 
L 349.38595 96.969817 
L 352.844628 96.496067 
L 370.138017 93.484927 
L 379.361157 91.255267 
L 381.666942 90.666887 
L 382.819835 90.459883 
L 387.431405 88.995033 
L 390.890083 87.974947 
L 395.501653 86.468512 
L 400.113223 85.146661 
L 401.266116 84.800879 
L 402.419008 84.592029 
L 404.724793 83.924172 
L 408.183471 83.055829 
L 422.018182 78.941118 
L 425.47686 78.003441 
L 428.935537 77.05478 
L 438.158678 75.109189 
L 441.617355 74.359004 
L 446.228926 73.2902 
L 448.534711 72.807583 
L 456.604959 70.894946 
L 462.369421 69.774665 
L 465.828099 69.272628 
L 470.439669 68.604849 
L 480.815702 67.396133 
L 485.427273 66.96 
L 485.427273 66.96 
" style="fill:none;stroke:#ff7f0e;stroke-linecap:square;stroke-width:1.5;"/>
   </g>
   <g id="patch_3">
    <path d="M 72 384.48 
L 72 51.84 
" style="fill:none;stroke:#000000;stroke-linecap:square;stroke-linejoin:miter;stroke-width:0.8;"/>
   </g>
   <g id="patch_4">
    <path d="M 518.4 384.48 
L 518.4 51.84 
" style="fill:none;stroke:#000000;stroke-linecap:square;stroke-linejoin:miter;stroke-width:0.8;"/>
   </g>
   <g id="patch_5">
    <path d="M 72 384.48 
L 518.4 384.48 
" style="fill:none;stroke:#000000;stroke-linecap:square;stroke-linejoin:miter;stroke-width:0.8;"/>
   </g>
   <g id="patch_6">
    <path d="M 72 51.84 
L 518.4 51.84 
" style="fill:none;stroke:#000000;stroke-linecap:square;stroke-linejoin:miter;stroke-width:0.8;"/>
   </g>
   <g id="text_17">
    <!-- Confirmed Cases Since Day of More Than 100 Confirmed Cases -->
    <defs>
     <path d="M 53.515625 70.515625 
L 53.515625 60.890625 
Q 47.90625 63.578125 42.921875 64.890625 
Q 37.9375 66.21875 33.296875 66.21875 
Q 25.25 66.21875 20.875 63.09375 
Q 16.5 59.96875 16.5 54.203125 
Q 16.5 49.359375 19.40625 46.890625 
Q 22.3125 44.4375 30.421875 42.921875 
L 36.375 41.703125 
Q 47.40625 39.59375 52.65625 34.296875 
Q 57.90625 29 57.90625 20.125 
Q 57.90625 9.515625 50.796875 4.046875 
Q 43.703125 -1.421875 29.984375 -1.421875 
Q 24.8125 -1.421875 18.96875 -0.25 
Q 13.140625 0.921875 6.890625 3.21875 
L 6.890625 13.375 
Q 12.890625 10.015625 18.65625 8.296875 
Q 24.421875 6.59375 29.984375 6.59375 
Q 38.421875 6.59375 43.015625 9.90625 
Q 47.609375 13.234375 47.609375 19.390625 
Q 47.609375 24.75 44.3125 27.78125 
Q 41.015625 30.8125 33.5 32.328125 
L 27.484375 33.5 
Q 16.453125 35.6875 11.515625 40.375 
Q 6.59375 45.0625 6.59375 53.421875 
Q 6.59375 63.09375 13.40625 68.65625 
Q 20.21875 74.21875 32.171875 74.21875 
Q 37.3125 74.21875 42.625 73.28125 
Q 47.953125 72.359375 53.515625 70.515625 
z
" id="DejaVuSans-83"/>
     <path d="M 48.78125 52.59375 
L 48.78125 44.1875 
Q 44.96875 46.296875 41.140625 47.34375 
Q 37.3125 48.390625 33.40625 48.390625 
Q 24.65625 48.390625 19.8125 42.84375 
Q 14.984375 37.3125 14.984375 27.296875 
Q 14.984375 17.28125 19.8125 11.734375 
Q 24.65625 6.203125 33.40625 6.203125 
Q 37.3125 6.203125 41.140625 7.25 
Q 44.96875 8.296875 48.78125 10.40625 
L 48.78125 2.09375 
Q 45.015625 0.34375 40.984375 -0.53125 
Q 36.96875 -1.421875 32.421875 -1.421875 
Q 20.0625 -1.421875 12.78125 6.34375 
Q 5.515625 14.109375 5.515625 27.296875 
Q 5.515625 40.671875 12.859375 48.328125 
Q 20.21875 56 33.015625 56 
Q 37.15625 56 41.109375 55.140625 
Q 45.0625 54.296875 48.78125 52.59375 
z
" id="DejaVuSans-99"/>
     <path d="M 9.8125 72.90625 
L 24.515625 72.90625 
L 43.109375 23.296875 
L 61.8125 72.90625 
L 76.515625 72.90625 
L 76.515625 0 
L 66.890625 0 
L 66.890625 64.015625 
L 48.09375 14.015625 
L 38.1875 14.015625 
L 19.390625 64.015625 
L 19.390625 0 
L 9.8125 0 
z
" id="DejaVuSans-77"/>
     <path d="M -0.296875 72.90625 
L 61.375 72.90625 
L 61.375 64.59375 
L 35.5 64.59375 
L 35.5 0 
L 25.59375 0 
L 25.59375 64.59375 
L -0.296875 64.59375 
z
" id="DejaVuSans-84"/>
     <path d="M 54.890625 33.015625 
L 54.890625 0 
L 45.90625 0 
L 45.90625 32.71875 
Q 45.90625 40.484375 42.875 44.328125 
Q 39.84375 48.1875 33.796875 48.1875 
Q 26.515625 48.1875 22.3125 43.546875 
Q 18.109375 38.921875 18.109375 30.90625 
L 18.109375 0 
L 9.078125 0 
L 9.078125 75.984375 
L 18.109375 75.984375 
L 18.109375 46.1875 
Q 21.34375 51.125 25.703125 53.5625 
Q 30.078125 56 35.796875 56 
Q 45.21875 56 50.046875 50.171875 
Q 54.890625 44.34375 54.890625 33.015625 
z
" id="DejaVuSans-104"/>
    </defs>
    <g transform="translate(104.948437 45.84)scale(0.12 -0.12)">
     <use xlink:href="#DejaVuSans-67"/>
     <use x="69.824219" xlink:href="#DejaVuSans-111"/>
     <use x="131.005859" xlink:href="#DejaVuSans-110"/>
     <use x="194.384766" xlink:href="#DejaVuSans-102"/>
     <use x="229.589844" xlink:href="#DejaVuSans-105"/>
     <use x="257.373047" xlink:href="#DejaVuSans-114"/>
     <use x="296.736328" xlink:href="#DejaVuSans-109"/>
     <use x="394.148438" xlink:href="#DejaVuSans-101"/>
     <use x="455.671875" xlink:href="#DejaVuSans-100"/>
     <use x="519.148438" xlink:href="#DejaVuSans-32"/>
     <use x="550.935547" xlink:href="#DejaVuSans-67"/>
     <use x="620.759766" xlink:href="#DejaVuSans-97"/>
     <use x="682.039062" xlink:href="#DejaVuSans-115"/>
     <use x="734.138672" xlink:href="#DejaVuSans-101"/>
     <use x="795.662109" xlink:href="#DejaVuSans-115"/>
     <use x="847.761719" xlink:href="#DejaVuSans-32"/>
     <use x="879.548828" xlink:href="#DejaVuSans-83"/>
     <use x="943.025391" xlink:href="#DejaVuSans-105"/>
     <use x="970.808594" xlink:href="#DejaVuSans-110"/>
     <use x="1034.1875" xlink:href="#DejaVuSans-99"/>
     <use x="1089.167969" xlink:href="#DejaVuSans-101"/>
     <use x="1150.691406" xlink:href="#DejaVuSans-32"/>
     <use x="1182.478516" xlink:href="#DejaVuSans-68"/>
     <use x="1259.480469" xlink:href="#DejaVuSans-97"/>
     <use x="1320.759766" xlink:href="#DejaVuSans-121"/>
     <use x="1379.939453" xlink:href="#DejaVuSans-32"/>
     <use x="1411.726562" xlink:href="#DejaVuSans-111"/>
     <use x="1472.908203" xlink:href="#DejaVuSans-102"/>
     <use x="1508.113281" xlink:href="#DejaVuSans-32"/>
     <use x="1539.900391" xlink:href="#DejaVuSans-77"/>
     <use x="1626.179688" xlink:href="#DejaVuSans-111"/>
     <use x="1687.361328" xlink:href="#DejaVuSans-114"/>
     <use x="1726.224609" xlink:href="#DejaVuSans-101"/>
     <use x="1787.748047" xlink:href="#DejaVuSans-32"/>
     <use x="1819.535156" xlink:href="#DejaVuSans-84"/>
     <use x="1880.619141" xlink:href="#DejaVuSans-104"/>
     <use x="1943.998047" xlink:href="#DejaVuSans-97"/>
     <use x="2005.277344" xlink:href="#DejaVuSans-110"/>
     <use x="2068.65625" xlink:href="#DejaVuSans-32"/>
     <use x="2100.443359" xlink:href="#DejaVuSans-49"/>
     <use x="2164.066406" xlink:href="#DejaVuSans-48"/>
     <use x="2227.689453" xlink:href="#DejaVuSans-48"/>
     <use x="2291.3125" xlink:href="#DejaVuSans-32"/>
     <use x="2323.099609" xlink:href="#DejaVuSans-67"/>
     <use x="2392.923828" xlink:href="#DejaVuSans-111"/>
     <use x="2454.105469" xlink:href="#DejaVuSans-110"/>
     <use x="2517.484375" xlink:href="#DejaVuSans-102"/>
     <use x="2552.689453" xlink:href="#DejaVuSans-105"/>
     <use x="2580.472656" xlink:href="#DejaVuSans-114"/>
     <use x="2619.835938" xlink:href="#DejaVuSans-109"/>
     <use x="2717.248047" xlink:href="#DejaVuSans-101"/>
     <use x="2778.771484" xlink:href="#DejaVuSans-100"/>
     <use x="2842.248047" xlink:href="#DejaVuSans-32"/>
     <use x="2874.035156" xlink:href="#DejaVuSans-67"/>
     <use x="2943.859375" xlink:href="#DejaVuSans-97"/>
     <use x="3005.138672" xlink:href="#DejaVuSans-115"/>
     <use x="3057.238281" xlink:href="#DejaVuSans-101"/>
     <use x="3118.761719" xlink:href="#DejaVuSans-115"/>
    </g>
   </g>
   <g id="legend_1">
    <g id="patch_7">
     <path d="M 418.815625 379.48 
L 511.4 379.48 
Q 513.4 379.48 513.4 377.48 
L 513.4 202.3425 
Q 513.4 200.3425 511.4 200.3425 
L 418.815625 200.3425 
Q 416.815625 200.3425 416.815625 202.3425 
L 416.815625 377.48 
Q 416.815625 379.48 418.815625 379.48 
z
" style="fill:#ffffff;opacity:0.8;stroke:#cccccc;stroke-linejoin:miter;"/>
    </g>
    <g id="line2d_75">
     <path d="M 420.815625 208.440938 
L 440.815625 208.440938 
" style="fill:none;stroke:#1f77b4;stroke-linecap:square;stroke-width:1.5;"/>
    </g>
    <g id="line2d_76"/>
    <g id="text_18">
     <!-- Afghanistan -->
     <defs>
      <path d="M 34.1875 63.1875 
L 20.796875 26.90625 
L 47.609375 26.90625 
z
M 28.609375 72.90625 
L 39.796875 72.90625 
L 67.578125 0 
L 57.328125 0 
L 50.6875 18.703125 
L 17.828125 18.703125 
L 11.1875 0 
L 0.78125 0 
z
" id="DejaVuSans-65"/>
      <path d="M 45.40625 27.984375 
Q 45.40625 37.75 41.375 43.109375 
Q 37.359375 48.484375 30.078125 48.484375 
Q 22.859375 48.484375 18.828125 43.109375 
Q 14.796875 37.75 14.796875 27.984375 
Q 14.796875 18.265625 18.828125 12.890625 
Q 22.859375 7.515625 30.078125 7.515625 
Q 37.359375 7.515625 41.375 12.890625 
Q 45.40625 18.265625 45.40625 27.984375 
z
M 54.390625 6.78125 
Q 54.390625 -7.171875 48.1875 -13.984375 
Q 42 -20.796875 29.203125 -20.796875 
Q 24.46875 -20.796875 20.265625 -20.09375 
Q 16.0625 -19.390625 12.109375 -17.921875 
L 12.109375 -9.1875 
Q 16.0625 -11.328125 19.921875 -12.34375 
Q 23.78125 -13.375 27.78125 -13.375 
Q 36.625 -13.375 41.015625 -8.765625 
Q 45.40625 -4.15625 45.40625 5.171875 
L 45.40625 9.625 
Q 42.625 4.78125 38.28125 2.390625 
Q 33.9375 0 27.875 0 
Q 17.828125 0 11.671875 7.65625 
Q 5.515625 15.328125 5.515625 27.984375 
Q 5.515625 40.671875 11.671875 48.328125 
Q 17.828125 56 27.875 56 
Q 33.9375 56 38.28125 53.609375 
Q 42.625 51.21875 45.40625 46.390625 
L 45.40625 54.6875 
L 54.390625 54.6875 
z
" id="DejaVuSans-103"/>
      <path d="M 18.3125 70.21875 
L 18.3125 54.6875 
L 36.8125 54.6875 
L 36.8125 47.703125 
L 18.3125 47.703125 
L 18.3125 18.015625 
Q 18.3125 11.328125 20.140625 9.421875 
Q 21.96875 7.515625 27.59375 7.515625 
L 36.8125 7.515625 
L 36.8125 0 
L 27.59375 0 
Q 17.1875 0 13.234375 3.875 
Q 9.28125 7.765625 9.28125 18.015625 
L 9.28125 47.703125 
L 2.6875 47.703125 
L 2.6875 54.6875 
L 9.28125 54.6875 
L 9.28125 70.21875 
z
" id="DejaVuSans-116"/>
     </defs>
     <g transform="translate(448.815625 211.940938)scale(0.1 -0.1)">
      <use xlink:href="#DejaVuSans-65"/>
      <use x="64.783203" xlink:href="#DejaVuSans-102"/>
      <use x="99.988281" xlink:href="#DejaVuSans-103"/>
      <use x="163.464844" xlink:href="#DejaVuSans-104"/>
      <use x="226.84375" xlink:href="#DejaVuSans-97"/>
      <use x="288.123047" xlink:href="#DejaVuSans-110"/>
      <use x="351.501953" xlink:href="#DejaVuSans-105"/>
      <use x="379.285156" xlink:href="#DejaVuSans-115"/>
      <use x="431.384766" xlink:href="#DejaVuSans-116"/>
      <use x="470.59375" xlink:href="#DejaVuSans-97"/>
      <use x="531.873047" xlink:href="#DejaVuSans-110"/>
     </g>
    </g>
    <g id="line2d_77">
     <path d="M 420.815625 223.119063 
L 440.815625 223.119063 
" style="fill:none;stroke:#ff7f0e;stroke-linecap:square;stroke-width:1.5;"/>
    </g>
    <g id="line2d_78"/>
    <g id="text_19">
     <!-- Bangladesh -->
     <defs>
      <path d="M 19.671875 34.8125 
L 19.671875 8.109375 
L 35.5 8.109375 
Q 43.453125 8.109375 47.28125 11.40625 
Q 51.125 14.703125 51.125 21.484375 
Q 51.125 28.328125 47.28125 31.5625 
Q 43.453125 34.8125 35.5 34.8125 
z
M 19.671875 64.796875 
L 19.671875 42.828125 
L 34.28125 42.828125 
Q 41.5 42.828125 45.03125 45.53125 
Q 48.578125 48.25 48.578125 53.8125 
Q 48.578125 59.328125 45.03125 62.0625 
Q 41.5 64.796875 34.28125 64.796875 
z
M 9.8125 72.90625 
L 35.015625 72.90625 
Q 46.296875 72.90625 52.390625 68.21875 
Q 58.5 63.53125 58.5 54.890625 
Q 58.5 48.1875 55.375 44.234375 
Q 52.25 40.28125 46.1875 39.3125 
Q 53.46875 37.75 57.5 32.78125 
Q 61.53125 27.828125 61.53125 20.40625 
Q 61.53125 10.640625 54.890625 5.3125 
Q 48.25 0 35.984375 0 
L 9.8125 0 
z
" id="DejaVuSans-66"/>
      <path d="M 9.421875 75.984375 
L 18.40625 75.984375 
L 18.40625 0 
L 9.421875 0 
z
" id="DejaVuSans-108"/>
     </defs>
     <g transform="translate(448.815625 226.619063)scale(0.1 -0.1)">
      <use xlink:href="#DejaVuSans-66"/>
      <use x="68.603516" xlink:href="#DejaVuSans-97"/>
      <use x="129.882812" xlink:href="#DejaVuSans-110"/>
      <use x="193.261719" xlink:href="#DejaVuSans-103"/>
      <use x="256.738281" xlink:href="#DejaVuSans-108"/>
      <use x="284.521484" xlink:href="#DejaVuSans-97"/>
      <use x="345.800781" xlink:href="#DejaVuSans-100"/>
      <use x="409.277344" xlink:href="#DejaVuSans-101"/>
      <use x="470.800781" xlink:href="#DejaVuSans-115"/>
      <use x="522.900391" xlink:href="#DejaVuSans-104"/>
     </g>
    </g>
    <g id="line2d_79">
     <path d="M 420.815625 237.797188 
L 440.815625 237.797188 
" style="fill:none;stroke:#2ca02c;stroke-linecap:square;stroke-width:1.5;"/>
    </g>
    <g id="line2d_80"/>
    <g id="text_20">
     <!-- Belarus -->
     <defs>
      <path d="M 8.5 21.578125 
L 8.5 54.6875 
L 17.484375 54.6875 
L 17.484375 21.921875 
Q 17.484375 14.15625 20.5 10.265625 
Q 23.53125 6.390625 29.59375 6.390625 
Q 36.859375 6.390625 41.078125 11.03125 
Q 45.3125 15.671875 45.3125 23.6875 
L 45.3125 54.6875 
L 54.296875 54.6875 
L 54.296875 0 
L 45.3125 0 
L 45.3125 8.40625 
Q 42.046875 3.421875 37.71875 1 
Q 33.40625 -1.421875 27.6875 -1.421875 
Q 18.265625 -1.421875 13.375 4.4375 
Q 8.5 10.296875 8.5 21.578125 
z
M 31.109375 56 
z
" id="DejaVuSans-117"/>
     </defs>
     <g transform="translate(448.815625 241.297188)scale(0.1 -0.1)">
      <use xlink:href="#DejaVuSans-66"/>
      <use x="68.603516" xlink:href="#DejaVuSans-101"/>
      <use x="130.126953" xlink:href="#DejaVuSans-108"/>
      <use x="157.910156" xlink:href="#DejaVuSans-97"/>
      <use x="219.189453" xlink:href="#DejaVuSans-114"/>
      <use x="260.302734" xlink:href="#DejaVuSans-117"/>
      <use x="323.681641" xlink:href="#DejaVuSans-115"/>
     </g>
    </g>
    <g id="line2d_81">
     <path d="M 420.815625 252.475313 
L 440.815625 252.475313 
" style="fill:none;stroke:#d62728;stroke-linecap:square;stroke-width:1.5;"/>
    </g>
    <g id="line2d_82"/>
    <g id="text_21">
     <!-- Germany -->
     <defs>
      <path d="M 59.515625 10.40625 
L 59.515625 29.984375 
L 43.40625 29.984375 
L 43.40625 38.09375 
L 69.28125 38.09375 
L 69.28125 6.78125 
Q 63.578125 2.734375 56.6875 0.65625 
Q 49.8125 -1.421875 42 -1.421875 
Q 24.90625 -1.421875 15.25 8.5625 
Q 5.609375 18.5625 5.609375 36.375 
Q 5.609375 54.25 15.25 64.234375 
Q 24.90625 74.21875 42 74.21875 
Q 49.125 74.21875 55.546875 72.453125 
Q 61.96875 70.703125 67.390625 67.28125 
L 67.390625 56.78125 
Q 61.921875 61.421875 55.765625 63.765625 
Q 49.609375 66.109375 42.828125 66.109375 
Q 29.4375 66.109375 22.71875 58.640625 
Q 16.015625 51.171875 16.015625 36.375 
Q 16.015625 21.625 22.71875 14.15625 
Q 29.4375 6.6875 42.828125 6.6875 
Q 48.046875 6.6875 52.140625 7.59375 
Q 56.25 8.5 59.515625 10.40625 
z
" id="DejaVuSans-71"/>
     </defs>
     <g transform="translate(448.815625 255.975313)scale(0.1 -0.1)">
      <use xlink:href="#DejaVuSans-71"/>
      <use x="77.490234" xlink:href="#DejaVuSans-101"/>
      <use x="139.013672" xlink:href="#DejaVuSans-114"/>
      <use x="178.376953" xlink:href="#DejaVuSans-109"/>
      <use x="275.789062" xlink:href="#DejaVuSans-97"/>
      <use x="337.068359" xlink:href="#DejaVuSans-110"/>
      <use x="400.447266" xlink:href="#DejaVuSans-121"/>
     </g>
    </g>
    <g id="line2d_83">
     <path d="M 420.815625 267.153438 
L 440.815625 267.153438 
" style="fill:none;stroke:#9467bd;stroke-linecap:square;stroke-width:1.5;"/>
    </g>
    <g id="line2d_84"/>
    <g id="text_22">
     <!-- India -->
     <defs>
      <path d="M 9.8125 72.90625 
L 19.671875 72.90625 
L 19.671875 0 
L 9.8125 0 
z
" id="DejaVuSans-73"/>
     </defs>
     <g transform="translate(448.815625 270.653438)scale(0.1 -0.1)">
      <use xlink:href="#DejaVuSans-73"/>
      <use x="29.492188" xlink:href="#DejaVuSans-110"/>
      <use x="92.871094" xlink:href="#DejaVuSans-100"/>
      <use x="156.347656" xlink:href="#DejaVuSans-105"/>
      <use x="184.130859" xlink:href="#DejaVuSans-97"/>
     </g>
    </g>
    <g id="line2d_85">
     <path d="M 420.815625 281.831563 
L 440.815625 281.831563 
" style="fill:none;stroke:#8c564b;stroke-linecap:square;stroke-width:1.5;"/>
    </g>
    <g id="line2d_86"/>
    <g id="text_23">
     <!-- Indonesia -->
     <g transform="translate(448.815625 285.331563)scale(0.1 -0.1)">
      <use xlink:href="#DejaVuSans-73"/>
      <use x="29.492188" xlink:href="#DejaVuSans-110"/>
      <use x="92.871094" xlink:href="#DejaVuSans-100"/>
      <use x="156.347656" xlink:href="#DejaVuSans-111"/>
      <use x="217.529297" xlink:href="#DejaVuSans-110"/>
      <use x="280.908203" xlink:href="#DejaVuSans-101"/>
      <use x="342.431641" xlink:href="#DejaVuSans-115"/>
      <use x="394.53125" xlink:href="#DejaVuSans-105"/>
      <use x="422.314453" xlink:href="#DejaVuSans-97"/>
     </g>
    </g>
    <g id="line2d_87">
     <path d="M 420.815625 296.509688 
L 440.815625 296.509688 
" style="fill:none;stroke:#e377c2;stroke-linecap:square;stroke-width:1.5;"/>
    </g>
    <g id="line2d_88"/>
    <g id="text_24">
     <!-- Iran -->
     <g transform="translate(448.815625 300.009688)scale(0.1 -0.1)">
      <use xlink:href="#DejaVuSans-73"/>
      <use x="29.492188" xlink:href="#DejaVuSans-114"/>
      <use x="70.605469" xlink:href="#DejaVuSans-97"/>
      <use x="131.884766" xlink:href="#DejaVuSans-110"/>
     </g>
    </g>
    <g id="line2d_89">
     <path d="M 420.815625 311.187813 
L 440.815625 311.187813 
" style="fill:none;stroke:#7f7f7f;stroke-linecap:square;stroke-width:1.5;"/>
    </g>
    <g id="line2d_90"/>
    <g id="text_25">
     <!-- Italy -->
     <g transform="translate(448.815625 314.687813)scale(0.1 -0.1)">
      <use xlink:href="#DejaVuSans-73"/>
      <use x="29.492188" xlink:href="#DejaVuSans-116"/>
      <use x="68.701172" xlink:href="#DejaVuSans-97"/>
      <use x="129.980469" xlink:href="#DejaVuSans-108"/>
      <use x="157.763672" xlink:href="#DejaVuSans-121"/>
     </g>
    </g>
    <g id="line2d_91">
     <path d="M 420.815625 325.865938 
L 440.815625 325.865938 
" style="fill:none;stroke:#bcbd22;stroke-linecap:square;stroke-width:1.5;"/>
    </g>
    <g id="line2d_92"/>
    <g id="text_26">
     <!-- Korea,South -->
     <defs>
      <path d="M 9.8125 72.90625 
L 19.671875 72.90625 
L 19.671875 42.09375 
L 52.390625 72.90625 
L 65.09375 72.90625 
L 28.90625 38.921875 
L 67.671875 0 
L 54.6875 0 
L 19.671875 35.109375 
L 19.671875 0 
L 9.8125 0 
z
" id="DejaVuSans-75"/>
     </defs>
     <g transform="translate(448.815625 329.365938)scale(0.1 -0.1)">
      <use xlink:href="#DejaVuSans-75"/>
      <use x="60.576172" xlink:href="#DejaVuSans-111"/>
      <use x="121.757812" xlink:href="#DejaVuSans-114"/>
      <use x="160.621094" xlink:href="#DejaVuSans-101"/>
      <use x="222.144531" xlink:href="#DejaVuSans-97"/>
      <use x="283.423828" xlink:href="#DejaVuSans-44"/>
      <use x="315.210938" xlink:href="#DejaVuSans-83"/>
      <use x="378.6875" xlink:href="#DejaVuSans-111"/>
      <use x="439.869141" xlink:href="#DejaVuSans-117"/>
      <use x="503.248047" xlink:href="#DejaVuSans-116"/>
      <use x="542.457031" xlink:href="#DejaVuSans-104"/>
     </g>
    </g>
    <g id="line2d_93">
     <path d="M 420.815625 340.544062 
L 440.815625 340.544062 
" style="fill:none;stroke:#17becf;stroke-linecap:square;stroke-width:1.5;"/>
    </g>
    <g id="line2d_94"/>
    <g id="text_27">
     <!-- Pakistan -->
     <defs>
      <path d="M 19.671875 64.796875 
L 19.671875 37.40625 
L 32.078125 37.40625 
Q 38.96875 37.40625 42.71875 40.96875 
Q 46.484375 44.53125 46.484375 51.125 
Q 46.484375 57.671875 42.71875 61.234375 
Q 38.96875 64.796875 32.078125 64.796875 
z
M 9.8125 72.90625 
L 32.078125 72.90625 
Q 44.34375 72.90625 50.609375 67.359375 
Q 56.890625 61.8125 56.890625 51.125 
Q 56.890625 40.328125 50.609375 34.8125 
Q 44.34375 29.296875 32.078125 29.296875 
L 19.671875 29.296875 
L 19.671875 0 
L 9.8125 0 
z
" id="DejaVuSans-80"/>
      <path d="M 9.078125 75.984375 
L 18.109375 75.984375 
L 18.109375 31.109375 
L 44.921875 54.6875 
L 56.390625 54.6875 
L 27.390625 29.109375 
L 57.625 0 
L 45.90625 0 
L 18.109375 26.703125 
L 18.109375 0 
L 9.078125 0 
z
" id="DejaVuSans-107"/>
     </defs>
     <g transform="translate(448.815625 344.044062)scale(0.1 -0.1)">
      <use xlink:href="#DejaVuSans-80"/>
      <use x="55.802734" xlink:href="#DejaVuSans-97"/>
      <use x="117.082031" xlink:href="#DejaVuSans-107"/>
      <use x="174.992188" xlink:href="#DejaVuSans-105"/>
      <use x="202.775391" xlink:href="#DejaVuSans-115"/>
      <use x="254.875" xlink:href="#DejaVuSans-116"/>
      <use x="294.083984" xlink:href="#DejaVuSans-97"/>
      <use x="355.363281" xlink:href="#DejaVuSans-110"/>
     </g>
    </g>
    <g id="line2d_95">
     <path d="M 420.815625 355.222188 
L 440.815625 355.222188 
" style="fill:none;stroke:#1f77b4;stroke-linecap:square;stroke-width:1.5;"/>
    </g>
    <g id="line2d_96"/>
    <g id="text_28">
     <!-- Turkey -->
     <g transform="translate(448.815625 358.722188)scale(0.1 -0.1)">
      <use xlink:href="#DejaVuSans-84"/>
      <use x="45.958984" xlink:href="#DejaVuSans-117"/>
      <use x="109.337891" xlink:href="#DejaVuSans-114"/>
      <use x="150.451172" xlink:href="#DejaVuSans-107"/>
      <use x="204.736328" xlink:href="#DejaVuSans-101"/>
      <use x="266.259766" xlink:href="#DejaVuSans-121"/>
     </g>
    </g>
    <g id="line2d_97">
     <path d="M 420.815625 369.900312 
L 440.815625 369.900312 
" style="fill:none;stroke:#ff7f0e;stroke-linecap:square;stroke-width:1.5;"/>
    </g>
    <g id="line2d_98"/>
    <g id="text_29">
     <!-- US -->
     <defs>
      <path d="M 8.6875 72.90625 
L 18.609375 72.90625 
L 18.609375 28.609375 
Q 18.609375 16.890625 22.84375 11.734375 
Q 27.09375 6.59375 36.625 6.59375 
Q 46.09375 6.59375 50.34375 11.734375 
Q 54.59375 16.890625 54.59375 28.609375 
L 54.59375 72.90625 
L 64.5 72.90625 
L 64.5 27.390625 
Q 64.5 13.140625 57.4375 5.859375 
Q 50.390625 -1.421875 36.625 -1.421875 
Q 22.796875 -1.421875 15.734375 5.859375 
Q 8.6875 13.140625 8.6875 27.390625 
z
" id="DejaVuSans-85"/>
     </defs>
     <g transform="translate(448.815625 373.400312)scale(0.1 -0.1)">
      <use xlink:href="#DejaVuSans-85"/>
      <use x="73.193359" xlink:href="#DejaVuSans-83"/>
     </g>
    </g>
   </g>
  </g>
 </g>
 <defs>
  <clipPath id="p756e173101">
   <rect height="332.64" width="446.4" x="72" y="51.84"/>
  </clipPath>
 </defs>
</svg>
