<?xml version="1.0" encoding="utf-8" standalone="no"?>
<!DOCTYPE svg PUBLIC "-//W3C//DTD SVG 1.1//EN"
  "http://www.w3.org/Graphics/SVG/1.1/DTD/svg11.dtd">
<!-- Created with matplotlib (https://matplotlib.org/) -->
<svg height="432pt" version="1.1" viewBox="0 0 576 432" width="576pt" xmlns="http://www.w3.org/2000/svg" xmlns:xlink="http://www.w3.org/1999/xlink">
 <defs>
  <style type="text/css">
*{stroke-linecap:butt;stroke-linejoin:round;}
  </style>
 </defs>
 <g id="figure_1">
  <g id="patch_1">
   <path d="M 0 432 
L 576 432 
L 576 0 
L 0 0 
z
" style="fill:#ffffff;"/>
  </g>
  <g id="axes_1">
   <g id="patch_2">
    <path d="M 72 384.48 
L 518.4 384.48 
L 518.4 51.84 
L 72 51.84 
z
" style="fill:#ffffff;"/>
   </g>
   <g id="matplotlib.axis_1">
    <g id="xtick_1">
     <g id="line2d_1">
      <defs>
       <path d="M 0 0 
L 0 3.5 
" id="mb6b3c39a4d" style="stroke:#000000;stroke-width:0.8;"/>
      </defs>
      <g>
       <use style="stroke:#000000;stroke-width:0.8;" x="92.290909" xlink:href="#mb6b3c39a4d" y="384.48"/>
      </g>
     </g>
     <g id="text_1">
      <!-- 0 -->
      <defs>
       <path d="M 31.78125 66.40625 
Q 24.171875 66.40625 20.328125 58.90625 
Q 16.5 51.421875 16.5 36.375 
Q 16.5 21.390625 20.328125 13.890625 
Q 24.171875 6.390625 31.78125 6.390625 
Q 39.453125 6.390625 43.28125 13.890625 
Q 47.125 21.390625 47.125 36.375 
Q 47.125 51.421875 43.28125 58.90625 
Q 39.453125 66.40625 31.78125 66.40625 
z
M 31.78125 74.21875 
Q 44.046875 74.21875 50.515625 64.515625 
Q 56.984375 54.828125 56.984375 36.375 
Q 56.984375 17.96875 50.515625 8.265625 
Q 44.046875 -1.421875 31.78125 -1.421875 
Q 19.53125 -1.421875 13.0625 8.265625 
Q 6.59375 17.96875 6.59375 36.375 
Q 6.59375 54.828125 13.0625 64.515625 
Q 19.53125 74.21875 31.78125 74.21875 
z
" id="DejaVuSans-48"/>
      </defs>
      <g transform="translate(89.109659 399.078438)scale(0.1 -0.1)">
       <use xlink:href="#DejaVuSans-48"/>
      </g>
     </g>
    </g>
    <g id="xtick_2">
     <g id="line2d_2">
      <g>
       <use style="stroke:#000000;stroke-width:0.8;" x="166.345322" xlink:href="#mb6b3c39a4d" y="384.48"/>
      </g>
     </g>
     <g id="text_2">
      <!-- 100 -->
      <defs>
       <path d="M 12.40625 8.296875 
L 28.515625 8.296875 
L 28.515625 63.921875 
L 10.984375 60.40625 
L 10.984375 69.390625 
L 28.421875 72.90625 
L 38.28125 72.90625 
L 38.28125 8.296875 
L 54.390625 8.296875 
L 54.390625 0 
L 12.40625 0 
z
" id="DejaVuSans-49"/>
      </defs>
      <g transform="translate(156.801572 399.078438)scale(0.1 -0.1)">
       <use xlink:href="#DejaVuSans-49"/>
       <use x="63.623047" xlink:href="#DejaVuSans-48"/>
       <use x="127.246094" xlink:href="#DejaVuSans-48"/>
      </g>
     </g>
    </g>
    <g id="xtick_3">
     <g id="line2d_3">
      <g>
       <use style="stroke:#000000;stroke-width:0.8;" x="240.399735" xlink:href="#mb6b3c39a4d" y="384.48"/>
      </g>
     </g>
     <g id="text_3">
      <!-- 200 -->
      <defs>
       <path d="M 19.1875 8.296875 
L 53.609375 8.296875 
L 53.609375 0 
L 7.328125 0 
L 7.328125 8.296875 
Q 12.9375 14.109375 22.625 23.890625 
Q 32.328125 33.6875 34.8125 36.53125 
Q 39.546875 41.84375 41.421875 45.53125 
Q 43.3125 49.21875 43.3125 52.78125 
Q 43.3125 58.59375 39.234375 62.25 
Q 35.15625 65.921875 28.609375 65.921875 
Q 23.96875 65.921875 18.8125 64.3125 
Q 13.671875 62.703125 7.8125 59.421875 
L 7.8125 69.390625 
Q 13.765625 71.78125 18.9375 73 
Q 24.125 74.21875 28.421875 74.21875 
Q 39.75 74.21875 46.484375 68.546875 
Q 53.21875 62.890625 53.21875 53.421875 
Q 53.21875 48.921875 51.53125 44.890625 
Q 49.859375 40.875 45.40625 35.40625 
Q 44.1875 33.984375 37.640625 27.21875 
Q 31.109375 20.453125 19.1875 8.296875 
z
" id="DejaVuSans-50"/>
      </defs>
      <g transform="translate(230.855985 399.078438)scale(0.1 -0.1)">
       <use xlink:href="#DejaVuSans-50"/>
       <use x="63.623047" xlink:href="#DejaVuSans-48"/>
       <use x="127.246094" xlink:href="#DejaVuSans-48"/>
      </g>
     </g>
    </g>
    <g id="xtick_4">
     <g id="line2d_4">
      <g>
       <use style="stroke:#000000;stroke-width:0.8;" x="314.454147" xlink:href="#mb6b3c39a4d" y="384.48"/>
      </g>
     </g>
     <g id="text_4">
      <!-- 300 -->
      <defs>
       <path d="M 40.578125 39.3125 
Q 47.65625 37.796875 51.625 33 
Q 55.609375 28.21875 55.609375 21.1875 
Q 55.609375 10.40625 48.1875 4.484375 
Q 40.765625 -1.421875 27.09375 -1.421875 
Q 22.515625 -1.421875 17.65625 -0.515625 
Q 12.796875 0.390625 7.625 2.203125 
L 7.625 11.71875 
Q 11.71875 9.328125 16.59375 8.109375 
Q 21.484375 6.890625 26.8125 6.890625 
Q 36.078125 6.890625 40.9375 10.546875 
Q 45.796875 14.203125 45.796875 21.1875 
Q 45.796875 27.640625 41.28125 31.265625 
Q 36.765625 34.90625 28.71875 34.90625 
L 20.21875 34.90625 
L 20.21875 43.015625 
L 29.109375 43.015625 
Q 36.375 43.015625 40.234375 45.921875 
Q 44.09375 48.828125 44.09375 54.296875 
Q 44.09375 59.90625 40.109375 62.90625 
Q 36.140625 65.921875 28.71875 65.921875 
Q 24.65625 65.921875 20.015625 65.03125 
Q 15.375 64.15625 9.8125 62.3125 
L 9.8125 71.09375 
Q 15.4375 72.65625 20.34375 73.4375 
Q 25.25 74.21875 29.59375 74.21875 
Q 40.828125 74.21875 47.359375 69.109375 
Q 53.90625 64.015625 53.90625 55.328125 
Q 53.90625 49.265625 50.4375 45.09375 
Q 46.96875 40.921875 40.578125 39.3125 
z
" id="DejaVuSans-51"/>
      </defs>
      <g transform="translate(304.910397 399.078438)scale(0.1 -0.1)">
       <use xlink:href="#DejaVuSans-51"/>
       <use x="63.623047" xlink:href="#DejaVuSans-48"/>
       <use x="127.246094" xlink:href="#DejaVuSans-48"/>
      </g>
     </g>
    </g>
    <g id="xtick_5">
     <g id="line2d_5">
      <g>
       <use style="stroke:#000000;stroke-width:0.8;" x="388.50856" xlink:href="#mb6b3c39a4d" y="384.48"/>
      </g>
     </g>
     <g id="text_5">
      <!-- 400 -->
      <defs>
       <path d="M 37.796875 64.3125 
L 12.890625 25.390625 
L 37.796875 25.390625 
z
M 35.203125 72.90625 
L 47.609375 72.90625 
L 47.609375 25.390625 
L 58.015625 25.390625 
L 58.015625 17.1875 
L 47.609375 17.1875 
L 47.609375 0 
L 37.796875 0 
L 37.796875 17.1875 
L 4.890625 17.1875 
L 4.890625 26.703125 
z
" id="DejaVuSans-52"/>
      </defs>
      <g transform="translate(378.96481 399.078438)scale(0.1 -0.1)">
       <use xlink:href="#DejaVuSans-52"/>
       <use x="63.623047" xlink:href="#DejaVuSans-48"/>
       <use x="127.246094" xlink:href="#DejaVuSans-48"/>
      </g>
     </g>
    </g>
    <g id="xtick_6">
     <g id="line2d_6">
      <g>
       <use style="stroke:#000000;stroke-width:0.8;" x="462.562973" xlink:href="#mb6b3c39a4d" y="384.48"/>
      </g>
     </g>
     <g id="text_6">
      <!-- 500 -->
      <defs>
       <path d="M 10.796875 72.90625 
L 49.515625 72.90625 
L 49.515625 64.59375 
L 19.828125 64.59375 
L 19.828125 46.734375 
Q 21.96875 47.46875 24.109375 47.828125 
Q 26.265625 48.1875 28.421875 48.1875 
Q 40.625 48.1875 47.75 41.5 
Q 54.890625 34.8125 54.890625 23.390625 
Q 54.890625 11.625 47.5625 5.09375 
Q 40.234375 -1.421875 26.90625 -1.421875 
Q 22.3125 -1.421875 17.546875 -0.640625 
Q 12.796875 0.140625 7.71875 1.703125 
L 7.71875 11.625 
Q 12.109375 9.234375 16.796875 8.0625 
Q 21.484375 6.890625 26.703125 6.890625 
Q 35.15625 6.890625 40.078125 11.328125 
Q 45.015625 15.765625 45.015625 23.390625 
Q 45.015625 31 40.078125 35.4375 
Q 35.15625 39.890625 26.703125 39.890625 
Q 22.75 39.890625 18.8125 39.015625 
Q 14.890625 38.140625 10.796875 36.28125 
z
" id="DejaVuSans-53"/>
      </defs>
      <g transform="translate(453.019223 399.078438)scale(0.1 -0.1)">
       <use xlink:href="#DejaVuSans-53"/>
       <use x="63.623047" xlink:href="#DejaVuSans-48"/>
       <use x="127.246094" xlink:href="#DejaVuSans-48"/>
      </g>
     </g>
    </g>
    <g id="text_7">
     <!-- Days -->
     <defs>
      <path d="M 19.671875 64.796875 
L 19.671875 8.109375 
L 31.59375 8.109375 
Q 46.6875 8.109375 53.6875 14.9375 
Q 60.6875 21.78125 60.6875 36.53125 
Q 60.6875 51.171875 53.6875 57.984375 
Q 46.6875 64.796875 31.59375 64.796875 
z
M 9.8125 72.90625 
L 30.078125 72.90625 
Q 51.265625 72.90625 61.171875 64.09375 
Q 71.09375 55.28125 71.09375 36.53125 
Q 71.09375 17.671875 61.125 8.828125 
Q 51.171875 0 30.078125 0 
L 9.8125 0 
z
" id="DejaVuSans-68"/>
      <path d="M 34.28125 27.484375 
Q 23.390625 27.484375 19.1875 25 
Q 14.984375 22.515625 14.984375 16.5 
Q 14.984375 11.71875 18.140625 8.90625 
Q 21.296875 6.109375 26.703125 6.109375 
Q 34.1875 6.109375 38.703125 11.40625 
Q 43.21875 16.703125 43.21875 25.484375 
L 43.21875 27.484375 
z
M 52.203125 31.203125 
L 52.203125 0 
L 43.21875 0 
L 43.21875 8.296875 
Q 40.140625 3.328125 35.546875 0.953125 
Q 30.953125 -1.421875 24.3125 -1.421875 
Q 15.921875 -1.421875 10.953125 3.296875 
Q 6 8.015625 6 15.921875 
Q 6 25.140625 12.171875 29.828125 
Q 18.359375 34.515625 30.609375 34.515625 
L 43.21875 34.515625 
L 43.21875 35.40625 
Q 43.21875 41.609375 39.140625 45 
Q 35.0625 48.390625 27.6875 48.390625 
Q 23 48.390625 18.546875 47.265625 
Q 14.109375 46.140625 10.015625 43.890625 
L 10.015625 52.203125 
Q 14.9375 54.109375 19.578125 55.046875 
Q 24.21875 56 28.609375 56 
Q 40.484375 56 46.34375 49.84375 
Q 52.203125 43.703125 52.203125 31.203125 
z
" id="DejaVuSans-97"/>
      <path d="M 32.171875 -5.078125 
Q 28.375 -14.84375 24.75 -17.8125 
Q 21.140625 -20.796875 15.09375 -20.796875 
L 7.90625 -20.796875 
L 7.90625 -13.28125 
L 13.1875 -13.28125 
Q 16.890625 -13.28125 18.9375 -11.515625 
Q 21 -9.765625 23.484375 -3.21875 
L 25.09375 0.875 
L 2.984375 54.6875 
L 12.5 54.6875 
L 29.59375 11.921875 
L 46.6875 54.6875 
L 56.203125 54.6875 
z
" id="DejaVuSans-121"/>
      <path d="M 44.28125 53.078125 
L 44.28125 44.578125 
Q 40.484375 46.53125 36.375 47.5 
Q 32.28125 48.484375 27.875 48.484375 
Q 21.1875 48.484375 17.84375 46.4375 
Q 14.5 44.390625 14.5 40.28125 
Q 14.5 37.15625 16.890625 35.375 
Q 19.28125 33.59375 26.515625 31.984375 
L 29.59375 31.296875 
Q 39.15625 29.25 43.1875 25.515625 
Q 47.21875 21.78125 47.21875 15.09375 
Q 47.21875 7.46875 41.1875 3.015625 
Q 35.15625 -1.421875 24.609375 -1.421875 
Q 20.21875 -1.421875 15.453125 -0.5625 
Q 10.6875 0.296875 5.421875 2 
L 5.421875 11.28125 
Q 10.40625 8.6875 15.234375 7.390625 
Q 20.0625 6.109375 24.8125 6.109375 
Q 31.15625 6.109375 34.5625 8.28125 
Q 37.984375 10.453125 37.984375 14.40625 
Q 37.984375 18.0625 35.515625 20.015625 
Q 33.0625 21.96875 24.703125 23.78125 
L 21.578125 24.515625 
Q 13.234375 26.265625 9.515625 29.90625 
Q 5.8125 33.546875 5.8125 39.890625 
Q 5.8125 47.609375 11.28125 51.796875 
Q 16.75 56 26.8125 56 
Q 31.78125 56 36.171875 55.265625 
Q 40.578125 54.546875 44.28125 53.078125 
z
" id="DejaVuSans-115"/>
     </defs>
     <g transform="translate(282.721875 412.756563)scale(0.1 -0.1)">
      <use xlink:href="#DejaVuSans-68"/>
      <use x="77.001953" xlink:href="#DejaVuSans-97"/>
      <use x="138.28125" xlink:href="#DejaVuSans-121"/>
      <use x="197.460938" xlink:href="#DejaVuSans-115"/>
     </g>
    </g>
   </g>
   <g id="matplotlib.axis_2">
    <g id="ytick_1">
     <g id="line2d_7">
      <defs>
       <path d="M 0 0 
L -3.5 0 
" id="m11243d9362" style="stroke:#000000;stroke-width:0.8;"/>
      </defs>
      <g>
       <use style="stroke:#000000;stroke-width:0.8;" x="72" xlink:href="#m11243d9362" y="369.596212"/>
      </g>
     </g>
     <g id="text_8">
      <!-- 100 -->
      <g transform="translate(45.9125 373.395431)scale(0.1 -0.1)">
       <use xlink:href="#DejaVuSans-49"/>
       <use x="63.623047" xlink:href="#DejaVuSans-48"/>
       <use x="127.246094" xlink:href="#DejaVuSans-48"/>
      </g>
     </g>
    </g>
    <g id="ytick_2">
     <g id="line2d_8">
      <g>
       <use style="stroke:#000000;stroke-width:0.8;" x="72" xlink:href="#m11243d9362" y="314.934862"/>
      </g>
     </g>
     <g id="text_9">
      <!-- 1,000 -->
      <defs>
       <path d="M 11.71875 12.40625 
L 22.015625 12.40625 
L 22.015625 4 
L 14.015625 -11.625 
L 7.71875 -11.625 
L 11.71875 4 
z
" id="DejaVuSans-44"/>
      </defs>
      <g transform="translate(36.371875 318.734081)scale(0.1 -0.1)">
       <use xlink:href="#DejaVuSans-49"/>
       <use x="63.623047" xlink:href="#DejaVuSans-44"/>
       <use x="95.410156" xlink:href="#DejaVuSans-48"/>
       <use x="159.033203" xlink:href="#DejaVuSans-48"/>
       <use x="222.65625" xlink:href="#DejaVuSans-48"/>
      </g>
     </g>
    </g>
    <g id="ytick_3">
     <g id="line2d_9">
      <g>
       <use style="stroke:#000000;stroke-width:0.8;" x="72" xlink:href="#m11243d9362" y="260.273512"/>
      </g>
     </g>
     <g id="text_10">
      <!-- 10,000 -->
      <g transform="translate(30.009375 264.07273)scale(0.1 -0.1)">
       <use xlink:href="#DejaVuSans-49"/>
       <use x="63.623047" xlink:href="#DejaVuSans-48"/>
       <use x="127.246094" xlink:href="#DejaVuSans-44"/>
       <use x="159.033203" xlink:href="#DejaVuSans-48"/>
       <use x="222.65625" xlink:href="#DejaVuSans-48"/>
       <use x="286.279297" xlink:href="#DejaVuSans-48"/>
      </g>
     </g>
    </g>
    <g id="ytick_4">
     <g id="line2d_10">
      <g>
       <use style="stroke:#000000;stroke-width:0.8;" x="72" xlink:href="#m11243d9362" y="205.612161"/>
      </g>
     </g>
     <g id="text_11">
      <!-- 100,000 -->
      <g transform="translate(23.646875 209.41138)scale(0.1 -0.1)">
       <use xlink:href="#DejaVuSans-49"/>
       <use x="63.623047" xlink:href="#DejaVuSans-48"/>
       <use x="127.246094" xlink:href="#DejaVuSans-48"/>
       <use x="190.869141" xlink:href="#DejaVuSans-44"/>
       <use x="222.65625" xlink:href="#DejaVuSans-48"/>
       <use x="286.279297" xlink:href="#DejaVuSans-48"/>
       <use x="349.902344" xlink:href="#DejaVuSans-48"/>
      </g>
     </g>
    </g>
    <g id="ytick_5">
     <g id="line2d_11">
      <g>
       <use style="stroke:#000000;stroke-width:0.8;" x="72" xlink:href="#m11243d9362" y="150.950811"/>
      </g>
     </g>
     <g id="text_12">
      <!-- 1,000,000 -->
      <g transform="translate(14.10625 154.75003)scale(0.1 -0.1)">
       <use xlink:href="#DejaVuSans-49"/>
       <use x="63.623047" xlink:href="#DejaVuSans-44"/>
       <use x="95.410156" xlink:href="#DejaVuSans-48"/>
       <use x="159.033203" xlink:href="#DejaVuSans-48"/>
       <use x="222.65625" xlink:href="#DejaVuSans-48"/>
       <use x="286.279297" xlink:href="#DejaVuSans-44"/>
       <use x="318.066406" xlink:href="#DejaVuSans-48"/>
       <use x="381.689453" xlink:href="#DejaVuSans-48"/>
       <use x="445.3125" xlink:href="#DejaVuSans-48"/>
      </g>
     </g>
    </g>
    <g id="ytick_6">
     <g id="line2d_12">
      <g>
       <use style="stroke:#000000;stroke-width:0.8;" x="72" xlink:href="#m11243d9362" y="96.289461"/>
      </g>
     </g>
     <g id="text_13">
      <!-- 10,000,000 -->
      <g transform="translate(7.74375 100.08868)scale(0.1 -0.1)">
       <use xlink:href="#DejaVuSans-49"/>
       <use x="63.623047" xlink:href="#DejaVuSans-48"/>
       <use x="127.246094" xlink:href="#DejaVuSans-44"/>
       <use x="159.033203" xlink:href="#DejaVuSans-48"/>
       <use x="222.65625" xlink:href="#DejaVuSans-48"/>
       <use x="286.279297" xlink:href="#DejaVuSans-48"/>
       <use x="349.902344" xlink:href="#DejaVuSans-44"/>
       <use x="381.689453" xlink:href="#DejaVuSans-48"/>
       <use x="445.3125" xlink:href="#DejaVuSans-48"/>
       <use x="508.935547" xlink:href="#DejaVuSans-48"/>
      </g>
     </g>
    </g>
    <g id="ytick_7">
     <g id="line2d_13">
      <defs>
       <path d="M 0 0 
L -2 0 
" id="m0a05da9aa5" style="stroke:#000000;stroke-width:0.6;"/>
      </defs>
      <g>
       <use style="stroke:#000000;stroke-width:0.6;" x="72" xlink:href="#m0a05da9aa5" y="381.722764"/>
      </g>
     </g>
    </g>
    <g id="ytick_8">
     <g id="line2d_14">
      <g>
       <use style="stroke:#000000;stroke-width:0.6;" x="72" xlink:href="#m0a05da9aa5" y="378.063362"/>
      </g>
     </g>
    </g>
    <g id="ytick_9">
     <g id="line2d_15">
      <g>
       <use style="stroke:#000000;stroke-width:0.6;" x="72" xlink:href="#m0a05da9aa5" y="374.893444"/>
      </g>
     </g>
    </g>
    <g id="ytick_10">
     <g id="line2d_16">
      <g>
       <use style="stroke:#000000;stroke-width:0.6;" x="72" xlink:href="#m0a05da9aa5" y="372.097378"/>
      </g>
     </g>
    </g>
    <g id="ytick_11">
     <g id="line2d_17">
      <g>
       <use style="stroke:#000000;stroke-width:0.6;" x="72" xlink:href="#m0a05da9aa5" y="353.141506"/>
      </g>
     </g>
    </g>
    <g id="ytick_12">
     <g id="line2d_18">
      <g>
       <use style="stroke:#000000;stroke-width:0.6;" x="72" xlink:href="#m0a05da9aa5" y="343.51612"/>
      </g>
     </g>
    </g>
    <g id="ytick_13">
     <g id="line2d_19">
      <g>
       <use style="stroke:#000000;stroke-width:0.6;" x="72" xlink:href="#m0a05da9aa5" y="336.6868"/>
      </g>
     </g>
    </g>
    <g id="ytick_14">
     <g id="line2d_20">
      <g>
       <use style="stroke:#000000;stroke-width:0.6;" x="72" xlink:href="#m0a05da9aa5" y="331.389568"/>
      </g>
     </g>
    </g>
    <g id="ytick_15">
     <g id="line2d_21">
      <g>
       <use style="stroke:#000000;stroke-width:0.6;" x="72" xlink:href="#m0a05da9aa5" y="327.061414"/>
      </g>
     </g>
    </g>
    <g id="ytick_16">
     <g id="line2d_22">
      <g>
       <use style="stroke:#000000;stroke-width:0.6;" x="72" xlink:href="#m0a05da9aa5" y="323.402012"/>
      </g>
     </g>
    </g>
    <g id="ytick_17">
     <g id="line2d_23">
      <g>
       <use style="stroke:#000000;stroke-width:0.6;" x="72" xlink:href="#m0a05da9aa5" y="320.232094"/>
      </g>
     </g>
    </g>
    <g id="ytick_18">
     <g id="line2d_24">
      <g>
       <use style="stroke:#000000;stroke-width:0.6;" x="72" xlink:href="#m0a05da9aa5" y="317.436028"/>
      </g>
     </g>
    </g>
    <g id="ytick_19">
     <g id="line2d_25">
      <g>
       <use style="stroke:#000000;stroke-width:0.6;" x="72" xlink:href="#m0a05da9aa5" y="298.480156"/>
      </g>
     </g>
    </g>
    <g id="ytick_20">
     <g id="line2d_26">
      <g>
       <use style="stroke:#000000;stroke-width:0.6;" x="72" xlink:href="#m0a05da9aa5" y="288.85477"/>
      </g>
     </g>
    </g>
    <g id="ytick_21">
     <g id="line2d_27">
      <g>
       <use style="stroke:#000000;stroke-width:0.6;" x="72" xlink:href="#m0a05da9aa5" y="282.02545"/>
      </g>
     </g>
    </g>
    <g id="ytick_22">
     <g id="line2d_28">
      <g>
       <use style="stroke:#000000;stroke-width:0.6;" x="72" xlink:href="#m0a05da9aa5" y="276.728218"/>
      </g>
     </g>
    </g>
    <g id="ytick_23">
     <g id="line2d_29">
      <g>
       <use style="stroke:#000000;stroke-width:0.6;" x="72" xlink:href="#m0a05da9aa5" y="272.400064"/>
      </g>
     </g>
    </g>
    <g id="ytick_24">
     <g id="line2d_30">
      <g>
       <use style="stroke:#000000;stroke-width:0.6;" x="72" xlink:href="#m0a05da9aa5" y="268.740662"/>
      </g>
     </g>
    </g>
    <g id="ytick_25">
     <g id="line2d_31">
      <g>
       <use style="stroke:#000000;stroke-width:0.6;" x="72" xlink:href="#m0a05da9aa5" y="265.570744"/>
      </g>
     </g>
    </g>
    <g id="ytick_26">
     <g id="line2d_32">
      <g>
       <use style="stroke:#000000;stroke-width:0.6;" x="72" xlink:href="#m0a05da9aa5" y="262.774678"/>
      </g>
     </g>
    </g>
    <g id="ytick_27">
     <g id="line2d_33">
      <g>
       <use style="stroke:#000000;stroke-width:0.6;" x="72" xlink:href="#m0a05da9aa5" y="243.818806"/>
      </g>
     </g>
    </g>
    <g id="ytick_28">
     <g id="line2d_34">
      <g>
       <use style="stroke:#000000;stroke-width:0.6;" x="72" xlink:href="#m0a05da9aa5" y="234.19342"/>
      </g>
     </g>
    </g>
    <g id="ytick_29">
     <g id="line2d_35">
      <g>
       <use style="stroke:#000000;stroke-width:0.6;" x="72" xlink:href="#m0a05da9aa5" y="227.3641"/>
      </g>
     </g>
    </g>
    <g id="ytick_30">
     <g id="line2d_36">
      <g>
       <use style="stroke:#000000;stroke-width:0.6;" x="72" xlink:href="#m0a05da9aa5" y="222.066867"/>
      </g>
     </g>
    </g>
    <g id="ytick_31">
     <g id="line2d_37">
      <g>
       <use style="stroke:#000000;stroke-width:0.6;" x="72" xlink:href="#m0a05da9aa5" y="217.738714"/>
      </g>
     </g>
    </g>
    <g id="ytick_32">
     <g id="line2d_38">
      <g>
       <use style="stroke:#000000;stroke-width:0.6;" x="72" xlink:href="#m0a05da9aa5" y="214.079312"/>
      </g>
     </g>
    </g>
    <g id="ytick_33">
     <g id="line2d_39">
      <g>
       <use style="stroke:#000000;stroke-width:0.6;" x="72" xlink:href="#m0a05da9aa5" y="210.909394"/>
      </g>
     </g>
    </g>
    <g id="ytick_34">
     <g id="line2d_40">
      <g>
       <use style="stroke:#000000;stroke-width:0.6;" x="72" xlink:href="#m0a05da9aa5" y="208.113328"/>
      </g>
     </g>
    </g>
    <g id="ytick_35">
     <g id="line2d_41">
      <g>
       <use style="stroke:#000000;stroke-width:0.6;" x="72" xlink:href="#m0a05da9aa5" y="189.157455"/>
      </g>
     </g>
    </g>
    <g id="ytick_36">
     <g id="line2d_42">
      <g>
       <use style="stroke:#000000;stroke-width:0.6;" x="72" xlink:href="#m0a05da9aa5" y="179.532069"/>
      </g>
     </g>
    </g>
    <g id="ytick_37">
     <g id="line2d_43">
      <g>
       <use style="stroke:#000000;stroke-width:0.6;" x="72" xlink:href="#m0a05da9aa5" y="172.702749"/>
      </g>
     </g>
    </g>
    <g id="ytick_38">
     <g id="line2d_44">
      <g>
       <use style="stroke:#000000;stroke-width:0.6;" x="72" xlink:href="#m0a05da9aa5" y="167.405517"/>
      </g>
     </g>
    </g>
    <g id="ytick_39">
     <g id="line2d_45">
      <g>
       <use style="stroke:#000000;stroke-width:0.6;" x="72" xlink:href="#m0a05da9aa5" y="163.077363"/>
      </g>
     </g>
    </g>
    <g id="ytick_40">
     <g id="line2d_46">
      <g>
       <use style="stroke:#000000;stroke-width:0.6;" x="72" xlink:href="#m0a05da9aa5" y="159.417961"/>
      </g>
     </g>
    </g>
    <g id="ytick_41">
     <g id="line2d_47">
      <g>
       <use style="stroke:#000000;stroke-width:0.6;" x="72" xlink:href="#m0a05da9aa5" y="156.248043"/>
      </g>
     </g>
    </g>
    <g id="ytick_42">
     <g id="line2d_48">
      <g>
       <use style="stroke:#000000;stroke-width:0.6;" x="72" xlink:href="#m0a05da9aa5" y="153.451977"/>
      </g>
     </g>
    </g>
    <g id="ytick_43">
     <g id="line2d_49">
      <g>
       <use style="stroke:#000000;stroke-width:0.6;" x="72" xlink:href="#m0a05da9aa5" y="134.496105"/>
      </g>
     </g>
    </g>
    <g id="ytick_44">
     <g id="line2d_50">
      <g>
       <use style="stroke:#000000;stroke-width:0.6;" x="72" xlink:href="#m0a05da9aa5" y="124.870719"/>
      </g>
     </g>
    </g>
    <g id="ytick_45">
     <g id="line2d_51">
      <g>
       <use style="stroke:#000000;stroke-width:0.6;" x="72" xlink:href="#m0a05da9aa5" y="118.041399"/>
      </g>
     </g>
    </g>
    <g id="ytick_46">
     <g id="line2d_52">
      <g>
       <use style="stroke:#000000;stroke-width:0.6;" x="72" xlink:href="#m0a05da9aa5" y="112.744167"/>
      </g>
     </g>
    </g>
    <g id="ytick_47">
     <g id="line2d_53">
      <g>
       <use style="stroke:#000000;stroke-width:0.6;" x="72" xlink:href="#m0a05da9aa5" y="108.416013"/>
      </g>
     </g>
    </g>
    <g id="ytick_48">
     <g id="line2d_54">
      <g>
       <use style="stroke:#000000;stroke-width:0.6;" x="72" xlink:href="#m0a05da9aa5" y="104.756611"/>
      </g>
     </g>
    </g>
    <g id="ytick_49">
     <g id="line2d_55">
      <g>
       <use style="stroke:#000000;stroke-width:0.6;" x="72" xlink:href="#m0a05da9aa5" y="101.586693"/>
      </g>
     </g>
    </g>
    <g id="ytick_50">
     <g id="line2d_56">
      <g>
       <use style="stroke:#000000;stroke-width:0.6;" x="72" xlink:href="#m0a05da9aa5" y="98.790627"/>
      </g>
     </g>
    </g>
    <g id="ytick_51">
     <g id="line2d_57">
      <g>
       <use style="stroke:#000000;stroke-width:0.6;" x="72" xlink:href="#m0a05da9aa5" y="79.834755"/>
      </g>
     </g>
    </g>
    <g id="ytick_52">
     <g id="line2d_58">
      <g>
       <use style="stroke:#000000;stroke-width:0.6;" x="72" xlink:href="#m0a05da9aa5" y="70.209369"/>
      </g>
     </g>
    </g>
    <g id="ytick_53">
     <g id="line2d_59">
      <g>
       <use style="stroke:#000000;stroke-width:0.6;" x="72" xlink:href="#m0a05da9aa5" y="63.380049"/>
      </g>
     </g>
    </g>
    <g id="ytick_54">
     <g id="line2d_60">
      <g>
       <use style="stroke:#000000;stroke-width:0.6;" x="72" xlink:href="#m0a05da9aa5" y="58.082817"/>
      </g>
     </g>
    </g>
    <g id="ytick_55">
     <g id="line2d_61">
      <g>
       <use style="stroke:#000000;stroke-width:0.6;" x="72" xlink:href="#m0a05da9aa5" y="53.754663"/>
      </g>
     </g>
    </g>
    <g id="text_14">
     <!-- Confirmed Cases -->
     <defs>
      <path d="M 64.40625 67.28125 
L 64.40625 56.890625 
Q 59.421875 61.53125 53.78125 63.8125 
Q 48.140625 66.109375 41.796875 66.109375 
Q 29.296875 66.109375 22.65625 58.46875 
Q 16.015625 50.828125 16.015625 36.375 
Q 16.015625 21.96875 22.65625 14.328125 
Q 29.296875 6.6875 41.796875 6.6875 
Q 48.140625 6.6875 53.78125 8.984375 
Q 59.421875 11.28125 64.40625 15.921875 
L 64.40625 5.609375 
Q 59.234375 2.09375 53.4375 0.328125 
Q 47.65625 -1.421875 41.21875 -1.421875 
Q 24.65625 -1.421875 15.125 8.703125 
Q 5.609375 18.84375 5.609375 36.375 
Q 5.609375 53.953125 15.125 64.078125 
Q 24.65625 74.21875 41.21875 74.21875 
Q 47.75 74.21875 53.53125 72.484375 
Q 59.328125 70.75 64.40625 67.28125 
z
" id="DejaVuSans-67"/>
      <path d="M 30.609375 48.390625 
Q 23.390625 48.390625 19.1875 42.75 
Q 14.984375 37.109375 14.984375 27.296875 
Q 14.984375 17.484375 19.15625 11.84375 
Q 23.34375 6.203125 30.609375 6.203125 
Q 37.796875 6.203125 41.984375 11.859375 
Q 46.1875 17.53125 46.1875 27.296875 
Q 46.1875 37.015625 41.984375 42.703125 
Q 37.796875 48.390625 30.609375 48.390625 
z
M 30.609375 56 
Q 42.328125 56 49.015625 48.375 
Q 55.71875 40.765625 55.71875 27.296875 
Q 55.71875 13.875 49.015625 6.21875 
Q 42.328125 -1.421875 30.609375 -1.421875 
Q 18.84375 -1.421875 12.171875 6.21875 
Q 5.515625 13.875 5.515625 27.296875 
Q 5.515625 40.765625 12.171875 48.375 
Q 18.84375 56 30.609375 56 
z
" id="DejaVuSans-111"/>
      <path d="M 54.890625 33.015625 
L 54.890625 0 
L 45.90625 0 
L 45.90625 32.71875 
Q 45.90625 40.484375 42.875 44.328125 
Q 39.84375 48.1875 33.796875 48.1875 
Q 26.515625 48.1875 22.3125 43.546875 
Q 18.109375 38.921875 18.109375 30.90625 
L 18.109375 0 
L 9.078125 0 
L 9.078125 54.6875 
L 18.109375 54.6875 
L 18.109375 46.1875 
Q 21.34375 51.125 25.703125 53.5625 
Q 30.078125 56 35.796875 56 
Q 45.21875 56 50.046875 50.171875 
Q 54.890625 44.34375 54.890625 33.015625 
z
" id="DejaVuSans-110"/>
      <path d="M 37.109375 75.984375 
L 37.109375 68.5 
L 28.515625 68.5 
Q 23.6875 68.5 21.796875 66.546875 
Q 19.921875 64.59375 19.921875 59.515625 
L 19.921875 54.6875 
L 34.71875 54.6875 
L 34.71875 47.703125 
L 19.921875 47.703125 
L 19.921875 0 
L 10.890625 0 
L 10.890625 47.703125 
L 2.296875 47.703125 
L 2.296875 54.6875 
L 10.890625 54.6875 
L 10.890625 58.5 
Q 10.890625 67.625 15.140625 71.796875 
Q 19.390625 75.984375 28.609375 75.984375 
z
" id="DejaVuSans-102"/>
      <path d="M 9.421875 54.6875 
L 18.40625 54.6875 
L 18.40625 0 
L 9.421875 0 
z
M 9.421875 75.984375 
L 18.40625 75.984375 
L 18.40625 64.59375 
L 9.421875 64.59375 
z
" id="DejaVuSans-105"/>
      <path d="M 41.109375 46.296875 
Q 39.59375 47.171875 37.8125 47.578125 
Q 36.03125 48 33.890625 48 
Q 26.265625 48 22.1875 43.046875 
Q 18.109375 38.09375 18.109375 28.8125 
L 18.109375 0 
L 9.078125 0 
L 9.078125 54.6875 
L 18.109375 54.6875 
L 18.109375 46.1875 
Q 20.953125 51.171875 25.484375 53.578125 
Q 30.03125 56 36.53125 56 
Q 37.453125 56 38.578125 55.875 
Q 39.703125 55.765625 41.0625 55.515625 
z
" id="DejaVuSans-114"/>
      <path d="M 52 44.1875 
Q 55.375 50.25 60.0625 53.125 
Q 64.75 56 71.09375 56 
Q 79.640625 56 84.28125 50.015625 
Q 88.921875 44.046875 88.921875 33.015625 
L 88.921875 0 
L 79.890625 0 
L 79.890625 32.71875 
Q 79.890625 40.578125 77.09375 44.375 
Q 74.3125 48.1875 68.609375 48.1875 
Q 61.625 48.1875 57.5625 43.546875 
Q 53.515625 38.921875 53.515625 30.90625 
L 53.515625 0 
L 44.484375 0 
L 44.484375 32.71875 
Q 44.484375 40.625 41.703125 44.40625 
Q 38.921875 48.1875 33.109375 48.1875 
Q 26.21875 48.1875 22.15625 43.53125 
Q 18.109375 38.875 18.109375 30.90625 
L 18.109375 0 
L 9.078125 0 
L 9.078125 54.6875 
L 18.109375 54.6875 
L 18.109375 46.1875 
Q 21.1875 51.21875 25.484375 53.609375 
Q 29.78125 56 35.6875 56 
Q 41.65625 56 45.828125 52.96875 
Q 50 49.953125 52 44.1875 
z
" id="DejaVuSans-109"/>
      <path d="M 56.203125 29.59375 
L 56.203125 25.203125 
L 14.890625 25.203125 
Q 15.484375 15.921875 20.484375 11.0625 
Q 25.484375 6.203125 34.421875 6.203125 
Q 39.59375 6.203125 44.453125 7.46875 
Q 49.3125 8.734375 54.109375 11.28125 
L 54.109375 2.78125 
Q 49.265625 0.734375 44.1875 -0.34375 
Q 39.109375 -1.421875 33.890625 -1.421875 
Q 20.796875 -1.421875 13.15625 6.1875 
Q 5.515625 13.8125 5.515625 26.8125 
Q 5.515625 40.234375 12.765625 48.109375 
Q 20.015625 56 32.328125 56 
Q 43.359375 56 49.78125 48.890625 
Q 56.203125 41.796875 56.203125 29.59375 
z
M 47.21875 32.234375 
Q 47.125 39.59375 43.09375 43.984375 
Q 39.0625 48.390625 32.421875 48.390625 
Q 24.90625 48.390625 20.390625 44.140625 
Q 15.875 39.890625 15.1875 32.171875 
z
" id="DejaVuSans-101"/>
      <path d="M 45.40625 46.390625 
L 45.40625 75.984375 
L 54.390625 75.984375 
L 54.390625 0 
L 45.40625 0 
L 45.40625 8.203125 
Q 42.578125 3.328125 38.25 0.953125 
Q 33.9375 -1.421875 27.875 -1.421875 
Q 17.96875 -1.421875 11.734375 6.484375 
Q 5.515625 14.40625 5.515625 27.296875 
Q 5.515625 40.1875 11.734375 48.09375 
Q 17.96875 56 27.875 56 
Q 33.9375 56 38.25 53.625 
Q 42.578125 51.265625 45.40625 46.390625 
z
M 14.796875 27.296875 
Q 14.796875 17.390625 18.875 11.75 
Q 22.953125 6.109375 30.078125 6.109375 
Q 37.203125 6.109375 41.296875 11.75 
Q 45.40625 17.390625 45.40625 27.296875 
Q 45.40625 37.203125 41.296875 42.84375 
Q 37.203125 48.484375 30.078125 48.484375 
Q 22.953125 48.484375 18.875 42.84375 
Q 14.796875 37.203125 14.796875 27.296875 
z
" id="DejaVuSans-100"/>
      <path id="DejaVuSans-32"/>
     </defs>
     <g transform="translate(1.664062 260.548281)rotate(-90)scale(0.1 -0.1)">
      <use xlink:href="#DejaVuSans-67"/>
      <use x="69.824219" xlink:href="#DejaVuSans-111"/>
      <use x="131.005859" xlink:href="#DejaVuSans-110"/>
      <use x="194.384766" xlink:href="#DejaVuSans-102"/>
      <use x="229.589844" xlink:href="#DejaVuSans-105"/>
      <use x="257.373047" xlink:href="#DejaVuSans-114"/>
      <use x="296.736328" xlink:href="#DejaVuSans-109"/>
      <use x="394.148438" xlink:href="#DejaVuSans-101"/>
      <use x="455.671875" xlink:href="#DejaVuSans-100"/>
      <use x="519.148438" xlink:href="#DejaVuSans-32"/>
      <use x="550.935547" xlink:href="#DejaVuSans-67"/>
      <use x="620.759766" xlink:href="#DejaVuSans-97"/>
      <use x="682.039062" xlink:href="#DejaVuSans-115"/>
      <use x="734.138672" xlink:href="#DejaVuSans-101"/>
      <use x="795.662109" xlink:href="#DejaVuSans-115"/>
     </g>
    </g>
   </g>
   <g id="line2d_62">
    <path clip-path="url(#p4a9701d33e)" d="M 92.290909 329.213469 
L 93.031453 353.380092 
L 93.771997 316.914268 
L 95.253086 297.606224 
L 95.99363 289.848589 
L 96.734174 274.426824 
L 97.474718 272.058318 
L 98.215262 265.155986 
L 99.69635 256.161973 
L 100.436894 248.199243 
L 102.658527 236.310844 
L 104.139615 231.145477 
L 105.620703 227.465802 
L 106.361248 226.006616 
L 107.101792 224.894171 
L 107.842336 224.695512 
L 108.58288 217.780293 
L 109.323424 215.347715 
L 111.545056 213.267895 
L 112.285601 212.69254 
L 114.507233 212.26803 
L 115.247777 211.816423 
L 116.728865 211.742547 
L 118.950498 211.328506 
L 123.393762 210.795128 
L 127.096483 210.65556 
L 138.945189 210.421557 
L 146.35063 210.166532 
L 155.23716 209.920478 
L 156.718248 209.81143 
L 185.599469 209.72122 
L 202.631984 209.611958 
L 211.518514 209.521662 
L 226.329396 209.382685 
L 227.06994 209.218526 
L 232.253749 208.860072 
L 235.215926 208.65086 
L 247.805176 208.238419 
L 269.280956 208.035906 
L 305.567618 207.707449 
L 324.821765 207.336713 
L 341.85428 206.734305 
L 357.405707 206.225848 
L 370.735501 205.582032 
L 387.768016 205.415469 
L 472.190046 204.795272 
L 498.109091 204.569284 
L 498.109091 204.569284 
" style="fill:none;stroke:#1f77b4;stroke-linecap:square;stroke-width:1.5;"/>
   </g>
   <g id="line2d_63">
    <path clip-path="url(#p4a9701d33e)" d="M 92.290909 354.610374 
L 94.512541 330.32194 
L 95.253086 320.924597 
L 96.734174 306.896491 
L 97.474718 297.186654 
L 99.69635 281.71883 
L 101.177439 269.096004 
L 102.658527 257.403705 
L 103.399071 252.043029 
L 104.139615 247.787437 
L 104.880159 242.071081 
L 105.620703 241.447491 
L 106.361248 230.544194 
L 107.101792 225.938334 
L 107.842336 222.154389 
L 108.58288 217.739505 
L 110.063968 210.213744 
L 111.545056 201.937232 
L 112.285601 198.409293 
L 115.247777 186.694909 
L 116.728865 180.876591 
L 117.469409 178.342203 
L 120.431586 171.14712 
L 122.653218 166.795354 
L 127.096483 160.973284 
L 127.837027 160.194694 
L 128.577571 158.712442 
L 130.799204 156.941402 
L 131.539748 155.952938 
L 132.280292 155.347299 
L 135.983013 153.17055 
L 136.723557 152.81983 
L 138.204645 151.986328 
L 141.166821 150.859 
L 141.907366 151.214733 
L 146.35063 150.158132 
L 148.572263 149.657152 
L 159.680425 148.075704 
L 161.902057 147.876368 
L 163.383145 147.601072 
L 165.604778 147.390663 
L 167.82641 147.171106 
L 174.491307 146.453782 
L 181.896749 145.690165 
L 190.042734 144.816249 
L 192.264366 144.60853 
L 202.631984 143.401861 
L 208.556337 142.395395 
L 210.777969 141.973502 
L 211.518514 141.913255 
L 212.999602 141.454775 
L 219.664499 139.764408 
L 221.145587 139.3696 
L 221.886131 139.254929 
L 222.626676 138.92434 
L 224.107764 138.47272 
L 226.329396 137.742709 
L 227.06994 137.599065 
L 227.810484 137.219012 
L 230.032117 136.42942 
L 230.772661 136.110682 
L 232.253749 135.796356 
L 232.994293 135.3834 
L 235.215926 134.532442 
L 235.95647 134.183791 
L 237.437558 133.810994 
L 238.178102 133.361338 
L 240.399735 132.403033 
L 241.880823 131.778593 
L 242.621367 131.607469 
L 243.361911 131.15248 
L 244.842999 130.48155 
L 247.064632 129.36917 
L 247.805176 129.14282 
L 249.286264 128.326415 
L 252.248441 126.815634 
L 252.988985 126.567547 
L 253.729529 126.152 
L 254.470073 125.926256 
L 256.691705 124.668087 
L 259.653882 123.301072 
L 261.13497 122.309176 
L 262.616058 121.234953 
L 263.356603 120.875195 
L 265.578235 119.28843 
L 267.799867 117.314234 
L 269.280956 116.155423 
L 270.762044 114.809867 
L 273.72422 111.684293 
L 276.686397 108.465061 
L 277.426941 107.561741 
L 280.389117 104.900741 
L 283.351294 101.809063 
L 285.572926 100.324918 
L 287.794559 98.586112 
L 289.275647 97.809592 
L 290.756735 96.908042 
L 292.978368 95.562588 
L 294.459456 94.987209 
L 295.940544 94.365819 
L 298.162177 93.347374 
L 299.643265 92.920173 
L 301.124353 92.461636 
L 304.827074 91.208278 
L 306.308162 90.81304 
L 310.010883 89.586384 
L 311.491971 89.184157 
L 314.454147 88.141794 
L 316.67578 87.58257 
L 318.897412 86.921302 
L 321.119044 86.598276 
L 324.821765 85.545892 
L 326.302853 85.277305 
L 330.005574 84.027055 
L 331.486662 83.719872 
L 335.189383 82.696666 
L 336.670471 82.407264 
L 345.557001 80.35467 
L 347.038089 80.124656 
L 352.221898 79.246048 
L 373.697678 76.109229 
L 377.400398 75.395948 
L 378.881486 75.168754 
L 383.324751 74.295543 
L 384.805839 73.971488 
L 387.027472 73.445987 
L 389.989648 72.899322 
L 391.470737 72.570532 
L 395.173457 72.08198 
L 396.654545 71.761284 
L 399.616722 71.297282 
L 402.578898 70.792582 
L 405.541075 70.415892 
L 408.503251 70.036061 
L 410.724884 69.784108 
L 413.68706 69.497022 
L 416.649237 69.216609 
L 421.092502 68.895277 
L 426.276311 68.59792 
L 427.016855 68.822656 
L 433.681752 68.564185 
L 453.676443 68.186102 
L 461.822429 68.033239 
L 470.708958 67.623986 
L 474.411679 67.344021 
L 474.411679 67.344021 
" style="fill:none;stroke:#ff7f0e;stroke-linecap:square;stroke-width:1.5;"/>
   </g>
   <g id="line2d_64">
    <path clip-path="url(#p4a9701d33e)" d="M 92.290909 363.367915 
L 93.031453 354.234549 
L 93.771997 351.758253 
L 94.512541 344.485198 
L 96.734174 316.202549 
L 97.474718 312.138796 
L 98.955806 301.233234 
L 99.69635 295.23469 
L 100.436894 295.23469 
L 101.177439 283.998406 
L 101.917983 279.224109 
L 102.658527 279.097865 
L 103.399071 269.840808 
L 104.139615 266.431882 
L 106.361248 254.502459 
L 107.101792 251.525064 
L 107.842336 248.058341 
L 108.58288 243.673257 
L 109.323424 241.158175 
L 110.063968 238.206519 
L 111.545056 231.897053 
L 112.285601 228.774953 
L 113.026145 227.189666 
L 113.766689 224.753925 
L 114.507233 221.009227 
L 115.247777 218.905616 
L 115.988321 218.046139 
L 116.728865 216.039557 
L 117.469409 214.515344 
L 118.209954 213.878718 
L 119.691042 211.419893 
L 121.912674 207.905076 
L 122.653218 207.104022 
L 123.393762 201.136296 
L 124.134307 200.426671 
L 124.874851 199.315302 
L 125.615395 198.738076 
L 126.355939 196.598838 
L 127.096483 196.288911 
L 127.837027 195.683905 
L 128.577571 195.510318 
L 130.799204 194.452759 
L 131.539748 194.706016 
L 133.020836 194.211572 
L 133.76138 194.118793 
L 135.242468 193.141805 
L 135.983013 193.346951 
L 137.464101 193.101267 
L 140.426277 192.707652 
L 141.166821 192.144273 
L 143.388454 191.90307 
L 146.35063 191.659545 
L 148.572263 191.453377 
L 150.793895 191.311937 
L 154.496616 191.103341 
L 156.718248 191.006654 
L 157.458792 190.581539 
L 158.199336 190.506793 
L 158.939881 190.282337 
L 166.345322 189.897178 
L 170.048042 189.571495 
L 172.269675 189.45282 
L 177.453484 189.053705 
L 178.194028 189.023589 
L 179.675116 188.822497 
L 181.896749 188.658982 
L 184.118381 188.419828 
L 188.561646 188.064989 
L 190.042734 187.955738 
L 190.783278 187.953933 
L 191.523822 187.793919 
L 193.00491 187.70566 
L 198.188719 187.154725 
L 199.669808 186.902214 
L 201.150896 186.892717 
L 201.89144 186.62578 
L 203.372528 186.409761 
L 204.853616 186.126326 
L 206.334705 186.119433 
L 207.075249 185.771091 
L 208.556337 185.496968 
L 210.777969 185.087679 
L 211.518514 185.084179 
L 212.259058 184.615821 
L 212.999602 184.477613 
L 217.442867 183.053291 
L 218.183411 182.859595 
L 219.664499 182.091776 
L 220.405043 181.654339 
L 223.36722 180.49373 
L 224.107764 180.470093 
L 224.848308 179.565327 
L 225.588852 178.967437 
L 227.06994 178.145308 
L 227.810484 177.914083 
L 228.551029 177.539778 
L 230.772661 175.917951 
L 232.253749 174.880182 
L 232.994293 174.604293 
L 234.475382 173.636863 
L 236.697014 171.818867 
L 238.918646 170.671073 
L 241.140279 168.904507 
L 241.880823 168.228457 
L 242.621367 167.716149 
L 243.361911 167.451188 
L 244.102455 166.976277 
L 245.583543 165.654969 
L 247.064632 164.353901 
L 247.805176 163.91398 
L 248.54572 163.738439 
L 249.286264 163.414989 
L 250.767352 162.339429 
L 251.507896 161.867185 
L 252.248441 161.255212 
L 252.988985 160.801407 
L 253.729529 160.599556 
L 254.470073 160.19981 
L 256.691705 158.267349 
L 257.43225 157.420733 
L 258.172794 156.929 
L 258.913338 156.649343 
L 259.653882 156.241635 
L 260.394426 155.568883 
L 262.616058 153.171123 
L 263.356603 152.405844 
L 264.097147 152.047906 
L 264.837691 151.546648 
L 265.578235 150.888341 
L 268.540411 146.950072 
L 270.0215 145.736183 
L 271.502588 144.184126 
L 272.243132 143.316979 
L 272.983676 142.720933 
L 275.205309 140.524796 
L 275.945853 139.895055 
L 277.426941 138.188331 
L 278.167485 137.016112 
L 278.908029 136.512517 
L 280.389117 135.950191 
L 281.870206 135.094632 
L 284.832382 133.985674 
L 285.572926 133.461737 
L 287.054015 132.904329 
L 288.535103 132.454265 
L 290.016191 132.256952 
L 292.237823 131.832227 
L 294.459456 131.463618 
L 295.940544 131.331134 
L 299.643265 130.692048 
L 301.124353 130.516264 
L 304.827074 129.848065 
L 306.308162 129.703615 
L 310.010883 128.917989 
L 311.491971 128.751344 
L 315.194691 128.117541 
L 316.67578 127.985446 
L 318.156868 127.569069 
L 318.897412 127.398154 
L 321.119044 127.22237 
L 325.562309 126.164598 
L 326.302853 126.132731 
L 335.929927 124.000182 
L 336.670471 123.967404 
L 343.335368 122.535945 
L 344.075912 122.535802 
L 344.816457 122.210951 
L 346.297545 121.927534 
L 347.778633 121.765707 
L 350.74081 121.157768 
L 355.184074 120.409191 
L 356.665163 120.119709 
L 358.146251 119.959383 
L 360.367883 119.436569 
L 361.848971 119.161558 
L 362.589516 119.132149 
L 375.178766 116.647102 
L 377.400398 116.087828 
L 378.881486 115.921645 
L 380.362575 115.326401 
L 382.584207 114.691676 
L 384.065295 114.48729 
L 386.286928 113.701097 
L 387.027472 113.700662 
L 387.768016 113.305419 
L 389.989648 113.209304 
L 390.730192 112.743431 
L 392.211281 112.736168 
L 392.951825 112.183082 
L 393.692369 112.143446 
L 398.135634 111.135698 
L 398.876178 111.105955 
L 401.09781 110.612842 
L 403.319443 110.22777 
L 404.800531 110.073339 
L 407.762707 109.619078 
L 410.724884 109.354033 
L 413.68706 109.064586 
L 415.168149 108.970885 
L 418.130325 108.714338 
L 421.092502 108.500636 
L 421.833046 109.927081 
L 428.497943 109.551032 
L 435.903384 109.296417 
L 444.04937 109.150218 
L 462.562973 108.877871 
L 468.487326 108.431607 
L 469.22787 108.354889 
L 469.22787 108.354889 
" style="fill:none;stroke:#2ca02c;stroke-linecap:square;stroke-width:1.5;"/>
   </g>
   <g id="line2d_65">
    <path clip-path="url(#p4a9701d33e)" d="M 92.290909 363.367915 
L 93.771997 353.621101 
L 94.512541 346.731299 
L 95.253086 332.259939 
L 95.99363 324.441848 
L 96.734174 320.261787 
L 97.474718 314.003797 
L 98.215262 311.086303 
L 98.955806 305.999942 
L 99.69635 299.598069 
L 100.436894 297.571928 
L 101.177439 284.037132 
L 103.399071 267.835698 
L 104.139615 262.106292 
L 104.880159 255.307124 
L 105.620703 250.147017 
L 106.361248 243.999912 
L 107.842336 238.642476 
L 108.58288 234.952416 
L 110.063968 229.008501 
L 111.545056 221.656893 
L 112.285601 218.668671 
L 115.247777 211.549405 
L 116.728865 207.809572 
L 117.469409 206.558501 
L 118.209954 205.58298 
L 118.950498 204.824419 
L 119.691042 203.859364 
L 121.17213 201.646608 
L 121.912674 200.858366 
L 124.134307 199.37072 
L 124.874851 199.136987 
L 127.096483 197.388897 
L 129.318115 196.455875 
L 130.05866 196.258796 
L 132.280292 195.208527 
L 133.76138 194.787879 
L 135.242468 194.467748 
L 137.464101 193.857363 
L 144.869542 192.658493 
L 158.199336 191.276351 
L 172.269675 190.550177 
L 173.750763 190.337785 
L 178.194028 189.957624 
L 180.41566 189.795881 
L 197.448175 188.720313 
L 204.113072 188.051843 
L 207.075249 187.761776 
L 209.296881 187.436321 
L 210.777969 187.231432 
L 212.259058 187.056418 
L 214.48069 186.650011 
L 215.961778 186.415471 
L 216.702322 186.360651 
L 220.405043 185.529036 
L 222.626676 185.216019 
L 226.329396 184.550526 
L 227.810484 184.359011 
L 235.215926 183.098767 
L 237.437558 182.77109 
L 239.65919 182.31013 
L 241.880823 181.776836 
L 243.361911 181.549351 
L 250.767352 179.887721 
L 252.248441 179.529933 
L 252.988985 179.407922 
L 255.210617 178.666758 
L 256.691705 177.963288 
L 258.172794 177.536504 
L 258.913338 177.06535 
L 259.653882 176.74909 
L 261.875514 175.216976 
L 263.356603 174.63891 
L 264.837691 173.573674 
L 265.578235 172.826396 
L 266.318779 172.473942 
L 267.059323 171.201654 
L 267.799867 170.722503 
L 268.540411 170.564694 
L 270.0215 169.209132 
L 270.762044 168.032265 
L 271.502588 167.483795 
L 272.243132 166.578034 
L 272.983676 165.942224 
L 274.464764 164.311769 
L 275.205309 163.999875 
L 275.945853 162.739089 
L 277.426941 161.031871 
L 278.908029 160.014671 
L 279.648573 159.788937 
L 281.129662 158.160005 
L 282.61075 156.694565 
L 283.351294 156.255968 
L 284.091838 156.160785 
L 284.832382 155.733593 
L 286.31347 154.325522 
L 287.794559 153.08248 
L 288.535103 152.724938 
L 289.275647 152.613233 
L 290.756735 151.841088 
L 291.497279 151.048842 
L 292.978368 150.050604 
L 293.718912 149.736256 
L 294.459456 149.664257 
L 295.2 149.346607 
L 297.421632 147.808185 
L 298.162177 147.47838 
L 298.902721 146.948527 
L 300.383809 146.622539 
L 303.345985 144.462647 
L 304.08653 144.072266 
L 304.827074 143.812352 
L 305.567618 143.699252 
L 307.78925 142.064674 
L 308.529794 141.534631 
L 309.270338 141.191 
L 310.010883 141.089809 
L 310.751427 140.789973 
L 312.232515 139.732154 
L 312.973059 139.343672 
L 313.713603 139.312537 
L 316.67578 138.46461 
L 317.416324 137.786339 
L 318.156868 137.523744 
L 318.897412 137.495216 
L 321.859589 136.805955 
L 322.600133 136.459673 
L 323.340677 135.88227 
L 324.821765 135.360788 
L 325.562309 135.349121 
L 326.302853 135.205528 
L 328.524486 134.315958 
L 331.486662 133.801528 
L 332.227206 133.660932 
L 332.96775 133.330884 
L 334.448839 133.054014 
L 336.670471 132.727923 
L 338.151559 132.453818 
L 340.373192 131.966233 
L 341.85428 131.887238 
L 344.075912 131.536687 
L 346.297545 131.264381 
L 348.519177 131.061964 
L 351.481354 130.751288 
L 354.44353 130.444444 
L 357.405707 130.172907 
L 359.627339 129.901702 
L 362.589516 129.624568 
L 364.811148 129.348367 
L 367.773324 129.068344 
L 368.513869 129.003895 
L 369.254413 128.805414 
L 370.735501 128.642393 
L 374.438222 128.169685 
L 375.178766 127.912044 
L 376.659854 127.64395 
L 378.140942 127.563785 
L 381.843663 126.653759 
L 383.324751 126.551412 
L 386.286928 125.820386 
L 389.249104 125.594594 
L 391.470737 124.944234 
L 392.211281 124.796043 
L 393.692369 124.676821 
L 396.654545 123.832552 
L 397.39509 123.680062 
L 398.876178 123.583685 
L 401.09781 122.936934 
L 403.319443 122.560048 
L 404.059987 122.517292 
L 407.022163 121.862027 
L 408.503251 121.672398 
L 409.243796 121.634324 
L 411.465428 121.193201 
L 412.946516 121.002742 
L 414.427605 120.953572 
L 415.908693 120.777861 
L 418.870869 120.523193 
L 422.57359 120.237247 
L 429.238487 119.971089 
L 450.714267 119.669714 
L 469.22787 119.50843 
L 469.22787 119.50843 
" style="fill:none;stroke:#d62728;stroke-linecap:square;stroke-width:1.5;"/>
   </g>
   <g id="line2d_66">
    <path clip-path="url(#p4a9701d33e)" d="M 92.290909 359.192425 
L 93.771997 341.836124 
L 95.99363 317.754679 
L 96.734174 312.075576 
L 97.474718 302.422146 
L 98.955806 293.16394 
L 102.658527 267.501818 
L 103.399071 262.325278 
L 104.139615 259.922408 
L 104.880159 255.048556 
L 105.620703 255.048556 
L 106.361248 246.772667 
L 107.842336 238.763037 
L 110.804512 226.757662 
L 112.285601 220.426125 
L 113.026145 218.082239 
L 116.728865 209.055495 
L 117.469409 207.470087 
L 118.209954 206.167211 
L 123.393762 199.57675 
L 128.577571 195.000535 
L 133.76138 191.794587 
L 135.242468 191.14241 
L 136.723557 190.378487 
L 138.204645 189.715786 
L 140.426277 188.979487 
L 143.388454 188.075307 
L 148.572263 187.082507 
L 159.680425 185.85429 
L 190.042734 184.689357 
L 212.999602 184.010826 
L 224.107764 183.36426 
L 228.551029 182.822208 
L 243.361911 180.438503 
L 246.324088 179.936528 
L 256.691705 178.006808 
L 261.13497 176.672924 
L 265.578235 174.374581 
L 267.059323 173.205913 
L 269.280956 171.343136 
L 270.0215 170.741565 
L 272.243132 168.135005 
L 276.686397 162.429695 
L 278.908029 159.103476 
L 279.648573 158.370184 
L 281.870206 155.521033 
L 283.351294 153.38639 
L 284.091838 152.543648 
L 284.832382 151.910668 
L 288.535103 147.745714 
L 290.016191 146.5066 
L 294.459456 142.813359 
L 297.421632 141.169655 
L 298.902721 140.325495 
L 304.827074 137.954291 
L 308.529794 136.919942 
L 310.010883 136.427669 
L 312.232515 135.862359 
L 315.194691 135.058385 
L 317.416324 134.599858 
L 319.637956 134.040454 
L 322.600133 133.522974 
L 324.081221 133.008094 
L 327.043397 132.432699 
L 330.746118 131.422173 
L 333.708295 130.806753 
L 336.670471 130.266058 
L 339.632648 129.757529 
L 346.297545 128.700566 
L 348.519177 128.416275 
L 355.924618 127.276952 
L 363.33006 126.237426 
L 369.254413 125.05921 
L 373.697678 124.083949 
L 387.027472 121.127003 
L 393.692369 120.027618 
L 395.914001 119.779471 
L 398.876178 119.38688 
L 413.68706 117.777222 
L 417.389781 117.49725 
L 422.57359 117.186226 
L 429.979031 116.913297 
L 446.271002 116.618808 
L 474.411679 116.283008 
L 474.411679 116.283008 
" style="fill:none;stroke:#9467bd;stroke-linecap:square;stroke-width:1.5;"/>
   </g>
   <g id="line2d_67">
    <path clip-path="url(#p4a9701d33e)" d="M 92.290909 368.437976 
L 93.031453 364.875667 
L 93.771997 360.450421 
L 95.253086 356.999563 
L 95.99363 354.484437 
L 96.734174 351.535349 
L 98.215262 348.714645 
L 99.69635 345.668175 
L 100.436894 344.076598 
L 101.177439 341.181712 
L 101.917983 339.187966 
L 102.658527 335.528564 
L 104.139615 331.294801 
L 104.880159 330.872969 
L 105.620703 327.825313 
L 106.361248 325.566448 
L 107.101792 325.566448 
L 109.323424 319.102136 
L 110.063968 319.501602 
L 110.804512 318.023528 
L 111.545056 317.727961 
L 113.026145 315.829871 
L 113.766689 314.769267 
L 114.507233 312.976355 
L 115.247777 312.075576 
L 115.988321 310.745592 
L 116.728865 308.579081 
L 118.209954 305.821391 
L 118.950498 302.436164 
L 119.691042 300.126466 
L 120.431586 300.126466 
L 121.17213 299.044685 
L 121.912674 296.456162 
L 122.653218 293.230449 
L 123.393762 292.097146 
L 124.134307 287.779578 
L 124.874851 287.779578 
L 125.615395 284.173173 
L 126.355939 282.589979 
L 127.837027 278.364352 
L 128.577571 274.336503 
L 129.318115 272.380289 
L 130.05866 269.611033 
L 130.799204 267.517918 
L 131.539748 266.648256 
L 133.020836 263.782254 
L 133.76138 260.784618 
L 135.242468 258.453119 
L 135.983013 258.453119 
L 137.464101 256.930927 
L 138.204645 255.228298 
L 139.685733 253.627092 
L 140.426277 253.253268 
L 141.166821 252.027929 
L 141.907366 252.737882 
L 143.388454 252.137206 
L 144.869542 251.336963 
L 145.610086 250.843589 
L 147.091175 250.251065 
L 147.831719 250.251065 
L 148.572263 249.904976 
L 154.496616 248.816742 
L 175.972395 247.271198 
L 178.934572 246.948063 
L 184.858925 246.247546 
L 188.561646 245.522433 
L 190.042734 244.967844 
L 190.783278 244.806437 
L 192.264366 244.216183 
L 194.485999 243.511014 
L 196.707631 242.179393 
L 197.448175 241.728418 
L 198.929263 241.089302 
L 199.669808 240.324113 
L 200.410352 239.980342 
L 201.150896 239.388005 
L 201.89144 238.572905 
L 202.631984 238.101801 
L 203.372528 237.860472 
L 207.815793 233.763698 
L 208.556337 233.306526 
L 209.296881 232.575433 
L 210.037425 231.65762 
L 210.777969 230.436549 
L 211.518514 229.711461 
L 212.259058 228.704518 
L 212.999602 227.894618 
L 214.48069 226.57785 
L 216.702322 224.168379 
L 218.183411 222.652313 
L 221.145587 220.921748 
L 222.626676 219.782285 
L 223.36722 219.345195 
L 224.848308 218.69296 
L 227.810484 216.992496 
L 233.734837 214.782117 
L 235.215926 214.412976 
L 238.918646 213.437611 
L 240.399735 213.173042 
L 249.286264 211.165371 
L 252.988985 210.598673 
L 254.470073 210.269426 
L 255.951161 210.029171 
L 259.653882 209.262781 
L 261.13497 209.043971 
L 268.540411 207.580217 
L 270.0215 207.309924 
L 271.502588 207.107561 
L 282.61075 204.697537 
L 287.054015 203.244714 
L 292.978368 200.605943 
L 295.940544 198.836196 
L 298.162177 198.011812 
L 301.124353 196.383348 
L 302.605441 195.832813 
L 306.308162 194.025792 
L 307.78925 193.496247 
L 311.491971 191.574497 
L 312.973059 191.040039 
L 316.67578 189.244262 
L 318.156868 188.718566 
L 320.3785 187.487599 
L 321.859589 186.743 
L 322.600133 186.489822 
L 327.043397 184.311445 
L 327.783942 183.991149 
L 329.26503 182.972933 
L 331.486662 180.938977 
L 332.96775 180.032182 
L 334.448839 179.206709 
L 337.411015 177.21811 
L 342.594824 174.818076 
L 344.075912 174.39076 
L 347.038089 173.456497 
L 351.481354 172.592736 
L 353.702986 172.291375 
L 361.848971 171.391383 
L 368.513869 170.870817 
L 372.957133 170.568165 
L 375.178766 170.378097 
L 387.768016 169.15469 
L 395.914001 167.913858 
L 404.059987 165.972643 
L 408.503251 164.784137 
L 409.98434 164.352523 
L 412.205972 163.854913 
L 412.946516 163.533553 
L 418.870869 161.982554 
L 420.351958 161.465808 
L 421.833046 161.054714 
L 424.054678 160.332735 
L 425.535766 159.927508 
L 427.016855 159.619683 
L 429.979031 158.88544 
L 435.903384 157.926434 
L 438.865561 157.599988 
L 444.04937 157.144378 
L 450.714267 156.716013 
L 464.044061 155.891999 
L 470.708958 155.23071 
L 475.892767 154.459966 
L 475.892767 154.459966 
" style="fill:none;stroke:#8c564b;stroke-linecap:square;stroke-width:1.5;"/>
   </g>
   <g id="line2d_68">
    <path clip-path="url(#p4a9701d33e)" d="M 92.290909 368.665147 
L 93.771997 334.804924 
L 95.253086 319.272513 
L 95.99363 315.487239 
L 96.734174 309.429639 
L 97.474718 301.434017 
L 98.955806 287.696534 
L 101.177439 275.861152 
L 103.399071 270.162675 
L 104.139615 268.602024 
L 104.880159 267.698985 
L 105.620703 267.172569 
L 106.361248 267.06172 
L 107.101792 266.309119 
L 109.323424 265.31691 
L 112.285601 264.375797 
L 113.026145 263.950725 
L 113.766689 263.710808 
L 114.507233 263.310862 
L 115.988321 262.877771 
L 117.469409 262.416038 
L 123.393762 260.330554 
L 126.355939 259.608717 
L 130.05866 259.160536 
L 134.501924 258.812004 
L 139.685733 258.627453 
L 152.274983 258.149453 
L 158.939881 257.749092 
L 163.383145 257.445815 
L 164.864234 257.158851 
L 180.41566 255.3476 
L 181.896749 255.126787 
L 183.377837 255.006685 
L 196.707631 253.373673 
L 206.334705 252.321591 
L 207.815793 252.032961 
L 215.221234 251.525064 
L 221.886131 250.849973 
L 222.626676 250.586484 
L 223.36722 250.150117 
L 224.848308 249.473316 
L 227.810484 247.67407 
L 228.551029 247.126129 
L 230.772661 245.973027 
L 232.253749 244.940452 
L 233.734837 244.178795 
L 236.697014 243.066455 
L 238.918646 242.461322 
L 241.880823 241.835174 
L 244.102455 241.367068 
L 252.988985 240.035943 
L 261.13497 239.255419 
L 263.356603 239.024434 
L 272.983676 238.01148 
L 274.464764 237.796837 
L 276.686397 237.55128 
L 285.572926 236.322094 
L 289.275647 235.718756 
L 292.978368 234.744987 
L 298.902721 232.426589 
L 300.383809 231.662598 
L 304.827074 229.647342 
L 310.010883 226.90215 
L 312.232515 225.38156 
L 313.713603 224.336 
L 317.416324 221.787916 
L 318.897412 220.886034 
L 320.3785 219.903768 
L 321.859589 219.00974 
L 323.340677 218.248607 
L 325.562309 217.048925 
L 330.005574 215.230664 
L 332.96775 214.381699 
L 338.151559 213.17141 
L 358.146251 209.885778 
L 360.367883 209.485304 
L 362.589516 209.034646 
L 369.254413 208.105152 
L 374.438222 207.381684 
L 389.249104 205.198687 
L 392.211281 204.763642 
L 403.319443 202.755191 
L 415.168149 200.651552 
L 419.611413 199.985823 
L 445.530458 196.398319 
L 456.63862 195.197502 
L 459.600796 194.794952 
L 464.784605 193.864454 
L 476.633311 190.914322 
L 476.633311 190.914322 
" style="fill:none;stroke:#e377c2;stroke-linecap:square;stroke-width:1.5;"/>
   </g>
   <g id="line2d_69">
    <path clip-path="url(#p4a9701d33e)" d="M 92.290909 366.485716 
L 93.031453 360.450421 
L 93.771997 353.260499 
L 94.512541 347.5611 
L 96.734174 334.532371 
L 97.474718 331.628154 
L 98.955806 319.073858 
L 101.177439 304.777397 
L 101.917983 300.511225 
L 102.658527 294.783479 
L 103.399071 290.688405 
L 104.139615 284.872015 
L 104.880159 281.157239 
L 106.361248 274.949637 
L 110.063968 256.110124 
L 111.545056 249.459764 
L 113.766689 239.010859 
L 115.988321 229.348022 
L 116.728865 225.728564 
L 117.469409 223.474698 
L 118.209954 220.790007 
L 118.950498 218.543916 
L 120.431586 214.551294 
L 122.653218 208.878044 
L 124.134307 205.755264 
L 125.615395 202.412084 
L 127.837027 196.747733 
L 130.05866 192.036158 
L 132.280292 188.034515 
L 133.76138 185.609243 
L 135.983013 182.670989 
L 138.945189 179.536739 
L 142.64791 176.249982 
L 144.869542 174.509899 
L 150.053351 170.891428 
L 153.756072 168.571106 
L 158.199336 166.100014 
L 161.902057 164.366262 
L 165.604778 162.839467 
L 170.048042 161.289644 
L 178.194028 158.767384 
L 184.118381 157.145795 
L 191.523822 155.445465 
L 199.669808 153.831712 
L 208.556337 152.302008 
L 235.95647 147.710046 
L 241.140279 146.444513 
L 246.324088 144.874804 
L 254.470073 142.066078 
L 260.394426 139.96558 
L 270.762044 136.150113 
L 284.091838 131.157006 
L 299.643265 125.853138 
L 308.529794 123.31088 
L 319.637956 120.855282 
L 326.302853 119.676949 
L 332.96775 118.695596 
L 340.373192 117.80222 
L 350.74081 116.827555 
L 366.292236 115.691437 
L 412.946516 112.971189 
L 425.535766 112.235853 
L 432.941208 111.562367 
L 440.346649 110.700153 
L 457.379164 108.406903 
L 457.379164 108.406903 
" style="fill:none;stroke:#7f7f7f;stroke-linecap:square;stroke-width:1.5;"/>
   </g>
   <g id="line2d_70">
    <path clip-path="url(#p4a9701d33e)" d="M 92.290909 369.36 
L 93.031453 358.29083 
L 94.512541 348.034951 
L 95.99363 331.389568 
L 96.734174 327.101012 
L 97.474718 319.820253 
L 98.215262 315.879225 
L 98.955806 314.418263 
L 101.177439 309.093174 
L 102.658527 303.205687 
L 103.399071 301.474378 
L 104.139615 299.313617 
L 104.880159 297.94034 
L 107.101792 290.155869 
L 107.842336 288.314954 
L 108.58288 285.557596 
L 109.323424 283.876188 
L 110.804512 279.574783 
L 113.026145 271.887337 
L 114.507233 269.3243 
L 115.247777 268.052136 
L 115.988321 266.499673 
L 117.469409 262.405648 
L 118.209954 261.033325 
L 118.950498 259.91773 
L 119.691042 259.153742 
L 122.653218 254.900436 
L 124.134307 252.589717 
L 124.874851 251.641945 
L 125.615395 251.003697 
L 126.355939 250.143919 
L 129.318115 246.087677 
L 130.05866 245.490573 
L 130.799204 245.129102 
L 133.020836 242.556797 
L 133.76138 242.079904 
L 134.501924 241.467908 
L 135.242468 241.216607 
L 136.723557 240.279079 
L 138.945189 238.271263 
L 139.685733 237.662748 
L 141.907366 236.456633 
L 144.128998 234.829366 
L 145.610086 234.080532 
L 146.35063 233.896957 
L 147.091175 233.569441 
L 148.572263 232.534076 
L 149.312807 232.068638 
L 152.274983 230.916915 
L 155.23716 229.142448 
L 157.458792 228.216624 
L 158.199336 226.892257 
L 160.420969 225.162564 
L 161.161513 224.710897 
L 161.902057 224.497975 
L 163.383145 223.629868 
L 164.864234 222.217375 
L 165.604778 221.62891 
L 167.085866 220.961595 
L 168.566954 219.994094 
L 169.307498 219.358323 
L 171.529131 219.358323 
L 172.269675 218.165076 
L 173.010219 217.409841 
L 175.231851 215.788588 
L 176.71294 215.788588 
L 177.453484 214.883988 
L 178.194028 214.610524 
L 179.675116 213.863591 
L 180.41566 213.602898 
L 181.896749 213.602898 
L 182.637293 213.06329 
L 184.118381 212.805729 
L 185.599469 212.473789 
L 187.080557 212.473789 
L 187.821102 212.181464 
L 189.30219 211.973867 
L 190.783278 211.730257 
L 192.264366 211.730257 
L 193.00491 211.495812 
L 195.226543 211.279327 
L 196.707631 211.208904 
L 197.448175 211.208904 
L 198.929263 211.06002 
L 201.89144 210.784499 
L 202.631984 210.784499 
L 203.372528 210.610977 
L 204.853616 210.456758 
L 206.334705 210.229887 
L 207.815793 210.229887 
L 208.556337 210.043472 
L 210.037425 209.905681 
L 212.259058 209.668216 
L 212.999602 209.668216 
L 213.740146 209.457654 
L 218.183411 209.173801 
L 218.923955 208.994372 
L 220.405043 208.898483 
L 221.145587 209.780001 
L 225.588852 209.601284 
L 233.734837 209.053574 
L 234.475382 209.053574 
L 235.215926 208.824169 
L 238.918646 208.582966 
L 239.65919 208.582966 
L 240.399735 208.262561 
L 241.880823 208.037221 
L 242.621367 207.87111 
L 244.842999 207.87111 
L 245.583543 207.471627 
L 247.064632 207.178458 
L 247.805176 207.009667 
L 250.026808 207.009667 
L 250.767352 206.545411 
L 252.248441 206.205394 
L 252.988985 205.982758 
L 255.210617 205.982758 
L 255.951161 205.457413 
L 257.43225 205.047529 
L 258.172794 204.864411 
L 260.394426 204.864411 
L 261.13497 204.143958 
L 261.875514 203.927374 
L 263.356603 203.221735 
L 265.578235 203.221735 
L 266.318779 202.132841 
L 267.059323 201.700503 
L 268.540411 200.43774 
L 270.762044 200.43774 
L 271.502588 198.57038 
L 272.983676 197.327361 
L 273.72422 196.553573 
L 275.945853 196.553573 
L 276.686397 194.124645 
L 278.167485 192.825662 
L 278.908029 192.010043 
L 281.129662 192.010043 
L 281.870206 190.072317 
L 283.351294 189.032561 
L 284.091838 188.192745 
L 286.31347 188.192745 
L 287.054015 186.302379 
L 288.535103 185.192605 
L 289.275647 184.521803 
L 291.497279 184.521803 
L 292.237823 182.86005 
L 293.718912 181.801986 
L 294.459456 181.262323 
L 296.681088 181.262323 
L 297.421632 179.712219 
L 299.643265 177.992713 
L 301.864897 177.992713 
L 302.605441 176.489069 
L 304.08653 175.371604 
L 304.827074 174.738991 
L 307.048706 174.738991 
L 307.78925 173.337944 
L 308.529794 172.938458 
L 312.232515 172.938458 
L 312.973059 171.067048 
L 313.713603 170.582002 
L 317.416324 170.582002 
L 318.156868 168.887117 
L 318.897412 168.887117 
L 319.637956 168.261905 
L 320.3785 167.910754 
L 322.600133 167.910754 
L 323.340677 167.08175 
L 325.562309 166.31584 
L 327.783942 166.31584 
L 328.524486 165.876471 
L 330.746118 165.265575 
L 332.96775 165.265575 
L 333.708295 164.873031 
L 335.929927 164.422094 
L 338.151559 164.422094 
L 338.892104 164.021479 
L 341.113736 163.554455 
L 343.335368 163.554455 
L 344.075912 163.229225 
L 346.297545 162.746891 
L 348.519177 162.746891 
L 349.259721 162.380696 
L 351.481354 161.875232 
L 353.702986 161.875232 
L 354.44353 161.467546 
L 356.665163 160.911772 
L 358.886795 160.911772 
L 359.627339 160.489246 
L 361.848971 159.933538 
L 364.070604 159.933538 
L 364.811148 159.554855 
L 367.03278 158.996889 
L 369.254413 158.996889 
L 369.994957 158.575463 
L 372.216589 157.962131 
L 374.438222 157.962131 
L 375.178766 157.517766 
L 377.400398 156.848518 
L 379.622031 156.848518 
L 380.362575 156.353769 
L 381.843663 155.859807 
L 384.805839 155.859807 
L 385.546384 155.231733 
L 387.768016 154.603065 
L 389.989648 154.603065 
L 390.730192 154.079906 
L 392.951825 153.448338 
L 395.173457 153.448338 
L 395.914001 153.012155 
L 398.135634 152.461562 
L 400.357266 152.461562 
L 401.09781 152.087295 
L 403.319443 151.585848 
L 405.541075 151.585848 
L 406.281619 151.224096 
L 408.503251 150.766553 
L 410.724884 150.766553 
L 411.465428 150.443413 
L 412.205972 150.296776 
L 412.946516 150.296776 
L 413.68706 150.085439 
L 415.908693 150.085439 
L 416.649237 149.857257 
L 418.870869 149.604741 
L 421.092502 149.604741 
L 422.57359 149.408926 
L 425.535766 149.378557 
L 427.757399 149.378557 
L 428.497943 149.190012 
L 435.903384 149.04798 
L 443.308825 148.937327 
L 465.525149 148.757413 
L 465.525149 148.757413 
" style="fill:none;stroke:#bcbd22;stroke-linecap:square;stroke-width:1.5;"/>
   </g>
   <g id="line2d_71">
    <path clip-path="url(#p4a9701d33e)" d="M 92.290909 366.278386 
L 93.031453 357.997751 
L 93.771997 352.439806 
L 94.512541 345.754973 
L 95.99363 337.71778 
L 96.734174 333.420637 
L 97.474718 333.420637 
L 98.215262 320.202439 
L 98.955806 311.741217 
L 99.69635 311.741217 
L 100.436894 304.515764 
L 101.177439 298.95975 
L 101.917983 291.871445 
L 102.658527 291.215675 
L 103.399071 281.942508 
L 104.139615 276.412226 
L 104.880159 273.447578 
L 105.620703 269.688554 
L 109.323424 247.24513 
L 113.766689 228.155185 
L 114.507233 225.937775 
L 115.247777 222.821289 
L 118.209954 215.522218 
L 118.950498 212.566838 
L 120.431586 209.412755 
L 125.615395 201.05328 
L 127.096483 199.352476 
L 131.539748 194.701068 
L 133.020836 193.517774 
L 134.501924 191.832686 
L 135.983013 190.646283 
L 137.464101 189.607637 
L 138.945189 188.229015 
L 140.426277 187.272839 
L 142.64791 186.073942 
L 147.091175 184.078771 
L 147.831719 183.847123 
L 148.572263 183.896429 
L 154.496616 181.988613 
L 157.458792 181.362628 
L 163.383145 180.28935 
L 166.345322 179.864519 
L 169.307498 179.475401 
L 176.71294 178.621785 
L 179.675116 178.374437 
L 180.41566 180.727415 
L 188.561646 180.198841 
L 190.783278 180.002299 
L 207.815793 178.64205 
L 211.518514 178.328659 
L 212.259058 178.32708 
L 212.999602 178.057024 
L 226.329396 176.496031 
L 229.291573 175.906605 
L 238.178102 173.400263 
L 241.880823 171.986822 
L 244.842999 170.574404 
L 245.583543 170.355346 
L 248.54572 168.885954 
L 249.286264 168.243601 
L 250.026808 167.140131 
L 252.248441 165.274774 
L 252.988985 164.525027 
L 256.691705 161.630369 
L 258.172794 160.230111 
L 261.13497 157.966852 
L 265.578235 154.070808 
L 268.540411 151.711654 
L 270.762044 150.064161 
L 272.243132 149.187631 
L 275.205309 147.127054 
L 278.167485 145.460654 
L 279.648573 144.341507 
L 281.129662 143.427525 
L 284.832382 141.688757 
L 287.054015 140.835631 
L 288.535103 140.381048 
L 290.756735 139.658054 
L 294.459456 138.657424 
L 303.345985 135.79588 
L 304.827074 135.04519 
L 307.78925 133.568681 
L 311.491971 131.566013 
L 312.973059 130.802557 
L 318.897412 126.655567 
L 321.859589 124.663152 
L 323.340677 123.881541 
L 327.783942 121.859385 
L 332.227206 120.360278 
L 333.708295 120.020128 
L 335.929927 119.545321 
L 338.151559 119.083619 
L 344.816457 118.137976 
L 354.44353 117.234851 
L 364.070604 116.707658 
L 390.730192 115.842049 
L 434.422296 114.936459 
L 444.04937 114.294058 
L 449.233179 113.627849 
L 458.860252 111.765343 
L 461.081885 111.123616 
L 463.303517 110.499087 
L 466.265693 109.788948 
L 466.265693 109.788948 
" style="fill:none;stroke:#17becf;stroke-linecap:square;stroke-width:1.5;"/>
   </g>
   <g id="line2d_72">
    <path clip-path="url(#p4a9701d33e)" d="M 92.290909 369.36 
L 93.031453 364.875667 
L 93.771997 359.500729 
L 94.512541 350.771265 
L 95.253086 345.324124 
L 95.99363 335.698738 
L 96.734174 329.694832 
L 97.474718 326.864408 
L 98.215262 315.928681 
L 99.69635 302.860593 
L 100.436894 296.445265 
L 101.917983 285.202152 
L 102.658527 278.543054 
L 103.399071 270.79021 
L 104.139615 266.214413 
L 104.880159 252.834862 
L 106.361248 238.038447 
L 107.842336 225.234615 
L 111.545056 200.951624 
L 113.766689 190.573726 
L 116.728865 178.814318 
L 118.950498 172.902222 
L 120.431586 169.281111 
L 121.17213 167.545754 
L 122.653218 164.899974 
L 125.615395 160.523188 
L 127.096483 158.334225 
L 130.05866 155.058261 
L 130.799204 154.258026 
L 132.280292 152.442444 
L 133.76138 151.213772 
L 135.983013 149.33383 
L 137.464101 147.974466 
L 139.685733 146.51552 
L 143.388454 144.168833 
L 145.610086 143.099126 
L 147.831719 141.818589 
L 150.793895 140.494473 
L 153.015528 139.437629 
L 160.420969 136.55411 
L 161.902057 136.025496 
L 163.383145 135.363644 
L 167.085866 134.180055 
L 169.307498 133.365853 
L 171.529131 132.580251 
L 175.231851 130.985794 
L 178.194028 129.412994 
L 181.896749 127.386309 
L 184.118381 126.072789 
L 187.080557 124.335027 
L 193.745455 120.145057 
L 199.669808 116.945595 
L 202.631984 115.563209 
L 204.853616 114.548714 
L 207.815793 113.519741 
L 210.777969 112.459792 
L 219.664499 109.895814 
L 225.588852 108.52248 
L 229.291573 107.772873 
L 231.513205 107.292809 
L 234.475382 106.839986 
L 236.697014 106.38722 
L 239.65919 105.8205 
L 243.361911 105.038903 
L 249.286264 103.898476 
L 259.653882 101.737206 
L 270.762044 98.780862 
L 276.686397 96.591919 
L 278.167485 96.014428 
L 278.908029 95.811643 
L 281.870206 94.373504 
L 284.832382 93.030714 
L 290.756735 90.255653 
L 291.497279 90.049379 
L 292.978368 89.394861 
L 295.2 88.542141 
L 304.08653 84.496853 
L 306.308162 83.576074 
L 308.529794 82.644365 
L 314.454147 80.734223 
L 316.67578 79.995963 
L 319.637956 78.945412 
L 321.119044 78.471082 
L 326.302853 76.591602 
L 330.005574 75.490383 
L 332.96775 74.811304 
L 335.189383 74.342667 
L 341.85428 73.15461 
L 347.038089 72.483584 
L 352.962442 71.932714 
L 366.292236 70.958864 
L 378.140942 70.265045 
L 382.584207 69.944247 
L 410.724884 68.229646 
L 418.130325 67.986592 
L 432.200664 67.70105 
L 465.525149 67.146071 
L 468.487326 66.96 
L 468.487326 66.96 
" style="fill:none;stroke:#1f77b4;stroke-linecap:square;stroke-width:1.5;"/>
   </g>
   <g id="patch_3">
    <path d="M 72 384.48 
L 72 51.84 
" style="fill:none;stroke:#000000;stroke-linecap:square;stroke-linejoin:miter;stroke-width:0.8;"/>
   </g>
   <g id="patch_4">
    <path d="M 518.4 384.48 
L 518.4 51.84 
" style="fill:none;stroke:#000000;stroke-linecap:square;stroke-linejoin:miter;stroke-width:0.8;"/>
   </g>
   <g id="patch_5">
    <path d="M 72 384.48 
L 518.4 384.48 
" style="fill:none;stroke:#000000;stroke-linecap:square;stroke-linejoin:miter;stroke-width:0.8;"/>
   </g>
   <g id="patch_6">
    <path d="M 72 51.84 
L 518.4 51.84 
" style="fill:none;stroke:#000000;stroke-linecap:square;stroke-linejoin:miter;stroke-width:0.8;"/>
   </g>
   <g id="text_15">
    <!-- Confirmed Cases Since Day of More Than 100 Confirmed Cases -->
    <defs>
     <path d="M 53.515625 70.515625 
L 53.515625 60.890625 
Q 47.90625 63.578125 42.921875 64.890625 
Q 37.9375 66.21875 33.296875 66.21875 
Q 25.25 66.21875 20.875 63.09375 
Q 16.5 59.96875 16.5 54.203125 
Q 16.5 49.359375 19.40625 46.890625 
Q 22.3125 44.4375 30.421875 42.921875 
L 36.375 41.703125 
Q 47.40625 39.59375 52.65625 34.296875 
Q 57.90625 29 57.90625 20.125 
Q 57.90625 9.515625 50.796875 4.046875 
Q 43.703125 -1.421875 29.984375 -1.421875 
Q 24.8125 -1.421875 18.96875 -0.25 
Q 13.140625 0.921875 6.890625 3.21875 
L 6.890625 13.375 
Q 12.890625 10.015625 18.65625 8.296875 
Q 24.421875 6.59375 29.984375 6.59375 
Q 38.421875 6.59375 43.015625 9.90625 
Q 47.609375 13.234375 47.609375 19.390625 
Q 47.609375 24.75 44.3125 27.78125 
Q 41.015625 30.8125 33.5 32.328125 
L 27.484375 33.5 
Q 16.453125 35.6875 11.515625 40.375 
Q 6.59375 45.0625 6.59375 53.421875 
Q 6.59375 63.09375 13.40625 68.65625 
Q 20.21875 74.21875 32.171875 74.21875 
Q 37.3125 74.21875 42.625 73.28125 
Q 47.953125 72.359375 53.515625 70.515625 
z
" id="DejaVuSans-83"/>
     <path d="M 48.78125 52.59375 
L 48.78125 44.1875 
Q 44.96875 46.296875 41.140625 47.34375 
Q 37.3125 48.390625 33.40625 48.390625 
Q 24.65625 48.390625 19.8125 42.84375 
Q 14.984375 37.3125 14.984375 27.296875 
Q 14.984375 17.28125 19.8125 11.734375 
Q 24.65625 6.203125 33.40625 6.203125 
Q 37.3125 6.203125 41.140625 7.25 
Q 44.96875 8.296875 48.78125 10.40625 
L 48.78125 2.09375 
Q 45.015625 0.34375 40.984375 -0.53125 
Q 36.96875 -1.421875 32.421875 -1.421875 
Q 20.0625 -1.421875 12.78125 6.34375 
Q 5.515625 14.109375 5.515625 27.296875 
Q 5.515625 40.671875 12.859375 48.328125 
Q 20.21875 56 33.015625 56 
Q 37.15625 56 41.109375 55.140625 
Q 45.0625 54.296875 48.78125 52.59375 
z
" id="DejaVuSans-99"/>
     <path d="M 9.8125 72.90625 
L 24.515625 72.90625 
L 43.109375 23.296875 
L 61.8125 72.90625 
L 76.515625 72.90625 
L 76.515625 0 
L 66.890625 0 
L 66.890625 64.015625 
L 48.09375 14.015625 
L 38.1875 14.015625 
L 19.390625 64.015625 
L 19.390625 0 
L 9.8125 0 
z
" id="DejaVuSans-77"/>
     <path d="M -0.296875 72.90625 
L 61.375 72.90625 
L 61.375 64.59375 
L 35.5 64.59375 
L 35.5 0 
L 25.59375 0 
L 25.59375 64.59375 
L -0.296875 64.59375 
z
" id="DejaVuSans-84"/>
     <path d="M 54.890625 33.015625 
L 54.890625 0 
L 45.90625 0 
L 45.90625 32.71875 
Q 45.90625 40.484375 42.875 44.328125 
Q 39.84375 48.1875 33.796875 48.1875 
Q 26.515625 48.1875 22.3125 43.546875 
Q 18.109375 38.921875 18.109375 30.90625 
L 18.109375 0 
L 9.078125 0 
L 9.078125 75.984375 
L 18.109375 75.984375 
L 18.109375 46.1875 
Q 21.34375 51.125 25.703125 53.5625 
Q 30.078125 56 35.796875 56 
Q 45.21875 56 50.046875 50.171875 
Q 54.890625 44.34375 54.890625 33.015625 
z
" id="DejaVuSans-104"/>
    </defs>
    <g transform="translate(104.948437 45.84)scale(0.12 -0.12)">
     <use xlink:href="#DejaVuSans-67"/>
     <use x="69.824219" xlink:href="#DejaVuSans-111"/>
     <use x="131.005859" xlink:href="#DejaVuSans-110"/>
     <use x="194.384766" xlink:href="#DejaVuSans-102"/>
     <use x="229.589844" xlink:href="#DejaVuSans-105"/>
     <use x="257.373047" xlink:href="#DejaVuSans-114"/>
     <use x="296.736328" xlink:href="#DejaVuSans-109"/>
     <use x="394.148438" xlink:href="#DejaVuSans-101"/>
     <use x="455.671875" xlink:href="#DejaVuSans-100"/>
     <use x="519.148438" xlink:href="#DejaVuSans-32"/>
     <use x="550.935547" xlink:href="#DejaVuSans-67"/>
     <use x="620.759766" xlink:href="#DejaVuSans-97"/>
     <use x="682.039062" xlink:href="#DejaVuSans-115"/>
     <use x="734.138672" xlink:href="#DejaVuSans-101"/>
     <use x="795.662109" xlink:href="#DejaVuSans-115"/>
     <use x="847.761719" xlink:href="#DejaVuSans-32"/>
     <use x="879.548828" xlink:href="#DejaVuSans-83"/>
     <use x="943.025391" xlink:href="#DejaVuSans-105"/>
     <use x="970.808594" xlink:href="#DejaVuSans-110"/>
     <use x="1034.1875" xlink:href="#DejaVuSans-99"/>
     <use x="1089.167969" xlink:href="#DejaVuSans-101"/>
     <use x="1150.691406" xlink:href="#DejaVuSans-32"/>
     <use x="1182.478516" xlink:href="#DejaVuSans-68"/>
     <use x="1259.480469" xlink:href="#DejaVuSans-97"/>
     <use x="1320.759766" xlink:href="#DejaVuSans-121"/>
     <use x="1379.939453" xlink:href="#DejaVuSans-32"/>
     <use x="1411.726562" xlink:href="#DejaVuSans-111"/>
     <use x="1472.908203" xlink:href="#DejaVuSans-102"/>
     <use x="1508.113281" xlink:href="#DejaVuSans-32"/>
     <use x="1539.900391" xlink:href="#DejaVuSans-77"/>
     <use x="1626.179688" xlink:href="#DejaVuSans-111"/>
     <use x="1687.361328" xlink:href="#DejaVuSans-114"/>
     <use x="1726.224609" xlink:href="#DejaVuSans-101"/>
     <use x="1787.748047" xlink:href="#DejaVuSans-32"/>
     <use x="1819.535156" xlink:href="#DejaVuSans-84"/>
     <use x="1880.619141" xlink:href="#DejaVuSans-104"/>
     <use x="1943.998047" xlink:href="#DejaVuSans-97"/>
     <use x="2005.277344" xlink:href="#DejaVuSans-110"/>
     <use x="2068.65625" xlink:href="#DejaVuSans-32"/>
     <use x="2100.443359" xlink:href="#DejaVuSans-49"/>
     <use x="2164.066406" xlink:href="#DejaVuSans-48"/>
     <use x="2227.689453" xlink:href="#DejaVuSans-48"/>
     <use x="2291.3125" xlink:href="#DejaVuSans-32"/>
     <use x="2323.099609" xlink:href="#DejaVuSans-67"/>
     <use x="2392.923828" xlink:href="#DejaVuSans-111"/>
     <use x="2454.105469" xlink:href="#DejaVuSans-110"/>
     <use x="2517.484375" xlink:href="#DejaVuSans-102"/>
     <use x="2552.689453" xlink:href="#DejaVuSans-105"/>
     <use x="2580.472656" xlink:href="#DejaVuSans-114"/>
     <use x="2619.835938" xlink:href="#DejaVuSans-109"/>
     <use x="2717.248047" xlink:href="#DejaVuSans-101"/>
     <use x="2778.771484" xlink:href="#DejaVuSans-100"/>
     <use x="2842.248047" xlink:href="#DejaVuSans-32"/>
     <use x="2874.035156" xlink:href="#DejaVuSans-67"/>
     <use x="2943.859375" xlink:href="#DejaVuSans-97"/>
     <use x="3005.138672" xlink:href="#DejaVuSans-115"/>
     <use x="3057.238281" xlink:href="#DejaVuSans-101"/>
     <use x="3118.761719" xlink:href="#DejaVuSans-115"/>
    </g>
   </g>
   <g id="legend_1">
    <g id="patch_7">
     <path d="M 383.8 379.48 
L 511.4 379.48 
Q 513.4 379.48 513.4 377.48 
L 513.4 217.020625 
Q 513.4 215.020625 511.4 215.020625 
L 383.8 215.020625 
Q 381.8 215.020625 381.8 217.020625 
L 381.8 377.48 
Q 381.8 379.48 383.8 379.48 
z
" style="fill:#ffffff;opacity:0.8;stroke:#cccccc;stroke-linejoin:miter;"/>
    </g>
    <g id="line2d_73">
     <path d="M 385.8 223.119063 
L 405.8 223.119063 
" style="fill:none;stroke:#1f77b4;stroke-linecap:square;stroke-width:1.5;"/>
    </g>
    <g id="line2d_74"/>
    <g id="text_16">
     <!-- China -->
     <g transform="translate(413.8 226.619063)scale(0.1 -0.1)">
      <use xlink:href="#DejaVuSans-67"/>
      <use x="69.824219" xlink:href="#DejaVuSans-104"/>
      <use x="133.203125" xlink:href="#DejaVuSans-105"/>
      <use x="160.986328" xlink:href="#DejaVuSans-110"/>
      <use x="224.365234" xlink:href="#DejaVuSans-97"/>
     </g>
    </g>
    <g id="line2d_75">
     <path d="M 385.8 237.797188 
L 405.8 237.797188 
" style="fill:none;stroke:#ff7f0e;stroke-linecap:square;stroke-width:1.5;"/>
    </g>
    <g id="line2d_76"/>
    <g id="text_17">
     <!-- European Union 27 -->
     <defs>
      <path d="M 9.8125 72.90625 
L 55.90625 72.90625 
L 55.90625 64.59375 
L 19.671875 64.59375 
L 19.671875 43.015625 
L 54.390625 43.015625 
L 54.390625 34.71875 
L 19.671875 34.71875 
L 19.671875 8.296875 
L 56.78125 8.296875 
L 56.78125 0 
L 9.8125 0 
z
" id="DejaVuSans-69"/>
      <path d="M 8.5 21.578125 
L 8.5 54.6875 
L 17.484375 54.6875 
L 17.484375 21.921875 
Q 17.484375 14.15625 20.5 10.265625 
Q 23.53125 6.390625 29.59375 6.390625 
Q 36.859375 6.390625 41.078125 11.03125 
Q 45.3125 15.671875 45.3125 23.6875 
L 45.3125 54.6875 
L 54.296875 54.6875 
L 54.296875 0 
L 45.3125 0 
L 45.3125 8.40625 
Q 42.046875 3.421875 37.71875 1 
Q 33.40625 -1.421875 27.6875 -1.421875 
Q 18.265625 -1.421875 13.375 4.4375 
Q 8.5 10.296875 8.5 21.578125 
z
M 31.109375 56 
z
" id="DejaVuSans-117"/>
      <path d="M 18.109375 8.203125 
L 18.109375 -20.796875 
L 9.078125 -20.796875 
L 9.078125 54.6875 
L 18.109375 54.6875 
L 18.109375 46.390625 
Q 20.953125 51.265625 25.265625 53.625 
Q 29.59375 56 35.59375 56 
Q 45.5625 56 51.78125 48.09375 
Q 58.015625 40.1875 58.015625 27.296875 
Q 58.015625 14.40625 51.78125 6.484375 
Q 45.5625 -1.421875 35.59375 -1.421875 
Q 29.59375 -1.421875 25.265625 0.953125 
Q 20.953125 3.328125 18.109375 8.203125 
z
M 48.6875 27.296875 
Q 48.6875 37.203125 44.609375 42.84375 
Q 40.53125 48.484375 33.40625 48.484375 
Q 26.265625 48.484375 22.1875 42.84375 
Q 18.109375 37.203125 18.109375 27.296875 
Q 18.109375 17.390625 22.1875 11.75 
Q 26.265625 6.109375 33.40625 6.109375 
Q 40.53125 6.109375 44.609375 11.75 
Q 48.6875 17.390625 48.6875 27.296875 
z
" id="DejaVuSans-112"/>
      <path d="M 8.6875 72.90625 
L 18.609375 72.90625 
L 18.609375 28.609375 
Q 18.609375 16.890625 22.84375 11.734375 
Q 27.09375 6.59375 36.625 6.59375 
Q 46.09375 6.59375 50.34375 11.734375 
Q 54.59375 16.890625 54.59375 28.609375 
L 54.59375 72.90625 
L 64.5 72.90625 
L 64.5 27.390625 
Q 64.5 13.140625 57.4375 5.859375 
Q 50.390625 -1.421875 36.625 -1.421875 
Q 22.796875 -1.421875 15.734375 5.859375 
Q 8.6875 13.140625 8.6875 27.390625 
z
" id="DejaVuSans-85"/>
      <path d="M 8.203125 72.90625 
L 55.078125 72.90625 
L 55.078125 68.703125 
L 28.609375 0 
L 18.3125 0 
L 43.21875 64.59375 
L 8.203125 64.59375 
z
" id="DejaVuSans-55"/>
     </defs>
     <g transform="translate(413.8 241.297188)scale(0.1 -0.1)">
      <use xlink:href="#DejaVuSans-69"/>
      <use x="63.183594" xlink:href="#DejaVuSans-117"/>
      <use x="126.5625" xlink:href="#DejaVuSans-114"/>
      <use x="165.425781" xlink:href="#DejaVuSans-111"/>
      <use x="226.607422" xlink:href="#DejaVuSans-112"/>
      <use x="290.083984" xlink:href="#DejaVuSans-101"/>
      <use x="351.607422" xlink:href="#DejaVuSans-97"/>
      <use x="412.886719" xlink:href="#DejaVuSans-110"/>
      <use x="476.265625" xlink:href="#DejaVuSans-32"/>
      <use x="508.052734" xlink:href="#DejaVuSans-85"/>
      <use x="581.246094" xlink:href="#DejaVuSans-110"/>
      <use x="644.625" xlink:href="#DejaVuSans-105"/>
      <use x="672.408203" xlink:href="#DejaVuSans-111"/>
      <use x="733.589844" xlink:href="#DejaVuSans-110"/>
      <use x="796.96875" xlink:href="#DejaVuSans-32"/>
      <use x="828.755859" xlink:href="#DejaVuSans-50"/>
      <use x="892.378906" xlink:href="#DejaVuSans-55"/>
     </g>
    </g>
    <g id="line2d_77">
     <path d="M 385.8 252.475313 
L 405.8 252.475313 
" style="fill:none;stroke:#2ca02c;stroke-linecap:square;stroke-width:1.5;"/>
    </g>
    <g id="line2d_78"/>
    <g id="text_18">
     <!-- France -->
     <defs>
      <path d="M 9.8125 72.90625 
L 51.703125 72.90625 
L 51.703125 64.59375 
L 19.671875 64.59375 
L 19.671875 43.109375 
L 48.578125 43.109375 
L 48.578125 34.8125 
L 19.671875 34.8125 
L 19.671875 0 
L 9.8125 0 
z
" id="DejaVuSans-70"/>
     </defs>
     <g transform="translate(413.8 255.975313)scale(0.1 -0.1)">
      <use xlink:href="#DejaVuSans-70"/>
      <use x="50.269531" xlink:href="#DejaVuSans-114"/>
      <use x="91.382812" xlink:href="#DejaVuSans-97"/>
      <use x="152.662109" xlink:href="#DejaVuSans-110"/>
      <use x="216.041016" xlink:href="#DejaVuSans-99"/>
      <use x="271.021484" xlink:href="#DejaVuSans-101"/>
     </g>
    </g>
    <g id="line2d_79">
     <path d="M 385.8 267.153438 
L 405.8 267.153438 
" style="fill:none;stroke:#d62728;stroke-linecap:square;stroke-width:1.5;"/>
    </g>
    <g id="line2d_80"/>
    <g id="text_19">
     <!-- Germany -->
     <defs>
      <path d="M 59.515625 10.40625 
L 59.515625 29.984375 
L 43.40625 29.984375 
L 43.40625 38.09375 
L 69.28125 38.09375 
L 69.28125 6.78125 
Q 63.578125 2.734375 56.6875 0.65625 
Q 49.8125 -1.421875 42 -1.421875 
Q 24.90625 -1.421875 15.25 8.5625 
Q 5.609375 18.5625 5.609375 36.375 
Q 5.609375 54.25 15.25 64.234375 
Q 24.90625 74.21875 42 74.21875 
Q 49.125 74.21875 55.546875 72.453125 
Q 61.96875 70.703125 67.390625 67.28125 
L 67.390625 56.78125 
Q 61.921875 61.421875 55.765625 63.765625 
Q 49.609375 66.109375 42.828125 66.109375 
Q 29.4375 66.109375 22.71875 58.640625 
Q 16.015625 51.171875 16.015625 36.375 
Q 16.015625 21.625 22.71875 14.15625 
Q 29.4375 6.6875 42.828125 6.6875 
Q 48.046875 6.6875 52.140625 7.59375 
Q 56.25 8.5 59.515625 10.40625 
z
" id="DejaVuSans-71"/>
     </defs>
     <g transform="translate(413.8 270.653438)scale(0.1 -0.1)">
      <use xlink:href="#DejaVuSans-71"/>
      <use x="77.490234" xlink:href="#DejaVuSans-101"/>
      <use x="139.013672" xlink:href="#DejaVuSans-114"/>
      <use x="178.376953" xlink:href="#DejaVuSans-109"/>
      <use x="275.789062" xlink:href="#DejaVuSans-97"/>
      <use x="337.068359" xlink:href="#DejaVuSans-110"/>
      <use x="400.447266" xlink:href="#DejaVuSans-121"/>
     </g>
    </g>
    <g id="line2d_81">
     <path d="M 385.8 281.831563 
L 405.8 281.831563 
" style="fill:none;stroke:#9467bd;stroke-linecap:square;stroke-width:1.5;"/>
    </g>
    <g id="line2d_82"/>
    <g id="text_20">
     <!-- Italy -->
     <defs>
      <path d="M 9.8125 72.90625 
L 19.671875 72.90625 
L 19.671875 0 
L 9.8125 0 
z
" id="DejaVuSans-73"/>
      <path d="M 18.3125 70.21875 
L 18.3125 54.6875 
L 36.8125 54.6875 
L 36.8125 47.703125 
L 18.3125 47.703125 
L 18.3125 18.015625 
Q 18.3125 11.328125 20.140625 9.421875 
Q 21.96875 7.515625 27.59375 7.515625 
L 36.8125 7.515625 
L 36.8125 0 
L 27.59375 0 
Q 17.1875 0 13.234375 3.875 
Q 9.28125 7.765625 9.28125 18.015625 
L 9.28125 47.703125 
L 2.6875 47.703125 
L 2.6875 54.6875 
L 9.28125 54.6875 
L 9.28125 70.21875 
z
" id="DejaVuSans-116"/>
      <path d="M 9.421875 75.984375 
L 18.40625 75.984375 
L 18.40625 0 
L 9.421875 0 
z
" id="DejaVuSans-108"/>
     </defs>
     <g transform="translate(413.8 285.331563)scale(0.1 -0.1)">
      <use xlink:href="#DejaVuSans-73"/>
      <use x="29.492188" xlink:href="#DejaVuSans-116"/>
      <use x="68.701172" xlink:href="#DejaVuSans-97"/>
      <use x="129.980469" xlink:href="#DejaVuSans-108"/>
      <use x="157.763672" xlink:href="#DejaVuSans-121"/>
     </g>
    </g>
    <g id="line2d_83">
     <path d="M 385.8 296.509688 
L 405.8 296.509688 
" style="fill:none;stroke:#8c564b;stroke-linecap:square;stroke-width:1.5;"/>
    </g>
    <g id="line2d_84"/>
    <g id="text_21">
     <!-- Japan -->
     <defs>
      <path d="M 9.8125 72.90625 
L 19.671875 72.90625 
L 19.671875 5.078125 
Q 19.671875 -8.109375 14.671875 -14.0625 
Q 9.671875 -20.015625 -1.421875 -20.015625 
L -5.171875 -20.015625 
L -5.171875 -11.71875 
L -2.09375 -11.71875 
Q 4.4375 -11.71875 7.125 -8.046875 
Q 9.8125 -4.390625 9.8125 5.078125 
z
" id="DejaVuSans-74"/>
     </defs>
     <g transform="translate(413.8 300.009688)scale(0.1 -0.1)">
      <use xlink:href="#DejaVuSans-74"/>
      <use x="29.492188" xlink:href="#DejaVuSans-97"/>
      <use x="90.771484" xlink:href="#DejaVuSans-112"/>
      <use x="154.248047" xlink:href="#DejaVuSans-97"/>
      <use x="215.527344" xlink:href="#DejaVuSans-110"/>
     </g>
    </g>
    <g id="line2d_85">
     <path d="M 385.8 311.187813 
L 405.8 311.187813 
" style="fill:none;stroke:#e377c2;stroke-linecap:square;stroke-width:1.5;"/>
    </g>
    <g id="line2d_86"/>
    <g id="text_22">
     <!-- Korea,South -->
     <defs>
      <path d="M 9.8125 72.90625 
L 19.671875 72.90625 
L 19.671875 42.09375 
L 52.390625 72.90625 
L 65.09375 72.90625 
L 28.90625 38.921875 
L 67.671875 0 
L 54.6875 0 
L 19.671875 35.109375 
L 19.671875 0 
L 9.8125 0 
z
" id="DejaVuSans-75"/>
     </defs>
     <g transform="translate(413.8 314.687813)scale(0.1 -0.1)">
      <use xlink:href="#DejaVuSans-75"/>
      <use x="60.576172" xlink:href="#DejaVuSans-111"/>
      <use x="121.757812" xlink:href="#DejaVuSans-114"/>
      <use x="160.621094" xlink:href="#DejaVuSans-101"/>
      <use x="222.144531" xlink:href="#DejaVuSans-97"/>
      <use x="283.423828" xlink:href="#DejaVuSans-44"/>
      <use x="315.210938" xlink:href="#DejaVuSans-83"/>
      <use x="378.6875" xlink:href="#DejaVuSans-111"/>
      <use x="439.869141" xlink:href="#DejaVuSans-117"/>
      <use x="503.248047" xlink:href="#DejaVuSans-116"/>
      <use x="542.457031" xlink:href="#DejaVuSans-104"/>
     </g>
    </g>
    <g id="line2d_87">
     <path d="M 385.8 325.865938 
L 405.8 325.865938 
" style="fill:none;stroke:#7f7f7f;stroke-linecap:square;stroke-width:1.5;"/>
    </g>
    <g id="line2d_88"/>
    <g id="text_23">
     <!-- Russia -->
     <defs>
      <path d="M 44.390625 34.1875 
Q 47.5625 33.109375 50.5625 29.59375 
Q 53.5625 26.078125 56.59375 19.921875 
L 66.609375 0 
L 56 0 
L 46.6875 18.703125 
Q 43.0625 26.03125 39.671875 28.421875 
Q 36.28125 30.8125 30.421875 30.8125 
L 19.671875 30.8125 
L 19.671875 0 
L 9.8125 0 
L 9.8125 72.90625 
L 32.078125 72.90625 
Q 44.578125 72.90625 50.734375 67.671875 
Q 56.890625 62.453125 56.890625 51.90625 
Q 56.890625 45.015625 53.6875 40.46875 
Q 50.484375 35.9375 44.390625 34.1875 
z
M 19.671875 64.796875 
L 19.671875 38.921875 
L 32.078125 38.921875 
Q 39.203125 38.921875 42.84375 42.21875 
Q 46.484375 45.515625 46.484375 51.90625 
Q 46.484375 58.296875 42.84375 61.546875 
Q 39.203125 64.796875 32.078125 64.796875 
z
" id="DejaVuSans-82"/>
     </defs>
     <g transform="translate(413.8 329.365938)scale(0.1 -0.1)">
      <use xlink:href="#DejaVuSans-82"/>
      <use x="64.982422" xlink:href="#DejaVuSans-117"/>
      <use x="128.361328" xlink:href="#DejaVuSans-115"/>
      <use x="180.460938" xlink:href="#DejaVuSans-115"/>
      <use x="232.560547" xlink:href="#DejaVuSans-105"/>
      <use x="260.34375" xlink:href="#DejaVuSans-97"/>
     </g>
    </g>
    <g id="line2d_89">
     <path d="M 385.8 340.544063 
L 405.8 340.544063 
" style="fill:none;stroke:#bcbd22;stroke-linecap:square;stroke-width:1.5;"/>
    </g>
    <g id="line2d_90"/>
    <g id="text_24">
     <!-- Sweden -->
     <defs>
      <path d="M 4.203125 54.6875 
L 13.1875 54.6875 
L 24.421875 12.015625 
L 35.59375 54.6875 
L 46.1875 54.6875 
L 57.421875 12.015625 
L 68.609375 54.6875 
L 77.59375 54.6875 
L 63.28125 0 
L 52.6875 0 
L 40.921875 44.828125 
L 29.109375 0 
L 18.5 0 
z
" id="DejaVuSans-119"/>
     </defs>
     <g transform="translate(413.8 344.044063)scale(0.1 -0.1)">
      <use xlink:href="#DejaVuSans-83"/>
      <use x="63.476562" xlink:href="#DejaVuSans-119"/>
      <use x="145.263672" xlink:href="#DejaVuSans-101"/>
      <use x="206.787109" xlink:href="#DejaVuSans-100"/>
      <use x="270.263672" xlink:href="#DejaVuSans-101"/>
      <use x="331.787109" xlink:href="#DejaVuSans-110"/>
     </g>
    </g>
    <g id="line2d_91">
     <path d="M 385.8 355.222188 
L 405.8 355.222188 
" style="fill:none;stroke:#17becf;stroke-linecap:square;stroke-width:1.5;"/>
    </g>
    <g id="line2d_92"/>
    <g id="text_25">
     <!-- UnitedKingdom -->
     <defs>
      <path d="M 45.40625 27.984375 
Q 45.40625 37.75 41.375 43.109375 
Q 37.359375 48.484375 30.078125 48.484375 
Q 22.859375 48.484375 18.828125 43.109375 
Q 14.796875 37.75 14.796875 27.984375 
Q 14.796875 18.265625 18.828125 12.890625 
Q 22.859375 7.515625 30.078125 7.515625 
Q 37.359375 7.515625 41.375 12.890625 
Q 45.40625 18.265625 45.40625 27.984375 
z
M 54.390625 6.78125 
Q 54.390625 -7.171875 48.1875 -13.984375 
Q 42 -20.796875 29.203125 -20.796875 
Q 24.46875 -20.796875 20.265625 -20.09375 
Q 16.0625 -19.390625 12.109375 -17.921875 
L 12.109375 -9.1875 
Q 16.0625 -11.328125 19.921875 -12.34375 
Q 23.78125 -13.375 27.78125 -13.375 
Q 36.625 -13.375 41.015625 -8.765625 
Q 45.40625 -4.15625 45.40625 5.171875 
L 45.40625 9.625 
Q 42.625 4.78125 38.28125 2.390625 
Q 33.9375 0 27.875 0 
Q 17.828125 0 11.671875 7.65625 
Q 5.515625 15.328125 5.515625 27.984375 
Q 5.515625 40.671875 11.671875 48.328125 
Q 17.828125 56 27.875 56 
Q 33.9375 56 38.28125 53.609375 
Q 42.625 51.21875 45.40625 46.390625 
L 45.40625 54.6875 
L 54.390625 54.6875 
z
" id="DejaVuSans-103"/>
     </defs>
     <g transform="translate(413.8 358.722188)scale(0.1 -0.1)">
      <use xlink:href="#DejaVuSans-85"/>
      <use x="73.193359" xlink:href="#DejaVuSans-110"/>
      <use x="136.572266" xlink:href="#DejaVuSans-105"/>
      <use x="164.355469" xlink:href="#DejaVuSans-116"/>
      <use x="203.564453" xlink:href="#DejaVuSans-101"/>
      <use x="265.087891" xlink:href="#DejaVuSans-100"/>
      <use x="328.564453" xlink:href="#DejaVuSans-75"/>
      <use x="394.140625" xlink:href="#DejaVuSans-105"/>
      <use x="421.923828" xlink:href="#DejaVuSans-110"/>
      <use x="485.302734" xlink:href="#DejaVuSans-103"/>
      <use x="548.779297" xlink:href="#DejaVuSans-100"/>
      <use x="612.255859" xlink:href="#DejaVuSans-111"/>
      <use x="673.4375" xlink:href="#DejaVuSans-109"/>
     </g>
    </g>
    <g id="line2d_93">
     <path d="M 385.8 369.900313 
L 405.8 369.900313 
" style="fill:none;stroke:#1f77b4;stroke-linecap:square;stroke-width:1.5;"/>
    </g>
    <g id="line2d_94"/>
    <g id="text_26">
     <!-- US -->
     <g transform="translate(413.8 373.400313)scale(0.1 -0.1)">
      <use xlink:href="#DejaVuSans-85"/>
      <use x="73.193359" xlink:href="#DejaVuSans-83"/>
     </g>
    </g>
   </g>
  </g>
 </g>
 <defs>
  <clipPath id="p4a9701d33e">
   <rect height="332.64" width="446.4" x="72" y="51.84"/>
  </clipPath>
 </defs>
</svg>
