<?xml version="1.0" encoding="utf-8" standalone="no"?>
<!DOCTYPE svg PUBLIC "-//W3C//DTD SVG 1.1//EN"
  "http://www.w3.org/Graphics/SVG/1.1/DTD/svg11.dtd">
<!-- Created with matplotlib (https://matplotlib.org/) -->
<svg height="432pt" version="1.1" viewBox="0 0 576 432" width="576pt" xmlns="http://www.w3.org/2000/svg" xmlns:xlink="http://www.w3.org/1999/xlink">
 <defs>
  <style type="text/css">
*{stroke-linecap:butt;stroke-linejoin:round;}
  </style>
 </defs>
 <g id="figure_1">
  <g id="patch_1">
   <path d="M 0 432 
L 576 432 
L 576 0 
L 0 0 
z
" style="fill:#ffffff;"/>
  </g>
  <g id="axes_1">
   <g id="patch_2">
    <path d="M 72 384.48 
L 518.4 384.48 
L 518.4 51.84 
L 72 51.84 
z
" style="fill:#ffffff;"/>
   </g>
   <g id="matplotlib.axis_1">
    <g id="xtick_1">
     <g id="line2d_1">
      <defs>
       <path d="M 0 0 
L 0 3.5 
" id="m2026918cbf" style="stroke:#000000;stroke-width:0.8;"/>
      </defs>
      <g>
       <use style="stroke:#000000;stroke-width:0.8;" x="92.290909" xlink:href="#m2026918cbf" y="384.48"/>
      </g>
     </g>
     <g id="text_1">
      <!-- 0 -->
      <defs>
       <path d="M 31.78125 66.40625 
Q 24.171875 66.40625 20.328125 58.90625 
Q 16.5 51.421875 16.5 36.375 
Q 16.5 21.390625 20.328125 13.890625 
Q 24.171875 6.390625 31.78125 6.390625 
Q 39.453125 6.390625 43.28125 13.890625 
Q 47.125 21.390625 47.125 36.375 
Q 47.125 51.421875 43.28125 58.90625 
Q 39.453125 66.40625 31.78125 66.40625 
z
M 31.78125 74.21875 
Q 44.046875 74.21875 50.515625 64.515625 
Q 56.984375 54.828125 56.984375 36.375 
Q 56.984375 17.96875 50.515625 8.265625 
Q 44.046875 -1.421875 31.78125 -1.421875 
Q 19.53125 -1.421875 13.0625 8.265625 
Q 6.59375 17.96875 6.59375 36.375 
Q 6.59375 54.828125 13.0625 64.515625 
Q 19.53125 74.21875 31.78125 74.21875 
z
" id="DejaVuSans-48"/>
      </defs>
      <g transform="translate(89.109659 399.078438)scale(0.1 -0.1)">
       <use xlink:href="#DejaVuSans-48"/>
      </g>
     </g>
    </g>
    <g id="xtick_2">
     <g id="line2d_2">
      <g>
       <use style="stroke:#000000;stroke-width:0.8;" x="178.269337" xlink:href="#m2026918cbf" y="384.48"/>
      </g>
     </g>
     <g id="text_2">
      <!-- 100 -->
      <defs>
       <path d="M 12.40625 8.296875 
L 28.515625 8.296875 
L 28.515625 63.921875 
L 10.984375 60.40625 
L 10.984375 69.390625 
L 28.421875 72.90625 
L 38.28125 72.90625 
L 38.28125 8.296875 
L 54.390625 8.296875 
L 54.390625 0 
L 12.40625 0 
z
" id="DejaVuSans-49"/>
      </defs>
      <g transform="translate(168.725587 399.078438)scale(0.1 -0.1)">
       <use xlink:href="#DejaVuSans-49"/>
       <use x="63.623047" xlink:href="#DejaVuSans-48"/>
       <use x="127.246094" xlink:href="#DejaVuSans-48"/>
      </g>
     </g>
    </g>
    <g id="xtick_3">
     <g id="line2d_3">
      <g>
       <use style="stroke:#000000;stroke-width:0.8;" x="264.247766" xlink:href="#m2026918cbf" y="384.48"/>
      </g>
     </g>
     <g id="text_3">
      <!-- 200 -->
      <defs>
       <path d="M 19.1875 8.296875 
L 53.609375 8.296875 
L 53.609375 0 
L 7.328125 0 
L 7.328125 8.296875 
Q 12.9375 14.109375 22.625 23.890625 
Q 32.328125 33.6875 34.8125 36.53125 
Q 39.546875 41.84375 41.421875 45.53125 
Q 43.3125 49.21875 43.3125 52.78125 
Q 43.3125 58.59375 39.234375 62.25 
Q 35.15625 65.921875 28.609375 65.921875 
Q 23.96875 65.921875 18.8125 64.3125 
Q 13.671875 62.703125 7.8125 59.421875 
L 7.8125 69.390625 
Q 13.765625 71.78125 18.9375 73 
Q 24.125 74.21875 28.421875 74.21875 
Q 39.75 74.21875 46.484375 68.546875 
Q 53.21875 62.890625 53.21875 53.421875 
Q 53.21875 48.921875 51.53125 44.890625 
Q 49.859375 40.875 45.40625 35.40625 
Q 44.1875 33.984375 37.640625 27.21875 
Q 31.109375 20.453125 19.1875 8.296875 
z
" id="DejaVuSans-50"/>
      </defs>
      <g transform="translate(254.704016 399.078438)scale(0.1 -0.1)">
       <use xlink:href="#DejaVuSans-50"/>
       <use x="63.623047" xlink:href="#DejaVuSans-48"/>
       <use x="127.246094" xlink:href="#DejaVuSans-48"/>
      </g>
     </g>
    </g>
    <g id="xtick_4">
     <g id="line2d_4">
      <g>
       <use style="stroke:#000000;stroke-width:0.8;" x="350.226194" xlink:href="#m2026918cbf" y="384.48"/>
      </g>
     </g>
     <g id="text_4">
      <!-- 300 -->
      <defs>
       <path d="M 40.578125 39.3125 
Q 47.65625 37.796875 51.625 33 
Q 55.609375 28.21875 55.609375 21.1875 
Q 55.609375 10.40625 48.1875 4.484375 
Q 40.765625 -1.421875 27.09375 -1.421875 
Q 22.515625 -1.421875 17.65625 -0.515625 
Q 12.796875 0.390625 7.625 2.203125 
L 7.625 11.71875 
Q 11.71875 9.328125 16.59375 8.109375 
Q 21.484375 6.890625 26.8125 6.890625 
Q 36.078125 6.890625 40.9375 10.546875 
Q 45.796875 14.203125 45.796875 21.1875 
Q 45.796875 27.640625 41.28125 31.265625 
Q 36.765625 34.90625 28.71875 34.90625 
L 20.21875 34.90625 
L 20.21875 43.015625 
L 29.109375 43.015625 
Q 36.375 43.015625 40.234375 45.921875 
Q 44.09375 48.828125 44.09375 54.296875 
Q 44.09375 59.90625 40.109375 62.90625 
Q 36.140625 65.921875 28.71875 65.921875 
Q 24.65625 65.921875 20.015625 65.03125 
Q 15.375 64.15625 9.8125 62.3125 
L 9.8125 71.09375 
Q 15.4375 72.65625 20.34375 73.4375 
Q 25.25 74.21875 29.59375 74.21875 
Q 40.828125 74.21875 47.359375 69.109375 
Q 53.90625 64.015625 53.90625 55.328125 
Q 53.90625 49.265625 50.4375 45.09375 
Q 46.96875 40.921875 40.578125 39.3125 
z
" id="DejaVuSans-51"/>
      </defs>
      <g transform="translate(340.682444 399.078438)scale(0.1 -0.1)">
       <use xlink:href="#DejaVuSans-51"/>
       <use x="63.623047" xlink:href="#DejaVuSans-48"/>
       <use x="127.246094" xlink:href="#DejaVuSans-48"/>
      </g>
     </g>
    </g>
    <g id="xtick_5">
     <g id="line2d_5">
      <g>
       <use style="stroke:#000000;stroke-width:0.8;" x="436.204622" xlink:href="#m2026918cbf" y="384.48"/>
      </g>
     </g>
     <g id="text_5">
      <!-- 400 -->
      <defs>
       <path d="M 37.796875 64.3125 
L 12.890625 25.390625 
L 37.796875 25.390625 
z
M 35.203125 72.90625 
L 47.609375 72.90625 
L 47.609375 25.390625 
L 58.015625 25.390625 
L 58.015625 17.1875 
L 47.609375 17.1875 
L 47.609375 0 
L 37.796875 0 
L 37.796875 17.1875 
L 4.890625 17.1875 
L 4.890625 26.703125 
z
" id="DejaVuSans-52"/>
      </defs>
      <g transform="translate(426.660872 399.078438)scale(0.1 -0.1)">
       <use xlink:href="#DejaVuSans-52"/>
       <use x="63.623047" xlink:href="#DejaVuSans-48"/>
       <use x="127.246094" xlink:href="#DejaVuSans-48"/>
      </g>
     </g>
    </g>
    <g id="text_6">
     <!-- Days -->
     <defs>
      <path d="M 19.671875 64.796875 
L 19.671875 8.109375 
L 31.59375 8.109375 
Q 46.6875 8.109375 53.6875 14.9375 
Q 60.6875 21.78125 60.6875 36.53125 
Q 60.6875 51.171875 53.6875 57.984375 
Q 46.6875 64.796875 31.59375 64.796875 
z
M 9.8125 72.90625 
L 30.078125 72.90625 
Q 51.265625 72.90625 61.171875 64.09375 
Q 71.09375 55.28125 71.09375 36.53125 
Q 71.09375 17.671875 61.125 8.828125 
Q 51.171875 0 30.078125 0 
L 9.8125 0 
z
" id="DejaVuSans-68"/>
      <path d="M 34.28125 27.484375 
Q 23.390625 27.484375 19.1875 25 
Q 14.984375 22.515625 14.984375 16.5 
Q 14.984375 11.71875 18.140625 8.90625 
Q 21.296875 6.109375 26.703125 6.109375 
Q 34.1875 6.109375 38.703125 11.40625 
Q 43.21875 16.703125 43.21875 25.484375 
L 43.21875 27.484375 
z
M 52.203125 31.203125 
L 52.203125 0 
L 43.21875 0 
L 43.21875 8.296875 
Q 40.140625 3.328125 35.546875 0.953125 
Q 30.953125 -1.421875 24.3125 -1.421875 
Q 15.921875 -1.421875 10.953125 3.296875 
Q 6 8.015625 6 15.921875 
Q 6 25.140625 12.171875 29.828125 
Q 18.359375 34.515625 30.609375 34.515625 
L 43.21875 34.515625 
L 43.21875 35.40625 
Q 43.21875 41.609375 39.140625 45 
Q 35.0625 48.390625 27.6875 48.390625 
Q 23 48.390625 18.546875 47.265625 
Q 14.109375 46.140625 10.015625 43.890625 
L 10.015625 52.203125 
Q 14.9375 54.109375 19.578125 55.046875 
Q 24.21875 56 28.609375 56 
Q 40.484375 56 46.34375 49.84375 
Q 52.203125 43.703125 52.203125 31.203125 
z
" id="DejaVuSans-97"/>
      <path d="M 32.171875 -5.078125 
Q 28.375 -14.84375 24.75 -17.8125 
Q 21.140625 -20.796875 15.09375 -20.796875 
L 7.90625 -20.796875 
L 7.90625 -13.28125 
L 13.1875 -13.28125 
Q 16.890625 -13.28125 18.9375 -11.515625 
Q 21 -9.765625 23.484375 -3.21875 
L 25.09375 0.875 
L 2.984375 54.6875 
L 12.5 54.6875 
L 29.59375 11.921875 
L 46.6875 54.6875 
L 56.203125 54.6875 
z
" id="DejaVuSans-121"/>
      <path d="M 44.28125 53.078125 
L 44.28125 44.578125 
Q 40.484375 46.53125 36.375 47.5 
Q 32.28125 48.484375 27.875 48.484375 
Q 21.1875 48.484375 17.84375 46.4375 
Q 14.5 44.390625 14.5 40.28125 
Q 14.5 37.15625 16.890625 35.375 
Q 19.28125 33.59375 26.515625 31.984375 
L 29.59375 31.296875 
Q 39.15625 29.25 43.1875 25.515625 
Q 47.21875 21.78125 47.21875 15.09375 
Q 47.21875 7.46875 41.1875 3.015625 
Q 35.15625 -1.421875 24.609375 -1.421875 
Q 20.21875 -1.421875 15.453125 -0.5625 
Q 10.6875 0.296875 5.421875 2 
L 5.421875 11.28125 
Q 10.40625 8.6875 15.234375 7.390625 
Q 20.0625 6.109375 24.8125 6.109375 
Q 31.15625 6.109375 34.5625 8.28125 
Q 37.984375 10.453125 37.984375 14.40625 
Q 37.984375 18.0625 35.515625 20.015625 
Q 33.0625 21.96875 24.703125 23.78125 
L 21.578125 24.515625 
Q 13.234375 26.265625 9.515625 29.90625 
Q 5.8125 33.546875 5.8125 39.890625 
Q 5.8125 47.609375 11.28125 51.796875 
Q 16.75 56 26.8125 56 
Q 31.78125 56 36.171875 55.265625 
Q 40.578125 54.546875 44.28125 53.078125 
z
" id="DejaVuSans-115"/>
     </defs>
     <g transform="translate(282.721875 412.756563)scale(0.1 -0.1)">
      <use xlink:href="#DejaVuSans-68"/>
      <use x="77.001953" xlink:href="#DejaVuSans-97"/>
      <use x="138.28125" xlink:href="#DejaVuSans-121"/>
      <use x="197.460938" xlink:href="#DejaVuSans-115"/>
     </g>
    </g>
   </g>
   <g id="matplotlib.axis_2">
    <g id="ytick_1">
     <g id="line2d_6">
      <defs>
       <path d="M 0 0 
L -3.5 0 
" id="m7c1920a1ce" style="stroke:#000000;stroke-width:0.8;"/>
      </defs>
      <g>
       <use style="stroke:#000000;stroke-width:0.8;" x="72" xlink:href="#m7c1920a1ce" y="369.36"/>
      </g>
     </g>
     <g id="text_7">
      <!-- 1 -->
      <g transform="translate(58.6375 373.159219)scale(0.1 -0.1)">
       <use xlink:href="#DejaVuSans-49"/>
      </g>
     </g>
    </g>
    <g id="ytick_2">
     <g id="line2d_7">
      <g>
       <use style="stroke:#000000;stroke-width:0.8;" x="72" xlink:href="#m7c1920a1ce" y="328.666263"/>
      </g>
     </g>
     <g id="text_8">
      <!-- 10 -->
      <g transform="translate(52.275 332.465481)scale(0.1 -0.1)">
       <use xlink:href="#DejaVuSans-49"/>
       <use x="63.623047" xlink:href="#DejaVuSans-48"/>
      </g>
     </g>
    </g>
    <g id="ytick_3">
     <g id="line2d_8">
      <g>
       <use style="stroke:#000000;stroke-width:0.8;" x="72" xlink:href="#m7c1920a1ce" y="287.972525"/>
      </g>
     </g>
     <g id="text_9">
      <!-- 100 -->
      <g transform="translate(45.9125 291.771744)scale(0.1 -0.1)">
       <use xlink:href="#DejaVuSans-49"/>
       <use x="63.623047" xlink:href="#DejaVuSans-48"/>
       <use x="127.246094" xlink:href="#DejaVuSans-48"/>
      </g>
     </g>
    </g>
    <g id="ytick_4">
     <g id="line2d_9">
      <g>
       <use style="stroke:#000000;stroke-width:0.8;" x="72" xlink:href="#m7c1920a1ce" y="247.278788"/>
      </g>
     </g>
     <g id="text_10">
      <!-- 1,000 -->
      <defs>
       <path d="M 11.71875 12.40625 
L 22.015625 12.40625 
L 22.015625 4 
L 14.015625 -11.625 
L 7.71875 -11.625 
L 11.71875 4 
z
" id="DejaVuSans-44"/>
      </defs>
      <g transform="translate(36.371875 251.078007)scale(0.1 -0.1)">
       <use xlink:href="#DejaVuSans-49"/>
       <use x="63.623047" xlink:href="#DejaVuSans-44"/>
       <use x="95.410156" xlink:href="#DejaVuSans-48"/>
       <use x="159.033203" xlink:href="#DejaVuSans-48"/>
       <use x="222.65625" xlink:href="#DejaVuSans-48"/>
      </g>
     </g>
    </g>
    <g id="ytick_5">
     <g id="line2d_10">
      <g>
       <use style="stroke:#000000;stroke-width:0.8;" x="72" xlink:href="#m7c1920a1ce" y="206.585051"/>
      </g>
     </g>
     <g id="text_11">
      <!-- 10,000 -->
      <g transform="translate(30.009375 210.38427)scale(0.1 -0.1)">
       <use xlink:href="#DejaVuSans-49"/>
       <use x="63.623047" xlink:href="#DejaVuSans-48"/>
       <use x="127.246094" xlink:href="#DejaVuSans-44"/>
       <use x="159.033203" xlink:href="#DejaVuSans-48"/>
       <use x="222.65625" xlink:href="#DejaVuSans-48"/>
       <use x="286.279297" xlink:href="#DejaVuSans-48"/>
      </g>
     </g>
    </g>
    <g id="ytick_6">
     <g id="line2d_11">
      <g>
       <use style="stroke:#000000;stroke-width:0.8;" x="72" xlink:href="#m7c1920a1ce" y="165.891314"/>
      </g>
     </g>
     <g id="text_12">
      <!-- 100,000 -->
      <g transform="translate(23.646875 169.690532)scale(0.1 -0.1)">
       <use xlink:href="#DejaVuSans-49"/>
       <use x="63.623047" xlink:href="#DejaVuSans-48"/>
       <use x="127.246094" xlink:href="#DejaVuSans-48"/>
       <use x="190.869141" xlink:href="#DejaVuSans-44"/>
       <use x="222.65625" xlink:href="#DejaVuSans-48"/>
       <use x="286.279297" xlink:href="#DejaVuSans-48"/>
       <use x="349.902344" xlink:href="#DejaVuSans-48"/>
      </g>
     </g>
    </g>
    <g id="ytick_7">
     <g id="line2d_12">
      <g>
       <use style="stroke:#000000;stroke-width:0.8;" x="72" xlink:href="#m7c1920a1ce" y="125.197576"/>
      </g>
     </g>
     <g id="text_13">
      <!-- 1,000,000 -->
      <g transform="translate(14.10625 128.996795)scale(0.1 -0.1)">
       <use xlink:href="#DejaVuSans-49"/>
       <use x="63.623047" xlink:href="#DejaVuSans-44"/>
       <use x="95.410156" xlink:href="#DejaVuSans-48"/>
       <use x="159.033203" xlink:href="#DejaVuSans-48"/>
       <use x="222.65625" xlink:href="#DejaVuSans-48"/>
       <use x="286.279297" xlink:href="#DejaVuSans-44"/>
       <use x="318.066406" xlink:href="#DejaVuSans-48"/>
       <use x="381.689453" xlink:href="#DejaVuSans-48"/>
       <use x="445.3125" xlink:href="#DejaVuSans-48"/>
      </g>
     </g>
    </g>
    <g id="ytick_8">
     <g id="line2d_13">
      <g>
       <use style="stroke:#000000;stroke-width:0.8;" x="72" xlink:href="#m7c1920a1ce" y="84.503839"/>
      </g>
     </g>
     <g id="text_14">
      <!-- 10,000,000 -->
      <g transform="translate(7.74375 88.303058)scale(0.1 -0.1)">
       <use xlink:href="#DejaVuSans-49"/>
       <use x="63.623047" xlink:href="#DejaVuSans-48"/>
       <use x="127.246094" xlink:href="#DejaVuSans-44"/>
       <use x="159.033203" xlink:href="#DejaVuSans-48"/>
       <use x="222.65625" xlink:href="#DejaVuSans-48"/>
       <use x="286.279297" xlink:href="#DejaVuSans-48"/>
       <use x="349.902344" xlink:href="#DejaVuSans-44"/>
       <use x="381.689453" xlink:href="#DejaVuSans-48"/>
       <use x="445.3125" xlink:href="#DejaVuSans-48"/>
       <use x="508.935547" xlink:href="#DejaVuSans-48"/>
      </g>
     </g>
    </g>
    <g id="ytick_9">
     <g id="line2d_14">
      <defs>
       <path d="M 0 0 
L -2 0 
" id="m7a8f68ad11" style="stroke:#000000;stroke-width:0.6;"/>
      </defs>
      <g>
       <use style="stroke:#000000;stroke-width:0.6;" x="72" xlink:href="#m7a8f68ad11" y="381.610036"/>
      </g>
     </g>
    </g>
    <g id="ytick_10">
     <g id="line2d_15">
      <g>
       <use style="stroke:#000000;stroke-width:0.6;" x="72" xlink:href="#m7a8f68ad11" y="378.387855"/>
      </g>
     </g>
    </g>
    <g id="ytick_11">
     <g id="line2d_16">
      <g>
       <use style="stroke:#000000;stroke-width:0.6;" x="72" xlink:href="#m7a8f68ad11" y="375.66354"/>
      </g>
     </g>
    </g>
    <g id="ytick_12">
     <g id="line2d_17">
      <g>
       <use style="stroke:#000000;stroke-width:0.6;" x="72" xlink:href="#m7a8f68ad11" y="373.303631"/>
      </g>
     </g>
    </g>
    <g id="ytick_13">
     <g id="line2d_18">
      <g>
       <use style="stroke:#000000;stroke-width:0.6;" x="72" xlink:href="#m7a8f68ad11" y="371.222043"/>
      </g>
     </g>
    </g>
    <g id="ytick_14">
     <g id="line2d_19">
      <g>
       <use style="stroke:#000000;stroke-width:0.6;" x="72" xlink:href="#m7a8f68ad11" y="357.109964"/>
      </g>
     </g>
    </g>
    <g id="ytick_15">
     <g id="line2d_20">
      <g>
       <use style="stroke:#000000;stroke-width:0.6;" x="72" xlink:href="#m7a8f68ad11" y="349.944153"/>
      </g>
     </g>
    </g>
    <g id="ytick_16">
     <g id="line2d_21">
      <g>
       <use style="stroke:#000000;stroke-width:0.6;" x="72" xlink:href="#m7a8f68ad11" y="344.859929"/>
      </g>
     </g>
    </g>
    <g id="ytick_17">
     <g id="line2d_22">
      <g>
       <use style="stroke:#000000;stroke-width:0.6;" x="72" xlink:href="#m7a8f68ad11" y="340.916298"/>
      </g>
     </g>
    </g>
    <g id="ytick_18">
     <g id="line2d_23">
      <g>
       <use style="stroke:#000000;stroke-width:0.6;" x="72" xlink:href="#m7a8f68ad11" y="337.694117"/>
      </g>
     </g>
    </g>
    <g id="ytick_19">
     <g id="line2d_24">
      <g>
       <use style="stroke:#000000;stroke-width:0.6;" x="72" xlink:href="#m7a8f68ad11" y="334.969802"/>
      </g>
     </g>
    </g>
    <g id="ytick_20">
     <g id="line2d_25">
      <g>
       <use style="stroke:#000000;stroke-width:0.6;" x="72" xlink:href="#m7a8f68ad11" y="332.609893"/>
      </g>
     </g>
    </g>
    <g id="ytick_21">
     <g id="line2d_26">
      <g>
       <use style="stroke:#000000;stroke-width:0.6;" x="72" xlink:href="#m7a8f68ad11" y="330.528306"/>
      </g>
     </g>
    </g>
    <g id="ytick_22">
     <g id="line2d_27">
      <g>
       <use style="stroke:#000000;stroke-width:0.6;" x="72" xlink:href="#m7a8f68ad11" y="316.416227"/>
      </g>
     </g>
    </g>
    <g id="ytick_23">
     <g id="line2d_28">
      <g>
       <use style="stroke:#000000;stroke-width:0.6;" x="72" xlink:href="#m7a8f68ad11" y="309.250416"/>
      </g>
     </g>
    </g>
    <g id="ytick_24">
     <g id="line2d_29">
      <g>
       <use style="stroke:#000000;stroke-width:0.6;" x="72" xlink:href="#m7a8f68ad11" y="304.166192"/>
      </g>
     </g>
    </g>
    <g id="ytick_25">
     <g id="line2d_30">
      <g>
       <use style="stroke:#000000;stroke-width:0.6;" x="72" xlink:href="#m7a8f68ad11" y="300.222561"/>
      </g>
     </g>
    </g>
    <g id="ytick_26">
     <g id="line2d_31">
      <g>
       <use style="stroke:#000000;stroke-width:0.6;" x="72" xlink:href="#m7a8f68ad11" y="297.00038"/>
      </g>
     </g>
    </g>
    <g id="ytick_27">
     <g id="line2d_32">
      <g>
       <use style="stroke:#000000;stroke-width:0.6;" x="72" xlink:href="#m7a8f68ad11" y="294.276065"/>
      </g>
     </g>
    </g>
    <g id="ytick_28">
     <g id="line2d_33">
      <g>
       <use style="stroke:#000000;stroke-width:0.6;" x="72" xlink:href="#m7a8f68ad11" y="291.916156"/>
      </g>
     </g>
    </g>
    <g id="ytick_29">
     <g id="line2d_34">
      <g>
       <use style="stroke:#000000;stroke-width:0.6;" x="72" xlink:href="#m7a8f68ad11" y="289.834569"/>
      </g>
     </g>
    </g>
    <g id="ytick_30">
     <g id="line2d_35">
      <g>
       <use style="stroke:#000000;stroke-width:0.6;" x="72" xlink:href="#m7a8f68ad11" y="275.72249"/>
      </g>
     </g>
    </g>
    <g id="ytick_31">
     <g id="line2d_36">
      <g>
       <use style="stroke:#000000;stroke-width:0.6;" x="72" xlink:href="#m7a8f68ad11" y="268.556678"/>
      </g>
     </g>
    </g>
    <g id="ytick_32">
     <g id="line2d_37">
      <g>
       <use style="stroke:#000000;stroke-width:0.6;" x="72" xlink:href="#m7a8f68ad11" y="263.472454"/>
      </g>
     </g>
    </g>
    <g id="ytick_33">
     <g id="line2d_38">
      <g>
       <use style="stroke:#000000;stroke-width:0.6;" x="72" xlink:href="#m7a8f68ad11" y="259.528824"/>
      </g>
     </g>
    </g>
    <g id="ytick_34">
     <g id="line2d_39">
      <g>
       <use style="stroke:#000000;stroke-width:0.6;" x="72" xlink:href="#m7a8f68ad11" y="256.306643"/>
      </g>
     </g>
    </g>
    <g id="ytick_35">
     <g id="line2d_40">
      <g>
       <use style="stroke:#000000;stroke-width:0.6;" x="72" xlink:href="#m7a8f68ad11" y="253.582328"/>
      </g>
     </g>
    </g>
    <g id="ytick_36">
     <g id="line2d_41">
      <g>
       <use style="stroke:#000000;stroke-width:0.6;" x="72" xlink:href="#m7a8f68ad11" y="251.222419"/>
      </g>
     </g>
    </g>
    <g id="ytick_37">
     <g id="line2d_42">
      <g>
       <use style="stroke:#000000;stroke-width:0.6;" x="72" xlink:href="#m7a8f68ad11" y="249.140832"/>
      </g>
     </g>
    </g>
    <g id="ytick_38">
     <g id="line2d_43">
      <g>
       <use style="stroke:#000000;stroke-width:0.6;" x="72" xlink:href="#m7a8f68ad11" y="235.028753"/>
      </g>
     </g>
    </g>
    <g id="ytick_39">
     <g id="line2d_44">
      <g>
       <use style="stroke:#000000;stroke-width:0.6;" x="72" xlink:href="#m7a8f68ad11" y="227.862941"/>
      </g>
     </g>
    </g>
    <g id="ytick_40">
     <g id="line2d_45">
      <g>
       <use style="stroke:#000000;stroke-width:0.6;" x="72" xlink:href="#m7a8f68ad11" y="222.778717"/>
      </g>
     </g>
    </g>
    <g id="ytick_41">
     <g id="line2d_46">
      <g>
       <use style="stroke:#000000;stroke-width:0.6;" x="72" xlink:href="#m7a8f68ad11" y="218.835086"/>
      </g>
     </g>
    </g>
    <g id="ytick_42">
     <g id="line2d_47">
      <g>
       <use style="stroke:#000000;stroke-width:0.6;" x="72" xlink:href="#m7a8f68ad11" y="215.612906"/>
      </g>
     </g>
    </g>
    <g id="ytick_43">
     <g id="line2d_48">
      <g>
       <use style="stroke:#000000;stroke-width:0.6;" x="72" xlink:href="#m7a8f68ad11" y="212.888591"/>
      </g>
     </g>
    </g>
    <g id="ytick_44">
     <g id="line2d_49">
      <g>
       <use style="stroke:#000000;stroke-width:0.6;" x="72" xlink:href="#m7a8f68ad11" y="210.528682"/>
      </g>
     </g>
    </g>
    <g id="ytick_45">
     <g id="line2d_50">
      <g>
       <use style="stroke:#000000;stroke-width:0.6;" x="72" xlink:href="#m7a8f68ad11" y="208.447094"/>
      </g>
     </g>
    </g>
    <g id="ytick_46">
     <g id="line2d_51">
      <g>
       <use style="stroke:#000000;stroke-width:0.6;" x="72" xlink:href="#m7a8f68ad11" y="194.335015"/>
      </g>
     </g>
    </g>
    <g id="ytick_47">
     <g id="line2d_52">
      <g>
       <use style="stroke:#000000;stroke-width:0.6;" x="72" xlink:href="#m7a8f68ad11" y="187.169204"/>
      </g>
     </g>
    </g>
    <g id="ytick_48">
     <g id="line2d_53">
      <g>
       <use style="stroke:#000000;stroke-width:0.6;" x="72" xlink:href="#m7a8f68ad11" y="182.08498"/>
      </g>
     </g>
    </g>
    <g id="ytick_49">
     <g id="line2d_54">
      <g>
       <use style="stroke:#000000;stroke-width:0.6;" x="72" xlink:href="#m7a8f68ad11" y="178.141349"/>
      </g>
     </g>
    </g>
    <g id="ytick_50">
     <g id="line2d_55">
      <g>
       <use style="stroke:#000000;stroke-width:0.6;" x="72" xlink:href="#m7a8f68ad11" y="174.919168"/>
      </g>
     </g>
    </g>
    <g id="ytick_51">
     <g id="line2d_56">
      <g>
       <use style="stroke:#000000;stroke-width:0.6;" x="72" xlink:href="#m7a8f68ad11" y="172.194853"/>
      </g>
     </g>
    </g>
    <g id="ytick_52">
     <g id="line2d_57">
      <g>
       <use style="stroke:#000000;stroke-width:0.6;" x="72" xlink:href="#m7a8f68ad11" y="169.834944"/>
      </g>
     </g>
    </g>
    <g id="ytick_53">
     <g id="line2d_58">
      <g>
       <use style="stroke:#000000;stroke-width:0.6;" x="72" xlink:href="#m7a8f68ad11" y="167.753357"/>
      </g>
     </g>
    </g>
    <g id="ytick_54">
     <g id="line2d_59">
      <g>
       <use style="stroke:#000000;stroke-width:0.6;" x="72" xlink:href="#m7a8f68ad11" y="153.641278"/>
      </g>
     </g>
    </g>
    <g id="ytick_55">
     <g id="line2d_60">
      <g>
       <use style="stroke:#000000;stroke-width:0.6;" x="72" xlink:href="#m7a8f68ad11" y="146.475467"/>
      </g>
     </g>
    </g>
    <g id="ytick_56">
     <g id="line2d_61">
      <g>
       <use style="stroke:#000000;stroke-width:0.6;" x="72" xlink:href="#m7a8f68ad11" y="141.391243"/>
      </g>
     </g>
    </g>
    <g id="ytick_57">
     <g id="line2d_62">
      <g>
       <use style="stroke:#000000;stroke-width:0.6;" x="72" xlink:href="#m7a8f68ad11" y="137.447612"/>
      </g>
     </g>
    </g>
    <g id="ytick_58">
     <g id="line2d_63">
      <g>
       <use style="stroke:#000000;stroke-width:0.6;" x="72" xlink:href="#m7a8f68ad11" y="134.225431"/>
      </g>
     </g>
    </g>
    <g id="ytick_59">
     <g id="line2d_64">
      <g>
       <use style="stroke:#000000;stroke-width:0.6;" x="72" xlink:href="#m7a8f68ad11" y="131.501116"/>
      </g>
     </g>
    </g>
    <g id="ytick_60">
     <g id="line2d_65">
      <g>
       <use style="stroke:#000000;stroke-width:0.6;" x="72" xlink:href="#m7a8f68ad11" y="129.141207"/>
      </g>
     </g>
    </g>
    <g id="ytick_61">
     <g id="line2d_66">
      <g>
       <use style="stroke:#000000;stroke-width:0.6;" x="72" xlink:href="#m7a8f68ad11" y="127.05962"/>
      </g>
     </g>
    </g>
    <g id="ytick_62">
     <g id="line2d_67">
      <g>
       <use style="stroke:#000000;stroke-width:0.6;" x="72" xlink:href="#m7a8f68ad11" y="112.947541"/>
      </g>
     </g>
    </g>
    <g id="ytick_63">
     <g id="line2d_68">
      <g>
       <use style="stroke:#000000;stroke-width:0.6;" x="72" xlink:href="#m7a8f68ad11" y="105.781729"/>
      </g>
     </g>
    </g>
    <g id="ytick_64">
     <g id="line2d_69">
      <g>
       <use style="stroke:#000000;stroke-width:0.6;" x="72" xlink:href="#m7a8f68ad11" y="100.697505"/>
      </g>
     </g>
    </g>
    <g id="ytick_65">
     <g id="line2d_70">
      <g>
       <use style="stroke:#000000;stroke-width:0.6;" x="72" xlink:href="#m7a8f68ad11" y="96.753875"/>
      </g>
     </g>
    </g>
    <g id="ytick_66">
     <g id="line2d_71">
      <g>
       <use style="stroke:#000000;stroke-width:0.6;" x="72" xlink:href="#m7a8f68ad11" y="93.531694"/>
      </g>
     </g>
    </g>
    <g id="ytick_67">
     <g id="line2d_72">
      <g>
       <use style="stroke:#000000;stroke-width:0.6;" x="72" xlink:href="#m7a8f68ad11" y="90.807379"/>
      </g>
     </g>
    </g>
    <g id="ytick_68">
     <g id="line2d_73">
      <g>
       <use style="stroke:#000000;stroke-width:0.6;" x="72" xlink:href="#m7a8f68ad11" y="88.44747"/>
      </g>
     </g>
    </g>
    <g id="ytick_69">
     <g id="line2d_74">
      <g>
       <use style="stroke:#000000;stroke-width:0.6;" x="72" xlink:href="#m7a8f68ad11" y="86.365882"/>
      </g>
     </g>
    </g>
    <g id="ytick_70">
     <g id="line2d_75">
      <g>
       <use style="stroke:#000000;stroke-width:0.6;" x="72" xlink:href="#m7a8f68ad11" y="72.253804"/>
      </g>
     </g>
    </g>
    <g id="ytick_71">
     <g id="line2d_76">
      <g>
       <use style="stroke:#000000;stroke-width:0.6;" x="72" xlink:href="#m7a8f68ad11" y="65.087992"/>
      </g>
     </g>
    </g>
    <g id="ytick_72">
     <g id="line2d_77">
      <g>
       <use style="stroke:#000000;stroke-width:0.6;" x="72" xlink:href="#m7a8f68ad11" y="60.003768"/>
      </g>
     </g>
    </g>
    <g id="ytick_73">
     <g id="line2d_78">
      <g>
       <use style="stroke:#000000;stroke-width:0.6;" x="72" xlink:href="#m7a8f68ad11" y="56.060137"/>
      </g>
     </g>
    </g>
    <g id="ytick_74">
     <g id="line2d_79">
      <g>
       <use style="stroke:#000000;stroke-width:0.6;" x="72" xlink:href="#m7a8f68ad11" y="52.837957"/>
      </g>
     </g>
    </g>
    <g id="text_15">
     <!-- Recovered Cases -->
     <defs>
      <path d="M 44.390625 34.1875 
Q 47.5625 33.109375 50.5625 29.59375 
Q 53.5625 26.078125 56.59375 19.921875 
L 66.609375 0 
L 56 0 
L 46.6875 18.703125 
Q 43.0625 26.03125 39.671875 28.421875 
Q 36.28125 30.8125 30.421875 30.8125 
L 19.671875 30.8125 
L 19.671875 0 
L 9.8125 0 
L 9.8125 72.90625 
L 32.078125 72.90625 
Q 44.578125 72.90625 50.734375 67.671875 
Q 56.890625 62.453125 56.890625 51.90625 
Q 56.890625 45.015625 53.6875 40.46875 
Q 50.484375 35.9375 44.390625 34.1875 
z
M 19.671875 64.796875 
L 19.671875 38.921875 
L 32.078125 38.921875 
Q 39.203125 38.921875 42.84375 42.21875 
Q 46.484375 45.515625 46.484375 51.90625 
Q 46.484375 58.296875 42.84375 61.546875 
Q 39.203125 64.796875 32.078125 64.796875 
z
" id="DejaVuSans-82"/>
      <path d="M 56.203125 29.59375 
L 56.203125 25.203125 
L 14.890625 25.203125 
Q 15.484375 15.921875 20.484375 11.0625 
Q 25.484375 6.203125 34.421875 6.203125 
Q 39.59375 6.203125 44.453125 7.46875 
Q 49.3125 8.734375 54.109375 11.28125 
L 54.109375 2.78125 
Q 49.265625 0.734375 44.1875 -0.34375 
Q 39.109375 -1.421875 33.890625 -1.421875 
Q 20.796875 -1.421875 13.15625 6.1875 
Q 5.515625 13.8125 5.515625 26.8125 
Q 5.515625 40.234375 12.765625 48.109375 
Q 20.015625 56 32.328125 56 
Q 43.359375 56 49.78125 48.890625 
Q 56.203125 41.796875 56.203125 29.59375 
z
M 47.21875 32.234375 
Q 47.125 39.59375 43.09375 43.984375 
Q 39.0625 48.390625 32.421875 48.390625 
Q 24.90625 48.390625 20.390625 44.140625 
Q 15.875 39.890625 15.1875 32.171875 
z
" id="DejaVuSans-101"/>
      <path d="M 48.78125 52.59375 
L 48.78125 44.1875 
Q 44.96875 46.296875 41.140625 47.34375 
Q 37.3125 48.390625 33.40625 48.390625 
Q 24.65625 48.390625 19.8125 42.84375 
Q 14.984375 37.3125 14.984375 27.296875 
Q 14.984375 17.28125 19.8125 11.734375 
Q 24.65625 6.203125 33.40625 6.203125 
Q 37.3125 6.203125 41.140625 7.25 
Q 44.96875 8.296875 48.78125 10.40625 
L 48.78125 2.09375 
Q 45.015625 0.34375 40.984375 -0.53125 
Q 36.96875 -1.421875 32.421875 -1.421875 
Q 20.0625 -1.421875 12.78125 6.34375 
Q 5.515625 14.109375 5.515625 27.296875 
Q 5.515625 40.671875 12.859375 48.328125 
Q 20.21875 56 33.015625 56 
Q 37.15625 56 41.109375 55.140625 
Q 45.0625 54.296875 48.78125 52.59375 
z
" id="DejaVuSans-99"/>
      <path d="M 30.609375 48.390625 
Q 23.390625 48.390625 19.1875 42.75 
Q 14.984375 37.109375 14.984375 27.296875 
Q 14.984375 17.484375 19.15625 11.84375 
Q 23.34375 6.203125 30.609375 6.203125 
Q 37.796875 6.203125 41.984375 11.859375 
Q 46.1875 17.53125 46.1875 27.296875 
Q 46.1875 37.015625 41.984375 42.703125 
Q 37.796875 48.390625 30.609375 48.390625 
z
M 30.609375 56 
Q 42.328125 56 49.015625 48.375 
Q 55.71875 40.765625 55.71875 27.296875 
Q 55.71875 13.875 49.015625 6.21875 
Q 42.328125 -1.421875 30.609375 -1.421875 
Q 18.84375 -1.421875 12.171875 6.21875 
Q 5.515625 13.875 5.515625 27.296875 
Q 5.515625 40.765625 12.171875 48.375 
Q 18.84375 56 30.609375 56 
z
" id="DejaVuSans-111"/>
      <path d="M 2.984375 54.6875 
L 12.5 54.6875 
L 29.59375 8.796875 
L 46.6875 54.6875 
L 56.203125 54.6875 
L 35.6875 0 
L 23.484375 0 
z
" id="DejaVuSans-118"/>
      <path d="M 41.109375 46.296875 
Q 39.59375 47.171875 37.8125 47.578125 
Q 36.03125 48 33.890625 48 
Q 26.265625 48 22.1875 43.046875 
Q 18.109375 38.09375 18.109375 28.8125 
L 18.109375 0 
L 9.078125 0 
L 9.078125 54.6875 
L 18.109375 54.6875 
L 18.109375 46.1875 
Q 20.953125 51.171875 25.484375 53.578125 
Q 30.03125 56 36.53125 56 
Q 37.453125 56 38.578125 55.875 
Q 39.703125 55.765625 41.0625 55.515625 
z
" id="DejaVuSans-114"/>
      <path d="M 45.40625 46.390625 
L 45.40625 75.984375 
L 54.390625 75.984375 
L 54.390625 0 
L 45.40625 0 
L 45.40625 8.203125 
Q 42.578125 3.328125 38.25 0.953125 
Q 33.9375 -1.421875 27.875 -1.421875 
Q 17.96875 -1.421875 11.734375 6.484375 
Q 5.515625 14.40625 5.515625 27.296875 
Q 5.515625 40.1875 11.734375 48.09375 
Q 17.96875 56 27.875 56 
Q 33.9375 56 38.25 53.625 
Q 42.578125 51.265625 45.40625 46.390625 
z
M 14.796875 27.296875 
Q 14.796875 17.390625 18.875 11.75 
Q 22.953125 6.109375 30.078125 6.109375 
Q 37.203125 6.109375 41.296875 11.75 
Q 45.40625 17.390625 45.40625 27.296875 
Q 45.40625 37.203125 41.296875 42.84375 
Q 37.203125 48.484375 30.078125 48.484375 
Q 22.953125 48.484375 18.875 42.84375 
Q 14.796875 37.203125 14.796875 27.296875 
z
" id="DejaVuSans-100"/>
      <path id="DejaVuSans-32"/>
      <path d="M 64.40625 67.28125 
L 64.40625 56.890625 
Q 59.421875 61.53125 53.78125 63.8125 
Q 48.140625 66.109375 41.796875 66.109375 
Q 29.296875 66.109375 22.65625 58.46875 
Q 16.015625 50.828125 16.015625 36.375 
Q 16.015625 21.96875 22.65625 14.328125 
Q 29.296875 6.6875 41.796875 6.6875 
Q 48.140625 6.6875 53.78125 8.984375 
Q 59.421875 11.28125 64.40625 15.921875 
L 64.40625 5.609375 
Q 59.234375 2.09375 53.4375 0.328125 
Q 47.65625 -1.421875 41.21875 -1.421875 
Q 24.65625 -1.421875 15.125 8.703125 
Q 5.609375 18.84375 5.609375 36.375 
Q 5.609375 53.953125 15.125 64.078125 
Q 24.65625 74.21875 41.21875 74.21875 
Q 47.75 74.21875 53.53125 72.484375 
Q 59.328125 70.75 64.40625 67.28125 
z
" id="DejaVuSans-67"/>
     </defs>
     <g transform="translate(1.664062 260.954531)rotate(-90)scale(0.1 -0.1)">
      <use xlink:href="#DejaVuSans-82"/>
      <use x="64.982422" xlink:href="#DejaVuSans-101"/>
      <use x="126.505859" xlink:href="#DejaVuSans-99"/>
      <use x="181.486328" xlink:href="#DejaVuSans-111"/>
      <use x="242.667969" xlink:href="#DejaVuSans-118"/>
      <use x="301.847656" xlink:href="#DejaVuSans-101"/>
      <use x="363.371094" xlink:href="#DejaVuSans-114"/>
      <use x="402.234375" xlink:href="#DejaVuSans-101"/>
      <use x="463.757812" xlink:href="#DejaVuSans-100"/>
      <use x="527.234375" xlink:href="#DejaVuSans-32"/>
      <use x="559.021484" xlink:href="#DejaVuSans-67"/>
      <use x="628.845703" xlink:href="#DejaVuSans-97"/>
      <use x="690.125" xlink:href="#DejaVuSans-115"/>
      <use x="742.224609" xlink:href="#DejaVuSans-101"/>
      <use x="803.748047" xlink:href="#DejaVuSans-115"/>
     </g>
    </g>
   </g>
   <g id="line2d_80">
    <path clip-path="url(#p24872fadeb)" d="M 92.290909 357.109964 
L 94.010478 357.109964 
L 94.870262 340.916298 
L 95.730046 340.916298 
L 96.589831 328.666263 
L 98.309399 328.666263 
L 99.169183 321.500451 
L 100.028968 318.27827 
L 100.888752 318.27827 
L 101.748536 309.84956 
L 102.60832 308.109822 
L 106.047458 308.109822 
L 106.907242 304.166192 
L 107.767026 302.888064 
L 108.62681 298.862424 
L 109.486595 288.150146 
L 110.346379 285.96966 
L 111.206163 283.200318 
L 112.065948 282.668757 
L 113.785516 279.015505 
L 114.6453 277.682991 
L 115.505085 276.816018 
L 116.364869 276.816018 
L 117.224653 275.114511 
L 118.084438 274.038067 
L 118.944222 273.406819 
L 119.804006 271.638037 
L 120.66379 271.085709 
L 121.523575 267.977182 
L 122.383359 266.818782 
L 123.243143 266.086657 
L 124.102928 263.605502 
L 124.962712 262.568154 
L 125.822496 261.079439 
L 126.68228 260.697717 
L 127.542065 260.547307 
L 128.401849 259.458273 
L 129.261633 257.58919 
L 130.121418 257.58919 
L 130.981202 256.01452 
L 132.70077 253.811026 
L 133.560555 252.481227 
L 134.420339 252.481227 
L 135.280123 251.715236 
L 136.139908 251.200341 
L 136.999692 250.150996 
L 137.859476 248.561335 
L 138.71926 248.409959 
L 139.579045 247.349622 
L 140.438829 246.585638 
L 141.298613 246.00066 
L 142.158398 245.64263 
L 143.018182 245.150135 
L 143.877966 244.99415 
L 144.73775 243.924554 
L 146.457319 242.60127 
L 147.317103 242.265398 
L 148.176888 240.982319 
L 149.036672 240.712121 
L 150.75624 239.13885 
L 151.616025 237.267889 
L 152.475809 236.598673 
L 153.335593 236.169346 
L 154.195378 233.578842 
L 155.055162 230.048664 
L 155.914946 227.786523 
L 156.77473 226.039822 
L 157.634515 223.09973 
L 158.494299 221.912238 
L 159.354083 219.834858 
L 160.213867 218.264714 
L 161.073652 217.124976 
L 161.933436 215.153537 
L 162.79322 211.296215 
L 164.512789 209.895108 
L 165.372573 208.916706 
L 166.232357 208.762109 
L 167.092142 207.943775 
L 167.951926 206.818098 
L 168.81171 206.280184 
L 169.671495 206.052364 
L 170.531279 205.432311 
L 171.391063 202.494989 
L 172.250847 200.722068 
L 173.110632 200.473955 
L 173.970416 198.668406 
L 174.8302 198.233417 
L 175.689985 196.866425 
L 176.549769 195.089633 
L 177.409553 194.904324 
L 178.269337 194.244233 
L 179.129122 194.177545 
L 179.988906 193.727037 
L 183.428043 193.291892 
L 184.287827 193.260266 
L 185.147612 193.09474 
L 186.007396 192.288023 
L 187.726965 191.749345 
L 188.586749 191.656457 
L 189.446533 191.384425 
L 192.025886 191.168888 
L 192.88567 190.712398 
L 194.605239 190.538327 
L 195.465023 190.264595 
L 198.044376 190.118509 
L 200.623729 190.035175 
L 203.203082 189.924671 
L 208.361787 189.543931 
L 210.94114 189.219449 
L 211.800924 189.219449 
L 212.660709 188.922923 
L 216.099846 188.922923 
L 216.95963 188.591022 
L 217.819414 188.378423 
L 219.538983 188.275271 
L 221.258552 188.112959 
L 222.118336 187.742771 
L 227.277042 187.628131 
L 228.99661 187.53226 
L 232.435747 186.844083 
L 237.594453 186.229676 
L 238.454237 185.98834 
L 239.314022 185.974569 
L 240.173806 185.752973 
L 250.491217 185.677554 
L 253.07057 185.569601 
L 258.229276 185.460698 
L 263.387982 185.320597 
L 271.12604 185.045252 
L 272.845609 184.945236 
L 276.284746 184.834423 
L 285.742373 184.72071 
L 287.461941 184.468132 
L 293.480431 184.364282 
L 296.059784 184.25904 
L 296.919569 184.233077 
L 297.779353 183.979453 
L 302.078274 183.802792 
L 302.938059 183.602345 
L 305.517411 183.488611 
L 307.23698 183.339044 
L 308.956549 183.276073 
L 310.676117 183.047854 
L 320.993529 182.70867 
L 323.572881 182.269296 
L 324.432666 182.221589 
L 325.29245 181.927072 
L 327.012018 181.741939 
L 329.591371 181.416062 
L 333.890293 181.337958 
L 334.750077 181.001086 
L 336.469646 180.944662 
L 337.32943 180.687653 
L 340.768567 180.345615 
L 343.34792 179.886743 
L 345.927273 179.665745 
L 346.787057 179.477567 
L 350.226194 179.267998 
L 351.085978 179.256324 
L 352.805547 179.098159 
L 357.964253 178.981385 
L 372.580586 178.633803 
L 374.300154 178.569589 
L 378.599076 178.467402 
L 380.318644 178.395898 
L 396.654545 178.306121 
L 400.093683 178.234555 
L 406.112173 178.136755 
L 407.831741 177.628223 
L 416.429584 177.461459 
L 425.887211 177.355996 
L 431.905701 177.180384 
L 436.204622 176.981657 
L 437.924191 176.881644 
L 442.223112 176.708705 
L 445.66225 176.579778 
L 449.101387 176.453713 
L 450.820955 176.287756 
L 466.297072 175.329793 
L 466.297072 175.329793 
" style="fill:none;stroke:#1f77b4;stroke-linecap:square;stroke-width:1.5;"/>
   </g>
   <g id="line2d_81">
    <path clip-path="url(#p24872fadeb)" d="M 92.290909 307.565993 
L 95.730046 307.565993 
L 97.449615 304.613635 
L 98.309399 303.30392 
L 99.169183 303.30392 
L 100.028968 300.579605 
L 100.888752 300.579605 
L 101.748536 297.599525 
L 104.327889 290.844733 
L 105.187673 290.433713 
L 106.047458 289.446134 
L 106.907242 286.612388 
L 107.767026 285.96966 
L 108.62681 285.812565 
L 110.346379 283.200318 
L 111.206163 282.152719 
L 113.785516 278.183678 
L 114.6453 277.881567 
L 115.505085 246.199051 
L 116.364869 243.924554 
L 117.224653 241.294462 
L 118.084438 241.294462 
L 118.944222 235.84249 
L 119.804006 234.158067 
L 120.66379 231.703778 
L 122.383359 228.449901 
L 123.243143 227.017509 
L 124.102928 225.854817 
L 124.962712 225.854817 
L 125.822496 223.307917 
L 127.542065 221.203077 
L 128.401849 220.366419 
L 129.261633 218.859846 
L 130.121418 218.118162 
L 130.981202 216.825911 
L 131.840986 215.061937 
L 132.70077 214.236412 
L 134.420339 212.064833 
L 135.280123 211.484092 
L 136.139908 210.695148 
L 137.859476 208.417664 
L 139.579045 206.976392 
L 140.438829 205.560263 
L 143.877966 202.216755 
L 145.597535 200.76143 
L 149.036672 197.472217 
L 150.75624 196.366747 
L 151.616025 195.49447 
L 152.475809 195.493527 
L 153.335593 183.817894 
L 155.055162 182.012668 
L 155.914946 180.829472 
L 157.634515 179.973178 
L 158.494299 179.327244 
L 159.354083 178.997702 
L 161.073652 177.620671 
L 161.933436 177.067265 
L 163.653005 176.224851 
L 166.232357 174.308913 
L 167.092142 173.116784 
L 167.951926 172.694681 
L 168.81171 172.013752 
L 169.671495 171.544238 
L 170.531279 170.706839 
L 171.391063 170.259292 
L 172.250847 169.650782 
L 173.110632 168.858587 
L 174.8302 168.143694 
L 175.689985 167.057564 
L 177.409553 165.330013 
L 178.269337 164.941232 
L 182.568259 163.644609 
L 186.007396 162.525973 
L 187.726965 162.106462 
L 189.446533 161.609635 
L 191.166102 160.856644 
L 192.025886 160.569751 
L 195.465023 159.9625 
L 198.044376 159.25361 
L 199.763945 158.918601 
L 201.483513 158.494674 
L 203.203082 158.16072 
L 204.92265 157.848089 
L 206.642219 157.519749 
L 208.361787 156.962209 
L 216.099846 153.923101 
L 217.819414 153.473564 
L 222.118336 152.26552 
L 222.97812 152.130256 
L 226.417257 151.109585 
L 229.856394 150.371812 
L 234.155316 149.533347 
L 242.753159 148.202338 
L 257.369492 146.520945 
L 294.340216 142.594344 
L 303.797843 141.338567 
L 306.377196 140.769694 
L 311.535901 140.047886 
L 322.713097 139.072859 
L 329.591371 138.751227 
L 345.067488 138.280643 
L 370.001233 137.700834 
L 389.776271 136.849096 
L 400.093683 136.091402 
L 406.112173 135.495851 
L 411.270878 134.790694 
L 415.5698 133.967673 
L 422.448074 132.609369 
L 431.905701 131.446591 
L 442.223112 130.900237 
L 447.381818 130.722454 
L 458.559014 130.250676 
L 458.559014 130.250676 
" style="fill:none;stroke:#ff7f0e;stroke-linecap:square;stroke-width:1.5;"/>
   </g>
   <g id="line2d_82">
    <path clip-path="url(#p24872fadeb)" d="M 92.290909 308.109822 
L 93.150693 301.316089 
L 94.010478 299.192771 
L 96.589831 299.192771 
L 97.449615 299.529411 
L 99.169183 298.862424 
L 100.028968 292.591642 
L 100.888752 282.152719 
L 101.748536 278.698964 
L 102.60832 278.387993 
L 103.468105 275.459362 
L 106.907242 275.459362 
L 107.767026 266.241007 
L 108.62681 266.241007 
L 109.486595 259.742183 
L 110.346379 259.040779 
L 111.206163 256.997437 
L 112.065948 251.920872 
L 113.785516 245.275923 
L 114.6453 239.273161 
L 115.505085 237.953017 
L 116.364869 237.48994 
L 117.224653 235.090717 
L 118.084438 234.403707 
L 118.944222 231.909967 
L 119.804006 228.35273 
L 120.66379 227.186793 
L 122.383359 226.399468 
L 124.962712 218.59984 
L 125.822496 217.202151 
L 126.68228 215.46624 
L 127.542065 214.455751 
L 128.401849 214.114219 
L 129.261633 212.954356 
L 130.121418 211.178938 
L 130.981202 210.16139 
L 132.70077 207.495282 
L 133.560555 206.705638 
L 134.420339 206.356782 
L 135.280123 205.521947 
L 136.139908 204.246141 
L 139.579045 200.443964 
L 140.438829 200.080654 
L 141.298613 199.318203 
L 143.018182 197.564267 
L 143.877966 196.806363 
L 145.597535 195.699466 
L 146.457319 195.451119 
L 147.317103 195.061068 
L 149.036672 193.336932 
L 150.75624 191.853471 
L 151.616025 191.374707 
L 152.475809 191.201422 
L 153.335593 190.744101 
L 154.195378 189.926048 
L 155.914946 188.540656 
L 156.77473 187.700832 
L 157.634515 187.10863 
L 158.494299 186.923497 
L 159.354083 186.434752 
L 161.073652 184.945236 
L 163.653005 183.147513 
L 164.512789 183.027337 
L 165.372573 182.674376 
L 167.092142 181.456523 
L 169.671495 179.992792 
L 170.531279 179.919937 
L 171.391063 179.594223 
L 173.110632 178.593143 
L 173.970416 178.173544 
L 174.8302 177.906452 
L 176.549769 177.749841 
L 180.84869 176.482973 
L 182.568259 176.299535 
L 184.287827 176.019278 
L 187.726965 175.456261 
L 189.446533 175.33884 
L 192.025886 174.991481 
L 194.605239 174.77484 
L 195.465023 174.723204 
L 196.324807 174.499449 
L 205.782435 173.52225 
L 207.502003 173.445124 
L 209.221572 173.187146 
L 218.679199 172.468367 
L 222.97812 172.142669 
L 229.856394 171.730402 
L 234.155316 171.606644 
L 238.454237 171.499276 
L 247.911864 171.184128 
L 250.491217 171.087823 
L 253.930354 170.940697 
L 257.369492 170.722628 
L 259.948844 170.460008 
L 262.528197 170.233063 
L 269.406471 169.506426 
L 273.705393 168.922879 
L 276.284746 168.560516 
L 278.004314 168.314352 
L 279.723883 168.153534 
L 281.443451 167.924829 
L 283.16302 167.741971 
L 284.022804 167.558461 
L 287.461941 167.203721 
L 289.18151 166.921595 
L 290.041294 166.64169 
L 292.620647 166.191103 
L 307.23698 162.32797 
L 308.096764 161.979665 
L 309.816333 161.593829 
L 311.535901 160.973333 
L 320.993529 158.383617 
L 323.572881 157.647206 
L 326.152234 156.930461 
L 327.871803 156.590897 
L 332.170724 155.246967 
L 334.750077 154.886428 
L 338.189214 154.090172 
L 340.768567 153.629618 
L 345.067488 152.713569 
L 346.787057 152.415342 
L 350.226194 151.673715 
L 351.945763 151.565583 
L 356.244684 150.728266 
L 358.824037 150.478771 
L 363.122958 149.860778 
L 363.982743 149.83504 
L 369.141448 149.070623 
L 371.720801 148.777033 
L 377.739291 148.132777 
L 382.038213 147.729531 
L 388.916487 147.15934 
L 402.673035 146.067602 
L 423.307858 144.49971 
L 425.887211 144.319313 
L 429.326348 144.046165 
L 432.765485 143.80106 
L 438.783975 143.409002 
L 443.082897 143.149907 
L 447.381818 142.872537 
L 451.68074 142.538718 
L 456.839445 142.197256 
L 464.577504 141.731793 
L 464.577504 141.731793 
" style="fill:none;stroke:#2ca02c;stroke-linecap:square;stroke-width:1.5;"/>
   </g>
   <g id="line2d_83">
    <path clip-path="url(#p24872fadeb)" d="M 92.290909 320.359858 
L 95.730046 320.359858 
L 97.449615 318.27827 
L 100.028968 318.27827 
L 100.888752 312.472597 
L 101.748536 312.472597 
L 102.60832 301.69617 
L 104.327889 301.69617 
L 105.187673 295.050192 
L 106.047458 295.050192 
L 106.907242 287.110254 
L 107.767026 285.812565 
L 108.62681 277.584533 
L 109.486595 273.02344 
L 110.346379 270.682504 
L 111.206163 261.273438 
L 112.065948 226.486447 
L 112.925732 224.902881 
L 113.785516 216.603329 
L 114.6453 213.773852 
L 115.505085 209.496807 
L 116.364869 208.037541 
L 117.224653 201.281283 
L 118.084438 198.168533 
L 118.944222 195.5228 
L 119.804006 192.300619 
L 120.66379 190.69441 
L 121.523575 189.428412 
L 122.383359 187.952125 
L 123.243143 187.952125 
L 124.962712 179.500073 
L 125.822496 177.310412 
L 126.68228 176.809708 
L 127.542065 175.70209 
L 128.401849 174.831023 
L 130.981202 171.550322 
L 131.840986 170.51043 
L 132.70077 169.160071 
L 134.420339 168.150521 
L 137.859476 165.317519 
L 138.71926 164.239053 
L 139.579045 164.239053 
L 141.298613 163.498299 
L 145.597535 161.391005 
L 147.317103 160.891237 
L 148.176888 160.574459 
L 149.036672 159.957446 
L 149.896456 159.731509 
L 150.75624 159.731509 
L 153.335593 159.249604 
L 156.77473 158.538338 
L 165.372573 157.452965 
L 173.110632 156.780274 
L 187.726965 156.040718 
L 190.306317 155.918067 
L 193.745455 155.748709 
L 197.184592 155.591908 
L 204.062866 155.141032 
L 216.099846 154.627963 
L 219.538983 154.518605 
L 228.99661 154.004184 
L 240.173806 153.173962 
L 242.753159 152.949402 
L 244.472727 152.751004 
L 247.911864 152.380421 
L 249.631433 152.216213 
L 253.930354 151.672371 
L 255.649923 151.50448 
L 259.08906 151.067903 
L 262.528197 150.782755 
L 265.967334 150.381582 
L 267.686903 150.22459 
L 270.266256 149.856284 
L 278.864099 148.868936 
L 280.583667 148.485601 
L 290.901079 146.865784 
L 293.480431 146.231328 
L 296.059784 145.550245 
L 298.639137 144.914813 
L 299.498921 144.432462 
L 300.358706 144.240802 
L 301.21849 143.654417 
L 302.078274 143.43041 
L 303.797843 142.650098 
L 304.657627 142.607828 
L 307.23698 141.136431 
L 308.956549 140.480604 
L 309.816333 139.561973 
L 310.676117 139.451529 
L 313.25547 137.880089 
L 314.115254 137.483135 
L 314.975039 137.24679 
L 317.554391 135.626448 
L 319.27396 134.589089 
L 321.853313 133.352643 
L 325.29245 131.36999 
L 327.871803 130.300214 
L 332.170724 128.016222 
L 333.890293 127.2829 
L 336.469646 126.105705 
L 337.32943 125.80456 
L 339.048998 125.36258 
L 343.34792 123.577826 
L 345.067488 123.13603 
L 348.506626 121.67926 
L 351.085978 120.945161 
L 353.665331 119.946881 
L 354.525116 119.884542 
L 355.3849 119.393746 
L 356.244684 119.240858 
L 361.40339 117.645524 
L 363.122958 117.260539 
L 366.562096 116.225721 
L 367.42188 116.196152 
L 368.281664 116.023861 
L 369.141448 115.720849 
L 370.001233 115.683094 
L 370.861017 115.229728 
L 373.44037 114.673692 
L 376.019723 114.230696 
L 376.879507 114.022907 
L 377.739291 114.022907 
L 378.599076 113.710451 
L 379.45886 113.687741 
L 380.318644 113.495608 
L 381.178428 113.485429 
L 382.897997 113.069783 
L 385.47735 112.656855 
L 388.056703 112.473771 
L 389.776271 112.112431 
L 394.934977 111.578405 
L 399.233898 111.230132 
L 415.5698 110.047948 
L 417.289368 109.955162 
L 431.045917 108.823998 
L 435.344838 108.407205 
L 437.064407 108.277552 
L 437.924191 108.052187 
L 439.64376 107.941272 
L 443.082897 107.468503 
L 444.802465 107.335818 
L 458.559014 105.634363 
L 459.418798 105.479584 
L 460.278582 105.467774 
L 461.138367 105.344013 
L 461.998151 105.096171 
L 463.71772 104.960799 
L 475.7547 103.619684 
L 480.053621 103.299981 
L 487.79168 102.887262 
L 489.511248 102.8466 
L 489.511248 102.8466 
" style="fill:none;stroke:#d62728;stroke-linecap:square;stroke-width:1.5;"/>
   </g>
   <g id="line2d_84">
    <path clip-path="url(#p24872fadeb)" d="M 92.290909 344.859929 
L 93.150693 324.029482 
L 94.010478 324.029482 
L 94.870262 322.719767 
L 95.730046 322.719767 
L 96.589831 321.500451 
L 97.449615 316.416227 
L 98.309399 313.946205 
L 99.169183 313.194046 
L 100.028968 307.038399 
L 100.888752 304.166192 
L 101.748536 302.888064 
L 102.60832 302.084604 
L 103.468105 293.534429 
L 105.187673 288.879035 
L 106.047458 287.622552 
L 107.767026 281.04394 
L 108.62681 276.536227 
L 109.486595 276.44394 
L 110.346379 273.329475 
L 111.206163 273.329475 
L 112.065948 264.613048 
L 112.925732 262.568154 
L 114.6453 255.727146 
L 116.364869 247.835325 
L 117.224653 245.918651 
L 118.084438 244.33867 
L 118.944222 241.857591 
L 119.804006 240.932884 
L 120.66379 237.20781 
L 121.523575 234.670118 
L 122.383359 231.348638 
L 124.102928 226.323711 
L 124.962712 222.88952 
L 125.822496 221.215205 
L 126.68228 218.792722 
L 127.542065 217.157091 
L 128.401849 215.793501 
L 130.121418 212.546045 
L 135.280123 203.697386 
L 138.71926 197.44164 
L 139.579045 196.308356 
L 145.597535 187.017865 
L 146.457319 184.841135 
L 149.896456 179.838431 
L 151.616025 177.508117 
L 152.475809 176.655656 
L 154.195378 174.712429 
L 155.914946 172.772507 
L 156.77473 171.964092 
L 157.634515 169.26393 
L 160.213867 166.658109 
L 161.073652 165.841017 
L 162.79322 164.457691 
L 167.092142 160.630799 
L 167.951926 160.560598 
L 168.81171 159.059118 
L 169.671495 159.059118 
L 171.391063 157.324067 
L 172.250847 155.502045 
L 173.970416 154.150004 
L 177.409553 150.626793 
L 182.568259 145.912339 
L 186.007396 143.26016 
L 186.86718 142.302776 
L 192.88567 137.606926 
L 195.465023 135.652006 
L 198.044376 133.853294 
L 198.90416 133.202395 
L 199.763945 132.709137 
L 204.062866 129.52968 
L 206.642219 127.345214 
L 208.361787 126.082408 
L 209.221572 126.053131 
L 210.081356 124.852195 
L 211.800924 123.603775 
L 212.660709 122.794855 
L 214.380277 121.531689 
L 216.099846 120.179715 
L 219.538983 117.615579 
L 222.118336 115.861569 
L 225.557473 113.670445 
L 230.716179 110.627483 
L 238.454237 106.751093 
L 249.631433 101.696777 
L 250.491217 101.696777 
L 251.351002 100.954027 
L 255.649923 99.027552 
L 257.369492 98.275138 
L 261.668413 96.695579 
L 265.967334 95.303293 
L 271.12604 93.810557 
L 276.284746 92.436886 
L 284.882589 90.611232 
L 294.340216 89.095872 
L 302.078274 88.089762 
L 321.853313 86.093276 
L 331.31094 85.371646 
L 342.488136 84.752509 
L 344.207704 84.711009 
L 347.646841 84.508661 
L 369.141448 83.751341 
L 412.990447 82.492834 
L 419.868721 82.072767 
L 427.60678 81.295126 
L 434.485054 80.127763 
L 437.924191 79.259237 
L 441.363328 78.17722 
L 445.66225 76.549513 
L 456.839445 72.183605 
L 464.577504 69.459842 
L 469.73621 68.184779 
L 473.175347 67.49571 
L 476.614484 66.96 
L 477.474268 66.96 
L 477.474268 66.96 
" style="fill:none;stroke:#9467bd;stroke-linecap:square;stroke-width:1.5;"/>
   </g>
   <g id="line2d_85">
    <path clip-path="url(#p24872fadeb)" d="M 92.290909 332.609893 
L 94.010478 332.609893 
L 94.870262 326.98184 
L 95.730046 326.98184 
L 96.589831 321.500451 
L 97.449615 321.500451 
L 98.309399 309.84956 
L 99.169183 309.250416 
L 100.028968 309.250416 
L 100.888752 308.670919 
L 101.748536 306.526101 
L 103.468105 297.297414 
L 104.327889 295.859787 
L 105.187673 293.05675 
L 106.047458 291.696612 
L 106.907242 287.450131 
L 107.767026 285.96966 
L 108.62681 282.800156 
L 109.486595 280.806714 
L 110.346379 279.229726 
L 111.206163 276.44394 
L 112.065948 275.372517 
L 112.925732 273.878129 
L 114.6453 269.650207 
L 115.505085 269.401286 
L 116.364869 265.383658 
L 117.224653 264.378964 
L 118.084438 262.359497 
L 118.944222 261.548663 
L 119.804006 257.908784 
L 120.66379 256.101651 
L 121.523575 255.416341 
L 123.243143 252.433846 
L 124.102928 250.318118 
L 124.962712 248.88738 
L 126.68228 247.243477 
L 127.542065 246.551684 
L 128.401849 245.482257 
L 129.261633 244.793405 
L 130.121418 243.278694 
L 131.840986 239.855654 
L 133.560555 238.268615 
L 134.420339 236.159923 
L 135.280123 235.439981 
L 136.139908 233.368446 
L 136.999692 232.428584 
L 137.859476 231.94704 
L 139.579045 230.344454 
L 140.438829 229.738081 
L 143.877966 225.047969 
L 144.73775 223.67128 
L 145.597535 223.176383 
L 147.317103 221.402223 
L 148.176888 220.82721 
L 149.036672 220.405006 
L 149.896456 219.417175 
L 151.616025 217.976181 
L 152.475809 217.468405 
L 154.195378 215.978969 
L 155.914946 214.919755 
L 156.77473 214.220071 
L 157.634515 212.85076 
L 160.213867 210.672862 
L 164.512789 205.726146 
L 166.232357 204.247689 
L 167.092142 203.173899 
L 169.671495 200.923611 
L 170.531279 199.98064 
L 172.250847 198.609785 
L 175.689985 196.312309 
L 176.549769 195.804782 
L 177.409553 195.489753 
L 179.129122 194.639839 
L 180.84869 193.194698 
L 181.708475 192.723846 
L 182.568259 191.914239 
L 186.86718 188.663315 
L 187.726965 188.250829 
L 190.306317 186.712706 
L 191.166102 186.259307 
L 193.745455 184.587351 
L 196.324807 183.161595 
L 198.90416 181.292697 
L 199.763945 180.697045 
L 200.623729 179.846603 
L 205.782435 176.34354 
L 207.502003 175.465677 
L 208.361787 174.761114 
L 209.221572 174.300379 
L 210.081356 173.698125 
L 212.660709 172.455551 
L 213.520493 172.135118 
L 217.819414 169.988927 
L 219.538983 169.347759 
L 220.398767 169.033792 
L 222.97812 167.828529 
L 228.136826 165.772597 
L 230.716179 164.613186 
L 231.575963 164.037402 
L 233.295532 163.358549 
L 234.155316 162.880257 
L 235.874884 162.261211 
L 237.594453 161.812613 
L 245.332512 159.300287 
L 248.771649 158.144865 
L 250.491217 157.467662 
L 257.369492 154.738755 
L 261.668413 153.044402 
L 270.266256 150.122629 
L 275.424961 148.478737 
L 276.284746 148.099486 
L 286.602157 145.211154 
L 300.358706 142.201094 
L 305.517411 141.287849 
L 309.816333 140.428855 
L 312.395686 139.963773 
L 327.012018 137.242527 
L 341.628351 134.115582 
L 346.787057 132.926875 
L 357.104468 130.603773 
L 362.263174 129.339838 
L 363.982743 128.932838 
L 370.861017 127.127891 
L 374.300154 126.306453 
L 381.178428 124.756476 
L 384.617565 124.197455 
L 388.056703 123.561515 
L 398.374114 122.130567 
L 401.813251 121.73502 
L 406.112173 121.254695 
L 412.990447 120.494023 
L 415.5698 120.252482 
L 421.58829 119.750168 
L 435.344838 118.569283 
L 444.802465 117.827565 
L 463.71772 116.604749 
L 472.315562 116.143737 
L 477.474268 115.757783 
L 477.474268 115.757783 
" style="fill:none;stroke:#8c564b;stroke-linecap:square;stroke-width:1.5;"/>
   </g>
   <g id="line2d_86">
    <path clip-path="url(#p24872fadeb)" d="M 92.290909 300.579605 
L 93.150693 300.579605 
L 94.010478 293.534429 
L 94.870262 284.31395 
L 95.730046 278.082399 
L 96.589831 269.094986 
L 97.449615 269.094986 
L 98.309399 257.780252 
L 99.169183 252.624137 
L 100.028968 248.88738 
L 100.888752 238.226208 
L 101.748536 233.882637 
L 102.60832 231.85081 
L 103.468105 229.523228 
L 104.327889 228.106139 
L 106.907242 228.106139 
L 107.767026 220.347157 
L 108.62681 220.347157 
L 109.486595 217.510986 
L 110.346379 217.510986 
L 111.206163 216.488437 
L 112.065948 213.544414 
L 112.925732 211.353989 
L 113.785516 211.353989 
L 114.6453 209.716977 
L 115.505085 208.618765 
L 118.084438 204.688226 
L 118.944222 203.842063 
L 119.804006 202.796205 
L 120.66379 200.751264 
L 122.383359 198.870555 
L 124.102928 196.260994 
L 124.962712 194.569853 
L 125.822496 194.569853 
L 126.68228 190.939898 
L 128.401849 187.280304 
L 129.261633 185.858774 
L 130.121418 184.211636 
L 130.981202 181.245024 
L 135.280123 177.37054 
L 136.999692 176.142587 
L 137.859476 175.818548 
L 138.71926 175.134615 
L 143.018182 172.657063 
L 146.457319 171.262749 
L 149.036672 170.43028 
L 158.494299 167.866038 
L 162.79322 166.675282 
L 167.092142 165.185932 
L 178.269337 161.289778 
L 181.708475 160.140682 
L 186.007396 158.882427 
L 192.025886 157.192645 
L 198.044376 155.181285 
L 201.483513 154.17066 
L 217.819414 150.246817 
L 221.258552 149.60465 
L 229.856394 148.172354 
L 235.874884 147.158911 
L 291.760863 140.611046 
L 296.059784 139.921968 
L 314.115254 136.394695 
L 323.572881 134.339614 
L 331.31094 132.324083 
L 339.048998 129.917071 
L 342.488136 128.872204 
L 347.646841 127.538449 
L 357.964253 125.396042 
L 362.263174 124.691868 
L 364.842527 124.190242 
L 368.281664 123.699458 
L 404.392604 119.782349 
L 449.961171 115.079799 
L 461.138367 113.355866 
L 474.894915 111.05451 
L 485.212327 109.650027 
L 492.950385 108.637305 
L 492.950385 108.637305 
" style="fill:none;stroke:#e377c2;stroke-linecap:square;stroke-width:1.5;"/>
   </g>
   <g id="line2d_87">
    <path clip-path="url(#p24872fadeb)" d="M 92.290909 357.109964 
L 93.150693 369.36 
L 94.010478 369.36 
L 94.870262 349.944153 
L 95.730046 302.084604 
L 96.589831 301.69617 
L 97.449615 301.69617 
L 99.169183 280.924929 
L 100.028968 279.666121 
L 100.888752 270.030287 
L 101.748536 262.864476 
L 102.60832 258.734007 
L 103.468105 256.633656 
L 104.327889 255.670228 
L 105.187673 252.98655 
L 106.047458 252.98655 
L 106.907242 246.500875 
L 107.767026 246.500875 
L 109.486595 235.331778 
L 111.206163 229.407127 
L 112.065948 228.213975 
L 112.925732 222.668604 
L 113.785516 220.934356 
L 114.6453 220.934356 
L 115.505085 215.402091 
L 116.364869 212.828101 
L 117.224653 211.830242 
L 119.804006 205.958299 
L 120.66379 204.981143 
L 121.523575 202.806192 
L 122.383359 201.907533 
L 123.243143 199.872726 
L 127.542065 193.47611 
L 129.261633 191.990688 
L 130.121418 190.826507 
L 131.840986 188.094327 
L 133.560555 185.736125 
L 134.420339 184.847849 
L 135.280123 184.226592 
L 136.139908 183.400814 
L 136.999692 182.948754 
L 140.438829 179.214208 
L 141.298613 178.542812 
L 144.73775 174.773087 
L 145.597535 174.023266 
L 148.176888 172.464265 
L 149.036672 171.881551 
L 149.896456 170.754248 
L 150.75624 170.22606 
L 154.195378 168.715557 
L 155.055162 167.127363 
L 158.494299 164.997763 
L 159.354083 164.763925 
L 160.213867 164.361967 
L 162.79322 162.638967 
L 165.372573 161.621845 
L 167.092142 160.946994 
L 169.671495 160.091862 
L 172.250847 159.36638 
L 173.110632 159.070407 
L 173.970416 158.654482 
L 176.549769 157.862445 
L 179.988906 157.376823 
L 181.708475 157.032727 
L 183.428043 156.872227 
L 185.147612 156.519828 
L 192.88567 155.31707 
L 196.324807 155.058787 
L 198.044376 154.855072 
L 202.343297 154.524735 
L 212.660709 154.095248 
L 227.277042 153.727112 
L 229.856394 153.621054 
L 253.07057 153.041668 
L 254.790139 152.902644 
L 256.509707 152.952887 
L 263.387982 152.672281 
L 276.284746 151.815874 
L 292.620647 150.270387 
L 297.779353 149.489697 
L 303.797843 148.427676 
L 307.23698 147.471062 
L 308.096764 147.109626 
L 309.816333 146.711678 
L 311.535901 146.046086 
L 312.395686 145.763124 
L 313.25547 145.174064 
L 314.975039 144.521375 
L 315.834823 143.990647 
L 316.694607 143.105501 
L 317.554391 142.668422 
L 318.414176 141.940576 
L 320.993529 140.49492 
L 321.853313 139.612121 
L 322.713097 139.006024 
L 323.572881 138.096787 
L 325.29245 136.753714 
L 326.152234 136.10306 
L 327.012018 135.663921 
L 327.871803 134.688198 
L 328.731587 134.069129 
L 329.591371 133.163741 
L 330.451156 132.509439 
L 331.31094 131.585973 
L 332.170724 130.982129 
L 333.030508 130.650799 
L 334.750077 129.484843 
L 335.609861 128.633081 
L 338.189214 127.132268 
L 339.908783 126.420705 
L 340.768567 125.944284 
L 341.628351 125.234817 
L 343.34792 124.298936 
L 344.207704 123.888388 
L 345.927273 123.264008 
L 347.646841 122.333927 
L 349.36641 121.595329 
L 350.226194 121.261441 
L 351.945763 120.817441 
L 354.525116 119.962211 
L 355.3849 119.542436 
L 357.964253 119.141771 
L 362.263174 118.160017 
L 367.42188 117.006533 
L 383.757781 113.519687 
L 392.355624 112.025945 
L 395.794761 111.539873 
L 398.374114 111.134653 
L 401.813251 110.72316 
L 404.392604 110.35739 
L 408.691525 109.908054 
L 425.027427 108.177668 
L 428.466564 107.734097 
L 430.186133 107.516742 
L 431.905701 107.170921 
L 438.783975 106.176341 
L 449.101387 104.870574 
L 458.559014 103.731337 
L 467.156857 102.935668 
L 476.614484 102.092141 
L 495.529738 101.083278 
L 495.529738 101.083278 
" style="fill:none;stroke:#7f7f7f;stroke-linecap:square;stroke-width:1.5;"/>
   </g>
   <g id="line2d_88">
    <path clip-path="url(#p24872fadeb)" d="M 92.290909 320.359858 
L 94.010478 320.359858 
L 94.870262 318.27827 
L 95.730046 318.27827 
L 96.589831 314.731804 
L 99.169183 314.731804 
L 100.028968 311.112459 
L 100.888752 309.250416 
L 102.60832 309.250416 
L 103.468105 303.729797 
L 104.327889 303.729797 
L 105.187673 282.668757 
L 106.047458 282.668757 
L 106.907242 285.047378 
L 107.767026 285.047378 
L 108.62681 271.992219 
L 110.346379 266.712317 
L 111.206163 259.178851 
L 112.925732 259.178851 
L 113.785516 245.009687 
L 114.6453 241.244147 
L 115.505085 239.647869 
L 118.084438 239.647869 
L 118.944222 228.407323 
L 119.804006 226.911129 
L 120.66379 225.103315 
L 121.523575 224.013819 
L 122.383359 222.153671 
L 123.243143 220.587505 
L 124.102928 219.516082 
L 125.822496 218.047029 
L 129.261633 215.551158 
L 130.121418 214.680641 
L 131.840986 213.933839 
L 133.560555 213.463375 
L 134.420339 212.95689 
L 136.999692 211.983091 
L 139.579045 211.398024 
L 140.438829 211.073823 
L 142.158398 210.668408 
L 144.73775 210.064291 
L 145.597535 209.927107 
L 146.457319 209.45518 
L 148.176888 209.011739 
L 149.896456 208.736142 
L 150.75624 208.600928 
L 151.616025 208.331616 
L 153.335593 208.207198 
L 161.073652 207.247688 
L 167.951926 206.694965 
L 169.671495 206.348061 
L 184.287827 205.635471 
L 188.586749 205.440592 
L 199.763945 204.94245 
L 201.483513 204.398523 
L 203.203082 204.224479 
L 205.782435 203.834498 
L 207.502003 203.643436 
L 210.94114 203.407108 
L 243.612943 200.763973 
L 247.05208 200.630983 
L 254.790139 199.956332 
L 256.509707 199.533896 
L 257.369492 199.45108 
L 259.08906 199.004699 
L 260.808629 198.519977 
L 262.528197 198.118111 
L 263.387982 197.953597 
L 267.686903 196.168608 
L 269.406471 195.723346 
L 271.12604 194.955502 
L 274.565177 194.195947 
L 276.284746 193.949559 
L 279.723883 193.333592 
L 288.321726 192.584042 
L 290.041294 192.282514 
L 292.620647 192.102479 
L 294.340216 191.970578 
L 296.059784 191.802097 
L 302.078274 191.374707 
L 318.414176 190.278638 
L 333.030508 188.963956 
L 334.750077 188.679991 
L 336.469646 188.461255 
L 338.189214 188.167729 
L 342.488136 187.376602 
L 345.067488 186.500428 
L 349.36641 185.513188 
L 350.226194 185.16108 
L 353.665331 184.366795 
L 356.244684 183.260955 
L 357.964253 182.745783 
L 358.824037 182.514306 
L 359.683821 182.411393 
L 360.543606 181.777074 
L 370.861017 177.997372 
L 371.720801 177.261581 
L 376.019723 175.654738 
L 380.318644 174.671719 
L 383.757781 174.069244 
L 384.617565 173.56094 
L 387.196918 173.100566 
L 391.49584 172.372729 
L 400.953467 171.318401 
L 401.813251 171.26203 
L 405.252388 170.622562 
L 409.55131 170.046068 
L 417.289368 169.278266 
L 422.448074 168.831224 
L 425.027427 168.269814 
L 432.765485 167.542737 
L 443.082897 166.504663 
L 446.522034 166.183555 
L 449.101387 165.872061 
L 453.400308 165.358284 
L 465.437288 163.97989 
L 467.156857 163.75248 
L 471.455778 163.264926 
L 473.175347 163.052796 
L 475.7547 162.761717 
L 489.511248 161.423779 
L 491.230817 161.202813 
L 497.249307 160.684423 
L 498.109091 160.605752 
L 498.109091 160.605752 
" style="fill:none;stroke:#bcbd22;stroke-linecap:square;stroke-width:1.5;"/>
   </g>
   <g id="line2d_89">
    <path clip-path="url(#p24872fadeb)" d="M 92.290909 357.109964 
L 94.010478 357.109964 
L 94.870262 324.029482 
L 98.309399 324.029482 
L 99.169183 318.27827 
L 100.028968 315.553955 
L 100.888752 315.553955 
L 101.748536 313.946205 
L 102.60832 309.84956 
L 103.468105 309.84956 
L 104.327889 292.822666 
L 105.187673 292.822666 
L 106.047458 289.066054 
L 106.907242 284.028895 
L 107.767026 283.888073 
L 108.62681 283.200318 
L 109.486595 274.77626 
L 110.346379 271.153813 
L 111.206163 262.235475 
L 112.065948 260.73552 
L 112.925732 257.15125 
L 113.785516 252.913471 
L 114.6453 252.082482 
L 115.505085 246.790744 
L 116.364869 245.67488 
L 117.224653 241.612217 
L 118.084438 240.760942 
L 118.944222 238.48219 
L 119.804006 237.237824 
L 120.66379 236.579368 
L 121.523575 236.235449 
L 123.243143 234.395179 
L 124.102928 233.701373 
L 124.962712 230.895276 
L 125.822496 229.368595 
L 126.68228 228.670511 
L 127.542065 228.244046 
L 128.401849 227.692922 
L 130.121418 225.521451 
L 130.981202 221.439046 
L 131.840986 219.872301 
L 132.70077 219.494055 
L 133.560555 218.436666 
L 134.420339 216.722108 
L 135.280123 216.209003 
L 136.139908 214.296459 
L 136.999692 214.296459 
L 137.859476 211.598724 
L 139.579045 210.390051 
L 140.438829 209.343272 
L 141.298613 208.820175 
L 142.158398 208.646547 
L 143.018182 207.132471 
L 143.877966 205.094484 
L 144.73775 205.094484 
L 145.597535 204.361083 
L 148.176888 201.811495 
L 150.75624 197.571694 
L 151.616025 197.002573 
L 152.475809 196.713112 
L 155.055162 194.132061 
L 155.914946 192.407262 
L 156.77473 191.016631 
L 157.634515 190.20084 
L 159.354083 188.959392 
L 160.213867 187.815336 
L 162.79322 185.710612 
L 163.653005 185.23749 
L 164.512789 184.435802 
L 165.372573 183.796463 
L 166.232357 183.796463 
L 167.092142 181.976184 
L 167.951926 181.976184 
L 168.81171 178.121566 
L 169.671495 176.872759 
L 170.531279 176.01583 
L 171.391063 175.385654 
L 172.250847 175.151917 
L 173.970416 173.916075 
L 174.8302 172.735243 
L 175.689985 171.83053 
L 176.549769 171.339556 
L 177.409553 170.338214 
L 178.269337 169.548544 
L 179.988906 168.371607 
L 180.84869 167.245458 
L 184.287827 165.080621 
L 185.147612 163.634185 
L 186.007396 163.634185 
L 186.86718 161.934398 
L 187.726965 161.031767 
L 188.586749 160.593176 
L 189.446533 159.823418 
L 191.166102 158.832808 
L 193.745455 157.374422 
L 194.605239 156.44542 
L 195.465023 156.223748 
L 196.324807 155.627765 
L 197.184592 155.627765 
L 198.044376 153.773524 
L 198.90416 153.267411 
L 201.483513 152.739664 
L 202.343297 152.513806 
L 203.203082 151.974296 
L 204.062866 150.671555 
L 205.782435 150.609069 
L 206.642219 150.343706 
L 211.800924 149.79853 
L 213.520493 149.740326 
L 214.380277 149.397228 
L 217.819414 148.987648 
L 219.538983 148.920005 
L 220.398767 148.730658 
L 222.97812 148.626291 
L 223.837904 148.397372 
L 225.557473 148.33823 
L 227.277042 148.154918 
L 239.314022 147.552207 
L 241.03359 147.534372 
L 241.893374 147.319086 
L 245.332512 147.18428 
L 255.649923 146.837561 
L 297.779353 145.331284 
L 309.816333 144.632485 
L 314.975039 144.093465 
L 320.133744 143.423866 
L 320.993529 142.746436 
L 322.713097 142.564809 
L 323.572881 142.340032 
L 327.871803 141.902333 
L 328.731587 141.542507 
L 333.890293 140.725643 
L 339.908783 140.108471 
L 340.768567 139.905834 
L 360.543606 138.003857 
L 370.861017 137.243155 
L 392.355624 135.880185 
L 393.215408 135.846739 
L 394.075193 135.62699 
L 398.374114 135.430299 
L 400.093683 135.280897 
L 412.130663 134.635815 
L 419.008937 134.070764 
L 424.167643 133.623458 
L 430.186133 133.032118 
L 437.924191 131.953998 
L 451.68074 130.111058 
L 458.559014 129.307183 
L 461.138367 129.05038 
L 463.71772 128.754864 
L 473.175347 128.016347 
L 476.614484 127.762036 
L 476.614484 127.762036 
" style="fill:none;stroke:#17becf;stroke-linecap:square;stroke-width:1.5;"/>
   </g>
   <g id="line2d_90">
    <path clip-path="url(#p24872fadeb)" d="M 97.447057 433 
L 97.449615 311.779446 
L 98.309399 311.779446 
L 100.888752 287.110254 
L 102.60832 272.280765 
L 103.468105 266.712317 
L 104.327889 262.821839 
L 105.187673 260.103608 
L 106.047458 251.534436 
L 106.907242 246.551684 
L 107.767026 242.292034 
L 109.486595 236.444825 
L 110.346379 233.816508 
L 111.206163 231.638011 
L 112.065948 228.070339 
L 113.785516 222.969731 
L 118.084438 205.802065 
L 118.944222 203.398252 
L 120.66379 199.516117 
L 121.523575 197.759469 
L 122.383359 195.721435 
L 124.102928 189.984672 
L 125.822496 185.06616 
L 127.542065 180.384498 
L 129.261633 176.844161 
L 132.70077 171.384354 
L 134.420339 169.187736 
L 136.139908 167.855764 
L 138.71926 166.08876 
L 140.438829 165.193066 
L 143.018182 164.212997 
L 144.73775 163.747783 
L 150.75624 162.448571 
L 155.914946 161.398268 
L 159.354083 160.798255 
L 161.073652 160.203081 
L 162.79322 159.373712 
L 163.653005 159.101913 
L 170.531279 158.02986 
L 175.689985 157.123316 
L 186.86718 154.991225 
L 190.306317 154.25106 
L 194.605239 153.745858 
L 219.538983 151.249807 
L 234.155316 150.06003 
L 252.210786 148.440246 
L 293.480431 144.355224 
L 301.21849 143.299345 
L 304.657627 142.7297 
L 320.993529 139.208111 
L 321.853313 138.994022 
L 322.713097 117.09598 
L 324.432666 116.541805 
L 328.731587 115.016307 
L 329.591371 114.806776 
L 333.890293 113.207443 
L 338.189214 112.266043 
L 339.908783 111.961487 
L 345.067488 111.487449 
L 354.525116 110.703568 
L 389.776271 108.50051 
L 397.51433 108.036459 
L 401.813251 107.636731 
L 410.411094 106.4931 
L 421.58829 104.866378 
L 427.60678 103.441617 
L 431.905701 102.134701 
L 435.344838 101.099985 
L 437.924191 100.375086 
L 442.223112 99.321432 
L 443.942681 98.693137 
L 450.820955 97.683203 
L 452.540524 97.470572 
L 454.260092 97.132486 
L 455.979661 96.941295 
L 465.437288 96.505327 
L 473.175347 96.215115 
L 474.035131 96.194546 
L 474.035131 96.194546 
" style="fill:none;stroke:#1f77b4;stroke-linecap:square;stroke-width:1.5;"/>
   </g>
   <g id="line2d_91">
    <path clip-path="url(#p24872fadeb)" d="M 92.290909 334.969802 
L 93.150693 332.609893 
L 100.028968 332.609893 
L 100.888752 325.444082 
L 103.468105 325.444082 
L 104.327889 319.288435 
L 105.187673 319.288435 
L 106.047458 286.942735 
L 106.907242 286.612388 
L 107.767026 281.163758 
L 108.62681 278.491043 
L 108.630068 433 
M 111.202642 433 
L 111.206163 265.933642 
L 112.065948 265.285474 
L 112.925732 254.068656 
L 113.785516 249.760301 
L 114.6453 246.05005 
L 115.505085 229.955578 
L 116.364869 216.693904 
L 117.224653 212.828101 
L 118.084438 209.5114 
L 118.944222 208.445131 
L 119.804006 207.110609 
L 120.66379 199.834086 
L 121.523575 196.747517 
L 123.243143 192.842012 
L 124.962712 190.103898 
L 125.822496 187.896791 
L 126.68228 186.436447 
L 127.542065 185.491209 
L 128.401849 180.609851 
L 130.121418 177.415602 
L 130.981202 176.552619 
L 131.840986 175.353022 
L 132.70077 173.548125 
L 133.560555 172.109974 
L 134.420339 171.616415 
L 135.280123 170.927532 
L 136.139908 170.426625 
L 136.999692 169.790156 
L 137.859476 166.054837 
L 138.71926 165.825692 
L 139.579045 164.69756 
L 142.158398 162.563411 
L 143.018182 158.266478 
L 144.73775 155.962651 
L 145.597535 155.488404 
L 146.457319 154.812059 
L 147.317103 154.567239 
L 148.176888 154.556161 
L 149.896456 153.730487 
L 150.75624 152.567028 
L 151.616025 152.267318 
L 152.475809 150.962492 
L 153.335593 151.149217 
L 154.195378 150.168308 
L 155.914946 149.644919 
L 156.77473 148.444131 
L 157.634515 148.189871 
L 158.494299 147.495323 
L 160.213867 146.813765 
L 161.073652 146.568909 
L 161.933436 143.744336 
L 162.79322 143.192566 
L 163.653005 142.925659 
L 164.512789 142.337002 
L 166.232357 141.770482 
L 168.81171 140.678518 
L 169.671495 139.516735 
L 170.531279 138.989316 
L 171.391063 138.773234 
L 172.250847 138.196403 
L 173.970416 137.743231 
L 174.8302 137.417629 
L 175.689985 137.223984 
L 176.549769 136.804766 
L 179.988906 135.847384 
L 180.84869 135.552184 
L 181.708475 135.387528 
L 182.568259 134.936636 
L 186.007396 134.028739 
L 186.86718 133.718486 
L 187.726965 133.585238 
L 188.586749 133.079371 
L 193.745455 131.87971 
L 195.465023 130.987769 
L 196.324807 130.759625 
L 197.184592 129.544071 
L 198.044376 129.354477 
L 198.90416 127.171411 
L 201.483513 126.357484 
L 204.062866 125.497276 
L 205.782435 125.086129 
L 206.642219 124.641943 
L 207.502003 124.350493 
L 208.361787 123.904954 
L 211.800924 123.020093 
L 213.520493 122.242231 
L 215.240062 121.492094 
L 216.099846 121.09036 
L 217.819414 120.589871 
L 222.118336 118.775811 
L 222.97812 118.486642 
L 223.837904 118.404577 
L 224.697689 117.874049 
L 225.557473 117.693589 
L 226.417257 117.137531 
L 229.856394 116.273974 
L 230.716179 116.126423 
L 232.435747 115.269519 
L 236.734669 114.177148 
L 238.454237 113.622577 
L 241.03359 113.07628 
L 242.753159 112.764918 
L 244.472727 112.216494 
L 247.911864 111.637064 
L 249.631433 111.241738 
L 252.210786 110.605117 
L 268.546687 107.839545 
L 269.406471 107.577244 
L 273.705393 106.917265 
L 275.424961 106.622321 
L 278.004314 106.309722 
L 289.18151 104.527878 
L 290.041294 104.453596 
L 291.760863 104.12331 
L 310.676117 100.709991 
L 313.25547 100.053517 
L 314.115254 99.941236 
L 315.834823 99.445537 
L 319.27396 98.499659 
L 320.133744 98.512098 
L 320.993529 98.098862 
L 321.853313 97.859951 
L 322.713097 97.343432 
L 323.572881 97.215088 
L 325.29245 96.672543 
L 326.152234 96.525501 
L 331.31094 94.826831 
L 332.170724 94.674034 
L 335.609861 93.575793 
L 337.32943 92.819847 
L 338.189214 92.674803 
L 339.048998 92.392396 
L 339.056146 433 
L 339.056146 433 
" style="fill:none;stroke:#ff7f0e;stroke-linecap:square;stroke-width:1.5;"/>
   </g>
   <g id="patch_3">
    <path d="M 72 384.48 
L 72 51.84 
" style="fill:none;stroke:#000000;stroke-linecap:square;stroke-linejoin:miter;stroke-width:0.8;"/>
   </g>
   <g id="patch_4">
    <path d="M 518.4 384.48 
L 518.4 51.84 
" style="fill:none;stroke:#000000;stroke-linecap:square;stroke-linejoin:miter;stroke-width:0.8;"/>
   </g>
   <g id="patch_5">
    <path d="M 72 384.48 
L 518.4 384.48 
" style="fill:none;stroke:#000000;stroke-linecap:square;stroke-linejoin:miter;stroke-width:0.8;"/>
   </g>
   <g id="patch_6">
    <path d="M 72 51.84 
L 518.4 51.84 
" style="fill:none;stroke:#000000;stroke-linecap:square;stroke-linejoin:miter;stroke-width:0.8;"/>
   </g>
   <g id="text_16">
    <!-- Recovered Cases Since Day of More Than 100 Confirmed Cases -->
    <defs>
     <path d="M 53.515625 70.515625 
L 53.515625 60.890625 
Q 47.90625 63.578125 42.921875 64.890625 
Q 37.9375 66.21875 33.296875 66.21875 
Q 25.25 66.21875 20.875 63.09375 
Q 16.5 59.96875 16.5 54.203125 
Q 16.5 49.359375 19.40625 46.890625 
Q 22.3125 44.4375 30.421875 42.921875 
L 36.375 41.703125 
Q 47.40625 39.59375 52.65625 34.296875 
Q 57.90625 29 57.90625 20.125 
Q 57.90625 9.515625 50.796875 4.046875 
Q 43.703125 -1.421875 29.984375 -1.421875 
Q 24.8125 -1.421875 18.96875 -0.25 
Q 13.140625 0.921875 6.890625 3.21875 
L 6.890625 13.375 
Q 12.890625 10.015625 18.65625 8.296875 
Q 24.421875 6.59375 29.984375 6.59375 
Q 38.421875 6.59375 43.015625 9.90625 
Q 47.609375 13.234375 47.609375 19.390625 
Q 47.609375 24.75 44.3125 27.78125 
Q 41.015625 30.8125 33.5 32.328125 
L 27.484375 33.5 
Q 16.453125 35.6875 11.515625 40.375 
Q 6.59375 45.0625 6.59375 53.421875 
Q 6.59375 63.09375 13.40625 68.65625 
Q 20.21875 74.21875 32.171875 74.21875 
Q 37.3125 74.21875 42.625 73.28125 
Q 47.953125 72.359375 53.515625 70.515625 
z
" id="DejaVuSans-83"/>
     <path d="M 9.421875 54.6875 
L 18.40625 54.6875 
L 18.40625 0 
L 9.421875 0 
z
M 9.421875 75.984375 
L 18.40625 75.984375 
L 18.40625 64.59375 
L 9.421875 64.59375 
z
" id="DejaVuSans-105"/>
     <path d="M 54.890625 33.015625 
L 54.890625 0 
L 45.90625 0 
L 45.90625 32.71875 
Q 45.90625 40.484375 42.875 44.328125 
Q 39.84375 48.1875 33.796875 48.1875 
Q 26.515625 48.1875 22.3125 43.546875 
Q 18.109375 38.921875 18.109375 30.90625 
L 18.109375 0 
L 9.078125 0 
L 9.078125 54.6875 
L 18.109375 54.6875 
L 18.109375 46.1875 
Q 21.34375 51.125 25.703125 53.5625 
Q 30.078125 56 35.796875 56 
Q 45.21875 56 50.046875 50.171875 
Q 54.890625 44.34375 54.890625 33.015625 
z
" id="DejaVuSans-110"/>
     <path d="M 37.109375 75.984375 
L 37.109375 68.5 
L 28.515625 68.5 
Q 23.6875 68.5 21.796875 66.546875 
Q 19.921875 64.59375 19.921875 59.515625 
L 19.921875 54.6875 
L 34.71875 54.6875 
L 34.71875 47.703125 
L 19.921875 47.703125 
L 19.921875 0 
L 10.890625 0 
L 10.890625 47.703125 
L 2.296875 47.703125 
L 2.296875 54.6875 
L 10.890625 54.6875 
L 10.890625 58.5 
Q 10.890625 67.625 15.140625 71.796875 
Q 19.390625 75.984375 28.609375 75.984375 
z
" id="DejaVuSans-102"/>
     <path d="M 9.8125 72.90625 
L 24.515625 72.90625 
L 43.109375 23.296875 
L 61.8125 72.90625 
L 76.515625 72.90625 
L 76.515625 0 
L 66.890625 0 
L 66.890625 64.015625 
L 48.09375 14.015625 
L 38.1875 14.015625 
L 19.390625 64.015625 
L 19.390625 0 
L 9.8125 0 
z
" id="DejaVuSans-77"/>
     <path d="M -0.296875 72.90625 
L 61.375 72.90625 
L 61.375 64.59375 
L 35.5 64.59375 
L 35.5 0 
L 25.59375 0 
L 25.59375 64.59375 
L -0.296875 64.59375 
z
" id="DejaVuSans-84"/>
     <path d="M 54.890625 33.015625 
L 54.890625 0 
L 45.90625 0 
L 45.90625 32.71875 
Q 45.90625 40.484375 42.875 44.328125 
Q 39.84375 48.1875 33.796875 48.1875 
Q 26.515625 48.1875 22.3125 43.546875 
Q 18.109375 38.921875 18.109375 30.90625 
L 18.109375 0 
L 9.078125 0 
L 9.078125 75.984375 
L 18.109375 75.984375 
L 18.109375 46.1875 
Q 21.34375 51.125 25.703125 53.5625 
Q 30.078125 56 35.796875 56 
Q 45.21875 56 50.046875 50.171875 
Q 54.890625 44.34375 54.890625 33.015625 
z
" id="DejaVuSans-104"/>
     <path d="M 52 44.1875 
Q 55.375 50.25 60.0625 53.125 
Q 64.75 56 71.09375 56 
Q 79.640625 56 84.28125 50.015625 
Q 88.921875 44.046875 88.921875 33.015625 
L 88.921875 0 
L 79.890625 0 
L 79.890625 32.71875 
Q 79.890625 40.578125 77.09375 44.375 
Q 74.3125 48.1875 68.609375 48.1875 
Q 61.625 48.1875 57.5625 43.546875 
Q 53.515625 38.921875 53.515625 30.90625 
L 53.515625 0 
L 44.484375 0 
L 44.484375 32.71875 
Q 44.484375 40.625 41.703125 44.40625 
Q 38.921875 48.1875 33.109375 48.1875 
Q 26.21875 48.1875 22.15625 43.53125 
Q 18.109375 38.875 18.109375 30.90625 
L 18.109375 0 
L 9.078125 0 
L 9.078125 54.6875 
L 18.109375 54.6875 
L 18.109375 46.1875 
Q 21.1875 51.21875 25.484375 53.609375 
Q 29.78125 56 35.6875 56 
Q 41.65625 56 45.828125 52.96875 
Q 50 49.953125 52 44.1875 
z
" id="DejaVuSans-109"/>
    </defs>
    <g transform="translate(104.460938 45.84)scale(0.12 -0.12)">
     <use xlink:href="#DejaVuSans-82"/>
     <use x="64.982422" xlink:href="#DejaVuSans-101"/>
     <use x="126.505859" xlink:href="#DejaVuSans-99"/>
     <use x="181.486328" xlink:href="#DejaVuSans-111"/>
     <use x="242.667969" xlink:href="#DejaVuSans-118"/>
     <use x="301.847656" xlink:href="#DejaVuSans-101"/>
     <use x="363.371094" xlink:href="#DejaVuSans-114"/>
     <use x="402.234375" xlink:href="#DejaVuSans-101"/>
     <use x="463.757812" xlink:href="#DejaVuSans-100"/>
     <use x="527.234375" xlink:href="#DejaVuSans-32"/>
     <use x="559.021484" xlink:href="#DejaVuSans-67"/>
     <use x="628.845703" xlink:href="#DejaVuSans-97"/>
     <use x="690.125" xlink:href="#DejaVuSans-115"/>
     <use x="742.224609" xlink:href="#DejaVuSans-101"/>
     <use x="803.748047" xlink:href="#DejaVuSans-115"/>
     <use x="855.847656" xlink:href="#DejaVuSans-32"/>
     <use x="887.634766" xlink:href="#DejaVuSans-83"/>
     <use x="951.111328" xlink:href="#DejaVuSans-105"/>
     <use x="978.894531" xlink:href="#DejaVuSans-110"/>
     <use x="1042.273438" xlink:href="#DejaVuSans-99"/>
     <use x="1097.253906" xlink:href="#DejaVuSans-101"/>
     <use x="1158.777344" xlink:href="#DejaVuSans-32"/>
     <use x="1190.564453" xlink:href="#DejaVuSans-68"/>
     <use x="1267.566406" xlink:href="#DejaVuSans-97"/>
     <use x="1328.845703" xlink:href="#DejaVuSans-121"/>
     <use x="1388.025391" xlink:href="#DejaVuSans-32"/>
     <use x="1419.8125" xlink:href="#DejaVuSans-111"/>
     <use x="1480.994141" xlink:href="#DejaVuSans-102"/>
     <use x="1516.199219" xlink:href="#DejaVuSans-32"/>
     <use x="1547.986328" xlink:href="#DejaVuSans-77"/>
     <use x="1634.265625" xlink:href="#DejaVuSans-111"/>
     <use x="1695.447266" xlink:href="#DejaVuSans-114"/>
     <use x="1734.310547" xlink:href="#DejaVuSans-101"/>
     <use x="1795.833984" xlink:href="#DejaVuSans-32"/>
     <use x="1827.621094" xlink:href="#DejaVuSans-84"/>
     <use x="1888.705078" xlink:href="#DejaVuSans-104"/>
     <use x="1952.083984" xlink:href="#DejaVuSans-97"/>
     <use x="2013.363281" xlink:href="#DejaVuSans-110"/>
     <use x="2076.742188" xlink:href="#DejaVuSans-32"/>
     <use x="2108.529297" xlink:href="#DejaVuSans-49"/>
     <use x="2172.152344" xlink:href="#DejaVuSans-48"/>
     <use x="2235.775391" xlink:href="#DejaVuSans-48"/>
     <use x="2299.398438" xlink:href="#DejaVuSans-32"/>
     <use x="2331.185547" xlink:href="#DejaVuSans-67"/>
     <use x="2401.009766" xlink:href="#DejaVuSans-111"/>
     <use x="2462.191406" xlink:href="#DejaVuSans-110"/>
     <use x="2525.570312" xlink:href="#DejaVuSans-102"/>
     <use x="2560.775391" xlink:href="#DejaVuSans-105"/>
     <use x="2588.558594" xlink:href="#DejaVuSans-114"/>
     <use x="2627.921875" xlink:href="#DejaVuSans-109"/>
     <use x="2725.333984" xlink:href="#DejaVuSans-101"/>
     <use x="2786.857422" xlink:href="#DejaVuSans-100"/>
     <use x="2850.333984" xlink:href="#DejaVuSans-32"/>
     <use x="2882.121094" xlink:href="#DejaVuSans-67"/>
     <use x="2951.945312" xlink:href="#DejaVuSans-97"/>
     <use x="3013.224609" xlink:href="#DejaVuSans-115"/>
     <use x="3065.324219" xlink:href="#DejaVuSans-101"/>
     <use x="3126.847656" xlink:href="#DejaVuSans-115"/>
    </g>
   </g>
   <g id="legend_1">
    <g id="patch_7">
     <path d="M 418.815625 379.48 
L 511.4 379.48 
Q 513.4 379.48 513.4 377.48 
L 513.4 202.3425 
Q 513.4 200.3425 511.4 200.3425 
L 418.815625 200.3425 
Q 416.815625 200.3425 416.815625 202.3425 
L 416.815625 377.48 
Q 416.815625 379.48 418.815625 379.48 
z
" style="fill:#ffffff;opacity:0.8;stroke:#cccccc;stroke-linejoin:miter;"/>
    </g>
    <g id="line2d_92">
     <path d="M 420.815625 208.440938 
L 440.815625 208.440938 
" style="fill:none;stroke:#1f77b4;stroke-linecap:square;stroke-width:1.5;"/>
    </g>
    <g id="line2d_93"/>
    <g id="text_17">
     <!-- Afghanistan -->
     <defs>
      <path d="M 34.1875 63.1875 
L 20.796875 26.90625 
L 47.609375 26.90625 
z
M 28.609375 72.90625 
L 39.796875 72.90625 
L 67.578125 0 
L 57.328125 0 
L 50.6875 18.703125 
L 17.828125 18.703125 
L 11.1875 0 
L 0.78125 0 
z
" id="DejaVuSans-65"/>
      <path d="M 45.40625 27.984375 
Q 45.40625 37.75 41.375 43.109375 
Q 37.359375 48.484375 30.078125 48.484375 
Q 22.859375 48.484375 18.828125 43.109375 
Q 14.796875 37.75 14.796875 27.984375 
Q 14.796875 18.265625 18.828125 12.890625 
Q 22.859375 7.515625 30.078125 7.515625 
Q 37.359375 7.515625 41.375 12.890625 
Q 45.40625 18.265625 45.40625 27.984375 
z
M 54.390625 6.78125 
Q 54.390625 -7.171875 48.1875 -13.984375 
Q 42 -20.796875 29.203125 -20.796875 
Q 24.46875 -20.796875 20.265625 -20.09375 
Q 16.0625 -19.390625 12.109375 -17.921875 
L 12.109375 -9.1875 
Q 16.0625 -11.328125 19.921875 -12.34375 
Q 23.78125 -13.375 27.78125 -13.375 
Q 36.625 -13.375 41.015625 -8.765625 
Q 45.40625 -4.15625 45.40625 5.171875 
L 45.40625 9.625 
Q 42.625 4.78125 38.28125 2.390625 
Q 33.9375 0 27.875 0 
Q 17.828125 0 11.671875 7.65625 
Q 5.515625 15.328125 5.515625 27.984375 
Q 5.515625 40.671875 11.671875 48.328125 
Q 17.828125 56 27.875 56 
Q 33.9375 56 38.28125 53.609375 
Q 42.625 51.21875 45.40625 46.390625 
L 45.40625 54.6875 
L 54.390625 54.6875 
z
" id="DejaVuSans-103"/>
      <path d="M 18.3125 70.21875 
L 18.3125 54.6875 
L 36.8125 54.6875 
L 36.8125 47.703125 
L 18.3125 47.703125 
L 18.3125 18.015625 
Q 18.3125 11.328125 20.140625 9.421875 
Q 21.96875 7.515625 27.59375 7.515625 
L 36.8125 7.515625 
L 36.8125 0 
L 27.59375 0 
Q 17.1875 0 13.234375 3.875 
Q 9.28125 7.765625 9.28125 18.015625 
L 9.28125 47.703125 
L 2.6875 47.703125 
L 2.6875 54.6875 
L 9.28125 54.6875 
L 9.28125 70.21875 
z
" id="DejaVuSans-116"/>
     </defs>
     <g transform="translate(448.815625 211.940938)scale(0.1 -0.1)">
      <use xlink:href="#DejaVuSans-65"/>
      <use x="64.783203" xlink:href="#DejaVuSans-102"/>
      <use x="99.988281" xlink:href="#DejaVuSans-103"/>
      <use x="163.464844" xlink:href="#DejaVuSans-104"/>
      <use x="226.84375" xlink:href="#DejaVuSans-97"/>
      <use x="288.123047" xlink:href="#DejaVuSans-110"/>
      <use x="351.501953" xlink:href="#DejaVuSans-105"/>
      <use x="379.285156" xlink:href="#DejaVuSans-115"/>
      <use x="431.384766" xlink:href="#DejaVuSans-116"/>
      <use x="470.59375" xlink:href="#DejaVuSans-97"/>
      <use x="531.873047" xlink:href="#DejaVuSans-110"/>
     </g>
    </g>
    <g id="line2d_94">
     <path d="M 420.815625 223.119063 
L 440.815625 223.119063 
" style="fill:none;stroke:#ff7f0e;stroke-linecap:square;stroke-width:1.5;"/>
    </g>
    <g id="line2d_95"/>
    <g id="text_18">
     <!-- Bangladesh -->
     <defs>
      <path d="M 19.671875 34.8125 
L 19.671875 8.109375 
L 35.5 8.109375 
Q 43.453125 8.109375 47.28125 11.40625 
Q 51.125 14.703125 51.125 21.484375 
Q 51.125 28.328125 47.28125 31.5625 
Q 43.453125 34.8125 35.5 34.8125 
z
M 19.671875 64.796875 
L 19.671875 42.828125 
L 34.28125 42.828125 
Q 41.5 42.828125 45.03125 45.53125 
Q 48.578125 48.25 48.578125 53.8125 
Q 48.578125 59.328125 45.03125 62.0625 
Q 41.5 64.796875 34.28125 64.796875 
z
M 9.8125 72.90625 
L 35.015625 72.90625 
Q 46.296875 72.90625 52.390625 68.21875 
Q 58.5 63.53125 58.5 54.890625 
Q 58.5 48.1875 55.375 44.234375 
Q 52.25 40.28125 46.1875 39.3125 
Q 53.46875 37.75 57.5 32.78125 
Q 61.53125 27.828125 61.53125 20.40625 
Q 61.53125 10.640625 54.890625 5.3125 
Q 48.25 0 35.984375 0 
L 9.8125 0 
z
" id="DejaVuSans-66"/>
      <path d="M 9.421875 75.984375 
L 18.40625 75.984375 
L 18.40625 0 
L 9.421875 0 
z
" id="DejaVuSans-108"/>
     </defs>
     <g transform="translate(448.815625 226.619063)scale(0.1 -0.1)">
      <use xlink:href="#DejaVuSans-66"/>
      <use x="68.603516" xlink:href="#DejaVuSans-97"/>
      <use x="129.882812" xlink:href="#DejaVuSans-110"/>
      <use x="193.261719" xlink:href="#DejaVuSans-103"/>
      <use x="256.738281" xlink:href="#DejaVuSans-108"/>
      <use x="284.521484" xlink:href="#DejaVuSans-97"/>
      <use x="345.800781" xlink:href="#DejaVuSans-100"/>
      <use x="409.277344" xlink:href="#DejaVuSans-101"/>
      <use x="470.800781" xlink:href="#DejaVuSans-115"/>
      <use x="522.900391" xlink:href="#DejaVuSans-104"/>
     </g>
    </g>
    <g id="line2d_96">
     <path d="M 420.815625 237.797188 
L 440.815625 237.797188 
" style="fill:none;stroke:#2ca02c;stroke-linecap:square;stroke-width:1.5;"/>
    </g>
    <g id="line2d_97"/>
    <g id="text_19">
     <!-- Belarus -->
     <defs>
      <path d="M 8.5 21.578125 
L 8.5 54.6875 
L 17.484375 54.6875 
L 17.484375 21.921875 
Q 17.484375 14.15625 20.5 10.265625 
Q 23.53125 6.390625 29.59375 6.390625 
Q 36.859375 6.390625 41.078125 11.03125 
Q 45.3125 15.671875 45.3125 23.6875 
L 45.3125 54.6875 
L 54.296875 54.6875 
L 54.296875 0 
L 45.3125 0 
L 45.3125 8.40625 
Q 42.046875 3.421875 37.71875 1 
Q 33.40625 -1.421875 27.6875 -1.421875 
Q 18.265625 -1.421875 13.375 4.4375 
Q 8.5 10.296875 8.5 21.578125 
z
M 31.109375 56 
z
" id="DejaVuSans-117"/>
     </defs>
     <g transform="translate(448.815625 241.297188)scale(0.1 -0.1)">
      <use xlink:href="#DejaVuSans-66"/>
      <use x="68.603516" xlink:href="#DejaVuSans-101"/>
      <use x="130.126953" xlink:href="#DejaVuSans-108"/>
      <use x="157.910156" xlink:href="#DejaVuSans-97"/>
      <use x="219.189453" xlink:href="#DejaVuSans-114"/>
      <use x="260.302734" xlink:href="#DejaVuSans-117"/>
      <use x="323.681641" xlink:href="#DejaVuSans-115"/>
     </g>
    </g>
    <g id="line2d_98">
     <path d="M 420.815625 252.475313 
L 440.815625 252.475313 
" style="fill:none;stroke:#d62728;stroke-linecap:square;stroke-width:1.5;"/>
    </g>
    <g id="line2d_99"/>
    <g id="text_20">
     <!-- Germany -->
     <defs>
      <path d="M 59.515625 10.40625 
L 59.515625 29.984375 
L 43.40625 29.984375 
L 43.40625 38.09375 
L 69.28125 38.09375 
L 69.28125 6.78125 
Q 63.578125 2.734375 56.6875 0.65625 
Q 49.8125 -1.421875 42 -1.421875 
Q 24.90625 -1.421875 15.25 8.5625 
Q 5.609375 18.5625 5.609375 36.375 
Q 5.609375 54.25 15.25 64.234375 
Q 24.90625 74.21875 42 74.21875 
Q 49.125 74.21875 55.546875 72.453125 
Q 61.96875 70.703125 67.390625 67.28125 
L 67.390625 56.78125 
Q 61.921875 61.421875 55.765625 63.765625 
Q 49.609375 66.109375 42.828125 66.109375 
Q 29.4375 66.109375 22.71875 58.640625 
Q 16.015625 51.171875 16.015625 36.375 
Q 16.015625 21.625 22.71875 14.15625 
Q 29.4375 6.6875 42.828125 6.6875 
Q 48.046875 6.6875 52.140625 7.59375 
Q 56.25 8.5 59.515625 10.40625 
z
" id="DejaVuSans-71"/>
     </defs>
     <g transform="translate(448.815625 255.975313)scale(0.1 -0.1)">
      <use xlink:href="#DejaVuSans-71"/>
      <use x="77.490234" xlink:href="#DejaVuSans-101"/>
      <use x="139.013672" xlink:href="#DejaVuSans-114"/>
      <use x="178.376953" xlink:href="#DejaVuSans-109"/>
      <use x="275.789062" xlink:href="#DejaVuSans-97"/>
      <use x="337.068359" xlink:href="#DejaVuSans-110"/>
      <use x="400.447266" xlink:href="#DejaVuSans-121"/>
     </g>
    </g>
    <g id="line2d_100">
     <path d="M 420.815625 267.153438 
L 440.815625 267.153438 
" style="fill:none;stroke:#9467bd;stroke-linecap:square;stroke-width:1.5;"/>
    </g>
    <g id="line2d_101"/>
    <g id="text_21">
     <!-- India -->
     <defs>
      <path d="M 9.8125 72.90625 
L 19.671875 72.90625 
L 19.671875 0 
L 9.8125 0 
z
" id="DejaVuSans-73"/>
     </defs>
     <g transform="translate(448.815625 270.653438)scale(0.1 -0.1)">
      <use xlink:href="#DejaVuSans-73"/>
      <use x="29.492188" xlink:href="#DejaVuSans-110"/>
      <use x="92.871094" xlink:href="#DejaVuSans-100"/>
      <use x="156.347656" xlink:href="#DejaVuSans-105"/>
      <use x="184.130859" xlink:href="#DejaVuSans-97"/>
     </g>
    </g>
    <g id="line2d_102">
     <path d="M 420.815625 281.831563 
L 440.815625 281.831563 
" style="fill:none;stroke:#8c564b;stroke-linecap:square;stroke-width:1.5;"/>
    </g>
    <g id="line2d_103"/>
    <g id="text_22">
     <!-- Indonesia -->
     <g transform="translate(448.815625 285.331563)scale(0.1 -0.1)">
      <use xlink:href="#DejaVuSans-73"/>
      <use x="29.492188" xlink:href="#DejaVuSans-110"/>
      <use x="92.871094" xlink:href="#DejaVuSans-100"/>
      <use x="156.347656" xlink:href="#DejaVuSans-111"/>
      <use x="217.529297" xlink:href="#DejaVuSans-110"/>
      <use x="280.908203" xlink:href="#DejaVuSans-101"/>
      <use x="342.431641" xlink:href="#DejaVuSans-115"/>
      <use x="394.53125" xlink:href="#DejaVuSans-105"/>
      <use x="422.314453" xlink:href="#DejaVuSans-97"/>
     </g>
    </g>
    <g id="line2d_104">
     <path d="M 420.815625 296.509688 
L 440.815625 296.509688 
" style="fill:none;stroke:#e377c2;stroke-linecap:square;stroke-width:1.5;"/>
    </g>
    <g id="line2d_105"/>
    <g id="text_23">
     <!-- Iran -->
     <g transform="translate(448.815625 300.009688)scale(0.1 -0.1)">
      <use xlink:href="#DejaVuSans-73"/>
      <use x="29.492188" xlink:href="#DejaVuSans-114"/>
      <use x="70.605469" xlink:href="#DejaVuSans-97"/>
      <use x="131.884766" xlink:href="#DejaVuSans-110"/>
     </g>
    </g>
    <g id="line2d_106">
     <path d="M 420.815625 311.187813 
L 440.815625 311.187813 
" style="fill:none;stroke:#7f7f7f;stroke-linecap:square;stroke-width:1.5;"/>
    </g>
    <g id="line2d_107"/>
    <g id="text_24">
     <!-- Italy -->
     <g transform="translate(448.815625 314.687813)scale(0.1 -0.1)">
      <use xlink:href="#DejaVuSans-73"/>
      <use x="29.492188" xlink:href="#DejaVuSans-116"/>
      <use x="68.701172" xlink:href="#DejaVuSans-97"/>
      <use x="129.980469" xlink:href="#DejaVuSans-108"/>
      <use x="157.763672" xlink:href="#DejaVuSans-121"/>
     </g>
    </g>
    <g id="line2d_108">
     <path d="M 420.815625 325.865938 
L 440.815625 325.865938 
" style="fill:none;stroke:#bcbd22;stroke-linecap:square;stroke-width:1.5;"/>
    </g>
    <g id="line2d_109"/>
    <g id="text_25">
     <!-- Korea,South -->
     <defs>
      <path d="M 9.8125 72.90625 
L 19.671875 72.90625 
L 19.671875 42.09375 
L 52.390625 72.90625 
L 65.09375 72.90625 
L 28.90625 38.921875 
L 67.671875 0 
L 54.6875 0 
L 19.671875 35.109375 
L 19.671875 0 
L 9.8125 0 
z
" id="DejaVuSans-75"/>
     </defs>
     <g transform="translate(448.815625 329.365938)scale(0.1 -0.1)">
      <use xlink:href="#DejaVuSans-75"/>
      <use x="60.576172" xlink:href="#DejaVuSans-111"/>
      <use x="121.757812" xlink:href="#DejaVuSans-114"/>
      <use x="160.621094" xlink:href="#DejaVuSans-101"/>
      <use x="222.144531" xlink:href="#DejaVuSans-97"/>
      <use x="283.423828" xlink:href="#DejaVuSans-44"/>
      <use x="315.210938" xlink:href="#DejaVuSans-83"/>
      <use x="378.6875" xlink:href="#DejaVuSans-111"/>
      <use x="439.869141" xlink:href="#DejaVuSans-117"/>
      <use x="503.248047" xlink:href="#DejaVuSans-116"/>
      <use x="542.457031" xlink:href="#DejaVuSans-104"/>
     </g>
    </g>
    <g id="line2d_110">
     <path d="M 420.815625 340.544062 
L 440.815625 340.544062 
" style="fill:none;stroke:#17becf;stroke-linecap:square;stroke-width:1.5;"/>
    </g>
    <g id="line2d_111"/>
    <g id="text_26">
     <!-- Pakistan -->
     <defs>
      <path d="M 19.671875 64.796875 
L 19.671875 37.40625 
L 32.078125 37.40625 
Q 38.96875 37.40625 42.71875 40.96875 
Q 46.484375 44.53125 46.484375 51.125 
Q 46.484375 57.671875 42.71875 61.234375 
Q 38.96875 64.796875 32.078125 64.796875 
z
M 9.8125 72.90625 
L 32.078125 72.90625 
Q 44.34375 72.90625 50.609375 67.359375 
Q 56.890625 61.8125 56.890625 51.125 
Q 56.890625 40.328125 50.609375 34.8125 
Q 44.34375 29.296875 32.078125 29.296875 
L 19.671875 29.296875 
L 19.671875 0 
L 9.8125 0 
z
" id="DejaVuSans-80"/>
      <path d="M 9.078125 75.984375 
L 18.109375 75.984375 
L 18.109375 31.109375 
L 44.921875 54.6875 
L 56.390625 54.6875 
L 27.390625 29.109375 
L 57.625 0 
L 45.90625 0 
L 18.109375 26.703125 
L 18.109375 0 
L 9.078125 0 
z
" id="DejaVuSans-107"/>
     </defs>
     <g transform="translate(448.815625 344.044062)scale(0.1 -0.1)">
      <use xlink:href="#DejaVuSans-80"/>
      <use x="55.802734" xlink:href="#DejaVuSans-97"/>
      <use x="117.082031" xlink:href="#DejaVuSans-107"/>
      <use x="174.992188" xlink:href="#DejaVuSans-105"/>
      <use x="202.775391" xlink:href="#DejaVuSans-115"/>
      <use x="254.875" xlink:href="#DejaVuSans-116"/>
      <use x="294.083984" xlink:href="#DejaVuSans-97"/>
      <use x="355.363281" xlink:href="#DejaVuSans-110"/>
     </g>
    </g>
    <g id="line2d_112">
     <path d="M 420.815625 355.222188 
L 440.815625 355.222188 
" style="fill:none;stroke:#1f77b4;stroke-linecap:square;stroke-width:1.5;"/>
    </g>
    <g id="line2d_113"/>
    <g id="text_27">
     <!-- Turkey -->
     <g transform="translate(448.815625 358.722188)scale(0.1 -0.1)">
      <use xlink:href="#DejaVuSans-84"/>
      <use x="45.958984" xlink:href="#DejaVuSans-117"/>
      <use x="109.337891" xlink:href="#DejaVuSans-114"/>
      <use x="150.451172" xlink:href="#DejaVuSans-107"/>
      <use x="204.736328" xlink:href="#DejaVuSans-101"/>
      <use x="266.259766" xlink:href="#DejaVuSans-121"/>
     </g>
    </g>
    <g id="line2d_114">
     <path d="M 420.815625 369.900312 
L 440.815625 369.900312 
" style="fill:none;stroke:#ff7f0e;stroke-linecap:square;stroke-width:1.5;"/>
    </g>
    <g id="line2d_115"/>
    <g id="text_28">
     <!-- US -->
     <defs>
      <path d="M 8.6875 72.90625 
L 18.609375 72.90625 
L 18.609375 28.609375 
Q 18.609375 16.890625 22.84375 11.734375 
Q 27.09375 6.59375 36.625 6.59375 
Q 46.09375 6.59375 50.34375 11.734375 
Q 54.59375 16.890625 54.59375 28.609375 
L 54.59375 72.90625 
L 64.5 72.90625 
L 64.5 27.390625 
Q 64.5 13.140625 57.4375 5.859375 
Q 50.390625 -1.421875 36.625 -1.421875 
Q 22.796875 -1.421875 15.734375 5.859375 
Q 8.6875 13.140625 8.6875 27.390625 
z
" id="DejaVuSans-85"/>
     </defs>
     <g transform="translate(448.815625 373.400312)scale(0.1 -0.1)">
      <use xlink:href="#DejaVuSans-85"/>
      <use x="73.193359" xlink:href="#DejaVuSans-83"/>
     </g>
    </g>
   </g>
  </g>
 </g>
 <defs>
  <clipPath id="p24872fadeb">
   <rect height="332.64" width="446.4" x="72" y="51.84"/>
  </clipPath>
 </defs>
</svg>
