<?xml version="1.0" encoding="utf-8" standalone="no"?>
<!DOCTYPE svg PUBLIC "-//W3C//DTD SVG 1.1//EN"
  "http://www.w3.org/Graphics/SVG/1.1/DTD/svg11.dtd">
<!-- Created with matplotlib (https://matplotlib.org/) -->
<svg height="432pt" version="1.1" viewBox="0 0 576 432" width="576pt" xmlns="http://www.w3.org/2000/svg" xmlns:xlink="http://www.w3.org/1999/xlink">
 <defs>
  <style type="text/css">
*{stroke-linecap:butt;stroke-linejoin:round;}
  </style>
 </defs>
 <g id="figure_1">
  <g id="patch_1">
   <path d="M 0 432 
L 576 432 
L 576 0 
L 0 0 
z
" style="fill:#ffffff;"/>
  </g>
  <g id="axes_1">
   <g id="patch_2">
    <path d="M 72 384.48 
L 518.4 384.48 
L 518.4 51.84 
L 72 51.84 
z
" style="fill:#ffffff;"/>
   </g>
   <g id="matplotlib.axis_1">
    <g id="xtick_1">
     <g id="line2d_1">
      <defs>
       <path d="M 0 0 
L 0 3.5 
" id="m63be5edafd" style="stroke:#000000;stroke-width:0.8;"/>
      </defs>
      <g>
       <use style="stroke:#000000;stroke-width:0.8;" x="92.290909" xlink:href="#m63be5edafd" y="384.48"/>
      </g>
     </g>
     <g id="text_1">
      <!-- 0 -->
      <defs>
       <path d="M 31.78125 66.40625 
Q 24.171875 66.40625 20.328125 58.90625 
Q 16.5 51.421875 16.5 36.375 
Q 16.5 21.390625 20.328125 13.890625 
Q 24.171875 6.390625 31.78125 6.390625 
Q 39.453125 6.390625 43.28125 13.890625 
Q 47.125 21.390625 47.125 36.375 
Q 47.125 51.421875 43.28125 58.90625 
Q 39.453125 66.40625 31.78125 66.40625 
z
M 31.78125 74.21875 
Q 44.046875 74.21875 50.515625 64.515625 
Q 56.984375 54.828125 56.984375 36.375 
Q 56.984375 17.96875 50.515625 8.265625 
Q 44.046875 -1.421875 31.78125 -1.421875 
Q 19.53125 -1.421875 13.0625 8.265625 
Q 6.59375 17.96875 6.59375 36.375 
Q 6.59375 54.828125 13.0625 64.515625 
Q 19.53125 74.21875 31.78125 74.21875 
z
" id="DejaVuSans-48"/>
      </defs>
      <g transform="translate(89.109659 399.078438)scale(0.1 -0.1)">
       <use xlink:href="#DejaVuSans-48"/>
      </g>
     </g>
    </g>
    <g id="xtick_2">
     <g id="line2d_2">
      <g>
       <use style="stroke:#000000;stroke-width:0.8;" x="147.429249" xlink:href="#m63be5edafd" y="384.48"/>
      </g>
     </g>
     <g id="text_2">
      <!-- 25 -->
      <defs>
       <path d="M 19.1875 8.296875 
L 53.609375 8.296875 
L 53.609375 0 
L 7.328125 0 
L 7.328125 8.296875 
Q 12.9375 14.109375 22.625 23.890625 
Q 32.328125 33.6875 34.8125 36.53125 
Q 39.546875 41.84375 41.421875 45.53125 
Q 43.3125 49.21875 43.3125 52.78125 
Q 43.3125 58.59375 39.234375 62.25 
Q 35.15625 65.921875 28.609375 65.921875 
Q 23.96875 65.921875 18.8125 64.3125 
Q 13.671875 62.703125 7.8125 59.421875 
L 7.8125 69.390625 
Q 13.765625 71.78125 18.9375 73 
Q 24.125 74.21875 28.421875 74.21875 
Q 39.75 74.21875 46.484375 68.546875 
Q 53.21875 62.890625 53.21875 53.421875 
Q 53.21875 48.921875 51.53125 44.890625 
Q 49.859375 40.875 45.40625 35.40625 
Q 44.1875 33.984375 37.640625 27.21875 
Q 31.109375 20.453125 19.1875 8.296875 
z
" id="DejaVuSans-50"/>
       <path d="M 10.796875 72.90625 
L 49.515625 72.90625 
L 49.515625 64.59375 
L 19.828125 64.59375 
L 19.828125 46.734375 
Q 21.96875 47.46875 24.109375 47.828125 
Q 26.265625 48.1875 28.421875 48.1875 
Q 40.625 48.1875 47.75 41.5 
Q 54.890625 34.8125 54.890625 23.390625 
Q 54.890625 11.625 47.5625 5.09375 
Q 40.234375 -1.421875 26.90625 -1.421875 
Q 22.3125 -1.421875 17.546875 -0.640625 
Q 12.796875 0.140625 7.71875 1.703125 
L 7.71875 11.625 
Q 12.109375 9.234375 16.796875 8.0625 
Q 21.484375 6.890625 26.703125 6.890625 
Q 35.15625 6.890625 40.078125 11.328125 
Q 45.015625 15.765625 45.015625 23.390625 
Q 45.015625 31 40.078125 35.4375 
Q 35.15625 39.890625 26.703125 39.890625 
Q 22.75 39.890625 18.8125 39.015625 
Q 14.890625 38.140625 10.796875 36.28125 
z
" id="DejaVuSans-53"/>
      </defs>
      <g transform="translate(141.066749 399.078438)scale(0.1 -0.1)">
       <use xlink:href="#DejaVuSans-50"/>
       <use x="63.623047" xlink:href="#DejaVuSans-53"/>
      </g>
     </g>
    </g>
    <g id="xtick_3">
     <g id="line2d_3">
      <g>
       <use style="stroke:#000000;stroke-width:0.8;" x="202.567589" xlink:href="#m63be5edafd" y="384.48"/>
      </g>
     </g>
     <g id="text_3">
      <!-- 50 -->
      <g transform="translate(196.205089 399.078438)scale(0.1 -0.1)">
       <use xlink:href="#DejaVuSans-53"/>
       <use x="63.623047" xlink:href="#DejaVuSans-48"/>
      </g>
     </g>
    </g>
    <g id="xtick_4">
     <g id="line2d_4">
      <g>
       <use style="stroke:#000000;stroke-width:0.8;" x="257.705929" xlink:href="#m63be5edafd" y="384.48"/>
      </g>
     </g>
     <g id="text_4">
      <!-- 75 -->
      <defs>
       <path d="M 8.203125 72.90625 
L 55.078125 72.90625 
L 55.078125 68.703125 
L 28.609375 0 
L 18.3125 0 
L 43.21875 64.59375 
L 8.203125 64.59375 
z
" id="DejaVuSans-55"/>
      </defs>
      <g transform="translate(251.343429 399.078438)scale(0.1 -0.1)">
       <use xlink:href="#DejaVuSans-55"/>
       <use x="63.623047" xlink:href="#DejaVuSans-53"/>
      </g>
     </g>
    </g>
    <g id="xtick_5">
     <g id="line2d_5">
      <g>
       <use style="stroke:#000000;stroke-width:0.8;" x="312.844269" xlink:href="#m63be5edafd" y="384.48"/>
      </g>
     </g>
     <g id="text_5">
      <!-- 100 -->
      <defs>
       <path d="M 12.40625 8.296875 
L 28.515625 8.296875 
L 28.515625 63.921875 
L 10.984375 60.40625 
L 10.984375 69.390625 
L 28.421875 72.90625 
L 38.28125 72.90625 
L 38.28125 8.296875 
L 54.390625 8.296875 
L 54.390625 0 
L 12.40625 0 
z
" id="DejaVuSans-49"/>
      </defs>
      <g transform="translate(303.300519 399.078438)scale(0.1 -0.1)">
       <use xlink:href="#DejaVuSans-49"/>
       <use x="63.623047" xlink:href="#DejaVuSans-48"/>
       <use x="127.246094" xlink:href="#DejaVuSans-48"/>
      </g>
     </g>
    </g>
    <g id="xtick_6">
     <g id="line2d_6">
      <g>
       <use style="stroke:#000000;stroke-width:0.8;" x="367.982609" xlink:href="#m63be5edafd" y="384.48"/>
      </g>
     </g>
     <g id="text_6">
      <!-- 125 -->
      <g transform="translate(358.438859 399.078438)scale(0.1 -0.1)">
       <use xlink:href="#DejaVuSans-49"/>
       <use x="63.623047" xlink:href="#DejaVuSans-50"/>
       <use x="127.246094" xlink:href="#DejaVuSans-53"/>
      </g>
     </g>
    </g>
    <g id="xtick_7">
     <g id="line2d_7">
      <g>
       <use style="stroke:#000000;stroke-width:0.8;" x="423.120949" xlink:href="#m63be5edafd" y="384.48"/>
      </g>
     </g>
     <g id="text_7">
      <!-- 150 -->
      <g transform="translate(413.577199 399.078438)scale(0.1 -0.1)">
       <use xlink:href="#DejaVuSans-49"/>
       <use x="63.623047" xlink:href="#DejaVuSans-53"/>
       <use x="127.246094" xlink:href="#DejaVuSans-48"/>
      </g>
     </g>
    </g>
    <g id="xtick_8">
     <g id="line2d_8">
      <g>
       <use style="stroke:#000000;stroke-width:0.8;" x="478.259289" xlink:href="#m63be5edafd" y="384.48"/>
      </g>
     </g>
     <g id="text_8">
      <!-- 175 -->
      <g transform="translate(468.715539 399.078438)scale(0.1 -0.1)">
       <use xlink:href="#DejaVuSans-49"/>
       <use x="63.623047" xlink:href="#DejaVuSans-55"/>
       <use x="127.246094" xlink:href="#DejaVuSans-53"/>
      </g>
     </g>
    </g>
    <g id="text_9">
     <!-- Days -->
     <defs>
      <path d="M 19.671875 64.796875 
L 19.671875 8.109375 
L 31.59375 8.109375 
Q 46.6875 8.109375 53.6875 14.9375 
Q 60.6875 21.78125 60.6875 36.53125 
Q 60.6875 51.171875 53.6875 57.984375 
Q 46.6875 64.796875 31.59375 64.796875 
z
M 9.8125 72.90625 
L 30.078125 72.90625 
Q 51.265625 72.90625 61.171875 64.09375 
Q 71.09375 55.28125 71.09375 36.53125 
Q 71.09375 17.671875 61.125 8.828125 
Q 51.171875 0 30.078125 0 
L 9.8125 0 
z
" id="DejaVuSans-68"/>
      <path d="M 34.28125 27.484375 
Q 23.390625 27.484375 19.1875 25 
Q 14.984375 22.515625 14.984375 16.5 
Q 14.984375 11.71875 18.140625 8.90625 
Q 21.296875 6.109375 26.703125 6.109375 
Q 34.1875 6.109375 38.703125 11.40625 
Q 43.21875 16.703125 43.21875 25.484375 
L 43.21875 27.484375 
z
M 52.203125 31.203125 
L 52.203125 0 
L 43.21875 0 
L 43.21875 8.296875 
Q 40.140625 3.328125 35.546875 0.953125 
Q 30.953125 -1.421875 24.3125 -1.421875 
Q 15.921875 -1.421875 10.953125 3.296875 
Q 6 8.015625 6 15.921875 
Q 6 25.140625 12.171875 29.828125 
Q 18.359375 34.515625 30.609375 34.515625 
L 43.21875 34.515625 
L 43.21875 35.40625 
Q 43.21875 41.609375 39.140625 45 
Q 35.0625 48.390625 27.6875 48.390625 
Q 23 48.390625 18.546875 47.265625 
Q 14.109375 46.140625 10.015625 43.890625 
L 10.015625 52.203125 
Q 14.9375 54.109375 19.578125 55.046875 
Q 24.21875 56 28.609375 56 
Q 40.484375 56 46.34375 49.84375 
Q 52.203125 43.703125 52.203125 31.203125 
z
" id="DejaVuSans-97"/>
      <path d="M 32.171875 -5.078125 
Q 28.375 -14.84375 24.75 -17.8125 
Q 21.140625 -20.796875 15.09375 -20.796875 
L 7.90625 -20.796875 
L 7.90625 -13.28125 
L 13.1875 -13.28125 
Q 16.890625 -13.28125 18.9375 -11.515625 
Q 21 -9.765625 23.484375 -3.21875 
L 25.09375 0.875 
L 2.984375 54.6875 
L 12.5 54.6875 
L 29.59375 11.921875 
L 46.6875 54.6875 
L 56.203125 54.6875 
z
" id="DejaVuSans-121"/>
      <path d="M 44.28125 53.078125 
L 44.28125 44.578125 
Q 40.484375 46.53125 36.375 47.5 
Q 32.28125 48.484375 27.875 48.484375 
Q 21.1875 48.484375 17.84375 46.4375 
Q 14.5 44.390625 14.5 40.28125 
Q 14.5 37.15625 16.890625 35.375 
Q 19.28125 33.59375 26.515625 31.984375 
L 29.59375 31.296875 
Q 39.15625 29.25 43.1875 25.515625 
Q 47.21875 21.78125 47.21875 15.09375 
Q 47.21875 7.46875 41.1875 3.015625 
Q 35.15625 -1.421875 24.609375 -1.421875 
Q 20.21875 -1.421875 15.453125 -0.5625 
Q 10.6875 0.296875 5.421875 2 
L 5.421875 11.28125 
Q 10.40625 8.6875 15.234375 7.390625 
Q 20.0625 6.109375 24.8125 6.109375 
Q 31.15625 6.109375 34.5625 8.28125 
Q 37.984375 10.453125 37.984375 14.40625 
Q 37.984375 18.0625 35.515625 20.015625 
Q 33.0625 21.96875 24.703125 23.78125 
L 21.578125 24.515625 
Q 13.234375 26.265625 9.515625 29.90625 
Q 5.8125 33.546875 5.8125 39.890625 
Q 5.8125 47.609375 11.28125 51.796875 
Q 16.75 56 26.8125 56 
Q 31.78125 56 36.171875 55.265625 
Q 40.578125 54.546875 44.28125 53.078125 
z
" id="DejaVuSans-115"/>
     </defs>
     <g transform="translate(282.721875 412.756563)scale(0.1 -0.1)">
      <use xlink:href="#DejaVuSans-68"/>
      <use x="77.001953" xlink:href="#DejaVuSans-97"/>
      <use x="138.28125" xlink:href="#DejaVuSans-121"/>
      <use x="197.460938" xlink:href="#DejaVuSans-115"/>
     </g>
    </g>
   </g>
   <g id="matplotlib.axis_2">
    <g id="ytick_1">
     <g id="line2d_9">
      <defs>
       <path d="M 0 0 
L -3.5 0 
" id="mfe8dee0784" style="stroke:#000000;stroke-width:0.8;"/>
      </defs>
      <g>
       <use style="stroke:#000000;stroke-width:0.8;" x="72" xlink:href="#mfe8dee0784" y="369.367592"/>
      </g>
     </g>
     <g id="text_10">
      <!-- 0.00 % -->
      <defs>
       <path d="M 10.6875 12.40625 
L 21 12.40625 
L 21 0 
L 10.6875 0 
z
" id="DejaVuSans-46"/>
       <path id="DejaVuSans-32"/>
       <path d="M 72.703125 32.078125 
Q 68.453125 32.078125 66.03125 28.46875 
Q 63.625 24.859375 63.625 18.40625 
Q 63.625 12.0625 66.03125 8.421875 
Q 68.453125 4.78125 72.703125 4.78125 
Q 76.859375 4.78125 79.265625 8.421875 
Q 81.6875 12.0625 81.6875 18.40625 
Q 81.6875 24.8125 79.265625 28.4375 
Q 76.859375 32.078125 72.703125 32.078125 
z
M 72.703125 38.28125 
Q 80.421875 38.28125 84.953125 32.90625 
Q 89.5 27.546875 89.5 18.40625 
Q 89.5 9.28125 84.9375 3.921875 
Q 80.375 -1.421875 72.703125 -1.421875 
Q 64.890625 -1.421875 60.34375 3.921875 
Q 55.8125 9.28125 55.8125 18.40625 
Q 55.8125 27.59375 60.375 32.9375 
Q 64.9375 38.28125 72.703125 38.28125 
z
M 22.3125 68.015625 
Q 18.109375 68.015625 15.6875 64.375 
Q 13.28125 60.75 13.28125 54.390625 
Q 13.28125 47.953125 15.671875 44.328125 
Q 18.0625 40.71875 22.3125 40.71875 
Q 26.5625 40.71875 28.96875 44.328125 
Q 31.390625 47.953125 31.390625 54.390625 
Q 31.390625 60.6875 28.953125 64.34375 
Q 26.515625 68.015625 22.3125 68.015625 
z
M 66.40625 74.21875 
L 74.21875 74.21875 
L 28.609375 -1.421875 
L 20.796875 -1.421875 
z
M 22.3125 74.21875 
Q 30.03125 74.21875 34.609375 68.875 
Q 39.203125 63.53125 39.203125 54.390625 
Q 39.203125 45.171875 34.640625 39.84375 
Q 30.078125 34.515625 22.3125 34.515625 
Q 14.546875 34.515625 10.03125 39.859375 
Q 5.515625 45.21875 5.515625 54.390625 
Q 5.515625 63.484375 10.046875 68.84375 
Q 14.59375 74.21875 22.3125 74.21875 
z
" id="DejaVuSans-37"/>
      </defs>
      <g transform="translate(30.054688 373.166811)scale(0.1 -0.1)">
       <use xlink:href="#DejaVuSans-48"/>
       <use x="63.623047" xlink:href="#DejaVuSans-46"/>
       <use x="95.410156" xlink:href="#DejaVuSans-48"/>
       <use x="159.033203" xlink:href="#DejaVuSans-48"/>
       <use x="222.65625" xlink:href="#DejaVuSans-32"/>
       <use x="254.443359" xlink:href="#DejaVuSans-37"/>
      </g>
     </g>
    </g>
    <g id="ytick_2">
     <g id="line2d_10">
      <g>
       <use style="stroke:#000000;stroke-width:0.8;" x="72" xlink:href="#mfe8dee0784" y="312.91672"/>
      </g>
     </g>
     <g id="text_11">
      <!-- 0.20 % -->
      <g transform="translate(30.054688 316.715938)scale(0.1 -0.1)">
       <use xlink:href="#DejaVuSans-48"/>
       <use x="63.623047" xlink:href="#DejaVuSans-46"/>
       <use x="95.410156" xlink:href="#DejaVuSans-50"/>
       <use x="159.033203" xlink:href="#DejaVuSans-48"/>
       <use x="222.65625" xlink:href="#DejaVuSans-32"/>
       <use x="254.443359" xlink:href="#DejaVuSans-37"/>
      </g>
     </g>
    </g>
    <g id="ytick_3">
     <g id="line2d_11">
      <g>
       <use style="stroke:#000000;stroke-width:0.8;" x="72" xlink:href="#mfe8dee0784" y="256.465847"/>
      </g>
     </g>
     <g id="text_12">
      <!-- 0.40 % -->
      <defs>
       <path d="M 37.796875 64.3125 
L 12.890625 25.390625 
L 37.796875 25.390625 
z
M 35.203125 72.90625 
L 47.609375 72.90625 
L 47.609375 25.390625 
L 58.015625 25.390625 
L 58.015625 17.1875 
L 47.609375 17.1875 
L 47.609375 0 
L 37.796875 0 
L 37.796875 17.1875 
L 4.890625 17.1875 
L 4.890625 26.703125 
z
" id="DejaVuSans-52"/>
      </defs>
      <g transform="translate(30.054688 260.265066)scale(0.1 -0.1)">
       <use xlink:href="#DejaVuSans-48"/>
       <use x="63.623047" xlink:href="#DejaVuSans-46"/>
       <use x="95.410156" xlink:href="#DejaVuSans-52"/>
       <use x="159.033203" xlink:href="#DejaVuSans-48"/>
       <use x="222.65625" xlink:href="#DejaVuSans-32"/>
       <use x="254.443359" xlink:href="#DejaVuSans-37"/>
      </g>
     </g>
    </g>
    <g id="ytick_4">
     <g id="line2d_12">
      <g>
       <use style="stroke:#000000;stroke-width:0.8;" x="72" xlink:href="#mfe8dee0784" y="200.014975"/>
      </g>
     </g>
     <g id="text_13">
      <!-- 0.60 % -->
      <defs>
       <path d="M 33.015625 40.375 
Q 26.375 40.375 22.484375 35.828125 
Q 18.609375 31.296875 18.609375 23.390625 
Q 18.609375 15.53125 22.484375 10.953125 
Q 26.375 6.390625 33.015625 6.390625 
Q 39.65625 6.390625 43.53125 10.953125 
Q 47.40625 15.53125 47.40625 23.390625 
Q 47.40625 31.296875 43.53125 35.828125 
Q 39.65625 40.375 33.015625 40.375 
z
M 52.59375 71.296875 
L 52.59375 62.3125 
Q 48.875 64.0625 45.09375 64.984375 
Q 41.3125 65.921875 37.59375 65.921875 
Q 27.828125 65.921875 22.671875 59.328125 
Q 17.53125 52.734375 16.796875 39.40625 
Q 19.671875 43.65625 24.015625 45.921875 
Q 28.375 48.1875 33.59375 48.1875 
Q 44.578125 48.1875 50.953125 41.515625 
Q 57.328125 34.859375 57.328125 23.390625 
Q 57.328125 12.15625 50.6875 5.359375 
Q 44.046875 -1.421875 33.015625 -1.421875 
Q 20.359375 -1.421875 13.671875 8.265625 
Q 6.984375 17.96875 6.984375 36.375 
Q 6.984375 53.65625 15.1875 63.9375 
Q 23.390625 74.21875 37.203125 74.21875 
Q 40.921875 74.21875 44.703125 73.484375 
Q 48.484375 72.75 52.59375 71.296875 
z
" id="DejaVuSans-54"/>
      </defs>
      <g transform="translate(30.054688 203.814193)scale(0.1 -0.1)">
       <use xlink:href="#DejaVuSans-48"/>
       <use x="63.623047" xlink:href="#DejaVuSans-46"/>
       <use x="95.410156" xlink:href="#DejaVuSans-54"/>
       <use x="159.033203" xlink:href="#DejaVuSans-48"/>
       <use x="222.65625" xlink:href="#DejaVuSans-32"/>
       <use x="254.443359" xlink:href="#DejaVuSans-37"/>
      </g>
     </g>
    </g>
    <g id="ytick_5">
     <g id="line2d_13">
      <g>
       <use style="stroke:#000000;stroke-width:0.8;" x="72" xlink:href="#mfe8dee0784" y="143.564102"/>
      </g>
     </g>
     <g id="text_14">
      <!-- 0.80 % -->
      <defs>
       <path d="M 31.78125 34.625 
Q 24.75 34.625 20.71875 30.859375 
Q 16.703125 27.09375 16.703125 20.515625 
Q 16.703125 13.921875 20.71875 10.15625 
Q 24.75 6.390625 31.78125 6.390625 
Q 38.8125 6.390625 42.859375 10.171875 
Q 46.921875 13.96875 46.921875 20.515625 
Q 46.921875 27.09375 42.890625 30.859375 
Q 38.875 34.625 31.78125 34.625 
z
M 21.921875 38.8125 
Q 15.578125 40.375 12.03125 44.71875 
Q 8.5 49.078125 8.5 55.328125 
Q 8.5 64.0625 14.71875 69.140625 
Q 20.953125 74.21875 31.78125 74.21875 
Q 42.671875 74.21875 48.875 69.140625 
Q 55.078125 64.0625 55.078125 55.328125 
Q 55.078125 49.078125 51.53125 44.71875 
Q 48 40.375 41.703125 38.8125 
Q 48.828125 37.15625 52.796875 32.3125 
Q 56.78125 27.484375 56.78125 20.515625 
Q 56.78125 9.90625 50.3125 4.234375 
Q 43.84375 -1.421875 31.78125 -1.421875 
Q 19.734375 -1.421875 13.25 4.234375 
Q 6.78125 9.90625 6.78125 20.515625 
Q 6.78125 27.484375 10.78125 32.3125 
Q 14.796875 37.15625 21.921875 38.8125 
z
M 18.3125 54.390625 
Q 18.3125 48.734375 21.84375 45.5625 
Q 25.390625 42.390625 31.78125 42.390625 
Q 38.140625 42.390625 41.71875 45.5625 
Q 45.3125 48.734375 45.3125 54.390625 
Q 45.3125 60.0625 41.71875 63.234375 
Q 38.140625 66.40625 31.78125 66.40625 
Q 25.390625 66.40625 21.84375 63.234375 
Q 18.3125 60.0625 18.3125 54.390625 
z
" id="DejaVuSans-56"/>
      </defs>
      <g transform="translate(30.054688 147.363321)scale(0.1 -0.1)">
       <use xlink:href="#DejaVuSans-48"/>
       <use x="63.623047" xlink:href="#DejaVuSans-46"/>
       <use x="95.410156" xlink:href="#DejaVuSans-56"/>
       <use x="159.033203" xlink:href="#DejaVuSans-48"/>
       <use x="222.65625" xlink:href="#DejaVuSans-32"/>
       <use x="254.443359" xlink:href="#DejaVuSans-37"/>
      </g>
     </g>
    </g>
    <g id="ytick_6">
     <g id="line2d_14">
      <g>
       <use style="stroke:#000000;stroke-width:0.8;" x="72" xlink:href="#mfe8dee0784" y="87.11323"/>
      </g>
     </g>
     <g id="text_15">
      <!-- 1.00 % -->
      <g transform="translate(30.054688 90.912449)scale(0.1 -0.1)">
       <use xlink:href="#DejaVuSans-49"/>
       <use x="63.623047" xlink:href="#DejaVuSans-46"/>
       <use x="95.410156" xlink:href="#DejaVuSans-48"/>
       <use x="159.033203" xlink:href="#DejaVuSans-48"/>
       <use x="222.65625" xlink:href="#DejaVuSans-32"/>
       <use x="254.443359" xlink:href="#DejaVuSans-37"/>
      </g>
     </g>
    </g>
    <g id="text_16">
     <!-- Active Population -->
     <defs>
      <path d="M 34.1875 63.1875 
L 20.796875 26.90625 
L 47.609375 26.90625 
z
M 28.609375 72.90625 
L 39.796875 72.90625 
L 67.578125 0 
L 57.328125 0 
L 50.6875 18.703125 
L 17.828125 18.703125 
L 11.1875 0 
L 0.78125 0 
z
" id="DejaVuSans-65"/>
      <path d="M 48.78125 52.59375 
L 48.78125 44.1875 
Q 44.96875 46.296875 41.140625 47.34375 
Q 37.3125 48.390625 33.40625 48.390625 
Q 24.65625 48.390625 19.8125 42.84375 
Q 14.984375 37.3125 14.984375 27.296875 
Q 14.984375 17.28125 19.8125 11.734375 
Q 24.65625 6.203125 33.40625 6.203125 
Q 37.3125 6.203125 41.140625 7.25 
Q 44.96875 8.296875 48.78125 10.40625 
L 48.78125 2.09375 
Q 45.015625 0.34375 40.984375 -0.53125 
Q 36.96875 -1.421875 32.421875 -1.421875 
Q 20.0625 -1.421875 12.78125 6.34375 
Q 5.515625 14.109375 5.515625 27.296875 
Q 5.515625 40.671875 12.859375 48.328125 
Q 20.21875 56 33.015625 56 
Q 37.15625 56 41.109375 55.140625 
Q 45.0625 54.296875 48.78125 52.59375 
z
" id="DejaVuSans-99"/>
      <path d="M 18.3125 70.21875 
L 18.3125 54.6875 
L 36.8125 54.6875 
L 36.8125 47.703125 
L 18.3125 47.703125 
L 18.3125 18.015625 
Q 18.3125 11.328125 20.140625 9.421875 
Q 21.96875 7.515625 27.59375 7.515625 
L 36.8125 7.515625 
L 36.8125 0 
L 27.59375 0 
Q 17.1875 0 13.234375 3.875 
Q 9.28125 7.765625 9.28125 18.015625 
L 9.28125 47.703125 
L 2.6875 47.703125 
L 2.6875 54.6875 
L 9.28125 54.6875 
L 9.28125 70.21875 
z
" id="DejaVuSans-116"/>
      <path d="M 9.421875 54.6875 
L 18.40625 54.6875 
L 18.40625 0 
L 9.421875 0 
z
M 9.421875 75.984375 
L 18.40625 75.984375 
L 18.40625 64.59375 
L 9.421875 64.59375 
z
" id="DejaVuSans-105"/>
      <path d="M 2.984375 54.6875 
L 12.5 54.6875 
L 29.59375 8.796875 
L 46.6875 54.6875 
L 56.203125 54.6875 
L 35.6875 0 
L 23.484375 0 
z
" id="DejaVuSans-118"/>
      <path d="M 56.203125 29.59375 
L 56.203125 25.203125 
L 14.890625 25.203125 
Q 15.484375 15.921875 20.484375 11.0625 
Q 25.484375 6.203125 34.421875 6.203125 
Q 39.59375 6.203125 44.453125 7.46875 
Q 49.3125 8.734375 54.109375 11.28125 
L 54.109375 2.78125 
Q 49.265625 0.734375 44.1875 -0.34375 
Q 39.109375 -1.421875 33.890625 -1.421875 
Q 20.796875 -1.421875 13.15625 6.1875 
Q 5.515625 13.8125 5.515625 26.8125 
Q 5.515625 40.234375 12.765625 48.109375 
Q 20.015625 56 32.328125 56 
Q 43.359375 56 49.78125 48.890625 
Q 56.203125 41.796875 56.203125 29.59375 
z
M 47.21875 32.234375 
Q 47.125 39.59375 43.09375 43.984375 
Q 39.0625 48.390625 32.421875 48.390625 
Q 24.90625 48.390625 20.390625 44.140625 
Q 15.875 39.890625 15.1875 32.171875 
z
" id="DejaVuSans-101"/>
      <path d="M 19.671875 64.796875 
L 19.671875 37.40625 
L 32.078125 37.40625 
Q 38.96875 37.40625 42.71875 40.96875 
Q 46.484375 44.53125 46.484375 51.125 
Q 46.484375 57.671875 42.71875 61.234375 
Q 38.96875 64.796875 32.078125 64.796875 
z
M 9.8125 72.90625 
L 32.078125 72.90625 
Q 44.34375 72.90625 50.609375 67.359375 
Q 56.890625 61.8125 56.890625 51.125 
Q 56.890625 40.328125 50.609375 34.8125 
Q 44.34375 29.296875 32.078125 29.296875 
L 19.671875 29.296875 
L 19.671875 0 
L 9.8125 0 
z
" id="DejaVuSans-80"/>
      <path d="M 30.609375 48.390625 
Q 23.390625 48.390625 19.1875 42.75 
Q 14.984375 37.109375 14.984375 27.296875 
Q 14.984375 17.484375 19.15625 11.84375 
Q 23.34375 6.203125 30.609375 6.203125 
Q 37.796875 6.203125 41.984375 11.859375 
Q 46.1875 17.53125 46.1875 27.296875 
Q 46.1875 37.015625 41.984375 42.703125 
Q 37.796875 48.390625 30.609375 48.390625 
z
M 30.609375 56 
Q 42.328125 56 49.015625 48.375 
Q 55.71875 40.765625 55.71875 27.296875 
Q 55.71875 13.875 49.015625 6.21875 
Q 42.328125 -1.421875 30.609375 -1.421875 
Q 18.84375 -1.421875 12.171875 6.21875 
Q 5.515625 13.875 5.515625 27.296875 
Q 5.515625 40.765625 12.171875 48.375 
Q 18.84375 56 30.609375 56 
z
" id="DejaVuSans-111"/>
      <path d="M 18.109375 8.203125 
L 18.109375 -20.796875 
L 9.078125 -20.796875 
L 9.078125 54.6875 
L 18.109375 54.6875 
L 18.109375 46.390625 
Q 20.953125 51.265625 25.265625 53.625 
Q 29.59375 56 35.59375 56 
Q 45.5625 56 51.78125 48.09375 
Q 58.015625 40.1875 58.015625 27.296875 
Q 58.015625 14.40625 51.78125 6.484375 
Q 45.5625 -1.421875 35.59375 -1.421875 
Q 29.59375 -1.421875 25.265625 0.953125 
Q 20.953125 3.328125 18.109375 8.203125 
z
M 48.6875 27.296875 
Q 48.6875 37.203125 44.609375 42.84375 
Q 40.53125 48.484375 33.40625 48.484375 
Q 26.265625 48.484375 22.1875 42.84375 
Q 18.109375 37.203125 18.109375 27.296875 
Q 18.109375 17.390625 22.1875 11.75 
Q 26.265625 6.109375 33.40625 6.109375 
Q 40.53125 6.109375 44.609375 11.75 
Q 48.6875 17.390625 48.6875 27.296875 
z
" id="DejaVuSans-112"/>
      <path d="M 8.5 21.578125 
L 8.5 54.6875 
L 17.484375 54.6875 
L 17.484375 21.921875 
Q 17.484375 14.15625 20.5 10.265625 
Q 23.53125 6.390625 29.59375 6.390625 
Q 36.859375 6.390625 41.078125 11.03125 
Q 45.3125 15.671875 45.3125 23.6875 
L 45.3125 54.6875 
L 54.296875 54.6875 
L 54.296875 0 
L 45.3125 0 
L 45.3125 8.40625 
Q 42.046875 3.421875 37.71875 1 
Q 33.40625 -1.421875 27.6875 -1.421875 
Q 18.265625 -1.421875 13.375 4.4375 
Q 8.5 10.296875 8.5 21.578125 
z
M 31.109375 56 
z
" id="DejaVuSans-117"/>
      <path d="M 9.421875 75.984375 
L 18.40625 75.984375 
L 18.40625 0 
L 9.421875 0 
z
" id="DejaVuSans-108"/>
      <path d="M 54.890625 33.015625 
L 54.890625 0 
L 45.90625 0 
L 45.90625 32.71875 
Q 45.90625 40.484375 42.875 44.328125 
Q 39.84375 48.1875 33.796875 48.1875 
Q 26.515625 48.1875 22.3125 43.546875 
Q 18.109375 38.921875 18.109375 30.90625 
L 18.109375 0 
L 9.078125 0 
L 9.078125 54.6875 
L 18.109375 54.6875 
L 18.109375 46.1875 
Q 21.34375 51.125 25.703125 53.5625 
Q 30.078125 56 35.796875 56 
Q 45.21875 56 50.046875 50.171875 
Q 54.890625 44.34375 54.890625 33.015625 
z
" id="DejaVuSans-110"/>
     </defs>
     <g transform="translate(23.975 261.482656)rotate(-90)scale(0.1 -0.1)">
      <use xlink:href="#DejaVuSans-65"/>
      <use x="66.658203" xlink:href="#DejaVuSans-99"/>
      <use x="121.638672" xlink:href="#DejaVuSans-116"/>
      <use x="160.847656" xlink:href="#DejaVuSans-105"/>
      <use x="188.630859" xlink:href="#DejaVuSans-118"/>
      <use x="247.810547" xlink:href="#DejaVuSans-101"/>
      <use x="309.333984" xlink:href="#DejaVuSans-32"/>
      <use x="341.121094" xlink:href="#DejaVuSans-80"/>
      <use x="397.798828" xlink:href="#DejaVuSans-111"/>
      <use x="458.980469" xlink:href="#DejaVuSans-112"/>
      <use x="522.457031" xlink:href="#DejaVuSans-117"/>
      <use x="585.835938" xlink:href="#DejaVuSans-108"/>
      <use x="613.619141" xlink:href="#DejaVuSans-97"/>
      <use x="674.898438" xlink:href="#DejaVuSans-116"/>
      <use x="714.107422" xlink:href="#DejaVuSans-105"/>
      <use x="741.890625" xlink:href="#DejaVuSans-111"/>
      <use x="803.072266" xlink:href="#DejaVuSans-110"/>
     </g>
    </g>
   </g>
   <g id="line2d_15">
    <path clip-path="url(#p11624b03c9)" d="M 92.290909 369.2902 
L 105.524111 369.094818 
L 145.223715 368.355157 
L 151.840316 368.209889 
L 167.279051 367.876217 
L 187.128854 367.385858 
L 198.156522 367.154952 
L 209.18419 366.587836 
L 211.389723 366.650003 
L 215.800791 366.433053 
L 222.417391 365.964896 
L 224.622925 365.850712 
L 229.033992 365.25505 
L 231.239526 364.829396 
L 233.445059 364.6873 
L 235.650593 364.36124 
L 240.06166 363.926705 
L 246.678261 362.9536 
L 248.883794 362.45436 
L 251.089328 362.40488 
L 253.294862 362.175243 
L 262.116996 360.285491 
L 264.32253 359.730428 
L 266.528063 359.712031 
L 268.733597 359.457654 
L 275.350198 357.774068 
L 277.555731 357.165085 
L 279.761265 356.428595 
L 284.172332 355.386345 
L 288.583399 354.06244 
L 290.788933 352.975151 
L 292.994466 352.404863 
L 295.2 351.601766 
L 297.405534 350.942034 
L 301.816601 348.719879 
L 304.022134 347.216451 
L 306.227668 346.201478 
L 308.433202 346.69374 
L 310.638735 345.646415 
L 315.049802 344.088432 
L 317.255336 343.235221 
L 323.871937 340.107837 
L 326.07747 338.940618 
L 328.283004 338.467387 
L 330.488538 337.437824 
L 332.694071 336.579538 
L 334.899605 338.389361 
L 337.105138 337.231024 
L 339.310672 335.55505 
L 341.516206 334.92767 
L 343.721739 334.080168 
L 345.927273 333.089301 
L 350.33834 330.165546 
L 352.543874 329.053517 
L 354.749407 326.648032 
L 356.954941 326.423469 
L 359.160474 324.715144 
L 361.366008 323.384261 
L 363.571542 321.771723 
L 367.982609 317.026727 
L 370.188142 315.278436 
L 372.393676 313.912664 
L 374.599209 312.865973 
L 376.804743 311.144961 
L 379.010277 309.044602 
L 381.21581 307.293774 
L 383.421344 305.084306 
L 390.037945 300.06717 
L 392.243478 298.555495 
L 394.449012 296.145569 
L 401.065613 288.189453 
L 403.271146 287.50625 
L 405.47668 284.585032 
L 407.682213 280.010678 
L 409.887747 322.096514 
L 412.093281 321.106916 
L 414.298814 319.712598 
L 416.504348 319.947944 
L 418.709881 320.03612 
L 420.915415 320.418004 
L 423.120949 321.497681 
L 425.326482 320.9109 
L 427.532016 320.138886 
L 429.737549 318.164764 
L 434.148617 315.971789 
L 434.148617 315.971789 
" style="fill:none;stroke:#1f77b4;stroke-linecap:square;stroke-width:1.5;"/>
   </g>
   <g id="line2d_16">
    <path clip-path="url(#p11624b03c9)" d="M 92.290909 369.116492 
L 109.935178 368.887768 
L 112.140711 368.760975 
L 118.757312 368.686391 
L 140.812648 368.054913 
L 147.429249 367.463213 
L 151.840316 367.222058 
L 154.04585 367.222058 
L 156.251383 367.045542 
L 158.456917 367.045542 
L 160.662451 366.80936 
L 162.867984 366.80936 
L 165.073518 366.006338 
L 171.690119 365.397235 
L 178.306719 364.233725 
L 180.512253 363.985111 
L 182.717787 363.376008 
L 187.128854 362.737072 
L 189.334387 362.247303 
L 191.539921 361.961398 
L 198.156522 360.452314 
L 200.362055 360.022213 
L 202.567589 359.00787 
L 204.773123 358.401253 
L 206.978656 357.498787 
L 211.389723 355.982245 
L 213.595257 355.067347 
L 215.800791 353.990851 
L 218.006324 352.464365 
L 220.211858 351.079588 
L 222.417391 350.269108 
L 224.622925 348.501466 
L 231.239526 346.204278 
L 240.06166 342.015142 
L 242.267194 341.79139 
L 244.472727 341.236982 
L 246.678261 339.616022 
L 248.883794 338.271024 
L 251.089328 336.401451 
L 253.294862 334.713365 
L 255.500395 333.345991 
L 259.911462 332.048229 
L 262.116996 330.902121 
L 264.32253 329.579498 
L 266.528063 327.600535 
L 268.733597 326.87707 
L 270.93913 325.39782 
L 273.144664 324.216906 
L 275.350198 322.588488 
L 277.555731 321.526909 
L 279.761265 320.102354 
L 281.966798 319.018399 
L 284.172332 317.772846 
L 286.377866 315.796369 
L 288.583399 314.690039 
L 290.788933 314.359384 
L 292.994466 312.793119 
L 295.2 311.535135 
L 297.405534 309.951467 
L 299.611067 307.880517 
L 301.816601 306.167571 
L 304.022134 304.240817 
L 306.227668 301.983407 
L 308.433202 300.70802 
L 310.638735 298.453096 
L 312.844269 296.968874 
L 315.049802 294.920299 
L 317.255336 292.016494 
L 319.46087 290.962373 
L 321.666403 289.587541 
L 323.871937 286.952239 
L 326.07747 285.040401 
L 328.283004 281.873066 
L 330.488538 279.441627 
L 332.694071 275.312158 
L 337.105138 270.175804 
L 339.310672 267.948228 
L 341.516206 264.736142 
L 343.721739 262.92375 
L 345.927273 261.546432 
L 348.132806 258.001204 
L 350.33834 255.808434 
L 352.543874 252.380054 
L 356.954941 249.486194 
L 359.160474 247.459995 
L 361.366008 244.489064 
L 363.571542 240.682792 
L 365.777075 237.990309 
L 367.982609 234.847835 
L 370.188142 233.497864 
L 372.393676 231.837126 
L 374.599209 231.175815 
L 376.804743 229.57723 
L 379.010277 228.741889 
L 381.21581 228.774209 
L 383.421344 227.409321 
L 385.626877 225.634221 
L 387.832411 224.142541 
L 392.243478 221.969659 
L 394.449012 221.430168 
L 396.654545 220.709189 
L 398.860079 221.121887 
L 403.271146 218.081345 
L 405.47668 218.58603 
L 407.682213 217.892399 
L 409.887747 219.95589 
L 409.887747 219.95589 
" style="fill:none;stroke:#ff7f0e;stroke-linecap:square;stroke-width:1.5;"/>
   </g>
   <g id="line2d_17">
    <path clip-path="url(#p11624b03c9)" d="M 92.290909 369.347245 
L 107.729644 369.262489 
L 120.962846 368.976555 
L 131.990514 368.641439 
L 147.429249 367.586097 
L 154.04585 366.887163 
L 160.662451 366.412717 
L 162.867984 366.580478 
L 165.073518 367.675435 
L 167.279051 367.417124 
L 171.690119 366.635185 
L 173.895652 367.472775 
L 178.306719 367.03013 
L 180.512253 367.005067 
L 189.334387 365.505464 
L 191.539921 365.095966 
L 195.950988 363.972308 
L 198.156522 363.270814 
L 200.362055 362.933272 
L 204.773123 362.389836 
L 209.18419 361.377613 
L 211.389723 360.386277 
L 213.595257 359.769134 
L 218.006324 358.086544 
L 220.211858 357.695912 
L 222.417391 357.165277 
L 224.622925 356.815068 
L 226.828458 356.098617 
L 231.239526 353.149536 
L 233.445059 352.096082 
L 235.650593 351.73725 
L 237.856126 350.764913 
L 242.267194 348.342021 
L 244.472727 347.258248 
L 246.678261 345.866038 
L 251.089328 343.680167 
L 253.294862 342.742595 
L 257.705929 339.780309 
L 262.116996 335.975583 
L 264.32253 333.159094 
L 266.528063 331.775778 
L 268.733597 330.906658 
L 270.93913 328.869817 
L 275.350198 325.445752 
L 277.555731 323.040781 
L 279.761265 320.889944 
L 281.966798 319.329031 
L 284.172332 330.018538 
L 286.377866 328.35589 
L 288.583399 326.407444 
L 290.788933 324.63902 
L 292.994466 323.303 
L 297.405534 321.511938 
L 299.611067 319.968812 
L 301.816601 317.093303 
L 304.022134 317.109742 
L 306.227668 316.032707 
L 308.433202 311.112542 
L 310.638735 316.295599 
L 312.844269 310.908131 
L 315.049802 308.264657 
L 317.255336 306.669922 
L 319.46087 305.452615 
L 321.666403 302.853743 
L 323.871937 299.755228 
L 328.283004 296.536248 
L 330.488538 294.977626 
L 332.694071 294.700181 
L 334.899605 307.123886 
L 337.105138 305.05511 
L 339.310672 303.1673 
L 341.516206 299.028401 
L 345.927273 302.633296 
L 348.132806 302.689755 
L 352.543874 299.952767 
L 354.749407 300.233042 
L 356.954941 298.720503 
L 359.160474 298.256298 
L 361.366008 299.179991 
L 363.571542 298.050404 
L 365.777075 296.431011 
L 367.982609 296.882684 
L 370.188142 296.609821 
L 372.393676 295.434419 
L 374.599209 293.932121 
L 376.804743 298.729531 
L 379.010277 298.917908 
L 383.421344 290.799111 
L 385.626877 293.246931 
L 387.832411 298.934482 
L 390.037945 299.410275 
L 392.243478 300.900311 
L 394.449012 298.50356 
L 396.654545 296.694442 
L 398.860079 293.635273 
L 401.065613 293.753312 
L 403.271146 291.708386 
L 405.47668 291.659203 
L 407.682213 294.356845 
L 409.887747 295.442774 
L 412.093281 292.365414 
L 414.298814 290.78604 
L 416.504348 289.789718 
L 418.709881 289.81303 
L 423.120949 293.250434 
L 425.326482 294.277479 
L 427.532016 294.669594 
L 429.737549 288.746505 
L 431.943083 294.984902 
L 434.148617 290.272788 
L 436.35415 291.574178 
L 438.559684 294.993257 
L 440.765217 295.765898 
L 442.970751 296.116106 
L 445.176285 295.882724 
L 447.381818 293.449052 
L 449.587352 294.69789 
L 449.587352 294.69789 
" style="fill:none;stroke:#2ca02c;stroke-linecap:square;stroke-width:1.5;"/>
   </g>
   <g id="line2d_18">
    <path clip-path="url(#p11624b03c9)" d="M 92.290909 369.134002 
L 98.90751 369.008918 
L 101.113043 368.722582 
L 109.935178 368.006742 
L 116.551779 367.013609 
L 120.962846 366.267628 
L 127.579447 365.176537 
L 136.401581 363.612238 
L 138.607115 363.264114 
L 140.812648 363.075735 
L 149.634783 361.847504 
L 151.840316 361.720914 
L 154.04585 361.717899 
L 165.073518 360.974933 
L 180.512253 360.429387 
L 189.334387 359.403099 
L 193.745455 357.679055 
L 195.950988 356.383008 
L 198.156522 355.258762 
L 200.362055 354.360571 
L 202.567589 352.743526 
L 204.773123 351.91918 
L 206.978656 350.330769 
L 209.18419 348.995539 
L 211.389723 347.895406 
L 213.595257 346.09601 
L 215.800791 345.051637 
L 218.006324 343.354719 
L 222.417391 337.694309 
L 224.622925 335.408142 
L 226.828458 334.716414 
L 229.033992 333.021004 
L 231.239526 331.064876 
L 233.445059 327.82928 
L 235.650593 323.299143 
L 237.856126 319.635549 
L 240.06166 315.287763 
L 242.267194 311.838167 
L 244.472727 308.730668 
L 246.678261 303.157665 
L 248.883794 299.68245 
L 251.089328 297.168721 
L 253.294862 294.109447 
L 255.500395 292.364305 
L 257.705929 288.846893 
L 259.911462 285.113976 
L 262.116996 280.303531 
L 264.32253 239.502157 
L 266.528063 232.607487 
L 268.733597 225.248652 
L 270.93913 336.675555 
L 273.144664 335.629675 
L 275.350198 332.651781 
L 277.555731 332.695485 
L 279.761265 334.532556 
L 281.966798 332.89592 
L 284.172332 331.691802 
L 286.377866 329.253424 
L 290.788933 328.276868 
L 292.994466 328.252755 
L 295.2 331.941969 
L 297.405534 316.497909 
L 299.611067 316.891244 
L 301.816601 315.402297 
L 304.022134 315.349551 
L 306.227668 313.144764 
L 308.433202 313.510972 
L 310.638735 315.57862 
L 312.844269 317.236354 
L 315.049802 316.871653 
L 317.255336 316.830963 
L 319.46087 317.579958 
L 321.666403 317.732168 
L 323.871937 317.721619 
L 326.07747 320.425233 
L 328.283004 322.880188 
L 330.488538 325.100045 
L 332.694071 326.12332 
L 334.899605 326.863272 
L 337.105138 326.891906 
L 339.310672 327.479648 
L 343.721739 332.039926 
L 348.132806 332.535739 
L 350.33834 333.147594 
L 352.543874 332.957708 
L 354.749407 333.082792 
L 356.954941 334.39843 
L 359.160474 336.312361 
L 361.366008 337.558676 
L 363.571542 337.300973 
L 367.982609 338.273009 
L 370.188142 338.273009 
L 372.393676 340.447655 
L 374.599209 340.447655 
L 376.804743 341.502577 
L 379.010277 341.195143 
L 381.21581 341.633689 
L 385.626877 341.062524 
L 390.037945 342.632851 
L 392.243478 342.947821 
L 394.449012 342.417346 
L 396.654545 342.816709 
L 401.065613 342.527359 
L 403.271146 343.918349 
L 405.47668 344.290586 
L 407.682213 344.329769 
L 409.887747 344.201671 
L 412.093281 343.930405 
L 414.298814 343.517479 
L 416.504348 342.899596 
L 418.709881 343.903279 
L 420.915415 344.435261 
L 425.326482 344.148925 
L 427.532016 344.417177 
L 429.737549 344.251403 
L 431.943083 344.344839 
L 436.35415 346.499894 
L 438.559684 346.588809 
L 442.970751 346.48181 
L 442.970751 346.48181 
" style="fill:none;stroke:#d62728;stroke-linecap:square;stroke-width:1.5;"/>
   </g>
   <g id="line2d_19">
    <path clip-path="url(#p11624b03c9)" d="M 92.290909 369.187511 
L 94.496443 369.043776 
L 98.90751 368.54814 
L 101.113043 368.092154 
L 103.318577 367.781555 
L 107.729644 367.480869 
L 114.346245 366.440032 
L 120.962846 365.879963 
L 123.168379 365.077032 
L 125.373913 364.447574 
L 127.579447 364.150192 
L 129.78498 364.092367 
L 131.990514 363.80655 
L 134.196047 363.65786 
L 136.401581 363.65786 
L 138.607115 362.646761 
L 140.812648 362.174254 
L 143.018182 358.63541 
L 149.634783 358.501588 
L 151.840316 358.566021 
L 154.04585 358.314898 
L 156.251383 357.829174 
L 158.456917 357.487185 
L 162.867984 356.261311 
L 165.073518 355.372469 
L 167.279051 355.042045 
L 169.484585 354.414239 
L 171.690119 354.011121 
L 173.895652 335.04146 
L 178.306719 335.04146 
L 180.512253 334.639995 
L 182.717787 333.301776 
L 184.92332 332.632667 
L 187.128854 332.234506 
L 189.334387 330.77403 
L 191.539921 329.781105 
L 193.745455 328.603142 
L 195.950988 324.960214 
L 200.362055 325.041168 
L 204.773123 330.243699 
L 206.978656 329.84719 
L 209.18419 329.718324 
L 211.389723 329.830669 
L 213.595257 328.627924 
L 218.006324 328.508971 
L 220.211858 327.337617 
L 222.417391 325.351767 
L 226.828458 324.182065 
L 233.445059 321.769967 
L 240.06166 319.658556 
L 242.267194 342.687479 
L 244.472727 342.687479 
L 246.678261 342.26784 
L 248.883794 341.72264 
L 251.089328 342.855996 
L 253.294862 342.855996 
L 255.500395 342.689131 
L 257.705929 342.689131 
L 259.911462 341.352565 
L 262.116996 340.519896 
L 266.528063 340.50007 
L 268.733597 339.46419 
L 270.93913 338.838036 
L 273.144664 338.446483 
L 275.350198 337.635291 
L 277.555731 338.211882 
L 279.761265 338.211882 
L 284.172332 336.957921 
L 286.377866 336.670452 
L 292.994466 335.330582 
L 297.405534 334.459913 
L 299.611067 334.459913 
L 301.816601 333.969233 
L 304.022134 333.969233 
L 306.227668 332.396414 
L 308.433202 332.396414 
L 310.638735 331.837996 
L 315.049802 330.988806 
L 317.255336 330.099964 
L 319.46087 330.157789 
L 321.666403 329.202862 
L 323.871937 326.752766 
L 326.07747 325.095688 
L 330.488538 322.680286 
L 334.899605 321.973178 
L 337.105138 320.958775 
L 339.310672 320.958775 
L 341.516206 319.577602 
L 343.721739 318.974577 
L 345.927273 316.382398 
L 350.33834 314.80297 
L 352.543874 313.268149 
L 354.749407 312.319831 
L 356.954941 311.71185 
L 359.160474 310.238158 
L 361.366008 309.324535 
L 363.571542 308.571167 
L 365.777075 307.665804 
L 367.982609 306.378802 
L 372.393676 304.515208 
L 374.599209 304.873719 
L 376.804743 303.307507 
L 379.010277 302.815175 
L 381.21581 302.07172 
L 383.421344 300.94993 
L 385.626877 299.981787 
L 387.832411 298.509746 
L 392.243478 296.206689 
L 394.449012 296.206689 
L 396.654545 333.136564 
L 398.860079 350.913393 
L 401.065613 349.788298 
L 403.271146 347.324985 
L 405.47668 345.231747 
L 407.682213 342.849387 
L 409.887747 352.871157 
L 412.093281 352.580384 
L 414.298814 351.190949 
L 416.504348 349.147275 
L 418.709881 347.268813 
L 420.915415 345.902508 
L 423.120949 344.141346 
L 425.326482 355.407164 
L 427.532016 355.245256 
L 429.737549 353.419662 
L 431.943083 351.108343 
L 434.148617 350.123679 
L 436.35415 348.711115 
L 438.559684 348.017224 
L 438.559684 348.017224 
" style="fill:none;stroke:#9467bd;stroke-linecap:square;stroke-width:1.5;"/>
   </g>
   <g id="line2d_20">
    <path clip-path="url(#p11624b03c9)" d="M 92.290909 369.328726 
L 101.113043 369.208719 
L 116.551779 368.668689 
L 118.757312 368.13275 
L 123.168379 367.411347 
L 125.373913 366.917001 
L 127.579447 366.242645 
L 131.990514 364.198099 
L 134.196047 362.685061 
L 138.607115 361.010422 
L 140.812648 359.65796 
L 143.018182 359.280894 
L 145.223715 357.922636 
L 147.429249 356.413007 
L 149.634783 354.410736 
L 151.840316 352.736779 
L 154.04585 351.519666 
L 156.251383 351.387045 
L 158.456917 350.639389 
L 162.867984 348.486769 
L 165.073518 347.10192 
L 167.279051 346.099932 
L 169.484585 345.557515 
L 171.690119 344.526208 
L 173.895652 345.650589 
L 176.101186 347.327614 
L 178.306719 347.832188 
L 180.512253 347.039871 
L 182.717787 347.284998 
L 184.92332 347.366821 
L 187.128854 348.032994 
L 189.334387 348.957932 
L 193.745455 350.05538 
L 195.950988 350.980999 
L 198.156522 351.133735 
L 200.362055 351.435457 
L 202.567589 352.081515 
L 204.773123 352.98327 
L 206.978656 353.695469 
L 209.18419 354.28016 
L 211.389723 355.921729 
L 213.595257 355.445453 
L 215.800791 355.8007 
L 224.622925 358.155831 
L 226.828458 358.9894 
L 233.445059 360.346976 
L 235.650593 360.87371 
L 237.856126 362.212534 
L 240.06166 362.433797 
L 242.267194 362.079231 
L 244.472727 362.387089 
L 248.883794 362.788362 
L 251.089328 363.15145 
L 253.294862 363.388736 
L 255.500395 363.81251 
L 262.116996 364.459591 
L 264.32253 364.762676 
L 266.528063 364.589144 
L 270.93913 365.027236 
L 277.555731 365.356914 
L 279.761265 365.586018 
L 281.966798 365.664772 
L 284.172332 365.864215 
L 288.583399 365.899331 
L 292.994466 366.122638 
L 295.2 366.160481 
L 299.611067 366.617666 
L 306.227668 366.701875 
L 312.844269 366.76256 
L 317.255336 366.995414 
L 319.46087 367.012461 
L 321.666403 367.150196 
L 323.871937 367.107921 
L 326.07747 367.259634 
L 328.283004 367.120876 
L 330.488538 367.269521 
L 332.694071 366.948707 
L 334.899605 366.831087 
L 337.105138 366.924501 
L 339.310672 366.763924 
L 343.721739 366.728468 
L 345.927273 366.803472 
L 359.160474 366.528343 
L 363.571542 366.788812 
L 367.982609 366.92041 
L 370.188142 367.055759 
L 372.393676 367.021325 
L 381.21581 367.23986 
L 385.626877 367.174061 
L 387.832411 367.319978 
L 390.037945 367.227245 
L 392.243478 367.3868 
L 401.065613 367.239178 
L 405.47668 367.186675 
L 414.298814 366.900977 
L 423.120949 366.595165 
L 427.532016 366.210598 
L 434.148617 366.175482 
L 436.35415 366.131503 
L 438.559684 365.833531 
L 447.381818 365.514082 
L 449.587352 365.302706 
L 451.792885 365.281569 
L 460.61502 364.425157 
L 462.820553 364.395156 
L 465.026087 364.180371 
L 467.231621 364.184803 
L 471.642688 363.684321 
L 473.848221 363.535335 
L 476.053755 363.57761 
L 476.053755 363.57761 
" style="fill:none;stroke:#8c564b;stroke-linecap:square;stroke-width:1.5;"/>
   </g>
   <g id="line2d_21">
    <path clip-path="url(#p11624b03c9)" d="M 92.290909 369.194127 
L 116.551779 368.937202 
L 123.168379 368.731007 
L 156.251383 367.994598 
L 165.073518 367.416925 
L 169.484585 366.948896 
L 171.690119 366.762339 
L 173.895652 366.762339 
L 182.717787 365.698637 
L 187.128854 364.85913 
L 191.539921 363.759426 
L 193.745455 363.473044 
L 195.950988 363.502501 
L 202.567589 362.934647 
L 204.773123 362.422434 
L 209.18419 361.77603 
L 211.389723 361.695843 
L 213.595257 361.157446 
L 218.006324 360.483222 
L 220.211858 360.298302 
L 222.417391 359.69281 
L 231.239526 358.028524 
L 233.445059 357.388667 
L 235.650593 356.971368 
L 242.267194 355.262898 
L 246.678261 353.646071 
L 248.883794 353.521699 
L 251.089328 353.161677 
L 253.294862 352.341808 
L 255.500395 351.26665 
L 257.705929 350.895173 
L 259.911462 349.653095 
L 262.116996 349.520542 
L 268.733597 347.286767 
L 270.93913 346.245975 
L 273.144664 344.881163 
L 275.350198 343.265972 
L 279.761265 339.500465 
L 286.377866 336.297903 
L 288.583399 335.59095 
L 290.788933 333.743381 
L 292.994466 332.619129 
L 295.2 331.15122 
L 297.405534 330.220071 
L 299.611067 329.802772 
L 304.022134 326.65585 
L 308.433202 324.566084 
L 310.638735 347.72043 
L 312.844269 346.740187 
L 315.049802 349.733282 
L 317.255336 349.708735 
L 319.46087 350.047484 
L 321.666403 350.214403 
L 323.871937 350.607155 
L 326.07747 350.142399 
L 328.283004 350.209494 
L 330.488538 351.214283 
L 337.105138 350.826441 
L 339.310672 351.286288 
L 341.516206 351.125914 
L 343.721739 351.538303 
L 345.927273 352.703467 
L 348.132806 352.932572 
L 350.33834 352.613461 
L 352.543874 352.75747 
L 354.749407 353.056943 
L 356.954941 353.133857 
L 359.160474 353.336779 
L 361.366008 354.351387 
L 365.777075 353.938998 
L 367.982609 353.521699 
L 372.393676 353.371144 
L 374.599209 353.835901 
L 376.804743 354.598493 
L 385.626877 354.483941 
L 387.832411 354.641041 
L 387.832411 354.641041 
" style="fill:none;stroke:#e377c2;stroke-linecap:square;stroke-width:1.5;"/>
   </g>
   <g id="line2d_22">
    <path clip-path="url(#p11624b03c9)" d="M 92.290909 369.297532 
L 101.113043 369.090621 
L 105.524111 368.875771 
L 107.729644 368.631028 
L 112.140711 368.31062 
L 116.551779 367.82814 
L 118.757312 367.538559 
L 123.168379 366.384437 
L 125.373913 365.638065 
L 127.579447 365.260208 
L 129.78498 364.421356 
L 131.990514 364.421356 
L 134.196047 362.38261 
L 145.223715 355.958109 
L 147.429249 353.86565 
L 149.634783 351.36264 
L 154.04585 347.584538 
L 158.456917 344.131981 
L 160.662451 342.501452 
L 165.073518 338.347828 
L 169.484585 334.860709 
L 171.690119 334.090983 
L 173.895652 333.106873 
L 176.101186 331.735099 
L 180.512253 329.485706 
L 184.92332 326.749629 
L 187.128854 325.843053 
L 189.334387 325.432034 
L 191.539921 324.87389 
L 198.156522 322.535287 
L 200.362055 321.608627 
L 202.567589 320.972015 
L 204.773123 320.656745 
L 209.18419 319.575019 
L 211.389723 319.40921 
L 213.595257 319.031353 
L 215.800791 318.804359 
L 218.006324 318.8137 
L 220.211858 319.060311 
L 222.417391 319.064982 
L 224.622925 319.462456 
L 226.828458 319.612384 
L 229.033992 319.929989 
L 231.239526 319.81042 
L 233.445059 319.94587 
L 237.856126 320.485799 
L 240.06166 321.936508 
L 242.267194 322.220484 
L 244.472727 322.332113 
L 246.678261 322.577323 
L 248.883794 322.670269 
L 251.089328 323.376941 
L 253.294862 326.617917 
L 257.705929 328.283943 
L 259.911462 329.740724 
L 262.116996 330.449731 
L 264.32253 330.840199 
L 266.528063 331.410955 
L 268.733597 332.722945 
L 270.93913 333.665018 
L 273.144664 335.706099 
L 279.761265 338.282906 
L 281.966798 338.948009 
L 284.172332 340.058226 
L 288.583399 341.660265 
L 290.788933 342.393559 
L 295.2 343.538807 
L 297.405534 344.64015 
L 299.611067 345.563074 
L 301.816601 346.954932 
L 304.022134 347.80079 
L 306.227668 348.960983 
L 308.433202 349.715763 
L 310.638735 350.046446 
L 312.844269 350.734903 
L 315.049802 351.013274 
L 317.255336 351.418688 
L 319.46087 352.097336 
L 321.666403 352.610642 
L 326.07747 353.146368 
L 328.283004 354.014177 
L 332.694071 355.058071 
L 337.105138 356.530265 
L 339.310672 357.095883 
L 341.516206 357.266362 
L 343.721739 357.892232 
L 348.132806 358.577886 
L 350.33834 359.305575 
L 356.954941 359.728738 
L 361.366008 360.654464 
L 363.571542 360.818871 
L 367.982609 361.504058 
L 372.393676 361.662861 
L 374.599209 362.098634 
L 379.010277 362.333568 
L 385.626877 362.528802 
L 387.832411 362.497509 
L 394.449012 363.081342 
L 403.271146 363.222396 
L 409.887747 363.54187 
L 429.737549 363.556349 
L 436.35415 363.478349 
L 438.559684 363.475079 
L 440.765217 363.655367 
L 445.176285 363.549343 
L 453.998419 363.461067 
L 460.61502 363.317678 
L 465.026087 363.123845 
L 482.670356 362.320023 
L 484.875889 362.193448 
L 491.49249 361.192525 
L 491.49249 361.192525 
" style="fill:none;stroke:#7f7f7f;stroke-linecap:square;stroke-width:1.5;"/>
   </g>
   <g id="line2d_23">
    <path clip-path="url(#p11624b03c9)" d="M 92.290909 369.320035 
L 98.90751 369.051639 
L 105.524111 368.696876 
L 109.935178 368.109247 
L 112.140711 367.669209 
L 116.551779 367.029651 
L 118.757312 366.564468 
L 129.78498 365.461366 
L 131.990514 365.373359 
L 134.196047 365.425289 
L 138.607115 365.284258 
L 143.018182 365.265672 
L 145.223715 365.225768 
L 147.429249 365.528055 
L 151.840316 365.656513 
L 158.456917 365.455353 
L 160.662451 366.151215 
L 169.484585 366.653022 
L 173.895652 366.89518 
L 195.950988 367.484448 
L 200.362055 367.593227 
L 211.389723 367.832652 
L 229.033992 368.176483 
L 233.445059 368.360151 
L 262.116996 368.776137 
L 270.93913 368.816588 
L 286.377866 368.888196 
L 292.994466 368.976204 
L 312.844269 368.934113 
L 374.599209 368.783243 
L 405.47668 368.848292 
L 414.298814 368.861958 
L 480.464822 368.912248 
L 489.286957 368.413174 
L 495.903557 367.987895 
L 498.109091 367.787828 
L 498.109091 367.787828 
" style="fill:none;stroke:#bcbd22;stroke-linecap:square;stroke-width:1.5;"/>
   </g>
   <g id="line2d_24">
    <path clip-path="url(#p11624b03c9)" d="M 92.290909 369.342317 
L 120.962846 369.110145 
L 123.168379 369.075475 
L 125.373913 369.182615 
L 136.401581 368.917786 
L 143.018182 368.701495 
L 145.223715 368.881327 
L 167.279051 368.021753 
L 169.484585 367.592302 
L 171.690119 368.360617 
L 173.895652 368.162443 
L 180.512253 368.526583 
L 193.745455 367.312711 
L 195.950988 367.867195 
L 198.156522 367.768556 
L 200.362055 367.38272 
L 202.567589 367.567474 
L 204.773123 367.514911 
L 206.978656 367.190585 
L 209.18419 367.208256 
L 211.389723 367.47465 
L 222.417391 366.971386 
L 226.828458 366.827788 
L 235.650593 366.179585 
L 242.267194 366.075577 
L 246.678261 365.718372 
L 251.089328 365.680124 
L 253.294862 365.573655 
L 255.500395 365.721056 
L 257.705929 365.578576 
L 259.911462 365.603404 
L 262.116996 365.257158 
L 266.528063 365.055629 
L 268.733597 364.97712 
L 270.93913 365.248435 
L 273.144664 365.139283 
L 279.761265 364.475422 
L 281.966798 364.504947 
L 284.172332 364.35777 
L 286.377866 364.806458 
L 290.788933 364.400045 
L 292.994466 364.10502 
L 299.611067 363.94912 
L 301.816601 364.18845 
L 304.022134 363.912885 
L 306.227668 363.991395 
L 308.433202 363.657451 
L 312.844269 363.619203 
L 315.049802 363.650965 
L 317.255336 364.136111 
L 319.46087 364.048207 
L 323.871937 363.649399 
L 328.283004 363.535326 
L 330.488538 363.486118 
L 332.694071 363.595718 
L 334.899605 363.427516 
L 339.310672 362.852229 
L 341.516206 362.74084 
L 343.721739 362.504866 
L 348.132806 362.9162 
L 350.33834 362.807495 
L 352.543874 363.02401 
L 356.954941 362.928949 
L 359.160474 362.928949 
L 361.366008 358.161813 
L 363.571542 358.895235 
L 365.777075 358.531096 
L 370.188142 357.434653 
L 372.393676 357.678903 
L 374.599209 357.548055 
L 376.804743 357.822948 
L 379.010277 358.708021 
L 381.21581 358.255755 
L 383.421344 358.508282 
L 385.626877 358.166286 
L 390.037945 357.769267 
L 392.243478 358.458403 
L 394.449012 359.893039 
L 398.860079 359.383289 
L 401.065613 358.885841 
L 403.271146 358.631749 
L 405.47668 358.906195 
L 407.682213 359.627093 
L 409.887747 360.493824 
L 414.298814 359.854344 
L 418.709881 359.306346 
L 423.120949 360.173078 
L 425.326482 360.897106 
L 427.532016 360.497627 
L 429.737549 360.381541 
L 431.943083 359.991679 
L 434.148617 360.022546 
L 436.35415 359.781427 
L 436.35415 359.781427 
" style="fill:none;stroke:#17becf;stroke-linecap:square;stroke-width:1.5;"/>
   </g>
   <g id="line2d_25">
    <path clip-path="url(#p11624b03c9)" d="M 92.290909 368.637776 
L 94.496443 368.448565 
L 96.701976 368.022839 
L 98.90751 367.279508 
L 101.113043 367.279508 
L 103.318577 367.083539 
L 105.524111 366.434814 
L 114.346245 363.420946 
L 116.551779 362.873585 
L 118.757312 361.650468 
L 120.962846 361.650468 
L 123.168379 360.744956 
L 125.373913 359.717808 
L 127.579447 358.427115 
L 129.78498 357.595936 
L 131.990514 356.386335 
L 134.196047 355.643004 
L 136.401581 354.676674 
L 138.607115 352.818347 
L 143.018182 349.88557 
L 145.223715 348.202939 
L 147.429249 347.175791 
L 149.634783 346.952792 
L 151.840316 346.344613 
L 154.04585 345.222859 
L 156.251383 343.628077 
L 158.456917 342.526596 
L 160.662451 342.249536 
L 162.867984 341.148055 
L 167.279051 339.303243 
L 169.484585 337.275978 
L 171.690119 336.492102 
L 173.895652 335.302773 
L 176.101186 333.714748 
L 178.306719 332.883569 
L 180.512253 332.883569 
L 182.717787 331.032 
L 184.92332 330.390032 
L 187.128854 329.45749 
L 189.334387 327.119377 
L 191.539921 327.119377 
L 193.745455 326.416592 
L 195.950988 325.51108 
L 198.156522 324.402841 
L 200.362055 323.706814 
L 202.567589 322.382333 
L 204.773123 345.418828 
L 206.978656 345.601282 
L 209.18419 344.499801 
L 211.389723 352.406137 
L 213.595257 351.656048 
L 222.417391 347.405548 
L 224.622925 346.621672 
L 226.828458 346.445976 
L 229.033992 345.74319 
L 231.239526 345.175556 
L 233.445059 344.384922 
L 235.650593 342.344142 
L 237.856126 340.033059 
L 240.06166 338.323398 
L 242.267194 337.235433 
L 244.472727 342.107627 
L 246.678261 339.418122 
L 248.883794 337.843612 
L 251.089328 347.243367 
L 253.294862 344.952557 
L 255.500395 342.479293 
L 257.705929 340.789905 
L 259.911462 337.384099 
L 264.32253 333.052508 
L 266.528063 332.201056 
L 268.733597 330.079185 
L 270.93913 328.450615 
L 275.350198 325.450262 
L 277.555731 320.774036 
L 279.761265 335.370348 
L 281.966798 329.694005 
L 284.172332 320.611855 
L 286.377866 320.659158 
L 288.583399 317.124958 
L 290.788933 312.921761 
L 292.994466 307.914415 
L 295.2 305.643877 
L 297.405534 299.291778 
L 299.611067 293.885737 
L 301.816601 291.202989 
L 304.022134 287.709334 
L 306.227668 283.621016 
L 308.433202 276.971584 
L 310.638735 274.356412 
L 312.844269 270.058609 
L 317.255336 257.394956 
L 319.46087 253.313395 
L 321.666403 248.589866 
L 323.871937 246.886963 
L 326.07747 245.352999 
L 328.283004 244.339366 
L 330.488538 238.162964 
L 332.694071 230.648566 
L 334.899605 229.040269 
L 337.105138 227.709031 
L 339.310672 227.864455 
L 341.516206 227.675243 
L 343.721739 225.64122 
L 345.927273 222.830078 
L 348.132806 218.525518 
L 350.33834 217.532158 
L 352.543874 214.998076 
L 354.749407 210.355637 
L 356.954941 208.199978 
L 359.160474 209.240641 
L 361.366008 207.929676 
L 363.571542 206.274076 
L 365.777075 207.733707 
L 367.982609 209.862336 
L 370.188142 208.673007 
L 372.393676 206.922801 
L 374.599209 206.09838 
L 376.804743 201.300518 
L 379.010277 200.199037 
L 381.21581 202.503362 
L 383.421344 203.273723 
L 385.626877 203.293996 
L 387.832411 202.665543 
L 390.037945 201.422154 
L 392.243478 200.807217 
L 394.449012 201.334306 
L 396.654545 203.321026 
L 398.860079 207.956707 
L 401.065613 205.929441 
L 403.271146 205.199625 
L 405.47668 203.415632 
L 407.682213 206.476803 
L 409.887747 205.699684 
L 412.093281 206.382197 
L 414.298814 206.666014 
L 416.504348 203.712964 
L 420.915415 200.009825 
L 423.120949 199.266495 
L 425.326482 201.036973 
L 427.532016 208.605432 
L 429.737549 209.531216 
L 431.943083 215.045379 
L 434.148617 215.221075 
L 436.35415 213.443839 
L 436.35415 213.443839 
" style="fill:none;stroke:#1f77b4;stroke-linecap:square;stroke-width:1.5;"/>
   </g>
   <g id="line2d_26">
    <path clip-path="url(#p11624b03c9)" d="M 92.290909 369.26524 
L 107.729644 369.007597 
L 120.962846 368.597308 
L 123.168379 368.802011 
L 125.373913 368.581426 
L 127.579447 368.642308 
L 129.78498 368.487898 
L 131.990514 368.697895 
L 134.196047 368.300842 
L 136.401581 368.068786 
L 138.607115 368.003493 
L 140.812648 366.819391 
L 143.018182 366.120577 
L 145.223715 365.697935 
L 147.429249 365.019415 
L 149.634783 364.49001 
L 151.840316 363.256497 
L 154.04585 363.011206 
L 156.251383 362.209158 
L 158.456917 363.987958 
L 160.662451 363.501788 
L 162.867984 362.848856 
L 165.073518 361.940927 
L 167.279051 361.504168 
L 171.690119 359.050377 
L 173.895652 357.967745 
L 176.101186 357.440105 
L 178.306719 354.514261 
L 180.512253 352.866931 
L 182.717787 352.168999 
L 187.128854 349.116981 
L 191.539921 344.480278 
L 193.745455 343.867933 
L 195.950988 341.933842 
L 198.156522 341.48473 
L 200.362055 339.075056 
L 202.567589 337.81772 
L 206.978656 333.084842 
L 209.18419 331.466629 
L 211.389723 330.483701 
L 213.595257 330.143117 
L 215.800791 328.181673 
L 218.006324 325.415533 
L 220.211858 322.439397 
L 222.417391 320.877653 
L 224.622925 318.415921 
L 226.828458 315.541254 
L 229.033992 314.805381 
L 231.239526 316.387419 
L 233.445059 317.28476 
L 235.650593 314.632442 
L 237.856126 313.245402 
L 240.06166 312.486589 
L 242.267194 310.50838 
L 244.472727 308.132235 
L 246.678261 304.906396 
L 248.883794 302.527605 
L 251.089328 300.334987 
L 253.294862 303.289947 
L 255.500395 294.4983 
L 257.705929 287.519864 
L 259.911462 283.870501 
L 262.116996 277.479705 
L 264.32253 279.632617 
L 266.528063 279.42262 
L 268.733597 278.46528 
L 270.93913 277.845876 
L 273.144664 276.870889 
L 275.350198 277.102063 
L 277.555731 276.660892 
L 279.761265 276.819713 
L 281.966798 275.600318 
L 284.172332 279.750851 
L 286.377866 278.736158 
L 288.583399 274.543273 
L 290.788933 275.2015 
L 292.994466 276.814419 
L 295.2 276.696186 
L 297.405534 276.071488 
L 299.611067 273.126233 
L 301.816601 280.727602 
L 304.022134 279.801144 
L 306.227668 277.688819 
L 308.433202 277.631467 
L 310.638735 277.150591 
L 312.844269 273.531228 
L 315.049802 277.940287 
L 319.46087 279.277033 
L 321.666403 279.631735 
L 326.07747 280.805248 
L 328.283004 281.255242 
L 330.488538 281.556121 
L 332.694071 281.97435 
L 337.105138 283.505212 
L 339.310672 283.438154 
L 341.516206 283.754032 
L 345.927273 283.332273 
L 348.132806 283.889913 
L 350.33834 283.476095 
L 352.543874 283.72668 
L 354.749407 282.565519 
L 356.954941 282.074055 
L 359.160474 282.918455 
L 361.366008 282.231112 
L 363.571542 282.531108 
L 365.777075 282.502873 
L 367.982609 285.261071 
L 370.188142 281.343476 
L 372.393676 280.659662 
L 374.599209 283.341979 
L 376.804743 282.284934 
L 379.010277 282.284934 
L 381.21581 289.720423 
L 383.421344 282.234641 
L 385.626877 281.185537 
L 387.832411 279.524971 
L 390.037945 282.940514 
L 392.243478 277.113533 
L 394.449012 279.947613 
L 396.654545 267.855128 
L 398.860079 267.723659 
L 401.065613 265.757803 
L 405.47668 259.385535 
L 407.682213 255.639115 
L 409.887747 259.908763 
L 412.093281 252.076221 
L 414.298814 247.748338 
L 416.504348 246.920702 
L 418.709881 250.336245 
L 420.915415 250.336245 
L 423.120949 249.185672 
L 425.326482 254.081783 
L 427.532016 250.815356 
L 429.737549 246.768057 
L 431.943083 244.963669 
L 434.148617 241.242837 
L 436.35415 236.261139 
L 440.765217 221.053107 
L 440.765217 221.053107 
" style="fill:none;stroke:#ff7f0e;stroke-linecap:square;stroke-width:1.5;"/>
   </g>
   <g id="line2d_27">
    <path clip-path="url(#p11624b03c9)" d="M 92.290909 369.36 
L 112.140711 369.260873 
L 120.962846 369.072196 
L 127.579447 368.715202 
L 134.196047 367.207683 
L 138.607115 365.648314 
L 140.812648 364.822603 
L 143.018182 363.805195 
L 154.04585 356.149923 
L 158.456917 352.100999 
L 165.073518 344.711531 
L 167.279051 342.622796 
L 171.690119 338.159679 
L 178.306719 330.617682 
L 182.717787 326.20512 
L 184.92332 325.057442 
L 189.334387 321.406405 
L 195.950988 315.128898 
L 198.156522 313.45565 
L 202.567589 309.648547 
L 206.978656 305.611355 
L 209.18419 304.292082 
L 211.389723 301.727901 
L 213.595257 300.012207 
L 218.006324 297.04643 
L 220.211858 295.326939 
L 222.417391 295.822228 
L 224.622925 293.922343 
L 226.828458 292.517401 
L 229.033992 290.842168 
L 231.239526 289.628578 
L 233.445059 287.970169 
L 240.06166 282.426321 
L 242.267194 281.523483 
L 244.472727 280.199723 
L 246.678261 280.121992 
L 248.883794 278.185613 
L 251.089328 277.672639 
L 253.294862 275.722457 
L 255.500395 274.075953 
L 257.705929 273.545984 
L 259.911462 272.317468 
L 262.116996 271.467429 
L 264.32253 270.391443 
L 266.528063 268.938016 
L 268.733597 267.219043 
L 270.93913 269.738535 
L 273.144664 268.922142 
L 275.350198 267.670851 
L 277.555731 267.141571 
L 279.761265 266.09138 
L 281.966798 265.215545 
L 284.172332 264.10298 
L 286.377866 262.669309 
L 288.583399 261.533623 
L 290.788933 262.301013 
L 292.994466 261.731013 
L 295.2 260.511729 
L 297.405534 260.225823 
L 299.611067 258.986955 
L 301.816601 257.079823 
L 306.227668 254.88575 
L 308.433202 254.462154 
L 312.844269 252.552002 
L 315.049802 251.240752 
L 317.255336 249.71408 
L 319.46087 248.372289 
L 321.666403 247.162236 
L 323.871937 246.726131 
L 328.283004 243.98121 
L 330.488538 242.245587 
L 332.694071 240.220607 
L 337.105138 236.579232 
L 339.310672 235.499105 
L 343.721739 231.042976 
L 345.927273 228.370697 
L 348.132806 225.14593 
L 352.543874 219.424103 
L 354.749407 217.588318 
L 356.954941 215.167435 
L 359.160474 211.644684 
L 361.366008 211.561259 
L 363.571542 207.666417 
L 365.777075 212.746121 
L 367.982609 209.59805 
L 370.188142 207.034129 
L 372.393676 203.022646 
L 374.599209 199.499551 
L 376.804743 195.482202 
L 379.010277 191.017532 
L 383.421344 182.725485 
L 385.626877 179.857713 
L 387.832411 175.599492 
L 390.037945 172.273874 
L 392.243478 166.873582 
L 394.449012 162.207036 
L 396.654545 158.123862 
L 398.860079 153.548763 
L 401.065613 150.781843 
L 405.47668 143.675693 
L 412.093281 131.933968 
L 414.298814 128.743796 
L 416.504348 126.380285 
L 420.915415 120.313369 
L 425.326482 113.090665 
L 427.532016 110.196407 
L 429.737549 106.720157 
L 431.943083 106.695483 
L 434.148617 103.192144 
L 436.35415 102.977413 
L 438.559684 99.779736 
L 440.765217 97.046289 
L 442.970751 93.953433 
L 445.176285 91.134576 
L 447.381818 88.104699 
L 449.587352 87.971926 
L 451.792885 86.600544 
L 453.998419 84.048355 
L 456.203953 80.487559 
L 458.409486 78.358103 
L 460.61502 76.03419 
L 462.820553 75.84836 
L 465.026087 74.885563 
L 467.231621 73.316273 
L 469.437154 71.508095 
L 471.642688 68.958149 
L 473.848221 66.96 
L 473.848221 66.96 
" style="fill:none;stroke:#2ca02c;stroke-linecap:square;stroke-width:1.5;"/>
   </g>
   <g id="line2d_28">
    <path clip-path="url(#p11624b03c9)" d="M 92.290909 369.277647 
L 105.524111 369.270803 
L 171.690119 369.194545 
L 209.18419 369.02052 
L 213.595257 368.82792 
L 240.06166 368.054585 
L 251.089328 367.501226 
L 253.294862 367.54131 
L 266.528063 367.028035 
L 268.733597 367.296893 
L 273.144664 367.13069 
L 275.350198 366.900938 
L 281.966798 366.511827 
L 284.172332 366.386685 
L 286.377866 366.741578 
L 292.994466 366.241991 
L 295.2 366.03277 
L 297.405534 365.690586 
L 299.611067 365.84408 
L 306.227668 365.105942 
L 308.433202 365.343515 
L 319.46087 363.968915 
L 321.666403 363.66486 
L 323.871937 363.747962 
L 334.899605 362.28635 
L 337.105138 362.252132 
L 339.310672 362.039978 
L 341.516206 362.297104 
L 343.721739 362.131879 
L 345.927273 361.734946 
L 348.132806 364.11361 
L 350.33834 363.823243 
L 352.543874 363.922965 
L 359.160474 363.505501 
L 361.366008 363.917099 
L 367.982609 362.933566 
L 372.393676 361.55701 
L 374.599209 361.404494 
L 376.804743 360.932281 
L 381.21581 360.200986 
L 385.626877 358.996501 
L 387.832411 358.136154 
L 390.037945 358.231965 
L 392.243478 357.414636 
L 394.449012 359.941905 
L 396.654545 361.552122 
L 398.860079 361.742767 
L 405.47668 359.019965 
L 409.887747 358.672893 
L 412.093281 358.77066 
L 414.298814 358.467583 
L 418.709881 359.008233 
L 420.915415 359.413964 
L 420.915415 359.413964 
" style="fill:none;stroke:#d62728;stroke-linecap:square;stroke-width:1.5;"/>
   </g>
   <g id="patch_3">
    <path d="M 72 384.48 
L 72 51.84 
" style="fill:none;stroke:#000000;stroke-linecap:square;stroke-linejoin:miter;stroke-width:0.8;"/>
   </g>
   <g id="patch_4">
    <path d="M 518.4 384.48 
L 518.4 51.84 
" style="fill:none;stroke:#000000;stroke-linecap:square;stroke-linejoin:miter;stroke-width:0.8;"/>
   </g>
   <g id="patch_5">
    <path d="M 72 384.48 
L 518.4 384.48 
" style="fill:none;stroke:#000000;stroke-linecap:square;stroke-linejoin:miter;stroke-width:0.8;"/>
   </g>
   <g id="patch_6">
    <path d="M 72 51.84 
L 518.4 51.84 
" style="fill:none;stroke:#000000;stroke-linecap:square;stroke-linejoin:miter;stroke-width:0.8;"/>
   </g>
   <g id="text_17">
    <!-- Percentage of Active Population Since Day of More Than 100 Confirmed Cases -->
    <defs>
     <path d="M 41.109375 46.296875 
Q 39.59375 47.171875 37.8125 47.578125 
Q 36.03125 48 33.890625 48 
Q 26.265625 48 22.1875 43.046875 
Q 18.109375 38.09375 18.109375 28.8125 
L 18.109375 0 
L 9.078125 0 
L 9.078125 54.6875 
L 18.109375 54.6875 
L 18.109375 46.1875 
Q 20.953125 51.171875 25.484375 53.578125 
Q 30.03125 56 36.53125 56 
Q 37.453125 56 38.578125 55.875 
Q 39.703125 55.765625 41.0625 55.515625 
z
" id="DejaVuSans-114"/>
     <path d="M 45.40625 27.984375 
Q 45.40625 37.75 41.375 43.109375 
Q 37.359375 48.484375 30.078125 48.484375 
Q 22.859375 48.484375 18.828125 43.109375 
Q 14.796875 37.75 14.796875 27.984375 
Q 14.796875 18.265625 18.828125 12.890625 
Q 22.859375 7.515625 30.078125 7.515625 
Q 37.359375 7.515625 41.375 12.890625 
Q 45.40625 18.265625 45.40625 27.984375 
z
M 54.390625 6.78125 
Q 54.390625 -7.171875 48.1875 -13.984375 
Q 42 -20.796875 29.203125 -20.796875 
Q 24.46875 -20.796875 20.265625 -20.09375 
Q 16.0625 -19.390625 12.109375 -17.921875 
L 12.109375 -9.1875 
Q 16.0625 -11.328125 19.921875 -12.34375 
Q 23.78125 -13.375 27.78125 -13.375 
Q 36.625 -13.375 41.015625 -8.765625 
Q 45.40625 -4.15625 45.40625 5.171875 
L 45.40625 9.625 
Q 42.625 4.78125 38.28125 2.390625 
Q 33.9375 0 27.875 0 
Q 17.828125 0 11.671875 7.65625 
Q 5.515625 15.328125 5.515625 27.984375 
Q 5.515625 40.671875 11.671875 48.328125 
Q 17.828125 56 27.875 56 
Q 33.9375 56 38.28125 53.609375 
Q 42.625 51.21875 45.40625 46.390625 
L 45.40625 54.6875 
L 54.390625 54.6875 
z
" id="DejaVuSans-103"/>
     <path d="M 37.109375 75.984375 
L 37.109375 68.5 
L 28.515625 68.5 
Q 23.6875 68.5 21.796875 66.546875 
Q 19.921875 64.59375 19.921875 59.515625 
L 19.921875 54.6875 
L 34.71875 54.6875 
L 34.71875 47.703125 
L 19.921875 47.703125 
L 19.921875 0 
L 10.890625 0 
L 10.890625 47.703125 
L 2.296875 47.703125 
L 2.296875 54.6875 
L 10.890625 54.6875 
L 10.890625 58.5 
Q 10.890625 67.625 15.140625 71.796875 
Q 19.390625 75.984375 28.609375 75.984375 
z
" id="DejaVuSans-102"/>
     <path d="M 53.515625 70.515625 
L 53.515625 60.890625 
Q 47.90625 63.578125 42.921875 64.890625 
Q 37.9375 66.21875 33.296875 66.21875 
Q 25.25 66.21875 20.875 63.09375 
Q 16.5 59.96875 16.5 54.203125 
Q 16.5 49.359375 19.40625 46.890625 
Q 22.3125 44.4375 30.421875 42.921875 
L 36.375 41.703125 
Q 47.40625 39.59375 52.65625 34.296875 
Q 57.90625 29 57.90625 20.125 
Q 57.90625 9.515625 50.796875 4.046875 
Q 43.703125 -1.421875 29.984375 -1.421875 
Q 24.8125 -1.421875 18.96875 -0.25 
Q 13.140625 0.921875 6.890625 3.21875 
L 6.890625 13.375 
Q 12.890625 10.015625 18.65625 8.296875 
Q 24.421875 6.59375 29.984375 6.59375 
Q 38.421875 6.59375 43.015625 9.90625 
Q 47.609375 13.234375 47.609375 19.390625 
Q 47.609375 24.75 44.3125 27.78125 
Q 41.015625 30.8125 33.5 32.328125 
L 27.484375 33.5 
Q 16.453125 35.6875 11.515625 40.375 
Q 6.59375 45.0625 6.59375 53.421875 
Q 6.59375 63.09375 13.40625 68.65625 
Q 20.21875 74.21875 32.171875 74.21875 
Q 37.3125 74.21875 42.625 73.28125 
Q 47.953125 72.359375 53.515625 70.515625 
z
" id="DejaVuSans-83"/>
     <path d="M 9.8125 72.90625 
L 24.515625 72.90625 
L 43.109375 23.296875 
L 61.8125 72.90625 
L 76.515625 72.90625 
L 76.515625 0 
L 66.890625 0 
L 66.890625 64.015625 
L 48.09375 14.015625 
L 38.1875 14.015625 
L 19.390625 64.015625 
L 19.390625 0 
L 9.8125 0 
z
" id="DejaVuSans-77"/>
     <path d="M -0.296875 72.90625 
L 61.375 72.90625 
L 61.375 64.59375 
L 35.5 64.59375 
L 35.5 0 
L 25.59375 0 
L 25.59375 64.59375 
L -0.296875 64.59375 
z
" id="DejaVuSans-84"/>
     <path d="M 54.890625 33.015625 
L 54.890625 0 
L 45.90625 0 
L 45.90625 32.71875 
Q 45.90625 40.484375 42.875 44.328125 
Q 39.84375 48.1875 33.796875 48.1875 
Q 26.515625 48.1875 22.3125 43.546875 
Q 18.109375 38.921875 18.109375 30.90625 
L 18.109375 0 
L 9.078125 0 
L 9.078125 75.984375 
L 18.109375 75.984375 
L 18.109375 46.1875 
Q 21.34375 51.125 25.703125 53.5625 
Q 30.078125 56 35.796875 56 
Q 45.21875 56 50.046875 50.171875 
Q 54.890625 44.34375 54.890625 33.015625 
z
" id="DejaVuSans-104"/>
     <path d="M 64.40625 67.28125 
L 64.40625 56.890625 
Q 59.421875 61.53125 53.78125 63.8125 
Q 48.140625 66.109375 41.796875 66.109375 
Q 29.296875 66.109375 22.65625 58.46875 
Q 16.015625 50.828125 16.015625 36.375 
Q 16.015625 21.96875 22.65625 14.328125 
Q 29.296875 6.6875 41.796875 6.6875 
Q 48.140625 6.6875 53.78125 8.984375 
Q 59.421875 11.28125 64.40625 15.921875 
L 64.40625 5.609375 
Q 59.234375 2.09375 53.4375 0.328125 
Q 47.65625 -1.421875 41.21875 -1.421875 
Q 24.65625 -1.421875 15.125 8.703125 
Q 5.609375 18.84375 5.609375 36.375 
Q 5.609375 53.953125 15.125 64.078125 
Q 24.65625 74.21875 41.21875 74.21875 
Q 47.75 74.21875 53.53125 72.484375 
Q 59.328125 70.75 64.40625 67.28125 
z
" id="DejaVuSans-67"/>
     <path d="M 52 44.1875 
Q 55.375 50.25 60.0625 53.125 
Q 64.75 56 71.09375 56 
Q 79.640625 56 84.28125 50.015625 
Q 88.921875 44.046875 88.921875 33.015625 
L 88.921875 0 
L 79.890625 0 
L 79.890625 32.71875 
Q 79.890625 40.578125 77.09375 44.375 
Q 74.3125 48.1875 68.609375 48.1875 
Q 61.625 48.1875 57.5625 43.546875 
Q 53.515625 38.921875 53.515625 30.90625 
L 53.515625 0 
L 44.484375 0 
L 44.484375 32.71875 
Q 44.484375 40.625 41.703125 44.40625 
Q 38.921875 48.1875 33.109375 48.1875 
Q 26.21875 48.1875 22.15625 43.53125 
Q 18.109375 38.875 18.109375 30.90625 
L 18.109375 0 
L 9.078125 0 
L 9.078125 54.6875 
L 18.109375 54.6875 
L 18.109375 46.1875 
Q 21.1875 51.21875 25.484375 53.609375 
Q 29.78125 56 35.6875 56 
Q 41.65625 56 45.828125 52.96875 
Q 50 49.953125 52 44.1875 
z
" id="DejaVuSans-109"/>
     <path d="M 45.40625 46.390625 
L 45.40625 75.984375 
L 54.390625 75.984375 
L 54.390625 0 
L 45.40625 0 
L 45.40625 8.203125 
Q 42.578125 3.328125 38.25 0.953125 
Q 33.9375 -1.421875 27.875 -1.421875 
Q 17.96875 -1.421875 11.734375 6.484375 
Q 5.515625 14.40625 5.515625 27.296875 
Q 5.515625 40.1875 11.734375 48.09375 
Q 17.96875 56 27.875 56 
Q 33.9375 56 38.25 53.625 
Q 42.578125 51.265625 45.40625 46.390625 
z
M 14.796875 27.296875 
Q 14.796875 17.390625 18.875 11.75 
Q 22.953125 6.109375 30.078125 6.109375 
Q 37.203125 6.109375 41.296875 11.75 
Q 45.40625 17.390625 45.40625 27.296875 
Q 45.40625 37.203125 41.296875 42.84375 
Q 37.203125 48.484375 30.078125 48.484375 
Q 22.953125 48.484375 18.875 42.84375 
Q 14.796875 37.203125 14.796875 27.296875 
z
" id="DejaVuSans-100"/>
    </defs>
    <g transform="translate(60.482812 45.84)scale(0.12 -0.12)">
     <use xlink:href="#DejaVuSans-80"/>
     <use x="56.677734" xlink:href="#DejaVuSans-101"/>
     <use x="118.201172" xlink:href="#DejaVuSans-114"/>
     <use x="157.064453" xlink:href="#DejaVuSans-99"/>
     <use x="212.044922" xlink:href="#DejaVuSans-101"/>
     <use x="273.568359" xlink:href="#DejaVuSans-110"/>
     <use x="336.947266" xlink:href="#DejaVuSans-116"/>
     <use x="376.15625" xlink:href="#DejaVuSans-97"/>
     <use x="437.435547" xlink:href="#DejaVuSans-103"/>
     <use x="500.912109" xlink:href="#DejaVuSans-101"/>
     <use x="562.435547" xlink:href="#DejaVuSans-32"/>
     <use x="594.222656" xlink:href="#DejaVuSans-111"/>
     <use x="655.404297" xlink:href="#DejaVuSans-102"/>
     <use x="690.609375" xlink:href="#DejaVuSans-32"/>
     <use x="722.396484" xlink:href="#DejaVuSans-65"/>
     <use x="789.054688" xlink:href="#DejaVuSans-99"/>
     <use x="844.035156" xlink:href="#DejaVuSans-116"/>
     <use x="883.244141" xlink:href="#DejaVuSans-105"/>
     <use x="911.027344" xlink:href="#DejaVuSans-118"/>
     <use x="970.207031" xlink:href="#DejaVuSans-101"/>
     <use x="1031.730469" xlink:href="#DejaVuSans-32"/>
     <use x="1063.517578" xlink:href="#DejaVuSans-80"/>
     <use x="1120.195312" xlink:href="#DejaVuSans-111"/>
     <use x="1181.376953" xlink:href="#DejaVuSans-112"/>
     <use x="1244.853516" xlink:href="#DejaVuSans-117"/>
     <use x="1308.232422" xlink:href="#DejaVuSans-108"/>
     <use x="1336.015625" xlink:href="#DejaVuSans-97"/>
     <use x="1397.294922" xlink:href="#DejaVuSans-116"/>
     <use x="1436.503906" xlink:href="#DejaVuSans-105"/>
     <use x="1464.287109" xlink:href="#DejaVuSans-111"/>
     <use x="1525.46875" xlink:href="#DejaVuSans-110"/>
     <use x="1588.847656" xlink:href="#DejaVuSans-32"/>
     <use x="1620.634766" xlink:href="#DejaVuSans-83"/>
     <use x="1684.111328" xlink:href="#DejaVuSans-105"/>
     <use x="1711.894531" xlink:href="#DejaVuSans-110"/>
     <use x="1775.273438" xlink:href="#DejaVuSans-99"/>
     <use x="1830.253906" xlink:href="#DejaVuSans-101"/>
     <use x="1891.777344" xlink:href="#DejaVuSans-32"/>
     <use x="1923.564453" xlink:href="#DejaVuSans-68"/>
     <use x="2000.566406" xlink:href="#DejaVuSans-97"/>
     <use x="2061.845703" xlink:href="#DejaVuSans-121"/>
     <use x="2121.025391" xlink:href="#DejaVuSans-32"/>
     <use x="2152.8125" xlink:href="#DejaVuSans-111"/>
     <use x="2213.994141" xlink:href="#DejaVuSans-102"/>
     <use x="2249.199219" xlink:href="#DejaVuSans-32"/>
     <use x="2280.986328" xlink:href="#DejaVuSans-77"/>
     <use x="2367.265625" xlink:href="#DejaVuSans-111"/>
     <use x="2428.447266" xlink:href="#DejaVuSans-114"/>
     <use x="2467.310547" xlink:href="#DejaVuSans-101"/>
     <use x="2528.833984" xlink:href="#DejaVuSans-32"/>
     <use x="2560.621094" xlink:href="#DejaVuSans-84"/>
     <use x="2621.705078" xlink:href="#DejaVuSans-104"/>
     <use x="2685.083984" xlink:href="#DejaVuSans-97"/>
     <use x="2746.363281" xlink:href="#DejaVuSans-110"/>
     <use x="2809.742188" xlink:href="#DejaVuSans-32"/>
     <use x="2841.529297" xlink:href="#DejaVuSans-49"/>
     <use x="2905.152344" xlink:href="#DejaVuSans-48"/>
     <use x="2968.775391" xlink:href="#DejaVuSans-48"/>
     <use x="3032.398438" xlink:href="#DejaVuSans-32"/>
     <use x="3064.185547" xlink:href="#DejaVuSans-67"/>
     <use x="3134.009766" xlink:href="#DejaVuSans-111"/>
     <use x="3195.191406" xlink:href="#DejaVuSans-110"/>
     <use x="3258.570312" xlink:href="#DejaVuSans-102"/>
     <use x="3293.775391" xlink:href="#DejaVuSans-105"/>
     <use x="3321.558594" xlink:href="#DejaVuSans-114"/>
     <use x="3360.921875" xlink:href="#DejaVuSans-109"/>
     <use x="3458.333984" xlink:href="#DejaVuSans-101"/>
     <use x="3519.857422" xlink:href="#DejaVuSans-100"/>
     <use x="3583.333984" xlink:href="#DejaVuSans-32"/>
     <use x="3615.121094" xlink:href="#DejaVuSans-67"/>
     <use x="3684.945312" xlink:href="#DejaVuSans-97"/>
     <use x="3746.224609" xlink:href="#DejaVuSans-115"/>
     <use x="3798.324219" xlink:href="#DejaVuSans-101"/>
     <use x="3859.847656" xlink:href="#DejaVuSans-115"/>
    </g>
   </g>
   <g id="legend_1">
    <g id="patch_7">
     <path d="M 79 265.33375 
L 171.584375 265.33375 
Q 173.584375 265.33375 173.584375 263.33375 
L 173.584375 58.84 
Q 173.584375 56.84 171.584375 56.84 
L 79 56.84 
Q 77 56.84 77 58.84 
L 77 263.33375 
Q 77 265.33375 79 265.33375 
z
" style="fill:#ffffff;opacity:0.8;stroke:#cccccc;stroke-linejoin:miter;"/>
    </g>
    <g id="line2d_29">
     <path d="M 81 64.938437 
L 101 64.938437 
" style="fill:none;stroke:#1f77b4;stroke-linecap:square;stroke-width:1.5;"/>
    </g>
    <g id="line2d_30"/>
    <g id="text_18">
     <!-- Argentina -->
     <g transform="translate(109 68.438437)scale(0.1 -0.1)">
      <use xlink:href="#DejaVuSans-65"/>
      <use x="68.408203" xlink:href="#DejaVuSans-114"/>
      <use x="107.771484" xlink:href="#DejaVuSans-103"/>
      <use x="171.248047" xlink:href="#DejaVuSans-101"/>
      <use x="232.771484" xlink:href="#DejaVuSans-110"/>
      <use x="296.150391" xlink:href="#DejaVuSans-116"/>
      <use x="335.359375" xlink:href="#DejaVuSans-105"/>
      <use x="363.142578" xlink:href="#DejaVuSans-110"/>
      <use x="426.521484" xlink:href="#DejaVuSans-97"/>
     </g>
    </g>
    <g id="line2d_31">
     <path d="M 81 79.616562 
L 101 79.616562 
" style="fill:none;stroke:#ff7f0e;stroke-linecap:square;stroke-width:1.5;"/>
    </g>
    <g id="line2d_32"/>
    <g id="text_19">
     <!-- Bolivia -->
     <defs>
      <path d="M 19.671875 34.8125 
L 19.671875 8.109375 
L 35.5 8.109375 
Q 43.453125 8.109375 47.28125 11.40625 
Q 51.125 14.703125 51.125 21.484375 
Q 51.125 28.328125 47.28125 31.5625 
Q 43.453125 34.8125 35.5 34.8125 
z
M 19.671875 64.796875 
L 19.671875 42.828125 
L 34.28125 42.828125 
Q 41.5 42.828125 45.03125 45.53125 
Q 48.578125 48.25 48.578125 53.8125 
Q 48.578125 59.328125 45.03125 62.0625 
Q 41.5 64.796875 34.28125 64.796875 
z
M 9.8125 72.90625 
L 35.015625 72.90625 
Q 46.296875 72.90625 52.390625 68.21875 
Q 58.5 63.53125 58.5 54.890625 
Q 58.5 48.1875 55.375 44.234375 
Q 52.25 40.28125 46.1875 39.3125 
Q 53.46875 37.75 57.5 32.78125 
Q 61.53125 27.828125 61.53125 20.40625 
Q 61.53125 10.640625 54.890625 5.3125 
Q 48.25 0 35.984375 0 
L 9.8125 0 
z
" id="DejaVuSans-66"/>
     </defs>
     <g transform="translate(109 83.116562)scale(0.1 -0.1)">
      <use xlink:href="#DejaVuSans-66"/>
      <use x="68.603516" xlink:href="#DejaVuSans-111"/>
      <use x="129.785156" xlink:href="#DejaVuSans-108"/>
      <use x="157.568359" xlink:href="#DejaVuSans-105"/>
      <use x="185.351562" xlink:href="#DejaVuSans-118"/>
      <use x="244.53125" xlink:href="#DejaVuSans-105"/>
      <use x="272.314453" xlink:href="#DejaVuSans-97"/>
     </g>
    </g>
    <g id="line2d_33">
     <path d="M 81 94.294688 
L 101 94.294688 
" style="fill:none;stroke:#2ca02c;stroke-linecap:square;stroke-width:1.5;"/>
    </g>
    <g id="line2d_34"/>
    <g id="text_20">
     <!-- Brazil -->
     <defs>
      <path d="M 5.515625 54.6875 
L 48.1875 54.6875 
L 48.1875 46.484375 
L 14.40625 7.171875 
L 48.1875 7.171875 
L 48.1875 0 
L 4.296875 0 
L 4.296875 8.203125 
L 38.09375 47.515625 
L 5.515625 47.515625 
z
" id="DejaVuSans-122"/>
     </defs>
     <g transform="translate(109 97.794688)scale(0.1 -0.1)">
      <use xlink:href="#DejaVuSans-66"/>
      <use x="68.603516" xlink:href="#DejaVuSans-114"/>
      <use x="109.716797" xlink:href="#DejaVuSans-97"/>
      <use x="170.996094" xlink:href="#DejaVuSans-122"/>
      <use x="223.486328" xlink:href="#DejaVuSans-105"/>
      <use x="251.269531" xlink:href="#DejaVuSans-108"/>
     </g>
    </g>
    <g id="line2d_35">
     <path d="M 81 108.972812 
L 101 108.972812 
" style="fill:none;stroke:#d62728;stroke-linecap:square;stroke-width:1.5;"/>
    </g>
    <g id="line2d_36"/>
    <g id="text_21">
     <!-- Chile -->
     <g transform="translate(109 112.472812)scale(0.1 -0.1)">
      <use xlink:href="#DejaVuSans-67"/>
      <use x="69.824219" xlink:href="#DejaVuSans-104"/>
      <use x="133.203125" xlink:href="#DejaVuSans-105"/>
      <use x="160.986328" xlink:href="#DejaVuSans-108"/>
      <use x="188.769531" xlink:href="#DejaVuSans-101"/>
     </g>
    </g>
    <g id="line2d_37">
     <path d="M 81 123.650937 
L 101 123.650937 
" style="fill:none;stroke:#9467bd;stroke-linecap:square;stroke-width:1.5;"/>
    </g>
    <g id="line2d_38"/>
    <g id="text_22">
     <!-- Ecuador -->
     <defs>
      <path d="M 9.8125 72.90625 
L 55.90625 72.90625 
L 55.90625 64.59375 
L 19.671875 64.59375 
L 19.671875 43.015625 
L 54.390625 43.015625 
L 54.390625 34.71875 
L 19.671875 34.71875 
L 19.671875 8.296875 
L 56.78125 8.296875 
L 56.78125 0 
L 9.8125 0 
z
" id="DejaVuSans-69"/>
     </defs>
     <g transform="translate(109 127.150937)scale(0.1 -0.1)">
      <use xlink:href="#DejaVuSans-69"/>
      <use x="63.183594" xlink:href="#DejaVuSans-99"/>
      <use x="118.164062" xlink:href="#DejaVuSans-117"/>
      <use x="181.542969" xlink:href="#DejaVuSans-97"/>
      <use x="242.822266" xlink:href="#DejaVuSans-100"/>
      <use x="306.298828" xlink:href="#DejaVuSans-111"/>
      <use x="367.480469" xlink:href="#DejaVuSans-114"/>
     </g>
    </g>
    <g id="line2d_39">
     <path d="M 81 138.329062 
L 101 138.329062 
" style="fill:none;stroke:#8c564b;stroke-linecap:square;stroke-width:1.5;"/>
    </g>
    <g id="line2d_40"/>
    <g id="text_23">
     <!-- Germany -->
     <defs>
      <path d="M 59.515625 10.40625 
L 59.515625 29.984375 
L 43.40625 29.984375 
L 43.40625 38.09375 
L 69.28125 38.09375 
L 69.28125 6.78125 
Q 63.578125 2.734375 56.6875 0.65625 
Q 49.8125 -1.421875 42 -1.421875 
Q 24.90625 -1.421875 15.25 8.5625 
Q 5.609375 18.5625 5.609375 36.375 
Q 5.609375 54.25 15.25 64.234375 
Q 24.90625 74.21875 42 74.21875 
Q 49.125 74.21875 55.546875 72.453125 
Q 61.96875 70.703125 67.390625 67.28125 
L 67.390625 56.78125 
Q 61.921875 61.421875 55.765625 63.765625 
Q 49.609375 66.109375 42.828125 66.109375 
Q 29.4375 66.109375 22.71875 58.640625 
Q 16.015625 51.171875 16.015625 36.375 
Q 16.015625 21.625 22.71875 14.15625 
Q 29.4375 6.6875 42.828125 6.6875 
Q 48.046875 6.6875 52.140625 7.59375 
Q 56.25 8.5 59.515625 10.40625 
z
" id="DejaVuSans-71"/>
     </defs>
     <g transform="translate(109 141.829062)scale(0.1 -0.1)">
      <use xlink:href="#DejaVuSans-71"/>
      <use x="77.490234" xlink:href="#DejaVuSans-101"/>
      <use x="139.013672" xlink:href="#DejaVuSans-114"/>
      <use x="178.376953" xlink:href="#DejaVuSans-109"/>
      <use x="275.789062" xlink:href="#DejaVuSans-97"/>
      <use x="337.068359" xlink:href="#DejaVuSans-110"/>
      <use x="400.447266" xlink:href="#DejaVuSans-121"/>
     </g>
    </g>
    <g id="line2d_41">
     <path d="M 81 153.007187 
L 101 153.007187 
" style="fill:none;stroke:#e377c2;stroke-linecap:square;stroke-width:1.5;"/>
    </g>
    <g id="line2d_42"/>
    <g id="text_24">
     <!-- Guatemala -->
     <g transform="translate(109 156.507187)scale(0.1 -0.1)">
      <use xlink:href="#DejaVuSans-71"/>
      <use x="77.490234" xlink:href="#DejaVuSans-117"/>
      <use x="140.869141" xlink:href="#DejaVuSans-97"/>
      <use x="202.148438" xlink:href="#DejaVuSans-116"/>
      <use x="241.357422" xlink:href="#DejaVuSans-101"/>
      <use x="302.880859" xlink:href="#DejaVuSans-109"/>
      <use x="400.292969" xlink:href="#DejaVuSans-97"/>
      <use x="461.572266" xlink:href="#DejaVuSans-108"/>
      <use x="489.355469" xlink:href="#DejaVuSans-97"/>
     </g>
    </g>
    <g id="line2d_43">
     <path d="M 81 167.685312 
L 101 167.685312 
" style="fill:none;stroke:#7f7f7f;stroke-linecap:square;stroke-width:1.5;"/>
    </g>
    <g id="line2d_44"/>
    <g id="text_25">
     <!-- Italy -->
     <defs>
      <path d="M 9.8125 72.90625 
L 19.671875 72.90625 
L 19.671875 0 
L 9.8125 0 
z
" id="DejaVuSans-73"/>
     </defs>
     <g transform="translate(109 171.185312)scale(0.1 -0.1)">
      <use xlink:href="#DejaVuSans-73"/>
      <use x="29.492188" xlink:href="#DejaVuSans-116"/>
      <use x="68.701172" xlink:href="#DejaVuSans-97"/>
      <use x="129.980469" xlink:href="#DejaVuSans-108"/>
      <use x="157.763672" xlink:href="#DejaVuSans-121"/>
     </g>
    </g>
    <g id="line2d_45">
     <path d="M 81 182.363437 
L 101 182.363437 
" style="fill:none;stroke:#bcbd22;stroke-linecap:square;stroke-width:1.5;"/>
    </g>
    <g id="line2d_46"/>
    <g id="text_26">
     <!-- Korea,South -->
     <defs>
      <path d="M 9.8125 72.90625 
L 19.671875 72.90625 
L 19.671875 42.09375 
L 52.390625 72.90625 
L 65.09375 72.90625 
L 28.90625 38.921875 
L 67.671875 0 
L 54.6875 0 
L 19.671875 35.109375 
L 19.671875 0 
L 9.8125 0 
z
" id="DejaVuSans-75"/>
      <path d="M 11.71875 12.40625 
L 22.015625 12.40625 
L 22.015625 4 
L 14.015625 -11.625 
L 7.71875 -11.625 
L 11.71875 4 
z
" id="DejaVuSans-44"/>
     </defs>
     <g transform="translate(109 185.863437)scale(0.1 -0.1)">
      <use xlink:href="#DejaVuSans-75"/>
      <use x="60.576172" xlink:href="#DejaVuSans-111"/>
      <use x="121.757812" xlink:href="#DejaVuSans-114"/>
      <use x="160.621094" xlink:href="#DejaVuSans-101"/>
      <use x="222.144531" xlink:href="#DejaVuSans-97"/>
      <use x="283.423828" xlink:href="#DejaVuSans-44"/>
      <use x="315.210938" xlink:href="#DejaVuSans-83"/>
      <use x="378.6875" xlink:href="#DejaVuSans-111"/>
      <use x="439.869141" xlink:href="#DejaVuSans-117"/>
      <use x="503.248047" xlink:href="#DejaVuSans-116"/>
      <use x="542.457031" xlink:href="#DejaVuSans-104"/>
     </g>
    </g>
    <g id="line2d_47">
     <path d="M 81 197.041562 
L 101 197.041562 
" style="fill:none;stroke:#17becf;stroke-linecap:square;stroke-width:1.5;"/>
    </g>
    <g id="line2d_48"/>
    <g id="text_27">
     <!-- Mexico -->
     <defs>
      <path d="M 54.890625 54.6875 
L 35.109375 28.078125 
L 55.90625 0 
L 45.3125 0 
L 29.390625 21.484375 
L 13.484375 0 
L 2.875 0 
L 24.125 28.609375 
L 4.6875 54.6875 
L 15.28125 54.6875 
L 29.78125 35.203125 
L 44.28125 54.6875 
z
" id="DejaVuSans-120"/>
     </defs>
     <g transform="translate(109 200.541562)scale(0.1 -0.1)">
      <use xlink:href="#DejaVuSans-77"/>
      <use x="86.279297" xlink:href="#DejaVuSans-101"/>
      <use x="146.052734" xlink:href="#DejaVuSans-120"/>
      <use x="205.232422" xlink:href="#DejaVuSans-105"/>
      <use x="233.015625" xlink:href="#DejaVuSans-99"/>
      <use x="287.996094" xlink:href="#DejaVuSans-111"/>
     </g>
    </g>
    <g id="line2d_49">
     <path d="M 81 211.719687 
L 101 211.719687 
" style="fill:none;stroke:#1f77b4;stroke-linecap:square;stroke-width:1.5;"/>
    </g>
    <g id="line2d_50"/>
    <g id="text_28">
     <!-- Panama -->
     <g transform="translate(109 215.219687)scale(0.1 -0.1)">
      <use xlink:href="#DejaVuSans-80"/>
      <use x="55.802734" xlink:href="#DejaVuSans-97"/>
      <use x="117.082031" xlink:href="#DejaVuSans-110"/>
      <use x="180.460938" xlink:href="#DejaVuSans-97"/>
      <use x="241.740234" xlink:href="#DejaVuSans-109"/>
      <use x="339.152344" xlink:href="#DejaVuSans-97"/>
     </g>
    </g>
    <g id="line2d_51">
     <path d="M 81 226.397812 
L 101 226.397812 
" style="fill:none;stroke:#ff7f0e;stroke-linecap:square;stroke-width:1.5;"/>
    </g>
    <g id="line2d_52"/>
    <g id="text_29">
     <!-- Peru -->
     <g transform="translate(109 229.897812)scale(0.1 -0.1)">
      <use xlink:href="#DejaVuSans-80"/>
      <use x="56.677734" xlink:href="#DejaVuSans-101"/>
      <use x="118.201172" xlink:href="#DejaVuSans-114"/>
      <use x="159.314453" xlink:href="#DejaVuSans-117"/>
     </g>
    </g>
    <g id="line2d_53">
     <path d="M 81 241.075937 
L 101 241.075937 
" style="fill:none;stroke:#2ca02c;stroke-linecap:square;stroke-width:1.5;"/>
    </g>
    <g id="line2d_54"/>
    <g id="text_30">
     <!-- US -->
     <defs>
      <path d="M 8.6875 72.90625 
L 18.609375 72.90625 
L 18.609375 28.609375 
Q 18.609375 16.890625 22.84375 11.734375 
Q 27.09375 6.59375 36.625 6.59375 
Q 46.09375 6.59375 50.34375 11.734375 
Q 54.59375 16.890625 54.59375 28.609375 
L 54.59375 72.90625 
L 64.5 72.90625 
L 64.5 27.390625 
Q 64.5 13.140625 57.4375 5.859375 
Q 50.390625 -1.421875 36.625 -1.421875 
Q 22.796875 -1.421875 15.734375 5.859375 
Q 8.6875 13.140625 8.6875 27.390625 
z
" id="DejaVuSans-85"/>
     </defs>
     <g transform="translate(109 244.575937)scale(0.1 -0.1)">
      <use xlink:href="#DejaVuSans-85"/>
      <use x="73.193359" xlink:href="#DejaVuSans-83"/>
     </g>
    </g>
    <g id="line2d_55">
     <path d="M 81 255.754062 
L 101 255.754062 
" style="fill:none;stroke:#d62728;stroke-linecap:square;stroke-width:1.5;"/>
    </g>
    <g id="line2d_56"/>
    <g id="text_31">
     <!-- Venezuela -->
     <defs>
      <path d="M 28.609375 0 
L 0.78125 72.90625 
L 11.078125 72.90625 
L 34.1875 11.53125 
L 57.328125 72.90625 
L 67.578125 72.90625 
L 39.796875 0 
z
" id="DejaVuSans-86"/>
     </defs>
     <g transform="translate(109 259.254062)scale(0.1 -0.1)">
      <use xlink:href="#DejaVuSans-86"/>
      <use x="60.658203" xlink:href="#DejaVuSans-101"/>
      <use x="122.181641" xlink:href="#DejaVuSans-110"/>
      <use x="185.560547" xlink:href="#DejaVuSans-101"/>
      <use x="247.083984" xlink:href="#DejaVuSans-122"/>
      <use x="299.574219" xlink:href="#DejaVuSans-117"/>
      <use x="362.953125" xlink:href="#DejaVuSans-101"/>
      <use x="424.476562" xlink:href="#DejaVuSans-108"/>
      <use x="452.259766" xlink:href="#DejaVuSans-97"/>
     </g>
    </g>
   </g>
  </g>
 </g>
 <defs>
  <clipPath id="p11624b03c9">
   <rect height="332.64" width="446.4" x="72" y="51.84"/>
  </clipPath>
 </defs>
</svg>
