<?xml version="1.0" encoding="utf-8" standalone="no"?>
<!DOCTYPE svg PUBLIC "-//W3C//DTD SVG 1.1//EN"
  "http://www.w3.org/Graphics/SVG/1.1/DTD/svg11.dtd">
<!-- Created with matplotlib (https://matplotlib.org/) -->
<svg height="432pt" version="1.1" viewBox="0 0 576 432" width="576pt" xmlns="http://www.w3.org/2000/svg" xmlns:xlink="http://www.w3.org/1999/xlink">
 <defs>
  <style type="text/css">
*{stroke-linecap:butt;stroke-linejoin:round;}
  </style>
 </defs>
 <g id="figure_1">
  <g id="patch_1">
   <path d="M 0 432 
L 576 432 
L 576 0 
L 0 0 
z
" style="fill:#ffffff;"/>
  </g>
  <g id="axes_1">
   <g id="patch_2">
    <path d="M 72 384.48 
L 518.4 384.48 
L 518.4 51.84 
L 72 51.84 
z
" style="fill:#ffffff;"/>
   </g>
   <g id="matplotlib.axis_1">
    <g id="xtick_1">
     <g id="line2d_1">
      <defs>
       <path d="M 0 0 
L 0 3.5 
" id="m995ccbfd2b" style="stroke:#000000;stroke-width:0.8;"/>
      </defs>
      <g>
       <use style="stroke:#000000;stroke-width:0.8;" x="92.290909" xlink:href="#m995ccbfd2b" y="384.48"/>
      </g>
     </g>
     <g id="text_1">
      <!-- 0 -->
      <defs>
       <path d="M 31.78125 66.40625 
Q 24.171875 66.40625 20.328125 58.90625 
Q 16.5 51.421875 16.5 36.375 
Q 16.5 21.390625 20.328125 13.890625 
Q 24.171875 6.390625 31.78125 6.390625 
Q 39.453125 6.390625 43.28125 13.890625 
Q 47.125 21.390625 47.125 36.375 
Q 47.125 51.421875 43.28125 58.90625 
Q 39.453125 66.40625 31.78125 66.40625 
z
M 31.78125 74.21875 
Q 44.046875 74.21875 50.515625 64.515625 
Q 56.984375 54.828125 56.984375 36.375 
Q 56.984375 17.96875 50.515625 8.265625 
Q 44.046875 -1.421875 31.78125 -1.421875 
Q 19.53125 -1.421875 13.0625 8.265625 
Q 6.59375 17.96875 6.59375 36.375 
Q 6.59375 54.828125 13.0625 64.515625 
Q 19.53125 74.21875 31.78125 74.21875 
z
" id="DejaVuSans-48"/>
      </defs>
      <g transform="translate(89.109659 399.078438)scale(0.1 -0.1)">
       <use xlink:href="#DejaVuSans-48"/>
      </g>
     </g>
    </g>
    <g id="xtick_2">
     <g id="line2d_2">
      <g>
       <use style="stroke:#000000;stroke-width:0.8;" x="152.501322" xlink:href="#m995ccbfd2b" y="384.48"/>
      </g>
     </g>
     <g id="text_2">
      <!-- 50 -->
      <defs>
       <path d="M 10.796875 72.90625 
L 49.515625 72.90625 
L 49.515625 64.59375 
L 19.828125 64.59375 
L 19.828125 46.734375 
Q 21.96875 47.46875 24.109375 47.828125 
Q 26.265625 48.1875 28.421875 48.1875 
Q 40.625 48.1875 47.75 41.5 
Q 54.890625 34.8125 54.890625 23.390625 
Q 54.890625 11.625 47.5625 5.09375 
Q 40.234375 -1.421875 26.90625 -1.421875 
Q 22.3125 -1.421875 17.546875 -0.640625 
Q 12.796875 0.140625 7.71875 1.703125 
L 7.71875 11.625 
Q 12.109375 9.234375 16.796875 8.0625 
Q 21.484375 6.890625 26.703125 6.890625 
Q 35.15625 6.890625 40.078125 11.328125 
Q 45.015625 15.765625 45.015625 23.390625 
Q 45.015625 31 40.078125 35.4375 
Q 35.15625 39.890625 26.703125 39.890625 
Q 22.75 39.890625 18.8125 39.015625 
Q 14.890625 38.140625 10.796875 36.28125 
z
" id="DejaVuSans-53"/>
      </defs>
      <g transform="translate(146.138822 399.078438)scale(0.1 -0.1)">
       <use xlink:href="#DejaVuSans-53"/>
       <use x="63.623047" xlink:href="#DejaVuSans-48"/>
      </g>
     </g>
    </g>
    <g id="xtick_3">
     <g id="line2d_3">
      <g>
       <use style="stroke:#000000;stroke-width:0.8;" x="212.711735" xlink:href="#m995ccbfd2b" y="384.48"/>
      </g>
     </g>
     <g id="text_3">
      <!-- 100 -->
      <defs>
       <path d="M 12.40625 8.296875 
L 28.515625 8.296875 
L 28.515625 63.921875 
L 10.984375 60.40625 
L 10.984375 69.390625 
L 28.421875 72.90625 
L 38.28125 72.90625 
L 38.28125 8.296875 
L 54.390625 8.296875 
L 54.390625 0 
L 12.40625 0 
z
" id="DejaVuSans-49"/>
      </defs>
      <g transform="translate(203.167985 399.078438)scale(0.1 -0.1)">
       <use xlink:href="#DejaVuSans-49"/>
       <use x="63.623047" xlink:href="#DejaVuSans-48"/>
       <use x="127.246094" xlink:href="#DejaVuSans-48"/>
      </g>
     </g>
    </g>
    <g id="xtick_4">
     <g id="line2d_4">
      <g>
       <use style="stroke:#000000;stroke-width:0.8;" x="272.922147" xlink:href="#m995ccbfd2b" y="384.48"/>
      </g>
     </g>
     <g id="text_4">
      <!-- 150 -->
      <g transform="translate(263.378397 399.078438)scale(0.1 -0.1)">
       <use xlink:href="#DejaVuSans-49"/>
       <use x="63.623047" xlink:href="#DejaVuSans-53"/>
       <use x="127.246094" xlink:href="#DejaVuSans-48"/>
      </g>
     </g>
    </g>
    <g id="xtick_5">
     <g id="line2d_5">
      <g>
       <use style="stroke:#000000;stroke-width:0.8;" x="333.13256" xlink:href="#m995ccbfd2b" y="384.48"/>
      </g>
     </g>
     <g id="text_5">
      <!-- 200 -->
      <defs>
       <path d="M 19.1875 8.296875 
L 53.609375 8.296875 
L 53.609375 0 
L 7.328125 0 
L 7.328125 8.296875 
Q 12.9375 14.109375 22.625 23.890625 
Q 32.328125 33.6875 34.8125 36.53125 
Q 39.546875 41.84375 41.421875 45.53125 
Q 43.3125 49.21875 43.3125 52.78125 
Q 43.3125 58.59375 39.234375 62.25 
Q 35.15625 65.921875 28.609375 65.921875 
Q 23.96875 65.921875 18.8125 64.3125 
Q 13.671875 62.703125 7.8125 59.421875 
L 7.8125 69.390625 
Q 13.765625 71.78125 18.9375 73 
Q 24.125 74.21875 28.421875 74.21875 
Q 39.75 74.21875 46.484375 68.546875 
Q 53.21875 62.890625 53.21875 53.421875 
Q 53.21875 48.921875 51.53125 44.890625 
Q 49.859375 40.875 45.40625 35.40625 
Q 44.1875 33.984375 37.640625 27.21875 
Q 31.109375 20.453125 19.1875 8.296875 
z
" id="DejaVuSans-50"/>
      </defs>
      <g transform="translate(323.58881 399.078438)scale(0.1 -0.1)">
       <use xlink:href="#DejaVuSans-50"/>
       <use x="63.623047" xlink:href="#DejaVuSans-48"/>
       <use x="127.246094" xlink:href="#DejaVuSans-48"/>
      </g>
     </g>
    </g>
    <g id="xtick_6">
     <g id="line2d_6">
      <g>
       <use style="stroke:#000000;stroke-width:0.8;" x="393.342973" xlink:href="#m995ccbfd2b" y="384.48"/>
      </g>
     </g>
     <g id="text_6">
      <!-- 250 -->
      <g transform="translate(383.799223 399.078438)scale(0.1 -0.1)">
       <use xlink:href="#DejaVuSans-50"/>
       <use x="63.623047" xlink:href="#DejaVuSans-53"/>
       <use x="127.246094" xlink:href="#DejaVuSans-48"/>
      </g>
     </g>
    </g>
    <g id="xtick_7">
     <g id="line2d_7">
      <g>
       <use style="stroke:#000000;stroke-width:0.8;" x="453.553385" xlink:href="#m995ccbfd2b" y="384.48"/>
      </g>
     </g>
     <g id="text_7">
      <!-- 300 -->
      <defs>
       <path d="M 40.578125 39.3125 
Q 47.65625 37.796875 51.625 33 
Q 55.609375 28.21875 55.609375 21.1875 
Q 55.609375 10.40625 48.1875 4.484375 
Q 40.765625 -1.421875 27.09375 -1.421875 
Q 22.515625 -1.421875 17.65625 -0.515625 
Q 12.796875 0.390625 7.625 2.203125 
L 7.625 11.71875 
Q 11.71875 9.328125 16.59375 8.109375 
Q 21.484375 6.890625 26.8125 6.890625 
Q 36.078125 6.890625 40.9375 10.546875 
Q 45.796875 14.203125 45.796875 21.1875 
Q 45.796875 27.640625 41.28125 31.265625 
Q 36.765625 34.90625 28.71875 34.90625 
L 20.21875 34.90625 
L 20.21875 43.015625 
L 29.109375 43.015625 
Q 36.375 43.015625 40.234375 45.921875 
Q 44.09375 48.828125 44.09375 54.296875 
Q 44.09375 59.90625 40.109375 62.90625 
Q 36.140625 65.921875 28.71875 65.921875 
Q 24.65625 65.921875 20.015625 65.03125 
Q 15.375 64.15625 9.8125 62.3125 
L 9.8125 71.09375 
Q 15.4375 72.65625 20.34375 73.4375 
Q 25.25 74.21875 29.59375 74.21875 
Q 40.828125 74.21875 47.359375 69.109375 
Q 53.90625 64.015625 53.90625 55.328125 
Q 53.90625 49.265625 50.4375 45.09375 
Q 46.96875 40.921875 40.578125 39.3125 
z
" id="DejaVuSans-51"/>
      </defs>
      <g transform="translate(444.009635 399.078438)scale(0.1 -0.1)">
       <use xlink:href="#DejaVuSans-51"/>
       <use x="63.623047" xlink:href="#DejaVuSans-48"/>
       <use x="127.246094" xlink:href="#DejaVuSans-48"/>
      </g>
     </g>
    </g>
    <g id="xtick_8">
     <g id="line2d_8">
      <g>
       <use style="stroke:#000000;stroke-width:0.8;" x="513.763798" xlink:href="#m995ccbfd2b" y="384.48"/>
      </g>
     </g>
     <g id="text_8">
      <!-- 350 -->
      <g transform="translate(504.220048 399.078438)scale(0.1 -0.1)">
       <use xlink:href="#DejaVuSans-51"/>
       <use x="63.623047" xlink:href="#DejaVuSans-53"/>
       <use x="127.246094" xlink:href="#DejaVuSans-48"/>
      </g>
     </g>
    </g>
    <g id="text_9">
     <!-- Days -->
     <defs>
      <path d="M 19.671875 64.796875 
L 19.671875 8.109375 
L 31.59375 8.109375 
Q 46.6875 8.109375 53.6875 14.9375 
Q 60.6875 21.78125 60.6875 36.53125 
Q 60.6875 51.171875 53.6875 57.984375 
Q 46.6875 64.796875 31.59375 64.796875 
z
M 9.8125 72.90625 
L 30.078125 72.90625 
Q 51.265625 72.90625 61.171875 64.09375 
Q 71.09375 55.28125 71.09375 36.53125 
Q 71.09375 17.671875 61.125 8.828125 
Q 51.171875 0 30.078125 0 
L 9.8125 0 
z
" id="DejaVuSans-68"/>
      <path d="M 34.28125 27.484375 
Q 23.390625 27.484375 19.1875 25 
Q 14.984375 22.515625 14.984375 16.5 
Q 14.984375 11.71875 18.140625 8.90625 
Q 21.296875 6.109375 26.703125 6.109375 
Q 34.1875 6.109375 38.703125 11.40625 
Q 43.21875 16.703125 43.21875 25.484375 
L 43.21875 27.484375 
z
M 52.203125 31.203125 
L 52.203125 0 
L 43.21875 0 
L 43.21875 8.296875 
Q 40.140625 3.328125 35.546875 0.953125 
Q 30.953125 -1.421875 24.3125 -1.421875 
Q 15.921875 -1.421875 10.953125 3.296875 
Q 6 8.015625 6 15.921875 
Q 6 25.140625 12.171875 29.828125 
Q 18.359375 34.515625 30.609375 34.515625 
L 43.21875 34.515625 
L 43.21875 35.40625 
Q 43.21875 41.609375 39.140625 45 
Q 35.0625 48.390625 27.6875 48.390625 
Q 23 48.390625 18.546875 47.265625 
Q 14.109375 46.140625 10.015625 43.890625 
L 10.015625 52.203125 
Q 14.9375 54.109375 19.578125 55.046875 
Q 24.21875 56 28.609375 56 
Q 40.484375 56 46.34375 49.84375 
Q 52.203125 43.703125 52.203125 31.203125 
z
" id="DejaVuSans-97"/>
      <path d="M 32.171875 -5.078125 
Q 28.375 -14.84375 24.75 -17.8125 
Q 21.140625 -20.796875 15.09375 -20.796875 
L 7.90625 -20.796875 
L 7.90625 -13.28125 
L 13.1875 -13.28125 
Q 16.890625 -13.28125 18.9375 -11.515625 
Q 21 -9.765625 23.484375 -3.21875 
L 25.09375 0.875 
L 2.984375 54.6875 
L 12.5 54.6875 
L 29.59375 11.921875 
L 46.6875 54.6875 
L 56.203125 54.6875 
z
" id="DejaVuSans-121"/>
      <path d="M 44.28125 53.078125 
L 44.28125 44.578125 
Q 40.484375 46.53125 36.375 47.5 
Q 32.28125 48.484375 27.875 48.484375 
Q 21.1875 48.484375 17.84375 46.4375 
Q 14.5 44.390625 14.5 40.28125 
Q 14.5 37.15625 16.890625 35.375 
Q 19.28125 33.59375 26.515625 31.984375 
L 29.59375 31.296875 
Q 39.15625 29.25 43.1875 25.515625 
Q 47.21875 21.78125 47.21875 15.09375 
Q 47.21875 7.46875 41.1875 3.015625 
Q 35.15625 -1.421875 24.609375 -1.421875 
Q 20.21875 -1.421875 15.453125 -0.5625 
Q 10.6875 0.296875 5.421875 2 
L 5.421875 11.28125 
Q 10.40625 8.6875 15.234375 7.390625 
Q 20.0625 6.109375 24.8125 6.109375 
Q 31.15625 6.109375 34.5625 8.28125 
Q 37.984375 10.453125 37.984375 14.40625 
Q 37.984375 18.0625 35.515625 20.015625 
Q 33.0625 21.96875 24.703125 23.78125 
L 21.578125 24.515625 
Q 13.234375 26.265625 9.515625 29.90625 
Q 5.8125 33.546875 5.8125 39.890625 
Q 5.8125 47.609375 11.28125 51.796875 
Q 16.75 56 26.8125 56 
Q 31.78125 56 36.171875 55.265625 
Q 40.578125 54.546875 44.28125 53.078125 
z
" id="DejaVuSans-115"/>
     </defs>
     <g transform="translate(282.721875 412.756563)scale(0.1 -0.1)">
      <use xlink:href="#DejaVuSans-68"/>
      <use x="77.001953" xlink:href="#DejaVuSans-97"/>
      <use x="138.28125" xlink:href="#DejaVuSans-121"/>
      <use x="197.460938" xlink:href="#DejaVuSans-115"/>
     </g>
    </g>
   </g>
   <g id="matplotlib.axis_2">
    <g id="ytick_1">
     <g id="line2d_9">
      <defs>
       <path d="M 0 0 
L -3.5 0 
" id="md83cc923df" style="stroke:#000000;stroke-width:0.8;"/>
      </defs>
      <g>
       <use style="stroke:#000000;stroke-width:0.8;" x="72" xlink:href="#md83cc923df" y="369.36109"/>
      </g>
     </g>
     <g id="text_10">
      <!-- 0.00 % -->
      <defs>
       <path d="M 10.6875 12.40625 
L 21 12.40625 
L 21 0 
L 10.6875 0 
z
" id="DejaVuSans-46"/>
       <path id="DejaVuSans-32"/>
       <path d="M 72.703125 32.078125 
Q 68.453125 32.078125 66.03125 28.46875 
Q 63.625 24.859375 63.625 18.40625 
Q 63.625 12.0625 66.03125 8.421875 
Q 68.453125 4.78125 72.703125 4.78125 
Q 76.859375 4.78125 79.265625 8.421875 
Q 81.6875 12.0625 81.6875 18.40625 
Q 81.6875 24.8125 79.265625 28.4375 
Q 76.859375 32.078125 72.703125 32.078125 
z
M 72.703125 38.28125 
Q 80.421875 38.28125 84.953125 32.90625 
Q 89.5 27.546875 89.5 18.40625 
Q 89.5 9.28125 84.9375 3.921875 
Q 80.375 -1.421875 72.703125 -1.421875 
Q 64.890625 -1.421875 60.34375 3.921875 
Q 55.8125 9.28125 55.8125 18.40625 
Q 55.8125 27.59375 60.375 32.9375 
Q 64.9375 38.28125 72.703125 38.28125 
z
M 22.3125 68.015625 
Q 18.109375 68.015625 15.6875 64.375 
Q 13.28125 60.75 13.28125 54.390625 
Q 13.28125 47.953125 15.671875 44.328125 
Q 18.0625 40.71875 22.3125 40.71875 
Q 26.5625 40.71875 28.96875 44.328125 
Q 31.390625 47.953125 31.390625 54.390625 
Q 31.390625 60.6875 28.953125 64.34375 
Q 26.515625 68.015625 22.3125 68.015625 
z
M 66.40625 74.21875 
L 74.21875 74.21875 
L 28.609375 -1.421875 
L 20.796875 -1.421875 
z
M 22.3125 74.21875 
Q 30.03125 74.21875 34.609375 68.875 
Q 39.203125 63.53125 39.203125 54.390625 
Q 39.203125 45.171875 34.640625 39.84375 
Q 30.078125 34.515625 22.3125 34.515625 
Q 14.546875 34.515625 10.03125 39.859375 
Q 5.515625 45.21875 5.515625 54.390625 
Q 5.515625 63.484375 10.046875 68.84375 
Q 14.59375 74.21875 22.3125 74.21875 
z
" id="DejaVuSans-37"/>
      </defs>
      <g transform="translate(30.054688 373.160309)scale(0.1 -0.1)">
       <use xlink:href="#DejaVuSans-48"/>
       <use x="63.623047" xlink:href="#DejaVuSans-46"/>
       <use x="95.410156" xlink:href="#DejaVuSans-48"/>
       <use x="159.033203" xlink:href="#DejaVuSans-48"/>
       <use x="222.65625" xlink:href="#DejaVuSans-32"/>
       <use x="254.443359" xlink:href="#DejaVuSans-37"/>
      </g>
     </g>
    </g>
    <g id="ytick_2">
     <g id="line2d_10">
      <g>
       <use style="stroke:#000000;stroke-width:0.8;" x="72" xlink:href="#md83cc923df" y="328.821569"/>
      </g>
     </g>
     <g id="text_11">
      <!-- 1.00 % -->
      <g transform="translate(30.054688 332.620788)scale(0.1 -0.1)">
       <use xlink:href="#DejaVuSans-49"/>
       <use x="63.623047" xlink:href="#DejaVuSans-46"/>
       <use x="95.410156" xlink:href="#DejaVuSans-48"/>
       <use x="159.033203" xlink:href="#DejaVuSans-48"/>
       <use x="222.65625" xlink:href="#DejaVuSans-32"/>
       <use x="254.443359" xlink:href="#DejaVuSans-37"/>
      </g>
     </g>
    </g>
    <g id="ytick_3">
     <g id="line2d_11">
      <g>
       <use style="stroke:#000000;stroke-width:0.8;" x="72" xlink:href="#md83cc923df" y="288.282048"/>
      </g>
     </g>
     <g id="text_12">
      <!-- 2.00 % -->
      <g transform="translate(30.054688 292.081267)scale(0.1 -0.1)">
       <use xlink:href="#DejaVuSans-50"/>
       <use x="63.623047" xlink:href="#DejaVuSans-46"/>
       <use x="95.410156" xlink:href="#DejaVuSans-48"/>
       <use x="159.033203" xlink:href="#DejaVuSans-48"/>
       <use x="222.65625" xlink:href="#DejaVuSans-32"/>
       <use x="254.443359" xlink:href="#DejaVuSans-37"/>
      </g>
     </g>
    </g>
    <g id="ytick_4">
     <g id="line2d_12">
      <g>
       <use style="stroke:#000000;stroke-width:0.8;" x="72" xlink:href="#md83cc923df" y="247.742528"/>
      </g>
     </g>
     <g id="text_13">
      <!-- 3.00 % -->
      <g transform="translate(30.054688 251.541746)scale(0.1 -0.1)">
       <use xlink:href="#DejaVuSans-51"/>
       <use x="63.623047" xlink:href="#DejaVuSans-46"/>
       <use x="95.410156" xlink:href="#DejaVuSans-48"/>
       <use x="159.033203" xlink:href="#DejaVuSans-48"/>
       <use x="222.65625" xlink:href="#DejaVuSans-32"/>
       <use x="254.443359" xlink:href="#DejaVuSans-37"/>
      </g>
     </g>
    </g>
    <g id="ytick_5">
     <g id="line2d_13">
      <g>
       <use style="stroke:#000000;stroke-width:0.8;" x="72" xlink:href="#md83cc923df" y="207.203007"/>
      </g>
     </g>
     <g id="text_14">
      <!-- 4.00 % -->
      <defs>
       <path d="M 37.796875 64.3125 
L 12.890625 25.390625 
L 37.796875 25.390625 
z
M 35.203125 72.90625 
L 47.609375 72.90625 
L 47.609375 25.390625 
L 58.015625 25.390625 
L 58.015625 17.1875 
L 47.609375 17.1875 
L 47.609375 0 
L 37.796875 0 
L 37.796875 17.1875 
L 4.890625 17.1875 
L 4.890625 26.703125 
z
" id="DejaVuSans-52"/>
      </defs>
      <g transform="translate(30.054688 211.002225)scale(0.1 -0.1)">
       <use xlink:href="#DejaVuSans-52"/>
       <use x="63.623047" xlink:href="#DejaVuSans-46"/>
       <use x="95.410156" xlink:href="#DejaVuSans-48"/>
       <use x="159.033203" xlink:href="#DejaVuSans-48"/>
       <use x="222.65625" xlink:href="#DejaVuSans-32"/>
       <use x="254.443359" xlink:href="#DejaVuSans-37"/>
      </g>
     </g>
    </g>
    <g id="ytick_6">
     <g id="line2d_14">
      <g>
       <use style="stroke:#000000;stroke-width:0.8;" x="72" xlink:href="#md83cc923df" y="166.663486"/>
      </g>
     </g>
     <g id="text_15">
      <!-- 5.00 % -->
      <g transform="translate(30.054688 170.462704)scale(0.1 -0.1)">
       <use xlink:href="#DejaVuSans-53"/>
       <use x="63.623047" xlink:href="#DejaVuSans-46"/>
       <use x="95.410156" xlink:href="#DejaVuSans-48"/>
       <use x="159.033203" xlink:href="#DejaVuSans-48"/>
       <use x="222.65625" xlink:href="#DejaVuSans-32"/>
       <use x="254.443359" xlink:href="#DejaVuSans-37"/>
      </g>
     </g>
    </g>
    <g id="ytick_7">
     <g id="line2d_15">
      <g>
       <use style="stroke:#000000;stroke-width:0.8;" x="72" xlink:href="#md83cc923df" y="126.123965"/>
      </g>
     </g>
     <g id="text_16">
      <!-- 6.00 % -->
      <defs>
       <path d="M 33.015625 40.375 
Q 26.375 40.375 22.484375 35.828125 
Q 18.609375 31.296875 18.609375 23.390625 
Q 18.609375 15.53125 22.484375 10.953125 
Q 26.375 6.390625 33.015625 6.390625 
Q 39.65625 6.390625 43.53125 10.953125 
Q 47.40625 15.53125 47.40625 23.390625 
Q 47.40625 31.296875 43.53125 35.828125 
Q 39.65625 40.375 33.015625 40.375 
z
M 52.59375 71.296875 
L 52.59375 62.3125 
Q 48.875 64.0625 45.09375 64.984375 
Q 41.3125 65.921875 37.59375 65.921875 
Q 27.828125 65.921875 22.671875 59.328125 
Q 17.53125 52.734375 16.796875 39.40625 
Q 19.671875 43.65625 24.015625 45.921875 
Q 28.375 48.1875 33.59375 48.1875 
Q 44.578125 48.1875 50.953125 41.515625 
Q 57.328125 34.859375 57.328125 23.390625 
Q 57.328125 12.15625 50.6875 5.359375 
Q 44.046875 -1.421875 33.015625 -1.421875 
Q 20.359375 -1.421875 13.671875 8.265625 
Q 6.984375 17.96875 6.984375 36.375 
Q 6.984375 53.65625 15.1875 63.9375 
Q 23.390625 74.21875 37.203125 74.21875 
Q 40.921875 74.21875 44.703125 73.484375 
Q 48.484375 72.75 52.59375 71.296875 
z
" id="DejaVuSans-54"/>
      </defs>
      <g transform="translate(30.054688 129.923183)scale(0.1 -0.1)">
       <use xlink:href="#DejaVuSans-54"/>
       <use x="63.623047" xlink:href="#DejaVuSans-46"/>
       <use x="95.410156" xlink:href="#DejaVuSans-48"/>
       <use x="159.033203" xlink:href="#DejaVuSans-48"/>
       <use x="222.65625" xlink:href="#DejaVuSans-32"/>
       <use x="254.443359" xlink:href="#DejaVuSans-37"/>
      </g>
     </g>
    </g>
    <g id="ytick_8">
     <g id="line2d_16">
      <g>
       <use style="stroke:#000000;stroke-width:0.8;" x="72" xlink:href="#md83cc923df" y="85.584444"/>
      </g>
     </g>
     <g id="text_17">
      <!-- 7.00 % -->
      <defs>
       <path d="M 8.203125 72.90625 
L 55.078125 72.90625 
L 55.078125 68.703125 
L 28.609375 0 
L 18.3125 0 
L 43.21875 64.59375 
L 8.203125 64.59375 
z
" id="DejaVuSans-55"/>
      </defs>
      <g transform="translate(30.054688 89.383662)scale(0.1 -0.1)">
       <use xlink:href="#DejaVuSans-55"/>
       <use x="63.623047" xlink:href="#DejaVuSans-46"/>
       <use x="95.410156" xlink:href="#DejaVuSans-48"/>
       <use x="159.033203" xlink:href="#DejaVuSans-48"/>
       <use x="222.65625" xlink:href="#DejaVuSans-32"/>
       <use x="254.443359" xlink:href="#DejaVuSans-37"/>
      </g>
     </g>
    </g>
    <g id="text_18">
     <!-- Active Population -->
     <defs>
      <path d="M 34.1875 63.1875 
L 20.796875 26.90625 
L 47.609375 26.90625 
z
M 28.609375 72.90625 
L 39.796875 72.90625 
L 67.578125 0 
L 57.328125 0 
L 50.6875 18.703125 
L 17.828125 18.703125 
L 11.1875 0 
L 0.78125 0 
z
" id="DejaVuSans-65"/>
      <path d="M 48.78125 52.59375 
L 48.78125 44.1875 
Q 44.96875 46.296875 41.140625 47.34375 
Q 37.3125 48.390625 33.40625 48.390625 
Q 24.65625 48.390625 19.8125 42.84375 
Q 14.984375 37.3125 14.984375 27.296875 
Q 14.984375 17.28125 19.8125 11.734375 
Q 24.65625 6.203125 33.40625 6.203125 
Q 37.3125 6.203125 41.140625 7.25 
Q 44.96875 8.296875 48.78125 10.40625 
L 48.78125 2.09375 
Q 45.015625 0.34375 40.984375 -0.53125 
Q 36.96875 -1.421875 32.421875 -1.421875 
Q 20.0625 -1.421875 12.78125 6.34375 
Q 5.515625 14.109375 5.515625 27.296875 
Q 5.515625 40.671875 12.859375 48.328125 
Q 20.21875 56 33.015625 56 
Q 37.15625 56 41.109375 55.140625 
Q 45.0625 54.296875 48.78125 52.59375 
z
" id="DejaVuSans-99"/>
      <path d="M 18.3125 70.21875 
L 18.3125 54.6875 
L 36.8125 54.6875 
L 36.8125 47.703125 
L 18.3125 47.703125 
L 18.3125 18.015625 
Q 18.3125 11.328125 20.140625 9.421875 
Q 21.96875 7.515625 27.59375 7.515625 
L 36.8125 7.515625 
L 36.8125 0 
L 27.59375 0 
Q 17.1875 0 13.234375 3.875 
Q 9.28125 7.765625 9.28125 18.015625 
L 9.28125 47.703125 
L 2.6875 47.703125 
L 2.6875 54.6875 
L 9.28125 54.6875 
L 9.28125 70.21875 
z
" id="DejaVuSans-116"/>
      <path d="M 9.421875 54.6875 
L 18.40625 54.6875 
L 18.40625 0 
L 9.421875 0 
z
M 9.421875 75.984375 
L 18.40625 75.984375 
L 18.40625 64.59375 
L 9.421875 64.59375 
z
" id="DejaVuSans-105"/>
      <path d="M 2.984375 54.6875 
L 12.5 54.6875 
L 29.59375 8.796875 
L 46.6875 54.6875 
L 56.203125 54.6875 
L 35.6875 0 
L 23.484375 0 
z
" id="DejaVuSans-118"/>
      <path d="M 56.203125 29.59375 
L 56.203125 25.203125 
L 14.890625 25.203125 
Q 15.484375 15.921875 20.484375 11.0625 
Q 25.484375 6.203125 34.421875 6.203125 
Q 39.59375 6.203125 44.453125 7.46875 
Q 49.3125 8.734375 54.109375 11.28125 
L 54.109375 2.78125 
Q 49.265625 0.734375 44.1875 -0.34375 
Q 39.109375 -1.421875 33.890625 -1.421875 
Q 20.796875 -1.421875 13.15625 6.1875 
Q 5.515625 13.8125 5.515625 26.8125 
Q 5.515625 40.234375 12.765625 48.109375 
Q 20.015625 56 32.328125 56 
Q 43.359375 56 49.78125 48.890625 
Q 56.203125 41.796875 56.203125 29.59375 
z
M 47.21875 32.234375 
Q 47.125 39.59375 43.09375 43.984375 
Q 39.0625 48.390625 32.421875 48.390625 
Q 24.90625 48.390625 20.390625 44.140625 
Q 15.875 39.890625 15.1875 32.171875 
z
" id="DejaVuSans-101"/>
      <path d="M 19.671875 64.796875 
L 19.671875 37.40625 
L 32.078125 37.40625 
Q 38.96875 37.40625 42.71875 40.96875 
Q 46.484375 44.53125 46.484375 51.125 
Q 46.484375 57.671875 42.71875 61.234375 
Q 38.96875 64.796875 32.078125 64.796875 
z
M 9.8125 72.90625 
L 32.078125 72.90625 
Q 44.34375 72.90625 50.609375 67.359375 
Q 56.890625 61.8125 56.890625 51.125 
Q 56.890625 40.328125 50.609375 34.8125 
Q 44.34375 29.296875 32.078125 29.296875 
L 19.671875 29.296875 
L 19.671875 0 
L 9.8125 0 
z
" id="DejaVuSans-80"/>
      <path d="M 30.609375 48.390625 
Q 23.390625 48.390625 19.1875 42.75 
Q 14.984375 37.109375 14.984375 27.296875 
Q 14.984375 17.484375 19.15625 11.84375 
Q 23.34375 6.203125 30.609375 6.203125 
Q 37.796875 6.203125 41.984375 11.859375 
Q 46.1875 17.53125 46.1875 27.296875 
Q 46.1875 37.015625 41.984375 42.703125 
Q 37.796875 48.390625 30.609375 48.390625 
z
M 30.609375 56 
Q 42.328125 56 49.015625 48.375 
Q 55.71875 40.765625 55.71875 27.296875 
Q 55.71875 13.875 49.015625 6.21875 
Q 42.328125 -1.421875 30.609375 -1.421875 
Q 18.84375 -1.421875 12.171875 6.21875 
Q 5.515625 13.875 5.515625 27.296875 
Q 5.515625 40.765625 12.171875 48.375 
Q 18.84375 56 30.609375 56 
z
" id="DejaVuSans-111"/>
      <path d="M 18.109375 8.203125 
L 18.109375 -20.796875 
L 9.078125 -20.796875 
L 9.078125 54.6875 
L 18.109375 54.6875 
L 18.109375 46.390625 
Q 20.953125 51.265625 25.265625 53.625 
Q 29.59375 56 35.59375 56 
Q 45.5625 56 51.78125 48.09375 
Q 58.015625 40.1875 58.015625 27.296875 
Q 58.015625 14.40625 51.78125 6.484375 
Q 45.5625 -1.421875 35.59375 -1.421875 
Q 29.59375 -1.421875 25.265625 0.953125 
Q 20.953125 3.328125 18.109375 8.203125 
z
M 48.6875 27.296875 
Q 48.6875 37.203125 44.609375 42.84375 
Q 40.53125 48.484375 33.40625 48.484375 
Q 26.265625 48.484375 22.1875 42.84375 
Q 18.109375 37.203125 18.109375 27.296875 
Q 18.109375 17.390625 22.1875 11.75 
Q 26.265625 6.109375 33.40625 6.109375 
Q 40.53125 6.109375 44.609375 11.75 
Q 48.6875 17.390625 48.6875 27.296875 
z
" id="DejaVuSans-112"/>
      <path d="M 8.5 21.578125 
L 8.5 54.6875 
L 17.484375 54.6875 
L 17.484375 21.921875 
Q 17.484375 14.15625 20.5 10.265625 
Q 23.53125 6.390625 29.59375 6.390625 
Q 36.859375 6.390625 41.078125 11.03125 
Q 45.3125 15.671875 45.3125 23.6875 
L 45.3125 54.6875 
L 54.296875 54.6875 
L 54.296875 0 
L 45.3125 0 
L 45.3125 8.40625 
Q 42.046875 3.421875 37.71875 1 
Q 33.40625 -1.421875 27.6875 -1.421875 
Q 18.265625 -1.421875 13.375 4.4375 
Q 8.5 10.296875 8.5 21.578125 
z
M 31.109375 56 
z
" id="DejaVuSans-117"/>
      <path d="M 9.421875 75.984375 
L 18.40625 75.984375 
L 18.40625 0 
L 9.421875 0 
z
" id="DejaVuSans-108"/>
      <path d="M 54.890625 33.015625 
L 54.890625 0 
L 45.90625 0 
L 45.90625 32.71875 
Q 45.90625 40.484375 42.875 44.328125 
Q 39.84375 48.1875 33.796875 48.1875 
Q 26.515625 48.1875 22.3125 43.546875 
Q 18.109375 38.921875 18.109375 30.90625 
L 18.109375 0 
L 9.078125 0 
L 9.078125 54.6875 
L 18.109375 54.6875 
L 18.109375 46.1875 
Q 21.34375 51.125 25.703125 53.5625 
Q 30.078125 56 35.796875 56 
Q 45.21875 56 50.046875 50.171875 
Q 54.890625 44.34375 54.890625 33.015625 
z
" id="DejaVuSans-110"/>
     </defs>
     <g transform="translate(23.975 261.482656)rotate(-90)scale(0.1 -0.1)">
      <use xlink:href="#DejaVuSans-65"/>
      <use x="66.658203" xlink:href="#DejaVuSans-99"/>
      <use x="121.638672" xlink:href="#DejaVuSans-116"/>
      <use x="160.847656" xlink:href="#DejaVuSans-105"/>
      <use x="188.630859" xlink:href="#DejaVuSans-118"/>
      <use x="247.810547" xlink:href="#DejaVuSans-101"/>
      <use x="309.333984" xlink:href="#DejaVuSans-32"/>
      <use x="341.121094" xlink:href="#DejaVuSans-80"/>
      <use x="397.798828" xlink:href="#DejaVuSans-111"/>
      <use x="458.980469" xlink:href="#DejaVuSans-112"/>
      <use x="522.457031" xlink:href="#DejaVuSans-117"/>
      <use x="585.835938" xlink:href="#DejaVuSans-108"/>
      <use x="613.619141" xlink:href="#DejaVuSans-97"/>
      <use x="674.898438" xlink:href="#DejaVuSans-116"/>
      <use x="714.107422" xlink:href="#DejaVuSans-105"/>
      <use x="741.890625" xlink:href="#DejaVuSans-111"/>
      <use x="803.072266" xlink:href="#DejaVuSans-110"/>
     </g>
    </g>
   </g>
   <g id="line2d_17">
    <path clip-path="url(#p1bdfd5d10f)" d="M 92.290909 369.349975 
L 132.029781 369.167934 
L 142.867656 369.08639 
L 165.747613 368.819251 
L 193.444402 367.608473 
L 206.690693 366.395509 
L 209.09911 366.033797 
L 210.303318 366.104499 
L 216.324359 365.46098 
L 223.549609 364.65182 
L 224.753817 364.911761 
L 234.387483 363.570876 
L 235.591691 363.225382 
L 236.7959 363.193128 
L 241.612733 362.183251 
L 244.021149 361.592394 
L 248.837982 360.697043 
L 257.26744 358.844386 
L 260.880065 357.701668 
L 262.084273 357.603541 
L 263.288481 357.183974 
L 264.49269 356.52697 
L 265.696898 362.571658 
L 268.105314 362.229262 
L 271.717939 362.330578 
L 272.922147 362.485649 
L 275.330564 362.290489 
L 276.534772 362.00695 
L 278.943189 361.691979 
L 280.147397 361.728788 
L 283.760022 360.83781 
L 284.96423 360.451863 
L 286.168438 359.924419 
L 287.372646 359.733723 
L 288.576855 359.706754 
L 290.985271 359.252838 
L 292.189479 358.926659 
L 293.393688 358.484587 
L 295.802104 358.27412 
L 297.006312 358.445865 
L 298.210521 358.383089 
L 299.414729 358.150847 
L 300.618937 358.505634 
L 301.823145 358.136816 
L 304.231562 357.931451 
L 306.639978 357.988031 
L 309.048395 357.64117 
L 310.252603 357.251851 
L 311.456811 357.178051 
L 313.865228 357.509241 
L 315.069436 358.600663 
L 319.886269 357.598348 
L 321.090477 357.475439 
L 322.294686 357.54933 
L 323.498894 357.488923 
L 327.111519 356.462099 
L 328.315727 356.188674 
L 329.519935 356.249354 
L 330.724144 356.532983 
L 331.928352 356.674479 
L 333.13256 356.389665 
L 334.336768 355.879897 
L 335.540977 355.802362 
L 336.745185 355.59399 
L 337.949393 355.618135 
L 340.35781 355.971191 
L 341.562018 355.673621 
L 342.766226 355.156838 
L 345.174643 354.657093 
L 346.378851 354.615819 
L 347.583059 354.833575 
L 348.787267 353.691677 
L 349.991476 354.578099 
L 351.195684 353.937222 
L 352.399892 353.522392 
L 353.6041 353.477201 
L 354.808309 353.72548 
L 357.216725 354.472228 
L 358.420933 354.278981 
L 359.625142 353.93458 
L 363.237766 354.602608 
L 364.441975 355.0496 
L 365.646183 355.376234 
L 366.850391 355.33487 
L 368.054599 355.169503 
L 371.667224 355.677084 
L 372.871432 356.085171 
L 374.075641 356.330807 
L 375.279849 356.02276 
L 376.484057 355.063176 
L 377.688265 355.734757 
L 378.892474 355.616404 
L 380.096682 355.678633 
L 382.505098 356.381283 
L 384.913515 356.011827 
L 388.52614 356.402603 
L 390.934556 357.178689 
L 392.138764 357.176867 
L 393.342973 357.025531 
L 395.751389 357.170033 
L 399.364014 357.646363 
L 402.976639 357.174771 
L 405.385055 357.387698 
L 408.99768 358.03386 
L 411.406097 358.099915 
L 413.814513 358.08388 
L 415.018721 358.238496 
L 416.22293 358.239954 
L 421.039763 357.248116 
L 422.243971 357.262511 
L 423.448179 357.41403 
L 424.652387 357.449199 
L 425.856596 357.216045 
L 427.060804 356.853877 
L 428.265012 356.853877 
L 429.46922 355.889829 
L 430.673429 357.194178 
L 433.081845 357.246476 
L 435.490262 356.232954 
L 436.69447 355.184809 
L 437.898678 354.819817 
L 439.102886 356.207625 
L 440.307095 356.215916 
L 441.511303 355.947411 
L 443.919719 354.952111 
L 446.328136 354.402163 
L 449.940761 354.095209 
L 452.349177 353.323405 
L 454.757594 353.33853 
L 457.16601 353.838366 
L 458.370219 354.161174 
L 460.778635 353.718008 
L 463.187052 353.833082 
L 463.187052 353.833082 
" style="fill:none;stroke:#1f77b4;stroke-linecap:square;stroke-width:1.5;"/>
   </g>
   <g id="line2d_18">
    <path clip-path="url(#p1bdfd5d10f)" d="M 92.290909 369.325026 
L 118.783491 369.172553 
L 129.621365 368.993658 
L 130.825573 368.993658 
L 133.23399 368.852255 
L 144.071864 368.408765 
L 153.70553 367.786021 
L 160.93078 366.93332 
L 164.543404 366.364139 
L 170.564446 365.728898 
L 174.17707 365.400386 
L 175.381279 365.320758 
L 181.40232 364.187394 
L 185.014945 363.836387 
L 205.486485 360.529849 
L 210.303318 359.49968 
L 212.711735 358.962635 
L 213.915943 358.668403 
L 215.120151 358.251337 
L 217.528568 357.902472 
L 222.345401 356.445238 
L 223.549609 355.852133 
L 229.57065 354.072815 
L 230.774858 353.874994 
L 231.979067 353.365802 
L 233.183275 353.050859 
L 234.387483 352.558449 
L 238.000108 351.851793 
L 239.204316 351.425085 
L 240.408524 350.878399 
L 242.816941 350.040338 
L 248.837982 349.163356 
L 250.04219 349.167998 
L 256.063232 348.190677 
L 260.880065 347.856452 
L 262.084273 347.632208 
L 263.288481 347.704694 
L 264.49269 347.60507 
L 271.717939 349.430093 
L 283.760022 353.691813 
L 284.96423 354.57808 
L 288.576855 355.960327 
L 292.189479 356.805887 
L 294.597896 356.997995 
L 304.231562 357.683583 
L 306.639978 357.736788 
L 313.865228 358.095294 
L 317.477853 358.213129 
L 322.294686 358.674117 
L 329.519935 359.319356 
L 330.724144 359.572524 
L 335.540977 359.923174 
L 348.787267 361.598939 
L 354.808309 362.05457 
L 358.420933 362.429501 
L 362.033558 362.699095 
L 364.441975 362.959761 
L 370.463016 363.35576 
L 372.871432 363.585004 
L 376.484057 363.743189 
L 380.096682 363.957079 
L 382.505098 364.183109 
L 386.117723 364.344508 
L 389.730348 365.008672 
L 393.342973 365.159716 
L 398.159806 365.197209 
L 401.772431 365.10794 
L 404.180847 365.086872 
L 410.201888 364.712655 
L 411.406097 364.706942 
L 413.814513 364.38093 
L 415.018721 364.127048 
L 416.22293 364.093125 
L 418.631346 363.818176 
L 419.835554 363.694984 
L 423.448179 362.625894 
L 428.265012 361.940662 
L 431.877637 361.033685 
L 433.081845 360.454148 
L 436.69447 359.697144 
L 437.898678 359.493252 
L 440.307095 358.738033 
L 441.511303 358.027806 
L 442.715511 357.528969 
L 446.328136 356.566645 
L 448.736552 355.495412 
L 449.940761 355.207965 
L 449.940761 355.207965 
" style="fill:none;stroke:#ff7f0e;stroke-linecap:square;stroke-width:1.5;"/>
   </g>
   <g id="line2d_19">
    <path clip-path="url(#p1bdfd5d10f)" d="M 92.290909 369.358168 
L 113.966658 369.256795 
L 130.825573 368.960784 
L 132.029781 369.11805 
L 135.642406 368.968641 
L 136.846615 369.088942 
L 147.684489 368.671953 
L 152.501322 368.404992 
L 156.113947 368.213509 
L 160.93078 367.74082 
L 165.747613 367.455299 
L 169.360237 366.880425 
L 171.768654 366.689232 
L 183.810736 364.834708 
L 185.014945 364.565076 
L 186.219153 364.16055 
L 191.035986 363.306347 
L 193.444402 362.707281 
L 195.852819 362.174171 
L 197.057027 363.70948 
L 203.078069 362.619165 
L 205.486485 362.266061 
L 206.690693 361.853059 
L 207.894902 361.85542 
L 209.09911 361.700728 
L 210.303318 360.994057 
L 211.507526 361.738487 
L 212.711735 360.964697 
L 213.915943 360.585022 
L 217.528568 359.807865 
L 218.732776 359.362833 
L 222.345401 358.676637 
L 223.549609 358.636788 
L 224.753817 360.421175 
L 227.162234 359.8529 
L 228.366442 359.25844 
L 230.774858 359.776203 
L 231.979067 359.784312 
L 234.387483 359.391205 
L 235.591691 359.43146 
L 236.7959 359.214217 
L 238.000108 359.147545 
L 239.204316 359.280213 
L 241.612733 358.885383 
L 244.021149 358.911065 
L 246.429566 358.526474 
L 247.633774 359.215514 
L 248.837982 359.24257 
L 251.246399 358.076487 
L 252.450607 358.428061 
L 253.654815 359.244951 
L 254.859023 359.313288 
L 256.063232 359.527298 
L 259.675856 358.483838 
L 260.880065 358.500792 
L 262.084273 358.207084 
L 263.288481 358.20002 
L 264.49269 358.587476 
L 265.696898 358.743445 
L 266.901106 358.301451 
L 269.309523 357.93151 
L 270.513731 357.934858 
L 272.922147 358.428565 
L 275.330564 358.632395 
L 276.534772 357.781676 
L 277.73898 358.677682 
L 278.943189 358.000892 
L 280.147397 358.187808 
L 281.351605 358.678882 
L 283.760022 358.840154 
L 284.96423 358.806634 
L 286.168438 358.457092 
L 292.189479 359.354511 
L 295.802104 359.225578 
L 297.006312 359.609511 
L 298.210521 359.330203 
L 299.414729 360.01154 
L 301.823145 359.924566 
L 303.027354 359.645257 
L 305.43577 359.902755 
L 306.639978 360.23337 
L 309.048395 360.502673 
L 310.252603 360.628373 
L 312.66102 360.43391 
L 313.865228 360.15613 
L 315.069436 360.778498 
L 316.273644 360.89127 
L 318.682061 360.719451 
L 319.886269 360.422685 
L 322.294686 360.762589 
L 323.498894 361.090669 
L 324.703102 360.914707 
L 325.90731 361.495233 
L 328.315727 361.221305 
L 329.519935 361.169205 
L 330.724144 361.27412 
L 333.13256 361.669085 
L 334.336768 361.770497 
L 335.540977 361.566435 
L 337.949393 361.624785 
L 340.35781 361.954955 
L 342.766226 361.710792 
L 343.970434 361.786251 
L 345.174643 361.55401 
L 346.378851 361.047143 
L 347.583059 361.269456 
L 349.991476 360.918404 
L 354.808309 358.827129 
L 356.012517 358.827129 
L 359.625142 357.420483 
L 362.033558 356.378958 
L 363.237766 355.865182 
L 365.646183 355.309255 
L 366.850391 362.259113 
L 368.054599 362.354429 
L 369.258808 362.145489 
L 372.871432 362.330121 
L 375.279849 362.686941 
L 376.484057 362.572736 
L 383.709307 362.54417 
L 384.913515 362.367628 
L 386.117723 362.338811 
L 387.321931 362.178971 
L 388.52614 361.545223 
L 389.730348 361.274391 
L 390.934556 362.10448 
L 395.751389 361.219969 
L 396.955598 360.717689 
L 400.568222 360.865937 
L 401.772431 360.423149 
L 404.180847 359.975833 
L 405.385055 358.982325 
L 406.589264 358.514049 
L 407.793472 358.427249 
L 408.99768 359.671501 
L 410.201888 359.629387 
L 412.610305 359.060048 
L 413.814513 358.99324 
L 415.018721 358.524287 
L 416.22293 358.734736 
L 417.427138 359.077679 
L 418.631346 358.071474 
L 419.835554 358.546098 
L 421.039763 358.184421 
L 422.243971 357.348081 
L 423.448179 358.093498 
L 424.652387 357.99557 
L 425.856596 358.121542 
L 427.060804 357.406838 
L 428.265012 357.283383 
L 429.46922 356.696722 
L 430.673429 357.016286 
L 431.877637 356.910655 
L 433.081845 357.613204 
L 434.286053 357.1835 
L 435.490262 356.518535 
L 436.69447 355.402499 
L 437.898678 354.935907 
L 439.102886 357.346049 
L 440.307095 357.441094 
L 441.511303 357.739234 
L 442.715511 357.424682 
L 443.919719 357.531629 
L 446.328136 356.785322 
L 447.532344 357.218278 
L 448.736552 357.099603 
L 449.940761 357.610727 
L 451.144969 357.40409 
L 452.349177 356.944504 
L 453.553385 356.207448 
L 457.16601 356.368081 
L 458.370219 356.688555 
L 459.574427 355.697523 
L 460.778635 355.7461 
L 464.39126 354.653637 
L 465.595468 354.473592 
L 466.799676 355.019979 
L 468.003885 354.956461 
L 469.208093 353.736323 
L 470.412301 353.682308 
L 471.616509 354.037676 
L 471.616509 354.037676 
" style="fill:none;stroke:#2ca02c;stroke-linecap:square;stroke-width:1.5;"/>
   </g>
   <g id="line2d_20">
    <path clip-path="url(#p1bdfd5d10f)" d="M 92.290909 369.32754 
L 101.924575 369.165635 
L 129.621365 368.191604 
L 146.480281 367.799177 
L 148.888697 367.496146 
L 157.318155 366.277091 
L 159.726571 365.868648 
L 160.93078 365.624924 
L 164.543404 364.483576 
L 165.747613 364.384224 
L 168.156029 363.859763 
L 169.360237 363.395042 
L 171.768654 362.218196 
L 172.972862 361.593733 
L 175.381279 360.651954 
L 176.585487 359.851516 
L 177.789695 359.35238 
L 182.606528 357.796094 
L 183.810736 357.259944 
L 185.014945 356.569032 
L 186.219153 350.708828 
L 188.627569 348.661631 
L 189.831778 364.665611 
L 191.035986 364.515394 
L 192.240194 364.087686 
L 193.444402 364.093963 
L 194.648611 364.357817 
L 199.465444 363.525995 
L 201.87386 363.455864 
L 203.078069 363.985737 
L 204.282277 361.767544 
L 205.486485 361.824038 
L 206.690693 361.610184 
L 207.894902 361.602608 
L 209.09911 361.28594 
L 210.303318 361.338537 
L 212.711735 361.873605 
L 215.120151 361.81538 
L 217.528568 361.944818 
L 218.732776 361.943302 
L 222.345401 363.003048 
L 224.753817 363.256296 
L 227.162234 363.344825 
L 229.57065 363.999807 
L 235.591691 364.149591 
L 239.204316 364.792452 
L 241.612733 364.826002 
L 244.021149 364.89505 
L 245.225357 365.207389 
L 246.429566 365.207389 
L 247.633774 365.358905 
L 250.04219 365.377736 
L 252.450607 365.295701 
L 256.063232 365.566482 
L 257.26744 365.490291 
L 259.675856 365.527304 
L 260.880065 365.506092 
L 262.084273 365.705876 
L 264.49269 365.764968 
L 268.105314 365.6483 
L 269.309523 365.559555 
L 271.717939 365.780119 
L 277.73898 365.767132 
L 280.147397 366.076658 
L 283.760022 366.07406 
L 286.168438 365.857176 
L 288.576855 366.09116 
L 290.985271 366.030337 
L 295.802104 365.890509 
L 298.210521 365.969298 
L 300.618937 365.916051 
L 303.027354 365.70198 
L 305.43577 365.947653 
L 307.844187 365.979904 
L 311.456811 365.747435 
L 315.069436 366.097004 
L 318.682061 366.27839 
L 319.886269 366.318001 
L 322.294686 366.678609 
L 323.498894 366.70112 
L 328.315727 366.340079 
L 331.928352 366.378391 
L 336.745185 366.058909 
L 340.35781 366.300685 
L 346.378851 366.247438 
L 348.787267 366.433369 
L 351.195684 366.395057 
L 353.6041 366.199169 
L 354.808309 366.301983 
L 356.012517 366.190294 
L 357.216725 366.42298 
L 358.420933 366.353282 
L 359.625142 367.180559 
L 363.237766 367.387054 
L 364.441975 367.50134 
L 368.054599 367.324932 
L 371.667224 367.399392 
L 372.871432 367.509782 
L 377.688265 367.282292 
L 381.30089 367.468223 
L 383.709307 367.250257 
L 390.934556 367.373418 
L 392.138764 367.271253 
L 399.364014 367.374067 
L 401.772431 367.212378 
L 405.385055 367.326448 
L 406.589264 367.421903 
L 410.201888 367.234239 
L 424.652387 366.866489 
L 425.856596 366.591595 
L 428.265012 366.45285 
L 429.46922 366.356096 
L 430.673429 366.519733 
L 431.877637 366.5706 
L 433.081845 366.245922 
L 435.490262 366.19787 
L 437.898678 366.350036 
L 439.102886 366.370382 
L 440.307095 366.145489 
L 441.511303 366.118 
L 442.715511 365.746136 
L 443.919719 365.634447 
L 446.328136 365.687045 
L 448.736552 365.554577 
L 451.144969 364.900461 
L 453.553385 364.60652 
L 458.370219 363.917122 
L 459.574427 363.638333 
L 460.778635 363.790282 
L 461.982843 363.770801 
L 465.595468 364.154353 
L 468.003885 363.463873 
L 468.003885 363.463873 
" style="fill:none;stroke:#d62728;stroke-linecap:square;stroke-width:1.5;"/>
   </g>
   <g id="line2d_21">
    <path clip-path="url(#p1bdfd5d10f)" d="M 92.290909 369.335226 
L 100.720367 369.090105 
L 115.170866 368.541015 
L 116.375074 368.541015 
L 118.783491 368.327928 
L 119.987699 367.819653 
L 128.417157 367.654736 
L 135.642406 367.155477 
L 136.846615 364.43091 
L 140.459239 364.373248 
L 142.867656 364.084941 
L 144.071864 364.027754 
L 147.684489 363.50619 
L 148.888697 362.982965 
L 151.297114 362.994592 
L 153.70553 363.741819 
L 156.113947 363.666361 
L 157.318155 363.682496 
L 158.522363 363.509749 
L 160.93078 363.492664 
L 162.134988 363.324425 
L 163.339196 363.039202 
L 171.768654 362.336111 
L 172.972862 362.2215 
L 174.17707 365.529089 
L 176.585487 365.468818 
L 177.789695 365.390512 
L 178.993903 365.553293 
L 182.606528 365.529327 
L 185.014945 365.217765 
L 187.423361 365.214917 
L 189.831778 364.976203 
L 193.444402 364.88627 
L 195.852819 364.788269 
L 203.078069 364.404808 
L 216.324359 363.72948 
L 217.528568 363.592326 
L 219.936984 363.002422 
L 222.345401 362.655504 
L 227.162234 362.408248 
L 234.387483 361.303661 
L 245.225357 360.046497 
L 246.429566 360.097989 
L 247.633774 359.873038 
L 250.04219 359.695545 
L 256.063232 358.853164 
L 257.26744 358.853164 
L 258.471648 364.157314 
L 259.675856 366.710558 
L 260.880065 366.548963 
L 264.49269 365.552344 
L 265.696898 366.991747 
L 266.901106 366.949984 
L 269.309523 366.456895 
L 272.922147 365.737905 
L 274.126356 367.355987 
L 275.330564 367.332733 
L 280.147397 366.39425 
L 281.351605 366.294588 
L 282.555813 367.784771 
L 284.96423 367.548904 
L 286.168438 367.215512 
L 289.781063 366.765135 
L 290.985271 368.062401 
L 293.393688 367.933789 
L 295.802104 367.543209 
L 298.210521 367.221444 
L 299.414729 367.221444 
L 300.618937 367.397751 
L 301.823145 367.252054 
L 306.639978 365.957161 
L 307.844187 366.839169 
L 310.252603 366.625845 
L 311.456811 366.165739 
L 312.66102 365.999873 
L 315.069436 365.214917 
L 316.273644 366.400419 
L 317.477853 366.332317 
L 318.682061 366.118519 
L 319.886269 365.595531 
L 323.498894 364.649454 
L 324.703102 366.710083 
L 325.90731 366.658591 
L 327.111519 366.480149 
L 330.724144 365.625429 
L 331.928352 365.455767 
L 333.13256 367.254902 
L 335.540977 367.025442 
L 337.949393 366.420352 
L 340.35781 366.008416 
L 341.562018 367.769347 
L 342.766226 367.708838 
L 346.378851 367.007171 
L 347.583059 366.711032 
L 348.787267 366.534251 
L 349.991476 367.767686 
L 351.195684 367.737788 
L 352.399892 367.575718 
L 353.6041 367.229037 
L 354.808309 367.044188 
L 357.216725 366.303605 
L 358.420933 367.623414 
L 359.625142 367.499311 
L 360.82935 367.262258 
L 363.237766 366.532353 
L 365.646183 366.095264 
L 366.850391 367.59043 
L 369.258808 367.376394 
L 370.463016 367.063883 
L 372.871432 366.822322 
L 374.075641 366.603065 
L 375.279849 367.671346 
L 377.688265 367.485073 
L 382.505098 366.590964 
L 383.709307 367.783585 
L 386.117723 367.595651 
L 388.52614 367.098765 
L 390.934556 366.727643 
L 392.138764 367.360021 
L 394.547181 367.186799 
L 396.955598 366.79527 
L 399.364014 366.15079 
L 400.568222 367.25158 
L 402.976639 366.900865 
L 405.385055 366.402555 
L 407.793472 366.079128 
L 408.99768 366.980594 
L 412.610305 366.69727 
L 413.814513 366.432691 
L 416.22293 366.166688 
L 417.427138 366.920797 
L 419.835554 366.867407 
L 422.243971 366.426759 
L 425.856596 365.954076 
L 427.060804 366.807372 
L 428.265012 366.799067 
L 433.081845 366.118281 
L 434.286053 366.785067 
L 436.69447 366.556794 
L 439.102886 366.045908 
L 441.511303 365.577022 
L 442.715511 366.939543 
L 443.919719 366.831339 
L 452.349177 365.3338 
L 453.553385 365.851567 
L 455.961802 365.048339 
L 457.16601 364.849727 
L 458.370219 363.924532 
L 459.574427 365.129967 
L 460.778635 365.092238 
L 461.982843 364.887219 
L 464.39126 364.062161 
L 465.595468 363.840769 
L 465.595468 363.840769 
" style="fill:none;stroke:#9467bd;stroke-linecap:square;stroke-width:1.5;"/>
   </g>
   <g id="line2d_22">
    <path clip-path="url(#p1bdfd5d10f)" d="M 92.290909 369.355508 
L 105.5372 369.260709 
L 113.966658 368.618609 
L 116.375074 368.288916 
L 121.191907 367.717279 
L 126.00874 366.797635 
L 128.417157 366.671203 
L 135.642406 365.793182 
L 139.255031 366.268012 
L 140.459239 366.154213 
L 144.071864 366.296853 
L 148.888697 366.720268 
L 152.501322 366.878332 
L 157.318155 367.429893 
L 158.522363 367.361487 
L 163.339196 367.663317 
L 172.972862 368.365206 
L 175.381279 368.358497 
L 206.690693 368.972883 
L 227.162234 368.987132 
L 245.225357 369.024102 
L 259.675856 369.06068 
L 280.147397 368.896299 
L 284.96423 368.815014 
L 292.189479 368.669632 
L 312.66102 368.445217 
L 319.886269 368.470729 
L 357.216725 367.802334 
L 360.82935 367.455846 
L 362.033558 367.417113 
L 363.237766 367.166452 
L 365.646183 366.858158 
L 368.054599 366.374025 
L 371.667224 365.906295 
L 372.871432 365.641287 
L 374.075641 365.255821 
L 375.279849 365.192311 
L 376.484057 364.280552 
L 377.688265 364.041398 
L 378.892474 364.090708 
L 380.096682 363.72429 
L 381.30089 363.210825 
L 382.505098 362.508251 
L 386.117723 361.28663 
L 387.321931 360.646293 
L 389.730348 359.909393 
L 390.934556 358.899358 
L 393.342973 357.758776 
L 395.751389 357.114473 
L 396.955598 357.897156 
L 398.159806 356.751679 
L 399.364014 356.355734 
L 401.772431 355.416553 
L 402.976639 355.247618 
L 405.385055 355.533877 
L 406.589264 355.000532 
L 410.201888 354.062918 
L 411.406097 354.037553 
L 413.814513 354.573787 
L 415.018721 354.70585 
L 416.22293 353.971056 
L 418.631346 353.817839 
L 419.835554 353.803933 
L 421.039763 354.250558 
L 422.243971 354.475266 
L 424.652387 354.145671 
L 425.856596 354.066052 
L 427.060804 354.328219 
L 428.265012 354.072662 
L 429.46922 354.314802 
L 430.673429 355.069134 
L 431.877637 354.66085 
L 433.081845 354.444564 
L 436.69447 352.797129 
L 437.898678 352.810497 
L 439.102886 353.566885 
L 440.307095 352.917048 
L 442.715511 352.220889 
L 443.919719 351.483206 
L 445.123928 350.987222 
L 446.328136 351.496231 
L 447.532344 351.77397 
L 448.736552 351.202725 
L 449.940761 350.864022 
L 451.144969 350.705321 
L 452.349177 351.38111 
L 453.553385 351.585742 
L 454.757594 351.91377 
L 455.961802 352.390901 
L 457.16601 352.708254 
L 458.370219 351.636569 
L 459.574427 350.948587 
L 460.778635 352.724756 
L 461.982843 352.798108 
L 465.595468 354.401914 
L 466.799676 354.317985 
L 468.003885 353.174907 
L 469.208093 353.080989 
L 470.412301 352.631181 
L 471.616509 353.615019 
L 472.820718 354.223235 
L 476.433342 354.248306 
L 477.637551 353.988146 
L 478.841759 354.098076 
L 480.045967 354.980162 
L 481.250175 354.723821 
L 482.454384 356.38957 
L 483.658592 356.028 
L 484.8628 356.611585 
L 486.067008 356.646694 
L 486.067008 356.646694 
" style="fill:none;stroke:#8c564b;stroke-linecap:square;stroke-width:1.5;"/>
   </g>
   <g id="line2d_23">
    <path clip-path="url(#p1bdfd5d10f)" d="M 92.290909 369.336176 
L 127.212948 369.163891 
L 140.459239 368.87667 
L 163.339196 367.971524 
L 174.17707 367.335267 
L 177.789695 367.085183 
L 180.198112 366.915718 
L 183.810736 366.529544 
L 186.219153 366.407088 
L 191.035986 365.844163 
L 197.057027 364.763207 
L 201.87386 364.082996 
L 204.282277 363.738425 
L 205.486485 363.67849 
L 209.09911 363.078899 
L 210.303318 362.926357 
L 211.507526 366.25196 
L 212.711735 366.11117 
L 213.915943 366.541061 
L 217.528568 366.610164 
L 218.732776 366.666574 
L 221.141192 366.609458 
L 222.345401 366.753774 
L 228.366442 366.741082 
L 235.591691 367.018431 
L 238.000108 367.058623 
L 239.204316 367.204349 
L 246.429566 367.130311 
L 247.633774 367.23984 
L 254.859023 367.288964 
L 256.063232 367.436805 
L 257.26744 367.215161 
L 263.288481 367.130311 
L 266.901106 367.206699 
L 271.717939 367.316229 
L 274.126356 367.394027 
L 278.943189 367.408835 
L 284.96423 367.629304 
L 288.576855 367.60627 
L 290.985271 367.570779 
L 295.802104 367.432574 
L 303.027354 367.396848 
L 305.43577 367.429989 
L 307.844187 367.461954 
L 310.252603 367.387916 
L 319.886269 367.607915 
L 322.294686 367.66409 
L 325.90731 367.786547 
L 329.519935 367.682188 
L 333.13256 367.786312 
L 336.745185 367.74565 
L 340.35781 367.807465 
L 341.562018 367.932743 
L 346.378851 367.849538 
L 351.195684 367.874922 
L 354.808309 367.794538 
L 358.420933 367.850243 
L 364.441975 367.682893 
L 366.850391 367.736483 
L 372.871432 367.664795 
L 375.279849 367.710628 
L 381.30089 367.719325 
L 383.709307 367.767273 
L 389.730348 367.730842 
L 392.138764 367.759752 
L 396.955598 367.655629 
L 401.772431 367.697231 
L 404.180847 367.72097 
L 406.589264 367.886439 
L 407.793472 367.935798 
L 412.610305 367.760457 
L 416.22293 367.9452 
L 421.039763 367.691825 
L 422.243971 367.57971 
L 424.652387 367.668556 
L 427.060804 367.395673 
L 431.877637 367.177554 
L 433.081845 367.235374 
L 437.898678 366.906316 
L 437.898678 366.906316 
" style="fill:none;stroke:#e377c2;stroke-linecap:square;stroke-width:1.5;"/>
   </g>
   <g id="line2d_24">
    <path clip-path="url(#p1bdfd5d10f)" d="M 92.290909 369.351028 
L 103.128783 369.20928 
L 107.945616 369.02158 
L 113.966658 368.650674 
L 116.375074 368.170355 
L 122.396115 367.134583 
L 124.804532 366.497892 
L 134.438198 364.404949 
L 136.846615 364.15305 
L 142.867656 363.239974 
L 145.276072 363.050731 
L 150.092905 362.634678 
L 152.501322 362.410149 
L 162.134988 362.135576 
L 165.747613 362.214869 
L 178.993903 362.755563 
L 180.198112 363.221056 
L 189.831778 364.233215 
L 191.035986 364.52637 
L 201.87386 365.564557 
L 204.282277 365.809547 
L 212.711735 366.684922 
L 219.936984 367.031275 
L 223.549609 367.305848 
L 227.162234 367.598534 
L 230.774858 367.756114 
L 242.816941 368.23167 
L 288.576855 368.523752 
L 309.048395 368.242269 
L 324.703102 367.421366 
L 334.336768 366.894625 
L 358.420933 365.829337 
L 364.441975 365.327081 
L 366.850391 364.936788 
L 374.075641 363.159541 
L 376.484057 362.162208 
L 378.892474 360.892649 
L 381.30089 359.785635 
L 383.709307 358.003691 
L 386.117723 355.730897 
L 387.321931 354.452349 
L 388.52614 353.48346 
L 389.730348 352.248718 
L 392.138764 349.290261 
L 395.751389 343.99481 
L 396.955598 342.761611 
L 398.159806 341.310592 
L 399.364014 339.627261 
L 404.180847 331.885739 
L 406.589264 329.774347 
L 408.99768 326.759339 
L 410.201888 324.822499 
L 412.610305 321.564648 
L 413.814513 321.209507 
L 415.018721 320.134424 
L 416.22293 319.506655 
L 417.427138 318.265406 
L 419.835554 316.247865 
L 421.039763 315.29521 
L 422.243971 315.905537 
L 423.448179 315.802429 
L 424.652387 316.251152 
L 425.856596 315.972889 
L 427.060804 316.506338 
L 428.265012 316.411415 
L 429.46922 315.977853 
L 431.877637 317.039519 
L 433.081845 318.29499 
L 435.490262 318.531661 
L 436.69447 318.768668 
L 437.898678 318.692394 
L 439.102886 319.127566 
L 440.307095 319.885209 
L 441.511303 321.697138 
L 442.715511 322.635505 
L 445.123928 323.418975 
L 446.328136 323.339615 
L 448.736552 324.863622 
L 449.940761 326.044764 
L 451.144969 326.739952 
L 453.553385 327.758081 
L 454.757594 327.584066 
L 457.16601 328.711407 
L 458.370219 329.190317 
L 459.574427 329.538079 
L 460.778635 330.460211 
L 463.187052 330.334496 
L 465.595468 331.20873 
L 466.799676 331.499404 
L 469.208093 330.803612 
L 470.412301 330.649655 
L 471.616509 330.706542 
L 472.820718 331.092676 
L 475.229134 331.209804 
L 476.433342 331.052627 
L 477.637551 331.097304 
L 478.841759 330.932748 
L 480.045967 330.457125 
L 481.250175 330.722307 
L 483.658592 331.473979 
L 486.067008 331.923842 
L 487.271217 331.947389 
L 488.475425 332.238733 
L 489.679633 332.662366 
L 492.08805 334.239235 
L 493.292258 334.707814 
L 494.496466 335.681534 
L 494.496466 335.681534 
" style="fill:none;stroke:#7f7f7f;stroke-linecap:square;stroke-width:1.5;"/>
   </g>
   <g id="line2d_25">
    <path clip-path="url(#p1bdfd5d10f)" d="M 92.290909 369.35426 
L 100.720367 369.225187 
L 115.170866 368.794867 
L 122.396115 368.809627 
L 157.318155 369.140631 
L 223.549609 369.283443 
L 283.760022 369.291843 
L 306.639978 369.259575 
L 330.724144 368.992323 
L 341.562018 369.114094 
L 349.991476 369.18232 
L 376.484057 369.249526 
L 427.060804 369.015876 
L 437.898678 368.796987 
L 451.144969 368.481371 
L 459.574427 368.198338 
L 478.841759 367.948593 
L 482.454384 368.016192 
L 484.8628 368.189937 
L 494.496466 368.415971 
L 498.109091 368.473049 
L 498.109091 368.473049 
" style="fill:none;stroke:#bcbd22;stroke-linecap:square;stroke-width:1.5;"/>
   </g>
   <g id="line2d_26">
    <path clip-path="url(#p1bdfd5d10f)" d="M 92.290909 369.35746 
L 130.825573 369.202133 
L 139.255031 369.200173 
L 141.663448 369.211899 
L 147.684489 369.065953 
L 150.092905 369.131425 
L 152.501322 369.102544 
L 175.381279 368.860188 
L 182.606528 368.816883 
L 191.035986 368.753788 
L 197.057027 368.641542 
L 199.465444 368.681345 
L 205.486485 368.582848 
L 209.09911 368.58892 
L 212.711735 368.535463 
L 224.753817 368.507931 
L 230.774858 368.402495 
L 235.591691 368.436324 
L 238.000108 368.436324 
L 239.204316 367.751631 
L 240.408524 367.856971 
L 246.429566 367.663478 
L 252.450607 367.752274 
L 254.859023 367.695251 
L 258.471648 367.958873 
L 263.288481 367.858545 
L 265.696898 368.086572 
L 270.513731 367.916018 
L 275.330564 368.087118 
L 281.351605 368.025919 
L 282.555813 368.18221 
L 289.781063 368.013133 
L 292.189479 368.105848 
L 297.006312 367.972013 
L 301.823145 368.083842 
L 305.43577 368.003592 
L 311.456811 368.307725 
L 315.069436 368.278105 
L 316.273644 368.37914 
L 323.498894 368.166308 
L 325.90731 368.221018 
L 330.724144 368.041372 
L 331.928352 368.157859 
L 340.35781 368.091873 
L 341.562018 368.195767 
L 348.787267 367.94477 
L 349.991476 368.049435 
L 356.012517 367.718895 
L 359.625142 367.807851 
L 362.033558 367.689564 
L 364.441975 367.631514 
L 369.258808 367.898895 
L 375.279849 367.651849 
L 377.688265 367.260335 
L 378.892474 364.266552 
L 383.709307 364.338738 
L 387.321931 364.443371 
L 388.52614 364.400323 
L 389.730348 364.20214 
L 392.138764 364.133006 
L 396.955598 363.668952 
L 398.159806 363.492068 
L 401.772431 363.3928 
L 406.589264 362.958591 
L 411.406097 362.794429 
L 415.018721 362.429451 
L 416.22293 362.376668 
L 417.427138 362.488722 
L 419.835554 362.420134 
L 423.448179 362.142987 
L 424.652387 362.154006 
L 425.856596 362.293816 
L 429.46922 362.096341 
L 430.673429 362.084968 
L 434.286053 362.356558 
L 436.69447 362.220634 
L 439.102886 362.071475 
L 443.919719 362.147902 
L 449.940761 361.332555 
L 451.144969 361.429542 
L 454.757594 360.853209 
L 457.16601 360.44258 
L 458.370219 360.442516 
L 459.574427 360.657211 
L 461.982843 360.372578 
L 463.187052 359.712847 
L 464.39126 359.956777 
L 464.39126 359.956777 
" style="fill:none;stroke:#17becf;stroke-linecap:square;stroke-width:1.5;"/>
   </g>
   <g id="line2d_27">
    <path clip-path="url(#p1bdfd5d10f)" d="M 92.290909 369.256269 
L 94.699326 369.167947 
L 97.107742 369.061184 
L 99.516159 368.939863 
L 112.762449 367.670356 
L 119.987699 366.562934 
L 122.396115 366.173735 
L 124.804532 366.054355 
L 132.029781 365.170165 
L 133.23399 365.04302 
L 134.438198 364.751848 
L 136.846615 364.468442 
L 139.255031 364.120977 
L 140.459239 364.120977 
L 141.663448 363.855041 
L 144.071864 363.628898 
L 145.276072 363.29308 
L 147.684489 363.192141 
L 152.501322 362.61271 
L 153.70553 365.921387 
L 154.909738 365.947592 
L 156.113947 365.789389 
L 157.318155 366.924957 
L 160.93078 366.525082 
L 164.543404 366.094148 
L 166.951821 365.967974 
L 169.360237 365.772889 
L 172.972862 364.902287 
L 174.17707 364.746025 
L 175.381279 365.445807 
L 176.585487 365.059519 
L 177.789695 364.833376 
L 178.993903 366.183441 
L 186.219153 364.145241 
L 187.423361 364.02295 
L 189.831778 363.484283 
L 192.240194 363.053349 
L 193.444402 362.381714 
L 194.648611 364.478147 
L 195.852819 363.662868 
L 197.057027 362.35842 
L 198.261236 362.365214 
L 200.669652 361.25391 
L 201.87386 360.534717 
L 203.078069 360.208605 
L 205.486485 358.519812 
L 207.894902 357.63271 
L 209.09911 357.045514 
L 210.303318 356.090472 
L 211.507526 355.714861 
L 212.711735 355.097578 
L 215.120151 353.278728 
L 217.528568 352.014074 
L 219.936984 351.54917 
L 221.141192 351.403584 
L 222.345401 350.516483 
L 223.549609 349.437207 
L 225.958025 349.015009 
L 228.366442 349.010156 
L 230.774858 348.314257 
L 231.979067 347.696003 
L 233.183275 347.553329 
L 234.387483 347.189365 
L 235.591691 346.522583 
L 236.7959 346.21297 
L 238.000108 346.362438 
L 240.408524 345.936358 
L 242.816941 346.451731 
L 246.429566 345.911123 
L 247.633774 345.222017 
L 248.837982 345.063814 
L 250.04219 345.394779 
L 252.450607 345.508336 
L 257.26744 345.22687 
L 258.471648 345.512218 
L 259.675856 346.17803 
L 260.880065 345.886859 
L 262.084273 345.782037 
L 263.288481 345.525806 
L 264.49269 345.965475 
L 265.696898 345.853859 
L 268.105314 345.992651 
L 269.309523 345.568511 
L 271.717939 345.036638 
L 272.922147 344.929875 
L 274.126356 345.184165 
L 275.330564 346.271205 
L 276.534772 346.404173 
L 277.73898 347.196159 
L 278.943189 347.221394 
L 280.147397 346.966134 
L 281.351605 346.46726 
L 282.555813 346.655551 
L 283.760022 346.355644 
L 284.96423 346.499289 
L 286.168438 346.030503 
L 287.372646 346.013033 
L 289.781063 345.75389 
L 290.985271 345.284134 
L 292.189479 345.523865 
L 294.597896 345.417102 
L 297.006312 345.09002 
L 298.210521 344.809525 
L 299.414729 344.871641 
L 300.618937 344.56397 
L 305.43577 344.69888 
L 306.639978 344.638704 
L 309.048395 345.045373 
L 310.252603 345.60054 
L 313.865228 346.878782 
L 315.069436 347.444625 
L 316.273644 347.796942 
L 318.682061 348.724808 
L 319.886269 349.042185 
L 323.498894 348.979098 
L 324.703102 348.751984 
L 325.90731 348.700544 
L 328.315727 348.928628 
L 329.519935 349.188741 
L 330.724144 348.936393 
L 333.13256 348.91504 
L 334.336768 348.773337 
L 337.949393 348.586017 
L 339.153601 348.365697 
L 341.562018 348.372491 
L 342.766226 348.505459 
L 343.970434 348.309404 
L 346.378851 348.332698 
L 347.583059 348.783043 
L 351.195684 348.856806 
L 352.399892 348.869423 
L 356.012517 348.663662 
L 359.625142 348.656868 
L 363.237766 349.163506 
L 365.646183 349.953551 
L 366.850391 350.30878 
L 368.054599 350.452425 
L 370.463016 351.179383 
L 371.667224 350.92024 
L 372.871432 351.015356 
L 374.075641 350.960033 
L 376.484057 351.135707 
L 377.688265 351.095913 
L 378.892474 351.452113 
L 380.096682 351.510347 
L 381.30089 351.724843 
L 382.505098 351.492877 
L 384.913515 352.292628 
L 387.321931 353.005027 
L 389.730348 353.568929 
L 390.934556 353.963951 
L 392.138764 354.141565 
L 394.547181 353.663074 
L 395.751389 353.547576 
L 396.955598 353.183612 
L 398.159806 352.335333 
L 399.364014 351.839371 
L 400.568222 351.63361 
L 401.772431 351.216264 
L 402.976639 350.290339 
L 404.180847 350.258311 
L 405.385055 349.559499 
L 406.589264 348.50643 
L 408.99768 348.311345 
L 410.201888 347.955145 
L 411.406097 347.190335 
L 412.610305 345.825713 
L 416.22293 342.62574 
L 417.427138 342.279246 
L 418.631346 341.485319 
L 419.835554 340.333251 
L 421.039763 338.714338 
L 422.243971 337.685533 
L 423.448179 336.058856 
L 424.652387 335.133902 
L 425.856596 334.915523 
L 427.060804 333.31214 
L 430.673429 329.417238 
L 433.081845 329.032892 
L 434.286053 328.343786 
L 435.490262 326.091091 
L 437.898678 323.13279 
L 439.102886 323.025057 
L 440.307095 322.805708 
L 441.511303 322.987205 
L 442.715511 322.438832 
L 443.919719 321.371204 
L 445.123928 318.839955 
L 446.328136 318.78075 
L 447.532344 317.617035 
L 448.736552 316.152443 
L 449.940761 315.400251 
L 451.144969 314.989699 
L 452.349177 314.138508 
L 453.553385 314.355916 
L 454.757594 315.075109 
L 455.961802 316.360145 
L 457.16601 316.390233 
L 458.370219 316.72411 
L 459.574427 317.527742 
L 460.778635 317.422921 
L 461.982843 318.490549 
L 463.187052 320.256988 
L 464.39126 321.502231 
L 464.39126 321.502231 
" style="fill:none;stroke:#1f77b4;stroke-linecap:square;stroke-width:1.5;"/>
   </g>
   <g id="line2d_28">
    <path clip-path="url(#p1bdfd5d10f)" d="M 92.290909 369.34639 
L 117.579282 369.165168 
L 119.987699 368.894729 
L 123.600324 368.660535 
L 124.804532 368.483368 
L 127.212948 368.332942 
L 128.417157 368.588426 
L 133.23399 368.231686 
L 136.846615 367.723758 
L 138.050823 367.647974 
L 139.255031 367.227742 
L 140.459239 366.99114 
L 142.867656 366.679894 
L 145.276072 366.126978 
L 146.480281 365.786585 
L 147.684489 365.698635 
L 148.888697 365.420846 
L 150.092905 365.356341 
L 151.297114 365.010246 
L 152.501322 364.829658 
L 154.909738 364.149886 
L 157.318155 363.77629 
L 158.522363 363.727373 
L 159.726571 363.445655 
L 162.134988 362.620906 
L 163.339196 362.396596 
L 165.747613 361.630142 
L 166.951821 361.52445 
L 169.360237 361.880557 
L 170.564446 361.499611 
L 174.17707 360.907282 
L 175.381279 360.566002 
L 176.585487 360.102683 
L 178.993903 359.446102 
L 180.198112 359.870516 
L 181.40232 358.607793 
L 182.606528 357.605496 
L 183.810736 357.081347 
L 185.014945 356.163452 
L 186.219153 356.47267 
L 188.627569 356.305008 
L 193.444402 356.045848 
L 194.648611 356.068659 
L 195.852819 355.89352 
L 197.057027 356.489652 
L 198.261236 356.343914 
L 199.465444 355.7417 
L 200.669652 355.836239 
L 201.87386 356.067899 
L 204.282277 355.961193 
L 205.486485 355.538174 
L 206.690693 356.62994 
L 207.894902 356.496875 
L 209.09911 356.193487 
L 211.507526 356.116183 
L 212.711735 355.596342 
L 213.915943 356.229605 
L 219.936984 356.641092 
L 228.366442 357.064619 
L 230.774858 357.004043 
L 231.979067 357.084135 
L 236.7959 356.823328 
L 238.000108 356.944607 
L 239.204316 356.845886 
L 241.612733 356.884918 
L 242.816941 357.281071 
L 244.021149 356.718397 
L 245.225357 356.620182 
L 246.429566 357.005437 
L 247.633774 356.853616 
L 248.837982 356.853616 
L 250.04219 357.921557 
L 251.246399 356.846392 
L 253.654815 356.457209 
L 254.859023 356.947775 
L 256.063232 356.11086 
L 257.26744 356.517912 
L 258.471648 354.781097 
L 259.675856 354.762215 
L 260.880065 354.479863 
L 264.49269 353.02654 
L 265.696898 353.63978 
L 266.901106 352.514811 
L 268.105314 351.893207 
L 269.309523 351.774336 
L 270.513731 352.264902 
L 271.717939 352.264902 
L 272.922147 352.099648 
L 274.126356 352.802865 
L 278.943189 350.958837 
L 280.147397 350.243328 
L 282.555813 348.059035 
L 283.760022 349.283993 
L 284.96423 348.158643 
L 286.168438 349.331896 
L 287.372646 348.475718 
L 288.576855 348.65656 
L 289.781063 348.570258 
L 290.985271 348.644394 
L 292.189479 348.558218 
L 293.393688 348.714348 
L 294.597896 350.162475 
L 295.802104 350.619965 
L 297.006312 350.619965 
L 298.210521 351.338136 
L 299.414729 350.507557 
L 300.618937 350.656843 
L 301.823145 351.886744 
L 303.027354 351.70172 
L 304.231562 352.999421 
L 305.43577 352.179107 
L 306.639978 352.255524 
L 307.844187 353.281898 
L 309.048395 352.508094 
L 310.252603 352.618601 
L 311.456811 352.926425 
L 312.66102 353.350205 
L 313.865228 354.301176 
L 316.273644 352.808314 
L 317.477853 353.689964 
L 318.682061 352.925791 
L 319.886269 352.925791 
L 321.090477 355.612437 
L 322.294686 354.871455 
L 323.498894 353.385943 
L 324.703102 356.091217 
L 325.90731 355.400166 
L 327.111519 355.604706 
L 329.519935 356.37813 
L 330.724144 357.722594 
L 331.928352 357.292223 
L 333.13256 357.536049 
L 334.336768 358.197952 
L 335.540977 358.056397 
L 336.745185 358.680788 
L 337.949393 359.677888 
L 339.153601 359.927797 
L 341.562018 359.239915 
L 342.766226 359.491851 
L 343.970434 360.00282 
L 345.174643 360.178593 
L 346.378851 360.921476 
L 347.583059 360.925278 
L 348.787267 362.126664 
L 349.991476 362.46541 
L 351.195684 362.075339 
L 352.399892 362.915676 
L 353.6041 363.206898 
L 354.808309 362.803015 
L 356.012517 363.129467 
L 358.420933 363.201703 
L 359.625142 362.933418 
L 360.82935 363.839401 
L 362.033558 363.609895 
L 363.237766 364.095266 
L 364.441975 364.1784 
L 365.646183 363.846497 
L 368.054599 363.933307 
L 369.258808 364.619542 
L 370.463016 364.619542 
L 371.667224 363.761336 
L 372.871432 364.073088 
L 374.075641 364.073088 
L 375.279849 363.793018 
L 376.484057 364.421972 
L 377.688265 364.134932 
L 378.892474 364.556304 
L 380.096682 364.321223 
L 383.709307 364.398907 
L 384.913515 364.122892 
L 386.117723 364.744116 
L 387.321931 364.838022 
L 388.52614 364.633102 
L 389.730348 365.16891 
L 390.934556 364.680118 
L 392.138764 364.474184 
L 393.342973 365.167262 
L 394.547181 364.97172 
L 395.751389 365.265731 
L 396.955598 365.30489 
L 398.159806 365.592817 
L 399.364014 365.110235 
L 400.568222 364.840176 
L 401.772431 365.109854 
L 402.976639 365.109854 
L 404.180847 364.979071 
L 405.385055 365.475466 
L 406.589264 365.332897 
L 407.793472 365.934224 
L 408.99768 365.469637 
L 410.201888 365.710928 
L 411.406097 365.561262 
L 412.610305 365.781136 
L 415.018721 365.545167 
L 416.22293 365.81117 
L 418.631346 365.80458 
L 419.835554 365.566331 
L 421.039763 365.677091 
L 422.243971 366.160434 
L 423.448179 365.751988 
L 424.652387 366.271448 
L 425.856596 366.549111 
L 427.060804 365.755029 
L 428.265012 365.79761 
L 429.46922 366.177669 
L 430.673429 365.970721 
L 431.877637 366.244328 
L 433.081845 365.986943 
L 434.286053 366.001516 
L 436.69447 366.477255 
L 439.102886 366.623247 
L 440.307095 366.048533 
L 442.715511 366.048533 
L 443.919719 366.618178 
L 445.123928 366.451023 
L 446.328136 366.707141 
L 448.736552 366.633005 
L 449.940761 366.347866 
L 452.349177 366.852372 
L 453.553385 365.934224 
L 454.757594 365.800145 
L 455.961802 365.453796 
L 457.16601 366.113038 
L 458.370219 364.381038 
L 459.574427 364.381038 
L 460.778635 363.819884 
L 461.982843 364.663136 
L 463.187052 364.663136 
L 464.39126 363.683271 
L 465.595468 364.208181 
L 466.799676 363.008948 
L 466.799676 363.008948 
" style="fill:none;stroke:#ff7f0e;stroke-linecap:square;stroke-width:1.5;"/>
   </g>
   <g id="line2d_29">
    <path clip-path="url(#p1bdfd5d10f)" d="M 92.290909 369.36 
L 111.558241 369.267389 
L 117.579282 368.826478 
L 119.987699 368.560814 
L 127.212948 367.163548 
L 129.621365 366.527948 
L 133.23399 365.519031 
L 142.867656 362.995826 
L 147.684489 361.872254 
L 151.297114 361.059302 
L 159.726571 359.192539 
L 162.134988 358.723388 
L 163.339196 358.795405 
L 166.951821 358.081048 
L 169.360237 357.6671 
L 172.972862 356.870168 
L 178.993903 356.183939 
L 181.40232 355.670491 
L 183.810736 355.414082 
L 186.219153 355.136461 
L 188.627569 354.681597 
L 189.831778 355.042759 
L 195.852819 354.392873 
L 199.465444 353.861445 
L 200.669652 353.976112 
L 204.282277 353.673658 
L 211.507526 352.708333 
L 215.120151 352.155159 
L 217.528568 351.788903 
L 218.732776 351.729587 
L 222.345401 351.080891 
L 225.958025 350.27541 
L 227.162234 350.109902 
L 230.774858 349.080713 
L 234.387483 347.784707 
L 236.7959 347.181498 
L 238.000108 346.67303 
L 239.204316 346.64665 
L 240.408524 346.104466 
L 241.612733 346.833581 
L 246.429566 344.912372 
L 250.04219 343.09205 
L 251.246399 342.500563 
L 252.450607 342.100889 
L 253.654815 341.473741 
L 254.859023 340.974083 
L 257.26744 339.559123 
L 260.880065 337.923949 
L 268.105314 334.755815 
L 270.513731 333.97488 
L 272.922147 333.007968 
L 274.126356 332.471101 
L 276.534772 331.58343 
L 277.73898 331.570233 
L 278.943189 331.048669 
L 280.147397 331.009241 
L 283.760022 329.711029 
L 286.168438 328.882216 
L 287.372646 328.856913 
L 288.576855 328.65738 
L 289.781063 328.286862 
L 290.985271 327.75676 
L 293.393688 327.140119 
L 295.802104 326.962196 
L 298.210521 326.47426 
L 300.618937 325.817571 
L 303.027354 325.377044 
L 305.43577 325.156037 
L 309.048395 324.188035 
L 310.252603 323.929446 
L 311.456811 323.854046 
L 312.66102 323.560911 
L 313.865228 323.436641 
L 315.069436 323.43337 
L 317.477853 322.72216 
L 318.682061 322.505192 
L 323.498894 322.125431 
L 325.90731 321.431618 
L 329.519935 320.868544 
L 330.724144 320.788138 
L 334.336768 319.756062 
L 336.745185 319.110933 
L 340.35781 318.770093 
L 341.562018 318.338078 
L 343.970434 317.794049 
L 345.174643 317.737062 
L 346.378851 317.437768 
L 347.583059 317.286424 
L 348.787267 316.978655 
L 349.991476 316.464983 
L 352.399892 315.898712 
L 353.6041 315.70437 
L 354.808309 315.36799 
L 356.012517 315.351683 
L 360.82935 313.639028 
L 362.033558 313.514609 
L 365.646183 312.235046 
L 366.850391 311.640312 
L 372.871432 309.54403 
L 374.075641 308.977808 
L 376.484057 307.614964 
L 377.688265 307.043253 
L 378.892474 306.680529 
L 382.505098 304.816059 
L 383.709307 303.896282 
L 384.913515 303.216806 
L 386.117723 302.146714 
L 387.321931 301.643327 
L 388.52614 300.460947 
L 389.730348 299.668142 
L 394.547181 295.233059 
L 395.751389 294.756969 
L 399.364014 290.690706 
L 400.568222 289.020837 
L 402.976639 286.262908 
L 404.180847 285.134033 
L 406.589264 282.341385 
L 407.793472 280.749989 
L 408.99768 278.906223 
L 410.201888 277.593489 
L 411.406097 275.748807 
L 412.610305 274.932385 
L 413.814513 273.581598 
L 415.018721 273.077591 
L 416.22293 272.13286 
L 417.427138 270.526445 
L 418.631346 269.547341 
L 419.835554 268.340587 
L 421.039763 267.397045 
L 423.448179 264.849282 
L 424.652387 263.162102 
L 425.856596 261.158913 
L 427.060804 259.831298 
L 428.265012 258.194699 
L 429.46922 256.934664 
L 430.673429 255.11039 
L 431.877637 253.689891 
L 433.081845 252.070032 
L 434.286053 251.023532 
L 435.490262 249.748876 
L 436.69447 248.063469 
L 437.898678 246.959004 
L 439.102886 165.129964 
L 442.715511 156.166145 
L 447.532344 146.674133 
L 448.736552 143.874918 
L 449.940761 141.504322 
L 451.144969 140.259689 
L 452.349177 137.494995 
L 454.757594 133.465682 
L 455.961802 131.080266 
L 458.370219 125.429644 
L 459.574427 123.490108 
L 460.778635 119.826034 
L 461.982843 117.246723 
L 463.187052 115.027744 
L 465.595468 109.147268 
L 469.208093 98.972483 
L 474.024926 88.155941 
L 476.433342 82.339502 
L 477.637551 79.868649 
L 478.841759 77.685728 
L 480.045967 75.943595 
L 483.658592 69.230489 
L 484.8628 66.96 
L 484.8628 66.96 
" style="fill:none;stroke:#2ca02c;stroke-linecap:square;stroke-width:1.5;"/>
   </g>
   <g id="line2d_30">
    <path clip-path="url(#p1bdfd5d10f)" d="M 92.290909 369.348172 
L 140.459239 369.333989 
L 166.951821 369.230219 
L 212.711735 368.716844 
L 217.528568 368.542021 
L 219.936984 368.51169 
L 227.162234 368.308643 
L 229.57065 368.321842 
L 230.774858 368.264832 
L 231.979067 368.606473 
L 236.7959 368.51829 
L 242.816941 368.436987 
L 247.633774 368.149547 
L 252.450607 367.871515 
L 253.654815 367.747946 
L 254.859023 367.761707 
L 256.063232 367.644316 
L 257.26744 368.007301 
L 258.471648 368.238573 
L 259.675856 368.265955 
L 264.49269 367.848206 
L 269.309523 367.826862 
L 281.351605 368.182124 
L 284.96423 368.15727 
L 288.576855 367.99354 
L 289.781063 367.836832 
L 290.985271 367.934283 
L 294.597896 367.783051 
L 304.231562 367.897072 
L 315.069436 368.004914 
L 333.13256 368.286597 
L 334.336768 368.319315 
L 335.540977 368.233658 
L 337.949393 368.4148 
L 342.766226 368.436987 
L 345.174643 368.606614 
L 349.991476 368.683424 
L 362.033558 368.743102 
L 413.814513 368.737485 
L 422.243971 368.688619 
L 453.553385 368.436144 
L 455.961802 368.415502 
L 455.961802 368.415502 
" style="fill:none;stroke:#d62728;stroke-linecap:square;stroke-width:1.5;"/>
   </g>
   <g id="patch_3">
    <path d="M 72 384.48 
L 72 51.84 
" style="fill:none;stroke:#000000;stroke-linecap:square;stroke-linejoin:miter;stroke-width:0.8;"/>
   </g>
   <g id="patch_4">
    <path d="M 518.4 384.48 
L 518.4 51.84 
" style="fill:none;stroke:#000000;stroke-linecap:square;stroke-linejoin:miter;stroke-width:0.8;"/>
   </g>
   <g id="patch_5">
    <path d="M 72 384.48 
L 518.4 384.48 
" style="fill:none;stroke:#000000;stroke-linecap:square;stroke-linejoin:miter;stroke-width:0.8;"/>
   </g>
   <g id="patch_6">
    <path d="M 72 51.84 
L 518.4 51.84 
" style="fill:none;stroke:#000000;stroke-linecap:square;stroke-linejoin:miter;stroke-width:0.8;"/>
   </g>
   <g id="text_19">
    <!-- Percentage of Active Population Since Day of More Than 100 Confirmed Cases -->
    <defs>
     <path d="M 41.109375 46.296875 
Q 39.59375 47.171875 37.8125 47.578125 
Q 36.03125 48 33.890625 48 
Q 26.265625 48 22.1875 43.046875 
Q 18.109375 38.09375 18.109375 28.8125 
L 18.109375 0 
L 9.078125 0 
L 9.078125 54.6875 
L 18.109375 54.6875 
L 18.109375 46.1875 
Q 20.953125 51.171875 25.484375 53.578125 
Q 30.03125 56 36.53125 56 
Q 37.453125 56 38.578125 55.875 
Q 39.703125 55.765625 41.0625 55.515625 
z
" id="DejaVuSans-114"/>
     <path d="M 45.40625 27.984375 
Q 45.40625 37.75 41.375 43.109375 
Q 37.359375 48.484375 30.078125 48.484375 
Q 22.859375 48.484375 18.828125 43.109375 
Q 14.796875 37.75 14.796875 27.984375 
Q 14.796875 18.265625 18.828125 12.890625 
Q 22.859375 7.515625 30.078125 7.515625 
Q 37.359375 7.515625 41.375 12.890625 
Q 45.40625 18.265625 45.40625 27.984375 
z
M 54.390625 6.78125 
Q 54.390625 -7.171875 48.1875 -13.984375 
Q 42 -20.796875 29.203125 -20.796875 
Q 24.46875 -20.796875 20.265625 -20.09375 
Q 16.0625 -19.390625 12.109375 -17.921875 
L 12.109375 -9.1875 
Q 16.0625 -11.328125 19.921875 -12.34375 
Q 23.78125 -13.375 27.78125 -13.375 
Q 36.625 -13.375 41.015625 -8.765625 
Q 45.40625 -4.15625 45.40625 5.171875 
L 45.40625 9.625 
Q 42.625 4.78125 38.28125 2.390625 
Q 33.9375 0 27.875 0 
Q 17.828125 0 11.671875 7.65625 
Q 5.515625 15.328125 5.515625 27.984375 
Q 5.515625 40.671875 11.671875 48.328125 
Q 17.828125 56 27.875 56 
Q 33.9375 56 38.28125 53.609375 
Q 42.625 51.21875 45.40625 46.390625 
L 45.40625 54.6875 
L 54.390625 54.6875 
z
" id="DejaVuSans-103"/>
     <path d="M 37.109375 75.984375 
L 37.109375 68.5 
L 28.515625 68.5 
Q 23.6875 68.5 21.796875 66.546875 
Q 19.921875 64.59375 19.921875 59.515625 
L 19.921875 54.6875 
L 34.71875 54.6875 
L 34.71875 47.703125 
L 19.921875 47.703125 
L 19.921875 0 
L 10.890625 0 
L 10.890625 47.703125 
L 2.296875 47.703125 
L 2.296875 54.6875 
L 10.890625 54.6875 
L 10.890625 58.5 
Q 10.890625 67.625 15.140625 71.796875 
Q 19.390625 75.984375 28.609375 75.984375 
z
" id="DejaVuSans-102"/>
     <path d="M 53.515625 70.515625 
L 53.515625 60.890625 
Q 47.90625 63.578125 42.921875 64.890625 
Q 37.9375 66.21875 33.296875 66.21875 
Q 25.25 66.21875 20.875 63.09375 
Q 16.5 59.96875 16.5 54.203125 
Q 16.5 49.359375 19.40625 46.890625 
Q 22.3125 44.4375 30.421875 42.921875 
L 36.375 41.703125 
Q 47.40625 39.59375 52.65625 34.296875 
Q 57.90625 29 57.90625 20.125 
Q 57.90625 9.515625 50.796875 4.046875 
Q 43.703125 -1.421875 29.984375 -1.421875 
Q 24.8125 -1.421875 18.96875 -0.25 
Q 13.140625 0.921875 6.890625 3.21875 
L 6.890625 13.375 
Q 12.890625 10.015625 18.65625 8.296875 
Q 24.421875 6.59375 29.984375 6.59375 
Q 38.421875 6.59375 43.015625 9.90625 
Q 47.609375 13.234375 47.609375 19.390625 
Q 47.609375 24.75 44.3125 27.78125 
Q 41.015625 30.8125 33.5 32.328125 
L 27.484375 33.5 
Q 16.453125 35.6875 11.515625 40.375 
Q 6.59375 45.0625 6.59375 53.421875 
Q 6.59375 63.09375 13.40625 68.65625 
Q 20.21875 74.21875 32.171875 74.21875 
Q 37.3125 74.21875 42.625 73.28125 
Q 47.953125 72.359375 53.515625 70.515625 
z
" id="DejaVuSans-83"/>
     <path d="M 9.8125 72.90625 
L 24.515625 72.90625 
L 43.109375 23.296875 
L 61.8125 72.90625 
L 76.515625 72.90625 
L 76.515625 0 
L 66.890625 0 
L 66.890625 64.015625 
L 48.09375 14.015625 
L 38.1875 14.015625 
L 19.390625 64.015625 
L 19.390625 0 
L 9.8125 0 
z
" id="DejaVuSans-77"/>
     <path d="M -0.296875 72.90625 
L 61.375 72.90625 
L 61.375 64.59375 
L 35.5 64.59375 
L 35.5 0 
L 25.59375 0 
L 25.59375 64.59375 
L -0.296875 64.59375 
z
" id="DejaVuSans-84"/>
     <path d="M 54.890625 33.015625 
L 54.890625 0 
L 45.90625 0 
L 45.90625 32.71875 
Q 45.90625 40.484375 42.875 44.328125 
Q 39.84375 48.1875 33.796875 48.1875 
Q 26.515625 48.1875 22.3125 43.546875 
Q 18.109375 38.921875 18.109375 30.90625 
L 18.109375 0 
L 9.078125 0 
L 9.078125 75.984375 
L 18.109375 75.984375 
L 18.109375 46.1875 
Q 21.34375 51.125 25.703125 53.5625 
Q 30.078125 56 35.796875 56 
Q 45.21875 56 50.046875 50.171875 
Q 54.890625 44.34375 54.890625 33.015625 
z
" id="DejaVuSans-104"/>
     <path d="M 64.40625 67.28125 
L 64.40625 56.890625 
Q 59.421875 61.53125 53.78125 63.8125 
Q 48.140625 66.109375 41.796875 66.109375 
Q 29.296875 66.109375 22.65625 58.46875 
Q 16.015625 50.828125 16.015625 36.375 
Q 16.015625 21.96875 22.65625 14.328125 
Q 29.296875 6.6875 41.796875 6.6875 
Q 48.140625 6.6875 53.78125 8.984375 
Q 59.421875 11.28125 64.40625 15.921875 
L 64.40625 5.609375 
Q 59.234375 2.09375 53.4375 0.328125 
Q 47.65625 -1.421875 41.21875 -1.421875 
Q 24.65625 -1.421875 15.125 8.703125 
Q 5.609375 18.84375 5.609375 36.375 
Q 5.609375 53.953125 15.125 64.078125 
Q 24.65625 74.21875 41.21875 74.21875 
Q 47.75 74.21875 53.53125 72.484375 
Q 59.328125 70.75 64.40625 67.28125 
z
" id="DejaVuSans-67"/>
     <path d="M 52 44.1875 
Q 55.375 50.25 60.0625 53.125 
Q 64.75 56 71.09375 56 
Q 79.640625 56 84.28125 50.015625 
Q 88.921875 44.046875 88.921875 33.015625 
L 88.921875 0 
L 79.890625 0 
L 79.890625 32.71875 
Q 79.890625 40.578125 77.09375 44.375 
Q 74.3125 48.1875 68.609375 48.1875 
Q 61.625 48.1875 57.5625 43.546875 
Q 53.515625 38.921875 53.515625 30.90625 
L 53.515625 0 
L 44.484375 0 
L 44.484375 32.71875 
Q 44.484375 40.625 41.703125 44.40625 
Q 38.921875 48.1875 33.109375 48.1875 
Q 26.21875 48.1875 22.15625 43.53125 
Q 18.109375 38.875 18.109375 30.90625 
L 18.109375 0 
L 9.078125 0 
L 9.078125 54.6875 
L 18.109375 54.6875 
L 18.109375 46.1875 
Q 21.1875 51.21875 25.484375 53.609375 
Q 29.78125 56 35.6875 56 
Q 41.65625 56 45.828125 52.96875 
Q 50 49.953125 52 44.1875 
z
" id="DejaVuSans-109"/>
     <path d="M 45.40625 46.390625 
L 45.40625 75.984375 
L 54.390625 75.984375 
L 54.390625 0 
L 45.40625 0 
L 45.40625 8.203125 
Q 42.578125 3.328125 38.25 0.953125 
Q 33.9375 -1.421875 27.875 -1.421875 
Q 17.96875 -1.421875 11.734375 6.484375 
Q 5.515625 14.40625 5.515625 27.296875 
Q 5.515625 40.1875 11.734375 48.09375 
Q 17.96875 56 27.875 56 
Q 33.9375 56 38.25 53.625 
Q 42.578125 51.265625 45.40625 46.390625 
z
M 14.796875 27.296875 
Q 14.796875 17.390625 18.875 11.75 
Q 22.953125 6.109375 30.078125 6.109375 
Q 37.203125 6.109375 41.296875 11.75 
Q 45.40625 17.390625 45.40625 27.296875 
Q 45.40625 37.203125 41.296875 42.84375 
Q 37.203125 48.484375 30.078125 48.484375 
Q 22.953125 48.484375 18.875 42.84375 
Q 14.796875 37.203125 14.796875 27.296875 
z
" id="DejaVuSans-100"/>
    </defs>
    <g transform="translate(60.482812 45.84)scale(0.12 -0.12)">
     <use xlink:href="#DejaVuSans-80"/>
     <use x="56.677734" xlink:href="#DejaVuSans-101"/>
     <use x="118.201172" xlink:href="#DejaVuSans-114"/>
     <use x="157.064453" xlink:href="#DejaVuSans-99"/>
     <use x="212.044922" xlink:href="#DejaVuSans-101"/>
     <use x="273.568359" xlink:href="#DejaVuSans-110"/>
     <use x="336.947266" xlink:href="#DejaVuSans-116"/>
     <use x="376.15625" xlink:href="#DejaVuSans-97"/>
     <use x="437.435547" xlink:href="#DejaVuSans-103"/>
     <use x="500.912109" xlink:href="#DejaVuSans-101"/>
     <use x="562.435547" xlink:href="#DejaVuSans-32"/>
     <use x="594.222656" xlink:href="#DejaVuSans-111"/>
     <use x="655.404297" xlink:href="#DejaVuSans-102"/>
     <use x="690.609375" xlink:href="#DejaVuSans-32"/>
     <use x="722.396484" xlink:href="#DejaVuSans-65"/>
     <use x="789.054688" xlink:href="#DejaVuSans-99"/>
     <use x="844.035156" xlink:href="#DejaVuSans-116"/>
     <use x="883.244141" xlink:href="#DejaVuSans-105"/>
     <use x="911.027344" xlink:href="#DejaVuSans-118"/>
     <use x="970.207031" xlink:href="#DejaVuSans-101"/>
     <use x="1031.730469" xlink:href="#DejaVuSans-32"/>
     <use x="1063.517578" xlink:href="#DejaVuSans-80"/>
     <use x="1120.195312" xlink:href="#DejaVuSans-111"/>
     <use x="1181.376953" xlink:href="#DejaVuSans-112"/>
     <use x="1244.853516" xlink:href="#DejaVuSans-117"/>
     <use x="1308.232422" xlink:href="#DejaVuSans-108"/>
     <use x="1336.015625" xlink:href="#DejaVuSans-97"/>
     <use x="1397.294922" xlink:href="#DejaVuSans-116"/>
     <use x="1436.503906" xlink:href="#DejaVuSans-105"/>
     <use x="1464.287109" xlink:href="#DejaVuSans-111"/>
     <use x="1525.46875" xlink:href="#DejaVuSans-110"/>
     <use x="1588.847656" xlink:href="#DejaVuSans-32"/>
     <use x="1620.634766" xlink:href="#DejaVuSans-83"/>
     <use x="1684.111328" xlink:href="#DejaVuSans-105"/>
     <use x="1711.894531" xlink:href="#DejaVuSans-110"/>
     <use x="1775.273438" xlink:href="#DejaVuSans-99"/>
     <use x="1830.253906" xlink:href="#DejaVuSans-101"/>
     <use x="1891.777344" xlink:href="#DejaVuSans-32"/>
     <use x="1923.564453" xlink:href="#DejaVuSans-68"/>
     <use x="2000.566406" xlink:href="#DejaVuSans-97"/>
     <use x="2061.845703" xlink:href="#DejaVuSans-121"/>
     <use x="2121.025391" xlink:href="#DejaVuSans-32"/>
     <use x="2152.8125" xlink:href="#DejaVuSans-111"/>
     <use x="2213.994141" xlink:href="#DejaVuSans-102"/>
     <use x="2249.199219" xlink:href="#DejaVuSans-32"/>
     <use x="2280.986328" xlink:href="#DejaVuSans-77"/>
     <use x="2367.265625" xlink:href="#DejaVuSans-111"/>
     <use x="2428.447266" xlink:href="#DejaVuSans-114"/>
     <use x="2467.310547" xlink:href="#DejaVuSans-101"/>
     <use x="2528.833984" xlink:href="#DejaVuSans-32"/>
     <use x="2560.621094" xlink:href="#DejaVuSans-84"/>
     <use x="2621.705078" xlink:href="#DejaVuSans-104"/>
     <use x="2685.083984" xlink:href="#DejaVuSans-97"/>
     <use x="2746.363281" xlink:href="#DejaVuSans-110"/>
     <use x="2809.742188" xlink:href="#DejaVuSans-32"/>
     <use x="2841.529297" xlink:href="#DejaVuSans-49"/>
     <use x="2905.152344" xlink:href="#DejaVuSans-48"/>
     <use x="2968.775391" xlink:href="#DejaVuSans-48"/>
     <use x="3032.398438" xlink:href="#DejaVuSans-32"/>
     <use x="3064.185547" xlink:href="#DejaVuSans-67"/>
     <use x="3134.009766" xlink:href="#DejaVuSans-111"/>
     <use x="3195.191406" xlink:href="#DejaVuSans-110"/>
     <use x="3258.570312" xlink:href="#DejaVuSans-102"/>
     <use x="3293.775391" xlink:href="#DejaVuSans-105"/>
     <use x="3321.558594" xlink:href="#DejaVuSans-114"/>
     <use x="3360.921875" xlink:href="#DejaVuSans-109"/>
     <use x="3458.333984" xlink:href="#DejaVuSans-101"/>
     <use x="3519.857422" xlink:href="#DejaVuSans-100"/>
     <use x="3583.333984" xlink:href="#DejaVuSans-32"/>
     <use x="3615.121094" xlink:href="#DejaVuSans-67"/>
     <use x="3684.945312" xlink:href="#DejaVuSans-97"/>
     <use x="3746.224609" xlink:href="#DejaVuSans-115"/>
     <use x="3798.324219" xlink:href="#DejaVuSans-101"/>
     <use x="3859.847656" xlink:href="#DejaVuSans-115"/>
    </g>
   </g>
   <g id="legend_1">
    <g id="patch_7">
     <path d="M 79 265.33375 
L 171.584375 265.33375 
Q 173.584375 265.33375 173.584375 263.33375 
L 173.584375 58.84 
Q 173.584375 56.84 171.584375 56.84 
L 79 56.84 
Q 77 56.84 77 58.84 
L 77 263.33375 
Q 77 265.33375 79 265.33375 
z
" style="fill:#ffffff;opacity:0.8;stroke:#cccccc;stroke-linejoin:miter;"/>
    </g>
    <g id="line2d_31">
     <path d="M 81 64.938437 
L 101 64.938437 
" style="fill:none;stroke:#1f77b4;stroke-linecap:square;stroke-width:1.5;"/>
    </g>
    <g id="line2d_32"/>
    <g id="text_20">
     <!-- Argentina -->
     <g transform="translate(109 68.438437)scale(0.1 -0.1)">
      <use xlink:href="#DejaVuSans-65"/>
      <use x="68.408203" xlink:href="#DejaVuSans-114"/>
      <use x="107.771484" xlink:href="#DejaVuSans-103"/>
      <use x="171.248047" xlink:href="#DejaVuSans-101"/>
      <use x="232.771484" xlink:href="#DejaVuSans-110"/>
      <use x="296.150391" xlink:href="#DejaVuSans-116"/>
      <use x="335.359375" xlink:href="#DejaVuSans-105"/>
      <use x="363.142578" xlink:href="#DejaVuSans-110"/>
      <use x="426.521484" xlink:href="#DejaVuSans-97"/>
     </g>
    </g>
    <g id="line2d_33">
     <path d="M 81 79.616562 
L 101 79.616562 
" style="fill:none;stroke:#ff7f0e;stroke-linecap:square;stroke-width:1.5;"/>
    </g>
    <g id="line2d_34"/>
    <g id="text_21">
     <!-- Bolivia -->
     <defs>
      <path d="M 19.671875 34.8125 
L 19.671875 8.109375 
L 35.5 8.109375 
Q 43.453125 8.109375 47.28125 11.40625 
Q 51.125 14.703125 51.125 21.484375 
Q 51.125 28.328125 47.28125 31.5625 
Q 43.453125 34.8125 35.5 34.8125 
z
M 19.671875 64.796875 
L 19.671875 42.828125 
L 34.28125 42.828125 
Q 41.5 42.828125 45.03125 45.53125 
Q 48.578125 48.25 48.578125 53.8125 
Q 48.578125 59.328125 45.03125 62.0625 
Q 41.5 64.796875 34.28125 64.796875 
z
M 9.8125 72.90625 
L 35.015625 72.90625 
Q 46.296875 72.90625 52.390625 68.21875 
Q 58.5 63.53125 58.5 54.890625 
Q 58.5 48.1875 55.375 44.234375 
Q 52.25 40.28125 46.1875 39.3125 
Q 53.46875 37.75 57.5 32.78125 
Q 61.53125 27.828125 61.53125 20.40625 
Q 61.53125 10.640625 54.890625 5.3125 
Q 48.25 0 35.984375 0 
L 9.8125 0 
z
" id="DejaVuSans-66"/>
     </defs>
     <g transform="translate(109 83.116562)scale(0.1 -0.1)">
      <use xlink:href="#DejaVuSans-66"/>
      <use x="68.603516" xlink:href="#DejaVuSans-111"/>
      <use x="129.785156" xlink:href="#DejaVuSans-108"/>
      <use x="157.568359" xlink:href="#DejaVuSans-105"/>
      <use x="185.351562" xlink:href="#DejaVuSans-118"/>
      <use x="244.53125" xlink:href="#DejaVuSans-105"/>
      <use x="272.314453" xlink:href="#DejaVuSans-97"/>
     </g>
    </g>
    <g id="line2d_35">
     <path d="M 81 94.294688 
L 101 94.294688 
" style="fill:none;stroke:#2ca02c;stroke-linecap:square;stroke-width:1.5;"/>
    </g>
    <g id="line2d_36"/>
    <g id="text_22">
     <!-- Brazil -->
     <defs>
      <path d="M 5.515625 54.6875 
L 48.1875 54.6875 
L 48.1875 46.484375 
L 14.40625 7.171875 
L 48.1875 7.171875 
L 48.1875 0 
L 4.296875 0 
L 4.296875 8.203125 
L 38.09375 47.515625 
L 5.515625 47.515625 
z
" id="DejaVuSans-122"/>
     </defs>
     <g transform="translate(109 97.794688)scale(0.1 -0.1)">
      <use xlink:href="#DejaVuSans-66"/>
      <use x="68.603516" xlink:href="#DejaVuSans-114"/>
      <use x="109.716797" xlink:href="#DejaVuSans-97"/>
      <use x="170.996094" xlink:href="#DejaVuSans-122"/>
      <use x="223.486328" xlink:href="#DejaVuSans-105"/>
      <use x="251.269531" xlink:href="#DejaVuSans-108"/>
     </g>
    </g>
    <g id="line2d_37">
     <path d="M 81 108.972812 
L 101 108.972812 
" style="fill:none;stroke:#d62728;stroke-linecap:square;stroke-width:1.5;"/>
    </g>
    <g id="line2d_38"/>
    <g id="text_23">
     <!-- Chile -->
     <g transform="translate(109 112.472812)scale(0.1 -0.1)">
      <use xlink:href="#DejaVuSans-67"/>
      <use x="69.824219" xlink:href="#DejaVuSans-104"/>
      <use x="133.203125" xlink:href="#DejaVuSans-105"/>
      <use x="160.986328" xlink:href="#DejaVuSans-108"/>
      <use x="188.769531" xlink:href="#DejaVuSans-101"/>
     </g>
    </g>
    <g id="line2d_39">
     <path d="M 81 123.650937 
L 101 123.650937 
" style="fill:none;stroke:#9467bd;stroke-linecap:square;stroke-width:1.5;"/>
    </g>
    <g id="line2d_40"/>
    <g id="text_24">
     <!-- Ecuador -->
     <defs>
      <path d="M 9.8125 72.90625 
L 55.90625 72.90625 
L 55.90625 64.59375 
L 19.671875 64.59375 
L 19.671875 43.015625 
L 54.390625 43.015625 
L 54.390625 34.71875 
L 19.671875 34.71875 
L 19.671875 8.296875 
L 56.78125 8.296875 
L 56.78125 0 
L 9.8125 0 
z
" id="DejaVuSans-69"/>
     </defs>
     <g transform="translate(109 127.150937)scale(0.1 -0.1)">
      <use xlink:href="#DejaVuSans-69"/>
      <use x="63.183594" xlink:href="#DejaVuSans-99"/>
      <use x="118.164062" xlink:href="#DejaVuSans-117"/>
      <use x="181.542969" xlink:href="#DejaVuSans-97"/>
      <use x="242.822266" xlink:href="#DejaVuSans-100"/>
      <use x="306.298828" xlink:href="#DejaVuSans-111"/>
      <use x="367.480469" xlink:href="#DejaVuSans-114"/>
     </g>
    </g>
    <g id="line2d_41">
     <path d="M 81 138.329062 
L 101 138.329062 
" style="fill:none;stroke:#8c564b;stroke-linecap:square;stroke-width:1.5;"/>
    </g>
    <g id="line2d_42"/>
    <g id="text_25">
     <!-- Germany -->
     <defs>
      <path d="M 59.515625 10.40625 
L 59.515625 29.984375 
L 43.40625 29.984375 
L 43.40625 38.09375 
L 69.28125 38.09375 
L 69.28125 6.78125 
Q 63.578125 2.734375 56.6875 0.65625 
Q 49.8125 -1.421875 42 -1.421875 
Q 24.90625 -1.421875 15.25 8.5625 
Q 5.609375 18.5625 5.609375 36.375 
Q 5.609375 54.25 15.25 64.234375 
Q 24.90625 74.21875 42 74.21875 
Q 49.125 74.21875 55.546875 72.453125 
Q 61.96875 70.703125 67.390625 67.28125 
L 67.390625 56.78125 
Q 61.921875 61.421875 55.765625 63.765625 
Q 49.609375 66.109375 42.828125 66.109375 
Q 29.4375 66.109375 22.71875 58.640625 
Q 16.015625 51.171875 16.015625 36.375 
Q 16.015625 21.625 22.71875 14.15625 
Q 29.4375 6.6875 42.828125 6.6875 
Q 48.046875 6.6875 52.140625 7.59375 
Q 56.25 8.5 59.515625 10.40625 
z
" id="DejaVuSans-71"/>
     </defs>
     <g transform="translate(109 141.829062)scale(0.1 -0.1)">
      <use xlink:href="#DejaVuSans-71"/>
      <use x="77.490234" xlink:href="#DejaVuSans-101"/>
      <use x="139.013672" xlink:href="#DejaVuSans-114"/>
      <use x="178.376953" xlink:href="#DejaVuSans-109"/>
      <use x="275.789062" xlink:href="#DejaVuSans-97"/>
      <use x="337.068359" xlink:href="#DejaVuSans-110"/>
      <use x="400.447266" xlink:href="#DejaVuSans-121"/>
     </g>
    </g>
    <g id="line2d_43">
     <path d="M 81 153.007187 
L 101 153.007187 
" style="fill:none;stroke:#e377c2;stroke-linecap:square;stroke-width:1.5;"/>
    </g>
    <g id="line2d_44"/>
    <g id="text_26">
     <!-- Guatemala -->
     <g transform="translate(109 156.507187)scale(0.1 -0.1)">
      <use xlink:href="#DejaVuSans-71"/>
      <use x="77.490234" xlink:href="#DejaVuSans-117"/>
      <use x="140.869141" xlink:href="#DejaVuSans-97"/>
      <use x="202.148438" xlink:href="#DejaVuSans-116"/>
      <use x="241.357422" xlink:href="#DejaVuSans-101"/>
      <use x="302.880859" xlink:href="#DejaVuSans-109"/>
      <use x="400.292969" xlink:href="#DejaVuSans-97"/>
      <use x="461.572266" xlink:href="#DejaVuSans-108"/>
      <use x="489.355469" xlink:href="#DejaVuSans-97"/>
     </g>
    </g>
    <g id="line2d_45">
     <path d="M 81 167.685312 
L 101 167.685312 
" style="fill:none;stroke:#7f7f7f;stroke-linecap:square;stroke-width:1.5;"/>
    </g>
    <g id="line2d_46"/>
    <g id="text_27">
     <!-- Italy -->
     <defs>
      <path d="M 9.8125 72.90625 
L 19.671875 72.90625 
L 19.671875 0 
L 9.8125 0 
z
" id="DejaVuSans-73"/>
     </defs>
     <g transform="translate(109 171.185312)scale(0.1 -0.1)">
      <use xlink:href="#DejaVuSans-73"/>
      <use x="29.492188" xlink:href="#DejaVuSans-116"/>
      <use x="68.701172" xlink:href="#DejaVuSans-97"/>
      <use x="129.980469" xlink:href="#DejaVuSans-108"/>
      <use x="157.763672" xlink:href="#DejaVuSans-121"/>
     </g>
    </g>
    <g id="line2d_47">
     <path d="M 81 182.363437 
L 101 182.363437 
" style="fill:none;stroke:#bcbd22;stroke-linecap:square;stroke-width:1.5;"/>
    </g>
    <g id="line2d_48"/>
    <g id="text_28">
     <!-- Korea,South -->
     <defs>
      <path d="M 9.8125 72.90625 
L 19.671875 72.90625 
L 19.671875 42.09375 
L 52.390625 72.90625 
L 65.09375 72.90625 
L 28.90625 38.921875 
L 67.671875 0 
L 54.6875 0 
L 19.671875 35.109375 
L 19.671875 0 
L 9.8125 0 
z
" id="DejaVuSans-75"/>
      <path d="M 11.71875 12.40625 
L 22.015625 12.40625 
L 22.015625 4 
L 14.015625 -11.625 
L 7.71875 -11.625 
L 11.71875 4 
z
" id="DejaVuSans-44"/>
     </defs>
     <g transform="translate(109 185.863437)scale(0.1 -0.1)">
      <use xlink:href="#DejaVuSans-75"/>
      <use x="60.576172" xlink:href="#DejaVuSans-111"/>
      <use x="121.757812" xlink:href="#DejaVuSans-114"/>
      <use x="160.621094" xlink:href="#DejaVuSans-101"/>
      <use x="222.144531" xlink:href="#DejaVuSans-97"/>
      <use x="283.423828" xlink:href="#DejaVuSans-44"/>
      <use x="315.210938" xlink:href="#DejaVuSans-83"/>
      <use x="378.6875" xlink:href="#DejaVuSans-111"/>
      <use x="439.869141" xlink:href="#DejaVuSans-117"/>
      <use x="503.248047" xlink:href="#DejaVuSans-116"/>
      <use x="542.457031" xlink:href="#DejaVuSans-104"/>
     </g>
    </g>
    <g id="line2d_49">
     <path d="M 81 197.041562 
L 101 197.041562 
" style="fill:none;stroke:#17becf;stroke-linecap:square;stroke-width:1.5;"/>
    </g>
    <g id="line2d_50"/>
    <g id="text_29">
     <!-- Mexico -->
     <defs>
      <path d="M 54.890625 54.6875 
L 35.109375 28.078125 
L 55.90625 0 
L 45.3125 0 
L 29.390625 21.484375 
L 13.484375 0 
L 2.875 0 
L 24.125 28.609375 
L 4.6875 54.6875 
L 15.28125 54.6875 
L 29.78125 35.203125 
L 44.28125 54.6875 
z
" id="DejaVuSans-120"/>
     </defs>
     <g transform="translate(109 200.541562)scale(0.1 -0.1)">
      <use xlink:href="#DejaVuSans-77"/>
      <use x="86.279297" xlink:href="#DejaVuSans-101"/>
      <use x="146.052734" xlink:href="#DejaVuSans-120"/>
      <use x="205.232422" xlink:href="#DejaVuSans-105"/>
      <use x="233.015625" xlink:href="#DejaVuSans-99"/>
      <use x="287.996094" xlink:href="#DejaVuSans-111"/>
     </g>
    </g>
    <g id="line2d_51">
     <path d="M 81 211.719687 
L 101 211.719687 
" style="fill:none;stroke:#1f77b4;stroke-linecap:square;stroke-width:1.5;"/>
    </g>
    <g id="line2d_52"/>
    <g id="text_30">
     <!-- Panama -->
     <g transform="translate(109 215.219687)scale(0.1 -0.1)">
      <use xlink:href="#DejaVuSans-80"/>
      <use x="55.802734" xlink:href="#DejaVuSans-97"/>
      <use x="117.082031" xlink:href="#DejaVuSans-110"/>
      <use x="180.460938" xlink:href="#DejaVuSans-97"/>
      <use x="241.740234" xlink:href="#DejaVuSans-109"/>
      <use x="339.152344" xlink:href="#DejaVuSans-97"/>
     </g>
    </g>
    <g id="line2d_53">
     <path d="M 81 226.397812 
L 101 226.397812 
" style="fill:none;stroke:#ff7f0e;stroke-linecap:square;stroke-width:1.5;"/>
    </g>
    <g id="line2d_54"/>
    <g id="text_31">
     <!-- Peru -->
     <g transform="translate(109 229.897812)scale(0.1 -0.1)">
      <use xlink:href="#DejaVuSans-80"/>
      <use x="56.677734" xlink:href="#DejaVuSans-101"/>
      <use x="118.201172" xlink:href="#DejaVuSans-114"/>
      <use x="159.314453" xlink:href="#DejaVuSans-117"/>
     </g>
    </g>
    <g id="line2d_55">
     <path d="M 81 241.075937 
L 101 241.075937 
" style="fill:none;stroke:#2ca02c;stroke-linecap:square;stroke-width:1.5;"/>
    </g>
    <g id="line2d_56"/>
    <g id="text_32">
     <!-- US -->
     <defs>
      <path d="M 8.6875 72.90625 
L 18.609375 72.90625 
L 18.609375 28.609375 
Q 18.609375 16.890625 22.84375 11.734375 
Q 27.09375 6.59375 36.625 6.59375 
Q 46.09375 6.59375 50.34375 11.734375 
Q 54.59375 16.890625 54.59375 28.609375 
L 54.59375 72.90625 
L 64.5 72.90625 
L 64.5 27.390625 
Q 64.5 13.140625 57.4375 5.859375 
Q 50.390625 -1.421875 36.625 -1.421875 
Q 22.796875 -1.421875 15.734375 5.859375 
Q 8.6875 13.140625 8.6875 27.390625 
z
" id="DejaVuSans-85"/>
     </defs>
     <g transform="translate(109 244.575937)scale(0.1 -0.1)">
      <use xlink:href="#DejaVuSans-85"/>
      <use x="73.193359" xlink:href="#DejaVuSans-83"/>
     </g>
    </g>
    <g id="line2d_57">
     <path d="M 81 255.754062 
L 101 255.754062 
" style="fill:none;stroke:#d62728;stroke-linecap:square;stroke-width:1.5;"/>
    </g>
    <g id="line2d_58"/>
    <g id="text_33">
     <!-- Venezuela -->
     <defs>
      <path d="M 28.609375 0 
L 0.78125 72.90625 
L 11.078125 72.90625 
L 34.1875 11.53125 
L 57.328125 72.90625 
L 67.578125 72.90625 
L 39.796875 0 
z
" id="DejaVuSans-86"/>
     </defs>
     <g transform="translate(109 259.254062)scale(0.1 -0.1)">
      <use xlink:href="#DejaVuSans-86"/>
      <use x="60.658203" xlink:href="#DejaVuSans-101"/>
      <use x="122.181641" xlink:href="#DejaVuSans-110"/>
      <use x="185.560547" xlink:href="#DejaVuSans-101"/>
      <use x="247.083984" xlink:href="#DejaVuSans-122"/>
      <use x="299.574219" xlink:href="#DejaVuSans-117"/>
      <use x="362.953125" xlink:href="#DejaVuSans-101"/>
      <use x="424.476562" xlink:href="#DejaVuSans-108"/>
      <use x="452.259766" xlink:href="#DejaVuSans-97"/>
     </g>
    </g>
   </g>
  </g>
 </g>
 <defs>
  <clipPath id="p1bdfd5d10f">
   <rect height="332.64" width="446.4" x="72" y="51.84"/>
  </clipPath>
 </defs>
</svg>
