<?xml version="1.0" encoding="utf-8" standalone="no"?>
<!DOCTYPE svg PUBLIC "-//W3C//DTD SVG 1.1//EN"
  "http://www.w3.org/Graphics/SVG/1.1/DTD/svg11.dtd">
<!-- Created with matplotlib (https://matplotlib.org/) -->
<svg height="432pt" version="1.1" viewBox="0 0 576 432" width="576pt" xmlns="http://www.w3.org/2000/svg" xmlns:xlink="http://www.w3.org/1999/xlink">
 <defs>
  <style type="text/css">
*{stroke-linecap:butt;stroke-linejoin:round;}
  </style>
 </defs>
 <g id="figure_1">
  <g id="patch_1">
   <path d="M 0 432 
L 576 432 
L 576 0 
L 0 0 
z
" style="fill:#ffffff;"/>
  </g>
  <g id="axes_1">
   <g id="patch_2">
    <path d="M 72 384.48 
L 518.4 384.48 
L 518.4 51.84 
L 72 51.84 
z
" style="fill:#ffffff;"/>
   </g>
   <g id="matplotlib.axis_1">
    <g id="xtick_1">
     <g id="line2d_1">
      <defs>
       <path d="M 0 0 
L 0 3.5 
" id="m31ffb3e238" style="stroke:#000000;stroke-width:0.8;"/>
      </defs>
      <g>
       <use style="stroke:#000000;stroke-width:0.8;" x="92.290909" xlink:href="#m31ffb3e238" y="384.48"/>
      </g>
     </g>
     <g id="text_1">
      <!-- 0 -->
      <defs>
       <path d="M 31.78125 66.40625 
Q 24.171875 66.40625 20.328125 58.90625 
Q 16.5 51.421875 16.5 36.375 
Q 16.5 21.390625 20.328125 13.890625 
Q 24.171875 6.390625 31.78125 6.390625 
Q 39.453125 6.390625 43.28125 13.890625 
Q 47.125 21.390625 47.125 36.375 
Q 47.125 51.421875 43.28125 58.90625 
Q 39.453125 66.40625 31.78125 66.40625 
z
M 31.78125 74.21875 
Q 44.046875 74.21875 50.515625 64.515625 
Q 56.984375 54.828125 56.984375 36.375 
Q 56.984375 17.96875 50.515625 8.265625 
Q 44.046875 -1.421875 31.78125 -1.421875 
Q 19.53125 -1.421875 13.0625 8.265625 
Q 6.59375 17.96875 6.59375 36.375 
Q 6.59375 54.828125 13.0625 64.515625 
Q 19.53125 74.21875 31.78125 74.21875 
z
" id="DejaVuSans-48"/>
      </defs>
      <g transform="translate(89.109659 399.078438)scale(0.1 -0.1)">
       <use xlink:href="#DejaVuSans-48"/>
      </g>
     </g>
    </g>
    <g id="xtick_2">
     <g id="line2d_2">
      <g>
       <use style="stroke:#000000;stroke-width:0.8;" x="182.472727" xlink:href="#m31ffb3e238" y="384.48"/>
      </g>
     </g>
     <g id="text_2">
      <!-- 100 -->
      <defs>
       <path d="M 12.40625 8.296875 
L 28.515625 8.296875 
L 28.515625 63.921875 
L 10.984375 60.40625 
L 10.984375 69.390625 
L 28.421875 72.90625 
L 38.28125 72.90625 
L 38.28125 8.296875 
L 54.390625 8.296875 
L 54.390625 0 
L 12.40625 0 
z
" id="DejaVuSans-49"/>
      </defs>
      <g transform="translate(172.928977 399.078438)scale(0.1 -0.1)">
       <use xlink:href="#DejaVuSans-49"/>
       <use x="63.623047" xlink:href="#DejaVuSans-48"/>
       <use x="127.246094" xlink:href="#DejaVuSans-48"/>
      </g>
     </g>
    </g>
    <g id="xtick_3">
     <g id="line2d_3">
      <g>
       <use style="stroke:#000000;stroke-width:0.8;" x="272.654545" xlink:href="#m31ffb3e238" y="384.48"/>
      </g>
     </g>
     <g id="text_3">
      <!-- 200 -->
      <defs>
       <path d="M 19.1875 8.296875 
L 53.609375 8.296875 
L 53.609375 0 
L 7.328125 0 
L 7.328125 8.296875 
Q 12.9375 14.109375 22.625 23.890625 
Q 32.328125 33.6875 34.8125 36.53125 
Q 39.546875 41.84375 41.421875 45.53125 
Q 43.3125 49.21875 43.3125 52.78125 
Q 43.3125 58.59375 39.234375 62.25 
Q 35.15625 65.921875 28.609375 65.921875 
Q 23.96875 65.921875 18.8125 64.3125 
Q 13.671875 62.703125 7.8125 59.421875 
L 7.8125 69.390625 
Q 13.765625 71.78125 18.9375 73 
Q 24.125 74.21875 28.421875 74.21875 
Q 39.75 74.21875 46.484375 68.546875 
Q 53.21875 62.890625 53.21875 53.421875 
Q 53.21875 48.921875 51.53125 44.890625 
Q 49.859375 40.875 45.40625 35.40625 
Q 44.1875 33.984375 37.640625 27.21875 
Q 31.109375 20.453125 19.1875 8.296875 
z
" id="DejaVuSans-50"/>
      </defs>
      <g transform="translate(263.110795 399.078438)scale(0.1 -0.1)">
       <use xlink:href="#DejaVuSans-50"/>
       <use x="63.623047" xlink:href="#DejaVuSans-48"/>
       <use x="127.246094" xlink:href="#DejaVuSans-48"/>
      </g>
     </g>
    </g>
    <g id="xtick_4">
     <g id="line2d_4">
      <g>
       <use style="stroke:#000000;stroke-width:0.8;" x="362.836364" xlink:href="#m31ffb3e238" y="384.48"/>
      </g>
     </g>
     <g id="text_4">
      <!-- 300 -->
      <defs>
       <path d="M 40.578125 39.3125 
Q 47.65625 37.796875 51.625 33 
Q 55.609375 28.21875 55.609375 21.1875 
Q 55.609375 10.40625 48.1875 4.484375 
Q 40.765625 -1.421875 27.09375 -1.421875 
Q 22.515625 -1.421875 17.65625 -0.515625 
Q 12.796875 0.390625 7.625 2.203125 
L 7.625 11.71875 
Q 11.71875 9.328125 16.59375 8.109375 
Q 21.484375 6.890625 26.8125 6.890625 
Q 36.078125 6.890625 40.9375 10.546875 
Q 45.796875 14.203125 45.796875 21.1875 
Q 45.796875 27.640625 41.28125 31.265625 
Q 36.765625 34.90625 28.71875 34.90625 
L 20.21875 34.90625 
L 20.21875 43.015625 
L 29.109375 43.015625 
Q 36.375 43.015625 40.234375 45.921875 
Q 44.09375 48.828125 44.09375 54.296875 
Q 44.09375 59.90625 40.109375 62.90625 
Q 36.140625 65.921875 28.71875 65.921875 
Q 24.65625 65.921875 20.015625 65.03125 
Q 15.375 64.15625 9.8125 62.3125 
L 9.8125 71.09375 
Q 15.4375 72.65625 20.34375 73.4375 
Q 25.25 74.21875 29.59375 74.21875 
Q 40.828125 74.21875 47.359375 69.109375 
Q 53.90625 64.015625 53.90625 55.328125 
Q 53.90625 49.265625 50.4375 45.09375 
Q 46.96875 40.921875 40.578125 39.3125 
z
" id="DejaVuSans-51"/>
      </defs>
      <g transform="translate(353.292614 399.078438)scale(0.1 -0.1)">
       <use xlink:href="#DejaVuSans-51"/>
       <use x="63.623047" xlink:href="#DejaVuSans-48"/>
       <use x="127.246094" xlink:href="#DejaVuSans-48"/>
      </g>
     </g>
    </g>
    <g id="xtick_5">
     <g id="line2d_5">
      <g>
       <use style="stroke:#000000;stroke-width:0.8;" x="453.018182" xlink:href="#m31ffb3e238" y="384.48"/>
      </g>
     </g>
     <g id="text_5">
      <!-- 400 -->
      <defs>
       <path d="M 37.796875 64.3125 
L 12.890625 25.390625 
L 37.796875 25.390625 
z
M 35.203125 72.90625 
L 47.609375 72.90625 
L 47.609375 25.390625 
L 58.015625 25.390625 
L 58.015625 17.1875 
L 47.609375 17.1875 
L 47.609375 0 
L 37.796875 0 
L 37.796875 17.1875 
L 4.890625 17.1875 
L 4.890625 26.703125 
z
" id="DejaVuSans-52"/>
      </defs>
      <g transform="translate(443.474432 399.078438)scale(0.1 -0.1)">
       <use xlink:href="#DejaVuSans-52"/>
       <use x="63.623047" xlink:href="#DejaVuSans-48"/>
       <use x="127.246094" xlink:href="#DejaVuSans-48"/>
      </g>
     </g>
    </g>
    <g id="text_6">
     <!-- Days -->
     <defs>
      <path d="M 19.671875 64.796875 
L 19.671875 8.109375 
L 31.59375 8.109375 
Q 46.6875 8.109375 53.6875 14.9375 
Q 60.6875 21.78125 60.6875 36.53125 
Q 60.6875 51.171875 53.6875 57.984375 
Q 46.6875 64.796875 31.59375 64.796875 
z
M 9.8125 72.90625 
L 30.078125 72.90625 
Q 51.265625 72.90625 61.171875 64.09375 
Q 71.09375 55.28125 71.09375 36.53125 
Q 71.09375 17.671875 61.125 8.828125 
Q 51.171875 0 30.078125 0 
L 9.8125 0 
z
" id="DejaVuSans-68"/>
      <path d="M 34.28125 27.484375 
Q 23.390625 27.484375 19.1875 25 
Q 14.984375 22.515625 14.984375 16.5 
Q 14.984375 11.71875 18.140625 8.90625 
Q 21.296875 6.109375 26.703125 6.109375 
Q 34.1875 6.109375 38.703125 11.40625 
Q 43.21875 16.703125 43.21875 25.484375 
L 43.21875 27.484375 
z
M 52.203125 31.203125 
L 52.203125 0 
L 43.21875 0 
L 43.21875 8.296875 
Q 40.140625 3.328125 35.546875 0.953125 
Q 30.953125 -1.421875 24.3125 -1.421875 
Q 15.921875 -1.421875 10.953125 3.296875 
Q 6 8.015625 6 15.921875 
Q 6 25.140625 12.171875 29.828125 
Q 18.359375 34.515625 30.609375 34.515625 
L 43.21875 34.515625 
L 43.21875 35.40625 
Q 43.21875 41.609375 39.140625 45 
Q 35.0625 48.390625 27.6875 48.390625 
Q 23 48.390625 18.546875 47.265625 
Q 14.109375 46.140625 10.015625 43.890625 
L 10.015625 52.203125 
Q 14.9375 54.109375 19.578125 55.046875 
Q 24.21875 56 28.609375 56 
Q 40.484375 56 46.34375 49.84375 
Q 52.203125 43.703125 52.203125 31.203125 
z
" id="DejaVuSans-97"/>
      <path d="M 32.171875 -5.078125 
Q 28.375 -14.84375 24.75 -17.8125 
Q 21.140625 -20.796875 15.09375 -20.796875 
L 7.90625 -20.796875 
L 7.90625 -13.28125 
L 13.1875 -13.28125 
Q 16.890625 -13.28125 18.9375 -11.515625 
Q 21 -9.765625 23.484375 -3.21875 
L 25.09375 0.875 
L 2.984375 54.6875 
L 12.5 54.6875 
L 29.59375 11.921875 
L 46.6875 54.6875 
L 56.203125 54.6875 
z
" id="DejaVuSans-121"/>
      <path d="M 44.28125 53.078125 
L 44.28125 44.578125 
Q 40.484375 46.53125 36.375 47.5 
Q 32.28125 48.484375 27.875 48.484375 
Q 21.1875 48.484375 17.84375 46.4375 
Q 14.5 44.390625 14.5 40.28125 
Q 14.5 37.15625 16.890625 35.375 
Q 19.28125 33.59375 26.515625 31.984375 
L 29.59375 31.296875 
Q 39.15625 29.25 43.1875 25.515625 
Q 47.21875 21.78125 47.21875 15.09375 
Q 47.21875 7.46875 41.1875 3.015625 
Q 35.15625 -1.421875 24.609375 -1.421875 
Q 20.21875 -1.421875 15.453125 -0.5625 
Q 10.6875 0.296875 5.421875 2 
L 5.421875 11.28125 
Q 10.40625 8.6875 15.234375 7.390625 
Q 20.0625 6.109375 24.8125 6.109375 
Q 31.15625 6.109375 34.5625 8.28125 
Q 37.984375 10.453125 37.984375 14.40625 
Q 37.984375 18.0625 35.515625 20.015625 
Q 33.0625 21.96875 24.703125 23.78125 
L 21.578125 24.515625 
Q 13.234375 26.265625 9.515625 29.90625 
Q 5.8125 33.546875 5.8125 39.890625 
Q 5.8125 47.609375 11.28125 51.796875 
Q 16.75 56 26.8125 56 
Q 31.78125 56 36.171875 55.265625 
Q 40.578125 54.546875 44.28125 53.078125 
z
" id="DejaVuSans-115"/>
     </defs>
     <g transform="translate(282.721875 412.756563)scale(0.1 -0.1)">
      <use xlink:href="#DejaVuSans-68"/>
      <use x="77.001953" xlink:href="#DejaVuSans-97"/>
      <use x="138.28125" xlink:href="#DejaVuSans-121"/>
      <use x="197.460938" xlink:href="#DejaVuSans-115"/>
     </g>
    </g>
   </g>
   <g id="matplotlib.axis_2">
    <g id="ytick_1">
     <g id="line2d_6">
      <defs>
       <path d="M 0 0 
L -3.5 0 
" id="m2866610926" style="stroke:#000000;stroke-width:0.8;"/>
      </defs>
      <g>
       <use style="stroke:#000000;stroke-width:0.8;" x="72" xlink:href="#m2866610926" y="369.36"/>
      </g>
     </g>
     <g id="text_7">
      <!-- 0 -->
      <g transform="translate(58.6375 373.159219)scale(0.1 -0.1)">
       <use xlink:href="#DejaVuSans-48"/>
      </g>
     </g>
    </g>
    <g id="ytick_2">
     <g id="line2d_7">
      <g>
       <use style="stroke:#000000;stroke-width:0.8;" x="72" xlink:href="#m2866610926" y="317.730178"/>
      </g>
     </g>
     <g id="text_8">
      <!-- 100,000 -->
      <defs>
       <path d="M 11.71875 12.40625 
L 22.015625 12.40625 
L 22.015625 4 
L 14.015625 -11.625 
L 7.71875 -11.625 
L 11.71875 4 
z
" id="DejaVuSans-44"/>
      </defs>
      <g transform="translate(23.646875 321.529396)scale(0.1 -0.1)">
       <use xlink:href="#DejaVuSans-49"/>
       <use x="63.623047" xlink:href="#DejaVuSans-48"/>
       <use x="127.246094" xlink:href="#DejaVuSans-48"/>
       <use x="190.869141" xlink:href="#DejaVuSans-44"/>
       <use x="222.65625" xlink:href="#DejaVuSans-48"/>
       <use x="286.279297" xlink:href="#DejaVuSans-48"/>
       <use x="349.902344" xlink:href="#DejaVuSans-48"/>
      </g>
     </g>
    </g>
    <g id="ytick_3">
     <g id="line2d_8">
      <g>
       <use style="stroke:#000000;stroke-width:0.8;" x="72" xlink:href="#m2866610926" y="266.100355"/>
      </g>
     </g>
     <g id="text_9">
      <!-- 200,000 -->
      <g transform="translate(23.646875 269.899574)scale(0.1 -0.1)">
       <use xlink:href="#DejaVuSans-50"/>
       <use x="63.623047" xlink:href="#DejaVuSans-48"/>
       <use x="127.246094" xlink:href="#DejaVuSans-48"/>
       <use x="190.869141" xlink:href="#DejaVuSans-44"/>
       <use x="222.65625" xlink:href="#DejaVuSans-48"/>
       <use x="286.279297" xlink:href="#DejaVuSans-48"/>
       <use x="349.902344" xlink:href="#DejaVuSans-48"/>
      </g>
     </g>
    </g>
    <g id="ytick_4">
     <g id="line2d_9">
      <g>
       <use style="stroke:#000000;stroke-width:0.8;" x="72" xlink:href="#m2866610926" y="214.470533"/>
      </g>
     </g>
     <g id="text_10">
      <!-- 300,000 -->
      <g transform="translate(23.646875 218.269752)scale(0.1 -0.1)">
       <use xlink:href="#DejaVuSans-51"/>
       <use x="63.623047" xlink:href="#DejaVuSans-48"/>
       <use x="127.246094" xlink:href="#DejaVuSans-48"/>
       <use x="190.869141" xlink:href="#DejaVuSans-44"/>
       <use x="222.65625" xlink:href="#DejaVuSans-48"/>
       <use x="286.279297" xlink:href="#DejaVuSans-48"/>
       <use x="349.902344" xlink:href="#DejaVuSans-48"/>
      </g>
     </g>
    </g>
    <g id="ytick_5">
     <g id="line2d_10">
      <g>
       <use style="stroke:#000000;stroke-width:0.8;" x="72" xlink:href="#m2866610926" y="162.840711"/>
      </g>
     </g>
     <g id="text_11">
      <!-- 400,000 -->
      <g transform="translate(23.646875 166.639929)scale(0.1 -0.1)">
       <use xlink:href="#DejaVuSans-52"/>
       <use x="63.623047" xlink:href="#DejaVuSans-48"/>
       <use x="127.246094" xlink:href="#DejaVuSans-48"/>
       <use x="190.869141" xlink:href="#DejaVuSans-44"/>
       <use x="222.65625" xlink:href="#DejaVuSans-48"/>
       <use x="286.279297" xlink:href="#DejaVuSans-48"/>
       <use x="349.902344" xlink:href="#DejaVuSans-48"/>
      </g>
     </g>
    </g>
    <g id="ytick_6">
     <g id="line2d_11">
      <g>
       <use style="stroke:#000000;stroke-width:0.8;" x="72" xlink:href="#m2866610926" y="111.210888"/>
      </g>
     </g>
     <g id="text_12">
      <!-- 500,000 -->
      <defs>
       <path d="M 10.796875 72.90625 
L 49.515625 72.90625 
L 49.515625 64.59375 
L 19.828125 64.59375 
L 19.828125 46.734375 
Q 21.96875 47.46875 24.109375 47.828125 
Q 26.265625 48.1875 28.421875 48.1875 
Q 40.625 48.1875 47.75 41.5 
Q 54.890625 34.8125 54.890625 23.390625 
Q 54.890625 11.625 47.5625 5.09375 
Q 40.234375 -1.421875 26.90625 -1.421875 
Q 22.3125 -1.421875 17.546875 -0.640625 
Q 12.796875 0.140625 7.71875 1.703125 
L 7.71875 11.625 
Q 12.109375 9.234375 16.796875 8.0625 
Q 21.484375 6.890625 26.703125 6.890625 
Q 35.15625 6.890625 40.078125 11.328125 
Q 45.015625 15.765625 45.015625 23.390625 
Q 45.015625 31 40.078125 35.4375 
Q 35.15625 39.890625 26.703125 39.890625 
Q 22.75 39.890625 18.8125 39.015625 
Q 14.890625 38.140625 10.796875 36.28125 
z
" id="DejaVuSans-53"/>
      </defs>
      <g transform="translate(23.646875 115.010107)scale(0.1 -0.1)">
       <use xlink:href="#DejaVuSans-53"/>
       <use x="63.623047" xlink:href="#DejaVuSans-48"/>
       <use x="127.246094" xlink:href="#DejaVuSans-48"/>
       <use x="190.869141" xlink:href="#DejaVuSans-44"/>
       <use x="222.65625" xlink:href="#DejaVuSans-48"/>
       <use x="286.279297" xlink:href="#DejaVuSans-48"/>
       <use x="349.902344" xlink:href="#DejaVuSans-48"/>
      </g>
     </g>
    </g>
    <g id="ytick_7">
     <g id="line2d_12">
      <g>
       <use style="stroke:#000000;stroke-width:0.8;" x="72" xlink:href="#m2866610926" y="59.581066"/>
      </g>
     </g>
     <g id="text_13">
      <!-- 600,000 -->
      <defs>
       <path d="M 33.015625 40.375 
Q 26.375 40.375 22.484375 35.828125 
Q 18.609375 31.296875 18.609375 23.390625 
Q 18.609375 15.53125 22.484375 10.953125 
Q 26.375 6.390625 33.015625 6.390625 
Q 39.65625 6.390625 43.53125 10.953125 
Q 47.40625 15.53125 47.40625 23.390625 
Q 47.40625 31.296875 43.53125 35.828125 
Q 39.65625 40.375 33.015625 40.375 
z
M 52.59375 71.296875 
L 52.59375 62.3125 
Q 48.875 64.0625 45.09375 64.984375 
Q 41.3125 65.921875 37.59375 65.921875 
Q 27.828125 65.921875 22.671875 59.328125 
Q 17.53125 52.734375 16.796875 39.40625 
Q 19.671875 43.65625 24.015625 45.921875 
Q 28.375 48.1875 33.59375 48.1875 
Q 44.578125 48.1875 50.953125 41.515625 
Q 57.328125 34.859375 57.328125 23.390625 
Q 57.328125 12.15625 50.6875 5.359375 
Q 44.046875 -1.421875 33.015625 -1.421875 
Q 20.359375 -1.421875 13.671875 8.265625 
Q 6.984375 17.96875 6.984375 36.375 
Q 6.984375 53.65625 15.1875 63.9375 
Q 23.390625 74.21875 37.203125 74.21875 
Q 40.921875 74.21875 44.703125 73.484375 
Q 48.484375 72.75 52.59375 71.296875 
z
" id="DejaVuSans-54"/>
      </defs>
      <g transform="translate(23.646875 63.380285)scale(0.1 -0.1)">
       <use xlink:href="#DejaVuSans-54"/>
       <use x="63.623047" xlink:href="#DejaVuSans-48"/>
       <use x="127.246094" xlink:href="#DejaVuSans-48"/>
       <use x="190.869141" xlink:href="#DejaVuSans-44"/>
       <use x="222.65625" xlink:href="#DejaVuSans-48"/>
       <use x="286.279297" xlink:href="#DejaVuSans-48"/>
       <use x="349.902344" xlink:href="#DejaVuSans-48"/>
      </g>
     </g>
    </g>
    <g id="text_14">
     <!-- Deaths -->
     <defs>
      <path d="M 56.203125 29.59375 
L 56.203125 25.203125 
L 14.890625 25.203125 
Q 15.484375 15.921875 20.484375 11.0625 
Q 25.484375 6.203125 34.421875 6.203125 
Q 39.59375 6.203125 44.453125 7.46875 
Q 49.3125 8.734375 54.109375 11.28125 
L 54.109375 2.78125 
Q 49.265625 0.734375 44.1875 -0.34375 
Q 39.109375 -1.421875 33.890625 -1.421875 
Q 20.796875 -1.421875 13.15625 6.1875 
Q 5.515625 13.8125 5.515625 26.8125 
Q 5.515625 40.234375 12.765625 48.109375 
Q 20.015625 56 32.328125 56 
Q 43.359375 56 49.78125 48.890625 
Q 56.203125 41.796875 56.203125 29.59375 
z
M 47.21875 32.234375 
Q 47.125 39.59375 43.09375 43.984375 
Q 39.0625 48.390625 32.421875 48.390625 
Q 24.90625 48.390625 20.390625 44.140625 
Q 15.875 39.890625 15.1875 32.171875 
z
" id="DejaVuSans-101"/>
      <path d="M 18.3125 70.21875 
L 18.3125 54.6875 
L 36.8125 54.6875 
L 36.8125 47.703125 
L 18.3125 47.703125 
L 18.3125 18.015625 
Q 18.3125 11.328125 20.140625 9.421875 
Q 21.96875 7.515625 27.59375 7.515625 
L 36.8125 7.515625 
L 36.8125 0 
L 27.59375 0 
Q 17.1875 0 13.234375 3.875 
Q 9.28125 7.765625 9.28125 18.015625 
L 9.28125 47.703125 
L 2.6875 47.703125 
L 2.6875 54.6875 
L 9.28125 54.6875 
L 9.28125 70.21875 
z
" id="DejaVuSans-116"/>
      <path d="M 54.890625 33.015625 
L 54.890625 0 
L 45.90625 0 
L 45.90625 32.71875 
Q 45.90625 40.484375 42.875 44.328125 
Q 39.84375 48.1875 33.796875 48.1875 
Q 26.515625 48.1875 22.3125 43.546875 
Q 18.109375 38.921875 18.109375 30.90625 
L 18.109375 0 
L 9.078125 0 
L 9.078125 75.984375 
L 18.109375 75.984375 
L 18.109375 46.1875 
Q 21.34375 51.125 25.703125 53.5625 
Q 30.078125 56 35.796875 56 
Q 45.21875 56 50.046875 50.171875 
Q 54.890625 44.34375 54.890625 33.015625 
z
" id="DejaVuSans-104"/>
     </defs>
     <g transform="translate(17.567187 235.884219)rotate(-90)scale(0.1 -0.1)">
      <use xlink:href="#DejaVuSans-68"/>
      <use x="77.001953" xlink:href="#DejaVuSans-101"/>
      <use x="138.525391" xlink:href="#DejaVuSans-97"/>
      <use x="199.804688" xlink:href="#DejaVuSans-116"/>
      <use x="239.013672" xlink:href="#DejaVuSans-104"/>
      <use x="302.392578" xlink:href="#DejaVuSans-115"/>
     </g>
    </g>
   </g>
   <g id="line2d_13">
    <path clip-path="url(#pb7613005bc)" d="M 92.290909 369.358451 
L 133.774545 369.223697 
L 169.847273 368.929924 
L 186.981818 368.618079 
L 202.312727 368.134824 
L 213.134545 367.503392 
L 214.938182 367.391355 
L 225.76 366.449627 
L 228.465455 366.237428 
L 231.170909 365.885313 
L 232.974545 365.753657 
L 234.778182 365.455237 
L 237.483636 365.089697 
L 240.189091 364.888857 
L 244.698182 364.331772 
L 246.501818 364.130415 
L 250.109091 363.604307 
L 252.814545 363.336349 
L 254.618182 363.104531 
L 256.421818 362.82573 
L 258.225455 362.620759 
L 263.636364 361.335177 
L 265.44 361.040887 
L 267.243636 360.615457 
L 268.145455 358.885342 
L 273.556364 357.884756 
L 276.261818 357.185172 
L 279.869091 356.493332 
L 282.574545 355.881002 
L 283.476364 355.798395 
L 287.985455 354.729141 
L 290.690909 354.231946 
L 293.396364 353.642849 
L 295.2 353.353722 
L 296.101818 353.282473 
L 298.807273 352.569982 
L 304.218182 351.711378 
L 306.923636 351.266329 
L 313.236364 350.365388 
L 316.843636 350.033925 
L 319.549091 349.629147 
L 322.254545 349.36377 
L 327.665455 348.82682 
L 331.272727 348.485547 
L 338.487273 347.84482 
L 341.192727 347.677023 
L 342.996364 347.513357 
L 345.701818 347.416809 
L 358.327273 346.427582 
L 361.032727 346.205057 
L 366.443636 345.69702 
L 370.050909 345.31341 
L 396.203636 342.965802 
L 398.909091 342.765478 
L 402.516364 342.540372 
L 405.221818 342.413363 
L 407.927273 342.107715 
L 416.945455 341.564569 
L 420.552727 341.234138 
L 424.16 341.054982 
L 437.687273 340.017739 
L 441.294545 339.528805 
L 443.098182 339.324867 
L 445.803636 338.855036 
L 448.509091 338.652647 
L 451.214545 338.062002 
L 452.116364 337.77494 
L 454.821818 337.304592 
L 457.527273 336.570932 
L 459.330909 336.267349 
L 460.232727 336.186807 
L 464.741818 334.834105 
L 466.545455 334.600222 
L 471.956364 333.088501 
L 471.956364 333.088501 
" style="fill:none;stroke:#1f77b4;stroke-linecap:square;stroke-width:1.5;"/>
   </g>
   <g id="line2d_14">
    <path clip-path="url(#pb7613005bc)" d="M 92.290909 369.356902 
L 142.792727 369.218534 
L 159.025455 369.057966 
L 177.061818 368.678486 
L 221.250909 367.105842 
L 235.68 366.573022 
L 236.581818 365.718032 
L 267.243636 365.070594 
L 309.629091 364.742745 
L 350.210909 364.499052 
L 369.149091 363.970363 
L 380.872727 363.576427 
L 409.730909 363.149965 
L 434.981818 362.853093 
L 462.036364 362.415273 
L 462.036364 362.415273 
" style="fill:none;stroke:#ff7f0e;stroke-linecap:square;stroke-width:1.5;"/>
   </g>
   <g id="line2d_15">
    <path clip-path="url(#pb7613005bc)" d="M 92.290909 369.36 
L 108.523636 369.256224 
L 114.836364 369.005819 
L 127.461818 367.944827 
L 128.363636 367.859637 
L 131.069091 367.265378 
L 132.872727 366.983479 
L 136.48 366.049496 
L 140.087273 365.261625 
L 148.203636 362.132341 
L 149.105455 361.635146 
L 150.007273 361.273737 
L 150.909091 361.038305 
L 151.810909 360.658826 
L 154.516364 359.00977 
L 156.32 357.994727 
L 158.123636 357.240932 
L 162.632727 354.473057 
L 164.436364 353.90358 
L 166.24 352.555525 
L 167.141818 351.795018 
L 168.945455 350.809405 
L 170.749091 350.187782 
L 173.454545 348.233593 
L 175.258182 347.30374 
L 177.061818 346.664046 
L 180.669091 344.085137 
L 181.570909 343.55748 
L 183.374545 342.888874 
L 185.178182 341.567667 
L 187.883636 339.89486 
L 189.687273 339.252585 
L 191.490909 338.055806 
L 194.196364 336.180095 
L 196 335.549178 
L 199.607273 333.013638 
L 200.509091 332.460682 
L 202.312727 331.756451 
L 205.92 329.165667 
L 207.723636 328.320487 
L 208.625455 327.994186 
L 211.330909 325.948613 
L 213.134545 324.726535 
L 214.938182 324.122982 
L 215.84 323.647472 
L 216.741818 322.823976 
L 219.447273 321.053589 
L 221.250909 320.484629 
L 222.152727 319.888821 
L 223.956364 318.508239 
L 225.76 317.483903 
L 227.563636 316.825623 
L 230.269091 314.90964 
L 231.170909 314.362364 
L 233.876364 313.323056 
L 235.68 311.999267 
L 237.483636 310.833466 
L 238.385455 310.372928 
L 240.189091 309.826168 
L 241.992727 308.60977 
L 243.796364 307.660297 
L 245.6 306.976718 
L 246.501818 306.691205 
L 248.305455 305.452606 
L 251.010909 304.201615 
L 253.716364 303.550563 
L 255.52 302.488021 
L 257.323636 301.61651 
L 259.127273 301.205537 
L 260.930909 300.12131 
L 263.636364 298.868771 
L 265.44 298.48671 
L 266.341818 298.056634 
L 267.243636 298.056634 
L 268.145455 297.177378 
L 269.949091 296.352333 
L 271.752727 296.015707 
L 274.458182 294.661973 
L 275.36 294.661973 
L 276.261818 293.987171 
L 278.065455 293.631958 
L 280.770909 292.453765 
L 282.574545 291.813039 
L 285.28 291.400001 
L 287.985455 290.255884 
L 288.887273 290.01787 
L 289.789091 290.01787 
L 291.592727 289.417932 
L 295.2 288.35126 
L 297.003636 288.096208 
L 300.610909 287.022308 
L 302.414545 286.714078 
L 304.218182 286.4962 
L 305.12 286.181258 
L 306.021818 286.181258 
L 306.923636 285.711943 
L 309.629091 285.395452 
L 310.530909 285.305617 
L 311.432727 285.013392 
L 312.334545 284.542012 
L 313.236364 284.30658 
L 314.138182 283.831069 
L 315.941818 283.647267 
L 319.549091 282.305408 
L 321.352727 282.011118 
L 322.254545 281.855196 
L 326.763636 280.267062 
L 328.567273 279.978452 
L 333.076364 278.167277 
L 334.88 277.811548 
L 337.585455 276.54765 
L 339.389091 275.846517 
L 341.192727 275.478912 
L 344.8 273.509235 
L 345.701818 273.144728 
L 347.505455 272.661989 
L 350.210909 271.272631 
L 352.014545 270.85288 
L 353.818182 270.452749 
L 356.523636 268.708178 
L 358.327273 268.30753 
L 359.229091 268.156255 
L 360.130909 267.875905 
L 361.934545 266.630077 
L 362.836364 265.843239 
L 364.64 264.741975 
L 366.443636 264.252008 
L 370.952727 261.300847 
L 372.756364 260.783 
L 374.56 259.475733 
L 376.363636 258.230421 
L 377.265455 257.609831 
L 379.069091 256.980463 
L 383.578182 253.737594 
L 385.381818 253.141786 
L 388.989091 250.593854 
L 389.890909 250.593854 
L 390.792727 249.819407 
L 391.694545 249.819407 
L 392.596364 248.794039 
L 395.301818 246.744851 
L 396.203636 246.206352 
L 398.007273 245.565626 
L 400.712727 243.663583 
L 402.516364 242.362512 
L 404.32 241.760508 
L 408.829091 238.106149 
L 410.632727 237.332218 
L 412.436364 235.498843 
L 415.141818 232.889472 
L 416.945455 231.819186 
L 418.749091 229.620788 
L 421.454545 226.29273 
L 423.258182 225.165134 
L 426.865455 219.471397 
L 427.767273 218.212662 
L 429.570909 216.832597 
L 430.472727 215.154112 
L 431.374545 214.116869 
L 432.276364 212.683108 
L 434.08 209.023587 
L 435.883636 207.311542 
L 438.589091 201.416449 
L 439.490909 199.907825 
L 440.392727 198.881941 
L 442.196364 197.560733 
L 444.901818 191.224205 
L 445.803636 189.317516 
L 446.705455 187.96688 
L 447.607273 187.035994 
L 448.509091 186.271873 
L 450.312727 182.519934 
L 452.116364 178.975546 
L 453.018182 177.463309 
L 453.92 176.607803 
L 454.821818 175.912349 
L 456.625455 172.405135 
L 457.527273 171.358599 
L 459.330909 168.265972 
L 461.134545 167.004139 
L 463.84 162.228381 
L 465.643636 159.517299 
L 467.447273 158.389187 
L 469.250909 155.406532 
L 470.152727 154.089972 
L 471.956364 151.835298 
L 473.76 150.847619 
L 478.269091 144.917418 
L 478.269091 144.917418 
" style="fill:none;stroke:#2ca02c;stroke-linecap:square;stroke-width:1.5;"/>
   </g>
   <g id="line2d_16">
    <path clip-path="url(#pb7613005bc)" d="M 92.290909 369.36 
L 131.069091 369.253126 
L 152.712727 369.034732 
L 164.436364 368.6599 
L 167.141818 368.51482 
L 168.043636 368.191101 
L 169.847273 368.082162 
L 180.669091 367.035625 
L 181.570909 367.034077 
L 186.08 366.515713 
L 190.589091 366.235879 
L 196 365.910095 
L 202.312727 365.596186 
L 203.214545 365.050459 
L 213.134545 364.589404 
L 217.643636 364.399407 
L 223.054545 364.191338 
L 241.090909 363.612568 
L 313.236364 361.68626 
L 323.156364 361.471996 
L 352.014545 360.847275 
L 355.621818 360.725429 
L 373.658182 360.17712 
L 398.909091 359.087214 
L 432.276364 357.61215 
L 433.178182 357.449 
L 436.785455 357.267779 
L 475.563636 355.040985 
L 475.563636 355.040985 
" style="fill:none;stroke:#d62728;stroke-linecap:square;stroke-width:1.5;"/>
   </g>
   <g id="line2d_17">
    <path clip-path="url(#pb7613005bc)" d="M 92.290909 369.358967 
L 110.327273 369.261387 
L 117.541818 369.159676 
L 128.363636 369.017694 
L 130.167273 368.904109 
L 131.970909 368.811175 
L 133.774545 368.55251 
L 139.185455 368.473516 
L 140.087273 368.261834 
L 143.694545 368.152895 
L 145.498182 367.97219 
L 168.043636 367.439371 
L 172.552727 367.331464 
L 220.349091 366.315389 
L 239.287273 366.001996 
L 247.403636 365.888411 
L 248.305455 363.89963 
L 261.832727 363.615666 
L 275.36 363.29711 
L 276.261818 363.091623 
L 294.298182 362.850512 
L 315.941818 362.576358 
L 323.156364 362.429729 
L 340.290909 362.16177 
L 368.247273 361.965577 
L 379.069091 361.692455 
L 388.989091 361.555636 
L 398.007273 361.350666 
L 415.141818 361.033142 
L 419.650909 360.965507 
L 453.018182 360.084702 
L 462.036364 359.684571 
L 466.545455 359.51884 
L 473.76 359.193055 
L 473.76 359.193055 
" style="fill:none;stroke:#9467bd;stroke-linecap:square;stroke-width:1.5;"/>
   </g>
   <g id="line2d_18">
    <path clip-path="url(#pb7613005bc)" d="M 92.290909 369.36 
L 113.934545 369.253643 
L 119.345455 368.959869 
L 124.756364 368.4255 
L 133.774545 367.26796 
L 135.578182 367.057826 
L 138.283636 366.761471 
L 141.890909 366.325715 
L 145.498182 366.021099 
L 148.203636 365.842977 
L 150.909091 365.749527 
L 152.712727 365.543524 
L 156.32 365.404639 
L 164.436364 365.155267 
L 173.454545 364.955976 
L 266.341818 364.535193 
L 295.2 364.382885 
L 315.04 363.826832 
L 317.745455 363.556808 
L 320.450909 363.47007 
L 322.254545 363.167519 
L 324.96 362.900593 
L 326.763636 362.734345 
L 330.370909 362.174161 
L 333.076364 361.894328 
L 337.585455 361.005778 
L 338.487273 360.941241 
L 341.192727 360.24269 
L 343.898182 359.633458 
L 344.8 359.556013 
L 347.505455 358.796538 
L 349.309091 358.224996 
L 352.014545 357.674106 
L 353.818182 356.827893 
L 355.621818 356.063256 
L 358.327273 355.363155 
L 360.130909 354.434335 
L 361.934545 354.087899 
L 363.738182 353.717713 
L 364.64 353.279892 
L 366.443636 352.20341 
L 368.247273 351.730997 
L 370.050909 351.397468 
L 372.756364 349.825857 
L 374.56 348.696712 
L 375.461818 348.399841 
L 376.363636 348.224816 
L 378.167273 347.216485 
L 379.970909 346.019706 
L 380.872727 345.76259 
L 381.774545 345.370719 
L 383.578182 344.958197 
L 384.48 344.062936 
L 386.283636 343.092812 
L 387.185455 342.66067 
L 388.087273 342.578062 
L 388.989091 342.359668 
L 389.890909 341.930624 
L 390.792727 341.676606 
L 391.694545 341.222779 
L 392.596364 340.507706 
L 393.498182 340.299638 
L 394.4 339.87679 
L 395.301818 339.846845 
L 398.909091 338.054774 
L 399.810909 337.698528 
L 402.516364 337.250897 
L 404.32 336.48626 
L 406.123636 335.918848 
L 409.730909 335.372604 
L 410.632727 334.906387 
L 412.436364 334.385442 
L 415.141818 334.064305 
L 416.945455 333.647652 
L 417.847273 333.558332 
L 418.749091 333.250619 
L 421.454545 332.953747 
L 424.16 332.416797 
L 425.963636 332.211827 
L 426.865455 332.194789 
L 432.276364 331.479716 
L 434.08 331.308305 
L 437.687273 330.840022 
L 440.392727 330.632987 
L 444 330.210138 
L 447.607273 329.920495 
L 451.214545 329.599874 
L 453.92 329.478544 
L 455.723636 329.06344 
L 457.527273 328.881187 
L 459.330909 328.677765 
L 462.036364 328.225488 
L 463.84 328.071115 
L 464.741818 328.029295 
L 469.250909 327.285825 
L 471.956364 327.018899 
L 475.563636 326.457167 
L 478.269091 326.194887 
L 481.876364 325.650709 
L 486.385455 325.2418 
L 487.287273 325.034249 
L 489.090909 324.906723 
L 489.090909 324.906723 
" style="fill:none;stroke:#8c564b;stroke-linecap:square;stroke-width:1.5;"/>
   </g>
   <g id="line2d_19">
    <path clip-path="url(#pb7613005bc)" d="M 92.290909 369.358451 
L 142.792727 369.24848 
L 165.338182 368.960901 
L 189.687273 368.450799 
L 209.527273 368.111075 
L 218.545455 367.961348 
L 277.163636 367.430077 
L 291.592727 367.322171 
L 296.101818 367.255568 
L 342.996364 366.718102 
L 379.970909 366.099577 
L 425.963636 365.683957 
L 439.490909 365.475372 
L 453.018182 365.2957 
L 453.018182 365.2957 
" style="fill:none;stroke:#e377c2;stroke-linecap:square;stroke-width:1.5;"/>
   </g>
   <g id="line2d_20">
    <path clip-path="url(#pb7613005bc)" d="M 92.290909 369.358451 
L 104.014545 369.239703 
L 108.523636 368.933021 
L 109.425455 368.706366 
L 111.229091 368.426017 
L 114.836364 367.602005 
L 118.443636 366.222456 
L 122.952727 364.185143 
L 130.167273 361.15757 
L 134.676364 359.628295 
L 136.48 359.086182 
L 142.792727 357.144384 
L 149.105455 355.60375 
L 155.418182 354.447242 
L 158.123636 354.034204 
L 160.829091 353.667115 
L 165.338182 353.164757 
L 168.043636 352.885956 
L 172.552727 352.520417 
L 177.963636 352.248844 
L 190.589091 351.719639 
L 201.410909 351.457359 
L 205.018182 351.436191 
L 229.367273 351.239481 
L 267.243636 351.02212 
L 304.218182 350.581201 
L 310.530909 350.273487 
L 314.138182 350.009659 
L 321.352727 349.011654 
L 324.058182 348.378673 
L 328.567273 347.183442 
L 331.272727 346.290246 
L 333.978182 345.370719 
L 337.585455 343.926633 
L 339.389091 343.311206 
L 342.996364 341.64666 
L 347.505455 339.907768 
L 349.309091 338.974817 
L 351.112727 338.341835 
L 353.818182 337.484264 
L 355.621818 336.633404 
L 357.425455 336.048439 
L 358.327273 335.794936 
L 360.130909 335.007065 
L 362.836364 334.020935 
L 364.64 333.624935 
L 367.345455 332.754456 
L 369.149091 332.382721 
L 370.952727 331.995498 
L 373.658182 331.07184 
L 376.363636 330.466222 
L 377.265455 330.28655 
L 379.069091 329.668541 
L 380.872727 329.134689 
L 395.301818 325.236638 
L 398.007273 324.499364 
L 400.712727 323.781709 
L 402.516364 323.489484 
L 406.123636 322.574088 
L 411.534545 321.484182 
L 424.16 319.292496 
L 429.570909 318.434925 
L 433.178182 317.841182 
L 440.392727 316.439948 
L 443.098182 315.739848 
L 448.509091 314.457363 
L 451.214545 313.787724 
L 453.018182 313.419087 
L 456.625455 312.39785 
L 461.134545 311.341503 
L 462.036364 311.090066 
L 462.938182 310.719364 
L 466.545455 309.94027 
L 469.250909 309.280441 
L 485.483636 306.506887 
L 489.090909 306.013306 
L 491.796364 305.709722 
L 494.501818 305.37671 
L 495.403636 305.306493 
L 495.403636 305.306493 
" style="fill:none;stroke:#7f7f7f;stroke-linecap:square;stroke-width:1.5;"/>
   </g>
   <g id="line2d_21">
    <path clip-path="url(#pb7613005bc)" d="M 92.290909 369.359484 
L 323.156364 369.116307 
L 370.952727 368.950576 
L 434.08 368.517401 
L 498.109091 368.379033 
L 498.109091 368.379033 
" style="fill:none;stroke:#bcbd22;stroke-linecap:square;stroke-width:1.5;"/>
   </g>
   <g id="line2d_22">
    <path clip-path="url(#pb7613005bc)" d="M 92.290909 369.359484 
L 112.130909 369.259838 
L 122.952727 368.917532 
L 125.658182 368.686231 
L 128.363636 368.549928 
L 131.970909 368.295909 
L 134.676364 368.06564 
L 142.792727 367.048533 
L 145.498182 366.687124 
L 147.301818 366.434654 
L 150.909091 365.653495 
L 152.712727 365.419096 
L 156.32 364.499052 
L 158.123636 364.233159 
L 159.025455 364.110796 
L 159.927273 363.868136 
L 160.829091 363.304338 
L 162.632727 362.560352 
L 166.24 361.796747 
L 168.043636 361.128141 
L 169.847273 360.649016 
L 171.650909 360.283477 
L 175.258182 358.830614 
L 176.16 358.630807 
L 177.061818 358.091791 
L 182.472727 355.739537 
L 184.276364 355.357476 
L 188.785455 353.682088 
L 190.589091 353.293316 
L 192.392727 352.427483 
L 194.196364 351.707247 
L 195.098182 351.428963 
L 196.901818 351.03606 
L 197.803636 350.604434 
L 199.607273 349.960611 
L 201.410909 349.282195 
L 203.214545 348.973965 
L 205.018182 348.093676 
L 207.723636 346.966081 
L 209.527273 346.63152 
L 210.429091 346.190601 
L 212.232727 345.610282 
L 214.036364 344.850291 
L 215.84 344.57149 
L 219.447273 342.868222 
L 220.349091 342.509395 
L 221.250909 342.358635 
L 223.054545 341.516553 
L 225.76 340.494799 
L 226.661818 340.16695 
L 228.465455 339.919126 
L 231.170909 338.843677 
L 233.876364 338.134283 
L 234.778182 337.969068 
L 237.483636 337.042829 
L 240.189091 336.235339 
L 241.090909 336.103166 
L 241.992727 335.676188 
L 245.6 334.599706 
L 247.403636 334.36479 
L 249.207273 333.710124 
L 251.010909 333.124642 
L 252.814545 332.795244 
L 253.716364 332.677528 
L 254.618182 332.352776 
L 256.421818 332.094111 
L 258.225455 331.537025 
L 260.029091 331.31037 
L 262.734545 330.410978 
L 264.538182 329.995875 
L 266.341818 329.810007 
L 269.047273 329.048467 
L 270.850909 328.634396 
L 271.752727 328.527006 
L 272.654545 327.08705 
L 275.36 326.457683 
L 276.261818 326.250647 
L 278.967273 326.019346 
L 282.574545 325.111177 
L 283.476364 324.927891 
L 285.28 324.783844 
L 287.083636 324.227791 
L 287.985455 324.227791 
L 288.887273 323.764671 
L 289.789091 323.542147 
L 291.592727 323.321171 
L 293.396364 322.733624 
L 296.101818 321.988089 
L 297.905455 321.808934 
L 300.610909 320.945683 
L 302.414545 320.410798 
L 304.218182 320.195502 
L 308.727273 318.629053 
L 312.334545 317.97387 
L 315.941818 316.864862 
L 316.843636 316.735787 
L 319.549091 315.540041 
L 321.352727 314.911706 
L 323.156364 314.663366 
L 324.96 313.824382 
L 327.665455 312.848062 
L 329.469091 312.528989 
L 332.174545 311.366286 
L 333.978182 310.654827 
L 335.781818 310.348146 
L 338.487273 309.217969 
L 340.290909 308.500831 
L 342.094545 308.128063 
L 344.8 306.799112 
L 345.701818 306.455773 
L 347.505455 306.151674 
L 348.407273 305.930182 
L 351.112727 304.406069 
L 352.014545 304.044661 
L 354.72 303.399288 
L 359.229091 300.587011 
L 361.032727 299.98604 
L 362.836364 298.669996 
L 364.64 297.583188 
L 365.541818 296.953821 
L 367.345455 296.433909 
L 371.854545 292.388196 
L 373.658182 291.774317 
L 375.461818 290.036457 
L 378.167273 287.746675 
L 380.872727 286.993395 
L 381.774545 286.112074 
L 382.676364 286.112074 
L 383.578182 284.537365 
L 384.48 283.764983 
L 386.283636 283.277081 
L 387.185455 282.398858 
L 390.792727 279.642341 
L 392.596364 279.184901 
L 394.4 277.94372 
L 396.203636 276.960688 
L 397.105455 276.531128 
L 398.909091 276.149584 
L 399.810909 275.492336 
L 401.614545 274.520147 
L 403.418182 273.71214 
L 405.221818 273.250053 
L 407.025455 272.273217 
L 409.730909 271.079019 
L 411.534545 270.786794 
L 413.338182 269.977239 
L 416.043636 268.945158 
L 418.749091 268.620407 
L 420.552727 267.852671 
L 422.356364 267.222271 
L 424.16 267.009556 
L 425.963636 266.292934 
L 428.669091 265.362565 
L 430.472727 265.154497 
L 432.276364 264.443038 
L 433.178182 264.208639 
L 436.785455 263.829159 
L 439.490909 262.927186 
L 440.392727 262.475942 
L 441.294545 261.344216 
L 442.196364 261.279162 
L 444 260.791777 
L 447.607273 259.787061 
L 449.410909 259.664182 
L 452.116364 258.823132 
L 453.92 258.431778 
L 455.723636 258.29754 
L 460.232727 257.236547 
L 462.036364 257.145163 
L 463.84 256.803373 
L 464.741818 256.717668 
L 466.545455 256.327862 
L 468.349091 256.244738 
L 472.858182 255.576132 
L 472.858182 255.576132 
" style="fill:none;stroke:#17becf;stroke-linecap:square;stroke-width:1.5;"/>
   </g>
   <g id="line2d_23">
    <path clip-path="url(#pb7613005bc)" d="M 92.290909 369.359484 
L 134.676364 369.251577 
L 199.607273 368.843702 
L 217.643636 368.558189 
L 252.814545 368.241698 
L 299.709091 367.943278 
L 337.585455 367.58445 
L 386.283636 366.517262 
L 407.927273 366.316422 
L 444.901818 366.170826 
L 472.858182 366.109386 
L 472.858182 366.109386 
" style="fill:none;stroke:#1f77b4;stroke-linecap:square;stroke-width:1.5;"/>
   </g>
   <g id="line2d_24">
    <path clip-path="url(#pb7613005bc)" d="M 92.290909 369.36 
L 115.738182 369.260354 
L 128.363636 368.984135 
L 135.578182 368.666095 
L 154.516364 367.486354 
L 164.436364 366.694869 
L 171.650909 366.103191 
L 173.454545 365.818194 
L 192.392727 363.798436 
L 206.821818 362.252122 
L 207.723636 360.245271 
L 209.527273 360.147691 
L 210.429091 360.147691 
L 211.330909 359.850819 
L 214.938182 359.539491 
L 215.84 359.539491 
L 216.741818 359.233327 
L 226.661818 358.149617 
L 227.563636 356.010593 
L 228.465455 356.010593 
L 236.581818 355.077642 
L 258.225455 353.328424 
L 264.538182 352.905576 
L 266.341818 352.819354 
L 272.654545 352.524031 
L 274.458182 352.455364 
L 285.28 351.987597 
L 370.050909 349.343118 
L 370.952727 349.201652 
L 371.854545 349.201652 
L 372.756364 349.082904 
L 373.658182 349.082904 
L 374.56 348.91046 
L 375.461818 348.91046 
L 376.363636 348.652827 
L 378.167273 348.567638 
L 383.578182 347.914004 
L 385.381818 347.803 
L 392.596364 347.02752 
L 393.498182 346.796219 
L 403.418182 345.773948 
L 405.221818 345.455909 
L 407.025455 345.35523 
L 407.927273 345.148711 
L 409.730909 345.048033 
L 414.24 344.493529 
L 416.043636 344.410921 
L 420.552727 343.970002 
L 421.454545 343.791363 
L 422.356364 343.791363 
L 423.258182 343.598268 
L 424.16 343.598268 
L 425.061818 343.442862 
L 425.963636 343.442862 
L 426.865455 343.300363 
L 427.767273 343.300363 
L 429.570909 343.012269 
L 432.276364 342.700941 
L 433.178182 342.700941 
L 434.981818 342.429368 
L 437.687273 342.059699 
L 438.589091 341.924945 
L 439.490909 341.924945 
L 440.392727 341.783996 
L 441.294545 341.491254 
L 446.705455 340.544364 
L 447.607273 340.544364 
L 448.509091 340.370371 
L 449.410909 340.03581 
L 450.312727 340.03581 
L 451.214545 339.653749 
L 452.116364 339.438453 
L 453.018182 339.438453 
L 453.92 339.102859 
L 456.625455 338.524605 
L 457.527273 338.375395 
L 458.429091 338.375395 
L 459.330909 337.999013 
L 460.232727 337.999013 
L 461.134545 337.619534 
L 462.036364 337.619534 
L 462.938182 337.284457 
L 466.545455 336.845603 
L 467.447273 336.845603 
L 468.349091 336.40675 
L 469.250909 336.263735 
L 470.152727 336.263735 
L 471.054545 336.124334 
L 471.956364 335.853278 
L 472.858182 335.853278 
L 473.76 335.486706 
L 474.661818 335.486706 
L 474.661818 335.486706 
" style="fill:none;stroke:#ff7f0e;stroke-linecap:square;stroke-width:1.5;"/>
   </g>
   <g id="line2d_25">
    <path clip-path="url(#pb7613005bc)" d="M 92.290909 369.356902 
L 107.621818 369.25674 
L 111.229091 369.06158 
L 113.032727 368.865903 
L 114.836364 368.532374 
L 117.541818 367.800779 
L 119.345455 366.840981 
L 122.952727 364.293566 
L 123.854545 363.631155 
L 128.363636 358.64991 
L 130.167273 357.000853 
L 131.970909 354.52985 
L 132.872727 352.175014 
L 133.774545 350.173842 
L 137.381818 346.17821 
L 138.283636 345.043903 
L 139.185455 343.32876 
L 140.989091 341.34824 
L 142.792727 339.998636 
L 143.694545 338.925769 
L 144.596364 337.630893 
L 147.301818 334.819649 
L 149.105455 333.447844 
L 152.712727 329.297839 
L 153.614545 328.47073 
L 154.516364 328.055626 
L 155.418182 327.441231 
L 159.025455 323.936599 
L 159.927273 323.312394 
L 161.730909 322.433654 
L 164.436364 320.265202 
L 166.24 319.059129 
L 168.945455 318.091586 
L 169.847273 317.337275 
L 172.552727 315.654659 
L 174.356364 314.932874 
L 177.061818 313.393273 
L 177.963636 312.808823 
L 178.865455 312.445865 
L 180.669091 311.966224 
L 184.276364 310.124072 
L 185.178182 309.742012 
L 186.981818 309.371309 
L 189.687273 308.204992 
L 191.490909 307.577689 
L 193.294545 307.204922 
L 195.098182 306.451127 
L 196 305.201169 
L 197.803636 304.612072 
L 199.607273 304.278544 
L 200.509091 303.65279 
L 203.214545 302.607286 
L 205.92 302.115254 
L 206.821818 301.525642 
L 208.625455 300.603533 
L 210.429091 299.816694 
L 212.232727 299.367515 
L 216.741818 297.014228 
L 218.545455 296.568662 
L 221.250909 294.830286 
L 223.054545 293.714049 
L 223.956364 293.439379 
L 225.76 292.208008 
L 228.465455 290.138168 
L 229.367273 289.561463 
L 231.170909 289.028643 
L 232.974545 287.604693 
L 233.876364 286.651606 
L 235.68 285.456892 
L 237.483636 284.862116 
L 238.385455 284.336009 
L 239.287273 283.56311 
L 240.189091 283.008089 
L 241.090909 282.317799 
L 241.992727 281.800984 
L 243.796364 281.23254 
L 247.403636 278.7667 
L 248.305455 278.292738 
L 250.109091 277.769211 
L 252.814545 275.94926 
L 254.618182 274.979652 
L 256.421818 274.492267 
L 260.029091 272.374411 
L 260.930909 271.973764 
L 263.636364 271.355755 
L 264.538182 270.744974 
L 265.44 270.27411 
L 266.341818 269.670557 
L 267.243636 269.305535 
L 269.047273 268.863583 
L 270.850909 267.745798 
L 273.556364 266.461764 
L 275.36 266.110681 
L 278.967273 264.08576 
L 279.869091 263.690275 
L 281.672727 263.353132 
L 286.181818 261.167126 
L 287.985455 260.729305 
L 289.789091 259.898581 
L 291.592727 258.896446 
L 293.396364 258.327486 
L 294.298182 258.129743 
L 297.003636 256.769297 
L 298.807273 255.91534 
L 300.610909 255.43983 
L 305.12 252.937848 
L 306.923636 252.454077 
L 311.432727 249.871553 
L 313.236364 249.343896 
L 314.138182 248.521433 
L 317.745455 246.103609 
L 319.549091 245.413318 
L 322.254545 243.183426 
L 324.058182 241.868414 
L 325.861818 241.039756 
L 327.665455 239.16043 
L 329.469091 237.090591 
L 330.370909 236.254704 
L 332.174545 235.15344 
L 333.978182 232.885858 
L 338.487273 229.439051 
L 340.290909 226.671176 
L 342.094545 223.752026 
L 342.996364 222.53666 
L 344.8 221.013064 
L 345.701818 219.659846 
L 348.407273 214.706481 
L 349.309091 213.436904 
L 351.112727 211.744995 
L 352.014545 210.13466 
L 353.818182 206.435384 
L 355.621818 203.532755 
L 357.425455 201.656011 
L 360.130909 196.633462 
L 361.032727 195.896704 
L 361.934545 194.923482 
L 362.836364 194.186725 
L 363.738182 193.152063 
L 366.443636 187.552809 
L 367.345455 186.442768 
L 368.247273 185.147892 
L 369.149091 184.400292 
L 370.050909 183.31968 
L 372.756364 177.316164 
L 373.658182 175.195211 
L 374.56 173.480584 
L 376.363636 171.361696 
L 378.167273 166.969547 
L 379.970909 162.901117 
L 380.872727 161.143638 
L 381.774545 160.163188 
L 382.676364 159.37067 
L 383.578182 157.959627 
L 385.381818 153.512751 
L 387.185455 149.800566 
L 388.989091 147.799911 
L 392.596364 139.723974 
L 393.498182 138.285567 
L 395.301818 136.261162 
L 396.203636 134.490259 
L 398.909091 128.640084 
L 399.810909 127.27654 
L 401.614545 125.699765 
L 405.221818 119.235195 
L 406.123636 118.100372 
L 407.927273 117.006336 
L 408.829091 116.10333 
L 412.436364 111.263551 
L 414.24 109.935632 
L 415.141818 108.761569 
L 416.043636 107.120257 
L 416.945455 105.857392 
L 417.847273 104.789687 
L 418.749091 104.007495 
L 419.650909 103.442665 
L 420.552727 102.656859 
L 421.454545 101.650078 
L 422.356364 100.363979 
L 424.16 98.4418 
L 425.061818 97.664255 
L 426.865455 96.921819 
L 428.669091 95.176731 
L 430.472727 93.557103 
L 431.374545 93.04287 
L 433.178182 92.353096 
L 434.981818 91.107784 
L 435.883636 90.248664 
L 436.785455 89.655954 
L 437.687273 89.27286 
L 438.589091 89.045689 
L 440.392727 88.221677 
L 442.196364 86.712537 
L 443.098182 86.117762 
L 444 85.711435 
L 445.803636 85.074839 
L 447.607273 84.05515 
L 449.410909 83.007065 
L 450.312727 82.62707 
L 451.214545 82.475278 
L 452.116364 82.208868 
L 453.018182 81.764852 
L 453.92 80.427123 
L 455.723636 79.442026 
L 456.625455 79.073389 
L 458.429091 78.675323 
L 461.134545 77.28235 
L 462.938182 76.476409 
L 464.741818 76.050979 
L 469.250909 73.916086 
L 471.054545 73.521118 
L 471.956364 73.188622 
L 473.76 72.24741 
L 475.563636 71.506522 
L 477.367273 71.089353 
L 480.072727 69.830618 
L 481.876364 69.124322 
L 483.68 68.79544 
L 485.483636 68.004471 
L 487.287273 67.205758 
L 488.189091 66.96 
L 488.189091 66.96 
" style="fill:none;stroke:#2ca02c;stroke-linecap:square;stroke-width:1.5;"/>
   </g>
   <g id="line2d_26">
    <path clip-path="url(#pb7613005bc)" d="M 92.290909 369.36 
L 232.072727 369.171035 
L 301.512727 368.924244 
L 426.865455 368.526178 
L 466.545455 368.138438 
L 466.545455 368.138438 
" style="fill:none;stroke:#d62728;stroke-linecap:square;stroke-width:1.5;"/>
   </g>
   <g id="patch_3">
    <path d="M 72 384.48 
L 72 51.84 
" style="fill:none;stroke:#000000;stroke-linecap:square;stroke-linejoin:miter;stroke-width:0.8;"/>
   </g>
   <g id="patch_4">
    <path d="M 518.4 384.48 
L 518.4 51.84 
" style="fill:none;stroke:#000000;stroke-linecap:square;stroke-linejoin:miter;stroke-width:0.8;"/>
   </g>
   <g id="patch_5">
    <path d="M 72 384.48 
L 518.4 384.48 
" style="fill:none;stroke:#000000;stroke-linecap:square;stroke-linejoin:miter;stroke-width:0.8;"/>
   </g>
   <g id="patch_6">
    <path d="M 72 51.84 
L 518.4 51.84 
" style="fill:none;stroke:#000000;stroke-linecap:square;stroke-linejoin:miter;stroke-width:0.8;"/>
   </g>
   <g id="text_15">
    <!-- Deaths Since Day of More Than 100 Confirmed Cases -->
    <defs>
     <path id="DejaVuSans-32"/>
     <path d="M 53.515625 70.515625 
L 53.515625 60.890625 
Q 47.90625 63.578125 42.921875 64.890625 
Q 37.9375 66.21875 33.296875 66.21875 
Q 25.25 66.21875 20.875 63.09375 
Q 16.5 59.96875 16.5 54.203125 
Q 16.5 49.359375 19.40625 46.890625 
Q 22.3125 44.4375 30.421875 42.921875 
L 36.375 41.703125 
Q 47.40625 39.59375 52.65625 34.296875 
Q 57.90625 29 57.90625 20.125 
Q 57.90625 9.515625 50.796875 4.046875 
Q 43.703125 -1.421875 29.984375 -1.421875 
Q 24.8125 -1.421875 18.96875 -0.25 
Q 13.140625 0.921875 6.890625 3.21875 
L 6.890625 13.375 
Q 12.890625 10.015625 18.65625 8.296875 
Q 24.421875 6.59375 29.984375 6.59375 
Q 38.421875 6.59375 43.015625 9.90625 
Q 47.609375 13.234375 47.609375 19.390625 
Q 47.609375 24.75 44.3125 27.78125 
Q 41.015625 30.8125 33.5 32.328125 
L 27.484375 33.5 
Q 16.453125 35.6875 11.515625 40.375 
Q 6.59375 45.0625 6.59375 53.421875 
Q 6.59375 63.09375 13.40625 68.65625 
Q 20.21875 74.21875 32.171875 74.21875 
Q 37.3125 74.21875 42.625 73.28125 
Q 47.953125 72.359375 53.515625 70.515625 
z
" id="DejaVuSans-83"/>
     <path d="M 9.421875 54.6875 
L 18.40625 54.6875 
L 18.40625 0 
L 9.421875 0 
z
M 9.421875 75.984375 
L 18.40625 75.984375 
L 18.40625 64.59375 
L 9.421875 64.59375 
z
" id="DejaVuSans-105"/>
     <path d="M 54.890625 33.015625 
L 54.890625 0 
L 45.90625 0 
L 45.90625 32.71875 
Q 45.90625 40.484375 42.875 44.328125 
Q 39.84375 48.1875 33.796875 48.1875 
Q 26.515625 48.1875 22.3125 43.546875 
Q 18.109375 38.921875 18.109375 30.90625 
L 18.109375 0 
L 9.078125 0 
L 9.078125 54.6875 
L 18.109375 54.6875 
L 18.109375 46.1875 
Q 21.34375 51.125 25.703125 53.5625 
Q 30.078125 56 35.796875 56 
Q 45.21875 56 50.046875 50.171875 
Q 54.890625 44.34375 54.890625 33.015625 
z
" id="DejaVuSans-110"/>
     <path d="M 48.78125 52.59375 
L 48.78125 44.1875 
Q 44.96875 46.296875 41.140625 47.34375 
Q 37.3125 48.390625 33.40625 48.390625 
Q 24.65625 48.390625 19.8125 42.84375 
Q 14.984375 37.3125 14.984375 27.296875 
Q 14.984375 17.28125 19.8125 11.734375 
Q 24.65625 6.203125 33.40625 6.203125 
Q 37.3125 6.203125 41.140625 7.25 
Q 44.96875 8.296875 48.78125 10.40625 
L 48.78125 2.09375 
Q 45.015625 0.34375 40.984375 -0.53125 
Q 36.96875 -1.421875 32.421875 -1.421875 
Q 20.0625 -1.421875 12.78125 6.34375 
Q 5.515625 14.109375 5.515625 27.296875 
Q 5.515625 40.671875 12.859375 48.328125 
Q 20.21875 56 33.015625 56 
Q 37.15625 56 41.109375 55.140625 
Q 45.0625 54.296875 48.78125 52.59375 
z
" id="DejaVuSans-99"/>
     <path d="M 30.609375 48.390625 
Q 23.390625 48.390625 19.1875 42.75 
Q 14.984375 37.109375 14.984375 27.296875 
Q 14.984375 17.484375 19.15625 11.84375 
Q 23.34375 6.203125 30.609375 6.203125 
Q 37.796875 6.203125 41.984375 11.859375 
Q 46.1875 17.53125 46.1875 27.296875 
Q 46.1875 37.015625 41.984375 42.703125 
Q 37.796875 48.390625 30.609375 48.390625 
z
M 30.609375 56 
Q 42.328125 56 49.015625 48.375 
Q 55.71875 40.765625 55.71875 27.296875 
Q 55.71875 13.875 49.015625 6.21875 
Q 42.328125 -1.421875 30.609375 -1.421875 
Q 18.84375 -1.421875 12.171875 6.21875 
Q 5.515625 13.875 5.515625 27.296875 
Q 5.515625 40.765625 12.171875 48.375 
Q 18.84375 56 30.609375 56 
z
" id="DejaVuSans-111"/>
     <path d="M 37.109375 75.984375 
L 37.109375 68.5 
L 28.515625 68.5 
Q 23.6875 68.5 21.796875 66.546875 
Q 19.921875 64.59375 19.921875 59.515625 
L 19.921875 54.6875 
L 34.71875 54.6875 
L 34.71875 47.703125 
L 19.921875 47.703125 
L 19.921875 0 
L 10.890625 0 
L 10.890625 47.703125 
L 2.296875 47.703125 
L 2.296875 54.6875 
L 10.890625 54.6875 
L 10.890625 58.5 
Q 10.890625 67.625 15.140625 71.796875 
Q 19.390625 75.984375 28.609375 75.984375 
z
" id="DejaVuSans-102"/>
     <path d="M 9.8125 72.90625 
L 24.515625 72.90625 
L 43.109375 23.296875 
L 61.8125 72.90625 
L 76.515625 72.90625 
L 76.515625 0 
L 66.890625 0 
L 66.890625 64.015625 
L 48.09375 14.015625 
L 38.1875 14.015625 
L 19.390625 64.015625 
L 19.390625 0 
L 9.8125 0 
z
" id="DejaVuSans-77"/>
     <path d="M 41.109375 46.296875 
Q 39.59375 47.171875 37.8125 47.578125 
Q 36.03125 48 33.890625 48 
Q 26.265625 48 22.1875 43.046875 
Q 18.109375 38.09375 18.109375 28.8125 
L 18.109375 0 
L 9.078125 0 
L 9.078125 54.6875 
L 18.109375 54.6875 
L 18.109375 46.1875 
Q 20.953125 51.171875 25.484375 53.578125 
Q 30.03125 56 36.53125 56 
Q 37.453125 56 38.578125 55.875 
Q 39.703125 55.765625 41.0625 55.515625 
z
" id="DejaVuSans-114"/>
     <path d="M -0.296875 72.90625 
L 61.375 72.90625 
L 61.375 64.59375 
L 35.5 64.59375 
L 35.5 0 
L 25.59375 0 
L 25.59375 64.59375 
L -0.296875 64.59375 
z
" id="DejaVuSans-84"/>
     <path d="M 64.40625 67.28125 
L 64.40625 56.890625 
Q 59.421875 61.53125 53.78125 63.8125 
Q 48.140625 66.109375 41.796875 66.109375 
Q 29.296875 66.109375 22.65625 58.46875 
Q 16.015625 50.828125 16.015625 36.375 
Q 16.015625 21.96875 22.65625 14.328125 
Q 29.296875 6.6875 41.796875 6.6875 
Q 48.140625 6.6875 53.78125 8.984375 
Q 59.421875 11.28125 64.40625 15.921875 
L 64.40625 5.609375 
Q 59.234375 2.09375 53.4375 0.328125 
Q 47.65625 -1.421875 41.21875 -1.421875 
Q 24.65625 -1.421875 15.125 8.703125 
Q 5.609375 18.84375 5.609375 36.375 
Q 5.609375 53.953125 15.125 64.078125 
Q 24.65625 74.21875 41.21875 74.21875 
Q 47.75 74.21875 53.53125 72.484375 
Q 59.328125 70.75 64.40625 67.28125 
z
" id="DejaVuSans-67"/>
     <path d="M 52 44.1875 
Q 55.375 50.25 60.0625 53.125 
Q 64.75 56 71.09375 56 
Q 79.640625 56 84.28125 50.015625 
Q 88.921875 44.046875 88.921875 33.015625 
L 88.921875 0 
L 79.890625 0 
L 79.890625 32.71875 
Q 79.890625 40.578125 77.09375 44.375 
Q 74.3125 48.1875 68.609375 48.1875 
Q 61.625 48.1875 57.5625 43.546875 
Q 53.515625 38.921875 53.515625 30.90625 
L 53.515625 0 
L 44.484375 0 
L 44.484375 32.71875 
Q 44.484375 40.625 41.703125 44.40625 
Q 38.921875 48.1875 33.109375 48.1875 
Q 26.21875 48.1875 22.15625 43.53125 
Q 18.109375 38.875 18.109375 30.90625 
L 18.109375 0 
L 9.078125 0 
L 9.078125 54.6875 
L 18.109375 54.6875 
L 18.109375 46.1875 
Q 21.1875 51.21875 25.484375 53.609375 
Q 29.78125 56 35.6875 56 
Q 41.65625 56 45.828125 52.96875 
Q 50 49.953125 52 44.1875 
z
" id="DejaVuSans-109"/>
     <path d="M 45.40625 46.390625 
L 45.40625 75.984375 
L 54.390625 75.984375 
L 54.390625 0 
L 45.40625 0 
L 45.40625 8.203125 
Q 42.578125 3.328125 38.25 0.953125 
Q 33.9375 -1.421875 27.875 -1.421875 
Q 17.96875 -1.421875 11.734375 6.484375 
Q 5.515625 14.40625 5.515625 27.296875 
Q 5.515625 40.1875 11.734375 48.09375 
Q 17.96875 56 27.875 56 
Q 33.9375 56 38.25 53.625 
Q 42.578125 51.265625 45.40625 46.390625 
z
M 14.796875 27.296875 
Q 14.796875 17.390625 18.875 11.75 
Q 22.953125 6.109375 30.078125 6.109375 
Q 37.203125 6.109375 41.296875 11.75 
Q 45.40625 17.390625 45.40625 27.296875 
Q 45.40625 37.203125 41.296875 42.84375 
Q 37.203125 48.484375 30.078125 48.484375 
Q 22.953125 48.484375 18.875 42.84375 
Q 14.796875 37.203125 14.796875 27.296875 
z
" id="DejaVuSans-100"/>
    </defs>
    <g transform="translate(134.545312 45.84)scale(0.12 -0.12)">
     <use xlink:href="#DejaVuSans-68"/>
     <use x="77.001953" xlink:href="#DejaVuSans-101"/>
     <use x="138.525391" xlink:href="#DejaVuSans-97"/>
     <use x="199.804688" xlink:href="#DejaVuSans-116"/>
     <use x="239.013672" xlink:href="#DejaVuSans-104"/>
     <use x="302.392578" xlink:href="#DejaVuSans-115"/>
     <use x="354.492188" xlink:href="#DejaVuSans-32"/>
     <use x="386.279297" xlink:href="#DejaVuSans-83"/>
     <use x="449.755859" xlink:href="#DejaVuSans-105"/>
     <use x="477.539062" xlink:href="#DejaVuSans-110"/>
     <use x="540.917969" xlink:href="#DejaVuSans-99"/>
     <use x="595.898438" xlink:href="#DejaVuSans-101"/>
     <use x="657.421875" xlink:href="#DejaVuSans-32"/>
     <use x="689.208984" xlink:href="#DejaVuSans-68"/>
     <use x="766.210938" xlink:href="#DejaVuSans-97"/>
     <use x="827.490234" xlink:href="#DejaVuSans-121"/>
     <use x="886.669922" xlink:href="#DejaVuSans-32"/>
     <use x="918.457031" xlink:href="#DejaVuSans-111"/>
     <use x="979.638672" xlink:href="#DejaVuSans-102"/>
     <use x="1014.84375" xlink:href="#DejaVuSans-32"/>
     <use x="1046.630859" xlink:href="#DejaVuSans-77"/>
     <use x="1132.910156" xlink:href="#DejaVuSans-111"/>
     <use x="1194.091797" xlink:href="#DejaVuSans-114"/>
     <use x="1232.955078" xlink:href="#DejaVuSans-101"/>
     <use x="1294.478516" xlink:href="#DejaVuSans-32"/>
     <use x="1326.265625" xlink:href="#DejaVuSans-84"/>
     <use x="1387.349609" xlink:href="#DejaVuSans-104"/>
     <use x="1450.728516" xlink:href="#DejaVuSans-97"/>
     <use x="1512.007812" xlink:href="#DejaVuSans-110"/>
     <use x="1575.386719" xlink:href="#DejaVuSans-32"/>
     <use x="1607.173828" xlink:href="#DejaVuSans-49"/>
     <use x="1670.796875" xlink:href="#DejaVuSans-48"/>
     <use x="1734.419922" xlink:href="#DejaVuSans-48"/>
     <use x="1798.042969" xlink:href="#DejaVuSans-32"/>
     <use x="1829.830078" xlink:href="#DejaVuSans-67"/>
     <use x="1899.654297" xlink:href="#DejaVuSans-111"/>
     <use x="1960.835938" xlink:href="#DejaVuSans-110"/>
     <use x="2024.214844" xlink:href="#DejaVuSans-102"/>
     <use x="2059.419922" xlink:href="#DejaVuSans-105"/>
     <use x="2087.203125" xlink:href="#DejaVuSans-114"/>
     <use x="2126.566406" xlink:href="#DejaVuSans-109"/>
     <use x="2223.978516" xlink:href="#DejaVuSans-101"/>
     <use x="2285.501953" xlink:href="#DejaVuSans-100"/>
     <use x="2348.978516" xlink:href="#DejaVuSans-32"/>
     <use x="2380.765625" xlink:href="#DejaVuSans-67"/>
     <use x="2450.589844" xlink:href="#DejaVuSans-97"/>
     <use x="2511.869141" xlink:href="#DejaVuSans-115"/>
     <use x="2563.96875" xlink:href="#DejaVuSans-101"/>
     <use x="2625.492188" xlink:href="#DejaVuSans-115"/>
    </g>
   </g>
   <g id="legend_1">
    <g id="patch_7">
     <path d="M 79 265.33375 
L 171.584375 265.33375 
Q 173.584375 265.33375 173.584375 263.33375 
L 173.584375 58.84 
Q 173.584375 56.84 171.584375 56.84 
L 79 56.84 
Q 77 56.84 77 58.84 
L 77 263.33375 
Q 77 265.33375 79 265.33375 
z
" style="fill:#ffffff;opacity:0.8;stroke:#cccccc;stroke-linejoin:miter;"/>
    </g>
    <g id="line2d_27">
     <path d="M 81 64.938437 
L 101 64.938437 
" style="fill:none;stroke:#1f77b4;stroke-linecap:square;stroke-width:1.5;"/>
    </g>
    <g id="line2d_28"/>
    <g id="text_16">
     <!-- Argentina -->
     <defs>
      <path d="M 34.1875 63.1875 
L 20.796875 26.90625 
L 47.609375 26.90625 
z
M 28.609375 72.90625 
L 39.796875 72.90625 
L 67.578125 0 
L 57.328125 0 
L 50.6875 18.703125 
L 17.828125 18.703125 
L 11.1875 0 
L 0.78125 0 
z
" id="DejaVuSans-65"/>
      <path d="M 45.40625 27.984375 
Q 45.40625 37.75 41.375 43.109375 
Q 37.359375 48.484375 30.078125 48.484375 
Q 22.859375 48.484375 18.828125 43.109375 
Q 14.796875 37.75 14.796875 27.984375 
Q 14.796875 18.265625 18.828125 12.890625 
Q 22.859375 7.515625 30.078125 7.515625 
Q 37.359375 7.515625 41.375 12.890625 
Q 45.40625 18.265625 45.40625 27.984375 
z
M 54.390625 6.78125 
Q 54.390625 -7.171875 48.1875 -13.984375 
Q 42 -20.796875 29.203125 -20.796875 
Q 24.46875 -20.796875 20.265625 -20.09375 
Q 16.0625 -19.390625 12.109375 -17.921875 
L 12.109375 -9.1875 
Q 16.0625 -11.328125 19.921875 -12.34375 
Q 23.78125 -13.375 27.78125 -13.375 
Q 36.625 -13.375 41.015625 -8.765625 
Q 45.40625 -4.15625 45.40625 5.171875 
L 45.40625 9.625 
Q 42.625 4.78125 38.28125 2.390625 
Q 33.9375 0 27.875 0 
Q 17.828125 0 11.671875 7.65625 
Q 5.515625 15.328125 5.515625 27.984375 
Q 5.515625 40.671875 11.671875 48.328125 
Q 17.828125 56 27.875 56 
Q 33.9375 56 38.28125 53.609375 
Q 42.625 51.21875 45.40625 46.390625 
L 45.40625 54.6875 
L 54.390625 54.6875 
z
" id="DejaVuSans-103"/>
     </defs>
     <g transform="translate(109 68.438437)scale(0.1 -0.1)">
      <use xlink:href="#DejaVuSans-65"/>
      <use x="68.408203" xlink:href="#DejaVuSans-114"/>
      <use x="107.771484" xlink:href="#DejaVuSans-103"/>
      <use x="171.248047" xlink:href="#DejaVuSans-101"/>
      <use x="232.771484" xlink:href="#DejaVuSans-110"/>
      <use x="296.150391" xlink:href="#DejaVuSans-116"/>
      <use x="335.359375" xlink:href="#DejaVuSans-105"/>
      <use x="363.142578" xlink:href="#DejaVuSans-110"/>
      <use x="426.521484" xlink:href="#DejaVuSans-97"/>
     </g>
    </g>
    <g id="line2d_29">
     <path d="M 81 79.616562 
L 101 79.616562 
" style="fill:none;stroke:#ff7f0e;stroke-linecap:square;stroke-width:1.5;"/>
    </g>
    <g id="line2d_30"/>
    <g id="text_17">
     <!-- Bolivia -->
     <defs>
      <path d="M 19.671875 34.8125 
L 19.671875 8.109375 
L 35.5 8.109375 
Q 43.453125 8.109375 47.28125 11.40625 
Q 51.125 14.703125 51.125 21.484375 
Q 51.125 28.328125 47.28125 31.5625 
Q 43.453125 34.8125 35.5 34.8125 
z
M 19.671875 64.796875 
L 19.671875 42.828125 
L 34.28125 42.828125 
Q 41.5 42.828125 45.03125 45.53125 
Q 48.578125 48.25 48.578125 53.8125 
Q 48.578125 59.328125 45.03125 62.0625 
Q 41.5 64.796875 34.28125 64.796875 
z
M 9.8125 72.90625 
L 35.015625 72.90625 
Q 46.296875 72.90625 52.390625 68.21875 
Q 58.5 63.53125 58.5 54.890625 
Q 58.5 48.1875 55.375 44.234375 
Q 52.25 40.28125 46.1875 39.3125 
Q 53.46875 37.75 57.5 32.78125 
Q 61.53125 27.828125 61.53125 20.40625 
Q 61.53125 10.640625 54.890625 5.3125 
Q 48.25 0 35.984375 0 
L 9.8125 0 
z
" id="DejaVuSans-66"/>
      <path d="M 9.421875 75.984375 
L 18.40625 75.984375 
L 18.40625 0 
L 9.421875 0 
z
" id="DejaVuSans-108"/>
      <path d="M 2.984375 54.6875 
L 12.5 54.6875 
L 29.59375 8.796875 
L 46.6875 54.6875 
L 56.203125 54.6875 
L 35.6875 0 
L 23.484375 0 
z
" id="DejaVuSans-118"/>
     </defs>
     <g transform="translate(109 83.116562)scale(0.1 -0.1)">
      <use xlink:href="#DejaVuSans-66"/>
      <use x="68.603516" xlink:href="#DejaVuSans-111"/>
      <use x="129.785156" xlink:href="#DejaVuSans-108"/>
      <use x="157.568359" xlink:href="#DejaVuSans-105"/>
      <use x="185.351562" xlink:href="#DejaVuSans-118"/>
      <use x="244.53125" xlink:href="#DejaVuSans-105"/>
      <use x="272.314453" xlink:href="#DejaVuSans-97"/>
     </g>
    </g>
    <g id="line2d_31">
     <path d="M 81 94.294688 
L 101 94.294688 
" style="fill:none;stroke:#2ca02c;stroke-linecap:square;stroke-width:1.5;"/>
    </g>
    <g id="line2d_32"/>
    <g id="text_18">
     <!-- Brazil -->
     <defs>
      <path d="M 5.515625 54.6875 
L 48.1875 54.6875 
L 48.1875 46.484375 
L 14.40625 7.171875 
L 48.1875 7.171875 
L 48.1875 0 
L 4.296875 0 
L 4.296875 8.203125 
L 38.09375 47.515625 
L 5.515625 47.515625 
z
" id="DejaVuSans-122"/>
     </defs>
     <g transform="translate(109 97.794688)scale(0.1 -0.1)">
      <use xlink:href="#DejaVuSans-66"/>
      <use x="68.603516" xlink:href="#DejaVuSans-114"/>
      <use x="109.716797" xlink:href="#DejaVuSans-97"/>
      <use x="170.996094" xlink:href="#DejaVuSans-122"/>
      <use x="223.486328" xlink:href="#DejaVuSans-105"/>
      <use x="251.269531" xlink:href="#DejaVuSans-108"/>
     </g>
    </g>
    <g id="line2d_33">
     <path d="M 81 108.972812 
L 101 108.972812 
" style="fill:none;stroke:#d62728;stroke-linecap:square;stroke-width:1.5;"/>
    </g>
    <g id="line2d_34"/>
    <g id="text_19">
     <!-- Chile -->
     <g transform="translate(109 112.472812)scale(0.1 -0.1)">
      <use xlink:href="#DejaVuSans-67"/>
      <use x="69.824219" xlink:href="#DejaVuSans-104"/>
      <use x="133.203125" xlink:href="#DejaVuSans-105"/>
      <use x="160.986328" xlink:href="#DejaVuSans-108"/>
      <use x="188.769531" xlink:href="#DejaVuSans-101"/>
     </g>
    </g>
    <g id="line2d_35">
     <path d="M 81 123.650937 
L 101 123.650937 
" style="fill:none;stroke:#9467bd;stroke-linecap:square;stroke-width:1.5;"/>
    </g>
    <g id="line2d_36"/>
    <g id="text_20">
     <!-- Ecuador -->
     <defs>
      <path d="M 9.8125 72.90625 
L 55.90625 72.90625 
L 55.90625 64.59375 
L 19.671875 64.59375 
L 19.671875 43.015625 
L 54.390625 43.015625 
L 54.390625 34.71875 
L 19.671875 34.71875 
L 19.671875 8.296875 
L 56.78125 8.296875 
L 56.78125 0 
L 9.8125 0 
z
" id="DejaVuSans-69"/>
      <path d="M 8.5 21.578125 
L 8.5 54.6875 
L 17.484375 54.6875 
L 17.484375 21.921875 
Q 17.484375 14.15625 20.5 10.265625 
Q 23.53125 6.390625 29.59375 6.390625 
Q 36.859375 6.390625 41.078125 11.03125 
Q 45.3125 15.671875 45.3125 23.6875 
L 45.3125 54.6875 
L 54.296875 54.6875 
L 54.296875 0 
L 45.3125 0 
L 45.3125 8.40625 
Q 42.046875 3.421875 37.71875 1 
Q 33.40625 -1.421875 27.6875 -1.421875 
Q 18.265625 -1.421875 13.375 4.4375 
Q 8.5 10.296875 8.5 21.578125 
z
M 31.109375 56 
z
" id="DejaVuSans-117"/>
     </defs>
     <g transform="translate(109 127.150937)scale(0.1 -0.1)">
      <use xlink:href="#DejaVuSans-69"/>
      <use x="63.183594" xlink:href="#DejaVuSans-99"/>
      <use x="118.164062" xlink:href="#DejaVuSans-117"/>
      <use x="181.542969" xlink:href="#DejaVuSans-97"/>
      <use x="242.822266" xlink:href="#DejaVuSans-100"/>
      <use x="306.298828" xlink:href="#DejaVuSans-111"/>
      <use x="367.480469" xlink:href="#DejaVuSans-114"/>
     </g>
    </g>
    <g id="line2d_37">
     <path d="M 81 138.329062 
L 101 138.329062 
" style="fill:none;stroke:#8c564b;stroke-linecap:square;stroke-width:1.5;"/>
    </g>
    <g id="line2d_38"/>
    <g id="text_21">
     <!-- Germany -->
     <defs>
      <path d="M 59.515625 10.40625 
L 59.515625 29.984375 
L 43.40625 29.984375 
L 43.40625 38.09375 
L 69.28125 38.09375 
L 69.28125 6.78125 
Q 63.578125 2.734375 56.6875 0.65625 
Q 49.8125 -1.421875 42 -1.421875 
Q 24.90625 -1.421875 15.25 8.5625 
Q 5.609375 18.5625 5.609375 36.375 
Q 5.609375 54.25 15.25 64.234375 
Q 24.90625 74.21875 42 74.21875 
Q 49.125 74.21875 55.546875 72.453125 
Q 61.96875 70.703125 67.390625 67.28125 
L 67.390625 56.78125 
Q 61.921875 61.421875 55.765625 63.765625 
Q 49.609375 66.109375 42.828125 66.109375 
Q 29.4375 66.109375 22.71875 58.640625 
Q 16.015625 51.171875 16.015625 36.375 
Q 16.015625 21.625 22.71875 14.15625 
Q 29.4375 6.6875 42.828125 6.6875 
Q 48.046875 6.6875 52.140625 7.59375 
Q 56.25 8.5 59.515625 10.40625 
z
" id="DejaVuSans-71"/>
     </defs>
     <g transform="translate(109 141.829062)scale(0.1 -0.1)">
      <use xlink:href="#DejaVuSans-71"/>
      <use x="77.490234" xlink:href="#DejaVuSans-101"/>
      <use x="139.013672" xlink:href="#DejaVuSans-114"/>
      <use x="178.376953" xlink:href="#DejaVuSans-109"/>
      <use x="275.789062" xlink:href="#DejaVuSans-97"/>
      <use x="337.068359" xlink:href="#DejaVuSans-110"/>
      <use x="400.447266" xlink:href="#DejaVuSans-121"/>
     </g>
    </g>
    <g id="line2d_39">
     <path d="M 81 153.007187 
L 101 153.007187 
" style="fill:none;stroke:#e377c2;stroke-linecap:square;stroke-width:1.5;"/>
    </g>
    <g id="line2d_40"/>
    <g id="text_22">
     <!-- Guatemala -->
     <g transform="translate(109 156.507187)scale(0.1 -0.1)">
      <use xlink:href="#DejaVuSans-71"/>
      <use x="77.490234" xlink:href="#DejaVuSans-117"/>
      <use x="140.869141" xlink:href="#DejaVuSans-97"/>
      <use x="202.148438" xlink:href="#DejaVuSans-116"/>
      <use x="241.357422" xlink:href="#DejaVuSans-101"/>
      <use x="302.880859" xlink:href="#DejaVuSans-109"/>
      <use x="400.292969" xlink:href="#DejaVuSans-97"/>
      <use x="461.572266" xlink:href="#DejaVuSans-108"/>
      <use x="489.355469" xlink:href="#DejaVuSans-97"/>
     </g>
    </g>
    <g id="line2d_41">
     <path d="M 81 167.685312 
L 101 167.685312 
" style="fill:none;stroke:#7f7f7f;stroke-linecap:square;stroke-width:1.5;"/>
    </g>
    <g id="line2d_42"/>
    <g id="text_23">
     <!-- Italy -->
     <defs>
      <path d="M 9.8125 72.90625 
L 19.671875 72.90625 
L 19.671875 0 
L 9.8125 0 
z
" id="DejaVuSans-73"/>
     </defs>
     <g transform="translate(109 171.185312)scale(0.1 -0.1)">
      <use xlink:href="#DejaVuSans-73"/>
      <use x="29.492188" xlink:href="#DejaVuSans-116"/>
      <use x="68.701172" xlink:href="#DejaVuSans-97"/>
      <use x="129.980469" xlink:href="#DejaVuSans-108"/>
      <use x="157.763672" xlink:href="#DejaVuSans-121"/>
     </g>
    </g>
    <g id="line2d_43">
     <path d="M 81 182.363437 
L 101 182.363437 
" style="fill:none;stroke:#bcbd22;stroke-linecap:square;stroke-width:1.5;"/>
    </g>
    <g id="line2d_44"/>
    <g id="text_24">
     <!-- Korea,South -->
     <defs>
      <path d="M 9.8125 72.90625 
L 19.671875 72.90625 
L 19.671875 42.09375 
L 52.390625 72.90625 
L 65.09375 72.90625 
L 28.90625 38.921875 
L 67.671875 0 
L 54.6875 0 
L 19.671875 35.109375 
L 19.671875 0 
L 9.8125 0 
z
" id="DejaVuSans-75"/>
     </defs>
     <g transform="translate(109 185.863437)scale(0.1 -0.1)">
      <use xlink:href="#DejaVuSans-75"/>
      <use x="60.576172" xlink:href="#DejaVuSans-111"/>
      <use x="121.757812" xlink:href="#DejaVuSans-114"/>
      <use x="160.621094" xlink:href="#DejaVuSans-101"/>
      <use x="222.144531" xlink:href="#DejaVuSans-97"/>
      <use x="283.423828" xlink:href="#DejaVuSans-44"/>
      <use x="315.210938" xlink:href="#DejaVuSans-83"/>
      <use x="378.6875" xlink:href="#DejaVuSans-111"/>
      <use x="439.869141" xlink:href="#DejaVuSans-117"/>
      <use x="503.248047" xlink:href="#DejaVuSans-116"/>
      <use x="542.457031" xlink:href="#DejaVuSans-104"/>
     </g>
    </g>
    <g id="line2d_45">
     <path d="M 81 197.041562 
L 101 197.041562 
" style="fill:none;stroke:#17becf;stroke-linecap:square;stroke-width:1.5;"/>
    </g>
    <g id="line2d_46"/>
    <g id="text_25">
     <!-- Mexico -->
     <defs>
      <path d="M 54.890625 54.6875 
L 35.109375 28.078125 
L 55.90625 0 
L 45.3125 0 
L 29.390625 21.484375 
L 13.484375 0 
L 2.875 0 
L 24.125 28.609375 
L 4.6875 54.6875 
L 15.28125 54.6875 
L 29.78125 35.203125 
L 44.28125 54.6875 
z
" id="DejaVuSans-120"/>
     </defs>
     <g transform="translate(109 200.541562)scale(0.1 -0.1)">
      <use xlink:href="#DejaVuSans-77"/>
      <use x="86.279297" xlink:href="#DejaVuSans-101"/>
      <use x="146.052734" xlink:href="#DejaVuSans-120"/>
      <use x="205.232422" xlink:href="#DejaVuSans-105"/>
      <use x="233.015625" xlink:href="#DejaVuSans-99"/>
      <use x="287.996094" xlink:href="#DejaVuSans-111"/>
     </g>
    </g>
    <g id="line2d_47">
     <path d="M 81 211.719687 
L 101 211.719687 
" style="fill:none;stroke:#1f77b4;stroke-linecap:square;stroke-width:1.5;"/>
    </g>
    <g id="line2d_48"/>
    <g id="text_26">
     <!-- Panama -->
     <defs>
      <path d="M 19.671875 64.796875 
L 19.671875 37.40625 
L 32.078125 37.40625 
Q 38.96875 37.40625 42.71875 40.96875 
Q 46.484375 44.53125 46.484375 51.125 
Q 46.484375 57.671875 42.71875 61.234375 
Q 38.96875 64.796875 32.078125 64.796875 
z
M 9.8125 72.90625 
L 32.078125 72.90625 
Q 44.34375 72.90625 50.609375 67.359375 
Q 56.890625 61.8125 56.890625 51.125 
Q 56.890625 40.328125 50.609375 34.8125 
Q 44.34375 29.296875 32.078125 29.296875 
L 19.671875 29.296875 
L 19.671875 0 
L 9.8125 0 
z
" id="DejaVuSans-80"/>
     </defs>
     <g transform="translate(109 215.219687)scale(0.1 -0.1)">
      <use xlink:href="#DejaVuSans-80"/>
      <use x="55.802734" xlink:href="#DejaVuSans-97"/>
      <use x="117.082031" xlink:href="#DejaVuSans-110"/>
      <use x="180.460938" xlink:href="#DejaVuSans-97"/>
      <use x="241.740234" xlink:href="#DejaVuSans-109"/>
      <use x="339.152344" xlink:href="#DejaVuSans-97"/>
     </g>
    </g>
    <g id="line2d_49">
     <path d="M 81 226.397812 
L 101 226.397812 
" style="fill:none;stroke:#ff7f0e;stroke-linecap:square;stroke-width:1.5;"/>
    </g>
    <g id="line2d_50"/>
    <g id="text_27">
     <!-- Peru -->
     <g transform="translate(109 229.897812)scale(0.1 -0.1)">
      <use xlink:href="#DejaVuSans-80"/>
      <use x="56.677734" xlink:href="#DejaVuSans-101"/>
      <use x="118.201172" xlink:href="#DejaVuSans-114"/>
      <use x="159.314453" xlink:href="#DejaVuSans-117"/>
     </g>
    </g>
    <g id="line2d_51">
     <path d="M 81 241.075937 
L 101 241.075937 
" style="fill:none;stroke:#2ca02c;stroke-linecap:square;stroke-width:1.5;"/>
    </g>
    <g id="line2d_52"/>
    <g id="text_28">
     <!-- US -->
     <defs>
      <path d="M 8.6875 72.90625 
L 18.609375 72.90625 
L 18.609375 28.609375 
Q 18.609375 16.890625 22.84375 11.734375 
Q 27.09375 6.59375 36.625 6.59375 
Q 46.09375 6.59375 50.34375 11.734375 
Q 54.59375 16.890625 54.59375 28.609375 
L 54.59375 72.90625 
L 64.5 72.90625 
L 64.5 27.390625 
Q 64.5 13.140625 57.4375 5.859375 
Q 50.390625 -1.421875 36.625 -1.421875 
Q 22.796875 -1.421875 15.734375 5.859375 
Q 8.6875 13.140625 8.6875 27.390625 
z
" id="DejaVuSans-85"/>
     </defs>
     <g transform="translate(109 244.575937)scale(0.1 -0.1)">
      <use xlink:href="#DejaVuSans-85"/>
      <use x="73.193359" xlink:href="#DejaVuSans-83"/>
     </g>
    </g>
    <g id="line2d_53">
     <path d="M 81 255.754062 
L 101 255.754062 
" style="fill:none;stroke:#d62728;stroke-linecap:square;stroke-width:1.5;"/>
    </g>
    <g id="line2d_54"/>
    <g id="text_29">
     <!-- Venezuela -->
     <defs>
      <path d="M 28.609375 0 
L 0.78125 72.90625 
L 11.078125 72.90625 
L 34.1875 11.53125 
L 57.328125 72.90625 
L 67.578125 72.90625 
L 39.796875 0 
z
" id="DejaVuSans-86"/>
     </defs>
     <g transform="translate(109 259.254062)scale(0.1 -0.1)">
      <use xlink:href="#DejaVuSans-86"/>
      <use x="60.658203" xlink:href="#DejaVuSans-101"/>
      <use x="122.181641" xlink:href="#DejaVuSans-110"/>
      <use x="185.560547" xlink:href="#DejaVuSans-101"/>
      <use x="247.083984" xlink:href="#DejaVuSans-122"/>
      <use x="299.574219" xlink:href="#DejaVuSans-117"/>
      <use x="362.953125" xlink:href="#DejaVuSans-101"/>
      <use x="424.476562" xlink:href="#DejaVuSans-108"/>
      <use x="452.259766" xlink:href="#DejaVuSans-97"/>
     </g>
    </g>
   </g>
  </g>
 </g>
 <defs>
  <clipPath id="pb7613005bc">
   <rect height="332.64" width="446.4" x="72" y="51.84"/>
  </clipPath>
 </defs>
</svg>
